<svg viewBox="0 0 330 200" xmlns="http://www.w3.org/2000/svg"><g><g><g><g><g><line x1="71.90799903869629" y1="178.0640001296997" x2="66.90799903869629" y2="178.0640001296997" style="visibility: inherit;" fill="rgb(0, 0, 0)" stroke="rgb(204, 204, 204)" stroke-width="1px"></line><line x1="71.90799903869629" y1="163.22533345222473" x2="66.90799903869629" y2="163.22533345222473" style="visibility: inherit;" fill="rgb(0, 0, 0)" stroke="rgb(204, 204, 204)" stroke-width="1px"></line><line x1="71.90799903869629" y1="148.38666677474976" x2="66.90799903869629" y2="148.38666677474976" style="visibility: inherit;" fill="rgb(0, 0, 0)" stroke="rgb(204, 204, 204)" stroke-width="1px"></line><line x1="71.90799903869629" y1="133.54800009727478" x2="66.90799903869629" y2="133.54800009727478" style="visibility: inherit;" fill="rgb(0, 0, 0)" stroke="rgb(204, 204, 204)" stroke-width="1px"></line><line x1="71.90799903869629" y1="118.7093334197998" x2="66.90799903869629" y2="118.7093334197998" style="visibility: inherit;" fill="rgb(0, 0, 0)" stroke="rgb(204, 204, 204)" stroke-width="1px"></line><line x1="71.90799903869629" y1="103.87066674232483" x2="66.90799903869629" y2="103.87066674232483" style="visibility: inherit;" fill="rgb(0, 0, 0)" stroke="rgb(204, 204, 204)" stroke-width="1px"></line><line x1="71.90799903869629" y1="89.03200006484985" x2="66.90799903869629" y2="89.03200006484985" style="visibility: inherit;" fill="rgb(0, 0, 0)" stroke="rgb(204, 204, 204)" stroke-width="1px"></line><line x1="71.90799903869629" y1="74.19333338737488" x2="66.90799903869629" y2="74.19333338737488" style="visibility: inherit;" fill="rgb(0, 0, 0)" stroke="rgb(204, 204, 204)" stroke-width="1px"></line><line x1="71.90799903869629" y1="59.3546667098999" x2="66.90799903869629" y2="59.3546667098999" style="visibility: inherit;" fill="rgb(0, 0, 0)" stroke="rgb(204, 204, 204)" stroke-width="1px"></line><line x1="71.90799903869629" y1="44.51600003242493" x2="66.90799903869629" y2="44.51600003242493" style="visibility: inherit;" fill="rgb(0, 0, 0)" stroke="rgb(204, 204, 204)" stroke-width="1px"></line><line x1="71.90799903869629" y1="29.67733335494995" x2="66.90799903869629" y2="29.67733335494995" style="visibility: inherit;" fill="rgb(0, 0, 0)" stroke="rgb(204, 204, 204)" stroke-width="1px"></line><line x1="71.90799903869629" y1="14.838666677474976" x2="66.90799903869629" y2="14.838666677474976" style="visibility: inherit;" fill="rgb(0, 0, 0)" stroke="rgb(204, 204, 204)" stroke-width="1px"></line><line x1="71.90799903869629" y1="0" x2="66.90799903869629" y2="0" style="visibility: inherit;" fill="rgb(0, 0, 0)" stroke="rgb(204, 204, 204)" stroke-width="1px"></line></g><g transform="translate(61.90799903869629, 0)"><text style="text-anchor: end; visibility: hidden; font-family: &quot;Helvetica Neue&quot;, sans-serif; font-size: 12px; font-weight: 200;" x="0" y="178.0640001296997" dx="0em" dy="0.3em" fill="rgb(50, 49, 63)" stroke="none" stroke-width="1px">-5e+8</text><text style="text-anchor: end; visibility: inherit; font-family: &quot;Helvetica Neue&quot;, sans-serif; font-size: 12px; font-weight: 200;" x="0" y="163.22533345222473" dx="0em" dy="0.3em" fill="rgb(50, 49, 63)" stroke="none" stroke-width="1px">0</text><text style="text-anchor: end; visibility: hidden; font-family: &quot;Helvetica Neue&quot;, sans-serif; font-size: 12px; font-weight: 200;" x="0" y="148.38666677474976" dx="0em" dy="0.3em" fill="rgb(50, 49, 63)" stroke="none" stroke-width="1px">5e+8</text><text style="text-anchor: end; visibility: inherit; font-family: &quot;Helvetica Neue&quot;, sans-serif; font-size: 12px; font-weight: 200;" x="0" y="133.54800009727478" dx="0em" dy="0.3em" fill="rgb(50, 49, 63)" stroke="none" stroke-width="1px">1e+9</text><text style="text-anchor: end; visibility: hidden; font-family: &quot;Helvetica Neue&quot;, sans-serif; font-size: 12px; font-weight: 200;" x="0" y="118.7093334197998" dx="0em" dy="0.3em" fill="rgb(50, 49, 63)" stroke="none" stroke-width="1px">1.5e+9</text><text style="text-anchor: end; visibility: inherit; font-family: &quot;Helvetica Neue&quot;, sans-serif; font-size: 12px; font-weight: 200;" x="0" y="103.87066674232483" dx="0em" dy="0.3em" fill="rgb(50, 49, 63)" stroke="none" stroke-width="1px">2e+9</text><text style="text-anchor: end; visibility: hidden; font-family: &quot;Helvetica Neue&quot;, sans-serif; font-size: 12px; font-weight: 200;" x="0" y="89.03200006484985" dx="0em" dy="0.3em" fill="rgb(50, 49, 63)" stroke="none" stroke-width="1px">2.5e+9</text><text style="text-anchor: end; visibility: inherit; font-family: &quot;Helvetica Neue&quot;, sans-serif; font-size: 12px; font-weight: 200;" x="0" y="74.19333338737488" dx="0em" dy="0.3em" fill="rgb(50, 49, 63)" stroke="none" stroke-width="1px">3e+9</text><text style="text-anchor: end; visibility: hidden; font-family: &quot;Helvetica Neue&quot;, sans-serif; font-size: 12px; font-weight: 200;" x="0" y="59.3546667098999" dx="0em" dy="0.3em" fill="rgb(50, 49, 63)" stroke="none" stroke-width="1px">3.5e+9</text><text style="text-anchor: end; visibility: inherit; font-family: &quot;Helvetica Neue&quot;, sans-serif; font-size: 12px; font-weight: 200;" x="0" y="44.51600003242493" dx="0em" dy="0.3em" fill="rgb(50, 49, 63)" stroke="none" stroke-width="1px">4e+9</text><text style="text-anchor: end; visibility: hidden; font-family: &quot;Helvetica Neue&quot;, sans-serif; font-size: 12px; font-weight: 200;" x="0" y="29.67733335494995" dx="0em" dy="0.3em" fill="rgb(50, 49, 63)" stroke="none" stroke-width="1px">4.5e+9</text><text style="text-anchor: end; visibility: inherit; font-family: &quot;Helvetica Neue&quot;, sans-serif; font-size: 12px; font-weight: 200;" x="0" y="14.838666677474976" dx="0em" dy="0.3em" fill="rgb(50, 49, 63)" stroke="none" stroke-width="1px">5e+9</text><text style="text-anchor: end; visibility: hidden; font-family: &quot;Helvetica Neue&quot;, sans-serif; font-size: 12px; font-weight: 200;" x="0" y="0" dx="0em" dy="0.3em" fill="rgb(50, 49, 63)" stroke="none" stroke-width="1px">5.5e+9</text></g><line x1="71.90799903869629" y1="0" x2="71.90799903869629" y2="178.0640001296997" fill="rgb(0, 0, 0)" stroke="rgb(204, 204, 204)" stroke-width="1px"></line></g></g><g transform="translate(71, 0)" clip-path="url(#clip_0)"><clipPath id="clip_0"><rect width="258" height="178"></rect></clipPath><g><g><g><line x1="0" y1="0" x2="0" y2="178.0640001296997" fill="rgb(0, 0, 0)" stroke="rgb(60, 60, 60)" stroke-width="1px" opacity="0.25"></line><line x1="21.507666746775307" y1="0" x2="21.507666746775307" y2="178.0640001296997" fill="rgb(0, 0, 0)" stroke="rgb(60, 60, 60)" stroke-width="1px" opacity="0.25"></line><line x1="43.015333493550614" y1="0" x2="43.015333493550614" y2="178.0640001296997" fill="rgb(0, 0, 0)" stroke="rgb(60, 60, 60)" stroke-width="1px" opacity="0.25"></line><line x1="64.52300024032593" y1="0" x2="64.52300024032593" y2="178.0640001296997" fill="rgb(0, 0, 0)" stroke="rgb(60, 60, 60)" stroke-width="1px" opacity="0.25"></line><line x1="86.03066698710123" y1="0" x2="86.03066698710123" y2="178.0640001296997" fill="rgb(0, 0, 0)" stroke="rgb(60, 60, 60)" stroke-width="1px" opacity="0.25"></line><line x1="107.53833373387656" y1="0" x2="107.53833373387656" y2="178.0640001296997" fill="rgb(0, 0, 0)" stroke="rgb(60, 60, 60)" stroke-width="1px" opacity="0.25"></line><line x1="129.04600048065186" y1="0" x2="129.04600048065186" y2="178.0640001296997" fill="rgb(0, 0, 0)" stroke="rgb(60, 60, 60)" stroke-width="1px" opacity="0.25"></line><line x1="150.55366722742718" y1="0" x2="150.55366722742718" y2="178.0640001296997" fill="rgb(0, 0, 0)" stroke="rgb(60, 60, 60)" stroke-width="1px" opacity="0.25"></line><line x1="172.06133397420246" y1="0" x2="172.06133397420246" y2="178.0640001296997" fill="rgb(0, 0, 0)" stroke="rgb(60, 60, 60)" stroke-width="1px" opacity="0.25"></line><line x1="193.56900072097778" y1="0" x2="193.56900072097778" y2="178.0640001296997" fill="rgb(0, 0, 0)" stroke="rgb(60, 60, 60)" stroke-width="1px" opacity="0.25"></line><line x1="215.0766674677531" y1="0" x2="215.0766674677531" y2="178.0640001296997" fill="rgb(0, 0, 0)" stroke="rgb(60, 60, 60)" stroke-width="1px" opacity="0.25"></line><line x1="236.58433421452838" y1="0" x2="236.58433421452838" y2="178.0640001296997" fill="rgb(0, 0, 0)" stroke="rgb(60, 60, 60)" stroke-width="1px" opacity="0.25"></line><line x1="258.0920009613037" y1="0" x2="258.0920009613037" y2="178.0640001296997" fill="rgb(0, 0, 0)" stroke="rgb(60, 60, 60)" stroke-width="1px" opacity="0.25"></line></g><g><line x1="0" y1="178.0640001296997" x2="258.0920009613037" y2="178.0640001296997" fill="rgb(0, 0, 0)" stroke="rgb(60, 60, 60)" stroke-width="1px" opacity="0.25"></line><line x1="0" y1="163.22533345222473" x2="258.0920009613037" y2="163.22533345222473" fill="rgb(0, 0, 0)" stroke="rgb(60, 60, 60)" stroke-width="1px" opacity="0.25"></line><line x1="0" y1="148.38666677474976" x2="258.0920009613037" y2="148.38666677474976" fill="rgb(0, 0, 0)" stroke="rgb(60, 60, 60)" stroke-width="1px" opacity="0.25"></line><line x1="0" y1="133.54800009727478" x2="258.0920009613037" y2="133.54800009727478" fill="rgb(0, 0, 0)" stroke="rgb(60, 60, 60)" stroke-width="1px" opacity="0.25"></line><line x1="0" y1="118.7093334197998" x2="258.0920009613037" y2="118.7093334197998" fill="rgb(0, 0, 0)" stroke="rgb(60, 60, 60)" stroke-width="1px" opacity="0.25"></line><line x1="0" y1="103.87066674232483" x2="258.0920009613037" y2="103.87066674232483" fill="rgb(0, 0, 0)" stroke="rgb(60, 60, 60)" stroke-width="1px" opacity="0.25"></line><line x1="0" y1="89.03200006484985" x2="258.0920009613037" y2="89.03200006484985" fill="rgb(0, 0, 0)" stroke="rgb(60, 60, 60)" stroke-width="1px" opacity="0.25"></line><line x1="0" y1="74.19333338737488" x2="258.0920009613037" y2="74.19333338737488" fill="rgb(0, 0, 0)" stroke="rgb(60, 60, 60)" stroke-width="1px" opacity="0.25"></line><line x1="0" y1="59.3546667098999" x2="258.0920009613037" y2="59.3546667098999" fill="rgb(0, 0, 0)" stroke="rgb(60, 60, 60)" stroke-width="1px" opacity="0.25"></line><line x1="0" y1="44.51600003242493" x2="258.0920009613037" y2="44.51600003242493" fill="rgb(0, 0, 0)" stroke="rgb(60, 60, 60)" stroke-width="1px" opacity="0.25"></line><line x1="0" y1="29.67733335494995" x2="258.0920009613037" y2="29.67733335494995" fill="rgb(0, 0, 0)" stroke="rgb(60, 60, 60)" stroke-width="1px" opacity="0.25"></line><line x1="0" y1="14.838666677474976" x2="258.0920009613037" y2="14.838666677474976" fill="rgb(0, 0, 0)" stroke="rgb(60, 60, 60)" stroke-width="1px" opacity="0.25"></line><line x1="0" y1="0" x2="258.0920009613037" y2="0" fill="rgb(0, 0, 0)" stroke="rgb(60, 60, 60)" stroke-width="1px" opacity="0.25"></line></g></g></g><g><g><line x1="0" y1="163.22533345222473" x2="258.0920009613037" y2="163.22533345222473" fill="rgb(0, 0, 0)" stroke="rgb(153, 153, 153)" stroke-width="1.5px"></line></g></g><g><g><line x1="21.507666746775307" y1="0" x2="21.507666746775307" y2="178.0640001296997" fill="rgb(0, 0, 0)" stroke="rgb(153, 153, 153)" stroke-width="1.5px"></line></g></g><g><g><g><g><g><path style="fill: none;" stroke="rgb(255, 112, 67)" stroke-width="2px" d="M21.894804748217265,163.22506785643694L22.023850748697917,163.2249403043305L22.367973416646322,163.22447208931666L22.41098875013987,163.22419292117706L22.475511750380196,163.22382300781464L22.712096084594727,163.22303395442216L23.034711085796356,163.22156412496633L23.09923408603668,163.22049020419053L23.529387420972185,163.2178889814872L23.78747942193349,163.21441265729212L24.217632756868998,163.2086897937121L24.841355092525482,163.19355524633005L24.905878092765807,163.18320574133546L25.099447093486788,163.1722688970438L25.44356976143519,163.15637622203144L25.486585094928742,163.14595042120354L26.432922431786857,163.0982849627865L26.54046076552073,163.06089730687762L26.86307576672236,163.0002255811734L26.992121767203013,162.93583076751997L27.099660100936887,162.88542237904568L27.25021376816432,162.8335711392598L27.379259768644967,162.77662027717943L28.132028104782105,162.4444682657748L28.175043438275654,162.2148972709631L28.34710477224986,161.92749261418896L28.79876577393214,161.31291477473098L28.97082710790634,160.81481026375525L29.40098044284185,160.1696272952313L30.562394447167716,157.8230591899612L30.583902113914487,156.35792696353514L30.94953244860967,154.49142077899714L31.014055448849998,153.1945494592014L31.078578449090323,152.19723191083492L31.401193450291952,150.50470904119433L31.46571645053228,149.3123161501921L31.48722411727905,148.5120437056827L31.702300784746807,147.246014575373L32.110946452935536,145.04883656602595L32.56260745461782,141.87174672944L32.928237789312995,138.34034496024196L33.03577612304687,135.69859707390225L33.61648312520981,131.22305166740887L33.83155979267756,127.3503044018506L33.960605793158216,124.30788299491422L34.111159460385636,121.65029481777412L34.132667127132414,119.93268382793497L34.842420129776,114.86646333894646L34.88543546326955,111.56989191170551L35.14352746423085,108.12335847445924L35.294081131458285,105.46228832916852L35.315588798205056,103.728177415073L35.35860413169861,102.43139747259713L35.423127131938934,101.26378207543905L35.46614246543248,100.30558509338383L35.72423446639379,98.18635002499683L35.939311133861544,95.59871792087075L36.86414080397288,88.75189232280516L37.03620213794708,83.708122780424L37.208263471921285,79.74511715790787L37.40183247264226,76.35081848796509L37.68143214035034,72.90326280806077L37.767462807337445,70.4870421083023L37.96103180805842,68.18617326457395L38.04706247504552,66.42699159704992L38.09007780853908,65.19796411923365L38.13309314203262,64.32578195958814L38.283646809260055,63.171843100290815L38.391185142993926,61.93941727539958L38.434200476487476,60.998709763917205L38.54173881022136,59.98589598296461L38.5847541437149,59.39963237488867L38.67078481070201,58.61486206819386L38.75681547768911,57.73047962494029L38.88586147816976,56.7065845783238L38.90736914491654,55.97499843670262L39.40204548009237,53.39704207639696L39.48807614707947,51.71794894920093L40.197829149723056,48.87488894079854L40.348382816950476,46.66493523273391L40.47742881743113,44.94859353782945L40.77853615188599,43.00289796001488L40.86456681887309,41.63116836513032L41.01512048610052,40.481159899447334L41.058135819594064,39.698785663191615L41.23019715356827,38.83194734455989L41.531304488023125,37.90268196125774L41.552812154769896,37.314359349971966L41.76788882223765,36.73765282116014L41.83241182247797,36.35272415158022L42.02598082319896,36.06607498837943L42.198042157173155,35.738691364248695L42.39161115789414,35.49391743102362L42.41311882464091,35.33959546586067L42.54216482512156,35.281208808541464L42.56367249186833,35.27366115876302L42.671210825602216,35.29795405544067L43.05834882704417,35.63604824484875L43.1228718272845,35.91361756392405L43.316440828005476,36.35681989894354L43.961670830408735,38.41865662834178L44.24127049811681,40.77983310873225L44.37031649859746,42.61789977025694L44.43483949883779,44.01625725094112L44.47785483233134,44.97152407447206L44.56388549931844,45.90069516893098L44.692931499799094,47.028844417646496L44.80046983353297,48.11477176168256L45.01554650100072,49.665094195374365L45.14459250148138,51.2551884715666L45.252130835215254,52.79975426492487L45.467207502683,54.8640672392831L46.37052950604757,61.284359593227535L46.45656017303467,66.0766369523056L46.478067839781446,69.05453176431993L46.49957550652822,70.9822945798915L46.88671350797018,74.51427550827235L47.166313175678255,78.2692353746609L47.44591284338633,82.2912895765207L48.00511217880249,88.45507150169539L48.2632041797638,93.49353066425319L48.499788513978324,97.63146648104683L48.56431151421865,100.40665179469602L48.62883451445898,102.43463291354342L49.05898784939448,106.83245185063558L49.18803384987513,110.54367387313661L49.33858751710256,113.62140827683791L49.46763351758322,116.19993051638323L49.811756185531614,119.355394642995L49.87627918577194,121.65980323699593L50.11286351998647,124.11692398736099L50.17738652022679,125.82368743250564L50.24190952046712,127.08091114340172L50.263417187213896,127.90867117626058L51.29578519105912,132.01378931526347L51.36030819129944,134.71273279514634L51.42483119153977,136.58168934019227L51.44633885828654,137.76625234036663L51.91950752671559,140.0469459564244L52.1775995276769,142.13851431384126L52.39267619514466,143.81267515501168L52.47870686213176,144.87002599326067L53.01639853080113,145.8148122099551L53.03790619754791,146.3672739564391L53.27449053176244,146.4924087315648L53.446551865736645,146.3318251688462L53.532582532723744,146.09920963202455L53.5755978662173,145.88630643211818L54.2638432021141,144.34537795134978L54.34987386910121,143.28043539512143L54.88756553777059,141.65435597967982L55.231688205718996,139.88878261742133L55.25319587246577,138.77924259584836L55.57581087366739,136.75279053122543L55.6618415406545,135.3428635306634L56.005964208602904,134.15986323244226L56.027471875349676,133.4491574437468L56.50064054377874,132.8858167146474L56.608178877512614,132.53604011001119L56.71571721124649,132.3403554491022L56.78024021148682,132.25755839483264L56.8877785452207,132.22636994817452L56.95230154546102,132.192282027185L57.210393546422324,132.16388923463245L57.38245488039652,132.19470728571923L57.53300854762396,132.0115373598468L57.68356221485138,131.42835781631783L57.877131215572355,131.08922319962696L57.963161882559454,130.90745579120693L58.00617721605301,130.83820266925161L58.049192549546554,130.836535612628L58.11371554978688,130.91065844354057L58.264269217014316,131.11997895006738L58.45783821773529,131.42691277132516L58.67291488520304,131.89897111805806L58.75894555219014,132.29551067105072L58.8019608856837,132.59986224647872L58.86648388592402,132.88852678066823L58.9740222196579,133.2213840465185L59.038545219898225,133.53435280815916L59.060052886644996,133.7604963632664L59.49020622158051,134.60142078092764L59.683775222301485,135.40872715703986L59.81282122278214,136.09254722129083L59.96337489000956,136.78010399650418L59.98488255675633,137.23077851575277L60.17845155747732,137.62237463043235L60.329005224704744,138.09207744195612L60.78066622638702,139.09420761082868L60.866696893374126,139.83127095583083L61.081773560841874,140.64841393061454L61.167804227828974,141.30451975006315L61.36137322854996,142.02335488679478L61.64097289625804,142.9474102446572L61.70549589649836,143.6030172399966L61.83454189697902,144.17424562577992L61.87755723047256,144.57605394103908L62.60881789986293,145.51398436995123L62.737863900343584,146.10320056353112L63.10349423503876,146.59640463105544L63.31857090250651,146.93366337088122L63.383093902746836,147.17600865527942L63.426109236240386,147.33961311202438L63.81324723768234,147.62688260323313L64.1143545721372,148.04303718116526L64.15736990563074,148.31805737143313L64.5445079070727,148.87111263259436L64.63053857405981,149.30888161856507L64.80259990803401,149.7863381471914L65.1682302427292,150.4270050075244L65.29727624320984,150.9143677115496L65.81346024513245,151.55473093729015L66.09305991284053,152.07299089359373L66.15758291308086,152.41403977836524L66.17909057982763,152.62916909222034L66.22210591332117,152.77289332299313L66.26512124681473,152.87619199574976L66.35115191380183,152.9675302018102L66.43718258078893,153.03432219831708L66.58773624801636,153.1119053670133L66.91035124921798,153.18626933988864L67.64161191860835,153.09861855542363L67.72764258559545,153.01746111101076L67.87819625282287,152.90393805287047L68.07176525354384,152.72442889898463L68.32985725450516,152.4452877558317L68.54493392197291,152.10511954660566L68.58794925546646,151.86264568659087L68.63096458896001,151.6775295473638L68.73850292269388,151.45910218164164L68.80302592293421,151.2673528139572L68.97508725690841,150.97677938301706L69.06111792389552,150.70874004190154L69.49127125883102,150.0324976056675L69.5988095925649,149.47377285046093L69.62031725931168,149.10664184408927L69.66333259280523,148.8200542959022L69.72785559304555,148.5551438118503L69.81388626003266,148.27185699709173L69.83539392677943,148.07647427322718L69.98594759400686,147.764124481753L70.05047059424717,147.47975548242025L70.15800892798106,147.1558550720295L70.56665459616978,146.28287502928154L70.78173126363754,145.37960764291262L70.9107772641182,144.58702046897804L71.03982326459885,143.86981622798046L71.12585393158595,143.26039871643334L71.38394593254725,142.42711168902366L71.40545359929403,141.8784158439642L71.9431452679634,140.48162117974775L72.1367142686844,139.2763302587616L72.88948260482152,137.41648022019208L72.9109902715683,136.26290230104428L72.95400560506185,135.50259473959022L73.90034294191996,133.6647338473562L74.07240427589416,132.33796246709522L74.2229579431216,131.38349086546435L74.26597327661514,130.76166489953908L74.30898861010868,130.34981955459676L74.41652694384257,129.9934845660905L74.95421861251195,129.22972621337973L74.97572627925872,128.74242939068574L75.19080294672648,128.2289092942885L75.23381828022002,127.89371403441659L75.3413566139539,127.57351983104243L75.64246394840876,127.12717464082635L75.7715099488894,126.74618605958068L75.96507894961039,126.40511648219028L76.28769395081201,126.02738019322568L76.37372461779913,125.74629091207822L76.41673995129267,125.56524902728897L76.95443161996207,125.36401770077251L77.21252362092336,125.22668011115667L77.4276002883911,125.1433613112681L77.55664628887176,125.10610478875435L77.92227662356694,125.18619873940182L78.0513226240476,125.29797903970976L78.07283029079437,125.3744360835259L78.37393762524923,125.53452046453131L78.50298362572987,125.72164565347397L78.61052195946375,125.88437356308751L79.10519829463959,126.69225299907963L79.255751961867,127.44771087588649L79.36329029560089,128.0752759748421L79.64288996330896,129.19910567282272L79.79344363053639,130.3987893487447L80.11605863173803,132.55620566964905L80.37415063269933,135.72801868874947L80.43867363293965,138.0093983877258L80.73978096739451,140.51908785902316L81.49254930353165,142.82069928319828L81.51405697027843,144.2085729316241L81.5355646370252,145.0543304558144L81.92270263846716,145.7260984410147L82.24531763966878,146.2701410955933L83.27768564351399,146.94408683741491L83.47125464423497,147.37604840951252L83.66482364495594,147.6608661889199L83.7938696454366,147.8504099865107L84.2455306471189,148.03985876460195L84.28854598061244,148.1726761318397L84.31005364735921,148.25617474759846L85.32091398445765,148.34701761937245L85.49297531843185,148.40478604472403L85.98765165360768,148.40225973931058L86.18122065432865,148.38929429840294L86.26725132131577,148.36606800558897L86.35328198830287,148.3360337248094L86.61137398926418,148.26019050480517L86.6758969895045,148.2013784911033L86.84795832347871,148.1142337278663L86.91248132371902,148.0423159549402L87.42866532564163,147.8322554099579L87.51469599262873,147.66492418947283L87.55771132612229,147.54169983661689L88.159925995032,146.1253776702701L88.65460233020784,143.68294348579474L88.97721733140945,141.2784165536554L89.14927866538365,139.26978926009292L89.25681699911753,137.81652291281367L89.36435533285142,136.70576247103057L89.49340133333206,135.79910005403747L89.83752400128047,134.7577708961215L90.22466200272243,133.94297768872153L90.2461696694692,133.42350932441713L90.39672333669662,132.88927698584735L90.46124633693695,132.4775201912961L90.97743033885955,131.54708478237262L91.04195333909989,130.89162547442402L91.1925070063273,130.33814357197014L91.25703000656765,129.97705212589645L91.27853767331442,129.68701247787664L91.32155300680796,129.47314185950188L91.34306067355473,129.33780253229483L91.88075234222411,129.2568010267398L92.0743213429451,129.2743096360907L92.59050534486771,129.44148832962333L92.7625666788419,129.6533298971159L93.06367401329676,130.0539897651536L93.08518168004355,130.31643029409472L93.45081201473872,130.75496640392862L94.0745343503952,131.50964271661263L94.11754968388874,132.0114091716336L94.33262635135651,132.4825717321045L94.69825668605169,133.150284852548L94.80579501978556,133.66949366221888L95.27896368821462,134.44306910223958L95.45102502218883,135.0689477608018L95.68760935640336,135.66253925305796L95.7306246898969,136.03365646273082L95.88117835712433,136.38878741113768L96.01022435760498,136.723409142809L96.16077802483241,137.1172457235076L96.28982402531305,137.50443654151508L96.3543470255534,137.80393861568587L96.71997736024858,138.45489046258382L96.97806936120986,139.1661234007247L97.04259236145019,139.68562890459629L97.19314602867762,140.19724252309683L97.53726869662603,140.99640884053542L97.58028403011957,141.53092974226635L97.70933003060023,142.03071825676017L97.79536069758734,142.44584616230628L98.13948336553572,143.1589552208178L98.50511370023091,144.0177556693415L98.93526703516643,145.03483491581113L99.32240503660839,146.0498345666608L99.36542037010193,146.7046747734941L99.40843570359547,147.14268958390323L99.47295870383581,147.47646385934172L99.53748170407613,147.74439426413358L99.90311203877131,148.262120019674L100.13969637298584,148.7760960140744L100.4408037074407,149.30925213046447L101.08603370984395,149.98825084070518L101.1290490433375,150.4128604510413L101.64523304526011,150.81048273849478L101.73126371224721,151.06732747169698L101.77427904574076,151.22708791484803L101.90332504622141,151.33721399229037L101.96784804646174,151.40719925942636L102.0108633799553,151.4492888060035L102.20443238067628,151.47382951820953L102.3549860479037,151.47620817485748L102.63458571561178,151.4306644597987L102.80664704958598,151.36104048081904L103.08624671729405,151.24009437550262L103.12926205078762,151.150647574645L103.19378505102793,151.07685930675794L103.53790771897634,150.9004429147614L103.64544605271021,150.74802369296535L103.68846138620377,150.63747078349832L103.90353805367153,150.4608552180471L103.98956872065861,150.308337005151L104.6132910563151,149.80663499769054L104.72082939004898,149.44136678248802L104.8713830572764,149.12288013964724L105.81772039413451,148.16896273712683L105.98978172810872,147.45281407696268L106.14033539533615,146.89231441296303L106.22636606232327,146.48195974374238L106.46295039653778,146.0219037590526L106.59199639701843,145.6255319528295L106.72104239749908,145.26922441863707L107.19421106592814,144.65355353342994L107.43079540014267,144.09973329878147L107.53833373387656,143.7054745060774L107.73190273459753,143.38056453836285L107.7534104013443,143.19500818110524L108.0115024023056,143.07310714679204L108.24808673652014,143.066253058246L108.31260973676046,143.07502123256668L108.5276864042282,143.11001759060372L109.53854674132666,143.00576091419867L109.64608507506053,142.9188982758302L109.6675927418073,142.86033582064658L109.88266940927505,142.7706308008897L111.45272908178966,142.52650134283405L111.68931341600418,142.39424295686007L111.71082108275095,142.31809022825402L111.75383641624451,142.27375852521405L111.79685174973805,142.24917433316432L111.86137474997838,142.24104798867427L111.88288241672515,142.2399252962656L112.42057408539453,142.2960703362986L112.52811241912842,142.35156872833858L112.59263541936875,142.39973435067523L112.76469675334295,142.4622962722063L113.00128108755747,142.5466637823217L113.19485008827846,142.77879218873434L113.25937308851879,142.93685759620095L113.28088075526556,143.03475783206875L113.60349575646718,143.17482583288282L113.9476184244156,143.35292545138535L114.07666442489624,143.49344093295832L114.16269509188335,143.60013747264054L114.35626409260432,143.72814067683782L114.39927942609786,143.8188412780479L114.59284842681885,143.92469601875808L114.67887909380596,144.00716436954468L114.91546342802047,144.1306622638508L115.47466276343664,144.40535508237258L115.66823176415761,144.6382343367651L115.99084676535925,144.87172896735692L116.14140043258668,145.0525447564894L116.27044643306732,145.18161709883935L116.35647710005442,145.26500014948883L116.3779847668012,145.32050466440091L116.78663043498993,145.3604019142383L116.85115343523024,145.3649934918173L117.62542943811417,144.87083762645716L117.75447543859481,144.41187224566994L118.07709043979645,143.59769243558276L118.12010577328999,142.99919702825565L118.48573610798518,141.6012225548659L118.50724377473196,140.71915473845277L118.91588944292069,139.3895586285446L118.93739710966746,138.55341663202455L119.00192010990779,137.92830107798633L119.19548911062876,137.235365757782L119.4320734448433,136.48872575571602L119.96976511351266,135.3629095613L120.03428811375301,134.6034967144261L120.27087244796753,133.83218778322808L120.33539544820785,133.29167041337638L120.3784107817014,132.91782951925435L120.42142611519496,132.64066153235757L120.67951811615626,132.15950256204457L121.04514845085143,131.42100554962832L121.49680945253372,130.43176539551519L121.64736311976115,129.64995475803124L121.81942445373535,128.97645280274128L121.90545512072245,128.47632204668352L122.05600878794988,128.01472140614507L122.07751645469665,127.71074011844661L122.09902412144343,127.50579163416947L122.31410078891118,127.14764662845803L122.87330012432734,126.32272052778895L122.98083845806121,125.7242989519884L123.32496112600963,124.96116323424576L123.56154546022415,124.26256890527443L123.64757612721127,123.73320750105297L123.66908379395804,123.39039009154706L123.84114512793224,122.91628055890243L123.97019112841288,122.46141281440217L124.0347141286532,122.09441815489322L124.22828312937419,121.48263174710956L124.31431379636129,120.95313362525226L124.46486746358872,120.3464282378879L124.48637513033549,119.94491792751985L124.61542113081615,119.45967488444265L124.7444671312968,118.96705823700532L124.78748246479034,118.6020085303995L124.85200546503067,118.25424992540573L125.60477380116781,116.58618487643551L125.86286580212912,114.86475854061275L126.27151147031785,112.98401800130686L126.31452680381139,111.76154676877805L126.76618780549367,110.3204591553928L127.19634114042918,109.23869880256778L127.7125251423518,108.51436301960086L127.77704814259211,108.07676513631027L128.05664781030018,107.70887153119146L128.2287091442744,107.38106676690299L128.42227814499537,107.33693964689435L128.4868011452357,107.41469966637844L128.52981647872926,107.46841973811455L128.55132414547603,107.44919157002116L129.49766148233414,108.99822390070608L129.6267074828148,110.11435997507597L129.6912304830551,110.93815786367577L129.84178415028254,111.72870774242104L130.12138381799062,112.89742611112544L130.16439915148416,113.7687355081349L130.18590681823093,114.3771635675827L130.3364604854584,115.24080416205294L130.72359848690033,117.20308661011228L131.21827482207615,120.43621607163888L131.32581315581004,122.82700080009607L131.75596649074552,126.14038397304563L131.79898182423912,128.3184057907671L131.92802782471975,130.16683429872887L132.4872271601359,133.23916296021275L132.5947654938698,135.39614425174432L132.96039582856497,137.79463144414171L133.34753383000694,140.15426544710294L133.5195951639811,141.87590490990675L134.01427149915696,143.4245345813342L134.10030216614405,144.38792042544867L134.18633283313116,144.9794433901117L134.20784049987793,145.3349755970529L134.7670398352941,145.29151960543805L135.26171617046992,144.75480518209082L135.8854385061264,143.6368633062462L136.12202284034092,142.5337052267733L136.46614550828934,141.08456046943877L136.7672528427442,139.43501084326988L136.78876050949097,138.39070440404504L137.21891384442645,136.4045647672404L137.73509784634908,133.26214285484073L138.0792205142975,129.9108083583737L138.48786618248621,126.21192371201701L138.55238918272656,123.75072826044067L138.6599275164604,121.82843275244713L139.4557111860911,117.8446830560427L139.60626485331855,114.96414583729253L139.69229552030563,112.97468728419038L139.82134152078626,111.40314343984477L139.95038752126695,110.13471424165097L140.0579258550008,109.10301767629117L140.12244885524115,108.31072437648828L140.1654641887347,107.72560551152607L140.6816481906573,106.569272373287L140.85370952463148,105.75258914682578L141.21933985932668,105.88980969888966L141.32687819306054,106.2107808389802L141.3698935265541,106.40231204324284L141.6279855275154,106.49807620762965L141.67100086100896,106.54833541254345L141.80004686148962,106.813732188254L142.0581388624509,107.0665641109773L142.1656771961848,107.2478262571363L142.38075386365253,107.43324584241925L142.5958305311203,107.6575833334986L143.19804520003,108.45550243396696L143.24106053352358,108.99530354030416L143.32709120051067,109.43915622496402L143.6497062017123,110.21391909422522L144.53152053833008,112.49066795129262L144.5960435385704,114.01517162339142L144.98318154001234,115.80468526011137L145.37031954145434,117.71755788729004L145.7359498761495,119.79712048096292L145.80047287638982,121.20463890060034L145.9080112101237,122.31495249568043L146.01554954385756,123.23253701119211L146.40268754529953,124.5825922320575L146.4241952120463,125.43468607572413L146.78982554674147,126.53528768829473L146.8543485469818,127.29482052226027L147.00490221420924,127.95254742048272L147.58560921637218,128.91842122896935L147.62862454986572,129.5251183653835L147.77917821709315,130.00519752793946L148.1663162185351,130.57671683576166L148.35988521925609,131.07422861864333L148.55345421997706,131.52996230682072L148.76853088744483,131.92408717645503L149.00511522165934,132.31180728575913L149.09114588864645,132.6036906934477L149.11265355539322,132.7951460254626L149.52129922358196,133.18157147827517L149.62883755731582,133.47920729534187L149.67185289080936,133.6831694108718L149.75788355779648,133.8443693805914L149.95145255851745,134.0525135515347L150.3385905599594,134.31335775869894L150.7687438948949,134.44566657247316L150.8762822286288,134.51620393179687L151.06985122934978,134.49242291262507L151.1988972298304,134.40927021892995L151.22040489657718,134.34619255989153L151.30643556356432,134.25309161310238L151.37095856380463,134.1549477301394L151.8441272322337,133.758014446029L152.23126523367563,133.2266579966804L152.3172959006627,132.845546988372L152.42483423439663,132.53471984934524L152.76895690234502,132.09471361152586L152.81197223583857,131.80041752616472L153.0270489033063,131.4728917456605L153.156094903787,131.18653097590794L153.19911023728054,130.99056390739565L153.32815623776116,130.78297274157632L153.3711715712547,130.63213712521008L153.41418690474828,130.51335520353618L153.6722789057096,130.28878120858974L153.71529423920313,130.13163208686956L153.75830957269667,130.01353389005692L154.25298590787253,129.77895865671408L154.4465549085935,129.61023078282986L154.5110779088338,129.51115323882306L154.8552005767822,129.45759925379497L155.09178491099675,129.4559187507918L155.1348002444903,129.4588033553863L155.26384624497098,129.4949017047451L155.54344591267903,129.63598876156846L155.65098424641292,129.79586434619404L155.80153791364035,129.9885926949023L155.93058391412097,130.21197447370764L156.21018358182906,130.56729901119786L156.76938291724525,131.41670890372555L157.26405925242105,132.38024234975944L157.35008991940816,133.0262413639039L157.37159758615493,133.42195631222793L157.52215125338236,133.7862139531782L157.88778158807756,134.37866381142445L158.12436592229207,135.0311699298696L158.3609502565066,135.7710355416363L158.511503923734,136.45623837156222L158.6405499242147,137.07417262117775L159.1567339261373,138.25964615249833L160.3396555972099,140.10596775840224L160.42568626419705,141.24671063420328L160.7052859319051,142.01757751415323L161.02790093310674,142.50073901095317L161.19996226708096,142.7661548155881L161.22146993382773,142.9167873303073L161.30750060081482,142.96190306527336L161.5225772682826,142.83563575524207L161.73765393575033,142.53642147843226L161.7591616024971,142.32746135479536L161.78066926924387,142.1730039630795L161.95273060321807,141.823609673271L162.38288393815358,140.73489040914131L162.89906794007618,138.4818027177435L163.04962160730364,136.59120726150974L163.11414460754395,135.23248820799648L163.32922127501172,133.66223958418763L163.5227902757327,132.0279021747144L163.587313275973,130.80290057351593L163.80238994344077,129.19633682643826L163.90992827717463,127.81771439768269L164.68420428005854,123.88942009985584L164.87777328077954,120.80332129854867L164.92078861427308,118.81122260847593L165.00681928126016,117.27038058167923L165.13586528174082,115.90198375076268L165.20038828198116,114.88662398151763L165.3509419492086,113.78214898224452L165.52300328318276,112.53523932211644L165.5875262834231,111.59716770944472L165.7595876173973,110.47047933989926L165.8456182843844,109.49062512587814L165.93164895137153,108.60460288172405L166.42632528654735,105.35004282251543L166.51235595353444,102.87572418696449L166.6629096207619,99.88845898077405L166.74894028774898,96.97428639975628L166.9855246219635,92.18229282782583L167.2436166229248,85.01210867042876L167.5877392908732,74.56824393349666L168.1254309595426,62.079553346201365L168.4480459607442,55.419208235535905L168.74915329519908,53.44501808128679L168.92121462917328,53.66876667634655L169.09327596314748,55.35458974647413L169.22232196362813,57.54178690465825L169.24382963037493,59.05212072485003L169.80302896579107,65.63833583879195L170.10413630024593,72.85955622859564L170.6418279689153,83.06256338638248L171.00745830361046,93.03618583320208L171.26555030457178,101.48334586926596L171.33007330481212,107.16166579335184L171.45911930529277,111.7193732240634L171.84625730673474,117.57294049774134L171.88927264022828,121.40770585942256L172.27641064167022,126.33794604222064L172.3624413086573,129.79761790216986L172.8141023103396,134.01442532845195L172.90013297732673,136.84113344904313L173.05068664455413,138.97690479624825L173.33028631226222,140.8105259301874L173.45933231274287,142.04562382885075L173.76043964719773,142.7673570684379L174.01853164815904,142.88383701701133L174.34114664936067,142.1708169890838L174.51320798333487,141.1552543596581L174.53471565008164,140.46591466854494L175.0078843185107,137.8163557911028L175.0939149854978,135.7275329983924L175.39502231995263,132.56700844805002L175.65311432091394,128.8311906014455L175.67462198766071,126.4314278731606L175.82517565488817,123.8480069497844L176.126282989343,119.84327178307795L176.25532898982365,116.2925368801657L176.40588265705108,112.74781459263725L176.44889799054462,110.19726981209317L176.64246699126562,106.68723289843778L176.68548232475916,104.1252119230068L176.70698999150594,102.33952797726003L177.11563565969468,96.56979896564738L177.180158659935,92.36167225704179L177.373727660656,87.64505650213694L177.65332732836407,81.60874225547724L178.16951133028667,72.09343074771984L178.51363399823506,62.668265635857395L178.7502183324496,54.49379363719818L179.13735633389157,45.709952291791524L179.3524330013593,38.35329277277293L179.37394066810606,33.72401113244973L179.50298666858674,29.76229356526636L179.65354033581417,26.04705137977038L179.73957100280126,23.04495294113437L179.76107866954803,21.03323989374823L179.7825863362948,19.611442759423596L180.25575500472388,14.869104833115955L180.27726267147065,11.843625526646548L180.36329333845774,9.275903866159268L180.40630867195128,7.3759869107529425L180.59987767267228,4.616435728645172L180.68590833965936,2.193361810237036L181.30963067531587,-3.9043947031493076L184.87990335528056,-4.57528135913887L185.15950302298864,0.40220498008920913L185.22402602322896,3.8848858427863604L185.89076369237898,11.357007258277235L185.91227135912578,16.030968702859468L186.25639402707418,21.669527296242762L186.27790169382095,25.23717588300343L186.49297836128872,29.017903328410227L186.55750136152903,31.69945587335252L186.60051669502258,33.61014994469983L186.83710102923712,36.1902317328597L186.96614702971777,38.39143513289591L187.0306700299581,39.99816575417768L187.11670069694517,41.46713627096466L187.50383869838714,44.63701268536829L187.52534636513394,46.68428282302085L187.61137703212103,48.391897846625L187.67590003236134,49.7893167325897L187.7189153658549,50.90743433813009L188.02002270030977,53.45711999064362L188.10605336729685,55.48000854736209L188.3426377015114,58.20624673840953L188.4071607017517,60.2192551321736L188.83731403668722,64.37842415162072L189.00937537066142,68.10644221669659L189.22445203812916,71.91006126997779L189.24595970487593,74.3256186875455L189.48254403909047,77.4685649528664L189.9772203742663,82.6231676183674L190.08475870800018,86.40621354508279L190.45038904269535,91.09247841558893L191.39672637955348,97.98096428242154L191.41823404630026,102.16816142740956L191.50426471328734,104.89830621298451L191.59029538027445,106.68779097953949L191.97743338171642,108.41983278639255L192.10647938219705,109.64013727763786L193.03130905230842,111.25856852779967L193.20337038628261,112.2491161215504L193.37543172025678,112.70588772106278L193.39693938700358,112.97222108871765L193.76256972169878,112.31850091914148L194.04216938940684,111.53551643850422L194.12820005639395,111.06270806389887L194.36478439060846,111.10879110958814L194.62287639156978,111.66129801528051L194.6873993918101,112.08430369276579L194.73041472530363,112.41753788843482L194.81644539229075,112.70011377721161L194.98850672626494,113.04369137183967L196.27896673107145,114.72865308687338L196.40801273155213,115.86808387114024L196.4295203982989,116.58497943557842L196.79515073299407,117.70182120803007L196.9457044002215,118.73239998303828L197.44038073539735,119.57996224523629L197.52641140238444,120.09110399036287L197.76299573659895,120.11881716559401L197.8275187368393,119.93188496487349L198.1931490715345,119.4643665007925L198.32219507201512,119.25709281321109L198.6017947397232,119.66655972467775L199.03194807465871,121.34048523364767L199.22551707537968,123.1078638680462L199.56963974332808,125.63228368473406L199.61265507682162,127.31013374750353L199.80622407754262,129.15330507633874L199.99979307826362,131.05465689449872L200.1718544122378,132.8174220808835L200.6020077471733,135.17181940556713L200.64502308066685,136.69618436590295L200.70954608090716,137.79395607897175L200.75256141440076,138.57028607731792L200.8816074148814,139.39084074636534L201.1396994158427,140.60175134263827L201.16120708258947,141.38565805031047L201.3117607498169,142.2872934062658L201.3762837500572,143.00348579726796L201.4838220837911,143.71544074430952L201.63437575101852,144.5356149210383L201.67739108451207,145.1318569523994L202.7742820885976,146.99787623765445L203.01086642281214,148.23684254113118L203.07538942305248,149.00242875589902L203.18292775678634,149.49541644199806L203.52705042473474,149.8565197000112L203.61308109172185,150.07944153035643L203.63458875846862,150.21650025614574L203.6776040919622,150.29890149475116L203.89268075942994,150.32050955263335L203.97871142641702,150.31038095854157L204.06474209340413,150.2706245396833L204.2583110941251,150.1471733676942L204.27981876087188,150.0619964092009L204.3873570946058,149.94207338887935L204.47338776159287,149.8007260890028L204.49489542833965,149.69886611048952L204.81751042954127,149.320892310227L205.48424809869132,148.23940576775522L205.7423400996526,147.11436519781228L205.89289376688004,146.11372324356026L206.00043210061392,145.26476490539653L206.30153943506878,143.95302117214317L206.49510843578975,142.60766347447037L206.81772343699137,140.78866090682465L207.0543077712059,138.87204830104307L207.2048614384333,137.09765141003234L207.22636910518008,135.9360081867238L207.41993810590108,134.29438086111728L208.23722944227853,128.11328991289125L208.30175244251888,123.93460716279193L208.34476777601242,121.11425102817785L208.40929077625273,118.94095343363819L208.43079844299953,117.47439969073943L208.51682910998662,115.98135292131519L209.20507444588344,111.26966215015909L209.50618178033827,107.30426430656583L210.0868887825012,103.12111021262554L210.21593478298186,100.39494416569528L210.30196544996898,98.7196833701142L210.68910345141094,98.96975064733957L210.7966417851448,99.55019268979841L211.11925678634643,100.93538109367168L211.18377978658677,102.00373806269644L211.24830278682708,102.82583924864213L211.69996378850936,105.08582304906119L211.9365481227239,107.04403470469316L212.216147790432,109.07105083557192L212.23765545717876,110.31369337892058L212.45273212464653,111.51490849865685L212.51725512488684,112.40720199720488L212.60328579187393,113.23301596024234L212.96891612656913,114.76644100926777L213.01193146006267,115.74679658136162L213.07645446030298,116.47342082881687L213.52811546198527,117.84097912210513L213.57113079547884,118.80848574959845L213.6786691292127,119.68051401782253L213.9152534634272,121.10937568957769L214.08731479740143,122.90621115922661L214.17334546438852,124.465356848321L214.53897579908372,127.1883644661047L214.66802179956437,129.46214339901175L214.8830984670321,131.731700671121L214.92611380052566,133.25044436727103L215.05515980100634,134.56997623743123L215.1626981347402,135.59398958186188L215.27023646847405,136.53363609067932L215.3347594687144,137.25126977260237L215.65737446991602,138.56592036335374L215.6788821366628,139.39917220651108L216.25958913882573,140.99990565439555L216.43165047279993,142.18389838008267L216.6467271402677,143.26891104191822L216.88331147448224,144.29584621648377L217.3349724761645,145.46717269670586L217.7006028108597,146.40437222454477L217.72211047760646,146.97381867982187L218.41035581350326,147.4758619127636L218.43186348025006,147.77696439482187L218.5609094807307,147.945217814723L219.679308151563,146.61682516117884L219.72232348505656,145.7309364876948L219.872877152284,144.79166312426315L219.9374001525243,144.06715812019678L220.08795381975173,143.31421153932783L220.66866082191467,141.9763371067221L221.12032182359695,140.88074341610158L221.33539849106472,140.07965204147527L221.67952115901312,139.39594081828383L221.72253649250666,138.97004293287807L221.7655518260002,138.69994075067575L221.8730901597341,138.50996660353138L222.56133549563089,138.46391880198863L222.66887382936477,138.46523392570487L222.9054581635793,138.56435307473262L222.92696583032608,138.63341171985118L222.94847349707285,138.68205683699694L223.01299649731317,138.73990204978628L223.35711916526157,138.8954093146274L223.93782616742453,139.10901466169432L224.00234916766485,139.24145064619788L224.43250250260036,139.30564374746808L224.561548503081,139.3228542268728L224.58305616982778,139.32592272083784L225.14225550524392,139.16486194295632L225.29280917247138,138.99828307658606L225.4433628396988,138.8204282457525L226.15311584234237,137.97144051036824L226.2176388425827,137.37902806945695L226.62628451077143,136.4055156171192L226.6477921775182,135.79504745616987L226.8413611782392,135.1390276562468L226.9919148454666,134.5008677117906L227.05643784570694,134.00423338877587L227.20699151293437,133.46059475071345L227.2715145131747,133.02760431712727L227.68016018136342,132.07099500680826L227.74468318160373,131.38532184858457L227.98126751581827,130.59618903327708L228.21785185003282,129.80160990400378L228.43292851750056,129.0959118186741L228.4759438509941,128.6229229887991L228.49745151774087,128.31752269284237L228.56197451798118,128.06598951058925L229.0781585199038,127.3694503555109L229.1856968536377,126.84787405109026L229.20720452038447,126.50123381124001L229.29323518737155,126.2105033739533L229.70188085556032,125.56468915212969L229.7233885223071,125.15925100808269L229.91695752302806,124.65195577193685L230.08901885700226,124.08074891883152L230.34711085796354,123.28088940908867L231.14289452759422,121.33435540667392L231.2074175278346,120.06318789486932L231.40098652855553,119.05079436580628L231.4224941953023,118.41540894303824L231.551540195783,117.87832619984735L231.59455552927653,117.50611151059402L231.7881245299975,117.07076820742415L232.54089286613464,115.87303257503952L232.64843119986853,115.09851689661978L233.14310753504435,114.251583948929L233.20763053528466,113.67664001874695L233.272153535525,113.26014416469229L233.46572253624598,112.75761647646802L234.0679372051557,111.90019222233065L234.5841212070783,111.2938258763221L234.79919787454602,110.9481197834523L235.9821195456187,111.28575316605382L236.11116554609936,111.59554766686085L236.19719621308644,111.8404576641475L236.26171921332676,112.03975732758164L236.4983035475413,112.35508710703698L236.5628265477816,112.599411689801" fill="none"></path></g></g></g></g><g opacity="0.2"><g><g><g><path style="fill: none;" stroke="rgb(255, 112, 67)" stroke-width="2px" d="M21.894804748217265,163.22506785643694L22.023850748697917,163.22486377306663L22.367973416646322,163.2240226029034L22.41098875013987,163.22386461944487L22.475511750380196,163.2233400489287L22.712096084594727,163.22194240952115L23.034711085796356,163.2194622453272L23.09923408603668,163.21892441738976L23.529387420972185,163.21405268326126L23.78747942193349,163.20925072100718L24.217632756868998,163.20015740429355L24.841355092525482,163.17093578679544L24.905878092765807,163.1677152767731L25.099447093486788,163.1558850570228L25.44356976143519,163.1325558907558L25.486585094928742,163.13031907304418L26.432922431786857,163.02680694558546L26.54046076552073,163.00482531573613L26.86307576672236,162.90922723534382L26.992121767203013,162.83924443298085L27.099660100936887,162.80981256085008L27.25021376816432,162.75579598576806L27.379259768644967,162.69119510845434L28.132028104782105,161.94624418332506L28.175043438275654,161.8705424104379L28.34710477224986,161.49638685467738L28.79876577393214,160.39104958808028L28.97082710790634,160.0676542619994L29.40098044284185,159.20185343675007L30.562394447167716,154.30320832896862L30.583902113914487,154.16022910974982L30.94953244860967,151.6916618735624L31.014055448849998,151.24924263432814L31.078578449090323,150.701255659721L31.401193450291952,147.96592480947263L31.46571645053228,147.52372684443586L31.48722411727905,147.31163505130004L31.702300784746807,145.34697089166102L32.110946452935536,141.75306956424325L32.56260745461782,137.10611198517847L32.928237789312995,133.04324231352578L33.03577612304687,131.73597524757093L33.61648312520981,124.5097335608994L33.83155979267756,121.54118350519049L33.960605793158216,119.74425088530029L34.111159460385636,117.66391255247834L34.132667127132414,117.35626734333691L34.842420129776,107.26713260574812L34.88543546326955,106.62503477095508L35.14352746423085,102.95355831865949L35.294081131458285,101.4706831112647L35.315588798205056,101.12701104394237L35.35860413169861,100.48622755888898L35.423127131938934,99.51235897970496L35.46614246543248,98.86828962030249L35.72423446639379,95.00749742241834L35.939311133861544,91.71726976468311L36.86414080397288,78.48165392570911L37.03620213794708,76.14246846685326L37.208263471921285,73.80060872413415L37.40183247264226,71.25937048305114L37.68143214035034,67.73192928820447L37.767462807337445,66.86271105866467L37.96103180805842,64.73486999898145L38.04706247504552,63.78821909576392L38.09007780853908,63.35442290250927L38.13309314203262,63.01750872011988L38.283646809260055,61.440934811344846L38.391185142993926,60.09077853806275L38.434200476487476,59.5876484966936L38.54173881022136,58.46667531153577L38.5847541437149,58.52023696277479L38.67078481070201,57.4377066081516L38.75681547768911,56.40390596005993L38.88586147816976,55.170742008399046L38.90736914491654,54.87761922427087L39.40204548009237,49.53010753593847L39.48807614707947,49.199309258406856L40.197829149723056,44.610298928194965L40.348382816950476,43.35000467063696L40.47742881743113,42.37408099547278L40.77853615188599,40.08435459329297L40.86456681887309,39.57357397280359L41.01512048610052,38.75614720092287L41.058135819594064,38.525224308807964L41.23019715356827,37.53168986661231L41.531304488023125,36.50878388630457L41.552812154769896,36.43187543304322L41.76788882223765,35.872593027942486L41.83241182247797,35.77533114721032L42.02598082319896,35.63610124357825L42.198042157173155,35.247615928052596L42.39161115789414,35.12675653118592L42.41311882464091,35.10811251811634L42.54216482512156,35.19362882256263L42.56367249186833,35.26233968409534L42.671210825602216,35.334393400457145L43.05834882704417,36.14318952896093L43.1228718272845,36.32997154253698L43.316440828005476,37.021623401472795L43.961670830408735,41.51141172243908L44.24127049811681,44.321597829317994L44.37031649859746,45.37499976254395L44.43483949883779,46.113793471967426L44.47785483233134,46.404424309768444L44.56388549931844,47.29445181061939L44.692931499799094,48.72106829071984L44.80046983353297,49.74366277773669L45.01554650100072,51.990577845911986L45.14459250148138,53.64032988585498L45.252130835215254,55.116602954962275L45.467207502683,57.96053670082044L46.37052950604757,70.91479812414417L46.45656017303467,73.26505299092274L46.478067839781446,73.52137398234143L46.49957550652822,73.87393880324889L46.88671350797018,79.81224690084363L47.166313175678255,83.90167517424365L47.44591284338633,88.32437087931042L48.00511217880249,97.7007443894574L48.2632041797638,101.05121940808985L48.499788513978324,103.83837020623731L48.56431151421865,104.5694297651698L48.62883451445898,105.47660459181458L49.05898784939448,113.4291802562738L49.18803384987513,116.11050690688819L49.33858751710256,118.23800988238983L49.46763351758322,120.06771387570123L49.811756185531614,124.08859083291266L49.87627918577194,125.11641612799733L50.11286351998647,127.80260511290857L50.17738652022679,128.3838326002226L50.24190952046712,128.96674670974585L50.263417187213896,129.15031122554888L51.29578519105912,138.17146652376778L51.36030819129944,138.76114801497064L51.42483119153977,139.38512415776114L51.44633885828654,139.5430968406282L51.91950752671559,143.46798638051104L52.1775995276769,145.27586684996655L52.39267619514466,146.32391641676728L52.47870686213176,146.45605225063417L53.01639853080113,147.2319915349967L53.03790619754791,147.19596657616512L53.27449053176244,146.6801108942534L53.446551865736645,146.09094982476824L53.532582532723744,145.75028632679212L53.5755978662173,145.56695163225857L54.2638432021141,142.0339852301972L54.34987386910121,141.6830215607789L54.88756553777059,139.2152368565174L55.231688205718996,137.24042257403363L55.25319587246577,137.11493256348888L55.57581087366739,133.71311243429105L55.6618415406545,133.22797302982033L56.005964208602904,132.3853627851106L56.027471875349676,132.3830987607036L56.50064054377874,132.0408056209983L56.608178877512614,132.01137520305684L56.71571721124649,132.04682845773868L56.78024021148682,132.1333628134284L56.8877785452207,132.17958727818737L56.95230154546102,132.14115014570072L57.210393546422324,132.1213000458036L57.38245488039652,132.24093436234938L57.53300854762396,131.73678247103817L57.68356221485138,130.55358850102436L57.877131215572355,130.58052127459064L57.963161882559454,130.63480467857684L58.00617721605301,130.73432298631866L58.049192549546554,130.8340350276926L58.11371554978688,131.02184268990942L58.264269217014316,131.43395970985762L58.45783821773529,131.88731350321183L58.67291488520304,132.6070586381574L58.75894555219014,132.89032000053973L58.8019608856837,133.0563896096207L58.86648388592402,133.32152358195248L58.9740222196579,133.72066994529388L59.038545219898225,134.00380595062012L59.060052886644996,134.0997116959273L59.49020622158051,135.86280740741952L59.683775222301485,136.61968672120815L59.81282122278214,137.11827731766732L59.96337489000956,137.8114391593242L59.98488255675633,137.90679029462567L60.17845155747732,138.2097688024517L60.329005224704744,138.79663165924183L60.78066622638702,140.59740286413748L60.866696893374126,140.93686597333408L61.081773560841874,141.8741283927901L61.167804227828974,142.28867847923607L61.36137322854996,143.1016075918922L61.64097289625804,144.3334932814508L61.70549589649836,144.5864277330057L61.83454189697902,145.03108820445493L61.87755723047256,145.17876641392783L62.60881789986293,146.92088001331942L62.737863900343584,146.98702485390095L63.10349423503876,147.33621073234195L63.31857090250651,147.43955148061988L63.383093902746836,147.53952658187671L63.426109236240386,147.58501979714185L63.81324723768234,148.05778684004622L64.1143545721372,148.66726904806347L64.15736990563074,148.73058765683493L64.5445079070727,149.7006955243362L64.63053857405981,149.96553509752113L64.80259990803401,150.50252294013092L65.1682302427292,151.3880052980239L65.29727624320984,151.64541176758738L65.81346024513245,152.515275775901L66.09305991284053,152.85038082804908L66.15758291308086,152.92561310552253L66.17909057982763,152.951863063003L66.22210591332117,152.98847966915233L66.26512124681473,153.03114000488472L66.35115191380183,153.10453751090085L66.43718258078893,153.13451019307735L66.58773624801636,153.22828012005766L66.91035124921798,153.29781529920166L67.64161191860835,152.96714237872612L67.72764258559545,152.89572494439142L67.87819625282287,152.73365346566004L68.07176525354384,152.45516516815587L68.32985725450516,152.02657604110235L68.54493392197291,151.59486723276657L68.58794925546646,151.4989348965687L68.63096458896001,151.3998553385232L68.73850292269388,151.13146113305837L68.80302592293421,150.9797287624305L68.97508725690841,150.5409192366069L69.06111792389552,150.30668103022828L69.49127125883102,149.01813395131637L69.5988095925649,148.63568571765114L69.62031725931168,148.5559453345317L69.66333259280523,148.39017297362165L69.72785559304555,148.15777808577238L69.81388626003266,147.84692677495394L69.83539392677943,147.78340018743035L69.98594759400686,147.29559979454172L70.05047059424717,147.05320198342113L70.15800892798106,146.67000445644337L70.56665459616978,144.97340496515957L70.78173126363754,144.02470656335922L70.9107772641182,143.39813970807617L71.03982326459885,142.79400986648415L71.12585393158595,142.3462724491127L71.38394593254725,141.17718114790912L71.40545359929403,141.05537207637508L71.9431452679634,138.38642918342305L72.1367142686844,137.46839387728235L72.88948260482152,134.62670516233783L72.9109902715683,134.53253542232258L72.95400560506185,134.3621333974091L73.90034294191996,130.90794250900512L74.07240427589416,130.3478053967038L74.2229579431216,129.951783463018L74.26597327661514,129.82892595065118L74.30898861010868,129.73205153718328L74.41652694384257,129.45898208333105L74.95421861251195,128.0840886843136L74.97572627925872,128.0114841566447L75.19080294672648,127.45862914969268L75.23381828022002,127.39092114460871L75.3413566139539,127.0932285259812L75.64246394840876,126.45765685550225L75.7715099488894,126.17470318771217L75.96507894961039,125.89351211610467L76.28769395081201,125.46077575977881L76.37372461779913,125.324656990357L76.41673995129267,125.2936862001051L76.95443161996207,125.0621707109978L77.21252362092336,125.02067372673291L77.4276002883911,125.01838311143524L77.55664628887176,125.05022000498377L77.92227662356694,125.30633966537299L78.0513226240476,125.46564949017169L78.07283029079437,125.48912164925011L78.37393762524923,125.77464703603943L78.50298362572987,126.00233343688794L78.61052195946375,126.12846542750782L79.10519829463959,127.9040721530678L79.255751961867,128.58089769109682L79.36329029560089,129.0166236232755L79.64288996330896,130.88485021979363L79.79344363053639,132.19831486262768L80.11605863173803,135.79233015100553L80.37415063269933,140.48573821740015L80.43867363293965,141.43146793619033L80.73978096739451,144.28362206596915L81.49254930353165,146.27311641946093L81.51405697027843,146.29038340426285L81.5355646370252,146.3229667420999L81.92270263846716,146.73375041881513L82.24531763966878,147.0862050774612L83.27768564351399,147.95500545014733L83.47125464423497,148.02399076765892L83.66482364495594,148.08809285803093L83.7938696454366,148.1347256828969L84.2455306471189,148.3240319317388L84.28854598061244,148.37190218269635L84.31005364735921,148.3814226712366L85.32091398445765,148.48328192703346L85.49297531843185,148.4914386827514L85.98765165360768,148.39847028119036L86.18122065432865,148.3698461370415L86.26725132131577,148.33122856636805L86.35328198830287,148.29098230364005L86.61137398926418,148.14642567479876L86.6758969895045,148.11316047055053L86.84795832347871,147.98351658301078L86.91248132371902,147.93443929555102L87.42866532564163,147.51716459248442L87.51469599262873,147.4139273587452L87.55771132612229,147.356863307333L88.159925995032,144.0008944207499L88.65460233020784,140.01929220908173L88.97721733140945,137.67162615544638L89.14927866538365,136.25684831974922L89.25681699911753,135.63662339189477L89.36435533285142,135.03962180835592L89.49340133333206,134.43910642854786L89.83752400128047,133.19577715924757L90.22466200272243,132.7207878776216L90.2461696694692,132.64430677796054L90.39672333669662,132.08792847799262L90.46124633693695,131.85988499946916L90.97743033885955,130.1514316689874L91.04195333909989,129.9084365125011L91.1925070063273,129.50792071828937L91.25703000656765,129.4354149567859L91.27853767331442,129.25195300584693L91.32155300680796,129.1523359319397L91.34306067355473,129.13479354148427L91.88075234222411,129.1352987684073L92.0743213429451,129.300572550117L92.59050534486771,129.6922563699223L92.7625666788419,129.97109224835475L93.06367401329676,130.6549795672102L93.08518168004355,130.71009108750636L93.45081201473872,131.4127705686795L94.0745343503952,132.64165718563862L94.11754968388874,132.7640588541651L94.33262635135651,133.18931557281087L94.69825668605169,134.15185453321328L94.80579501978556,134.4483068767252L95.27896368821462,135.6034322622706L95.45102502218883,136.0077657486451L95.68760935640336,136.5529264914422L95.7306246898969,136.59033227724012L95.88117835712433,136.92148383374797L96.01022435760498,137.22534174031597L96.16077802483241,137.70800059455553L96.28982402531305,138.0852227685263L96.3543470255534,138.253191726942L96.71997736024858,139.43131823293078L96.97806936120986,140.23297280793605L97.04259236145019,140.46488716040363L97.19314602867762,140.96466295084764L97.53726869662603,142.19515831669327L97.58028403011957,142.3327110948628L97.70933003060023,142.78040102850088L97.79536069758734,143.06853802062543L98.13948336553572,144.22861880858508L98.50511370023091,145.30595634212713L98.93526703516643,146.56045378551556L99.32240503660839,147.57233404293527L99.36542037010193,147.6869350837441L99.40843570359547,147.7997117995169L99.47295870383581,147.97712527249945L99.53748170407613,148.14628987132133L99.90311203877131,149.0387086529847L100.13969637298584,149.54706000567498L100.4408037074407,150.1089863050496L101.08603370984395,151.0067489060662L101.1290490433375,151.04977486654553L101.64523304526011,151.40691616967501L101.73126371224721,151.45259457150027L101.77427904574076,151.46672857957458L101.90332504622141,151.50240310845388L101.96784804646174,151.51217716013034L102.0108633799553,151.5124231258692L102.20443238067628,151.51064058651855L102.3549860479037,151.4797761598294L102.63458571561178,151.36234888721054L102.80664704958598,151.25660451234953L103.08624671729405,151.05867521752802L103.12926205078762,151.0164773733586L103.19378505102793,150.9661769049273L103.53790771897634,150.63581832676667L103.64544605271021,150.5193948602712L103.68846138620377,150.47164141929775L103.90353805367153,150.19593186987026L103.98956872065861,150.07955968580683L104.6132910563151,149.0540819864999L104.72082939004898,148.89346445968422L104.8713830572764,148.64515017538602L105.81772039413451,146.73808663334628L105.98978172810872,146.37859108671643L106.14033539533615,146.05156491696357L106.22636606232327,145.8664277399114L106.46295039653778,145.331819782018L106.59199639701843,145.03097424349485L106.72104239749908,144.73476311734842L107.19421106592814,143.73004720561926L107.43079540014267,143.26900294680877L107.53833373387656,143.11408631702128L107.73190273459753,142.89319958679104L107.7534104013443,142.91667364521882L108.0115024023056,142.89025559532223L108.24808673652014,143.05597192542695L108.31260973676046,143.08817349404774L108.5276864042282,143.16251212765923L109.53854674132666,142.8493758995911L109.64608507506053,142.78860431827752L109.6675927418073,142.77249213787113L109.88266940927505,142.63607327125442L111.45272908178966,142.16030715575056L111.68931341600418,142.1958553778991L111.71082108275095,142.20386113534494L111.75383641624451,142.2072609706541L111.79685174973805,142.21229804508977L111.86137474997838,142.22885847193913L111.88288241672515,142.23824125765265L112.42057408539453,142.3802878963481L112.52811241912842,142.4348163163985L112.59263541936875,142.47198278418023L112.76469675334295,142.55613915450286L113.00128108755747,142.6732150474948L113.19485008827846,143.12698479835333L113.25937308851879,143.17395570740086L113.28088075526556,143.18160818587046L113.60349575646718,143.38492783410388L113.9476184244156,143.62007487913917L114.07666442489624,143.70421415531777L114.16269509188335,143.7601822821639L114.35626409260432,143.92014548313372L114.39927942609786,143.95489217986304L114.59284842681885,144.08347812982336L114.67887909380596,144.13086689572455L114.91546342802047,144.31590910531L115.47466276343664,144.81739431015527L115.66823176415761,144.98755321835387L115.99084676535925,145.22197091324463L116.14140043258668,145.3237684401881L116.27044643306732,145.37522561236426L116.35647710005442,145.39007472546308L116.3779847668012,145.40376143676906L116.78663043498993,145.4202477889944L116.85115343523024,145.37188085818582L117.62542943811417,144.12960382841698L117.75447543859481,143.7234241744891L118.07709043979645,142.37642272045196L118.12010577328999,142.10145391726502L118.48573610798518,139.50426084478124L118.50724377473196,139.3960530138331L118.91588944292069,137.39516446368233L118.93739710966746,137.29920363724443L119.00192010990779,136.99062774692902L119.19548911062876,136.19596277747553L119.4320734448433,135.368765752617L119.96976511351266,133.67418526967603L120.03428811375301,133.4643774441152L120.27087244796753,132.67522438643107L120.33539544820785,132.48089435859885L120.3784107817014,132.3570681780713L120.42142611519496,132.22490955201238L120.67951811615626,131.43776410657506L121.04514845085143,130.31326003100398L121.49680945253372,128.94790516434546L121.64736311976115,128.4772388018053L121.81942445373535,127.96619986980639L121.90545512072245,127.72612591259687L122.05600878794988,127.3223204453374L122.07751645469665,127.25476818689887L122.09902412144343,127.19836890775377L122.31410078891118,126.61042911989087L122.87330012432734,125.08533137678533L122.98083845806121,124.8266665882876L123.32496112600963,123.81645965763178L123.56154546022415,123.21467741181743L123.64757612721127,122.93916539472076L123.66908379395804,122.8761639772882L123.84114512793224,122.20511625993544L123.97019112841288,121.7791111976518L124.0347141286532,121.54392616562981L124.22828312937419,120.56495213543408L124.31431379636129,120.15888644246631L124.46486746358872,119.43637015684138L124.48637513033549,119.34265246196777L124.61542113081615,118.73181031982685L124.7444671312968,118.22813326584931L124.78748246479034,118.05443397049078L124.85200546503067,117.73261201791505L125.60477380116781,114.08408730298015L125.86286580212912,112.28261903687866L126.27151147031785,110.16290719234803L126.31452680381139,109.9278399199848L126.76618780549367,108.15882773531494L127.19634114042918,107.61605827333027L127.7125251423518,107.42785934515051L127.77704814259211,107.42036831137439L128.05664781030018,107.15703112351325L128.2287091442744,106.88935962047027L128.42227814499537,107.27074896688141L128.4868011452357,107.53133969560456L128.52981647872926,107.54899984571875L128.55132414547603,107.42034931788103L129.49766148233414,111.32177239673346L129.6267074828148,111.7885640866308L129.6912304830551,112.17385469657545L129.84178415028254,112.91453256053894L130.12138381799062,114.65050366418207L130.16439915148416,115.0756996036491L130.18590681823093,115.2898056567544L130.3364604854584,116.5362650537583L130.72359848690033,120.14651028220129L131.21827482207615,125.28591026392877L131.32581315581004,126.41317789278186L131.75596649074552,131.11045873246997L131.79898182423912,131.58543851734927L131.92802782471975,132.93947706067155L132.4872271601359,137.8476559524386L132.5947654938698,138.6316161890416L132.96039582856497,141.39236223273787L133.34753383000694,143.6937164515448L133.5195951639811,144.45836410411243L134.01427149915696,145.74747908847542L134.10030216614405,145.83299919162036L134.18633283313116,145.86672783710625L134.20784049987793,145.86827390746473L134.7670398352941,145.2263356180158L135.26171617046992,143.94973354706994L135.8854385061264,141.95995049247927L136.12202284034092,140.8789681075639L136.46614550828934,138.91084333343701L136.7672528427442,136.96068640401654L136.78876050949097,136.82424474520784L137.21891384442645,133.42535531203345L137.73509784634908,128.5485099862412L138.0792205142975,124.88380661367322L138.48786618248621,120.66359674248193L138.55238918272656,120.05893508307618L138.6599275164604,118.94498949045678L139.4557111860911,111.8690585114361L139.60626485331855,110.6433400091673L139.69229552030563,109.99049945453712L139.82134152078626,109.04582767332636L139.95038752126695,108.23207044436029L140.0579258550008,107.55547282825147L140.12244885524115,107.12228442678393L140.1654641887347,106.84792721408277L140.6816481906573,104.8347726659284L140.85370952463148,104.52756430713397L141.21933985932668,106.09564052698548L141.32687819306054,106.69223754911603L141.3698935265541,106.68960884963678L141.6279855275154,106.6417224542099L141.67100086100896,106.62372421991412L141.80004686148962,107.21182735181984L142.0581388624509,107.44581199506226L142.1656771961848,107.51971947637476L142.38075386365253,107.7113752203437L142.5958305311203,107.99408957011761L143.19804520003,109.6523810846695L143.24106053352358,109.80500519981L143.32709120051067,110.1049352519538L143.6497062017123,111.37606339811701L144.53152053833008,115.90579123689375L144.5960435385704,116.3019271315396L144.98318154001234,118.48895571519128L145.37031954145434,120.58686682805805L145.7359498761495,122.91646437147223L145.80047287638982,123.31591653005651L145.9080112101237,123.98042288830052L146.01554954385756,124.60891378445966L146.40268754529953,126.60767506335553L146.4241952120463,126.71282684122411L146.78982554674147,128.18619010715062L146.8543485469818,128.43411977320855L147.00490221420924,128.93913776781642L147.58560921637218,130.3672319416993L147.62862454986572,130.43516407000476L147.77917821709315,130.72531627177344L148.1663162185351,131.43399579749496L148.35988521925609,131.82049629296583L148.55345421997706,132.2135628390868L148.76853088744483,132.51527448090656L149.00511522165934,132.8933874497153L149.09114588864645,133.04151580498052L149.11265355539322,133.08232902348493L149.52129922358196,133.76120965749408L149.62883755731582,133.92566102094185L149.67185289080936,133.98911258416675L149.75788355779648,134.08616933517078L149.95145255851745,134.3647298079497L150.3385905599594,134.70462406944526L150.7687438948949,134.64412979313454L150.8762822286288,134.62200997078241L151.06985122934978,134.45675138386736L151.1988972298304,134.28454117838726L151.22040489657718,134.25157607133391L151.30643556356432,134.11344019291863L151.37095856380463,134.00773190569498L151.8441272322337,133.1626145198634L152.23126523367563,132.4296233226575L152.3172959006627,132.2738804759094L152.42483423439663,132.06847914080512L152.76895690234502,131.43470425479683L152.81197223583857,131.358973398123L153.0270489033063,130.98160307490411L153.156094903787,130.75698982127918L153.19911023728054,130.6966133046272L153.32815623776116,130.47158599284728L153.3711715712547,130.40588370066075L153.41418690474828,130.33518232102526L153.6722789057096,129.9519202161701L153.71529423920313,129.89590840428932L153.75830957269667,129.83638659483796L154.25298590787253,129.4270958066998L154.4465549085935,129.35713897200355L154.5110779088338,129.3625369228128L154.8552005767822,129.37726827625286L155.09178491099675,129.45339799628698L155.1348002444903,129.46313026227807L155.26384624497098,129.54904922878333L155.54344591267903,129.84761934680347L155.65098424641292,130.03567772313244L155.80153791364035,130.27768521796472L155.93058391412097,130.54704714191558L156.21018358182906,131.10028581743322L156.76938291724525,132.6908237425171L157.26405925242105,133.82554251881027L157.35008991940816,133.99523988512055L157.37159758615493,134.015528734714L157.52215125338236,134.3326004146036L157.88778158807756,135.2673385987938L158.12436592229207,136.00992910753735L158.3609502565066,136.88083395928638L158.511503923734,137.48404261645106L158.6405499242147,138.00107399560102L159.1567339261373,140.03785644947925L160.3396555972099,142.87545016725812L160.42568626419705,142.95782494790478L160.7052859319051,143.17387783407816L161.02790093310674,143.22548125615307L161.19996226708096,143.16427852254049L161.22146993382773,143.14273610238615L161.30750060081482,143.02957666772238L161.5225772682826,142.64623479019517L161.73765393575033,142.0876000632176L161.7591616024971,142.01402116934L161.78066926924387,141.94131787550572L161.95273060321807,141.29951823855822L162.38288393815358,139.10181151294677L162.89906794007618,135.10217118064682L163.04962160730364,133.7553140771591L163.11414460754395,133.19440962772657L163.32922127501172,131.30686664847437L163.5227902757327,129.57639606050458L163.587313275973,128.9653981717182L163.80238994344077,126.78649120582179L163.90992827717463,125.7497807545493L164.68420428005854,117.9969786531156L164.87777328077954,116.17417309658788L164.92078861427308,115.82307457336682L165.00681928126016,114.95911754148419L165.13586528174082,113.84938850438789L165.20038828198116,113.36358432765002L165.3509419492086,112.12543648333484L165.52300328318276,110.66487483192432L165.5875262834231,110.19006029043713L165.7595876173973,108.78044678558105L165.8456182843844,108.02084380484644L165.93164895137153,107.27556951549292L166.42632528654735,100.46820273370251L166.51235595353444,99.16424623363805L166.6629096207619,95.4075611714884L166.74894028774898,92.60302752822962L166.9855246219635,84.99430246993016L167.2436166229248,74.25683243433313L167.5877392908732,58.902446828098505L168.1254309595426,43.346517465258415L168.4480459607442,45.428690569537736L168.74915329519908,50.48373284991308L168.92121462917328,54.00438956893615L169.09327596314748,57.883324351665536L169.22232196362813,60.822582641934446L169.24382963037493,61.3176214551377L169.80302896579107,75.51765850970484L170.10413630024593,83.69138681330115L170.6418279689153,98.36707412306275L171.00745830361046,107.99661950343146L171.26555030457178,114.15408592336182L171.33007330481212,115.67914567948065L171.45911930529277,118.55593437013073L171.84625730673474,126.35329140825824L171.88927264022828,127.15985390194439L172.27641064167022,133.73330631641775L172.3624413086573,134.98712569209368L172.8141023103396,140.33963646787507L172.90013297732673,141.08119562992988L173.05068664455413,142.18056181705597L173.33028631226222,143.5609576310961L173.45933231274287,143.8982706768458L173.76043964719773,143.8499569278186L174.01853164815904,143.0585569398715L174.34114664936067,141.1012869471925L174.51320798333487,139.63191041551957L174.53471565008164,139.43190513187523L175.0078843185107,133.8420174749396L175.0939149854978,132.59429880932677L175.39502231995263,127.82622162253644L175.65311432091394,123.22746383153876L175.67462198766071,122.83178378073322L175.82517565488817,119.97287556472016L176.126282989343,113.83616903301825L176.25532898982365,110.9664345257973L176.40588265705108,107.4307311613446L176.44889799054462,106.37145264127703L176.64246699126562,101.42217752795472L176.68548232475916,100.28218045986036L176.70698999150594,99.6610020586399L177.11563565969468,87.91520544822839L177.180158659935,86.04948219413343L177.373727660656,80.57013286977967L177.65332732836407,72.55427088548767L178.16951133028667,57.82046348608374L178.51363399823506,48.53051796806372L178.7502183324496,42.232085639209345L179.13735633389157,32.53419027368153L179.3524330013593,27.318303494245015L179.37394066810606,26.78008867196496L179.50298666858674,23.819717214491334L179.65354033581417,20.474188101526494L179.73957100280126,18.54180528318031L179.76107866954803,18.015670322669052L179.7825863362948,17.47874705793663L180.25575500472388,7.755597943654408L180.27726267147065,7.305406566942509L180.36329333845774,5.424321375428349L180.40630867195128,4.52611147764344L180.59987767267228,0.47710895548351573L180.68590833965936,-1.4412490673751392L184.38522702010474,-2.9768654070963123L184.87990335528056,3.418380556047225L185.15950302298864,7.868434488931285L185.22402602322896,9.108907136832158L185.89076369237898,22.565189381513562L185.91227135912578,23.04191086973279L186.25639402707418,30.127365186317746L186.27790169382095,30.58864876314439L186.49297836128872,34.688994496520394L186.55750136152903,35.721784690765986L186.60051669502258,36.476191051720804L186.83710102923712,40.06035441509948L186.96614702971777,41.69324023295019L187.0306700299581,42.40826168610033L187.11670069694517,43.670592046145146L187.50383869838714,49.39182730697377L187.52534636513394,49.75518802949975L187.61137703212103,50.95332038203112L187.67590003236134,51.88544506153674L187.7189153658549,52.58461074644066L188.02002270030977,57.28164846941394L188.10605336729685,58.514341382439824L188.3426377015114,62.29560402498072L188.4071607017517,63.2387677228197L188.83731403668722,70.61717768079137L189.00937537066142,73.69846931431042L189.22445203812916,77.61548984989953L189.24595970487593,77.9489548138971L189.48254403909047,82.18298435084778L189.9772203742663,90.3550716166189L190.08475870800018,92.08078243515588L190.45038904269535,98.12187572134815L191.39672637955348,108.31369308267041L191.41823404630026,108.4489571448916L191.50426471328734,108.99352339134693L191.59029538027445,109.37201812937195L191.97743338171642,111.01789549667211L192.10647938219705,111.47059401450586L193.03130905230842,113.68621540304235L193.20337038628261,113.73493751217651L193.37543172025678,113.39104512033137L193.39693938700358,113.37172114019995L193.76256972169878,111.33792066477723L194.04216938940684,110.36103971754834L194.12820005639395,110.35349550199085L194.36478439060846,111.177915678122L194.62287639156978,112.4900583738191L194.6873993918101,112.71881220899371L194.73041472530363,112.91738918193835L194.81644539229075,113.12397761037683L194.98850672626494,113.55905776378174L196.27896673107145,117.25609565942395L196.40801273155213,117.57723004754052L196.4295203982989,117.66032278223571L196.79515073299407,119.37708386670752L196.9457044002215,120.2782681455506L197.44038073539735,120.85130563853332L197.52641140238444,120.85781660805273L197.76299573659895,120.16038692844074L197.8275187368393,119.65148666379272L198.1931490715345,118.76308880467096L198.32219507201512,118.94618228183899L198.6017947397232,120.28076009187774L199.03194807465871,123.85137349710254L199.22551707537968,125.75893181964398L199.56963974332808,129.41891340976588L199.61265507682162,129.8269088416577L199.80622407754262,131.91806206959154L199.99979307826362,133.9066846217387L200.1718544122378,135.4615698604606L200.6020077471733,138.7034153925926L200.64502308066685,138.98273180640672L200.70954608090716,139.4406136485749L200.75256141440076,139.73478107483714L200.8816074148814,140.6216727499365L201.1396994158427,142.41811723704768L201.16120708258947,142.56151811181877L201.3117607498169,143.63974644019882L201.3762837500572,144.0777743837712L201.4838220837911,144.78337316487182L201.63437575101852,145.76587618613146L201.67739108451207,146.0262199994411L202.7742820885976,149.79690516553694L203.01086642281214,150.0952919963463L203.07538942305248,150.15080807805074L203.18292775678634,150.23489797114667L203.52705042473474,150.39817458703092L203.61308109172185,150.4138242758743L203.63458875846862,150.42208834482966L203.6776040919622,150.4225033526593L203.89268075942994,150.3529216394566L203.97871142641702,150.2951880674039L204.06474209340413,150.2109899113959L204.2583110941251,149.96199660971055L204.27981876087188,149.93423097146098L204.3873570946058,149.762188858397L204.47338776159287,149.58870513918797L204.49489542833965,149.54607614271958L204.81751042954127,148.75393160983327L205.48424809869132,146.61717595404755L205.7423400996526,145.42680434289784L205.89289376688004,144.61276031218222L206.00043210061392,143.9913273981509L206.30153943506878,141.98540557226315L206.49510843578975,140.58962692796115L206.81772343699137,138.06015705535606L207.0543077712059,135.9971293923707L207.2048614384333,134.43605607351628L207.22636910518008,134.19354335176098L207.41993810590108,131.8319398727075L208.23722944227853,118.84165349055219L208.30175244251888,117.66658303764294L208.34476777601242,116.88371682625672L208.40929077625273,115.68100704182868L208.43079844299953,115.27456907639129L208.51682910998662,113.74178276717883L209.20507444588344,104.20212599342493L209.50618178033827,101.35616754117596L210.0868887825012,96.84637907171509L210.21593478298186,96.30569509529992L210.30196544996898,96.20679217674255L210.68910345141094,99.34485156317761L210.7966417851448,100.42085575348669L211.11925678634643,103.01316369948157L211.18377978658677,103.60627351623359L211.24830278682708,104.05899102756067L211.69996378850936,108.47579874968983L211.9365481227239,109.98135218814112L212.216147790432,112.11157503189007L212.23765545717876,112.17765719394355L212.45273212464653,113.31673117826122L212.51725512488684,113.74564224502697L212.60328579187393,114.47173690479852L212.96891612656913,117.0665785828059L213.01193146006267,117.21732993950238L213.07645446030298,117.56335719999976L213.52811546198527,119.89231656203748L213.57113079547884,120.25974569083844L213.6786691292127,120.98855642015863L213.9152534634272,123.25266819721045L214.08731479740143,125.60146436369996L214.17334546438852,126.80407538196258L214.53897579908372,131.2728758927803L214.66802179956437,132.8728117983723L214.8830984670321,135.13603657928482L214.92611380052566,135.52855991149607L215.05515980100634,136.54927404267153L215.1626981347402,137.13000959850788L215.27023646847405,137.94310585390545L215.3347594687144,138.32772029548693L215.65737446991602,140.5378962494808L215.6788821366628,140.6490499712471L216.25958913882573,143.40100582622227L216.43165047279993,143.95988746861335L216.6467271402677,144.8964300346715L216.88331147448224,145.83624897833207L217.3349724761645,147.224162417039L217.7006028108597,147.81017151630317L217.72211047760646,147.8279883627375L218.41035581350326,148.2289267621762L218.43186348025006,148.2286181179093L218.5609094807307,148.1975979445747L219.679308151563,144.62423618086257L219.72232348505656,144.40210347746878L219.872877152284,143.38275307911562L219.9374001525243,142.98040061409722L220.08795381975173,142.1847916680244L220.66866082191467,139.96952545781346L221.12032182359695,139.23735288017085L221.33539849106472,138.87801497953575L221.67952115901312,138.37037398349668L221.72253649250666,138.33119610476948L221.7655518260002,138.29478747737227L221.8730901597341,138.2250053828148L222.56133549563089,138.3948470996745L222.66887382936477,138.4672066112792L222.9054581635793,138.71303179827424L222.92696583032608,138.73699968752905L222.94847349707285,138.75502451271552L223.01299649731317,138.82666986897038L223.35711916526157,139.12867021188902L223.93782616742453,139.42942268229473L224.00234916766485,139.44010462295319L224.43250250260036,139.40193339937338L224.561548503081,139.3486699459799L224.58305616982778,139.33052546178538L225.14225550524392,138.92327077613407L225.29280917247138,138.7484147770307L225.4433628396988,138.55364599950218L226.15311584234237,136.69795890729185L226.2176388425827,136.49040940809L226.62628451077143,134.9452469386125L226.6477921775182,134.87934521474585L226.8413611782392,134.15499795636225L226.9919148454666,133.54362779510626L227.05643784570694,133.2592819042538L227.20699151293437,132.64513679361983L227.2715145131747,132.37811866674798L227.68016018136342,130.63608104132976L227.74468318160373,130.35681211124904L227.98126751581827,129.41248981031586L228.21785185003282,128.60974121009383L228.43292851750056,128.03736469067957L228.4759438509941,127.91343974398663L228.49745151774087,127.8594222489073L228.56197451798118,127.68868973720959L229.0781585199038,126.32464162289338L229.1856968536377,126.06550959445929L229.20720452038447,125.9812734514646L229.29323518737155,125.77440771802326L229.70188085556032,124.59596781939422L229.7233885223071,124.55109379201221L229.91695752302806,123.89101291771807L230.08901885700226,123.22393863917353L230.34711085796354,122.08110014447442L231.14289452759422,118.41455440305177L231.2074175278346,118.15643662716242L231.40098652855553,117.53220407221173L231.4224941953023,117.46233080888616L231.551540195783,117.07270208506102L231.59455552927653,116.94778947671405L231.7881245299975,116.41775325266931L232.54089286613464,114.07642912646259L232.64843119986853,113.93674337899017L233.14310753504435,112.98118452739281L233.20763053528466,112.81422412347388L233.272153535525,112.63540038361029L233.46572253624598,112.0038249441316L234.0679372051557,110.61405584112464L234.5841212070783,110.38427635730926L234.79919787454602,110.42956064414759L235.9821195456187,111.79220323995612L236.11116554609936,112.06023941807135L236.19719621308644,112.20782266007751L236.26171921332676,112.33870682273285L236.4983035475413,112.82808177621997L236.5628265477816,112.96589856394702" fill="none"></path></g></g></g></g></g></g><g transform="translate(71, 178)" clip-path="url(#clip_1)"><clipPath id="clip_1"><rect width="258" height="21"></rect></clipPath><g><g><line x1="0" y1="0" x2="0" y2="5" style="visibility: inherit;" fill="rgb(0, 0, 0)" stroke="rgb(204, 204, 204)" stroke-width="1px"></line><line x1="21.507666746775307" y1="0" x2="21.507666746775307" y2="5" style="visibility: inherit;" fill="rgb(0, 0, 0)" stroke="rgb(204, 204, 204)" stroke-width="1px"></line><line x1="43.015333493550614" y1="0" x2="43.015333493550614" y2="5" style="visibility: inherit;" fill="rgb(0, 0, 0)" stroke="rgb(204, 204, 204)" stroke-width="1px"></line><line x1="64.52300024032593" y1="0" x2="64.52300024032593" y2="5" style="visibility: inherit;" fill="rgb(0, 0, 0)" stroke="rgb(204, 204, 204)" stroke-width="1px"></line><line x1="86.03066698710123" y1="0" x2="86.03066698710123" y2="5" style="visibility: inherit;" fill="rgb(0, 0, 0)" stroke="rgb(204, 204, 204)" stroke-width="1px"></line><line x1="107.53833373387656" y1="0" x2="107.53833373387656" y2="5" style="visibility: inherit;" fill="rgb(0, 0, 0)" stroke="rgb(204, 204, 204)" stroke-width="1px"></line><line x1="129.04600048065186" y1="0" x2="129.04600048065186" y2="5" style="visibility: inherit;" fill="rgb(0, 0, 0)" stroke="rgb(204, 204, 204)" stroke-width="1px"></line><line x1="150.55366722742718" y1="0" x2="150.55366722742718" y2="5" style="visibility: inherit;" fill="rgb(0, 0, 0)" stroke="rgb(204, 204, 204)" stroke-width="1px"></line><line x1="172.06133397420246" y1="0" x2="172.06133397420246" y2="5" style="visibility: inherit;" fill="rgb(0, 0, 0)" stroke="rgb(204, 204, 204)" stroke-width="1px"></line><line x1="193.56900072097778" y1="0" x2="193.56900072097778" y2="5" style="visibility: inherit;" fill="rgb(0, 0, 0)" stroke="rgb(204, 204, 204)" stroke-width="1px"></line><line x1="215.0766674677531" y1="0" x2="215.0766674677531" y2="5" style="visibility: inherit;" fill="rgb(0, 0, 0)" stroke="rgb(204, 204, 204)" stroke-width="1px"></line><line x1="236.58433421452838" y1="0" x2="236.58433421452838" y2="5" style="visibility: inherit;" fill="rgb(0, 0, 0)" stroke="rgb(204, 204, 204)" stroke-width="1px"></line><line x1="258.0920009613037" y1="0" x2="258.0920009613037" y2="5" style="visibility: inherit;" fill="rgb(0, 0, 0)" stroke="rgb(204, 204, 204)" stroke-width="1px"></line></g><g transform="translate(0, 8)"><text style="text-anchor: middle; visibility: hidden; font-family: &quot;Helvetica Neue&quot;, sans-serif; font-size: 12px; font-weight: 200;" x="0" y="0" dx="0em" dy="0.95em" fill="rgb(50, 49, 63)" stroke="none" stroke-width="1px">-1k</text><text style="text-anchor: middle; visibility: inherit; font-family: &quot;Helvetica Neue&quot;, sans-serif; font-size: 12px; font-weight: 200;" x="21.507666746775307" y="0" dx="0em" dy="0.95em" fill="rgb(50, 49, 63)" stroke="none" stroke-width="1px">0</text><text style="text-anchor: middle; visibility: hidden; font-family: &quot;Helvetica Neue&quot;, sans-serif; font-size: 12px; font-weight: 200;" x="43.015333493550614" y="0" dx="0em" dy="0.95em" fill="rgb(50, 49, 63)" stroke="none" stroke-width="1px">1k</text><text style="text-anchor: middle; visibility: inherit; font-family: &quot;Helvetica Neue&quot;, sans-serif; font-size: 12px; font-weight: 200;" x="64.52300024032593" y="0" dx="0em" dy="0.95em" fill="rgb(50, 49, 63)" stroke="none" stroke-width="1px">2k</text><text style="text-anchor: middle; visibility: hidden; font-family: &quot;Helvetica Neue&quot;, sans-serif; font-size: 12px; font-weight: 200;" x="86.03066698710123" y="0" dx="0em" dy="0.95em" fill="rgb(50, 49, 63)" stroke="none" stroke-width="1px">3k</text><text style="text-anchor: middle; visibility: inherit; font-family: &quot;Helvetica Neue&quot;, sans-serif; font-size: 12px; font-weight: 200;" x="107.53833373387656" y="0" dx="0em" dy="0.95em" fill="rgb(50, 49, 63)" stroke="none" stroke-width="1px">4k</text><text style="text-anchor: middle; visibility: hidden; font-family: &quot;Helvetica Neue&quot;, sans-serif; font-size: 12px; font-weight: 200;" x="129.04600048065186" y="0" dx="0em" dy="0.95em" fill="rgb(50, 49, 63)" stroke="none" stroke-width="1px">5k</text><text style="text-anchor: middle; visibility: inherit; font-family: &quot;Helvetica Neue&quot;, sans-serif; font-size: 12px; font-weight: 200;" x="150.55366722742718" y="0" dx="0em" dy="0.95em" fill="rgb(50, 49, 63)" stroke="none" stroke-width="1px">6k</text><text style="text-anchor: middle; visibility: hidden; font-family: &quot;Helvetica Neue&quot;, sans-serif; font-size: 12px; font-weight: 200;" x="172.06133397420246" y="0" dx="0em" dy="0.95em" fill="rgb(50, 49, 63)" stroke="none" stroke-width="1px">7k</text><text style="text-anchor: middle; visibility: inherit; font-family: &quot;Helvetica Neue&quot;, sans-serif; font-size: 12px; font-weight: 200;" x="193.56900072097778" y="0" dx="0em" dy="0.95em" fill="rgb(50, 49, 63)" stroke="none" stroke-width="1px">8k</text><text style="text-anchor: middle; visibility: hidden; font-family: &quot;Helvetica Neue&quot;, sans-serif; font-size: 12px; font-weight: 200;" x="215.0766674677531" y="0" dx="0em" dy="0.95em" fill="rgb(50, 49, 63)" stroke="none" stroke-width="1px">9k</text><text style="text-anchor: middle; visibility: inherit; font-family: &quot;Helvetica Neue&quot;, sans-serif; font-size: 12px; font-weight: 200;" x="236.58433421452838" y="0" dx="0em" dy="0.95em" fill="rgb(50, 49, 63)" stroke="none" stroke-width="1px">10k</text><text style="text-anchor: middle; visibility: hidden; font-family: &quot;Helvetica Neue&quot;, sans-serif; font-size: 12px; font-weight: 200;" x="258.0920009613037" y="0" dx="0em" dy="0.95em" fill="rgb(50, 49, 63)" stroke="none" stroke-width="1px">11k</text></g><line x1="0" y1="0" x2="258.0920009613037" y2="0" fill="rgb(0, 0, 0)" stroke="rgb(204, 204, 204)" stroke-width="1px"></line></g></g></g></g></svg>