<svg viewBox="0 0 330 200" xmlns="http://www.w3.org/2000/svg"><g><g><g><g><g><line x1="61.589999198913574" y1="178.0640001296997" x2="56.589999198913574" y2="178.0640001296997" style="visibility: inherit;" fill="rgb(0, 0, 0)" stroke="rgb(204, 204, 204)" stroke-width="1px"></line><line x1="61.589999198913574" y1="161.87636375427246" x2="56.589999198913574" y2="161.87636375427246" style="visibility: inherit;" fill="rgb(0, 0, 0)" stroke="rgb(204, 204, 204)" stroke-width="1px"></line><line x1="61.589999198913574" y1="145.68872737884521" x2="56.589999198913574" y2="145.68872737884521" style="visibility: inherit;" fill="rgb(0, 0, 0)" stroke="rgb(204, 204, 204)" stroke-width="1px"></line><line x1="61.589999198913574" y1="129.50109100341797" x2="56.589999198913574" y2="129.50109100341797" style="visibility: inherit;" fill="rgb(0, 0, 0)" stroke="rgb(204, 204, 204)" stroke-width="1px"></line><line x1="61.589999198913574" y1="113.31345462799072" x2="56.589999198913574" y2="113.31345462799072" style="visibility: inherit;" fill="rgb(0, 0, 0)" stroke="rgb(204, 204, 204)" stroke-width="1px"></line><line x1="61.589999198913574" y1="97.12581825256348" x2="56.589999198913574" y2="97.12581825256348" style="visibility: inherit;" fill="rgb(0, 0, 0)" stroke="rgb(204, 204, 204)" stroke-width="1px"></line><line x1="61.589999198913574" y1="80.93818187713624" x2="56.589999198913574" y2="80.93818187713624" style="visibility: inherit;" fill="rgb(0, 0, 0)" stroke="rgb(204, 204, 204)" stroke-width="1px"></line><line x1="61.589999198913574" y1="64.75054550170898" x2="56.589999198913574" y2="64.75054550170898" style="visibility: inherit;" fill="rgb(0, 0, 0)" stroke="rgb(204, 204, 204)" stroke-width="1px"></line><line x1="61.589999198913574" y1="48.56290912628174" x2="56.589999198913574" y2="48.56290912628174" style="visibility: inherit;" fill="rgb(0, 0, 0)" stroke="rgb(204, 204, 204)" stroke-width="1px"></line><line x1="61.589999198913574" y1="32.37527275085449" x2="56.589999198913574" y2="32.37527275085449" style="visibility: inherit;" fill="rgb(0, 0, 0)" stroke="rgb(204, 204, 204)" stroke-width="1px"></line><line x1="61.589999198913574" y1="16.187636375427246" x2="56.589999198913574" y2="16.187636375427246" style="visibility: inherit;" fill="rgb(0, 0, 0)" stroke="rgb(204, 204, 204)" stroke-width="1px"></line><line x1="61.589999198913574" y1="0" x2="56.589999198913574" y2="0" style="visibility: inherit;" fill="rgb(0, 0, 0)" stroke="rgb(204, 204, 204)" stroke-width="1px"></line></g><g transform="translate(51.589999198913574, 0)"><text style="text-anchor: end; visibility: hidden; font-family: &quot;Helvetica Neue&quot;, sans-serif; font-size: 12px; font-weight: 200;" x="0" y="178.0640001296997" dx="0em" dy="0.3em" fill="rgb(50, 49, 63)" stroke="none" stroke-width="1px">-1e+9</text><text style="text-anchor: end; visibility: inherit; font-family: &quot;Helvetica Neue&quot;, sans-serif; font-size: 12px; font-weight: 200;" x="0" y="161.87636375427246" dx="0em" dy="0.3em" fill="rgb(50, 49, 63)" stroke="none" stroke-width="1px">0</text><text style="text-anchor: end; visibility: hidden; font-family: &quot;Helvetica Neue&quot;, sans-serif; font-size: 12px; font-weight: 200;" x="0" y="145.68872737884521" dx="0em" dy="0.3em" fill="rgb(50, 49, 63)" stroke="none" stroke-width="1px">1e+9</text><text style="text-anchor: end; visibility: inherit; font-family: &quot;Helvetica Neue&quot;, sans-serif; font-size: 12px; font-weight: 200;" x="0" y="129.50109100341797" dx="0em" dy="0.3em" fill="rgb(50, 49, 63)" stroke="none" stroke-width="1px">2e+9</text><text style="text-anchor: end; visibility: hidden; font-family: &quot;Helvetica Neue&quot;, sans-serif; font-size: 12px; font-weight: 200;" x="0" y="113.31345462799072" dx="0em" dy="0.3em" fill="rgb(50, 49, 63)" stroke="none" stroke-width="1px">3e+9</text><text style="text-anchor: end; visibility: inherit; font-family: &quot;Helvetica Neue&quot;, sans-serif; font-size: 12px; font-weight: 200;" x="0" y="97.12581825256348" dx="0em" dy="0.3em" fill="rgb(50, 49, 63)" stroke="none" stroke-width="1px">4e+9</text><text style="text-anchor: end; visibility: hidden; font-family: &quot;Helvetica Neue&quot;, sans-serif; font-size: 12px; font-weight: 200;" x="0" y="80.93818187713624" dx="0em" dy="0.3em" fill="rgb(50, 49, 63)" stroke="none" stroke-width="1px">5e+9</text><text style="text-anchor: end; visibility: inherit; font-family: &quot;Helvetica Neue&quot;, sans-serif; font-size: 12px; font-weight: 200;" x="0" y="64.75054550170898" dx="0em" dy="0.3em" fill="rgb(50, 49, 63)" stroke="none" stroke-width="1px">6e+9</text><text style="text-anchor: end; visibility: hidden; font-family: &quot;Helvetica Neue&quot;, sans-serif; font-size: 12px; font-weight: 200;" x="0" y="48.56290912628174" dx="0em" dy="0.3em" fill="rgb(50, 49, 63)" stroke="none" stroke-width="1px">7e+9</text><text style="text-anchor: end; visibility: inherit; font-family: &quot;Helvetica Neue&quot;, sans-serif; font-size: 12px; font-weight: 200;" x="0" y="32.37527275085449" dx="0em" dy="0.3em" fill="rgb(50, 49, 63)" stroke="none" stroke-width="1px">8e+9</text><text style="text-anchor: end; visibility: hidden; font-family: &quot;Helvetica Neue&quot;, sans-serif; font-size: 12px; font-weight: 200;" x="0" y="16.187636375427246" dx="0em" dy="0.3em" fill="rgb(50, 49, 63)" stroke="none" stroke-width="1px">9e+9</text><text style="text-anchor: end; visibility: hidden; font-family: &quot;Helvetica Neue&quot;, sans-serif; font-size: 12px; font-weight: 200;" x="0" y="0" dx="0em" dy="0.3em" fill="rgb(50, 49, 63)" stroke="none" stroke-width="1px">1e+10</text></g><line x1="61.589999198913574" y1="0" x2="61.589999198913574" y2="178.0640001296997" fill="rgb(0, 0, 0)" stroke="rgb(204, 204, 204)" stroke-width="1px"></line></g></g><g transform="translate(61, 0)" clip-path="url(#clip_0)"><clipPath id="clip_0"><rect width="268" height="178"></rect></clipPath><g><g><g><line x1="0" y1="0" x2="0" y2="178.0640001296997" fill="rgb(0, 0, 0)" stroke="rgb(60, 60, 60)" stroke-width="1px" opacity="0.25"></line><line x1="22.367500066757202" y1="0" x2="22.367500066757202" y2="178.0640001296997" fill="rgb(0, 0, 0)" stroke="rgb(60, 60, 60)" stroke-width="1px" opacity="0.25"></line><line x1="44.735000133514404" y1="0" x2="44.735000133514404" y2="178.0640001296997" fill="rgb(0, 0, 0)" stroke="rgb(60, 60, 60)" stroke-width="1px" opacity="0.25"></line><line x1="67.1025002002716" y1="0" x2="67.1025002002716" y2="178.0640001296997" fill="rgb(0, 0, 0)" stroke="rgb(60, 60, 60)" stroke-width="1px" opacity="0.25"></line><line x1="89.47000026702881" y1="0" x2="89.47000026702881" y2="178.0640001296997" fill="rgb(0, 0, 0)" stroke="rgb(60, 60, 60)" stroke-width="1px" opacity="0.25"></line><line x1="111.83750033378601" y1="0" x2="111.83750033378601" y2="178.0640001296997" fill="rgb(0, 0, 0)" stroke="rgb(60, 60, 60)" stroke-width="1px" opacity="0.25"></line><line x1="134.2050004005432" y1="0" x2="134.2050004005432" y2="178.0640001296997" fill="rgb(0, 0, 0)" stroke="rgb(60, 60, 60)" stroke-width="1px" opacity="0.25"></line><line x1="156.57250046730042" y1="0" x2="156.57250046730042" y2="178.0640001296997" fill="rgb(0, 0, 0)" stroke="rgb(60, 60, 60)" stroke-width="1px" opacity="0.25"></line><line x1="178.94000053405762" y1="0" x2="178.94000053405762" y2="178.0640001296997" fill="rgb(0, 0, 0)" stroke="rgb(60, 60, 60)" stroke-width="1px" opacity="0.25"></line><line x1="201.30750060081482" y1="0" x2="201.30750060081482" y2="178.0640001296997" fill="rgb(0, 0, 0)" stroke="rgb(60, 60, 60)" stroke-width="1px" opacity="0.25"></line><line x1="223.67500066757202" y1="0" x2="223.67500066757202" y2="178.0640001296997" fill="rgb(0, 0, 0)" stroke="rgb(60, 60, 60)" stroke-width="1px" opacity="0.25"></line><line x1="246.04250073432922" y1="0" x2="246.04250073432922" y2="178.0640001296997" fill="rgb(0, 0, 0)" stroke="rgb(60, 60, 60)" stroke-width="1px" opacity="0.25"></line><line x1="268.4100008010864" y1="0" x2="268.4100008010864" y2="178.0640001296997" fill="rgb(0, 0, 0)" stroke="rgb(60, 60, 60)" stroke-width="1px" opacity="0.25"></line></g><g><line x1="0" y1="178.0640001296997" x2="268.4100008010864" y2="178.0640001296997" fill="rgb(0, 0, 0)" stroke="rgb(60, 60, 60)" stroke-width="1px" opacity="0.25"></line><line x1="0" y1="161.87636375427246" x2="268.4100008010864" y2="161.87636375427246" fill="rgb(0, 0, 0)" stroke="rgb(60, 60, 60)" stroke-width="1px" opacity="0.25"></line><line x1="0" y1="145.68872737884521" x2="268.4100008010864" y2="145.68872737884521" fill="rgb(0, 0, 0)" stroke="rgb(60, 60, 60)" stroke-width="1px" opacity="0.25"></line><line x1="0" y1="129.50109100341797" x2="268.4100008010864" y2="129.50109100341797" fill="rgb(0, 0, 0)" stroke="rgb(60, 60, 60)" stroke-width="1px" opacity="0.25"></line><line x1="0" y1="113.31345462799072" x2="268.4100008010864" y2="113.31345462799072" fill="rgb(0, 0, 0)" stroke="rgb(60, 60, 60)" stroke-width="1px" opacity="0.25"></line><line x1="0" y1="97.12581825256348" x2="268.4100008010864" y2="97.12581825256348" fill="rgb(0, 0, 0)" stroke="rgb(60, 60, 60)" stroke-width="1px" opacity="0.25"></line><line x1="0" y1="80.93818187713624" x2="268.4100008010864" y2="80.93818187713624" fill="rgb(0, 0, 0)" stroke="rgb(60, 60, 60)" stroke-width="1px" opacity="0.25"></line><line x1="0" y1="64.75054550170898" x2="268.4100008010864" y2="64.75054550170898" fill="rgb(0, 0, 0)" stroke="rgb(60, 60, 60)" stroke-width="1px" opacity="0.25"></line><line x1="0" y1="48.56290912628174" x2="268.4100008010864" y2="48.56290912628174" fill="rgb(0, 0, 0)" stroke="rgb(60, 60, 60)" stroke-width="1px" opacity="0.25"></line><line x1="0" y1="32.37527275085449" x2="268.4100008010864" y2="32.37527275085449" fill="rgb(0, 0, 0)" stroke="rgb(60, 60, 60)" stroke-width="1px" opacity="0.25"></line><line x1="0" y1="16.187636375427246" x2="268.4100008010864" y2="16.187636375427246" fill="rgb(0, 0, 0)" stroke="rgb(60, 60, 60)" stroke-width="1px" opacity="0.25"></line><line x1="0" y1="0" x2="268.4100008010864" y2="0" fill="rgb(0, 0, 0)" stroke="rgb(60, 60, 60)" stroke-width="1px" opacity="0.25"></line></g></g></g><g><g><line x1="0" y1="161.87636375427246" x2="268.4100008010864" y2="161.87636375427246" fill="rgb(0, 0, 0)" stroke="rgb(153, 153, 153)" stroke-width="1.5px"></line></g></g><g><g><line x1="22.367500066757202" y1="0" x2="22.367500066757202" y2="178.0640001296997" fill="rgb(0, 0, 0)" stroke="rgb(153, 153, 153)" stroke-width="1.5px"></line></g></g><g><g><g><g><g><path style="fill: none;" stroke="rgb(255, 112, 67)" stroke-width="2px" d="M22.77011506795883,161.87305570733002L22.904320068359375,161.87146856633498L23.26220006942749,161.86625840220927L23.306935069561003,161.863249631541L23.374037569761278,161.85917371800147L23.620080070495604,161.8505005137481L23.95559257149696,161.83337066943787L24.022695071697235,161.82062083228956L24.470045073032377,161.791302739441L24.738455073833464,161.7517783269043L25.18580507516861,161.6874835337516L25.83446257710457,161.53859463001433L25.90156507730484,161.4392427556245L26.102872577905657,161.33758123134743L26.460752578973768,161.20014632206286L26.505487579107285,161.1104580513569L27.489657582044604,160.77429676047922L27.60149508237839,160.52122458714712L27.937007583379746,160.1893494760597L28.071212583780287,159.88060372951387L28.183050084114075,159.63056657648684L28.339622584581374,159.37932177961235L28.47382758498192,159.1120617905875L29.25669008731842,158.01194425427823L29.301425087451932,157.2629213767556L29.480365087985994,156.49236917342316L29.950082589387897,155.06860959133013L30.129022589921952,153.89713036497187L30.576372591257094,152.35789344104828L31.784217594861985,148.07489949432215L31.80658509492874,145.43273809862077L32.18683259606362,142.78153760478438L32.25393509626389,140.9882918172409L32.32103759646416,139.69451899977162L32.65655009746552,137.7648900028691L32.72365259766579,136.40679494908187L32.74602009773254,135.51558076681852L32.969695098400116,134.21967592550772L33.394677599668505,132.33070617312492L33.86439510107041,129.83443494947926L34.244642602205275,126.99019570793291L34.35648010253907,124.8748447778027L34.96040260434151,121.36763656214748L35.18407760500908,118.53159275838865L35.31828260540962,116.38617017436616L35.47485510587692,114.58993465286059L35.49722260594368,113.42694059619988L36.23535010814667,110.38809761724389L36.28008510828018,108.40353085534197L36.548495109081266,106.3489866121493L36.70506760954857,104.78476545271138L36.72743510961533,103.7675856048773L36.77217010974884,102.9838001066877L36.83927260994911,102.27102154233191L36.88400761008263,101.67726479966937L37.15241761088371,100.43883689005175L37.376092611551286,98.86048691841496L38.33789511442185,94.24359089466905L38.516835114955896,90.78948860624803L38.69577511548996,88.04734124571489L38.89708261609078,85.71248542002007L39.18786011695862,83.35170403643701L39.27733011722565,81.67993281864987L39.478637617826465,80.07567339429637L39.56810761809349,78.85739763332784L39.612842618227006,78.00802218078204L39.65757761836052,77.40849124302939L39.814150118827826,76.61365896029011L39.9259876191616,75.78827940681742L39.970722619295124,75.15520781264532L40.08256011962891,74.48488458494288L40.12729511976242,74.07558943009597L40.21676512002945,73.56235741028453L40.30623512029648,73.00871339561682L40.44044012069702,72.36103995134333L40.462807620763776,71.90126788681263L40.9772601222992,70.38267156728328L41.06673012256622,69.38173077277388L41.80485762476921,67.6994074226112L41.96143012523651,66.44241561458487L42.09563512563705,65.4874370654355L42.408780126571656,64.45020530804L42.498250126838684,63.72797843608123L42.65482262730599,63.127723901874134L42.699557627439496,62.724638979660426L42.87849762797356,62.28650995675504L43.19164262890816,61.80218194776454L43.21401012897491,61.49702797653099L43.43768512964249,61.1884011730053L43.50478762984276,60.97754202011862L43.70609513044357,60.798151958136L43.885035130977634,60.59978344773883L44.08634263157845,60.436799103924926L44.1087101316452,60.332683042746766L44.242915132045745,60.26245908791232L44.2652826321125,60.229408439538986L44.37712013244629,60.20620977893846L44.77973513364792,60.27488285599041L44.84683763384819,60.331873817622764L45.04814513444901,60.44441386103655L45.71917013645172,61.09794089116431L46.00994763731956,61.88877625711656L46.144152637720104,62.517445521102175L46.211255137920375,63.003137913492566L46.255990138053896,63.33938849144788L46.345460138320924,63.66806565473709L46.479665138721465,64.07484077105788L46.59150263905526,64.47561666508669L46.815177639722826,65.06001720784147L46.94938264012337,65.65365379505663L47.06122014045715,66.22515648619101L47.28489514112473,66.99730718275171L48.224330143928526,69.47564286477115L48.313800144195554,71.32648390881015L48.33616764426232,72.48148883973374L48.358535144329075,73.23251823274121L48.7611501455307,74.66731432312031L49.051927646398546,76.25852342934621L49.342705147266386,78.03466623244836L49.92426014900207,81.0814558748485L50.19267014980316,83.70273109474562L50.4387126505375,85.95155739747337L50.50581515073777,87.47444182873635L50.57291765093804,88.59085557743147L51.020267652273176,90.76644056957744L51.15447265267372,92.56682637216785L51.31104515314102,94.12766976191682L51.445250153541565,95.48194092809784L51.80313015460968,97.33383255660539L51.87023265480995,98.6739138593062L52.11627515554428,100.20874662153751L52.18337765574455,101.31925742508687L52.25048015594482,102.17268531725185L52.272847656011585,102.74543890310149L53.34648765921593,106.3250684606396L53.4135901594162,108.68620100380544L53.48069265961647,110.32571523261285L53.50306015968323,111.37633998804408L53.99514516115188,113.64349425622244L54.26355516195297,115.9401066413111L54.48723016262055,118.06116749427807L54.576700162887576,119.5774102695596L55.135887664556506,122.29038465592797L55.158255164623256,123.98373952335629L55.40429766535759,125.66930084933486L55.58323766589165,127.11692827092475L55.67270766615868,128.20175289769728L55.71744266629219,128.93736749469699L56.43320266842842,130.4805489401005L56.522672668695456,131.48918600510007L57.08186017036438,132.54142258638325L57.4397401714325,133.43973486748897L57.46210767149925,133.99928659500029L57.79762017250061,134.79836549025794L57.88709017276764,135.3329027987271L58.24497017383575,135.7798243077941L58.26733767390251,136.04941436454178L58.75942267537117,136.29077365163806L58.871260175704954,136.45264938682197L58.983097676038746,136.55446256022492L59.05020017623902,136.60684136049542L59.1620376765728,136.63637730312382L59.22914017677307,136.66451365724197L59.49755017757416,136.68860360403897L59.67649017810821,136.69297099114112L59.833062678575516,136.75190720024398L59.989635179042814,136.9156884235971L60.19094267964363,137.0199991605108L60.28041267991066,137.08023179082892L60.325147680044175,137.10724537533636L60.36988268017768,137.11480492517927L60.43698518037796,137.0991882133074L60.593557680845265,137.03761163436155L60.79486518144608,136.95345435485433L61.01854018211365,136.7990930673059L61.108010182380674,136.66790941946383L61.15274518251419,136.56890423418L61.21984768271446,136.46956422975472L61.33168518304825,136.35158569371362L61.39878768324852,136.24156616476904L61.42115518331528,136.16128819281386L61.868505184650424,135.8462364444241L62.069812685251236,135.5279173077813L62.204017685651785,135.249117041236L62.36059018611908,134.96447201094895L62.38295768618583,134.7789488046293L62.58426518678665,134.6612787600893L62.74083768725396,134.4870161864598L63.21055518865585,134.0223718454712L63.30002518892288,133.67682566725094L63.52370018959046,133.2697836569925L63.61317018985748,132.9334208074086L63.8144776904583,132.546455905855L64.10525519132614,132.00449543671704L64.17235769152641,131.61622622369737L64.30656269192696,131.2710981029195L64.35129769206047,131.02904889102248L65.11179269433022,130.40398321902512L65.24599769473076,130.00316791867337L65.62624519586564,129.6388127061324L65.8499201965332,129.37626452046962L65.91702269673347,129.18339196411355L65.96175769686698,129.05134341916715L66.36437269806862,128.77076723911767L66.67751769900322,128.34812034228545L66.72225269913673,128.06386054418763L67.12486770033836,127.42592300299461L67.2143377006054,126.9084014357789L67.39327770113945,126.30276690514867L67.77352520227433,125.3560453107186L67.90773020267487,124.57772744648048L68.44455020427704,123.22469730815158L68.73532770514488,121.91416948769134L68.80243020534516,120.9966858023771L68.82479770541191,120.40166047679512L68.86953270554542,119.96617549396416L68.91426770567894,119.61870681184736L69.00373770594597,119.24423877059368L69.09320770621301,118.90371890913627L69.2497802066803,118.41965645625706L69.58529270768165,117.57256072046968L70.3457877099514,115.91263122134498L70.43525771021844,114.78229573058219L70.59183021068573,113.83637983511845L70.79313771128655,112.91010274448044L71.06154771208763,111.87100609500057L71.2852227127552,110.82516486047496L71.32995771288871,110.123568090759L71.37469271302224,109.62186102224601L71.486530213356,109.10634319170141L71.5536327135563,108.67441215793932L71.73257271409034,108.09253101725265L71.82204271435738,107.57311233500432L72.26939271569252,106.3686321190693L72.38123021602631,105.41333433704969L72.40359771609306,104.7984003720635L72.44833271622659,104.32940464790742L72.51543521642685,103.92395138428489L72.60490521669388,103.51716906939126L72.62727271676064,103.23218811018876L72.78384521722793,102.8260653361402L72.8509477174282,102.46588958941997L72.96278521776199,102.07319355287112L73.38776771903038,101.03737770793917L73.61144271969795,99.96651071272483L73.74564772009849,99.05860651982474L73.87985272049903,98.2647378860804L73.96932272076607,97.60738702711923L74.23773272156716,96.73264971314975L74.2601002216339,96.1611421764298L74.81928772330284,94.81896330944538L75.02059522390367,93.66840152220121L75.80345772624015,91.88581288000023L75.8258252263069,90.78344225340366L75.87056022644043,90.04685039936798L76.85473022937775,88.39872253974421L77.03367022991179,87.22874486785493L77.19024273037911,86.38644455782527L77.23497773051263,85.83735972201039L77.27971273064612,85.46957483997049L77.39155023097992,85.14840277605808L77.95073773264885,84.465181728462L77.9731052327156,84.03773143552387L78.19678023338318,83.59850932013698L78.2415152335167,83.30454557373825L78.35335273385047,83.02579308743026L78.66649773478507,82.62825591796555L78.80070273518561,82.29168243503831L79.00201023578644,81.97306552875249L79.33752273678779,81.61860383330423L79.42699273705482,81.358459382538L79.47172773718833,81.18197742985485L80.03091523885728,80.94422506734163L80.29932523965836,80.78871056546652L80.52300024032593,80.68305927075919L80.65720524072647,80.62518171798187L81.03745274186134,80.67079973519147L81.17165774226189,80.75418132138928L81.19402524232864,80.80666685700389L81.50717024326323,80.90247360020858L81.64137524366379,81.00544588855463L81.75321274399757,81.09219292787282L82.26766524553298,81.46800299584908L82.42423774600029,81.82157286769832L82.53607524633408,82.1292961272487L82.82685274720191,82.64956375858044L82.98342524766922,83.20077879293343L83.31893774867058,84.15944513570733L83.58734774947166,85.52015836225975L83.65445024967192,86.50940581493788L83.96759525060654,87.7578875097383L84.75045775294303,89.39883582903518L84.7728252530098,90.41239317363048L84.79519275307656,91.04114166765446L85.19780775427819,91.83603654819501L85.53332025527953,92.67937744015032L86.60696025848388,94.3257209262981L86.8082677590847,95.51500999541354L87.00957525968552,96.4344441727907L87.14378026008606,97.12443422219717L87.61349776148796,98.01385514355376L87.65823276162148,98.60113979620021L87.68060026168823,98.97610552374287L88.73187276482582,100.26816566206682L88.91081276535988,101.22590006974859L89.4252652668953,102.32709007836009L89.6265727674961,103.20900106383765L89.71604276776314,103.8269476928348L89.80551276803017,104.29171564295147L90.07392276883125,104.8650399305782L90.14102526903152,105.28040473002456L90.31996526956559,105.70259728453777L90.38706776976585,106.01810649320664L90.92388777136803,106.8725163608898L91.01335777163506,107.53289381088847L91.05809277176857,108.00765140008612L91.68438277363778,109.97799932772315L92.1988352751732,112.13744113636729L92.53434777617454,113.91764335961724L92.7132877767086,115.24407067770882L92.82512527704239,116.15193370178223L92.93696277737618,116.81071690598907L93.07116777777672,117.31563301944568L93.42904777884483,117.83947963970266L93.83166278004647,118.23714404530696L93.85403028011322,118.48776867798448L94.01060278058053,118.7234691364313L94.07770528078079,118.89918875965995L94.61452528238296,119.25189675441668L94.68162778258323,119.49587486063652L94.83820028305054,119.69444175436776L94.90530278325082,119.82282806130239L94.92767028331757,119.92344934979687L94.97240528345108,119.99680952830809L94.99477278351783,120.04281477217265L95.55396028518676,120.02562090109149L95.75526778578758,119.97061199072266L96.29208778738976,119.81053395795645L96.47102778792382,119.64338047204683L96.78417278885841,119.3761699694692L96.80654028892518,119.2023225108114L97.18678779006004,118.92243956446048L97.835445291996,118.42851017341204L97.88018029212951,118.10012909459616L98.10385529279709,117.78265490139313L98.48410279393197,117.32415907156556L98.59594029426574,116.9641370374082L99.0880252957344,116.40226432076307L99.26696529626847,115.93888686552972L99.5130077970028,115.48678937709957L99.55774279713631,115.20335570946969L99.7143152976036,114.92560696005174L99.84852029800415,114.65774711693552L100.00509279847145,114.33713776801699L100.139297798872,114.0169469153809L100.20640029907227,113.7661992826348L100.58664780020715,113.1866640672756L100.85505780100821,112.53518517900247L100.92216030120849,112.05145986070958L101.0787328016758,111.55928419085281L101.43661280274391,110.74941728913004L101.48134780287742,110.20280692800155L101.61555280327796,109.67470040120924L101.705022803545,109.22931504398365L102.0629028046131,108.40718263639116L102.44315030574798,107.3318552546763L102.89050030708313,105.94515174029796L103.29311530828477,104.43466989347438L103.33785030841828,103.44648139460523L103.38258530855178,102.76990851847808L103.44968780875206,102.24098309752209L103.51679030895232,101.800637861599L103.8970378100872,100.84854081600255L104.14308031082153,99.82549161445671L104.45622531175613,98.61949939595634L105.12725031375885,96.57359225282097L105.17198531389236,95.25650034533096L105.70880531549453,93.39983085985247L105.79827531576157,92.10376679635074L105.84301031589507,91.23809911103272L105.97721531629561,90.45202156517784L106.04431781649589,89.85499311736413L106.0890528166294,89.41267866178353L106.29036031723022,88.75669314898731L106.44693281769753,88.0552199387074L106.73771031856536,87.04758376694788L106.91665031909942,86.09476057647402L107.20742781996726,85.07299463368324L107.25216282010079,84.37724002253064L107.31926532030106,83.85504594462854L107.67714532136917,82.99721325611989L107.78898282170296,82.31822752295906L107.83371782183647,81.84471717723285L108.05739282250404,81.17191044072506L108.14686282277107,80.61155867254713L108.79552032470703,79.12834173729918L108.90735782504082,78.0866934851762L109.06393032550811,77.23873556426332L110.04810032844543,75.11134387300878L110.2270403289795,73.55945320003416L110.38361282944679,72.39189994689958L110.47308282971383,71.55985621827608L110.71912533044815,70.69223853832719L110.85333033084869,69.97408034574846L110.98753533124923,69.35465173306781L111.4796203327179,68.37722948769108L111.72566283345223,67.52883998174043L111.83750033378601,66.93695541697922L112.03880783438683,66.46813888195763L112.06117533445358,66.20139286587222L112.32958533525466,66.04458091868038L112.575627835989,66.0930220295184L112.64273033618927,66.16140198403934L112.86640533685684,66.34385094977652L113.91767783999443,66.67839446859327L114.02951534032822,66.85078532676826L114.05188284039497,66.94494714915392L114.27555784106255,66.9156892417281L115.90838534593583,66.7206537700568L116.15442784667016,66.69643566248975L116.17679534673691,66.68957955060674L116.22153034687042,66.69806374960974L116.26626534700394,66.71531120982971L116.33336784720422,66.74284251232127L116.35573534727097,66.769837414074L116.9149228489399,66.92906323369617L117.02676034927369,67.0762300852464L117.09386284947396,67.18990826597832L117.27280285000802,67.33169002786101L117.51884535074234,67.53077640394845L117.72015285134316,67.94435856675072L117.78725535154344,68.23248619803618L117.80962285161019,68.41410503285806L118.14513535261153,68.73427624423984L118.50301535367966,69.17790862932223L118.6372203540802,69.54269951514021L118.72669035434724,69.82547838020365L118.92799785494805,70.17349833140307L118.97273285508155,70.41828715561567L119.17404035568238,70.74235606775709L119.2635103559494,71.01344880000424L119.50955285668373,71.39974308503339L120.09110785841942,72.23165216156671L120.29241535902023,72.9639343811861L120.6279278600216,73.78007273671088L120.78450036048889,74.46585148206675L120.91870536088943,75.03855483964065L121.00817536115646,75.4868153933297L121.03054286122322,75.78541980891833L121.45552536249161,76.49392158657677L121.52262786269188,77.01535986158065L122.32785786509514,78.51757742249801L122.46206286549568,79.63428505672849L122.79757536649704,80.90539029797048L122.84231036663056,81.75651698479147L123.22255786776543,83.01438569813288L123.24492536783218,83.80598220639965L123.66990786910057,84.91902866144252L123.69227536916732,85.6159377138675L123.7593778693676,86.1271681151322L123.96068536996842,86.70494613051058L124.20672787070274,87.35967054942L124.76591537237167,88.39251989827565L124.83301787257194,89.08422631253804L125.07906037330628,89.75701907831247L125.14616287350654,90.23729307909254L125.19089787364005,90.56813109347155L125.23563287377358,90.81862330649231L125.50404287457467,91.25904086088758L125.88429037570953,91.95516613592514L126.35400787711144,92.83820647589374L126.51058037757873,93.52254019276593L126.68952037811279,94.08953795808623L126.77899037837982,94.49496041156706L126.93556287884712,94.85042108816377L126.95793037891387,95.08459503337659L126.98029787898064,95.23879294946784L127.2039728796482,95.50807799471959L127.7855278813839,96.1407860086423L127.89736538171768,96.59212748518489L128.2552453827858,97.1660088508285L128.50128788352012,97.68186259045481L128.59075788378718,98.07123370221488L128.6131253838539,98.3235426514966L128.79206538438797,98.66819586368264L128.92627038478852,98.98973280248264L128.9933728849888,99.24606035753185L129.1946803855896,99.67187134219225L129.28415038585663,100.03578743527083L129.44072288632393,100.44236412966787L129.4630903863907,100.70995766712855L129.59729538679122,101.0253481948331L129.73150038719177,101.33691442206127L129.77623538732527,101.56521825727691L129.84333788752556,101.78112950495628L130.62620038986208,102.75223857544525L130.89461039066316,103.719959453702L131.31959289193153,104.72273155624093L131.36432789206503,105.36965928230227L131.83404539346694,106.09028189325382L132.2813953948021,106.63274920652779L132.81821539640427,107.01076601149391L132.88531789660453,107.24129909543863L133.17609539747238,107.434476022358L133.35503539800644,107.60227544129302L133.55634289860726,107.65102867759134L133.62344539880752,107.64258813542375L133.66818039894105,107.63696187898911L133.69054789900778,107.65677945972442L134.67471790194512,107.08547002930068L134.80892290234564,106.66967973680676L134.8760254025459,106.3594821889363L135.03259790301323,106.04821877871021L135.32337540388107,105.56759395604517L135.36811040401457,105.20991588019L135.39047790408134,104.96173903666087L135.54705040454866,104.59732488136008L135.94966540575027,103.7789781775226L136.46411790728567,102.36852152597264L136.5759554076195,101.31118520651309L137.0233054089546,99.74877320946146L137.06804040908816,98.71080830040236L137.20224540948868,97.78768793829083L137.78380041122435,95.94868253260624L137.89563791155817,94.59609349708846L138.27588541269301,92.86582576951673L138.67850041389465,90.89566173555654L138.8574404144287,89.28894229149017L139.3718929159641,87.04262355981032L139.46136291623114,85.45671275952469L139.5508329164982,84.28649384511111L139.57320041656496,83.5260542676356L140.15475541830062,81.59717290523896L140.66920791983605,79.24254952099434L141.31786542177198,76.47353232055207L141.56390792250633,74.26381976822363L141.92178792357447,72.11285852695077L142.23493292450905,70.12463184711949L142.25730042457582,68.8843676452965L142.70465042591093,67.12953868324196L143.24147042751312,64.92642297580417L143.59935042858123,62.87642341068836L144.0243329298496,60.8802512904726L144.0914354300499,59.5783570349689L144.2032729303837,58.608895643892865L145.0308704328537,56.879752118223806L145.18744293332102,55.66605500790362L145.27691293358802,54.84965167878181L145.41111793398855,54.23250492880874L145.5453229343891,53.75689208749873L145.6571604347229,53.38548095702559L145.7242629349232,53.10781035446847L145.7689979350567,52.90802256135804L146.30581793665885,52.56324150751385L146.4847579371929,52.3301593679673L146.86500543832778,52.4182651566847L146.97684293866158,52.55238818169968L147.02157793879508,52.63641923627725L147.28998793959616,52.70495890488745L147.33472293972972,52.74858238791255L147.46892794013024,52.86059104405514L147.73733794093133,52.98570000876063L147.8491754412651,53.08415100539993L148.07285044193267,53.19807536470813L148.29652544260026,53.33262845159304L148.92281544446945,53.756691938578285L148.96755044460298,54.04007860105145L149.05702044487,54.27291759166329L149.39253294587135,54.67525334262022L150.30960044860842,55.854194621254166L150.37670294880868,56.64341899647438L150.7793179500103,57.62082848418386L151.18193295121193,58.734707049055245L151.5621804523468,59.96718984000091L151.62928295254707,60.808801795714416L151.74112045288086,61.48678076910912L151.85295795321463,62.062880158743L152.2555729544163,63.013048398906335L152.27794045448303,63.61640107913911L152.6581879556179,64.53053406191685L152.72529045581817,65.17783416571164L152.8818629562855,65.79606892603752L153.48578545808792,67.03528455315788L153.53052045822142,67.84235027270255L153.68709295868874,68.54767893983228L154.08970795989035,69.54385361365387L154.29101546049117,70.43801604510327L154.492322961092,71.2796205607979L154.71599796175957,72.1118493105217L154.96204046249392,72.97726397403588L155.05151046276092,73.6350627777819L155.07387796282768,74.06473429082735L155.49886046409608,75.00582556633077L155.61069796442985,75.7527681393467L155.65543296456337,76.27339130478752L155.7449029648304,76.72652978194654L155.9462104654312,77.34383641191987L156.34882546663286,78.3918662396437L156.79617546796797,79.70376032936669L156.90801296830176,80.67534943475242L157.1093204689026,81.55036121767765L157.24352546930314,82.25053498555366L157.26589296936987,82.69975026272985L157.35536296963693,83.07493242792677L157.4224654698372,83.37689865613888L157.91455047130586,84.06438994817181L158.31716547250747,84.83686874813668L158.4066354727745,85.37059576226189L158.5184729731083,85.79230778243681L158.8763529741764,86.3197695625613L158.9210879743099,86.66681634737564L159.14476297497748,87.0310524141795L159.27896797537804,87.33783216083835L159.32370297551157,87.5450303540991L159.4579079759121,87.75799514966748L159.5026429760456,87.90954089603643L159.54737797617912,88.02645973082653L159.81578797698023,88.23951061638186L159.86052297711373,88.38845914962717L159.90525797724723,88.49924464200012L160.41971047878266,88.70993166759324L160.62101797938348,88.86326021851023L160.68812047958374,88.95472359736377L161.04600048065186,89.01022488752668L161.29204298138617,89.02821925427304L161.3367779815197,89.03683776957104L161.47098298192026,89.02214734822309L161.76176048278808,88.93590263188857L161.87359798312187,88.83577336568197L162.0301704835892,88.71340930361504L162.16437548398972,88.57083189653366L162.45515298485753,88.33613997818406L163.03670798659326,87.75003998779833L163.55116048812866,87.04793387957548L163.6406304883957,86.56928030395095L163.66299798846245,86.27417802473599L163.81957048892974,85.98415358073086L164.19981799006462,85.47834758789672L164.44586049079896,84.90042610894876L164.69190299153328,84.2268215847642L164.84847549200057,83.5956386920843L164.98268049240113,83.01091406246972L165.5195004940033,81.74858057202889L166.74971299767495,78.67702208895327L166.83918299794198,76.65251528062684L167.12996049880982,74.81452513825421L167.46547299981117,72.9284089976041L167.64441300034525,71.33741779878373L167.666780500412,70.32675262951672L167.75625050067902,69.50428023241119L167.9799255013466,68.45369926238735L168.20360050201418,67.23158581015173L168.22596800208092,66.44242631114378L168.24833550214768,65.91468353712553L168.4272755026817,65.1043672817048L168.87462550401688,63.39911185983149L169.41144550561904,60.801643058825064L169.56801800608636,58.82836709011457L169.63512050628663,57.48368588931288L169.8587955069542,56.16328537319261L170.06010300755503,54.93226470134253L170.1272055077553,54.043724430340276L170.35088050842288,52.99418058267567L170.46271800875664,52.13245130832942L171.2679480111599,50.03397045579044L171.4692555117607,48.43651983607933L171.51399051189424,47.414566164627104L171.60346051216123,46.64579705410381L171.73766551256182,45.98904654245996L171.80476801276208,45.510643576030645L171.96134051322937,45.00875181973382L172.14028051376343,44.46036043650375L172.2073830139637,44.051889430142495L172.38632301449775,43.57449222915287L172.47579301476478,43.164518570215165L172.56526301503183,42.798672309054666L173.07971551656723,41.535245690490825L173.16918551683426,40.59192483695779L173.32575801730158,39.520423054891296L173.41522801756858,38.52398939445746L173.66127051830293,37.05336229342757L173.929680519104,35.11490691489598L174.28756052017212,32.66540921808078L174.84674802184105,30.056084423021872L175.1822605228424,28.706191536003757L175.495405523777,28.39398091856063L175.67434552431106,28.557001205248326L175.85328552484512,29.055210030468942L175.98749052524565,29.673766395986235L176.00985802531244,30.09964125887163L176.59141302704813,31.944552750653656L176.90455802798272,34.01293563669981L177.46374552965165,37.11247883048236L177.8439930307865,40.3288357983152L178.1124030315876,43.23551172554869L178.1795055317879,45.229734109881974L178.31371053218842,46.92349537106023L178.71632553339006,49.50185437595664L178.76106053352356,51.23190351289254L179.16367553472517,53.945323212056806L179.2531455349922,55.93985358781475L179.7228630363941,59.13222962441972L179.81233303666116,61.423668398167834L179.96890553712845,63.45182716301302L180.2596830379963,65.85396945043027L180.39388803839685,67.8394693789064L180.70703303933144,70.29938108602217L180.97544304013252,72.8138995095086L181.31095554113386,75.58304696155595L181.48989554166795,77.89937251436795L181.5122630417347,79.36852114178015L182.00434804320335,81.97599754389309L182.09381804347038,83.84429087263742L182.406963044405,86.00484609839162L182.67537304520607,88.15670363815137L182.6977405452728,89.51696718616465L182.85431304574013,90.81946427941587L183.16745804667474,92.55863740025734L183.30166304707527,94.01536288521622L183.45823554754256,95.37732845004106L183.50297054767609,96.33395290611448L183.7042780482769,97.55083481363715L183.7490130484104,98.41920233236287L183.77138054847717,99.0191269259388L184.19636304974557,100.66033273859638L184.26346554994583,101.82523223371359L184.46477305054665,103.02524045291878L184.7555505514145,104.42818233795752L185.29237055301667,106.4088326925082L185.65025055408478,108.24553396064262L185.8962930548191,109.76687801098186L186.29890805602076,111.2942464762652L186.5225830566883,112.52875704483286L186.54495055675505,113.30199406003351L186.6791555571556,113.94191188288963L186.83572805762293,114.5212853173746L186.92519805788993,114.98068560294294L186.9475655579567,115.28684576260463L186.96993305802346,115.50177130549929L187.46201805949212,116.17383887397527L187.48438555955886,116.60156568854953L187.5738555598259,116.96135675194026L187.6185905599594,117.2263050514039L187.81989806056023,117.60315081062114L187.90936806082723,117.93172533100228L188.55802556276322,118.72831795417929L188.58039306282998,119.2227717598776L188.7817005634308,119.66140044563184L188.84880306363107,119.96104019146904L189.00537556409836,120.22396498260605L189.2290505647659,120.46051453710709L189.25141806483268,120.60688336000555L189.2961530649662,120.71124598349982L189.4079905653,120.79064689899042L189.54219556570055,120.83946601181378L189.63166556596755,120.85911016623241L189.67640056610108,120.86632993241044L190.0342805671692,120.81248451479314L190.16848556756975,120.74805767842598L190.19085306763648,120.70325182879611L190.36979306817057,120.6279925130682L190.79477556943894,120.40449092192597L191.17502307057381,120.04779727597159L191.7565780723095,119.43802409667856L192.2710305738449,118.71902542526036L192.56180807471276,118.03417870479879L192.62891057491302,117.55148935738825L193.32230307698248,116.44904982275511L193.34467057704927,115.7575816315976L193.70255057811738,114.8850351588237L193.72491807818412,114.33101215104813L193.9485930788517,113.72300842142975L194.01569557905196,113.28763989956137L194.0604305791855,112.97421886507344L194.3064730799198,112.53469791784406L194.44067808032037,112.15357655237655L194.50778058052063,111.87332044412408L194.59725058078766,111.61323550868235L194.9998655819893,111.02785921529487L195.02223308205606,110.64880541602056L195.11170308232306,110.32864123842074L195.17880558252332,110.06379502778574L195.22354058265688,109.85006669235945L195.53668558359146,109.34210845687915L195.6261555838585,108.93536705015755L195.8721980845928,108.37092366047393L195.93930058479307,107.95011125140799L196.38665058612824,107.03341291741363L196.56559058666227,106.19148975542201L196.78926558732985,105.3010848238158L196.81163308739661,104.73285746334484L197.05767558813093,103.95341253357459L197.57212808966636,102.56774238584231L197.68396559000016,101.52894626837755L198.06421309113503,100.13647107126658L199.04838309407236,97.75793631972245L199.0707505941391,96.3081674891943L199.16022059440613,95.34764962552616L199.24969059467315,94.71451590061042L199.6523055958748,94.10769505296214L199.78651059627532,93.69204246199672L200.7483130991459,93.42210312470927L200.92725309967997,93.36455262598231L201.106193100214,93.54390591424388L201.12856060028076,93.67116227029818L201.50880810141564,94.30411964672979L201.79958560228349,94.88995537978641L201.8890556025505,95.25161136276901L202.13509810328483,95.36841213406755L202.40350810408592,95.2631932896086L202.47061060428618,95.17186099654934L202.5153456044197,95.09016020367834L202.60481560468673,95.0174060112071L202.7837556052208,94.9211739807595L204.1258056092262,94.36915251192816L204.26001060962676,93.99289397113472L204.28237810969352,93.75532171670329L204.6626256108284,93.35202076884883L204.8191981112957,92.96755833417404L205.33365061283112,92.67689016636751L205.42312061309815,92.50471709885234L205.66916311383247,92.50952284113035L205.73626561403273,92.58364887709217L206.11651311516763,92.7370297361595L206.25071811556816,92.79744423806241L206.54149561643598,92.62570714219329L206.98884561777115,91.94955811723882L207.19015311837197,91.22131691607514L207.54803311944008,90.11549180828317L207.59276811957358,89.37446682324433L207.7940756201744,88.50956381143487L207.99538312077524,87.5657026101453L208.17432312130927,86.64695063862234L208.6216731226444,85.28726786414252L208.66640812277794,84.39674290760327L208.7335106229782,83.7352425293852L208.77824562311173,83.25494442865515L208.91245062351226,82.70900659668392L209.18086062431334,81.81426807283437L209.2032281243801,81.22948013220551L209.35980062484742,80.49656381643892L209.4269031250477,79.89362193214012L209.53874062538145,79.25022155847802L209.69531312584877,78.44110852203369L209.74004812598227,77.83650798451377L210.8807906293869,74.81115550255258L211.1268331301212,72.5214884834466L211.1939356303215,71.03040545351445L211.3057731306553,69.9484552032116L211.6636531317234,68.6916070887461L211.75312313199044,67.7996974559414L211.7754906320572,67.23966757541837L211.8202256321907,66.82429966660746L212.04390063285828,66.15600758918498L212.1333706331253,65.55801829255397L212.22284063339234,65.00615247040619L212.42414813399316,64.22781535985857L212.4465156340599,63.7164155610956L212.5583531343937,63.157386293226494L212.6478231346607,62.619046946156814L212.67019063472748,62.247727206067694L213.00570313572882,61.26604985185742L213.6990956377983,59.209093664344934L213.9675056385994,57.31774894979134L214.12407813906668,55.77619349113789L214.2359156394005,54.55290627841357L214.54906064033509,52.94205284814875L214.7503681409359,51.41937483727753L215.08588064193725,49.57671850142296L215.3319231426716,47.76992084050204L215.48849564313886,46.16426074899965L215.51086314320563,45.123785644733005L215.71217064380645,43.73786343283453L216.56213564634322,39.12834266158217L216.6292381465435,36.06124614297079L216.673973146677,34.02438195466175L216.74107564687728,32.501545746630256L216.76344314694404,31.488105389546718L216.85291314721107,30.514507458997144L217.5686731493473,27.892667060280502L217.8818181502819,25.758191960488602L218.48574065208433,23.600138459477563L218.6199456524849,22.19219741236583L218.70941565275191,21.317781385495692L219.11203065395355,21.179276257711848L219.22386815428735,21.240737010143533L219.5593806552887,21.62345803922753L219.62648315548898,21.9379803830455L219.69358565568925,22.188761486635855L220.16330315709115,22.98267942243524L220.40934565782547,23.6868791690664L220.70012315869332,24.447108025330664L220.72249065876008,24.91112563587808L220.94616565942766,25.37235444638918L221.01326815962793,25.71964641349544L221.10273815989493,26.053045469443532L221.48298566102983,26.702669593013184L221.52772066116333,27.119367033171983L221.5948231613636,27.433031243061407L222.06454066276552,28.039104303848376L222.10927566289902,28.47148607621469L222.2211131632328,28.871802380962407L222.46715566396713,29.55563928058976L222.6460956645012,30.44152744301948L222.73556566476822,31.22605532947557L223.1158131659031,32.71389393586114L223.25001816630362,33.998748781039325L223.4736931669712,35.367205000648994L223.51842816710473,36.29717402422122L223.6526331675053,37.14946148259466L223.76447066783905,37.83500608736068L223.8763081681728,38.49641706909631L223.9434106683731,39.01537344847185L224.27892316937448,40.08017260585379L224.30129066944122,40.75958407695134L224.90521317124367,42.29248893873233L225.08415317177773,43.473001054294286L225.3078281724453,44.66417458681835L225.55387067317963,45.94620703148439L226.0235881745815,47.83321195365295L226.4038356757164,49.70377252577026L226.42620317578317,50.84899057221138L227.14196317791937,52.840003860050075L227.16433067798616,54.074049784204846L227.29853567838668,55.07347620547664L228.46164568185804,58.63439641710238L228.5063806819916,60.87181435383857L228.66295318245886,62.643235718614264L228.73005568265913,63.86947291553848L228.88662818312645,64.91677040884126L229.49055068492888,66.35886828493676L229.9602681863308,67.45613660679741L230.18394318699836,68.23103117687025L230.54182318806647,68.83484944734441L230.5865581882,69.20494777140334L230.6312931883335,69.43318966592754L230.7431306886673,69.58040537876823L231.4588906908035,69.38766315213789L231.5707281911373,69.18472786477102L231.81677069187165,68.76092622136088L231.83913819193842,68.47469306852842L231.86150569200515,68.27831440285553L231.92860819220542,68.05934291454494L232.28648819327353,67.3403922298963L232.89041069507599,65.92403113368975L232.95751319527625,64.95497567301872L233.40486319661142,63.58504527059131L233.53906819701194,62.526707962520206L233.5614356970787,61.84720195794941L234.14299069881437,60.41497357672806L234.2995631992817,59.26896547368723L234.456135699749,58.29510062581801L235.19426320195197,56.13632029918513L235.26136570215223,54.69965763200423L235.68634820342064,52.897166335550594L235.7087157034874,51.77284544328269L235.91002320408822,50.675886239223914L236.0665957045555,49.69057397037088L236.1336982047558,48.94970075280571L236.29027070522307,48.18114312919104L236.35737320542336,47.58194588789041L236.78235570669173,46.37530392637663L236.849458206892,45.52302274381739L237.09550070762634,44.55751753633359L237.34154320836066,43.58908621836835L237.56521820902825,42.721969670448146L237.60995320916174,42.141793573006595L237.6323207092285,41.76738821137542L237.69942320942877,41.45967532816255L238.23624321103094,40.63767845261276L238.34808071136476,40.02788044576786L238.3704482114315,39.629777626184335L238.45991821169852,39.29865645637895L238.88490071296692,38.60350185020161L238.9072682130337,38.16565907488328L239.1085757136345,37.6396082790975L239.28751571416853,37.0759125565593L239.55592571496962,36.334742429094575L240.38352321743963,34.682936026365155L240.45062571763992,33.60763544962961L240.6519332182407,32.750983344409406L240.67430071830748,32.21366945279195L240.80850571870803,31.761542988021063L240.85324071884156,31.447742680504433L241.05454821944238,31.08430242832941L241.83741072177887,30.13425584151696L241.94924822211266,29.51640904177171L242.46370072364806,28.8449202775478L242.53080322384832,28.39243783964116L242.59790572404862,28.068594297431588L242.7992132246494,27.696519020060123L243.42550322651863,27.068746426428845L243.96232322812082,26.612013485292266L244.18599822878835,26.34318525891581L245.41621073246003,26.563202524334628L245.55041573286059,26.773392588623835L245.63988573312758,26.941586815308852L245.70698823332788,27.07880178192204L245.9530307340622,27.300847727758736L246.02013323426246,27.473639225373574" fill="none"></path></g></g></g></g><g opacity="0.2"><g><g><g><path style="fill: none;" stroke="rgb(255, 112, 67)" stroke-width="2px" d="M22.77011506795883,161.87305570733002L22.904320068359375,161.87051628173796L23.26220006942749,161.86125664464856L23.306935069561003,161.85971131723514L23.374037569761278,161.85385220528426L23.620080070495604,161.83850234991215L23.95559257149696,161.80887471799676L24.022695071697235,161.80203144732886L24.470045073032377,161.74806424723573L24.738455073833464,161.69308918062043L25.18580507516861,161.59162449306433L25.83446257710457,161.31607152124764L25.90156507730484,161.29053934514758L26.102872577905657,161.1852881104411L26.460752578973768,160.99415550771278L26.505487579107285,160.9759889004152L27.489657582044604,160.27019707635492L27.60149508237839,160.1416805821464L27.937007583379746,159.69158736726146L28.071212583780287,159.4175133302793L28.183050084114075,159.25552455957802L28.339622584581374,159.00246285161768L28.47382758498192,158.71117708363244L29.25669008731842,156.36178098175535L29.301425087451932,156.1393923842057L29.480365087985994,155.33654415447765L29.950082589387897,152.9329738612011L30.129022589921952,152.1399133239311L30.576372591257094,150.0490394730176L31.784217594861985,141.65041094137865L31.80658509492874,141.46949688123817L32.18683259606362,138.8047373915299L32.25393509626389,138.2984233500033L32.32103759646416,137.75385986623792L32.65655009746552,134.87044659044457L32.72365259766579,134.3696524034209L32.74602009773254,134.17875950721202L32.969695098400116,132.2758186755714L33.394677599668505,129.4972515550719L33.86439510107041,126.09002812235303L34.244642602205275,122.7238368513164L34.35648010253907,121.70181838515234L34.96040260434151,116.10682424119629L35.18407760500908,114.27752705397876L35.31828260540962,113.16803629888989L35.47485510587692,111.89558137088233L35.49722260594368,111.68244951131763L36.23535010814667,105.82983314898047L36.28008510828018,105.4266807125559L36.548495109081266,103.26717024740185L36.70506760954857,102.43843371357349L36.72743510961533,102.24181583313354L36.77217010974884,101.80812185940674L36.83927260994911,101.20185369580004L36.88400761008263,100.78662968567652L37.15241761088371,98.58119502562646L37.376092611551286,96.49296196096068L38.33789511442185,87.31824685905177L38.516835114955896,85.60833517361719L38.69577511548996,83.93412020491552L38.89708261609078,82.21020168147804L39.18786011695862,79.8105319610625L39.27733011722565,79.17227599196923L39.478637617826465,77.66928425776611L39.56810761809349,77.029983991875L39.612842618227006,76.73395900196337L39.65757761836052,76.5091948364004L39.814150118827826,75.42141053618116L39.9259876191616,74.5502100766084L39.970722619295124,74.2056004213872L40.08256011962891,73.47939974338915L40.12729511976242,73.46164669782567L40.21676512002945,72.79250938056738L40.30623512029648,72.17824737361524L40.44044012069702,71.38952978493312L40.462807620763776,71.21160979001661L40.9772601222992,68.10477708798925L41.06673012256622,67.88031958100976L41.80485762476921,65.17592239736719L41.96143012523651,64.55692790254541L42.09563512563705,64.05496924171142L42.408780126571656,62.89435767194678L42.498250126838684,62.64463812814307L42.65482262730599,62.22734210056349L42.699557627439496,62.12001159633985L42.87849762797356,61.62931642239697L43.19164262890816,61.0756899342788L43.21401012897491,61.039297019680674L43.43768512964249,60.7254609677168L43.50478762984276,60.661253290788565L43.70609513044357,60.52906686516211L43.885035130977634,60.30223068214306L44.08634263157845,60.19232258820409L44.1087101316452,60.176508950979496L44.242915132045745,60.15712315566064L44.2652826321125,60.17983246697901L44.37712013244629,60.17141178803759L44.77973513364792,60.37789247156837L44.84683763384819,60.41736026007129L45.04814513444901,60.61322392615722L45.71917013645172,62.07823143635596L46.00994763731956,63.07502930604491L46.144152637720104,63.46044941708057L46.211255137920375,63.731676502078116L46.255990138053896,63.84376435838085L46.345460138320924,64.16108139967089L46.479665138721465,64.68500344553907L46.59150263905526,65.07678050612988L46.815177639722826,65.93661802197363L46.94938264012337,66.5441086758794L47.06122014045715,67.08241052289259L47.28489514112473,68.15553322759277L48.224330143928526,73.19314638780028L48.313800144195554,74.10274547486866L48.33616764426232,74.21399623611914L48.358535144329075,74.35906232225246L48.7611501455307,76.81950845868897L49.051927646398546,78.64533708868507L49.342705147266386,80.69888043710156L49.92426014900207,85.65164033844874L50.19267014980316,87.6346439245913L50.4387126505375,89.32479685156494L50.50581515073777,89.75876847563086L50.57291765093804,90.26547620047413L51.020267652273176,94.02981805779638L51.15447265267372,95.26740507605348L51.31104515314102,96.4689348465403L51.445250153541565,97.51334767736938L51.80313015460968,100.1116699993667L51.87023265480995,100.68403581335743L52.11627515554428,102.51099576488453L52.18337765574455,102.9850236304109L52.25048015594482,103.45282715549926L52.272847656011585,103.60456928187598L53.34648765921593,111.69451279694678L53.4135901594162,112.22789981855419L53.48069265961647,112.78498657582396L53.50306015968323,112.95227712119092L53.99514516115188,117.04422565848999L54.26355516195297,119.3850252189441L54.48723016262055,121.24275877372851L54.576700162887576,121.85177443248193L55.135887664556506,126.35984623548046L55.158255164623256,126.52377182449878L55.40429766535759,128.19764283830273L55.58323766589165,129.28836940330956L55.67270766615868,129.82898983785608L55.71744266629219,130.04078939019652L56.43320266842842,132.79532110820583L56.522672668695456,133.00214160259935L57.08186017036438,134.11977745830796L57.4397401714325,134.78720328914758L57.46210767149925,134.8386141862672L57.79762017250061,135.9969838331444L57.88709017276764,136.13470876143091L58.24497017383575,136.45020657139452L58.26733767390251,136.45379944966334L58.75942267537117,136.65281258228248L58.871260175704954,136.6954629895979L58.983097676038746,136.70718232032934L59.05020017623902,136.68540956090112L59.1620376765728,136.68068121706642L59.22914017677307,136.7067181884192L59.49755017757416,136.7247385242345L59.67649017810821,136.69952207179432L59.833062678575516,136.8403115138983L59.989635179042814,137.1613602586267L60.19094267964363,137.17646526588135L60.28041267991066,137.17058073630616L60.325147680044175,137.14776575209754L60.36988268017768,137.1261442499436L60.43698518037796,137.07576314549965L60.593557680845265,136.94524676594276L60.79486518144608,136.8272184355935L61.01854018211365,136.56755113598328L61.108010182380674,136.47113394770068L61.15274518251419,136.42039645625428L61.21984768271446,136.32055422311683L61.33168518304825,136.17461788965198L61.39878768324852,136.07653687135218L61.42115518331528,136.0408712348811L61.868505184650424,135.37365882183948L62.069812685251236,135.05043860281714L62.204017685651785,134.83091664141796L62.36059018611908,134.53750446551842L62.38295768618583,134.50066399514978L62.58426518678665,134.4847736932793L62.74083768725396,134.22562232601564L63.21055518865585,133.32540533398827L63.30002518892288,133.15850639992053L63.52370018959046,132.65922064160486L63.61317018985748,132.4288765330327L63.8144776904583,131.96600855352466L64.10525519132614,131.19155473301L64.17235769152641,131.03382240416784L64.30656269192696,130.7534059217527L64.35129769206047,130.665975073177L65.11179269433022,129.46638471102904L65.24599769473076,129.40194496814576L65.62624519586564,129.09227988732093L65.8499201965332,128.98244224197546L65.91702269673347,128.89408312957946L65.96175769686698,128.85327060174757L66.36437269806862,128.34990296904346L66.67751769900322,127.71414999703711L66.72225269913673,127.6374708470409L67.12486770033836,126.46901669120507L67.2143377006054,126.13211908495532L67.39327770113945,125.39431510920338L67.77352520227433,123.93596291907349L67.90773020267487,123.41025065012329L68.44455020427704,121.19515210065819L68.73532770514488,119.94837775700097L68.80243020534516,119.62046027440576L68.82479770541191,119.50912248842212L68.86953270554542,119.31294801971777L68.91426770567894,119.09750378867211L69.00373770594597,118.68253670871313L69.09320770621301,118.3929391169502L69.2497802066803,117.69356277693824L69.58529270768165,116.30191711678857L70.3457877099514,113.42273697265796L70.43525771021844,113.08679249443799L70.59183021068573,112.41750599192285L70.79313771128655,111.52068710852343L71.06154771208763,110.31236112078076L71.2852227127552,109.25640300868653L71.32995771288871,109.07117293618506L71.37469271302224,108.86930041947656L71.486530213356,108.33306644588453L71.5536327135563,108.02651560729613L71.73257271409034,107.21970930622265L71.82204271435738,106.79398431163183L72.26939271569252,104.56191179516675L72.38123021602631,103.98038766402026L72.40359771609306,103.87599942458424L72.44833271622659,103.62591106167335L72.51543521642685,103.31577148885108L72.60490521669388,102.90699559705078L72.62727271676064,102.80471667138501L72.78384521722793,102.21688117506739L72.8509477174282,101.9256259693396L72.96278521776199,101.48414949804786L73.38776771903038,99.48365394054126L73.61144271969795,98.36021021990332L73.74564772009849,97.6967502304746L73.87985272049903,97.07393493546387L73.96932272076607,96.6213607386775L74.23773272156716,95.42054374219556L74.2601002216339,95.30388087134985L74.81928772330284,92.80569500896874L75.02059522390367,91.94255884133496L75.80345772624015,89.21192991669874L75.8258252263069,89.12988631350879L75.87056022644043,88.94196261831445L76.85473022937775,85.92653075030859L77.03367022991179,85.47377836002099L77.19024273037911,85.12299409278077L77.23497773051263,85.01373246828808L77.27971273064612,84.91789751691064L77.39155023097992,84.66664468018946L77.95073773264885,83.44035015706788L77.9731052327156,83.3965559961167L78.19678023338318,82.93967614705664L78.2415152335167,82.86359995414013L78.35335273385047,82.60766435796826L78.66649773478507,82.03195016376856L78.80070273518561,81.78682221064746L79.00201023578644,81.49514016932373L79.33752273678779,81.08691129013184L79.42699273705482,80.96824270638866L79.47172773718833,80.91725450083008L80.03091523885728,80.58759652357178L80.29932523965836,80.5554388126538L80.52300024032593,80.52458232869824L80.65720524072647,80.53836538881592L81.03745274186134,80.73922676100587L81.17165774226189,80.87925370068605L81.19402524232864,80.88539516042577L81.50717024326323,81.04618371501562L81.64137524366379,81.15990432107372L81.75321274399757,81.2223134868501L82.26766524553298,82.03171809781347L82.42423774600029,82.35192767547217L82.53607524633408,82.59088101657422L82.82685274720191,83.42996520557813L82.98342524766922,84.0276013444629L83.31893774867058,85.59744464986817L83.58734774947166,87.56122820208839L83.65445024967192,87.99327699395508L83.96759525060654,89.63061005193896L84.75045775294303,91.86025830798046L84.7728252530098,91.93272919052343L84.79519275307656,91.98426440869044L85.19780775427819,93.02837886900586L85.53332025527953,93.94438877808325L86.60696025848388,96.79523615551977L86.8082677590847,97.29894359908667L87.00957525968552,97.81359543885644L87.14378026008606,98.1594192963069L87.61349776148796,99.34798652558862L87.65823276162148,99.48206677516991L87.68060026168823,99.53855411505688L88.73187276482582,102.20625586955273L88.91081276535988,102.66250168127124L89.4252652668953,103.97887509127735L89.6265727674961,104.53186754205396L89.71604276776314,104.75386763633057L89.80551276803017,104.98886756812647L90.07392276883125,105.72502636201831L90.14102526903152,105.90345192919409L90.31996526956559,106.33588611630762L90.38706776976585,106.49137030620996L90.92388777136803,108.15413116241456L91.01335777163506,108.52345998588648L91.05809277176857,108.71978778388257L91.68438277363778,112.9335212191787L92.1988352751732,115.37660384933349L92.53434777617454,116.58794669449219L92.7132877767086,117.23371165484619L92.82512527704239,117.51372823789234L92.93696277737618,117.79889171229931L93.07116777777672,118.07300718963062L93.42904777884483,118.62524957008813L93.83166278004647,118.83364065371339L93.85403028011322,118.86370562700074L94.01060278058053,119.07701982410157L94.07770528078079,119.16276819450293L94.61452528238296,119.78095874655176L94.68162778258323,119.8618420199663L94.83820028305054,119.9922920949646L94.90530278325082,120.01540752170435L94.92767028331757,120.07438128253858L94.97240528345108,120.10684979607495L94.99477278351783,120.11182263796948L95.55396028518676,119.99983009446973L95.75526778578758,119.88809862516943L96.29208778738976,119.57041690880712L96.47102778792382,119.39265024318237L96.78417278885841,118.97535421560278L96.80654028892518,118.94155132282471L97.18678779006004,118.50261514493408L97.835445291996,117.68761608683937L97.88018029212951,117.60755747637232L98.10385529279709,117.30644361158862L98.48410279393197,116.63641532682422L98.59594029426574,116.42410398617213L99.0880252957344,115.5594552457954L99.26696529626847,115.24382068267968L99.5130077970028,114.80864314445435L99.55774279713631,114.7782052080249L99.7143152976036,114.50898383592481L99.84852029800415,114.25595735226123L100.00509279847145,113.85622374463917L100.139297798872,113.53666063642676L100.20640029907227,113.39007783351562L100.58664780020715,112.31736124423682L100.85505780100821,111.55796684659278L100.92216030120849,111.32587188327027L101.0787328016758,110.82102068606763L101.43661280274391,109.5346169365459L101.48134780287742,109.38289138630884L101.61555280327796,108.88254061102076L101.705022803545,108.56123700814527L102.0629028046131,107.17398402500244L102.44315030574798,105.71886418210401L102.89050030708313,103.86509646873047L103.29311530828477,102.16894712323901L103.33785030841828,101.96419864630151L103.38258530855178,101.75504920428735L103.44968780875206,101.44759496608813L103.51679030895232,101.14012000771436L103.8970378100872,99.42039524760791L104.14308031082153,98.29091781213793L104.45622531175613,96.81051106820581L105.12725031375885,93.50473153811792L105.17198531389236,93.28086248409595L105.70880531549453,90.61482663163477L105.79827531576157,90.15967070109814L105.84301031589507,89.93959758305567L105.97721531629561,89.27290524639551L106.04431781649589,88.95945044564357L106.0890528166294,88.74920697841259L106.29036031723022,87.77271487979297L106.44693281769753,87.0030101232876L106.73771031856536,85.5361295093086L106.91665031909942,84.66552579076318L107.20742781996726,83.54034571949708L107.25216282010079,83.33360810580176L107.31926532030106,83.0717548277754L107.67714532136917,81.71046422335694L107.78898282170296,81.29974892321778L107.83371782183647,81.13445165864356L108.05739282250404,80.16270033596338L108.14686282277107,79.77103102028028L108.79552032470703,76.90351633442724L108.90735782504082,76.52422110699169L109.06393032550811,75.96679868289404L110.04810032844543,71.92025633612697L110.2270403289795,71.23161719057227L110.38361282944679,70.64057006719774L110.47308282971383,70.31179062534083L110.71912533044815,69.39081201840382L110.85333033084869,68.89684305688037L110.98753533124923,68.42550881404688L111.4796203327179,66.91109611962598L111.72566283345223,66.25625572281446L111.83750033378601,66.04912856983739L112.03880783438683,65.7649140794253L112.06117533445358,65.80127384174413L112.32958533525466,65.80936299789259L112.575627835989,66.1656836957754L112.64273033618927,66.2639719158208L112.86640533685684,66.61752439838232L113.91767783999443,67.18020974681836L114.02951534032822,67.10937161403076L114.05188284039497,67.08618988273243L114.27555784106255,66.87180238058936L115.90838534593583,66.42810056254982L116.15442784667016,66.66010850113916L116.17679534673691,66.67929538278223L116.22153034687042,66.71079004811426L116.26626534700394,66.74118240015967L116.33336784720422,66.78413946605859L116.35573534727097,66.81032976670312L116.9149228489399,67.1679019631294L117.02676034927369,67.29698036257177L117.09386284947396,67.36042553707617L117.27280285000802,67.54436267068505L117.51884535074234,67.82940596807958L117.72015285134316,68.5647318109541L117.78725535154344,68.66467764496436L117.80962285161019,68.68653328509082L118.14513535261153,69.21453306131251L118.50301535367966,69.8433572069458L118.6372203540802,70.08988584386718L118.72669035434724,70.24964667779882L118.92799785494805,70.69552825820215L118.97273285508155,70.78547039193457L119.17404035568238,71.22845943596924L119.2635103559494,71.420087898375L119.50955285668373,71.97918451257716L120.09110785841942,73.4795157763667L120.29241535902023,74.06235771061523L120.6279278600216,75.00428026999805L120.78450036048889,75.49451960010059L120.91870536088943,75.89760987600145L121.00817536115646,76.15920622386328L121.03054286122322,76.23332643230127L121.45552536249161,77.55667425306444L121.52262786269188,77.79751727408643L122.32785786509514,80.77090376387402L122.46206286549568,81.30934650807423L122.79757536649704,82.8120481598335L122.84231036663056,83.03320701502295L123.22255786776543,84.90118876814502L123.24492536783218,84.9933769687998L123.66990786910057,86.58859834400684L123.69227536916732,86.66130129250489L123.7593778693676,86.89401371702931L123.96068536996842,87.57161315357813L124.20672787070274,88.34175717778417L124.76591537237167,89.94179392155908L124.83301787257194,90.12178593393165L125.07906037330628,90.76620822697411L125.14616287350654,90.9577040802627L125.19089787364005,91.06438811504003L125.23563287377358,91.19436162602344L125.50404287457467,91.91966719248047L125.88429037570953,92.99935404848145L126.35400787711144,94.16276698584669L126.51058037757873,94.54904076807422L126.68952037811279,94.94003460606665L126.77899037837982,95.10309409178832L126.93556287884712,95.38361210305884L126.95793037891387,95.4358559511958L126.98029787898064,95.47008982360474L127.2039728796482,95.91200556259716L127.7855278813839,97.08984802952637L127.89736538171768,97.26913969999877L128.2552453827858,98.02683089929394L128.50128788352012,98.45564319989428L128.59075788378718,98.65529036985498L128.6131253838539,98.70200607541919L128.79206538438797,99.18517568196167L128.92627038478852,99.47203821068261L128.9933728849888,99.6305516901057L129.1946803855896,100.31058781918286L129.28415038585663,100.58166157488867L129.44072288632393,101.05222917126343L129.4630903863907,101.11134797331958L129.59729538679122,101.4984339863899L129.73150038719177,101.80426376290356L129.77623538732527,101.90767401010034L129.84333788752556,102.10499637647534L130.62620038986208,104.20890218117871L130.89461039066316,105.17154077108715L131.31959289193153,106.2268897100493L131.36432789206503,106.34005087139428L131.83404539346694,107.17121580968114L132.2813953948021,107.44645017643872L132.81821539640427,107.57779121894312L132.88531789660453,107.58709872135572L133.17609539747238,107.72424141273706L133.35503539800644,107.85397456969555L133.55634289860726,107.72415853203881L133.62344539880752,107.62992732217236L133.66818039894105,107.62852249433716L133.69054789900778,107.6865058308274L134.67471790194512,106.22850588366504L134.80892290234564,106.04599429806592L134.8760254025459,105.89418586713062L135.03259790301323,105.5813236633711L135.32337540388107,104.84665672204761L135.36811040401457,104.67339876640723L135.39047790408134,104.5894737713672L135.54705040454866,104.05070364840893L135.94966540575027,102.55145812176636L136.46411790728567,100.2528365486477L136.5759554076195,99.72518072732373L137.0233054089546,97.40515521388403L137.06804040908816,97.15386093681373L137.20224540948868,96.40300739512354L137.78380041122435,93.19017442407934L137.89563791155817,92.56720994381178L138.27588541269301,90.27042417815917L138.67850041389465,87.94041568461621L138.8574404144287,86.87886312539064L139.3718929159641,83.67314546229052L139.46136291623114,83.07784655909619L139.5508329164982,82.53116547349073L139.57320041656496,82.38539490142236L140.15475541830062,78.70385086164404L140.66920791983605,75.71061444462744L141.31786542177198,72.32000651988866L141.56390792250633,70.94925093973094L141.92178792357447,68.8864166650415L142.23493292450905,67.14229182737255L142.25730042457582,67.02397134256202L142.70465042591093,64.49729524016017L143.24147042751312,61.62174941464747L143.59935042858123,59.80142406301465L144.0243329298496,57.88599311014893L144.0914354300499,57.62551565171337L144.2032729303837,57.15470355727881L145.0308704328537,54.28603682972022L145.18744293332102,53.84550934242334L145.27691293358802,53.62504668509911L145.41111793398855,53.306784803849126L145.5453229343891,53.0434728255337L145.6571604347229,52.828364261315926L145.7242629349232,52.69130445063283L145.7689979350567,52.60834087169239L146.30581793665885,52.04606992674756L146.4847579371929,51.98053615864747L146.86500543832778,52.55042383976074L146.97684293866158,52.75357271922216L147.02157793879508,52.76246581814355L147.28998793959616,52.80776840780274L147.33472293972972,52.8140176124502L147.46892794013024,53.02860402826903L147.73733794093133,53.173363455818844L147.8491754412651,53.23182750035889L148.07285044193267,53.368961903670396L148.29652544260026,53.53445808192042L148.92281544446945,54.39278716905615L148.96755044460298,54.46515859476122L149.05702044487,54.62217607758106L149.39253294587135,55.278756969055664L150.30960044860842,57.62260653920508L150.37670294880868,57.82725555930469L150.7793179500103,59.08694271574805L151.18193295121193,60.40552489636231L151.5621804523468,61.815914026419435L151.62928295254707,62.071219729284664L151.74112045288086,62.50374922920116L151.85295795321463,62.92702924319386L152.2555729544163,64.43830075915137L152.27794045448303,64.52143009948827L152.6581879556179,65.90173353608351L152.72529045581817,66.14878432140381L152.8818629562855,66.72342106652637L153.48578545808792,68.89410799383838L153.53052045822142,69.05294885201953L153.68709295868874,69.60567194052686L154.08970795989035,71.03811562438624L154.29101546049117,71.77925969227735L154.492322961092,72.54202733433983L154.71599796175957,73.36019243510742L154.96204046249392,74.27538596930712L155.05151046276092,74.62176098340088L155.07387796282768,74.7092415603955L155.49886046409608,76.41746247958595L155.61069796442985,76.8731819988706L155.65543296456337,77.05432605294872L155.7449029648304,77.40623749768507L155.9462104654312,78.26979635687988L156.34882546663286,79.96391098122949L156.79617546796797,81.67160146395118L156.90801296830176,82.13273309283106L157.1093204689026,82.86287889206542L157.24352546930314,83.30079563736767L157.26589296936987,83.37357317849413L157.35536296963693,83.63770567572217L157.4224654698372,83.82984799845703L157.91455047130586,85.09562688622118L158.31716547250747,85.99558694808398L158.4066354727745,86.17118628344971L158.5184729731083,86.42487581269921L158.8763529741764,87.11096223274805L158.9210879743099,87.18738652459716L159.14476297497748,87.57740651438526L159.27896797537804,87.79800178082665L159.32370297551157,87.85582764399024L159.4579079759121,88.07744234302002L159.5026429760456,88.13685951558985L159.54737797617912,88.20183798301171L159.81578797698023,88.55908694471483L159.86052297711373,88.61188194949511L159.90525797724723,88.66542288055957L160.41971047878266,89.0259622059829L160.62101797938348,89.09325304488574L160.68812047958374,89.09191866564404L161.04600048065186,89.093476822771L161.29204298138617,89.05521080439259L161.3367779815197,89.04976554251806L161.47098298192026,89.00011171620118L161.76176048278808,88.80653555738671L161.87359798312187,88.68557946637208L162.0301704835892,88.52986321051465L162.16437548398972,88.35696578591163L162.45515298485753,87.98410210065967L163.03670798659326,86.87089000221972L163.55116048812866,85.99477471724121L163.6406304883957,85.85129994051417L163.66299798846245,85.83152460591357L163.81957048892974,85.54911691472314L164.19981799006462,84.7196385986455L164.44586049079896,84.03354389052684L164.69190299153328,83.2164147984873L164.84847549200057,82.64886435306445L164.98268049240113,82.13382711804786L165.5195004940033,79.85508033636766L166.74971299767495,74.06968436433985L166.83918299794198,73.61575506813722L167.12996049880982,72.0575399246953L167.46547299981117,70.09923478662891L167.64441300034525,68.95093100055323L167.666780500412,68.81075487561621L167.75625050067902,68.27057163675292L167.9799255013466,66.87782780735157L168.20360050201418,65.39841563179833L168.22596800208092,65.25868706263184L168.24833550214768,65.12306937609814L168.4272755026817,63.888892898573744L168.87462550401688,60.84122872702149L169.41144550561904,56.90543985731543L169.56801800608636,55.86845313704883L169.63512050628663,55.46666408811035L169.8587955069542,54.182684599012205L170.06010300755503,53.08573369356738L170.1272055077553,52.71091402383692L170.35088050842288,51.41986481117871L170.46271800875664,50.83985739681006L171.2679480111599,46.88624917698195L171.4692555117607,46.0403439065127L171.51399051189424,45.881635657448726L171.60346051216123,45.49264338831887L171.73766551256182,45.00392077499413L171.80476801276208,44.7930391263867L171.96134051322937,44.25591418528859L172.14028051376343,43.6377733616587L172.2073830139637,43.43918292060059L172.38632301449775,42.85839642766845L172.47579301476478,42.549558081808584L172.56526301503183,42.24990291731396L173.07971551656723,39.64010576264502L173.16918551683426,39.17694355665819L173.32575801730158,37.9131703817915L173.41522801756858,37.02933890380666L173.66127051830293,34.84742164188279L173.929680519104,32.20722384709862L174.28756052017212,28.99116267285791L174.84674802184105,26.142097230433592L175.1822605228424,26.681352205476543L175.495405523777,27.92566499239601L175.67434552431106,28.801531635279787L175.85328552484512,29.802523268299808L175.98749052524565,30.601600944262202L176.00985802531244,30.73845355319972L176.59141302704813,34.711919988326656L176.90455802798272,37.115509965769064L177.46374552965165,41.761793621156244L177.8439930307865,45.15337125006445L178.1124030315876,47.59552561639893L178.1795055317879,48.22106768638184L178.31371053218842,49.46413726282762L178.71632553339006,53.36939288330127L178.76106053352356,53.82697721829639L179.16367553472517,58.01545276080323L179.2531455349922,58.931649151451666L179.7228630363941,63.92079367932715L179.81233303666116,64.86082655879004L179.96890553712845,66.49406531028076L180.2596830379963,69.45718288155615L180.39388803839685,70.8177192716206L180.70703303933144,73.9892486466958L180.97544304013252,76.58567714473828L181.31095554113386,79.73676813962695L181.48989554166795,81.37386084358593L181.5122630417347,81.57224408289844L182.00434804320335,85.88721214706248L182.09381804347038,86.64673086575391L182.406963044405,89.24567893702294L182.67537304520607,91.38448994779101L182.6977405452728,91.55736250818457L182.85431304574013,92.77320991929273L183.16745804667474,95.16739708151952L183.30166304707527,96.20045111265453L183.45823554754256,97.42027679727832L183.50297054767609,97.7688895902246L183.7042780482769,99.37615767492115L183.7490130484104,99.72175361045142L183.77138054847717,99.91901381630274L184.19636304974557,103.12214145758277L184.26346554994583,103.5725814763894L184.46477305054665,104.82525278172656L184.7555505514145,106.53259516551563L185.29237055301667,109.37980822433423L185.65025055408478,111.00058586284423L185.8962930548191,112.04889408649073L186.29890805602076,113.58529917419018L186.5225830566883,114.38052289768433L186.54495055675505,114.46184958283447L186.6791555571556,114.90178861717382L186.83572805762293,115.39034546910204L186.92519805788993,115.66978603129542L186.9475655579567,115.74608600209717L186.96993305802346,115.82415961984131L187.46201805949212,117.18194022668922L187.48438555955886,117.24315591041089L187.5738555598259,117.50104334702637L187.6185905599594,117.62372750059936L187.81989806056023,118.16841944944701L187.90936806082723,118.42458711157397L188.55802556276322,119.92320688894482L188.58039306282998,119.96445246842504L188.7817005634308,120.31934347426318L188.84880306363107,120.41049981022485L189.00537556409836,120.61835216931152L189.2290505647659,120.81533886885865L189.25141806483268,120.82643659435327L189.2961530649662,120.86778991874121L189.4079905653,120.90974827222632L189.54219556570055,120.91269468104883L189.63166556596755,120.88857639786036L189.67640056610108,120.87715958167749L190.0342805671692,120.73171638836719L190.16848556756975,120.65141742387524L190.19085306763648,120.63604305435132L190.36979306817057,120.51510353947631L190.79477556943894,120.06923853521263L191.17502307057381,119.51275680704003L191.7565780723095,118.52336432773902L192.2710305738449,117.64052741813305L192.56180807471276,117.00690862410644L192.62891057491302,116.82745533627246L193.32230307698248,114.79539052080543L193.34467057704927,114.72037934486133L193.70255057811738,113.57621544966284L193.72491807818412,113.49997763938477L193.9485930788517,112.8110028270022L194.01569557905196,112.6345871167588L194.0604305791855,112.50408731334156L194.3064730799198,111.875416497L194.44067808032037,111.5818945041753L194.50778058052063,111.45293628174535L194.59725058078766,111.22310810551977L194.9998655819893,110.14979477521362L195.02223308205606,110.08022471710913L195.11170308232306,109.848394972021L195.17880558252332,109.66652571183326L195.22354058265688,109.52947418921997L195.53668558359146,108.5801711036587L195.6261555838585,108.3252549400752L195.8721980845928,107.52425857594848L195.93930058479307,107.31889263780909L196.38665058612824,105.65836541642213L196.56559058666227,104.92860501243457L196.78926558732985,103.9654774264065L196.81163308739661,103.88051642263844L197.05767558813093,102.78424513891919L197.57212808966636,100.4892371642439L197.68396559000016,99.97075209218042L198.06421309113503,98.0477582756001L199.04838309407236,94.19013419240625L199.0707505941391,94.1335142434021L199.16022059440613,93.90687283002393L199.24969059467315,93.76481531323682L199.6523055958748,93.19746378148974L199.78651059627532,93.06856357554858L200.7483130991459,93.01719411877808L200.92725309967997,93.27822687789184L201.106193100214,93.81293584663624L201.12856060028076,93.86204680437963L201.50880810141564,95.2535557113772L201.79958560228349,95.76870897937134L201.8890556025505,95.79409533724292L202.13509810328483,95.54361329101539L202.40350810408592,95.10536502292017L202.47061060428618,95.03486255696045L202.5153456044197,94.96760901437183L202.60481560468673,94.90827472250025L202.7837556052208,94.77682593508814L204.1258056092262,93.54112030868116L204.26001060962676,93.42850615994459L204.28237810969352,93.39896333505615L204.6626256108284,92.74706934706714L204.8191981112957,92.39086468216188L205.33365061283112,92.24088791465772L205.42312061309815,92.24645749757958L205.66916311383247,92.51673145454737L205.73626561403273,92.69483793103491L206.11651311516763,92.9671010247605L206.25071811556816,92.88806599091676L206.54149561643598,92.36810149838965L206.98884561777115,90.93533457980713L207.19015311837197,90.12895511432959L207.54803311944008,88.4567541465952L207.59276811957358,88.26292934568603L207.7940756201744,87.2122092937207L207.99538312077524,86.14991080821093L208.17432312130927,85.2688226813379L208.6216731226444,83.24774370242285L208.66640812277794,83.06095547279443L208.7335106229782,82.7429919620581L208.77824562311173,82.53449727756005L208.91245062351226,81.89009984872705L209.18086062431334,80.47216028706006L209.2032281243801,80.3522982212622L209.35980062484742,79.39718934278905L209.4269031250477,78.9892091056919L209.53874062538145,78.28512099798488L209.69531312584877,77.22743896736719L209.74004812598227,76.92960717823388L210.8807906293869,70.27312677961085L211.1268331301212,69.0869879547876L211.1939356303215,68.79378090861621L211.3057731306553,68.32552982775732L211.6636531317234,66.80633491704786L211.75312313199044,66.46183300673438L211.7754906320572,66.39962275463378L211.8202256321907,66.20124780339111L212.04390063285828,65.15356947305126L212.1333706331253,64.66103434760741L212.22284063339234,64.17835373718458L212.42414813399316,63.0603096940371L212.4465156340599,62.94931586295118L212.5583531343937,62.31884239142286L212.6478231346607,61.811537925552244L212.67019063472748,61.69074759593407L213.00570313572882,59.793533820541995L213.6990956377983,56.12365938307617L213.9675056385994,54.480731877960935L214.12407813906668,53.463860303157716L214.2359156394005,52.717975459327135L214.54906064033509,50.52577270275147L214.7503681409359,49.13535782097071L215.08588064193725,46.81273399764112L215.3319231426716,45.059724349120586L215.48849564313886,43.75577061174607L215.51086314320563,43.563072988333005L215.71217064380645,41.65898011498683L216.56213564634322,32.21406150470361L216.6292381465435,31.46060136505372L216.673973146677,30.969085672198247L216.74107564687728,30.217291434583018L216.76344314694404,29.96794485392138L216.85291314721107,29.054110563172856L217.5686731493473,23.959906462205566L217.8818181502819,22.556479310800796L218.48574065208433,20.363058207960933L218.6199456524849,20.08028584169824L218.70941565275191,20.006157345190445L219.11203065395355,20.97151856603614L219.22386815428735,21.332928138791004L219.5593806552887,22.197539582853523L219.62648315548898,22.409763898772468L219.69358565568925,22.564933142021488L220.16330315709115,24.173556326134275L220.40934565782547,24.7431787890132L220.70012315869332,25.587451309727044L220.72249065876008,25.607152051699217L220.94616565942766,26.06419766215575L221.01326815962793,26.240584364154785L221.10273815989493,26.553144053365713L221.48298566102983,27.67710577836769L221.52772066116333,27.744413193410168L221.5948231613636,27.9035275578955L222.06454066276552,28.9482138950288L222.10927566289902,29.12005873476417L222.2211131632328,29.472276838083985L222.46715566396713,30.581394630030758L222.6460956645012,31.77035968666405L222.73556566476822,32.40284715915968L223.1158131659031,34.94565184543944L223.25001816630362,35.926031048806635L223.4736931669712,37.419889330063484L223.51842816710473,37.692127559579575L223.6526331675053,38.42789267015479L223.76447066783905,38.86332299450976L223.8763081681728,39.488533541699724L223.9434106683731,39.793808017535156L224.27892316937448,41.67737134192677L224.30129066944122,41.778701283597655L224.90521317124367,44.59184623140382L225.08415317177773,45.243769227637216L225.3078281724453,46.45093488560448L225.55387067317963,47.869255698483386L226.0235881745815,50.66371933690576L226.4038356757164,52.50961338394629L226.42620317578317,52.56681764187306L227.14196317791937,55.8265237918081L227.16433067798616,55.925118670437L227.29853567838668,56.57261583738428L228.46164568185804,63.975776734541014L228.5063806819916,64.22794125894288L228.66295318245886,65.30036776577782L228.73005568265913,65.7088287109248L228.88662818312645,66.48771664879541L229.49055068492888,68.52201509908008L229.9602681863308,69.10203908958839L230.18394318699836,69.3933730319795L230.54182318806647,69.74057685305567L230.5865581882,69.76009525749171L230.6312931883335,69.77555250771387L230.7431306886673,69.80122894802929L231.4588906908035,69.09854981219239L231.5707281911373,68.88032493372071L231.81677069187165,68.12522375624562L231.83913819193842,68.04534333927978L231.86150569200515,67.98374640434619L231.92860819220542,67.73088568207909L232.28648819327353,66.26196620292335L232.89041069507599,63.79948948937988L232.95751319527625,63.50139248201221L233.40486319661142,61.530149666950194L233.53906819701194,60.93920200041357L233.5614356970787,60.82794295109326L234.14299069881437,58.266631004896L234.2995631992817,57.549953319125976L234.456135699749,56.83430335401415L235.19426320195197,52.89814980923583L235.26136570215223,52.54466363123291L235.68634820342064,50.19342939087012L235.7087157034874,50.08636410488086L235.91002320408822,49.03044743313575L236.0665957045555,48.212605567091316L236.1336982047558,47.838390926458004L236.29027070522307,47.028306693769025L236.35737320542336,46.683150025939455L236.78235570669173,44.565340984105944L236.849458206892,44.24460096997851L237.09550070762634,43.109259725107904L237.34154320836066,42.13643924142042L237.56521820902825,41.42129484856787L237.60995320916174,41.27152942684424L237.6323207092285,41.2057801689287L237.69942320942877,40.99810600334325L238.23624321103094,39.404683139288096L238.34808071136476,39.113183435500474L238.3704482114315,39.0326233968091L238.45991821169852,38.8019747016709L238.88490071296692,37.56076994093553L238.9072682130337,37.50889491190577L239.1085757136345,36.85053208541893L239.28751571416853,36.23036897275196L239.55592571496962,35.222987237897456L240.38352321743963,32.20522642227098L240.45062571763992,31.994684584526368L240.6519332182407,31.46600518657911L240.67430071830748,31.407698615365717L240.80850571870803,31.08335329086475L240.85324071884156,30.977042219229503L241.05454821944238,30.539142050066886L241.83741072177887,28.709185961298346L241.94924822211266,28.589638842153818L242.46370072364806,27.837687131211908L242.53080322384832,27.713714182781246L242.59790572404862,27.582828984117185L242.7992132246494,27.13840610400291L243.42550322651863,26.12708753598193L243.96232322812082,25.926914073587398L244.18599822878835,25.93994291935107L245.41621073246003,26.893228422462897L245.55041573286059,27.088677685057604L245.63988573312758,27.19387815533642L245.70698823332788,27.284624231841804L245.9530307340622,27.633916646513683L246.02013323426246,27.732826471795903" fill="none"></path></g></g></g></g></g></g><g transform="translate(61, 178)" clip-path="url(#clip_1)"><clipPath id="clip_1"><rect width="268" height="21"></rect></clipPath><g><g><line x1="0" y1="0" x2="0" y2="5" style="visibility: inherit;" fill="rgb(0, 0, 0)" stroke="rgb(204, 204, 204)" stroke-width="1px"></line><line x1="22.367500066757202" y1="0" x2="22.367500066757202" y2="5" style="visibility: inherit;" fill="rgb(0, 0, 0)" stroke="rgb(204, 204, 204)" stroke-width="1px"></line><line x1="44.735000133514404" y1="0" x2="44.735000133514404" y2="5" style="visibility: inherit;" fill="rgb(0, 0, 0)" stroke="rgb(204, 204, 204)" stroke-width="1px"></line><line x1="67.1025002002716" y1="0" x2="67.1025002002716" y2="5" style="visibility: inherit;" fill="rgb(0, 0, 0)" stroke="rgb(204, 204, 204)" stroke-width="1px"></line><line x1="89.47000026702881" y1="0" x2="89.47000026702881" y2="5" style="visibility: inherit;" fill="rgb(0, 0, 0)" stroke="rgb(204, 204, 204)" stroke-width="1px"></line><line x1="111.83750033378601" y1="0" x2="111.83750033378601" y2="5" style="visibility: inherit;" fill="rgb(0, 0, 0)" stroke="rgb(204, 204, 204)" stroke-width="1px"></line><line x1="134.2050004005432" y1="0" x2="134.2050004005432" y2="5" style="visibility: inherit;" fill="rgb(0, 0, 0)" stroke="rgb(204, 204, 204)" stroke-width="1px"></line><line x1="156.57250046730042" y1="0" x2="156.57250046730042" y2="5" style="visibility: inherit;" fill="rgb(0, 0, 0)" stroke="rgb(204, 204, 204)" stroke-width="1px"></line><line x1="178.94000053405762" y1="0" x2="178.94000053405762" y2="5" style="visibility: inherit;" fill="rgb(0, 0, 0)" stroke="rgb(204, 204, 204)" stroke-width="1px"></line><line x1="201.30750060081482" y1="0" x2="201.30750060081482" y2="5" style="visibility: inherit;" fill="rgb(0, 0, 0)" stroke="rgb(204, 204, 204)" stroke-width="1px"></line><line x1="223.67500066757202" y1="0" x2="223.67500066757202" y2="5" style="visibility: inherit;" fill="rgb(0, 0, 0)" stroke="rgb(204, 204, 204)" stroke-width="1px"></line><line x1="246.04250073432922" y1="0" x2="246.04250073432922" y2="5" style="visibility: inherit;" fill="rgb(0, 0, 0)" stroke="rgb(204, 204, 204)" stroke-width="1px"></line><line x1="268.4100008010864" y1="0" x2="268.4100008010864" y2="5" style="visibility: inherit;" fill="rgb(0, 0, 0)" stroke="rgb(204, 204, 204)" stroke-width="1px"></line></g><g transform="translate(0, 8)"><text style="text-anchor: middle; visibility: hidden; font-family: &quot;Helvetica Neue&quot;, sans-serif; font-size: 12px; font-weight: 200;" x="0" y="0" dx="0em" dy="0.95em" fill="rgb(50, 49, 63)" stroke="none" stroke-width="1px">-1k</text><text style="text-anchor: middle; visibility: inherit; font-family: &quot;Helvetica Neue&quot;, sans-serif; font-size: 12px; font-weight: 200;" x="22.367500066757202" y="0" dx="0em" dy="0.95em" fill="rgb(50, 49, 63)" stroke="none" stroke-width="1px">0</text><text style="text-anchor: middle; visibility: hidden; font-family: &quot;Helvetica Neue&quot;, sans-serif; font-size: 12px; font-weight: 200;" x="44.735000133514404" y="0" dx="0em" dy="0.95em" fill="rgb(50, 49, 63)" stroke="none" stroke-width="1px">1k</text><text style="text-anchor: middle; visibility: inherit; font-family: &quot;Helvetica Neue&quot;, sans-serif; font-size: 12px; font-weight: 200;" x="67.1025002002716" y="0" dx="0em" dy="0.95em" fill="rgb(50, 49, 63)" stroke="none" stroke-width="1px">2k</text><text style="text-anchor: middle; visibility: hidden; font-family: &quot;Helvetica Neue&quot;, sans-serif; font-size: 12px; font-weight: 200;" x="89.47000026702881" y="0" dx="0em" dy="0.95em" fill="rgb(50, 49, 63)" stroke="none" stroke-width="1px">3k</text><text style="text-anchor: middle; visibility: inherit; font-family: &quot;Helvetica Neue&quot;, sans-serif; font-size: 12px; font-weight: 200;" x="111.83750033378601" y="0" dx="0em" dy="0.95em" fill="rgb(50, 49, 63)" stroke="none" stroke-width="1px">4k</text><text style="text-anchor: middle; visibility: hidden; font-family: &quot;Helvetica Neue&quot;, sans-serif; font-size: 12px; font-weight: 200;" x="134.2050004005432" y="0" dx="0em" dy="0.95em" fill="rgb(50, 49, 63)" stroke="none" stroke-width="1px">5k</text><text style="text-anchor: middle; visibility: inherit; font-family: &quot;Helvetica Neue&quot;, sans-serif; font-size: 12px; font-weight: 200;" x="156.57250046730042" y="0" dx="0em" dy="0.95em" fill="rgb(50, 49, 63)" stroke="none" stroke-width="1px">6k</text><text style="text-anchor: middle; visibility: hidden; font-family: &quot;Helvetica Neue&quot;, sans-serif; font-size: 12px; font-weight: 200;" x="178.94000053405762" y="0" dx="0em" dy="0.95em" fill="rgb(50, 49, 63)" stroke="none" stroke-width="1px">7k</text><text style="text-anchor: middle; visibility: inherit; font-family: &quot;Helvetica Neue&quot;, sans-serif; font-size: 12px; font-weight: 200;" x="201.30750060081482" y="0" dx="0em" dy="0.95em" fill="rgb(50, 49, 63)" stroke="none" stroke-width="1px">8k</text><text style="text-anchor: middle; visibility: hidden; font-family: &quot;Helvetica Neue&quot;, sans-serif; font-size: 12px; font-weight: 200;" x="223.67500066757202" y="0" dx="0em" dy="0.95em" fill="rgb(50, 49, 63)" stroke="none" stroke-width="1px">9k</text><text style="text-anchor: middle; visibility: inherit; font-family: &quot;Helvetica Neue&quot;, sans-serif; font-size: 12px; font-weight: 200;" x="246.04250073432922" y="0" dx="0em" dy="0.95em" fill="rgb(50, 49, 63)" stroke="none" stroke-width="1px">10k</text><text style="text-anchor: middle; visibility: hidden; font-family: &quot;Helvetica Neue&quot;, sans-serif; font-size: 12px; font-weight: 200;" x="268.4100008010864" y="0" dx="0em" dy="0.95em" fill="rgb(50, 49, 63)" stroke="none" stroke-width="1px">11k</text></g><line x1="0" y1="0" x2="268.4100008010864" y2="0" fill="rgb(0, 0, 0)" stroke="rgb(204, 204, 204)" stroke-width="1px"></line></g></g></g></g></svg>