<svg viewBox="0 0 330 200" xmlns="http://www.w3.org/2000/svg"><g><g><g><g><g><line x1="51.27199935913086" y1="178.0640001296997" x2="46.27199935913086" y2="178.0640001296997" style="visibility: inherit;" fill="rgb(0, 0, 0)" stroke="rgb(204, 204, 204)" stroke-width="1px"></line><line x1="51.27199935913086" y1="152.6262858254569" x2="46.27199935913086" y2="152.6262858254569" style="visibility: inherit;" fill="rgb(0, 0, 0)" stroke="rgb(204, 204, 204)" stroke-width="1px"></line><line x1="51.27199935913086" y1="127.18857152121407" x2="46.27199935913086" y2="127.18857152121407" style="visibility: inherit;" fill="rgb(0, 0, 0)" stroke="rgb(204, 204, 204)" stroke-width="1px"></line><line x1="51.27199935913086" y1="101.75085721697127" x2="46.27199935913086" y2="101.75085721697127" style="visibility: inherit;" fill="rgb(0, 0, 0)" stroke="rgb(204, 204, 204)" stroke-width="1px"></line><line x1="51.27199935913086" y1="76.31314291272845" x2="46.27199935913086" y2="76.31314291272845" style="visibility: inherit;" fill="rgb(0, 0, 0)" stroke="rgb(204, 204, 204)" stroke-width="1px"></line><line x1="51.27199935913086" y1="50.875428608485635" x2="46.27199935913086" y2="50.875428608485635" style="visibility: inherit;" fill="rgb(0, 0, 0)" stroke="rgb(204, 204, 204)" stroke-width="1px"></line><line x1="51.27199935913086" y1="25.43771430424283" x2="46.27199935913086" y2="25.43771430424283" style="visibility: inherit;" fill="rgb(0, 0, 0)" stroke="rgb(204, 204, 204)" stroke-width="1px"></line><line x1="51.27199935913086" y1="0" x2="46.27199935913086" y2="0" style="visibility: inherit;" fill="rgb(0, 0, 0)" stroke="rgb(204, 204, 204)" stroke-width="1px"></line></g><g transform="translate(41.27199935913086, 0)"><text style="text-anchor: end; visibility: hidden; font-family: &quot;Helvetica Neue&quot;, sans-serif; font-size: 12px; font-weight: 200;" x="0" y="178.0640001296997" dx="0em" dy="0.3em" fill="rgb(50, 49, 63)" stroke="none" stroke-width="1px">-0.5</text><text style="text-anchor: end; visibility: inherit; font-family: &quot;Helvetica Neue&quot;, sans-serif; font-size: 12px; font-weight: 200;" x="0" y="152.6262858254569" dx="0em" dy="0.3em" fill="rgb(50, 49, 63)" stroke="none" stroke-width="1px">0</text><text style="text-anchor: end; visibility: inherit; font-family: &quot;Helvetica Neue&quot;, sans-serif; font-size: 12px; font-weight: 200;" x="0" y="127.18857152121407" dx="0em" dy="0.3em" fill="rgb(50, 49, 63)" stroke="none" stroke-width="1px">0.5</text><text style="text-anchor: end; visibility: inherit; font-family: &quot;Helvetica Neue&quot;, sans-serif; font-size: 12px; font-weight: 200;" x="0" y="101.75085721697127" dx="0em" dy="0.3em" fill="rgb(50, 49, 63)" stroke="none" stroke-width="1px">1</text><text style="text-anchor: end; visibility: inherit; font-family: &quot;Helvetica Neue&quot;, sans-serif; font-size: 12px; font-weight: 200;" x="0" y="76.31314291272845" dx="0em" dy="0.3em" fill="rgb(50, 49, 63)" stroke="none" stroke-width="1px">1.5</text><text style="text-anchor: end; visibility: inherit; font-family: &quot;Helvetica Neue&quot;, sans-serif; font-size: 12px; font-weight: 200;" x="0" y="50.875428608485635" dx="0em" dy="0.3em" fill="rgb(50, 49, 63)" stroke="none" stroke-width="1px">2</text><text style="text-anchor: end; visibility: inherit; font-family: &quot;Helvetica Neue&quot;, sans-serif; font-size: 12px; font-weight: 200;" x="0" y="25.43771430424283" dx="0em" dy="0.3em" fill="rgb(50, 49, 63)" stroke="none" stroke-width="1px">2.5</text><text style="text-anchor: end; visibility: hidden; font-family: &quot;Helvetica Neue&quot;, sans-serif; font-size: 12px; font-weight: 200;" x="0" y="0" dx="0em" dy="0.3em" fill="rgb(50, 49, 63)" stroke="none" stroke-width="1px">3</text></g><line x1="51.27199935913086" y1="0" x2="51.27199935913086" y2="178.0640001296997" fill="rgb(0, 0, 0)" stroke="rgb(204, 204, 204)" stroke-width="1px"></line></g></g><g transform="translate(51, 0)" clip-path="url(#clip_0)"><clipPath id="clip_0"><rect width="278" height="178"></rect></clipPath><g><g><g><line x1="0" y1="0" x2="0" y2="178.0640001296997" fill="rgb(0, 0, 0)" stroke="rgb(60, 60, 60)" stroke-width="1px" opacity="0.25"></line><line x1="23.227333386739094" y1="0" x2="23.227333386739094" y2="178.0640001296997" fill="rgb(0, 0, 0)" stroke="rgb(60, 60, 60)" stroke-width="1px" opacity="0.25"></line><line x1="46.45466677347819" y1="0" x2="46.45466677347819" y2="178.0640001296997" fill="rgb(0, 0, 0)" stroke="rgb(60, 60, 60)" stroke-width="1px" opacity="0.25"></line><line x1="69.68200016021729" y1="0" x2="69.68200016021729" y2="178.0640001296997" fill="rgb(0, 0, 0)" stroke="rgb(60, 60, 60)" stroke-width="1px" opacity="0.25"></line><line x1="92.90933354695638" y1="0" x2="92.90933354695638" y2="178.0640001296997" fill="rgb(0, 0, 0)" stroke="rgb(60, 60, 60)" stroke-width="1px" opacity="0.25"></line><line x1="116.13666693369548" y1="0" x2="116.13666693369548" y2="178.0640001296997" fill="rgb(0, 0, 0)" stroke="rgb(60, 60, 60)" stroke-width="1px" opacity="0.25"></line><line x1="139.36400032043457" y1="0" x2="139.36400032043457" y2="178.0640001296997" fill="rgb(0, 0, 0)" stroke="rgb(60, 60, 60)" stroke-width="1px" opacity="0.25"></line><line x1="162.59133370717367" y1="0" x2="162.59133370717367" y2="178.0640001296997" fill="rgb(0, 0, 0)" stroke="rgb(60, 60, 60)" stroke-width="1px" opacity="0.25"></line><line x1="185.81866709391275" y1="0" x2="185.81866709391275" y2="178.0640001296997" fill="rgb(0, 0, 0)" stroke="rgb(60, 60, 60)" stroke-width="1px" opacity="0.25"></line><line x1="209.04600048065186" y1="0" x2="209.04600048065186" y2="178.0640001296997" fill="rgb(0, 0, 0)" stroke="rgb(60, 60, 60)" stroke-width="1px" opacity="0.25"></line><line x1="232.27333386739096" y1="0" x2="232.27333386739096" y2="178.0640001296997" fill="rgb(0, 0, 0)" stroke="rgb(60, 60, 60)" stroke-width="1px" opacity="0.25"></line><line x1="255.50066725413004" y1="0" x2="255.50066725413004" y2="178.0640001296997" fill="rgb(0, 0, 0)" stroke="rgb(60, 60, 60)" stroke-width="1px" opacity="0.25"></line><line x1="278.72800064086914" y1="0" x2="278.72800064086914" y2="178.0640001296997" fill="rgb(0, 0, 0)" stroke="rgb(60, 60, 60)" stroke-width="1px" opacity="0.25"></line></g><g><line x1="0" y1="178.0640001296997" x2="278.72800064086914" y2="178.0640001296997" fill="rgb(0, 0, 0)" stroke="rgb(60, 60, 60)" stroke-width="1px" opacity="0.25"></line><line x1="0" y1="152.6262858254569" x2="278.72800064086914" y2="152.6262858254569" fill="rgb(0, 0, 0)" stroke="rgb(60, 60, 60)" stroke-width="1px" opacity="0.25"></line><line x1="0" y1="127.18857152121407" x2="278.72800064086914" y2="127.18857152121407" fill="rgb(0, 0, 0)" stroke="rgb(60, 60, 60)" stroke-width="1px" opacity="0.25"></line><line x1="0" y1="101.75085721697127" x2="278.72800064086914" y2="101.75085721697127" fill="rgb(0, 0, 0)" stroke="rgb(60, 60, 60)" stroke-width="1px" opacity="0.25"></line><line x1="0" y1="76.31314291272845" x2="278.72800064086914" y2="76.31314291272845" fill="rgb(0, 0, 0)" stroke="rgb(60, 60, 60)" stroke-width="1px" opacity="0.25"></line><line x1="0" y1="50.875428608485635" x2="278.72800064086914" y2="50.875428608485635" fill="rgb(0, 0, 0)" stroke="rgb(60, 60, 60)" stroke-width="1px" opacity="0.25"></line><line x1="0" y1="25.43771430424283" x2="278.72800064086914" y2="25.43771430424283" fill="rgb(0, 0, 0)" stroke="rgb(60, 60, 60)" stroke-width="1px" opacity="0.25"></line><line x1="0" y1="0" x2="278.72800064086914" y2="0" fill="rgb(0, 0, 0)" stroke="rgb(60, 60, 60)" stroke-width="1px" opacity="0.25"></line></g></g></g><g><g><line x1="0" y1="152.6262858254569" x2="278.72800064086914" y2="152.6262858254569" fill="rgb(0, 0, 0)" stroke="rgb(153, 153, 153)" stroke-width="1.5px"></line></g></g><g><g><line x1="23.227333386739094" y1="0" x2="23.227333386739094" y2="178.0640001296997" fill="rgb(0, 0, 0)" stroke="rgb(153, 153, 153)" stroke-width="1.5px"></line></g></g><g><g><g><g><g><path style="fill: none;" stroke="rgb(255, 112, 67)" stroke-width="2px" d="M23.6454253877004,151.47765616668755L23.784789388020833,151.3472953872348L24.15642672220866,151.74247006981722L24.202881388982135,151.87094726555011L24.272563389142356,149.7016658645505L24.528064056396484,150.32294750753758L24.87647405719757,151.089889139805L24.946156057357786,151.32262357177603L25.41070272509257,150.95190953148582L25.689430725733438,150.3322768773752L26.15397739346822,151.03246818588994L26.827570061683655,144.34252102941298L26.897252061843872,147.50699797847335L27.106298062324523,147.26684673988836L27.477935396512347,147.61351899229817L27.52439006328583,148.7137062766056L28.546392732302348,142.89300092901382L28.662529399236043,146.21070717770272L29.01093940003713,144.64807337201805L29.150303400357565,147.2686359152689L29.26644006729126,139.9588527875687L29.429031400998433,142.4042908400425L29.568395401318867,144.7001402400817L30.381352069854735,113.73071975035657L30.427806736628213,125.66948788015162L30.61362540372213,125.30919790579635L31.10139940484365,135.00340753059004L31.287218071937563,140.79708021984698L31.751764739672343,143.2224100624736L33.00604074255625,127.18779004292585L33.029268075942994,122.34478351657077L33.42413274351756,127.56885924079509L33.493814743677774,117.98411369093023L33.563496743837995,126.41826865672456L33.91190674463908,88.18719523949179L33.981588744799296,108.86670710079103L34.00481607818603,90.60024225797179L34.23708941205343,111.54468883968491L34.678408746401466,125.04871527170067L35.166182747522996,133.27647919129572L35.561047415097555,92.1638199448243L35.67718408203125,59.43622412448207L36.30432208347321,77.04150258416672L36.53659541734059,86.49527512381997L36.67595941766103,109.3628442961375L36.8385507513682,124.37239357194855L36.861778084754945,107.0897158735069L37.628280086517336,122.6158108440745L37.67473475329081,83.43826951960985L37.95346275393168,110.45973838534279L38.11605408763886,113.54004271949077L38.13928142102559,107.82490983199965L38.18573608779908,121.5044663842469L38.25541808795929,131.1382383839474L38.30187275473276,103.12382592975379L38.58060075537364,107.93310910981796L38.812874089241035,124.66530545067639L39.81164942487081,95.90694580517702L39.99746809196472,114.48183860263569L40.18328675905863,120.34289852151494L40.392332759539286,128.71694183681166L40.69428809356689,136.8484055121756L40.78719742711385,127.30607330968687L40.99624342759451,135.97282024452429L41.08915276114146,121.73751436245936L41.13560742791494,132.0022797469097L41.18206209468841,134.71022472625918L41.344653428395596,137.31725298625182L41.46079009532928,115.10458092302775L41.507244762102765,128.45095717551104L41.62338142903646,108.8025373123414L41.669836095809934,120.4281467533525L41.7627454293569,112.10978584540929L41.85565476290385,125.67834369713466L41.99501876322429,105.9299441947893L42.01824609661102,75.24856919960065L42.55247476450602,86.90682819633795L42.64538409805298,110.14678079668846L43.41188609981537,126.31481630273588L43.57447743352254,123.93270966599569L43.71384143384297,117.6592854111491L44.039024101257326,125.48001813594468L44.13193343480428,135.43061056622702L44.29452476851146,115.79840579404168L44.34097943528493,102.15566827483215L44.52679810237885,93.44968087135203L44.851980769793194,92.62990004767987L44.875208103179936,116.39988009915228L45.10748143704732,130.29328324571637L45.17716343720754,131.88993861263125L45.386209437688194,135.3161210043255L45.572028104782106,141.0482562143326L45.78107410526276,126.14974475256057L45.804301438649496,135.27261350132108L45.94366543896993,137.69428955005L45.966892772356665,138.08635798145605L46.083029439290364,125.98252903254365L46.501121440251666,122.88610569228388L46.570803440411886,109.98392389666235L46.77984944089254,98.09516087274342L47.47666944249471,111.88191745236836L47.778624776522314,127.35549536441926L47.917988776842755,131.8171713920354L47.98767077700297,127.24089227578932L48.03412544377645,134.07014868334795L48.1270347773234,125.32614519831613L48.266398777643836,133.2506813152527L48.382535444577535,135.64579538498245L48.614808778444925,129.50519654006825L48.75417277876536,134.89469986231705L48.87030944569906,137.98017604823218L49.10258277956645,141.37651698978033L50.07813078180949,145.27074797959403L50.17104011535644,115.23446293282882L50.19426744874319,120.24037809026791L50.217494782129926,127.99848757163701L50.63558678309123,136.54835027811782L50.93754211711883,97.17093586723404L51.23949745114644,117.31454517186963L51.84340811920166,126.49418008212265L52.12213611984253,135.40171348820604L52.37763678709666,133.56999601608408L52.44731878725688,126.86578754323708L52.517000787417096,134.55022197177487L52.981547455151876,141.1287659957168L53.12091145547231,110.82925729997672L53.28350278917949,102.49408793107295L53.42286678949992,111.25694358555558L53.794504123687744,84.21720495756256L53.864186123847965,72.58539641567718L54.11968679110209,93.24318767775483L54.189368791262304,70.95802030365759L54.259050791422524,99.87993489792326L54.28227812480927,13.618937020222518L55.397190127372745,51.48304109129387L55.46687212753296,83.24270132592696L55.53655412769318,96.11843483860912L55.559781461079915,118.21945278649315L56.07078279558817,124.02974657367876L56.34951079622904,-79.25917586506466L56.58178413009644,-2.4852461005289967L56.67469346364339,57.17423434916813L57.25537679831187,21.66722379906136L57.27860413169861,49.14348858236565L57.53410479895274,62.89554029921655L57.71992346604665,77.02178545496173L57.81283279959361,60.6830176942136L57.859287466367086,76.33373234731205L58.60256213474273,102.8044292110157L58.695471468289696,112.2412209301349L59.276154802958175,121.15105150672717L59.64779213714599,127.08501638551836L59.671019470532734,130.09129057971256L60.019429471333815,136.39910399807042L60.11233880488078,139.53101718302327L60.4839761390686,143.21233731179117L60.50720347245534,141.27579130787427L61.0182048069636,137.92265321291114L61.134341473897294,141.34465316168283L61.25047814083099,138.96122748065986L61.32016014099121,137.25511827872802L61.43629680792491,129.84313924567218L61.505978808085125,125.59908096602308L61.78470680872599,102.3705625222795L61.970525475819905,120.28620103701573L62.13311680952708,118.28138893386263L62.29570814323426,130.8262163643932L62.504754143714905,102.98322937892662L62.59766347726186,115.61537350678701L62.64411814403534,129.58959453924356L62.69057281080882,134.27885699095714L62.76025481096903,135.9035862041036L62.92284614467621,130.8589582419524L63.13189214515686,133.40269231548388L63.36416547902425,116.97261212421567L63.45707481257121,121.83086417586809L63.503529479344685,90.16075009492283L63.573211479504906,108.9067423468289L63.689348146438604,121.4048082174588L63.75903014659882,129.32932558569294L63.78225747998555,137.2938063479563L64.24680414772034,141.91651845643273L64.455850148201,106.48786763106281L64.59521414852142,98.3752485227607L64.7578054822286,74.74595329337245L64.78103281561533,-13.219844798624251L64.99007881609599,52.42648544917628L65.15267014980317,89.18557954242414L65.64044415092468,106.48779562034552L65.73335348447164,92.12544088241319L65.96562681833903,115.03525897360025L66.05853615188599,103.25624579911123L66.26758215236663,109.57453575496737L66.56953748639425,112.49013490898706L66.63921948655447,126.10406291306649L66.77858348687491,101.56995512925074L66.82503815364838,105.35585846037358L67.61476748879751,102.4461148312324L67.75413148911794,121.86733129102471L68.1489961566925,112.84932186786652L68.38126949055989,123.8006130322795L68.45095149072012,129.18778886728094L68.49740615749359,93.15332964192426L68.9154981584549,90.29838550661817L69.24068082586925,99.72404754764689L69.28713549264272,112.59901575661387L69.70522749360403,115.7736674137391L69.79813682715098,124.96716231772042L69.9839554942449,106.30835284296434L70.37882016181946,68.44087011937843L70.51818416213989,90.59681662903758L71.07564016342164,107.31986585081853L71.37759549744924,116.81804105746676L71.44727749760946,117.17346897343147L71.4705048309962,129.65510732975147L71.51695949776968,99.04470638415552L71.56341416454315,110.38584208458906L71.6563234980901,97.40024021041577L71.74923283163707,90.89755708498453L71.91182416534424,114.85116240523513L72.26023416614532,97.56237773374242L73.04996350129446,116.68658025686295L73.14287283484141,128.20100618799304L73.30546416854858,131.84410139537303L73.51451016902924,139.16472604011327L73.7932381696701,131.9991325028965L74.0255115035375,135.78334851728437L74.07196617031097,120.87256948474794L74.11842083708446,129.78017765730183L74.23455750401814,137.9656867136647L74.30423950417837,93.67305806187301L74.49005817127228,105.44836442665157L74.58296750481924,118.59787156668801L75.04751417255402,98.91745740389649L75.16365083948772,109.93216059270202L75.18687817287444,82.09820948121589L75.23333283964794,106.98342580821372L75.30301483980814,118.27303956112148L75.39592417335511,-64.88498610174486L75.41915150674184,16.139218352210122L75.58174284044901,45.64750373693238L75.65142484060922,78.23166962745523L75.76756150754292,101.96356913952864L76.20888084189096,104.77356799154143L76.44115417575836,36.72789465249187L76.5805181760788,52.491969502146176L76.71988217639922,90.87253641124738L76.8127915099462,105.09252281186161L77.09151951058706,108.34247410828706L77.11474684397379,121.2786413424434L77.69543017864227,75.9226592061322L77.90447617912294,103.97077250055368L78.71743284765878,102.58240991328037L78.74066018104553,119.75805454752283L78.78711484781901,122.84079456837912L79.80911751683553,106.33301961714095L79.99493618392944,121.1434003270894L80.15752751763662,131.04216653507544L80.2039821844101,126.84460987895815L80.25043685118357,127.79593861691501L80.36657351811726,135.76155735425968L80.94725685278574,139.49065593644985L80.97048418617248,135.63931562146283L81.20275752003988,133.7736282512501L81.24921218681335,132.00104765924368L81.36534885374705,137.10585439646695L81.69053152116139,138.30951791173237L81.82989552148183,143.3406835003573L82.03894152196249,136.3105106616501L82.38735152276357,139.71870473077516L82.48026085631052,77.50533031153599L82.526715523084,105.79750999512768L83.10739885775249,112.41854504792173L83.38612685839335,100.00136090125199L83.61840019226074,100.6723102741635L83.75776419258118,114.36632008796153L84.15262886015574,126.11411452485703L84.29199286047617,128.5149207526898L84.31522019386291,134.01850340957438L84.64040286127725,59.58355619927525L84.7797668615977,92.27121240238068L84.89590352853139,112.9243458037662L85.43013219642638,127.58352462981696L85.59272353013355,131.63935014309413L85.70886019706725,135.40939340683852L86.01081553109486,127.06766674917122L86.17340686480203,135.0542347032673L86.52181686560313,128.28105808910703L86.800544866244,136.38893215411417L86.87022686640421,126.01431663033961L87.19540953381856,134.3700256041059L88.00836620235442,136.69628089531068L88.03159353574118,141.10464427065756L88.05482086912791,125.9978593420491L88.47291287008922,134.1089465367184L88.8213228708903,45.82222161296647L89.93623487345377,79.88776944981718L90.14528087393444,99.56597005536491L90.35432687441508,102.09178639560204L90.4936908747355,111.61878458505281L90.98146487585704,126.44688439892585L91.02791954263051,131.9878262503335L91.05114687601726,134.42685250364525L92.14283154519399,140.78449478523277L92.3286502122879,140.13773648099664L92.8628788801829,97.76455908126812L93.07192488066354,115.73582958736361L93.1648342142105,104.59097193290168L93.25774354775747,119.12363611983315L93.53647154839834,131.79272302925182L93.60615354855855,131.76167915273223L93.79197221565248,109.28892126400868L93.86165421581268,89.60593717074667L94.41911021709441,101.44186208813107L94.51201955064138,116.73705086661676L94.55847421741485,123.35759349934736L95.20883955224356,-59.02995688966851L95.74306822013855,24.480579167859048L96.09147822093963,68.58628834748005L96.27729688803355,101.4397786608031L96.39343355496725,119.22669304280387L96.50957022190094,109.98764823284043L96.64893422222137,123.48332922366598L97.02057155640921,120.11922930208428L97.4386635573705,132.1137507878223L97.46189089075725,134.91229045163283L97.62448222446442,134.1362456483754L97.69416422462463,56.73271289209504L98.25162022590636,92.53826772731111L98.32130222606659,113.87655612427844L98.48389355977376,93.59781143955682L98.55357555993399,103.58122575619934L98.57680289332072,120.0901321664284L98.6232575600942,115.4124937104497L98.64648489348093,51.910663975308296L99.22716822814941,90.12219854041696L99.43621422863006,114.8182366919074L99.99367022991181,111.50516374287429L100.17948889700571,123.1733161096307L100.50467156442006,132.43879435317623L100.5278988978068,139.13266653211537L100.92276356538136,101.28046396116581L101.5963562335968,113.860056778517L101.64281090037028,128.33673344876064L101.87508423423766,137.52876900881L102.26994890181224,126.60786499967438L102.38608556874594,135.36916088023503L102.89708690325419,120.0302572918389L103.0829055703481,128.46214945193296L103.33840623760224,123.91873961045604L103.38486090437571,99.05443514256095L103.54745223808288,109.1814419508484L103.68681623840332,-0.7706237092064896L103.8494075721105,55.49839813873669L103.98877157243092,92.85402212079524L104.05845357259115,105.5362681644419L104.45331824016571,120.73982973588268L104.73204624080657,132.6049132875446L104.8017282409668,62.53728484410637L104.96431957467397,94.19808257971138L105.3359569088618,96.78137523764116L105.38241157563527,84.79390986991052L105.5217755759557,110.32383364669052L105.61468490950267,125.0324729668485L105.98632224369048,133.7008620653446L106.38118691126505,138.93714337006315L106.84573357899984,142.07318332042726L107.26382557996115,77.3869939630611L107.31028024673462,99.69280430940317L107.35673491350809,119.96161284404727L107.42641691366832,132.5362344630377L107.49609891382853,109.25308573535851L107.8909635814031,123.88073550170002L108.14646424865722,129.43847355317365L108.47164691607158,46.48254459939213L109.16846691767374,87.03068205873915L109.21492158444723,111.69648580804223L109.77237758572896,70.1955291772208L109.86528691927592,99.34878960953066L109.91174158604939,89.1971833168196L110.05110558636983,112.06564020625662L110.12078758653006,112.46019915172228L110.16724225330353,122.2721564128017L110.37628825378418,127.79636744602782L110.53887958749135,82.34394265758716L110.84083492151896,57.64622429588405L111.02665358861287,91.89525744723844L111.32860892264047,115.4644430451072L111.37506358941397,113.27114663881025L111.44474558957417,122.42546102329189L111.816382923762,103.27940134447377L111.9325195906957,104.0696081172755L111.97897425746918,86.03234007959115L112.21124759133657,102.24650966280821L112.30415692488351,78.62430329344056L112.97774959309895,72.6923980458074L113.09388626003265,97.43949617248846L113.25647759373983,117.9913802887813L114.27848026275635,122.14745773087171L114.46429892985026,83.09855501065881L114.62689026355744,95.58674168424271L114.7197995971044,18.843412964325353L114.97530026435851,60.46910859136074L115.11466426467895,95.96387276423634L115.25402826499938,92.18050814833651L115.76502959950766,107.87248001786084L116.02053026676178,122.38478720890527L116.13666693369548,117.0401921312994L116.34571293417612,119.10230040567308L116.36894026756286,129.44884929907334L116.64766826820373,124.47434753021017L116.90316893545787,106.37182282997273L116.97285093561808,108.90627725579816L117.20512426948547,124.99202733764123L118.29680893866221,95.8753418446037L118.41294560559591,83.67675158642558L118.43617293898265,65.55089428447837L118.66844627285005,26.321334474680867L120.364041610082,10.984904418837885L120.61954227733612,59.4050073175555L120.64276961072287,16.71342813947541L120.68922427749634,63.39112940518105L120.73567894426981,92.38412702635021L120.80536094443003,112.99345218893316L120.82858827781678,127.06680263215858L121.40927161248524,77.19191927006938L121.52540827941894,104.95340986049361L121.59509027957917,99.29763981983922L121.78090894667308,96.25954977904281L122.0364096139272,113.10778618711664L122.24545561440786,125.36352309144809L122.31513761456809,132.80841762034294L122.33836494795482,110.53543808399567L122.6867749487559,65.21588808283374L123.05841228294372,92.80764627718726L123.19777628326416,114.17330085493427L123.29068561681112,111.16784524860445L123.49973161729177,119.9582966179737L123.54618628406524,129.73842274917564L123.7552322845459,135.8168538055198L123.84814161809287,121.56621499630583L124.10364228534698,107.10091589705576L124.7075529534022,122.06661031655892L124.91659895388285,128.02553280006802L125.26500895468395,112.3503613883582L125.42760028839112,122.44597500876166L125.56696428871155,131.27460341924473L125.6598736222585,133.72023894301182L125.68310095564524,135.642723414756L126.1244202899933,104.42730389835697L126.1941022901535,121.14424089397674L127.03028629207611,68.887703933905L127.16965029239654,96.7643516624986L127.51806029319764,22.396613121704746L127.5645149599711,54.706797009331694L127.95937962754567,-2.4186414263074028L127.98260696093242,56.44357669832432L128.42392629528047,91.55641142165699L128.4471536286672,104.10304769327362L128.5168356288274,122.49168466843685L128.72588162930805,34.22912971951766L128.9813822965622,74.0660381650967L129.56206563123067,102.8062623065226L129.63174763139088,117.13510093239736L129.88724829864503,128.08565668284032L129.95693029880525,122.96580258756131L130.0033849655787,87.27151154108911L130.0498396323522,80.39572047525849L130.32856763299307,25.156838397145066L130.72343230056762,66.83410562173931L131.21120630168915,98.36354227693629L131.37379763539633,109.52685896520325L131.55961630249024,92.70816879386321L131.65252563603718,71.85286542126457L131.81511696974437,63.728548864595L131.8383443031311,42.76287543062631L131.86157163651785,82.73706762712412L132.09384497038522,109.33094225973024L132.69775563844047,100.66483985887547L132.81389230537414,98.82749969614126L133.18552963956196,99.23958881729013L133.44103030681612,117.88746129618772L133.53393964036306,95.11821102224667L133.55716697374982,110.55848691907494L133.7429856408437,123.865260764004L133.88234964116415,94.87980882127019L133.95203164132437,110.77614734915286L134.161077641805,90.80536880877737L134.25398697535198,88.65990502205695L134.41657830905913,112.39312666988464L134.4398056424459,121.04817517559002L134.57916964276632,131.8336534166055L134.71853364308674,138.7240154335088L134.76498830986023,127.16764644802004L134.83467031002044,129.97354377022455L135.64762697855633,96.87612971740631L135.92635497919719,113.83677292614003L136.36767431354522,127.99561229462023L136.4141289803187,109.64270344086614L136.90190298144023,111.05355834670759L137.36644964917502,108.5717457752018L137.92390565045676,85.38521652806557L137.99358765061697,108.9418392337121L138.29554298464456,113.23815087974133L138.4813616517385,127.89219344031336L138.69040765221914,61.98589771499607L138.76008965237935,96.51850344800458L138.80654431915283,112.1494814837671L138.82977165253956,55.76647534165343L139.8517743215561,89.07690093600664L139.99113832187652,89.29762778908147L140.06082032203673,102.77394480206436L140.22341165574392,121.25877799252737L140.52536698977153,127.80815142690963L140.57182165654498,134.8772472443903L140.59504898993174,133.5198784351659L140.75764032363892,134.44863667567688L141.1757323246002,123.57235498053447L141.7099609924952,132.24025537783731L141.8260976594289,121.78084907397978L142.29064432716368,90.65756073152639L142.3370989939372,103.19267802261656L142.47646299425762,120.54272478898798L143.0803736623128,71.68290911696062L143.19651032924654,79.91329523896496L143.5913749968211,105.21885149643255L144.0094669977824,104.61211411323687L144.1952856648763,109.37436755464635L144.7295143327713,51.36518171624908L144.82242366631826,79.32234007028404L144.91533299986523,73.47460979244116L144.93856033325196,104.08993976330486L145.54247100130718,115.040305310983L146.07669966920218,113.14432004646774L146.7502923374176,108.66669219818323L147.00579300467172,92.48190665827464L147.37743033885957,111.35129989993374L147.7026130062739,100.46215775900973L147.72584033966066,107.27441770239871L148.1903870073954,-8.162179188642966L148.74784300867717,52.46546074532917L149.119480342865,79.03377134779808L149.56079967721303,87.47815406906643L149.63048167737327,86.88952967592739L149.74661834430694,110.2341457188445L150.60602967961628,30.81936175860656L150.76862101332347,56.91181426812015L150.86153034687044,90.4627316510501L151.00089434719084,100.71003719176132L151.1402583475113,119.52667899580086L151.256395014445,62.811405203756095L151.3260770146052,95.49114510170612L151.3725316813787,109.58236141905786L151.92998768266042,97.0617158917942L152.1158063497543,43.13459963167236L152.51067101732892,69.43401635467674L152.6268076842626,88.9613271567208L152.67326235103607,113.65514773255096L152.95199035167693,92.13018361568014L152.99844501845044,104.66896333441647L153.13780901877087,117.55563313898412L153.41653701941172,129.15664548279426L153.53267368634542,127.44928267976213L153.7649470202128,125.62347738869477L153.99722035408018,127.57500227525767L154.6475856889089,132.88701764443329L154.69404035568238,129.0922204842596L154.78694968922935,130.59578514794245L155.1353596900304,121.32339315582358L156.08768035888673,62.87773862500589L156.15736235904694,96.78125359152885L156.57545436000822,102.73712724391075L156.99354636096956,106.7167859933052L157.3884110285441,123.22898539521461L157.45809302870433,132.61615770603785L157.57422969563802,73.21295397742585L157.69036636257172,55.11749340944621L158.10845836353303,82.35019554783183L158.13168569691976,105.87420668265275L158.5265503644943,5.441144618965467L158.59623236465453,61.86475623957766L158.7588236983617,96.334136653765L159.38596169980366,85.31025059139834L159.43241636657714,80.51132931732636L159.59500770028433,25.887415041455597L160.0130997012456,37.648847537338014L160.22214570172628,81.31196627204947L160.43119170220692,107.88969698026433L160.6634650360743,95.42484396647758L160.91896570332847,113.97472023811584L161.0118750368754,36.19297112873355L161.03510237026214,73.4148871220714L161.4764217046102,41.31845160631957L161.59255837154387,78.7085102187519L161.63901303831736,107.74613588016356L161.73192237186433,87.78254831043479L161.94096837234497,111.57167822572114L162.35906037330628,126.02566412915868L162.82360704104104,131.31972644290695L162.93974370797474,133.38185133290557L163.1487897084554,72.6310447761139L163.28815370877584,95.14096711013491L163.31138104216257,102.96171232039312L163.40429037570954,120.05663961201716L163.47397237586975,112.98157010881232L163.98497371037803,125.34578862433803L164.4030657113393,130.14311202774508L164.49597504488625,135.3935404939828L164.61211171181998,129.92799440032462L164.98374904600777,138.20041437852154L165.03020371278126,141.98369534014856L165.26247704664866,143.8293414077449L165.4018410469691,110.53664313352516L165.44829571374257,102.59650183845666L165.587659714063,115.93087108558896L165.63411438083648,125.4690188401056L165.68056904760996,135.09368657538778L165.95929704825085,140.73560518565307L166.00575171502433,135.1786180544849L166.0522063817978,137.10654034146074L166.5864350496928,139.36723778929905L166.79548105017346,142.54194544153984L166.86516305033365,111.18215163114634L167.23680038452147,106.78010273948588L167.4923010517756,116.12314273504194L167.53875571854908,104.20771956772077L167.67811971886954,-66.08794097790789L167.98007505289715,17.932240342262673L168.09621171983082,70.8513240664366L168.258803053538,61.79238761404524L168.39816705385843,33.02571204284203L168.70012238788604,51.30955453244992L169.3040330559413,81.93570983203129L169.83826172383624,107.56799671240658L169.93117105738324,117.26439857042266L169.95439839076997,124.44599171095795L170.11698972447712,105.21540848397122L170.5118543920517,113.36940767558721L170.76735505930583,126.45999327528106L171.02285572655995,53.58308197187998L171.1854470602671,75.94479747399986L171.32481106058756,76.975130313482L171.8822670618693,44.644321856749286L173.15977039813995,68.35628845039795L173.25267973168692,33.46058826379894L173.55463506571454,67.2193192467158L173.9030450665156,82.9862656498384L174.08886373360954,106.65086193136214L174.11209106699627,78.55190656587313L174.2050004005432,36.807115851472446L174.4372737344106,80.98641996330846L174.669547068278,102.26723077646575L174.69277440166474,113.05408888434835L174.7160017350515,118.86931723578857L174.90182040214538,107.65885539174448L175.36636706988017,107.90360551665297L175.9238230711619,62.085178602594695L176.0864144048691,96.87127072724056L176.1560964050293,107.7976967953201L176.3883697388967,96.04189317371485L176.59741573937737,104.83308435268148L176.66709773953755,86.17935130954335L176.89937107340495,109.25973466656144L177.01550774033865,104.95686556095333L177.85169174226124,112.98905862885294L178.0607377427419,127.73066105472591L178.1071924095154,131.17122930325905L178.20010174306233,136.61092059091231L178.3394657433828,131.89766244068207L178.409147743543,38.34114947239516L178.5717390772502,61.666562843050244L178.75755774434407,-16.18947829273384L178.82723974450428,37.39952286179442L179.0130584115982,57.878315024845975L179.10596774514514,94.99355437828866L179.19887707869214,117.59979279381729L179.7331057465871,122.35867793847896L179.82601508013408,108.73442322928676L179.98860641384127,98.99963628463658L180.0815157473882,-43.43385510657623L180.33701641464233,0.3615595895334138L180.61574441528322,33.317976914653826L180.987381749471,44.89984190075273L181.5680650841395,59.70297065809028L181.91647508494057,74.65296117287674L182.24165775235494,83.21231112087999L182.42747641944885,16.12895871211859L182.61329508654276,-142.69869052790023L182.7526590868632,-25.119739709360516L182.77588642024995,20.84536668333348L183.37979708830517,73.30033675952669L183.7049797557195,98.37480526436892L184.28566309038797,70.7419333245394L184.68052775796252,17.870833992414106L184.9592557586034,11.956037017440707L185.02893775876365,31.09263916012901L185.16830175908407,6.918262263424424L185.58639376004538,64.783426006051L185.63284842681887,75.50160530726222L186.05094042778015,96.6404429912139L186.1438497613271,38.43858593735186L186.6316237624486,83.36380131079653L186.7245330959956,108.25520240899365L186.88712442970277,122.82023528770372L187.18907976373035,132.16309797365645L187.3284437640508,101.98329787106505L187.65362643146514,29.981900038669977L187.93235443210602,41.25115704737408L188.2807644329071,16.610371413657248L188.46658310000103,68.309845643235L188.48981043338776,83.73041001750022L189.00081176789604,18.004047675079136L189.09372110144298,54.57083237554919L189.41890376885732,72.6087301271494L189.69763176949817,85.85417662376372L189.72085910288493,21.9354184945673L189.8834504365921,57.59003411250022L190.20863310400645,-178.58294245281326L190.51058843803406,-54.30930496482998L190.55704310480752,12.835311795898349L190.7660891052882,-0.0667215990349348L190.81254377206167,13.337857047097202L190.8357711054484,6.055983450298754L191.27709043979647,54.87290931363016L191.34677243995665,27.77108592822728L191.55581844043732,5.224631799808321L191.85777377446493,63.881798904962366L192.41522977574667,8.810350022857477L192.7868671099345,30.827346543548828L193.04236777718862,79.16643216097468L193.46045977814993,108.080692983228L193.6927331120173,101.06118456522383L193.71596044540405,106.82292076477582L193.85532444572448,112.21666689592571L194.0179157794317,109.84110894570244L194.11082511297863,105.23768404732502L194.13405244636536,122.6845324616279L194.1572797797521,99.80974382249325L194.66828111426037,87.70020489442665L194.6915084476471,107.93004510665585L194.78441778119404,95.45676244619995L194.83087244796752,117.36937904665766L195.03991844844816,114.42966936439001L195.13282778199513,116.82442524010018L195.80642045021057,94.37384499176187L195.82964778359732,116.11795545756743L196.03869378407796,124.53764369823068L196.10837578423818,96.23632077440367L196.27096711794536,116.27914422637343L196.50324045181273,129.17897907704693L196.52646778519946,103.48629265444706L196.57292245197297,61.05318666368909L196.68905911890667,89.74086052240807L196.8284231192271,96.62084350088747L196.92133245277407,103.85919267810166L196.96778711954752,100.54235168468405L197.33942445373535,93.0531331618549L197.4787884540558,104.37622801640413L197.50201578744253,36.61614359370151L197.68783445453644,76.78890101472356L198.12915378888448,106.69735318686102L198.52401845645906,117.70515437076398L199.12792912451428,129.40020748545157L199.66215779240926,90.22332366687054L199.96411312643687,23.846342272020394L200.03379512659708,68.1883820132414L200.75384246158598,96.16094825933004L200.77706979497276,112.42383138309063L201.14870712916056,121.05179801423849L201.1719344625473,130.2706159030903L201.4042077964147,132.8537773381147L201.4738897965749,67.71521545636872L201.52034446334838,87.10224548830962L201.7758451306025,73.05136158446999L201.91520913092296,103.63714831572892L201.98489113108317,121.51758778593168L202.07780046463012,127.61672103574061L202.49589246559145,109.43788858890125L202.51911979897818,126.05310969405892L202.61202913252512,134.49439113673398L202.68171113268534,135.10858086054583L202.72816579945885,141.0254186011134L203.0533484668732,129.91077632586726L203.14625780042013,105.8855923755371L203.40175846767426,92.03998593227622L203.47144046783447,112.01131660909404L203.93598713556926,85.18085081664842L204.12180580266315,111.54496866042916L204.35407913653054,13.463629240811542L204.37730646991727,52.431947181830836L204.63280713717143,18.36139067591847L205.16703580506643,-51.675762478492345L205.67803713957468,-40.21908075837254L206.7000398085912,36.18675054303051L206.72326714197794,66.76271915081234L206.8161764755249,98.23667771339869L206.90908580907185,118.56637235844411L207.32717781003316,127.47744815550399L207.4665418103536,122.5774017515815L208.4653171459834,103.59823198535746L208.6511358130773,121.99636452831986L208.8369544801712,126.44062821044602L208.86018181355794,130.55563370841801L209.25504648113252,92.48177454557188L209.55700181516013,114.7813736275223L209.64991114870708,126.91958057721601L209.9054118159612,134.15355009660811L210.18413981660206,111.88406023350547L210.25382181676227,108.89690225546899L210.30027648353575,81.26351446232825L210.39318581708272,108.50089448754169L210.5790044841766,112.70192238404456L211.97264448738096,104.17482594589129L212.11200848770142,115.95847709200004L212.13523582108814,99.08781625171592L212.5301004886627,74.38327166192924L212.69269182236988,101.20181365481888L213.2269204902649,119.96454311871982L213.31982982381183,121.63650405692508L213.57533049106598,100.04674828887329L213.6450124912262,70.61851204430525L214.03987715880078,101.97832861011166L214.17924115912118,89.57218667736046L214.4811964931488,107.98013518761921L214.94574316088358,119.4157203200383L215.15478916136425,132.25989997184973L215.52642649555207,129.37840693456724L215.57288116232553,122.47672958017503L215.7819271628062,106.60523456526715L215.99097316328687,-157.76409669215343L216.17679183038075,-91.17413431803453L216.64133849811554,4.701722817653348L216.687793164889,38.61389590625575L216.75747516504921,76.07104870561741L216.80392983182273,103.1179615194811L216.94329383214315,75.85704636506108L217.222021832784,105.24220241998242L217.24524916617074,121.73120908806831L217.40784049987795,132.82886661940015L217.47752250003813,132.19929426863172L217.59365916697183,53.626149882307985L217.75625050067902,68.33581846088524L217.8027051674525,81.56105484966557L218.9872991701762,107.48624334805481L219.2427998374303,120.315879108097L219.31248183759055,123.80633771042166L219.42861850452422,123.49613891861635L219.80025583871205,131.18715852411492L219.89316517225902,123.57071509299641L219.91639250564577,132.04729460619083L219.96284717241923,138.4200847942874L220.19512050628663,131.05012940852114L220.28802983983357,121.9196320474154L220.3809391733805,126.36257433703813L220.58998517386118,125.95319814542881L220.6132125072479,105.36267495775849L220.72934917418164,118.53587234206617L220.82225850772858,116.23505170195483L220.8454858411153,127.7123221596226L221.1938958419164,135.16457433271765L221.91394317690532,140.47077469762283L222.1926711775462,144.45658581793234L222.35526251125336,125.92578644061464L222.47139917818706,132.73922654117763L222.7965818456014,48.65385881996332L223.00562784608206,89.50232010673096L223.35403784688313,80.03776525892447L223.60953851413728,108.65141306092963L223.77212984784444,123.51627767670433L223.79535718123117,128.75456259325432L224.00440318171184,128.8091312407813L224.8870418504079,33.88893842616841L224.95672385056815,57.05991215776962L225.0031785173416,94.87743865668693L225.07286051750182,110.63779851276307L225.09608785088858,126.01256761814454L225.18899718443552,56.58050988075813L225.93227185281117,64.00822130069194L226.2574545202255,41.07067509323508L226.88459252166746,8.80652448541153L227.0239565219879,47.868618922028816L227.11686585553485,75.45821899141214L227.5349578564962,97.38926884615863L227.65109452342986,114.10999836187533L227.99950452423093,88.77875777607882L228.06918652439117,108.02379988141065L228.13886852455138,113.21584269080354L228.62664252567293,128.7039823937028L228.88214319292706,99.7173299847461L229.18409852695467,106.53890820760448L229.2073258603414,50.758635897029336L229.4395991942088,41.222155238163936L229.509281194369,79.33892674405203L229.60219052791595,98.04012687337784L229.99705519549053,109.61360135666068L230.04350986226402,117.92839563810467L230.1131918624242,112.39069477588096L230.60096586354575,126.53875140698493L230.6474205303192,124.94522808915265L230.7635571972529,118.81387752579683L231.01905786450703,-12.242131267183737L231.20487653160095,-26.46895362906318L231.29778586514792,23.611073736032466L231.6926505327225,61.64188281314361L231.8320145330429,96.28964692655286L232.0642878669103,85.05045404319647L232.11074253368378,64.35455424278692L232.25010653400423,91.92716214868204L232.3662432009379,113.51247184337943L232.4823798678716,124.27723140376062L232.55206186803184,100.07398784154873L232.9004718688329,116.57569698374417L232.92369920221964,74.61069406208772L233.5508372036616,101.4220911459601L233.73665587075553,121.18274024672554L233.96892920462292,118.71695400417397L234.22442987187705,128.6969075077791L234.71220387299854,135.40614513653063L235.10706854057312,140.42868347534366L235.13029587395985,134.4097408198045L235.8735705423355,116.35050233758298L235.89679787572226,67.4463495689013L236.03616187604268,100.98322494180776L237.2439832121531,112.43173440137684L237.2904378789266,101.96350869116627L237.45302921263377,-2.751269333121229L237.52271121279398,52.33423130035236L237.68530254650116,84.62250893294993L238.3124405479431,106.85310520830242L238.80021454906463,116.72295209108945L239.03248788293203,84.15557253621493L239.40412521711986,61.9932002213023L239.4505798838933,53.87040570967646L239.4970345506668,27.57435009959363L239.61317121760052,17.049732244223577L240.35644588597614,-5.743455573460693L240.75131055355072,-9.933920075853393L240.77453788693745,41.779070246384464L240.84421988709767,67.67170664800983L241.2158572212855,47.83468095382506L241.84299522272747,72.81753457532407L241.91267722288768,92.05319343165763L242.37722389062247,78.79608017397163L242.5165878909429,87.40397726133095L242.53981522432963,63.93974920086647L243.14372589238482,96.55216885886848L243.30631722609203,118.73386048362912L243.46890855979922,127.75398830704937L244.23541056156157,133.59781252251673L244.30509256172178,126.89189490533803L244.74641189606984,46.63614498533218L244.76963922945657,88.66423516279552L244.97868522993724,107.60261331557304L245.1412765636444,82.71444410250687L245.21095856380464,73.46965581537388L245.3735498975118,42.16601757142962L245.44323189767204,45.584311001445684L245.88455123202004,55.67757078614714L245.95423323218026,11.830432417433201L246.2097338994344,65.73705524391231L246.46523456668854,84.43673078719668L246.69750790055593,111.0620538373426L246.7439625673294,98.18211247980142L246.76718990071615,113.82166775605178L246.83687190087636,97.63640319837221L247.3943279021581,115.06634759223951L247.5104645690918,129.47100105632174L247.53369190247852,131.63364325742785L247.6266012360255,135.6483839176223L248.06792057037353,139.16583623881712L248.0911479037603,138.28989170771155L248.30019390424093,119.01339297193303L248.48601257133484,131.07963451216096L248.7647405719757,139.04483681740703L249.62415190728504,124.22632721498454L249.69383390744528,103.39329490260504L249.90287990792592,86.89286793191492L249.92610724131265,85.95379147055793L250.0654712416331,110.37095216464918L250.11192590840656,96.55148343548731L250.32097190888723,3.6532020979987863L251.1339285774231,51.01208300439001L251.2500652443568,84.29335181589865L251.7842939122518,100.80091457831445L251.85397591241198,117.21815588823023L251.92365791257222,123.889403785202L252.13270391305286,115.73549967639553L252.78306924788157,118.96010134348006L253.34052524916333,131.8857530872911L253.57279858303067,135.35967202512296L254.85030191930136,35.57008663868285L254.9896659196218,43.07412261780482L255.08257525316876,79.30365838576458L255.15225725332897,94.90917534874193L255.4077579205831,61.879540104458044L255.4774399207433,59.96769970928119" fill="none"></path></g></g></g></g><g opacity="0.2"><g><g><g><path style="fill: none;" stroke="rgb(255, 112, 67)" stroke-width="2px" d="M23.6454253877004,151.47765616668755L23.784789388020833,151.26907891956313L24.15642672220866,152.12183776509633L24.202881388982135,152.02203644773203L24.272563389142356,146.86945206740538L24.528064056396484,151.1824036811802L24.87647405719757,152.18662794501347L24.946156057357786,151.66195260784036L25.41070272509257,150.40517832955294L25.689430725733438,149.41219460048896L26.15397739346822,152.0764044650279L26.827570061683655,134.34400669169503L26.897252061843872,152.24338083577578L27.106298062324523,146.90709036328764L27.477935396512347,148.13311987069372L27.52439006328583,150.36321126575479L28.546392732302348,134.1644060350548L28.662529399236043,151.18642418547896L29.01093940003713,142.30436071502345L29.150303400357565,151.19924020034864L29.26644006729126,128.99457898189758L29.429031400998433,146.07236745057244L29.568395401318867,148.14386901259903L30.381352069854735,67.27695587807914L30.427806736628213,143.57755521919006L30.61362540372213,124.76876448073561L31.10139940484365,149.5446971629551L31.287218071937563,149.48758035908008L31.751764739672343,146.860402592342L33.00604074255625,103.13586887569494L33.029268075942994,115.08027533303184L33.42413274351756,135.4049717877154L33.493814743677774,103.60699651035904L33.563496743837995,139.06950050129484L33.91190674463908,30.840586756690698L33.981588744799296,139.8859743594967L34.00481607818603,63.200545276355044L34.23708941205343,142.96135851782765L34.678408746401466,145.30475484450972L35.166182747522996,145.61812504319212L35.561047415097555,30.494831157553165L35.67718408203125,10.344830433342452L36.30432208347321,103.44942026098539L36.53659541734059,100.67593392920536L36.67595941766103,143.66419804867132L36.8385507513682,146.88671748332487L36.861778084754945,81.1656993274612L37.628280086517336,145.90495329905443L37.67473475329081,24.671957534232263L37.95346275393168,150.99194168339622L38.11605408763886,118.16049922067538L38.13928142102559,99.25221050080452L38.18573608779908,142.02380121255806L38.25541808795929,145.5888963834729L38.30187275473276,61.10220724850741L38.58060075537364,115.14703387990969L38.812874089241035,149.76359996195453L39.81164942487081,52.76940633693776L39.99746809196472,142.34417779881994L40.18328675905863,129.1344883998331L40.392332759539286,141.2780068097561L40.69428809356689,149.04560102522117L40.78719742711385,112.99257500595401L40.99624342759451,148.97294064678024L41.08915276114146,100.38455553936211L41.13560742791494,147.3994278235851L41.18206209468841,138.77214219528338L41.344653428395596,141.22779537624075L41.46079009532928,81.78557282819172L41.507244762102765,148.47052155423594L41.62338142903646,79.32990751758696L41.669836095809934,137.86656091486913L41.7627454293569,99.6322444834945L41.85565476290385,146.03118047472273L41.99501876322429,76.30734494127124L42.01824609661102,29.226506706817673L42.55247476450602,104.39421669144392L42.64538409805298,145.00670969721423L43.41188609981537,150.56686956180704L43.57447743352254,120.35954971088537L43.71384143384297,108.24914902887923L44.039024101257326,137.21111722313805L44.13193343480428,150.35649921165054L44.29452476851146,86.35009863576364L44.34097943528493,81.69156199601788L44.52679810237885,80.39069976613185L44.851980769793194,91.40022881217159L44.875208103179936,152.05485017636093L45.10748143704732,151.13338796556246L45.17716343720754,134.28492166300362L45.386209437688194,140.45539459186685L45.572028104782106,149.64645902934328L45.78107410526276,103.80197755990247L45.804301438649496,148.95691662446188L45.94366543896993,141.3268036231434L45.966892772356665,138.6744606285651L46.083029439290364,107.82678560917503L46.501121440251666,118.24147068189421L46.570803440411886,90.63065120323004L46.77984944089254,80.26201633686505L47.47666944249471,132.56205232180577L47.778624776522314,150.5658622324956L47.917988776842755,138.50968543345957L47.98767077700297,120.37647360142024L48.03412544377645,144.31403329468583L48.1270347773234,112.21013997076844L48.266398777643836,145.13748549065753L48.382535444577535,139.2384664895771L48.614808778444925,120.29429827269698L48.75417277876536,142.97895484569025L48.87030944569906,142.6083903271049L49.10258277956645,146.47102840210255L50.07813078180949,151.1120944643146L50.17104011535644,70.18003536268098L50.19426744874319,127.74925082642659L50.217494782129926,139.63565179369067L50.63558678309123,149.37314433783905L50.93754211711883,38.10481425090836L51.23949745114644,147.529959128823L51.84340811920166,140.26363244750218L52.12213611984253,148.7630135973311L52.37763678709666,130.8224198079011L52.44731878725688,116.80947483396656L52.517000787417096,146.07687361458156L52.981547455151876,150.99658203162969L53.12091145547231,65.3799942563666L53.28350278917949,89.9913338777173L53.42286678949992,124.4012270672795L53.794504123687744,43.65759701557306L53.864186123847965,55.137683602849094L54.11968679110209,124.2298745708713L54.189368791262304,37.53026924251168L54.259050791422524,143.2628067893218L54.28227812480927,-115.77255979632861L55.397190127372745,108.27919719790091L55.46687212753296,130.88219167787656L55.53655412769318,115.43203510763236L55.559781461079915,151.3709797083192L56.07078279558817,132.74518725445716L56.34951079622904,-384.19255952317974L56.58178413009644,112.67564854627449L56.67469346364339,146.66345502371385L57.25537679831187,-31.593292026098823L57.27860413169861,90.35788575732214L57.53410479895274,83.52361787449293L57.71992346604665,98.21115318857947L57.81283279959361,36.17486605309148L57.859287466367086,99.80980432695966L58.60256213474273,142.5104745065712L58.695471468289696,126.39640850881369L59.276154802958175,134.51579737161558L59.64779213714599,135.98596370370515L59.671019470532734,134.60070187100385L60.019429471333815,145.86082412560725L60.11233880488078,144.2288869604525L60.4839761390686,148.73431750494302L60.50720347245534,138.3709723019989L61.0182048069636,132.89294607046642L61.134341473897294,146.47765308484037L61.25047814083099,135.3860889591254L61.32016014099121,134.69595447583026L61.43629680792491,118.72517069608843L61.505978808085125,119.23299354654944L61.78470680872599,67.52778485666411L61.970525475819905,147.1596588091201L62.13311680952708,115.27417077913297L62.29570814323426,149.643457510189L62.504754143714905,61.218748900726794L62.59766347726186,134.56358969857757L62.64411814403534,150.55092608792842L62.69057281080882,141.3127506685275L62.76025481096903,138.34068002382327L62.92284614467621,123.2920162987256L63.13189214515686,137.2182934257811L63.36416547902425,92.32749183731337L63.45707481257121,129.1182422533467L63.503529479344685,42.65557897350493L63.573211479504906,137.02573072468803L63.689348146438604,140.1519070234036L63.75903014659882,141.21610163804417L63.78225747998555,149.24052749135132L64.24680414772034,148.85058661914738L64.455850148201,53.34489139300793L64.59521414852142,86.20631986030753L64.7578054822286,39.30201044929015L64.78103281561533,-145.16854193661936L64.99007881609599,150.8959808208771L65.15267014980317,144.32422068229593L65.64044415092468,132.4411197372276L65.73335348447164,70.58190877551468L65.96562681833903,149.39998611038084L66.05853615188599,85.5877260373777L66.26758215236663,119.05197068875157L66.56953748639425,116.8635336400166L66.63921948655447,146.52495491918563L66.77858348687491,64.7687934535271L66.82503815364838,111.03471345705783L67.61476748879751,98.08149938752068L67.75413148911794,150.9991559807131L68.1489961566925,99.32230773312924L68.38126949055989,140.227549778899L68.45095149072012,137.26855261978307L68.49740615749359,39.10164080388924L68.9154981584549,86.01596930365905L69.24068082586925,113.86254060918996L69.28713549264272,131.91146807006433L69.70522749360403,120.53564489942698L69.79813682715098,138.75740467369235L69.9839554942449,78.32013863083024L70.37882016181946,11.639646033999611L70.51818416213989,123.83073639352631L71.07564016342164,132.40443968348995L71.37759549744924,131.06530386743907L71.44727749760946,117.70661084737856L71.4705048309962,148.3775648642315L71.51695949776968,53.1291049657616L71.56341416454315,127.39754563523937L71.6563234980901,77.92183739915585L71.74923283163707,81.14353239683767L71.91182416534424,150.78157038561105L72.26023416614532,71.62920072650334L73.04996350129446,145.37288404154376L73.14287283484141,145.47264508468817L73.30546416854858,137.308744206443L73.51451016902924,150.14566300722362L73.7932381696701,121.25074219707136L74.0255115035375,141.45967253886616L74.07196617031097,98.5064009359433L74.11842083708446,143.14158991613266L74.23455750401814,150.24395029820894L74.30423950417837,27.234115084185504L74.49005817127228,123.11132397381938L74.58296750481924,138.3221322767427L75.04751417255402,69.39683615970921L75.16365083948772,126.45421537591034L75.18687817287444,40.34728281398668L75.23333283964794,144.3112502987105L75.30301483980814,135.20746019048312L75.39592417335511,-339.6220245960444L75.41915150674184,137.67552503314255L75.58174284044901,89.90993181401576L75.65142484060922,127.10791846323951L75.76756150754292,137.5614184076387L76.20888084189096,108.98856626956064L76.44115417575836,-65.34061535608245L76.5805181760788,76.13808177662769L76.71988217639922,148.44338677489915L76.8127915099462,126.42250241278299L77.09151951058706,113.2174010529252L77.11474684397379,140.6828921936779L77.69543017864227,7.8886860016654055L77.90447617912294,146.04294244218593L78.71743284765878,100.49986603237039L78.74066018104553,145.52152149888653L78.78711484781901,127.46490459966351L79.80911751683553,81.5713571902837L79.99493618392944,143.3589713920121L80.15752751763662,145.89031584705447L80.2039821844101,120.54827489478225L80.25043685118357,129.2229317238503L80.36657351811726,147.70998546027667L80.94725685278574,145.0843038097351L80.97048418617248,129.8623051489823L81.20275752003988,130.97509719593106L81.24921218681335,129.34217677123397L81.36534885374705,144.76306450230192L81.69053152116139,140.1150131846305L81.82989552148183,150.8874318832947L82.03894152196249,125.7652514035893L82.38735152276357,144.83099583446275L82.48026085631052,-15.814731317322838L82.526715523084,148.23577952051525L83.10739885775249,122.35009762711275L83.38612685839335,81.37558468124742L83.61840019226074,101.67873433353076L83.75776419258118,134.90733480865853L84.15262886015574,143.7358061802003L84.29199286047617,132.11613009443892L84.31522019386291,142.27387739490126L84.64040286127725,-52.068864616173414L84.7797668615977,141.30269670703882L84.89590352853139,143.9040459058445L85.43013219642638,149.5722928688931L85.59272353013355,137.72308841300986L85.70886019706725,141.06445830245508L86.01081553109486,114.5550767626703L86.17340686480203,147.03408663441138L86.52181686560313,118.12129316786667L86.800544866244,148.55074325162485L86.87022686640421,110.45239334467777L87.19540953381856,146.90358906475532L88.00836620235442,140.18566383211783L88.03159353574118,147.71718933367785L88.05482086912791,103.33768194913642L88.47291287008922,146.27557732872236L88.8213228708903,-86.6078657726614L89.93623487345377,130.98609120509326L90.14528087393444,129.08327096368652L90.35432687441508,105.88051090595773L90.4936908747355,125.90928186922896L90.98146487585704,148.68903411973542L91.02791954263051,140.29923902744494L91.05114687601726,138.08539188361286L92.14283154519399,150.32095820761407L92.3286502122879,139.16759902464247L92.8628788801829,34.204792981675325L93.07192488066354,142.69273534650685L93.1648342142105,87.87368545120883L93.25774354775747,140.92263240023036L93.53647154839834,150.79635339337983L93.60615354855855,131.71511333795286L93.79197221565248,75.57978443092335L93.86165421581268,60.08146103085369L94.41911021709441,119.19574946420768L94.51201955064138,139.67983403434525L94.55847421741485,133.2884074484433L95.20883955224356,-332.61128247319226L95.74306822013855,149.74638325415037L96.09147822093963,134.7448521169116L96.27729688803355,150.72001413078763L96.39343355496725,145.90706461580498L96.50957022190094,96.12908101789526L96.64893422222137,143.72685070990428L97.02057155640921,115.07307941971177L97.4386635573705,150.10553301642938L97.46189089075725,139.1100999473486L97.62448222446442,132.97217844348927L97.69416422462463,-59.372586242325525L98.25162022590636,146.2465999801352L98.32130222606659,145.88398871972942L98.48389355977376,63.17969441247442L98.55357555993399,118.55634723116313L98.57680289332072,144.85349178177202L98.6232575600942,108.3960360264816L98.64648489348093,-43.34208062740376L99.22716822814941,147.43950038807998L99.43621422863006,151.86229391914304L99.99367022991181,106.5355543193246L100.17948889700571,140.67554465976534L100.50467156442006,146.33701171849455L100.5278988978068,149.17347480052402L100.92276356538136,44.502160104741506L101.5963562335968,132.7294460045438L101.64281090037028,150.05174845412603L101.87508423423766,151.31682234888405L102.26994890181224,110.22650898597092L102.38608556874594,148.51110470107605L102.89708690325419,97.02190190924469L103.0829055703481,141.10998769207401L103.33840623760224,117.10362484824071L103.38486090437571,61.75797844071829L103.54745223808288,124.37195216327956L103.68681623840332,-165.6987221992888L103.8494075721105,139.90193091065143L103.98877157243092,148.88745809388308L104.05845357259115,124.5596372299119L104.45331824016571,143.54517209304385L104.73204624080657,150.4025386150375L104.8017282409668,-42.564157821051L104.96431957467397,141.68927918311888L105.3359569088618,100.65631422453583L105.38241157563527,66.81271181831455L105.5217755759557,148.6187193118605L105.61468490950267,147.0954319470855L105.98632224369048,146.70344571308874L106.38118691126505,146.79156532714097L106.84573357899984,146.7772432459734L107.26382557996115,-19.642290072988146L107.31028024673462,133.15151982891632L107.35673491350809,150.36482564601346L107.42641691366832,151.3981668915233L107.49609891382853,74.32836264383978L107.8909635814031,145.82221015121223L108.14646424865722,137.77508063038414L108.47164691607158,-77.95134883128009L109.16846691767374,147.8528882477596L109.21492158444723,148.69519143199688L109.77237758572896,7.944094230988668L109.86528691927592,143.07868025799544L109.91174158604939,73.96977387775304L110.05110558636983,146.36832554041214L110.12078758653006,113.05203756992074L110.16724225330353,136.99009230442084L110.37628825378418,136.08268399586697L110.53887958749135,14.165305474926186L110.84083492151896,20.59964675332938L111.02665358861287,143.26880717426997L111.32860892264047,150.8182214419104L111.37506358941397,109.98120202936481L111.44474558957417,136.15693260001433L111.816382923762,74.56031182624663L111.9325195906957,105.2549182764781L111.97897425746918,58.97643802306463L112.21124759133657,126.56776403763375L112.30415692488351,43.19099373938914L112.97774959309895,63.794540174357635L113.09388626003265,134.56014336251005L113.25647759373983,148.81920646322058L114.27848026275635,128.38157389400732L114.46429892985026,24.52520093033945L114.62689026355744,114.31902169461854L114.7197995971044,-96.2715801155507L114.97530026435851,122.90765203191383L115.11466426467895,149.20601902354974L115.25402826499938,86.50546122448678L115.76502959950766,131.41043782214734L116.02053026676178,144.15324799547193L116.13666693369548,109.02329951489058L116.34571293417612,122.19546281723362L116.36894026756286,144.9686726391737L116.64766826820373,117.01259487691541L116.90316893545787,79.21803577961659L116.97285093561808,112.70795889453629L117.20512426948547,149.12065246040584L118.29680893866221,52.20031360504741L118.41294560559591,65.37886619915841L118.43617293898265,38.36210833155752L118.66844627285005,-32.52300524001541L120.364041610082,-12.019740664926559L120.61954227733612,132.03516166563196L120.64276961072287,-47.32394062764473L120.68922427749634,133.40768130373954L120.73567894426981,135.87362345810396L120.80536094443003,143.9074399328076L120.82858827781678,148.17682829699672L121.40927161248524,2.379594226935552L121.52540827941894,146.59564574612997L121.59509027957917,90.81398475885761L121.78090894667308,91.70241471784824L122.0364096139272,138.38014079922738L122.24545561440786,143.74712844794527L122.31513761456809,143.97575941368524L122.33836494795482,77.12596877947476L122.6867749487559,-2.7634369189091217L123.05841228294372,134.1952835687175L123.19777628326416,146.22178272155475L123.29068561681112,106.65966183910975L123.49973161729177,133.14397367202758L123.54618628406524,144.40861194597858L123.7552322845459,144.934500390036L123.84814161809287,100.19025678248494L124.10364228534698,85.40296724818063L124.7075529534022,144.51515194581367L124.91659895388285,136.96391652533163L125.26500895468395,88.83760427079346L125.42760028839112,137.58939543936685L125.56696428871155,144.51754603496926L125.6598736222585,137.38869222866248L125.68310095564524,138.52645012237232L126.1244202899933,57.60417462375838L126.1941022901535,146.21964638740644L127.03028629207611,-9.497101506202597L127.16965029239654,138.579323255389L127.51806029319764,-89.15499468948605L127.5645149599711,103.17207284077213L127.95937962754567,-88.10679907976606L127.98260696093242,144.73690388527194L128.42392629528047,144.22566350665596L128.4471536286672,122.92300210069855L128.5168356288274,150.0746401311817L128.72588162930805,-98.16470270386111L128.9813822965622,133.82140083346525L129.56206563123067,145.91659851866143L129.63174763139088,138.6283588712095L129.88724829864503,144.5114903085048L129.95693029880525,115.28602144464278L130.0033849655787,33.730074971380816L130.0498396323522,70.08203387651254L130.32856763299307,-57.701484720025036L130.72343230056762,129.35000645863067L131.21120630168915,145.65769725973172L131.37379763539633,126.27183399760366L131.55961630249024,67.48013353685315L131.65252563603718,40.56991036236661L131.81511696974437,51.54207402959062L131.8383443031311,11.314365279673325L131.86157163651785,142.6983559218708L132.09384497038522,149.22175420863942L132.69775563844047,87.66568625759331L132.81389230537414,96.07148945203997L133.18552963956196,99.85772249901343L133.44103030681612,145.8592700145341L133.53393964036306,60.9643356113351L133.55716697374982,133.71890076431734L133.7429856408437,143.82542153139758L133.88234964116415,51.40163090716952L133.95203164132437,134.62065514097688L134.161077641805,60.84920099821413L134.25398697535198,85.44170934197629L134.41657830905913,147.99295914162613L134.4398056424459,134.0307479341481L134.57916964276632,148.0118707781287L134.71853364308674,149.0595584588638L134.76498830986023,109.83309296978689L134.83467031002044,134.18238975353128L135.64762697855633,47.23000863817899L135.92635497919719,139.27773773924056L136.36767431354522,149.23387134734057L136.4141289803187,82.11334016023501L136.90190298144023,113.16984070546972L137.36644964917502,104.84902691794315L137.92390565045676,50.60542265736123L137.99358765061697,144.27677329218187L138.29554298464456,119.68261834878516L138.4813616517385,149.87325728117142L138.69040765221914,-36.87354587297992L138.76008965237935,148.31741204751737L138.80654431915283,135.5959485374109L138.82977165253956,-28.80803387151704L139.8517743215561,139.04253932753645L139.99113832187652,89.62871806869374L140.06082032203673,122.9884203215387L140.22341165574392,148.9860277782219L140.52536698977153,137.632211578483L140.57182165654498,145.48089097061128L140.59504898993174,131.4838252213293L140.75764032363892,135.84177403644335L141.1757323246002,107.25793243782084L141.7099609924952,145.24210597379158L141.8260976594289,106.0917396181935L142.29064432716368,43.97262821784631L142.3370989939372,121.99535395925182L142.47646299425762,146.5677949385451L143.0803736623128,-1.6068143910804054L143.19651032924654,92.25887442197148L143.5913749968211,143.17718588263395L144.0094669977824,103.70200803844338L144.1952856648763,116.51774771676058L144.7295143327713,-35.648597041346875L144.82242366631826,121.25807760133651L144.91533299986523,64.7030143756768L144.93856033325196,150.0129347196004L145.54247100130718,131.46585363250023L146.07669966920218,110.30034214969484L146.7502923374176,101.95025042575645L147.00579300467172,68.20472834841173L147.37743033885957,139.65538976242237L147.7026130062739,84.12844454762373L147.72584033966066,117.49280761748213L148.1903870073954,-181.31707452520538L148.74784300867717,143.40692064628732L149.119480342865,118.88623725150143L149.56079967721303,100.14472815096896L149.63048167737327,86.00659308621883L149.74661834430694,145.25106978322017L150.60602967961628,-88.30281418175036L150.76862101332347,96.05049303239053L150.86153034687044,140.78910772544504L151.00089434719084,116.08099550282813L151.1402583475113,147.7516417018602L151.256395014445,-22.261505484311073L151.3260770146052,144.5107549486312L151.3725316813787,130.71918589508547L151.92998768266042,78.28074760089869L152.1158063497543,-37.75607475851044L152.51067101732892,108.88314143918336L152.6268076842626,118.25229335978688L152.67326235103607,150.6958785962962L152.95199035167693,59.84273744037394L152.99844501845044,123.47713291252097L153.13780901877087,136.8856378458356L153.41653701941172,146.55816399850946L153.53267368634542,124.88823847521394L153.7649470202128,122.88476945209369L153.99722035408018,130.50228960510205L154.6475856889089,140.85504069819672L154.69404035568238,123.40002474399907L154.78694968922935,132.8511321434667L155.1353596900304,107.41480516764528L156.08768035888673,-24.79074317122064L156.15736235904694,147.6365260413133L156.57545436000822,111.67093772248359L156.99354636096956,112.6862741173969L157.3884110285441,147.9972844980787L157.45809302870433,146.69691617227272L157.57422969563802,-15.891851615492158L157.69036636257172,27.97430255747679L158.10845836353303,123.19924875541027L158.13168569691976,141.16022338488415L158.5265503644943,-145.20844847656542L158.59623236465453,146.5001736704959L158.7588236983617,148.03820727504598L159.38596169980366,68.77442149784838L159.43241636657714,73.31294740621836L159.59500770028433,-56.04845637235056L160.0130997012456,55.290996281161625L160.22214570172628,146.80664437411662L160.43119170220692,147.7562930425866L160.6634650360743,76.72756444579747L160.91896570332847,141.7995346455732L161.0118750368754,-80.47965253533988L161.03510237026214,129.24776111207814L161.4764217046102,-6.826201667308197L161.59255837154387,134.7935981374004L161.63901303831736,151.30257437228107L161.73192237186433,57.83716695584164L161.94096837234497,147.25537309865067L162.35906037330628,147.706642984315L162.82360704104104,139.2608199135294L162.93974370797474,136.4750386679035L163.1487897084554,-18.495165059073628L163.28815370877584,128.90585061116644L163.31138104216257,114.69283013578045L163.40429037570954,145.6990305494532L163.47397237586975,102.36896585400508L163.98497371037803,143.89211639762658L164.4030657113393,137.33909713285564L164.49597504488625,143.2691831933394L164.61211171181998,121.72967525983736L164.98374904600777,150.6090443458169L165.03020371278126,147.6586167825891L165.26247704664866,146.59781050913938L165.4018410469691,60.597595722195564L165.44829571374257,90.68628989585392L165.587659714063,135.93242495628738L165.63411438083648,139.77624047188058L165.68056904760996,149.53068817831104L165.95929704825085,149.198483101051L166.00575171502433,126.84313735773266L166.0522063817978,139.99842377192448L166.5864350496928,142.75828396105655L166.79548105017346,147.30400691990104L166.86516305033365,64.14246091555606L167.23680038452147,100.17702940199521L167.4923010517756,130.137702728376L167.53875571854908,86.33458481673902L167.67811971886954,-321.5314317963509L167.98007505289715,143.96251232251848L168.09621171983082,150.22994965269746L168.258803053538,48.20398293545824L168.39816705385843,-10.124301313962718L168.70012238788604,78.73531826686177L169.3040330559413,127.87494278140335L169.83826172383624,146.0164270329695L169.93117105738324,131.80900135744676L169.95439839076997,135.2183814217609L170.11698972447712,76.36953364349112L170.5118543920517,125.60040646301121L170.76735505930583,146.09587167482184L171.02285572655995,-55.73228498322169L171.1854470602671,109.48737072717972L171.32481106058756,78.52062957270515L171.8822670618693,-3.8518908283497524L173.15977039813995,103.92423834087096L173.25267973168692,-18.88296201609961L173.55463506571454,117.85741572109113L173.9030450665156,106.63668525452226L174.08886373360954,142.14775635364774L174.11209106699627,36.40347351763961L174.2050004005432,-25.81007022012858L174.4372737344106,147.25537613106252L174.669547068278,134.18844699620166L174.69277440166474,129.23437604617223L174.7160017350515,127.59215976294895L174.90182040214538,90.84316262567836L175.36636706988017,108.2707307040157L175.9238230711619,-6.642461768492723L176.0864144048691,149.05040891420936L176.1560964050293,124.18733589743944L176.3883697388967,78.40818774130697L176.59741573937737,118.01987112113142L176.66709773953755,58.19875174483617L176.89937107340495,143.88030970208857L177.01550774033865,98.5025619025412L177.85169174226124,125.03734823070236L178.0607377427419,149.84306469353538L178.1071924095154,136.33208167605875L178.20010174306233,144.77045752239223L178.3394657433828,124.8277752153367L178.409147743543,-101.99361998003519L178.5717390772502,96.65468289903285L178.75755774434407,-132.97353999640995L178.82723974450428,117.78302459358682L179.0130584115982,88.59650326942331L179.10596774514514,150.66641340845268L179.19887707869214,151.50915041711022L179.7331057465871,129.4970056554715L179.82601508013408,88.29804116549846L179.98860641384127,84.39745586766132L180.0815157473882,-257.0840921933954L180.33701641464233,66.05468163369781L180.61574441528322,82.75260290233447L180.987381749471,62.272639379901065L181.5680650841395,81.9076637940966L181.91647508494057,97.07794694505648L182.24165775235494,96.05133604288484L182.42747641944885,-84.49606990102347L182.61329508654276,-380.94016438792846L182.7526590868632,151.24868651844906L182.77588642024995,89.79302627237439L183.37979708830517,151.98279187381655L183.7049797557195,135.98650802163223L184.28566309038797,29.292625414795168L184.68052775796252,-61.435815005773804L184.9592557586034,3.0838415549806086L185.02893775876365,59.797542374161466L185.16830175908407,-29.343303081632456L185.58639376004538,151.58117161999087L185.63284842681887,91.57887425907906L186.05094042778015,128.34869951714143L186.1438497613271,-48.864199643441225L186.6316237624486,150.75162437096355L186.7245330959956,145.59230405628935L186.88712442970277,144.66778460576884L187.18907976373035,146.1773920025855L187.3284437640508,56.71359771717796L187.65362643146514,-78.02019670992263L187.93235443210602,58.1550425604302L188.2807644329071,-20.350807036918013L188.46658310000103,145.85905698760166L188.48981043338776,106.86125657889805L189.00081176789604,-80.58549583855245L189.09372110144298,109.42100942625422L189.41890376885732,99.66557675454975L189.69763176949817,105.7223463686852L189.72085910288493,-73.9427186992273L189.8834504365921,111.07195753939959L190.20863310400645,-532.8424073007835L190.34799710432688,79.22191726678459L190.51058843803406,-22.581764564613735L190.55704310480752,113.55223693699085L190.7660891052882,-19.419771691434818L190.81254377206167,33.444725016295365L190.8357711054484,-4.866826944898861L191.27709043979647,128.0982981086273L191.34677243995665,-12.881649149877063L191.55581844043732,-28.59504939282013L191.85777377446493,151.86754956269345L192.41522977574667,-73.79682330029988L192.7868671099345,63.852841324585825L193.04236777718862,151.6750605871135L193.46045977814993,151.45208421660794L193.6927331120173,90.5319219382176L193.71596044540405,115.46552506410382L193.85532444572448,120.30728609265054L194.0179157794317,106.27777202036758L194.11082511297863,98.33254669975885L194.13405244636536,148.85480508308223L194.1572797797521,65.49756086379128L194.66828111426037,69.53589650232672L194.6915084476471,138.2748054249997L194.78441778119404,76.7468384555161L194.83087244796752,150.23830394734424L195.03991844844816,110.02010484098852L195.13282778199513,120.41655905366545L195.80642045021057,60.69797461925441L195.82964778359732,148.73412115627573L196.03869378407796,137.16717605922557L196.10837578423818,53.78433638866318L196.27096711794536,146.3433794043281L196.50324045181273,148.52873135305717L196.52646778519946,64.94726302054725L196.57292245197297,-2.5964723224478803L196.68905911890667,132.77237131048656L196.8284231192271,106.94081796860661L196.92133245277407,114.71671644392293L196.96778711954752,95.56709019455762L197.33942445373535,81.81930537761117L197.4787884540558,121.36087029822797L197.50201578744253,-65.02398304035236L197.68783445453644,137.04803714625666L198.12915378888448,151.56003144506718L198.52401845645906,134.21685614661843L199.12792912451428,146.94278715748294L199.66215779240926,31.45799793899903L199.96411312643687,-75.71912982025475L200.03379512659708,134.70144162507285L200.75384246158598,138.119797628463L200.77706979497276,136.81815606873153L201.14870712916056,133.99374796096026L201.1719344625473,144.09884273636803L201.4042077964147,136.7285194906513L201.4738897965749,-29.99262736625022L201.52034446334838,116.18279053622092L201.7758451306025,51.97503572871058L201.91520913092296,149.5158284126173L201.98489113108317,148.3382469912358L202.07780046463012,136.765420910454L202.49589246559145,82.1696399186422L202.51911979897818,150.97594135179543L202.61202913252512,147.15631330074655L202.68171113268534,136.02986544626359L202.72816579945885,149.9006752119647L203.0533484668732,113.23881291299807L203.14625780042013,69.84781645004189L203.40175846767426,71.27157626738492L203.47144046783447,141.96831262432076L203.93598713556926,44.93515212797996L204.12180580266315,151.09114542610033L204.35407913653054,-133.65837988861495L204.37730646991727,110.88442409335977L204.63280713717143,-32.74444408295014L205.28317247200013,-273.38289347915816L205.67803713957468,109.99022042220673L206.7000398085912,150.79549749513515L206.72326714197794,112.62667206248506L206.8161764755249,145.44761555727823L206.90908580907185,149.0609143260122L207.32717781003316,140.84406185109378L207.4665418103536,115.2273321456978L208.4653171459834,75.12947733602138L208.6511358130773,149.59356334276347L208.8369544801712,133.1070237336353L208.86018181355794,136.72814195537597L209.25504648113252,35.37098580130265L209.55700181516013,148.23077225044793L209.64991114870708,145.12689100175658L209.9054118159612,145.0045043756963L210.18413981660206,78.47982543885148L210.25382181676227,104.41616528841425L210.30027648353575,39.81343277261709L210.39318581708272,149.35696452536186L210.5790044841766,119.00346422879889L211.97264448738096,91.38418128866137L212.11200848770142,133.63395381116317L212.13523582108814,73.78182499128977L212.5301004886627,37.32645477724918L212.69269182236988,141.42962664415336L213.2269204902649,148.10863731457124L213.31982982381183,124.14444546423297L213.57533049106598,67.66211463679562L213.6450124912262,26.47615767745316L214.03987715880078,149.0180534588213L214.17924115912118,70.96297377823365L214.4811964931488,135.59205795300733L214.94574316088358,136.56909801866695L215.15478916136425,151.52616944956688L215.52642649555207,125.0561673786435L215.57288116232553,112.12421354858671L215.7819271628062,82.79799204290534L215.99097316328687,-554.3180935782844L216.17679183038075,8.710809243143814L216.64133849811554,148.5155085211852L216.687793164889,89.48215553915932L216.75747516504921,132.25677790465988L216.80392983182273,143.68833074027663L216.94329383214315,34.96567363343104L217.222021832784,149.3199365023644L217.24524916617074,146.46471909019712L217.40784049987795,149.4753529163979L217.47752250003813,131.25493574247912L217.59365916697183,-64.2335666971776L217.75625050067902,90.40032132875109L217.8027051674525,101.39890943283604L218.9872991701762,146.37402609563867L219.2427998374303,139.56033274816025L219.31248183759055,129.04202561390866L219.42861850452422,123.03084073090841L219.80025583871205,142.7236879323628L219.89316517225902,112.1460499463186L219.91639250564577,144.76216387598248L219.96284717241923,147.97927007643227L220.19512050628663,119.99519632987177L220.28802983983357,108.22388600575684L220.3809391733805,133.0269877714722L220.58998517386118,125.3391338580148L220.6132125072479,74.47689017625301L220.72934917418164,138.29566841852773L220.82225850772858,112.78382074178785L220.8454858411153,144.92822784612426L221.1938958419164,146.3429525923602L221.91394317690532,148.4300752449806L222.1926711775462,150.43530249839662L222.35526251125336,98.12958737463805L222.47139917818706,142.95938669202218L222.7965818456014,-77.47419276185818L223.00562784608206,150.77501203688246L223.35403784688313,65.8409329872147L223.60953851413728,151.57188476393736L223.77212984784444,145.8135746003664L223.79535718123117,136.61198996807934L224.00440318171184,128.8909842120718L224.8870418504079,-108.49135079575092L224.95672385056815,91.81637275517141L225.0031785173416,151.6037284050629L225.07286051750182,134.27833829687728L225.09608785088858,149.07472127621676L225.18899718443552,-47.56757672532149L225.93227185281117,75.14978843059271L226.2574545202255,6.664355782049768L226.88459252166746,-39.58970142632376L227.0239565219879,106.46176057695476L227.11686585553485,116.84261909548712L227.5349578564962,130.28584362827837L227.65109452342986,139.1910926354504L227.99950452423093,50.78189689738409L228.06918652439117,136.89136303940842L228.13886852455138,121.00390690489283L228.62664252567293,151.9361919480517L228.88214319292706,56.23735137131105L229.18409852695467,116.77127554189207L229.2073258603414,-32.911772568833385L229.4395991942088,26.917434249865835L229.509281194369,136.51408400288415L229.60219052791595,126.09192706736658L229.99705519549053,126.97381308158491L230.04350986226402,130.40058706027068L230.1131918624242,104.0841434825454L230.60096586354575,147.76083635364088L230.6474205303192,122.55494311240426L230.7635571972529,109.61685168076306L231.01905786450703,-208.8261444566545L231.20487653160095,-47.809187171882456L231.29778586514792,98.73111478367605L231.6926505327225,118.68809642881027L231.8320145330429,148.26129309666675L232.0642878669103,68.1916647181619L232.11074253368378,33.31070454217257L232.25010653400423,133.28607400752472L232.3662432009379,145.89043638542552L232.4823798678716,140.4243707443324L232.55206186803184,63.7691224982309L232.9004718688329,141.32826069703734L232.92369920221964,11.663189679603022L233.5508372036616,141.63918677176866L233.73665587075553,150.82371389787372L233.96892920462292,115.01827464034665L234.22442987187705,143.66683776318678L234.71220387299854,145.47000157965792L235.10706854057312,147.9624909835632L235.13029587395985,125.38132683649577L235.8735705423355,89.2616446142507L235.89679787572226,-5.909879584121228L236.03616187604268,151.2885380011675L237.2439832121531,129.60449859073046L237.2904378789266,86.26117012585041L237.45302921263377,-159.82343636955244L237.52271121279398,134.96248225056272L237.68530254650116,133.05492538184626L238.3124405479431,140.1989996213312L238.80021454906463,131.52772241526998L239.03248788293203,35.30450320390315L239.40412521711986,28.749641748933357L239.4505798838933,41.686213942237714L239.4970345506668,-11.869733315530539L239.61317121760052,1.2628054611684831L240.35644588597614,-39.93323729998707L240.728083220164,-215.95139045096272L240.75131055355072,124.2954777688343L240.77453788693745,119.34855572974126L240.84421988709767,106.51066125044792L241.2158572212855,18.07914241254781L241.84299522272747,110.29181500757262L241.91267722288768,120.90668171615799L242.37722389062247,58.910410287442645L242.5165878909429,100.31582289236991L242.53981522432963,28.743407110169755L243.14372589238482,145.47079834587151L243.30631722609203,152.00639792077007L243.46890855979922,141.28418004217974L244.23541056156157,142.36354884571776L244.30509256172178,116.83301847957L244.74641189606984,-73.74747989467662L244.76963922945657,151.70637042899054L244.97868522993724,136.01018054473928L245.1412765636444,45.38219028290763L245.21095856380464,59.60247338467437L245.3735498975118,-4.7894397944867535L245.44323189767204,50.71175114646978L245.88455123202004,70.81746046319934L245.95423323218026,-53.94027513563782L246.2097338994344,146.596989483631L246.46523456668854,112.48624410212321L246.69750790055593,151.00003841256148L246.7439625673294,78.86220044348966L246.76718990071615,137.28100067042732L246.83687190087636,73.35850636185283L247.3943279021581,141.21126418304044L247.5104645690918,151.0779812524451L247.53369190247852,134.877606559087L247.6266012360255,141.67049490791402L248.06792057037353,144.44201472060934L248.0911479037603,136.97597491105316L248.30019390424093,90.09864486826524L248.48601257133484,149.17899682250288L248.7647405719757,150.99264027527616L249.62415190728504,101.99856281135072L249.69383390744528,72.14374643403582L249.90287990792592,62.142227475879764L249.92610724131265,84.54517677852245L250.0654712416331,146.99669320578602L250.11192590840656,75.82228034174452L250.32097190888723,-135.694219908234L251.1339285774231,122.0504043639768L251.2500652443568,134.2152550331616L251.7842939122518,125.56225872193815L251.85397591241198,141.84401785310388L251.92365791257222,133.89627563065966L252.13270391305286,103.50464351318584L252.78306924788157,123.79700384410685L253.34052524916333,151.27423070300767L253.57279858303067,140.57055043187077L254.85030191930136,-114.11429144097735L254.9896659196218,54.330176586487696L255.08257525316876,133.64796203770425L255.15225725332897,118.31745079320791L255.4077579205831,12.33508723803223L255.4774399207433,57.09993911651593" fill="none"></path></g></g></g></g></g></g><g transform="translate(51, 178)" clip-path="url(#clip_1)"><clipPath id="clip_1"><rect width="278" height="21"></rect></clipPath><g><g><line x1="0" y1="0" x2="0" y2="5" style="visibility: inherit;" fill="rgb(0, 0, 0)" stroke="rgb(204, 204, 204)" stroke-width="1px"></line><line x1="23.227333386739094" y1="0" x2="23.227333386739094" y2="5" style="visibility: inherit;" fill="rgb(0, 0, 0)" stroke="rgb(204, 204, 204)" stroke-width="1px"></line><line x1="46.45466677347819" y1="0" x2="46.45466677347819" y2="5" style="visibility: inherit;" fill="rgb(0, 0, 0)" stroke="rgb(204, 204, 204)" stroke-width="1px"></line><line x1="69.68200016021729" y1="0" x2="69.68200016021729" y2="5" style="visibility: inherit;" fill="rgb(0, 0, 0)" stroke="rgb(204, 204, 204)" stroke-width="1px"></line><line x1="92.90933354695638" y1="0" x2="92.90933354695638" y2="5" style="visibility: inherit;" fill="rgb(0, 0, 0)" stroke="rgb(204, 204, 204)" stroke-width="1px"></line><line x1="116.13666693369548" y1="0" x2="116.13666693369548" y2="5" style="visibility: inherit;" fill="rgb(0, 0, 0)" stroke="rgb(204, 204, 204)" stroke-width="1px"></line><line x1="139.36400032043457" y1="0" x2="139.36400032043457" y2="5" style="visibility: inherit;" fill="rgb(0, 0, 0)" stroke="rgb(204, 204, 204)" stroke-width="1px"></line><line x1="162.59133370717367" y1="0" x2="162.59133370717367" y2="5" style="visibility: inherit;" fill="rgb(0, 0, 0)" stroke="rgb(204, 204, 204)" stroke-width="1px"></line><line x1="185.81866709391275" y1="0" x2="185.81866709391275" y2="5" style="visibility: inherit;" fill="rgb(0, 0, 0)" stroke="rgb(204, 204, 204)" stroke-width="1px"></line><line x1="209.04600048065186" y1="0" x2="209.04600048065186" y2="5" style="visibility: inherit;" fill="rgb(0, 0, 0)" stroke="rgb(204, 204, 204)" stroke-width="1px"></line><line x1="232.27333386739096" y1="0" x2="232.27333386739096" y2="5" style="visibility: inherit;" fill="rgb(0, 0, 0)" stroke="rgb(204, 204, 204)" stroke-width="1px"></line><line x1="255.50066725413004" y1="0" x2="255.50066725413004" y2="5" style="visibility: inherit;" fill="rgb(0, 0, 0)" stroke="rgb(204, 204, 204)" stroke-width="1px"></line><line x1="278.72800064086914" y1="0" x2="278.72800064086914" y2="5" style="visibility: inherit;" fill="rgb(0, 0, 0)" stroke="rgb(204, 204, 204)" stroke-width="1px"></line></g><g transform="translate(0, 8)"><text style="text-anchor: middle; visibility: hidden; font-family: &quot;Helvetica Neue&quot;, sans-serif; font-size: 12px; font-weight: 200;" x="0" y="0" dx="0em" dy="0.95em" fill="rgb(50, 49, 63)" stroke="none" stroke-width="1px">-1k</text><text style="text-anchor: middle; visibility: inherit; font-family: &quot;Helvetica Neue&quot;, sans-serif; font-size: 12px; font-weight: 200;" x="23.227333386739094" y="0" dx="0em" dy="0.95em" fill="rgb(50, 49, 63)" stroke="none" stroke-width="1px">0</text><text style="text-anchor: middle; visibility: hidden; font-family: &quot;Helvetica Neue&quot;, sans-serif; font-size: 12px; font-weight: 200;" x="46.45466677347819" y="0" dx="0em" dy="0.95em" fill="rgb(50, 49, 63)" stroke="none" stroke-width="1px">1k</text><text style="text-anchor: middle; visibility: inherit; font-family: &quot;Helvetica Neue&quot;, sans-serif; font-size: 12px; font-weight: 200;" x="69.68200016021729" y="0" dx="0em" dy="0.95em" fill="rgb(50, 49, 63)" stroke="none" stroke-width="1px">2k</text><text style="text-anchor: middle; visibility: hidden; font-family: &quot;Helvetica Neue&quot;, sans-serif; font-size: 12px; font-weight: 200;" x="92.90933354695638" y="0" dx="0em" dy="0.95em" fill="rgb(50, 49, 63)" stroke="none" stroke-width="1px">3k</text><text style="text-anchor: middle; visibility: inherit; font-family: &quot;Helvetica Neue&quot;, sans-serif; font-size: 12px; font-weight: 200;" x="116.13666693369548" y="0" dx="0em" dy="0.95em" fill="rgb(50, 49, 63)" stroke="none" stroke-width="1px">4k</text><text style="text-anchor: middle; visibility: hidden; font-family: &quot;Helvetica Neue&quot;, sans-serif; font-size: 12px; font-weight: 200;" x="139.36400032043457" y="0" dx="0em" dy="0.95em" fill="rgb(50, 49, 63)" stroke="none" stroke-width="1px">5k</text><text style="text-anchor: middle; visibility: inherit; font-family: &quot;Helvetica Neue&quot;, sans-serif; font-size: 12px; font-weight: 200;" x="162.59133370717367" y="0" dx="0em" dy="0.95em" fill="rgb(50, 49, 63)" stroke="none" stroke-width="1px">6k</text><text style="text-anchor: middle; visibility: hidden; font-family: &quot;Helvetica Neue&quot;, sans-serif; font-size: 12px; font-weight: 200;" x="185.81866709391275" y="0" dx="0em" dy="0.95em" fill="rgb(50, 49, 63)" stroke="none" stroke-width="1px">7k</text><text style="text-anchor: middle; visibility: inherit; font-family: &quot;Helvetica Neue&quot;, sans-serif; font-size: 12px; font-weight: 200;" x="209.04600048065186" y="0" dx="0em" dy="0.95em" fill="rgb(50, 49, 63)" stroke="none" stroke-width="1px">8k</text><text style="text-anchor: middle; visibility: hidden; font-family: &quot;Helvetica Neue&quot;, sans-serif; font-size: 12px; font-weight: 200;" x="232.27333386739096" y="0" dx="0em" dy="0.95em" fill="rgb(50, 49, 63)" stroke="none" stroke-width="1px">9k</text><text style="text-anchor: middle; visibility: inherit; font-family: &quot;Helvetica Neue&quot;, sans-serif; font-size: 12px; font-weight: 200;" x="255.50066725413004" y="0" dx="0em" dy="0.95em" fill="rgb(50, 49, 63)" stroke="none" stroke-width="1px">10k</text><text style="text-anchor: middle; visibility: hidden; font-family: &quot;Helvetica Neue&quot;, sans-serif; font-size: 12px; font-weight: 200;" x="278.72800064086914" y="0" dx="0em" dy="0.95em" fill="rgb(50, 49, 63)" stroke="none" stroke-width="1px">11k</text></g><line x1="0" y1="0" x2="278.72800064086914" y2="0" fill="rgb(0, 0, 0)" stroke="rgb(204, 204, 204)" stroke-width="1px"></line></g></g></g></g></svg>