<svg viewBox="0 0 330 200" xmlns="http://www.w3.org/2000/svg"><g><g><g><g><g><line x1="71.90799903869629" y1="178.0640001296997" x2="66.90799903869629" y2="178.0640001296997" style="visibility: inherit;" fill="rgb(0, 0, 0)" stroke="rgb(204, 204, 204)" stroke-width="1px"></line><line x1="71.90799903869629" y1="165.3451429775783" x2="66.90799903869629" y2="165.3451429775783" style="visibility: inherit;" fill="rgb(0, 0, 0)" stroke="rgb(204, 204, 204)" stroke-width="1px"></line><line x1="71.90799903869629" y1="152.6262858254569" x2="66.90799903869629" y2="152.6262858254569" style="visibility: inherit;" fill="rgb(0, 0, 0)" stroke="rgb(204, 204, 204)" stroke-width="1px"></line><line x1="71.90799903869629" y1="139.9074286733355" x2="66.90799903869629" y2="139.9074286733355" style="visibility: inherit;" fill="rgb(0, 0, 0)" stroke="rgb(204, 204, 204)" stroke-width="1px"></line><line x1="71.90799903869629" y1="127.18857152121407" x2="66.90799903869629" y2="127.18857152121407" style="visibility: inherit;" fill="rgb(0, 0, 0)" stroke="rgb(204, 204, 204)" stroke-width="1px"></line><line x1="71.90799903869629" y1="114.46971436909267" x2="66.90799903869629" y2="114.46971436909267" style="visibility: inherit;" fill="rgb(0, 0, 0)" stroke="rgb(204, 204, 204)" stroke-width="1px"></line><line x1="71.90799903869629" y1="101.75085721697127" x2="66.90799903869629" y2="101.75085721697127" style="visibility: inherit;" fill="rgb(0, 0, 0)" stroke="rgb(204, 204, 204)" stroke-width="1px"></line><line x1="71.90799903869629" y1="89.03200006484985" x2="66.90799903869629" y2="89.03200006484985" style="visibility: inherit;" fill="rgb(0, 0, 0)" stroke="rgb(204, 204, 204)" stroke-width="1px"></line><line x1="71.90799903869629" y1="76.31314291272845" x2="66.90799903869629" y2="76.31314291272845" style="visibility: inherit;" fill="rgb(0, 0, 0)" stroke="rgb(204, 204, 204)" stroke-width="1px"></line><line x1="71.90799903869629" y1="63.594285760607036" x2="66.90799903869629" y2="63.594285760607036" style="visibility: inherit;" fill="rgb(0, 0, 0)" stroke="rgb(204, 204, 204)" stroke-width="1px"></line><line x1="71.90799903869629" y1="50.875428608485635" x2="66.90799903869629" y2="50.875428608485635" style="visibility: inherit;" fill="rgb(0, 0, 0)" stroke="rgb(204, 204, 204)" stroke-width="1px"></line><line x1="71.90799903869629" y1="38.15657145636422" x2="66.90799903869629" y2="38.15657145636422" style="visibility: inherit;" fill="rgb(0, 0, 0)" stroke="rgb(204, 204, 204)" stroke-width="1px"></line><line x1="71.90799903869629" y1="25.43771430424283" x2="66.90799903869629" y2="25.43771430424283" style="visibility: inherit;" fill="rgb(0, 0, 0)" stroke="rgb(204, 204, 204)" stroke-width="1px"></line><line x1="71.90799903869629" y1="12.718857152121416" x2="66.90799903869629" y2="12.718857152121416" style="visibility: inherit;" fill="rgb(0, 0, 0)" stroke="rgb(204, 204, 204)" stroke-width="1px"></line><line x1="71.90799903869629" y1="0" x2="66.90799903869629" y2="0" style="visibility: inherit;" fill="rgb(0, 0, 0)" stroke="rgb(204, 204, 204)" stroke-width="1px"></line></g><g transform="translate(61.90799903869629, 0)"><text style="text-anchor: end; visibility: hidden; font-family: &quot;Helvetica Neue&quot;, sans-serif; font-size: 12px; font-weight: 200;" x="0" y="178.0640001296997" dx="0em" dy="0.3em" fill="rgb(50, 49, 63)" stroke="none" stroke-width="1px">-2e+7</text><text style="text-anchor: end; visibility: inherit; font-family: &quot;Helvetica Neue&quot;, sans-serif; font-size: 12px; font-weight: 200;" x="0" y="165.3451429775783" dx="0em" dy="0.3em" fill="rgb(50, 49, 63)" stroke="none" stroke-width="1px">-1e+7</text><text style="text-anchor: end; visibility: hidden; font-family: &quot;Helvetica Neue&quot;, sans-serif; font-size: 12px; font-weight: 200;" x="0" y="152.6262858254569" dx="0em" dy="0.3em" fill="rgb(50, 49, 63)" stroke="none" stroke-width="1px">0</text><text style="text-anchor: end; visibility: inherit; font-family: &quot;Helvetica Neue&quot;, sans-serif; font-size: 12px; font-weight: 200;" x="0" y="139.9074286733355" dx="0em" dy="0.3em" fill="rgb(50, 49, 63)" stroke="none" stroke-width="1px">1e+7</text><text style="text-anchor: end; visibility: hidden; font-family: &quot;Helvetica Neue&quot;, sans-serif; font-size: 12px; font-weight: 200;" x="0" y="127.18857152121407" dx="0em" dy="0.3em" fill="rgb(50, 49, 63)" stroke="none" stroke-width="1px">2e+7</text><text style="text-anchor: end; visibility: inherit; font-family: &quot;Helvetica Neue&quot;, sans-serif; font-size: 12px; font-weight: 200;" x="0" y="114.46971436909267" dx="0em" dy="0.3em" fill="rgb(50, 49, 63)" stroke="none" stroke-width="1px">3e+7</text><text style="text-anchor: end; visibility: hidden; font-family: &quot;Helvetica Neue&quot;, sans-serif; font-size: 12px; font-weight: 200;" x="0" y="101.75085721697127" dx="0em" dy="0.3em" fill="rgb(50, 49, 63)" stroke="none" stroke-width="1px">4e+7</text><text style="text-anchor: end; visibility: inherit; font-family: &quot;Helvetica Neue&quot;, sans-serif; font-size: 12px; font-weight: 200;" x="0" y="89.03200006484985" dx="0em" dy="0.3em" fill="rgb(50, 49, 63)" stroke="none" stroke-width="1px">5e+7</text><text style="text-anchor: end; visibility: hidden; font-family: &quot;Helvetica Neue&quot;, sans-serif; font-size: 12px; font-weight: 200;" x="0" y="76.31314291272845" dx="0em" dy="0.3em" fill="rgb(50, 49, 63)" stroke="none" stroke-width="1px">6e+7</text><text style="text-anchor: end; visibility: inherit; font-family: &quot;Helvetica Neue&quot;, sans-serif; font-size: 12px; font-weight: 200;" x="0" y="63.594285760607036" dx="0em" dy="0.3em" fill="rgb(50, 49, 63)" stroke="none" stroke-width="1px">7e+7</text><text style="text-anchor: end; visibility: hidden; font-family: &quot;Helvetica Neue&quot;, sans-serif; font-size: 12px; font-weight: 200;" x="0" y="50.875428608485635" dx="0em" dy="0.3em" fill="rgb(50, 49, 63)" stroke="none" stroke-width="1px">8e+7</text><text style="text-anchor: end; visibility: inherit; font-family: &quot;Helvetica Neue&quot;, sans-serif; font-size: 12px; font-weight: 200;" x="0" y="38.15657145636422" dx="0em" dy="0.3em" fill="rgb(50, 49, 63)" stroke="none" stroke-width="1px">9e+7</text><text style="text-anchor: end; visibility: hidden; font-family: &quot;Helvetica Neue&quot;, sans-serif; font-size: 12px; font-weight: 200;" x="0" y="25.43771430424283" dx="0em" dy="0.3em" fill="rgb(50, 49, 63)" stroke="none" stroke-width="1px">1e+8</text><text style="text-anchor: end; visibility: inherit; font-family: &quot;Helvetica Neue&quot;, sans-serif; font-size: 12px; font-weight: 200;" x="0" y="12.718857152121416" dx="0em" dy="0.3em" fill="rgb(50, 49, 63)" stroke="none" stroke-width="1px">1.1e+8</text><text style="text-anchor: end; visibility: hidden; font-family: &quot;Helvetica Neue&quot;, sans-serif; font-size: 12px; font-weight: 200;" x="0" y="0" dx="0em" dy="0.3em" fill="rgb(50, 49, 63)" stroke="none" stroke-width="1px">1.2e+8</text></g><line x1="71.90799903869629" y1="0" x2="71.90799903869629" y2="178.0640001296997" fill="rgb(0, 0, 0)" stroke="rgb(204, 204, 204)" stroke-width="1px"></line></g></g><g transform="translate(71, 0)" clip-path="url(#clip_0)"><clipPath id="clip_0"><rect width="258" height="178"></rect></clipPath><g><g><g><line x1="0" y1="0" x2="0" y2="178.0640001296997" fill="rgb(0, 0, 0)" stroke="rgb(60, 60, 60)" stroke-width="1px" opacity="0.25"></line><line x1="21.507666746775307" y1="0" x2="21.507666746775307" y2="178.0640001296997" fill="rgb(0, 0, 0)" stroke="rgb(60, 60, 60)" stroke-width="1px" opacity="0.25"></line><line x1="43.015333493550614" y1="0" x2="43.015333493550614" y2="178.0640001296997" fill="rgb(0, 0, 0)" stroke="rgb(60, 60, 60)" stroke-width="1px" opacity="0.25"></line><line x1="64.52300024032593" y1="0" x2="64.52300024032593" y2="178.0640001296997" fill="rgb(0, 0, 0)" stroke="rgb(60, 60, 60)" stroke-width="1px" opacity="0.25"></line><line x1="86.03066698710123" y1="0" x2="86.03066698710123" y2="178.0640001296997" fill="rgb(0, 0, 0)" stroke="rgb(60, 60, 60)" stroke-width="1px" opacity="0.25"></line><line x1="107.53833373387656" y1="0" x2="107.53833373387656" y2="178.0640001296997" fill="rgb(0, 0, 0)" stroke="rgb(60, 60, 60)" stroke-width="1px" opacity="0.25"></line><line x1="129.04600048065186" y1="0" x2="129.04600048065186" y2="178.0640001296997" fill="rgb(0, 0, 0)" stroke="rgb(60, 60, 60)" stroke-width="1px" opacity="0.25"></line><line x1="150.55366722742718" y1="0" x2="150.55366722742718" y2="178.0640001296997" fill="rgb(0, 0, 0)" stroke="rgb(60, 60, 60)" stroke-width="1px" opacity="0.25"></line><line x1="172.06133397420246" y1="0" x2="172.06133397420246" y2="178.0640001296997" fill="rgb(0, 0, 0)" stroke="rgb(60, 60, 60)" stroke-width="1px" opacity="0.25"></line><line x1="193.56900072097778" y1="0" x2="193.56900072097778" y2="178.0640001296997" fill="rgb(0, 0, 0)" stroke="rgb(60, 60, 60)" stroke-width="1px" opacity="0.25"></line><line x1="215.0766674677531" y1="0" x2="215.0766674677531" y2="178.0640001296997" fill="rgb(0, 0, 0)" stroke="rgb(60, 60, 60)" stroke-width="1px" opacity="0.25"></line><line x1="236.58433421452838" y1="0" x2="236.58433421452838" y2="178.0640001296997" fill="rgb(0, 0, 0)" stroke="rgb(60, 60, 60)" stroke-width="1px" opacity="0.25"></line><line x1="258.0920009613037" y1="0" x2="258.0920009613037" y2="178.0640001296997" fill="rgb(0, 0, 0)" stroke="rgb(60, 60, 60)" stroke-width="1px" opacity="0.25"></line></g><g><line x1="0" y1="178.0640001296997" x2="258.0920009613037" y2="178.0640001296997" fill="rgb(0, 0, 0)" stroke="rgb(60, 60, 60)" stroke-width="1px" opacity="0.25"></line><line x1="0" y1="165.3451429775783" x2="258.0920009613037" y2="165.3451429775783" fill="rgb(0, 0, 0)" stroke="rgb(60, 60, 60)" stroke-width="1px" opacity="0.25"></line><line x1="0" y1="152.6262858254569" x2="258.0920009613037" y2="152.6262858254569" fill="rgb(0, 0, 0)" stroke="rgb(60, 60, 60)" stroke-width="1px" opacity="0.25"></line><line x1="0" y1="139.9074286733355" x2="258.0920009613037" y2="139.9074286733355" fill="rgb(0, 0, 0)" stroke="rgb(60, 60, 60)" stroke-width="1px" opacity="0.25"></line><line x1="0" y1="127.18857152121407" x2="258.0920009613037" y2="127.18857152121407" fill="rgb(0, 0, 0)" stroke="rgb(60, 60, 60)" stroke-width="1px" opacity="0.25"></line><line x1="0" y1="114.46971436909267" x2="258.0920009613037" y2="114.46971436909267" fill="rgb(0, 0, 0)" stroke="rgb(60, 60, 60)" stroke-width="1px" opacity="0.25"></line><line x1="0" y1="101.75085721697127" x2="258.0920009613037" y2="101.75085721697127" fill="rgb(0, 0, 0)" stroke="rgb(60, 60, 60)" stroke-width="1px" opacity="0.25"></line><line x1="0" y1="89.03200006484985" x2="258.0920009613037" y2="89.03200006484985" fill="rgb(0, 0, 0)" stroke="rgb(60, 60, 60)" stroke-width="1px" opacity="0.25"></line><line x1="0" y1="76.31314291272845" x2="258.0920009613037" y2="76.31314291272845" fill="rgb(0, 0, 0)" stroke="rgb(60, 60, 60)" stroke-width="1px" opacity="0.25"></line><line x1="0" y1="63.594285760607036" x2="258.0920009613037" y2="63.594285760607036" fill="rgb(0, 0, 0)" stroke="rgb(60, 60, 60)" stroke-width="1px" opacity="0.25"></line><line x1="0" y1="50.875428608485635" x2="258.0920009613037" y2="50.875428608485635" fill="rgb(0, 0, 0)" stroke="rgb(60, 60, 60)" stroke-width="1px" opacity="0.25"></line><line x1="0" y1="38.15657145636422" x2="258.0920009613037" y2="38.15657145636422" fill="rgb(0, 0, 0)" stroke="rgb(60, 60, 60)" stroke-width="1px" opacity="0.25"></line><line x1="0" y1="25.43771430424283" x2="258.0920009613037" y2="25.43771430424283" fill="rgb(0, 0, 0)" stroke="rgb(60, 60, 60)" stroke-width="1px" opacity="0.25"></line><line x1="0" y1="12.718857152121416" x2="258.0920009613037" y2="12.718857152121416" fill="rgb(0, 0, 0)" stroke="rgb(60, 60, 60)" stroke-width="1px" opacity="0.25"></line><line x1="0" y1="0" x2="258.0920009613037" y2="0" fill="rgb(0, 0, 0)" stroke="rgb(60, 60, 60)" stroke-width="1px" opacity="0.25"></line></g></g></g><g><g><line x1="0" y1="152.6262858254569" x2="258.0920009613037" y2="152.6262858254569" fill="rgb(0, 0, 0)" stroke="rgb(153, 153, 153)" stroke-width="1.5px"></line></g></g><g><g><line x1="21.507666746775307" y1="0" x2="21.507666746775307" y2="178.0640001296997" fill="rgb(0, 0, 0)" stroke="rgb(153, 153, 153)" stroke-width="1.5px"></line></g></g><g><g><g><g><g><path style="fill: none;" stroke="rgb(255, 112, 67)" stroke-width="2px" d="M21.894804748217265,152.62622574997215L22.023850748697917,152.6262012943408L22.367973416646322,152.6260883696659L22.41098875013987,152.626018192127L22.475511750380196,152.6259316199698L22.712096084594727,152.62574093268967L23.034711085796356,152.62542096146734L23.09923408603668,152.62519199221154L23.529387420972185,152.62461344432992L23.78747942193349,152.62396512921651L24.217632756868998,152.62304187183793L24.841355092525482,152.62067961513313L24.905878092765807,152.61901993303232L25.099447093486788,152.61754238586335L25.44356976143519,152.61540348650857L25.486585094928742,152.61400174091725L26.432922431786857,152.60737485921607L26.54046076552073,152.6026331794298L26.86307576672236,152.59263215532147L26.992121767203013,152.57889806628648L27.099660100936887,152.57066553392605L27.25021376816432,152.56139096583735L27.379259768644967,152.55091906694207L28.132028104782105,152.4556396366028L28.175043438275654,152.39070220002486L28.34710477224986,152.28885635987874L28.79876577393214,152.0528107967151L28.97082710790634,151.8653489577404L29.40098044284185,151.5383361126085L30.562394447167716,150.66330410245533L30.583902113914487,150.1254310870493L30.94953244860967,149.36586224123891L31.014055448849998,148.83428211209068L31.078578449090323,148.3923035245815L31.401193450291952,147.61442458148488L31.46571645053228,147.09032805527738L31.48722411727905,146.72254506218658L31.702300784746807,146.08941112325965L32.110946452935536,144.5295749080455L32.56260745461782,142.07650761062513L32.928237789312995,139.85117568075265L33.03577612304687,138.26441482702717L33.61648312520981,136.19726202189494L33.83155979267756,134.14087606248466L33.960605793158216,132.44647024933457L34.111159460385636,130.90154546843092L34.132667127132414,129.9300888450363L34.842420129776,126.90796599111133L34.88543546326955,125.01029706529715L35.14352746423085,123.24934676673809L35.294081131458285,121.901221716358L35.315588798205056,121.04019835430168L35.35860413169861,120.51509221052618L35.423127131938934,120.11981527099151L35.46614246543248,119.84647566002175L35.72423446639379,119.17176195587925L35.939311133861544,118.68945757818318L36.86414080397288,119.2517977995461L37.03620213794708,119.75909025111613L37.208263471921285,120.15179055366531L37.40183247264226,120.52681449712493L37.68143214035034,120.82943424200009L37.767462807337445,120.96375502585076L37.96103180805842,120.97197618145701L38.04706247504552,120.88247085171199L38.09007780853908,120.79228081397551L38.13309314203262,120.72356147328873L38.283646809260055,120.49420881401963L38.391185142993926,120.21576385698415L38.434200476487476,119.96066814615017L38.54173881022136,119.74375798671186L38.5847541437149,119.65680919997175L38.67078481070201,119.51605461412603L38.75681547768911,119.33765834867589L38.88586147816976,119.03616452617842L38.90736914491654,118.8347562773736L39.40204548009237,118.39726774797435L39.48807614707947,118.18955525684325L40.197829149723056,118.12809774685064L40.348382816950476,118.06131968142756L40.47742881743113,117.98487996324435L40.77853615188599,117.86574534005248L40.86456681887309,117.78567170624541L41.01512048610052,117.71805269604974L41.058135819594064,117.67561924924527L41.23019715356827,117.62685721735134L41.531304488023125,117.63942367056545L41.552812154769896,117.64905045257544L41.76788882223765,117.68558784093526L41.83241182247797,117.7197712522458L42.02598082319896,117.81569598187562L42.198042157173155,117.89788368467717L42.39161115789414,117.98070082862252L42.41311882464091,118.03808754982961L42.54216482512156,118.13002713203574L42.56367249186833,118.19211909722733L42.671210825602216,118.2851774989658L43.05834882704417,118.54104455021172L43.1228718272845,118.78623823327746L43.316440828005476,119.19289849468882L43.961670830408735,120.89503734590059L44.24127049811681,122.67229187793257L44.37031649859746,123.93719816739926L44.43483949883779,124.90944938562319L44.47785483233134,125.52970616997874L44.56388549931844,126.08647190838366L44.692931499799094,126.74368291637057L44.80046983353297,127.3173942474191L45.01554650100072,127.94666793247298L45.14459250148138,128.42405583948658L45.252130835215254,128.82052806574063L45.467207502683,129.2008809167511L46.37052950604757,130.1554385778293L46.45656017303467,131.06439107574968L46.478067839781446,131.6186148990798L46.49957550652822,131.97369667428288L46.88671350797018,132.28881151552477L47.166313175678255,132.5986637753293L47.44591284338633,132.9178748592177L48.00511217880249,132.10127741894215L48.2632041797638,130.67817914088567L48.499788513978324,128.958273857901L48.56431151421865,127.70883009074034L48.62883451445898,126.76070183596795L49.05898784939448,125.9846438576736L49.18803384987513,125.61910545897564L49.33858751710256,125.04708749341995L49.46763351758322,124.42648352714161L49.811756185531614,122.95131279658278L49.87627918577194,122.0093021213146L50.11286351998647,120.7048940536267L50.17738652022679,119.62710457151897L50.24190952046712,118.70651553960911L50.263417187213896,118.05169697222856L51.29578519105912,113.1780603130165L51.36030819129944,110.09935336066815L51.42483119153977,108.1396680368115L51.44633885828654,106.89307284116596L51.91950752671559,105.73943098602028L52.1775995276769,105.05817595001511L52.39267619514466,104.75139763751487L52.47870686213176,104.26756855461923L53.01639853080113,104.13512534975112L53.03790619754791,104.00483894368466L53.27449053176244,103.62980897411427L53.446551865736645,103.02294648045962L53.532582532723744,102.47809911167805L53.5755978662173,101.93670191841287L54.2638432021141,98.29270993969328L54.34987386910121,95.8086487247247L54.88756553777059,92.74047948387435L55.231688205718996,89.51784810375199L55.25319587246577,87.49530646619664L55.57581087366739,83.7587672281114L55.6618415406545,81.1760190139263L56.005964208602904,79.48838371292614L56.027471875349676,78.51107751950605L56.50064054377874,78.59882172275644L56.608178877512614,78.9058128274748L56.71571721124649,79.33529624678161L56.78024021148682,79.78864302170821L56.8877785452207,80.30145263033673L56.95230154546102,80.74263959021678L57.210393546422324,81.35686189065083L57.38245488039652,81.97409675113813L57.53300854762396,82.07199974723204L57.68356221485138,81.2783542638104L57.877131215572355,81.1154822833342L57.963161882559454,81.1273976787169L58.00617721605301,81.30269427753187L58.049192549546554,81.53101112422482L58.11371554978688,81.9364322036818L58.264269217014316,82.76470343994215L58.45783821773529,83.91322576087008L58.67291488520304,85.4262870699127L58.75894555219014,86.63937846200633L58.8019608856837,87.55977644437421L58.86648388592402,88.36563738547679L58.9740222196579,89.24554883463279L59.038545219898225,90.01823093593894L59.060052886644996,90.56238821031272L59.49020622158051,92.53093180365303L59.683775222301485,94.43586675250444L59.81282122278214,96.13606222132974L59.96337489000956,97.70923814695918L59.98488255675633,98.72858382289466L60.17845155747732,99.65362660404425L60.329005224704744,100.61448963677817L60.78066622638702,102.72883328208725L60.866696893374126,104.24996067667948L61.081773560841874,105.79734878566856L61.167804227828974,106.96304836995483L61.36137322854996,108.14152947145838L61.64097289625804,109.53241034808146L61.70549589649836,110.48183797704183L61.83454189697902,111.24024137704698L61.87755723047256,111.74797509845988L62.60881789986293,112.63455086892006L62.737863900343584,113.19363531983308L63.10349423503876,113.64936364367992L63.31857090250651,113.9642987075954L63.383093902746836,114.17850616863737L63.426109236240386,114.31923769560285L63.81324723768234,114.50549564207347L64.1143545721372,114.66068886841032L64.15736990563074,114.76005128933699L64.5445079070727,114.77324694830489L64.63053857405981,114.74348701876676L64.80259990803401,114.58635245266817L65.1682302427292,114.04511886258057L65.29727624320984,113.56486066334045L65.81346024513245,112.36667253207068L66.09305991284053,111.26587647607064L66.15758291308086,110.47663313266256L66.17909057982763,109.93872767441081L66.22210591332117,109.50534458735633L66.26512124681473,109.18180795510024L66.35115191380183,108.84749364467304L66.43718258078893,108.50461055463308L66.58773624801636,107.9325043540108L66.91035124921798,106.83645930170627L67.64161191860835,103.37454201511522L67.72764258559545,100.927655483257L67.87819625282287,98.73022226002227L68.07176525354384,96.38158780720536L68.32985725450516,93.5954066797465L68.54493392197291,90.6681677208481L68.58794925546646,88.65545695569949L68.63096458896001,87.1860519962139L68.73850292269388,85.6457248463285L68.80302592293421,84.35546763745636L68.97508725690841,82.540607579535L69.06111792389552,80.91445719376233L69.49127125883102,77.25358422553141L69.5988095925649,74.28698146693483L69.62031725931168,72.34613542637969L69.66333259280523,70.8595090083034L69.72785559304555,69.51814642652457L69.81388626003266,68.12465336306278L69.83539392677943,67.176179808241L69.98594759400686,65.67505375320619L70.05047059424717,64.32249849325045L70.15800892798106,62.820329358899656L70.56665459616978,58.97488310485326L70.78173126363754,55.10516988934451L70.9107772641182,51.74398951384222L71.03982326459885,48.759752737436116L71.12585393158595,46.23531836879502L71.38394593254725,42.91493005495798L71.40545359929403,40.726533624044265L71.9431452679634,35.332724726363665L72.1367142686844,30.748627182887873L72.88948260482152,24.184542458276013L72.9109902715683,20.115008029173424L72.95400560506185,17.459423349978948L73.90034294191996,11.212012753563727L74.07240427589416,6.661826621324906L74.2229579431216,3.363363143807618L74.26597327661514,1.21536642421421L74.30898861010868,-0.19668038587158776L79.79344363053639,-6.484901870511521L80.11605863173803,1.336879540335275L80.37415063269933,13.67176336658099L80.43867363293965,22.668578527125106L80.73978096739451,32.788037639416274L81.49254930353165,41.53317210978972L81.51405697027843,46.786626465709844L81.5355646370252,49.97301760838408L81.92270263846716,52.24384559838725L82.24531763966878,53.96650786666294L83.27768564351399,56.11027627044841L83.47125464423497,57.504311820683895L83.66482364495594,58.45557323831457L83.7938696454366,59.12681923548041L84.2455306471189,59.98733173029623L84.28854598061244,60.6261676094464L84.31005364735921,61.03585516923002L85.32091398445765,62.325708830797794L85.49297531843185,63.32712780440701L85.98765165360768,64.52986399925096L86.18122065432865,65.6180692843329L86.26725132131577,66.35088315843454L86.35328198830287,66.89856170267704L86.61137398926418,67.5849736836089L86.6758969895045,68.10685831919669L86.84795832347871,68.55620907815717L86.91248132371902,68.86600705209989L87.42866532564163,70.41861759572389L87.51469599262873,71.7718944196683L87.55771132612229,72.8439947205787L88.159925995032,79.23756011052483L88.65460233020784,83.91080771685084L88.97721733140945,86.52153750784284L89.14927866538365,87.85756056627021L89.25681699911753,88.46234347309185L89.36435533285142,88.65806504901735L89.49340133333206,88.5854762337028L89.83752400128047,88.07673023542095L90.22466200272243,87.40557230877963L90.2461696694692,86.97095016881727L90.39672333669662,86.47982515420351L90.46124633693695,86.07293116002778L90.97743033885955,85.1287854961782L91.04195333909989,84.46089522858314L91.1925070063273,83.89553428610051L91.25703000656765,83.50885298073634L91.27853767331442,83.24009992795965L91.32155300680796,83.03686162257162L91.34306067355473,82.90624539626964L91.88075234222411,82.56292253334688L92.0743213429451,82.32155411257317L92.59050534486771,82.02542139535873L92.7625666788419,81.85811831744907L93.06367401329676,81.799944761294L93.08518168004355,81.76940777439273L93.45081201473872,81.79250225117354L94.0745343503952,81.90459124981645L94.11754968388874,81.98646624718428L94.33262635135651,82.0744030925818L94.69825668605169,82.20375917509898L94.80579501978556,82.30525782083238L95.27896368821462,82.44750681861741L95.45102502218883,82.55823288107833L95.68760935640336,82.65670375844107L95.7306246898969,82.71874926982086L95.88117835712433,82.76308896156823L96.01022435760498,82.81785130884285L96.16077802483241,82.9199461055095L96.28982402531305,83.02645972978245L96.3543470255534,83.11457646829528L96.71997736024858,83.35792615113027L96.97806936120986,83.62689576672658L97.04259236145019,83.81757567791138L97.19314602867762,84.01901723785139L97.53726869662603,84.3849552184739L97.58028403011957,84.62540135278262L97.70933003060023,84.86447234205404L97.79536069758734,85.07242294407531L98.13948336553572,85.46387009195088L98.50511370023091,85.92194313110168L98.93526703516643,86.51984796127319L99.32240503660839,87.18460452743898L99.36542037010193,87.62074812129133L99.40843570359547,87.92531208883396L99.47295870383581,88.16313634843969L99.53748170407613,88.36157612883801L99.90311203877131,88.83108215943511L100.13969637298584,89.33611262924747L100.4408037074407,89.90215687704077L101.08603370984395,90.72536047969182L101.1290490433375,91.24251032696795L101.64523304526011,91.88530372156438L101.73126371224721,92.33054674515421L101.77427904574076,92.61923525079808L101.90332504622141,92.89079666273604L101.96784804646174,93.09894752081175L102.0108633799553,93.25356556610168L102.20443238067628,93.46975814806267L102.3549860479037,93.67709739119296L102.63458571561178,93.94703315313143L102.80664704958598,94.21505970385746L103.08624671729405,94.51920799682036L103.12926205078762,94.72286318591637L103.19378505102793,94.88472488856857L103.53790771897634,95.14771412257787L103.64544605271021,95.34889015846647L103.68846138620377,95.4902613791004L103.90353805367153,95.6733082839866L103.98956872065861,95.81653309327406L104.6132910563151,96.13545098665053L104.72082939004898,96.36268517998253L104.8713830572764,96.55932325396851L105.81772039413451,96.88898451168001L105.98978172810872,97.11203582906815L106.14033539533615,97.25357526444381L106.22636606232327,97.34514325664546L106.46295039653778,97.39409906654494L106.59199639701843,97.41673868075402L106.72104239749908,97.42453486052098L107.19421106592814,97.43658543549508L107.43079540014267,97.46442236408312L107.53833373387656,97.53320671501103L107.73190273459753,97.70756134175615L107.7534104013443,97.8855934663367L108.0115024023056,98.43168136677642L108.24808673652014,99.41499424575781L108.31260973676046,100.1637580807823L108.5276864042282,101.13372028855342L109.53854674132666,102.91598328522177L109.64608507506053,104.04051853807442L109.6675927418073,104.7243728467298L109.88266940927505,105.21470637607275L111.45272908178966,106.30379640036035L111.68931341600418,107.16272813101402L111.71082108275095,107.69255207126818L111.75383641624451,108.04505190196016L111.79685174973805,108.2848344686474L111.86137474997838,108.46189513828391L111.88288241672515,108.58643855429628L112.42057408539453,108.93037498691125L112.52811241912842,109.20573003272474L112.59263541936875,109.39430098699559L112.76469675334295,109.58982715861238L113.00128108755747,109.83226589070216L113.19485008827846,110.12263863077015L113.25937308851879,110.32583074386062L113.28088075526556,110.45650879553843L113.60349575646718,110.70066166790012L113.9476184244156,111.01789641727007L114.07666442489624,111.27475688979764L114.16269509188335,111.46754765663378L114.35626409260432,111.68002279474884L114.39927942609786,111.82513316110499L114.59284842681885,112.00675645253041L114.67887909380596,112.15822972542804L114.91546342802047,112.34048087140461L115.47466276343664,112.62882149192093L115.66823176415761,112.86036720242191L115.99084676535925,113.08088355358194L116.14140043258668,113.25174879909463L116.27044643306732,113.38913084261047L116.35647710005442,113.49599757209779L116.3779847668012,113.5649029526051L116.78663043498993,113.70015306454358L116.85115343523024,113.79881038419944L117.62542943811417,113.8656594929814L117.75447543859481,113.85006748648426L118.07709043979645,113.57728745331983L118.12010577328999,113.35079947168397L118.48573610798518,112.5165427267195L118.50724377473196,111.98533928652992L118.91588944292069,111.00875723016557L118.93739710966746,110.39043290859766L119.00192010990779,109.91390436156861L119.19548911062876,109.36175408042584L119.4320734448433,108.74740930709972L119.96976511351266,107.81410757073844L120.03428811375301,107.18571332256326L120.27087244796753,106.54495890192321L120.33539544820785,106.10835079514692L120.3784107817014,105.80574460369154L120.42142611519496,105.5873124832143L120.67951811615626,105.2349105011896L121.04514845085143,104.74480423931466L121.49680945253372,104.10600654292145L121.64736311976115,103.6261195561923L121.81942445373535,103.23163793651149L121.90545512072245,102.93915896969094L122.05600878794988,102.6737604621274L122.07751645469665,102.50532104507973L122.09902412144343,102.38988813879494L122.31410078891118,102.21694223650283L122.87330012432734,101.88962399178759L122.98083845806121,101.64525955079777L123.32496112600963,101.37463101146214L123.56154546022415,101.14688913718457L123.64757612721127,100.9806385832022L123.66908379395804,100.87503757652279L123.84114512793224,100.7401868202345L123.97019112841288,100.59833167302284L124.0347141286532,100.48230260423905L124.22828312937419,100.33835616177177L124.31431379636129,100.21452566568126L124.46486746358872,100.07461841529346L124.48637513033549,99.98136182660826L124.61542113081615,99.87790650321399L124.7444671312968,99.76585532312959L124.78748246479034,99.68128626900918L124.85200546503067,99.61162121211173L125.60477380116781,99.40600329785391L125.86286580212912,99.24910564184624L126.27151147031785,99.07434373901721L126.31452680381139,98.95812916663722L126.76618780549367,98.84175783026097L127.19634114042918,98.87017548107819L127.7125251423518,99.07983637424599L127.77704814259211,99.23365713124136L128.05664781030018,99.4129384282905L128.2287091442744,99.57686293629818L128.42227814499537,99.83165347902246L128.4868011452357,100.06536682569875L128.52981647872926,100.23827517402549L128.55132414547603,100.34961690202132L129.49766148233414,101.58359381185187L129.6267074828148,102.45895450486563L129.6912304830551,103.08434260458687L129.84178415028254,103.64095043744314L130.12138381799062,104.38140777672156L130.16439915148416,104.92289087923942L130.18590681823093,105.29727235770048L130.3364604854584,105.79930664182487L130.72359848690033,106.86190649166552L131.21827482207615,108.37893162077052L131.32581315581004,109.45043299951668L131.75596649074552,110.63267340302009L131.79898182423912,111.38354623998669L131.92802782471975,111.93487451641148L132.4872271601359,112.36082176137568L132.5947654938698,112.57726588624568L132.96039582856497,112.36894201952708L133.34753383000694,111.51259204556892L133.5195951639811,110.54280797976476L134.01427149915696,108.25783779723602L134.10030216614405,106.5440387346005L134.18633283313116,105.19026644485069L134.20784049987793,104.29239193475557L134.7670398352941,101.33495370684531L135.26171617046992,97.59911682617908L135.8854385061264,93.34914435208783L136.12202284034092,89.75313356520259L136.46614550828934,85.74920894845806L136.7672528427442,81.60535569686854L136.78876050949097,79.00076447945155L137.21891384442645,74.55793342032068L137.73509784634908,67.98044749934142L138.0792205142975,61.215371731123724L138.48786618248621,53.973233853703135L138.55238918272656,49.175485415378375L138.6599275164604,45.47001295667269L139.4557111860911,38.00938900860589L139.60626485331855,32.62321952504598L139.69229552030563,28.91685008599285L139.82134152078626,26.005428689762994L139.95038752126695,23.649092287329722L140.0579258550008,21.743410521945748L140.12244885524115,20.28295800173015L140.1654641887347,19.21063700794943L140.6816481906573,17.102223359368168L140.85370952463148,15.607258933251956L141.21933985932668,15.890858843562171L141.32687819306054,16.527843582591146L141.3698935265541,16.90805638934424L141.6279855275154,17.136151513121774L141.67100086100896,17.25515334696388L141.80004686148962,17.783208224424612L142.0581388624509,18.26980635111616L142.1656771961848,18.596389008824872L142.38075386365253,18.874362004469845L142.5958305311203,19.20892482533904L143.19804520003,20.410142066566408L143.24106053352358,21.229591092974772L143.32709120051067,21.895828349495503L143.6497062017123,23.051266179889808L144.53152053833008,26.55150942599954L144.5960435385704,28.90763611021754L144.98318154001234,31.621268862449483L145.37031954145434,34.46483401300537L145.7359498761495,37.68417522156108L145.80047287638982,39.876799385696074L145.9080112101237,41.62601568746436L146.01554954385756,43.09067675586769L146.40268754529953,45.2243341586923L146.4241952120463,46.57154578498444L146.78982554674147,48.26442552282117L146.8543485469818,49.43822128719262L147.00490221420924,50.45270861923004L147.58560921637218,51.93849340766279L147.62862454986572,52.87544284386411L147.77917821709315,53.6499095641167L148.1663162185351,54.712095050052014L148.35988521925609,55.71815144816752L148.55345421997706,56.744767670522066L148.76853088744483,57.747984886365444L149.00511522165934,58.865543789869875L149.09114588864645,59.74924717784211L149.11265355539322,60.339559196863505L149.52129922358196,61.85865127221054L149.62883755731582,63.09520864629559L149.67185289080936,63.97212575793064L149.75788355779648,64.73893308236694L149.95145255851745,65.8552453855296L150.3385905599594,67.76548357281072L150.7687438948949,69.98139022758144L150.8762822286288,71.63774779873906L151.06985122934978,73.05367577259824L151.1988972298304,74.10971150142987L151.22040489657718,74.77612520499272L151.30643556356432,75.28047562752656L151.37095856380463,75.66041042748033L151.8441272322337,76.34115448199954L152.23126523367563,77.04517087478919L152.3172959006627,77.52233081171433L152.42483423439663,77.9039551169788L152.76895690234502,78.35924192174234L152.81197223583857,78.65584112196612L153.0270489033063,78.9667869774658L153.156094903787,79.22548567344674L153.19911023728054,79.39926221237452L153.32815623776116,79.57940171494073L153.3711715712547,79.70469148643588L153.41418690474828,79.79980241229605L153.6722789057096,79.97653408095076L153.71529423920313,80.10128506478573L153.75830957269667,80.19360831228805L154.25298590787253,80.36614395266906L154.4465549085935,80.49641156722569L154.5110779088338,80.57626323520664L154.8552005767822,80.63446124765983L155.09178491099675,80.67583309449645L155.1348002444903,80.70132165320462L155.26384624497098,80.71768724246458L155.54344591267903,80.71119593360869L155.65098424641292,80.69831654760289L155.80153791364035,80.68200928371887L155.93058391412097,80.66393426554244L156.21018358182906,80.62740326824071L156.76938291724525,80.53830468389073L157.26405925242105,80.42923665479454L157.35008991940816,80.3505397356586L157.37159758615493,80.30007166179753L157.52215125338236,80.23915770440713L157.88778158807756,80.13758239214269L158.12436592229207,80.03649852662907L158.3609502565066,79.9524333000581L158.511503923734,79.90732387401657L158.6405499242147,79.88532744609819L159.1567339261373,79.9390755483445L160.3396555972099,80.21423016109208L160.42568626419705,80.39533851366657L160.7052859319051,80.61869912648339L161.02790093310674,80.9805499086023L161.19996226708096,81.39828457806546L161.22146993382773,81.66853887498051L161.30750060081482,81.89890522780783L161.5225772682826,82.23334953262997L161.73765393575033,82.69103674583617L161.7591616024971,82.97643669964205L161.78066926924387,83.16092870356952L161.95273060321807,83.48264704372542L162.38288393815358,84.21124978983191L162.89906794007618,85.42608509913656L163.04962160730364,86.29170280651034L163.11414460754395,86.84471022931342L163.32922127501172,87.29291562863432L163.5227902757327,87.64054926133562L163.587313275973,87.88441256820495L163.80238994344077,88.16226999050238L163.90992827717463,88.36515076857002L164.68420428005854,88.79547534022969L164.87777328077954,89.1127161056685L164.92078861427308,89.30799344648963L165.00681928126016,89.46185528012906L165.13586528174082,89.57792917045573L165.20038828198116,89.65658863060116L165.3509419492086,89.75097635426566L165.52300328318276,89.85481935119586L165.5875262834231,89.93219445130784L165.7595876173973,90.03788735068676L165.8456182843844,90.13865786501562L165.93164895137153,90.2354228444508L166.42632528654735,90.73404269368996L166.51235595353444,91.06679238611504L166.6629096207619,91.23981400223641L166.74894028774898,91.23800144204944L166.9855246219635,90.62231634315816L167.2436166229248,88.6363731350802L167.5877392908732,84.29747207998669L168.1254309595426,77.79307277181479L168.4480459607442,73.97264584452583L168.74915329519908,71.9994274659391L168.92121462917328,71.03018057242916L169.09327596314748,70.64304576419055L169.22232196362813,70.50299592626311L169.24382963037493,70.42928763046275L169.80302896579107,70.90322482332566L170.10413630024593,71.50628506896696L170.6418279689153,72.4851587646869L171.00745830361046,73.4406501438042L171.26555030457178,74.14984952122498L171.33007330481212,74.62109801792792L171.45911930529277,74.9618715597862L171.84625730673474,75.22626693980199L171.88927264022828,75.38752323487623L172.27641064167022,75.48355661585165L172.3624413086573,75.53156322344705L172.8141023103396,75.43775333502357L172.90013297732673,75.34123918306017L173.05068664455413,75.21331389201399L173.33028631226222,75.0194048154038L173.45933231274287,74.8349269954452L173.76043964719773,74.5209034254248L174.01853164815904,74.19494043960951L174.34114664936067,73.8405560152275L174.51320798333487,73.55482347473935L174.53471565008164,73.37444208511425L175.0078843185107,73.08163516133045L175.0939149854978,72.86555795176217L175.39502231995263,72.67225221971198L175.65311432091394,72.53657388455893L175.67462198766071,72.45507123766133L175.82517565488817,72.44992048310894L176.126282989343,72.68346792897269L176.25532898982365,72.99765548288062L176.40588265705108,73.45719973857706L176.44889799054462,73.81331964428206L176.64246699126562,74.5711592421357L176.68548232475916,75.12681613134428L176.70698999150594,75.55450481926954L177.11563565969468,76.77848174674075L177.180158659935,77.5976711376624L177.373727660656,78.24599708830671L177.65332732836407,78.83719196215489L178.16951133028667,79.51598943673415L178.51363399823506,80.02499842852721L178.7502183324496,80.41657051952869L179.13735633389157,80.7718056725486L179.3524330013593,81.07361042632228L179.37394066810606,81.2665167281951L179.50298666858674,81.42345943140596L179.65354033581417,81.56765594982606L179.73957100280126,81.69874277135627L179.76107866954803,81.79296478044576L179.7825863362948,81.86766865398124L180.25575500472388,82.1211148306888L180.27726267147065,82.28466817347596L180.36329333845774,82.4471209660294L180.40630867195128,82.58131045589678L180.59987767267228,82.8003884671753L180.68590833965936,83.02012042271528L181.30963067531587,83.60121201584079L181.33113834206264,83.9641324418979L181.5247073427836,84.29164131219498L181.58923034302393,84.51168974771608L181.73978401025138,84.69769763878234L181.9548606777191,84.85624818392486L181.97636834446587,84.95302483988016L182.01938367795944,85.02082839048899L182.12692201169332,85.07654522751669L182.25596801217398,85.11604578587483L182.34199867916107,85.14589390768279L182.3850140126546,85.16598838918058L182.729136680603,85.19917466108895L182.8581826810837,85.22751953528008L182.87969034783046,85.24607307282449L183.05175168180466,85.26599036436325L183.46039734999337,85.30209232275551L183.82602768468857,85.33702180957195L184.38522702010474,85.32124947722366L184.87990335528056,85.21886923002127L185.15950302298864,85.09188096937781L185.22402602322896,85.00619465801338L185.89076369237898,84.8230724915788L185.91227135912578,84.71049261891606L186.25639402707418,84.53178798886032L186.27790169382095,84.41614837991789L186.49297836128872,84.24265924249946L186.55750136152903,84.1073831923457L186.60051669502258,84.00297359643076L186.83710102923712,83.80712986173339L186.96614702971777,83.61400848888273L187.0306700299581,83.4672603850584L187.11670069694517,83.33108540231736L187.50383869838714,83.00533505167209L187.52534636513394,82.7967203153782L187.61137703212103,82.61194378642702L187.67590003236134,82.45572954701186L187.7189153658549,82.33253192009556L188.02002270030977,82.01869296269675L188.10605336729685,81.75869796927954L188.3426377015114,81.39490333760358L188.4071607017517,81.11539899777625L188.83731403668722,80.53919926242801L189.00937537066142,80.01256232705302L189.22445203812916,79.45866834650045L189.24595970487593,79.09831180710849L189.48254403909047,78.60678244903278L189.9772203742663,77.68303436150073L190.08475870800018,76.98403473950466L190.45038904269535,76.04890057141708L191.39672637955348,74.12344689617645L191.41823404630026,72.9481928576918L191.50426471328734,72.17837979985677L191.59029538027445,71.71763767980802L191.97743338171642,71.6075550593285L192.10647938219705,71.65725522719367L193.03130905230842,74.00303269407972L193.20337038628261,76.3512591097994L193.37543172025678,79.3573435696746L193.39693938700358,81.32795315717273L193.76256972169878,86.18680937287525L194.04216938940684,90.274317397642L194.12820005639395,92.84228705025473L194.36478439060846,94.4867000548807L194.62287639156978,95.48600159425978L194.6873993918101,96.12396090621233L194.73041472530363,96.51305318659988L194.81644539229075,96.78091051965748L194.98850672626494,97.02194704617911L196.27896673107145,97.36977356402296L196.40801273155213,97.6060500620865L196.4295203982989,97.74301128544684L196.79515073299407,97.75062092126016L196.9457044002215,97.71166582609932L197.44038073539735,98.17692073553015L197.52641140238444,98.57591380580163L197.76299573659895,99.2563528086058L197.8275187368393,99.9140686118414L198.1931490715345,100.80416778794938L198.32219507201512,101.38063501588506L198.6017947397232,101.67476893670019L199.03194807465871,101.6416140330823L199.22551707537968,101.52907693541552L199.56963974332808,101.27092851585374L199.61265507682162,101.09659691031966L199.80622407754262,100.85388540344717L199.99979307826362,100.56086220755917L200.1718544122378,100.2555845693378L200.6020077471733,99.7521591983317L200.64502308066685,99.41816438164763L200.70954608090716,99.16345898910619L200.75256141440076,98.96680148429228L200.8816074148814,98.72652687123485L201.1396994158427,98.32418151331518L201.16120708258947,98.06293288140608L201.3117607498169,97.72295686363574L201.3762837500572,97.43461165227208L201.4838220837911,97.11021756506933L201.63437575101852,96.69238653740797L201.67739108451207,96.37470736652237L202.7742820885976,94.53685930653975L203.01086642281214,93.11649243438737L203.07538942305248,92.1815101988528L203.18292775678634,91.49663511883611L203.52705042473474,90.70184682190649L203.61308109172185,90.13295443851598L203.63458875846862,89.7792562793298L203.6776040919622,89.50753755255192L203.89268075942994,89.01531176813111L203.97871142641702,88.57780999977507L204.06474209340413,88.15306923194615L204.2583110941251,87.52540759538864L204.27981876087188,87.1094248916426L204.3873570946058,86.66254646230271L204.47338776159287,86.22751136855435L204.49489542833965,85.92264179789623L204.81751042954127,85.08675020944862L205.48424809869132,83.27164832001753L205.7423400996526,81.63292702065569L205.89289376688004,80.30744505770355L206.00043210061392,79.28156605229005L206.30153943506878,77.95372566804309L206.49510843578975,76.69249621402513L206.81772343699137,75.19514864722348L207.0543077712059,73.73563093498521L207.2048614384333,72.53406929245634L207.22636910518008,71.76207169177039L207.41993810590108,70.91215271836855L208.23722944227853,69.61901888127701L208.30175244251888,68.79057408618377L208.34476777601242,68.25352319227585L208.40929077625273,67.8808506859744L208.43079844299953,67.63867968576852L208.51682910998662,67.37103388994447L209.20507444588344,66.0364246717092L209.50618178033827,64.85388992448996L210.0868887825012,63.573652588062686L210.21593478298186,62.76634017621211L210.30196544996898,62.30418732642079L210.68910345141094,63.12762417981635L210.7966417851448,63.95864850064768L211.11925678634643,65.31515916563421L211.18377978658677,66.31061351410693L211.24830278682708,67.03410399153395L211.69996378850936,68.82258358823383L211.9365481227239,70.35933982750576L212.216147790432,71.89015470467803L212.23765545717876,72.8312648815579L212.45273212464653,73.72785652904757L212.51725512488684,74.36959535688555L212.60328579187393,74.94745245798022L212.96891612656913,76.00361643051376L213.01193146006267,76.67714620460004L213.07645446030298,77.15489505936831L213.52811546198527,78.13845634347975L213.57113079547884,78.8396032991703L213.6786691292127,79.44468844606754L213.9152534634272,80.41597766840893L214.08731479740143,81.63567086764908L214.17334546438852,82.69829510414273L214.53897579908372,84.48643374415697L214.66802179956437,86.00234830055678L214.8830984670321,87.46135980343688L214.92611380052566,88.42748369942532L215.05515980100634,89.25714157804617L215.1626981347402,89.89273952616477L215.27023646847405,90.46852790304042L215.3347594687144,90.94177762064173L215.65737446991602,91.67814025262918L215.6788821366628,92.1450190679542L216.25958913882573,93.0109301121816L216.43165047279993,93.6058415636415L216.6467271402677,94.12761464812323L216.88331147448224,94.591151736499L217.3349724761645,95.04570387088727L217.7006028108597,95.31077127695463L217.72211047760646,95.46618125000957L218.41035581350326,95.3711922180254L218.43186348025006,95.30202329126034L218.5609094807307,95.18549695814092L219.679308151563,93.53020512200594L219.72232348505656,92.45810595041603L219.872877152284,91.45173223334616L219.9374001525243,90.69915028487019L220.08795381975173,89.997084400265L220.66866082191467,88.82368421779971L221.12032182359695,87.87006146567018L221.33539849106472,87.16760601681186L221.67952115901312,86.56409639390141L221.72253649250666,86.1892758330373L221.7655518260002,85.95051485468018L221.8730901597341,85.77914654083398L222.56133549563089,85.59125369582432L222.66887382936477,85.48772644139665L222.9054581635793,85.43312540705408L222.92696583032608,85.39814661776123L222.94847349707285,85.38034618103354L223.01299649731317,85.36799516992144L223.35711916526157,85.38418465707706L223.93782616742453,85.421920535448L224.00234916766485,85.44206306141731L224.43250250260036,85.44996865178443L224.561548503081,85.45554025798245L224.58305616982778,85.45580424076188L225.14225550524392,85.49364300787411L225.29280917247138,85.51100638315471L225.4433628396988,85.51164208091022L226.15311584234237,85.44046619171712L226.2176388425827,85.38554038024951L226.62628451077143,85.27021350441751L226.6477921775182,85.19905765740832L226.8413611782392,85.12405011196783L226.9919148454666,85.05447275268564L227.05643784570694,85.00437869679027L227.20699151293437,84.95840435915001L227.2715145131747,84.92034145328964L227.68016018136342,84.85404998869035L227.74468318160373,84.80708132432552L227.98126751581827,84.77913008264396L228.21785185003282,84.7777481372805L228.43292851750056,84.80489028071136L228.4759438509941,84.82304574752553L228.49745151774087,84.84086419095622L228.56197451798118,84.85821586812807L229.0781585199038,84.91789056946133L229.1856968536377,84.970172924079L229.20720452038447,84.99980036217406L229.29323518737155,85.02173843509127L229.70188085556032,85.07923616234817L229.7233885223071,85.11784146329958L229.91695752302806,85.15235393448442L230.08901885700226,85.17065195689644L230.34711085796354,85.1675301365505L231.14289452759422,85.12543493048507L231.2074175278346,85.09712121109501L231.40098652855553,85.0933097154706L231.4224941953023,85.09148883702197L231.551540195783,85.09797064376404L231.59455552927653,85.10747637512766L231.7881245299975,85.13025360778686L232.54089286613464,85.18048106539756L232.64843119986853,85.22492371048868L233.14310753504435,85.29887699092639L233.20763053528466,85.3495737924736L233.272153535525,85.38427151445649L233.46572253624598,85.40928024794641L234.0679372051557,85.46880148807277L234.5841212070783,85.57092498163698L234.79919787454602,85.66372149334133L235.9821195456187,85.87428659023675L236.11116554609936,86.01848088879844L236.19719621308644,86.11614936188641L236.26171921332676,86.1890505112125L236.4983035475413,86.2762347468055L236.5628265477816,86.341300775622" fill="none"></path></g></g></g></g><g opacity="0.2"><g><g><g><path style="fill: none;" stroke="rgb(255, 112, 67)" stroke-width="2px" d="M21.894804748217265,152.62622574997215L22.023850748697917,152.626186620962L22.367973416646322,152.62597996197798L22.41098875013987,152.62593566334124L22.475511750380196,152.62581859136142L22.712096084594727,152.62547714353377L23.034711085796356,152.62496339749993L23.09923408603668,152.6248581528385L23.529387420972185,152.62376019858164L23.78747942193349,152.62300245683033L24.217632756868998,152.62166535964656L24.841355092525482,152.61714908537255L24.905878092765807,152.61653582903116L25.099447093486788,152.6153289597786L25.44356976143519,152.6121976516723L25.486585094928742,152.61190011114988L26.432922431786857,152.59743734093857L26.54046076552073,152.59552186366238L26.86307576672236,152.57763214271432L26.992121767203013,152.55829818808417L27.099660100936887,152.55831718687702L27.25021376816432,152.5474794188879L27.379259768644967,152.5352114253486L28.132028104782105,152.31272161976958L28.175043438275654,152.29329650670542L28.34710477224986,152.13608803398554L28.79876577393214,151.69874305594556L28.97082710790634,151.5841564870764L29.40098044284185,151.0478171461357L30.562394447167716,149.35075657084246L30.583902113914487,149.31862174230477L30.94953244860967,148.22650912365214L31.014055448849998,148.03691198182833L31.078578449090323,147.72933567497572L31.401193450291952,146.4476062002707L31.46571645053228,146.30418327948053L31.48722411727905,146.17087057824057L31.702300784746807,145.13971022074662L32.110946452935536,142.18982059391223L32.56260745461782,138.39690667269238L32.928237789312995,136.51317779040602L33.03577612304687,135.88427354834792L33.61648312520981,133.0965328156888L33.83155979267756,131.05629712425986L33.960605793158216,129.90486153004974L34.111159460385636,128.58415829731632L34.132667127132414,128.47290391003528L34.842420129776,122.37478171039348L34.88543546326955,122.1637936766398L35.14352746423085,120.6079213189351L35.294081131458285,119.87903414080418L35.315588798205056,119.74866331122351L35.35860413169861,119.72743299486518L35.423127131938934,119.52689986169054L35.46614246543248,119.43646624356754L35.72423446639379,118.15969139966612L35.939311133861544,117.96600101163932L36.86414080397288,120.09530813159029L37.03620213794708,120.52002892847108L37.208263471921285,120.74084100748905L37.40183247264226,121.08935041231433L37.68143214035034,121.2833638593128L37.767462807337445,121.16523620162675L37.96103180805842,120.98430791486639L38.04706247504552,120.74821285709442L38.09007780853908,120.65699575737085L38.13309314203262,120.62048246225854L38.283646809260055,120.15017982511597L38.391185142993926,119.79809642143094L38.434200476487476,119.57802457989922L38.54173881022136,119.41839274755436L38.5847541437149,119.5263860198616L38.67078481070201,119.30492273535744L38.75681547768911,119.07006395050065L38.88586147816976,118.58392379243227L38.90736914491654,118.53264390416635L39.40204548009237,117.74103495387546L39.48807614707947,117.87798652014664L40.197829149723056,118.03591148186167L40.348382816950476,117.96115258329294L40.47742881743113,117.87022038596956L40.77853615188599,117.6870434052647L40.86456681887309,117.66556125553477L41.01512048610052,117.61662418075626L41.058135819594064,117.6119690790386L41.23019715356827,117.55371416951044L41.531304488023125,117.6582733503866L41.552812154769896,117.66349062559041L41.76788882223765,117.74039392347498L41.83241182247797,117.7710463692116L42.02598082319896,117.95958307632037L42.198042157173155,118.02116523887949L42.39161115789414,118.10492654454052L42.41311882464091,118.12416763164023L42.54216482512156,118.26793650534496L42.56367249186833,118.28525704501472L42.671210825602216,118.42476510157348L43.05834882704417,118.9248451270806L43.1228718272845,119.15402875787609L43.316440828005476,119.80288888680586L43.961670830408735,123.44824562271825L44.24127049811681,125.33817367598056L44.37031649859746,125.83455760159926L44.43483949883779,126.36782621295912L44.47785483233134,126.46009134651203L44.56388549931844,126.92162051599107L44.692931499799094,127.72949942835093L44.80046983353297,128.1779612439919L45.01554650100072,128.8905784600538L45.14459250148138,129.140137700007L45.252130835215254,129.41523640512168L45.467207502683,129.77141019326683L46.37052950604757,131.5872750694466L46.45656017303467,132.42781982263028L46.478067839781446,132.44995063407498L46.49957550652822,132.50631933708746L46.88671350797018,132.7614837773876L47.166313175678255,133.06344216503612L47.44591284338633,133.39669148505027L48.00511217880249,130.8763812585288L48.2632041797638,128.543531723801L48.499788513978324,126.37841593342398L48.56431151421865,125.83466443999933L48.62883451445898,125.33850945380937L49.05898784939448,124.8205568902321L49.18803384987513,125.07079786092865L49.33858751710256,124.1890605450864L49.46763351758322,123.49557757772413L49.811756185531614,120.73855670074454L49.87627918577194,120.59628610841233L50.11286351998647,118.74828195209484L50.17738652022679,118.01042034835739L50.24190952046712,117.32563199174432L50.263417187213896,117.06946912115772L51.29578519105912,105.86760532419842L51.36030819129944,105.4812929321456L51.42483119153977,105.20014005102654L51.44633885828654,105.02318004769764L51.91950752671559,104.00896820330176L52.1775995276769,104.03629339600738L52.39267619514466,104.2912301687645L52.47870686213176,103.54182493027578L53.01639853080113,103.93646054244894L53.03790619754791,103.80940933458497L53.27449053176244,103.0672640197587L53.446551865736645,102.11265273997765L53.532582532723744,101.66082805850569L53.5755978662173,101.1246061285151L54.2638432021141,92.82672197161389L54.34987386910121,92.08255690227183L54.88756553777059,88.13822562259884L55.231688205718996,84.68390103356846L55.25319587246577,84.4614940098636L55.57581087366739,78.15395837098356L55.6618415406545,77.30189669264863L56.005964208602904,76.95693076142595L56.027471875349676,77.0451182293759L56.50064054377874,78.73043802763203L56.608178877512614,79.36629948455233L56.71571721124649,79.97952137574185L56.78024021148682,80.46866318409813L56.8877785452207,81.07066704327949L56.95230154546102,81.40442003003687L57.210393546422324,82.2781953413019L57.38245488039652,82.89994904186906L57.53300854762396,82.21885424137297L57.68356221485138,80.08788603867792L57.877131215572355,80.87117431261989L57.963161882559454,81.14527077179096L58.00617721605301,81.56563917575431L58.049192549546554,81.87348639426425L58.11371554978688,82.54456382286735L58.264269217014316,84.00711029433263L58.45783821773529,85.63600924226196L58.67291488520304,87.69587903347663L58.75894555219014,88.45901555014679L58.8019608856837,88.94037341792597L58.86648388592402,89.57442879713066L58.9740222196579,90.56541600836678L59.038545219898225,91.17725408789815L59.060052886644996,91.3786241218734L59.49020622158051,95.48374719366352L59.683775222301485,97.29326917578155L59.81282122278214,98.6863554245677L59.96337489000956,100.06900203540336L59.98488255675633,100.25760233679787L60.17845155747732,101.04119077576864L60.329005224704744,102.05578418587908L60.78066622638702,105.90034875005085L60.866696893374126,106.53165176856783L61.081773560841874,108.11843094915218L61.167804227828974,108.71159774638424L61.36137322854996,109.90925112371374L61.64097289625804,111.61873166301605L61.70549589649836,111.90597942048241L61.83454189697902,112.37784647705469L61.87755723047256,112.50957568057922L62.60881789986293,113.96441452461033L62.737863900343584,114.0322619962026L63.10349423503876,114.3329561294502L63.31857090250651,114.43670130346862L63.383093902746836,114.49981736020031L63.426109236240386,114.53033498605112L63.81324723768234,114.78488256177937L64.1143545721372,114.89347870791562L64.15736990563074,114.909094920727L64.5445079070727,114.79304043675674L64.63053857405981,114.69884712445958L64.80259990803401,114.35065060352022L65.1682302427292,113.2332684774492L65.29727624320984,112.8444733644803L65.81346024513245,110.569390335166L66.09305991284053,109.6146823920706L66.15758291308086,109.29276811755042L66.17909057982763,109.13186948703323L66.22210591332117,108.8552699567746L66.26512124681473,108.6965030067161L66.35115191380183,108.34602217903225L66.43718258078893,107.99028591957313L66.58773624801636,107.07434505307741L66.91035124921798,105.19239172324947L67.64161191860835,98.18166608522866L67.72764258559545,97.25732568546965L67.87819625282287,95.43407242517019L68.07176525354384,92.85863612797999L68.32985725450516,89.41613498855823L68.54493392197291,86.27730928250051L68.58794925546646,85.63639080797653L68.63096458896001,84.98194455698555L68.73850292269388,83.33523412150039L68.80302592293421,82.42008182414808L68.97508725690841,79.81831749265301L69.06111792389552,78.47523161510328L69.49127125883102,71.76227477318508L69.5988095925649,69.83707732903993L69.62031725931168,69.43486636554697L69.66333259280523,68.62956938118897L69.72785559304555,67.50610255385635L69.81388626003266,66.0344137678701L69.83539392677943,65.75346947600833L69.98594759400686,63.42336467065398L70.05047059424717,62.293665603316825L70.15800892798106,60.56707565737348L70.56665459616978,53.20671372378371L70.78173126363754,49.300600066081415L70.9107772641182,46.70221895058879L71.03982326459885,44.28339757282694L71.12585393158595,42.448666815833406L71.38394593254725,37.93434758420236L71.40545359929403,37.443938977673724L71.9431452679634,27.24201137984275L72.1367142686844,23.872480867674142L72.88948260482152,14.338415371358224L72.9109902715683,14.010706385519512L72.95400560506185,13.476046331187234L73.90034294191996,1.84089685894088L74.07240427589416,-0.16345257703335392L79.79344363053639,-0.44902653289850036L80.11605863173803,13.069551656605427L80.37415063269933,32.17408910594952L80.43867363293965,36.163801267941295L80.73978096739451,47.96722630785305L81.49254930353165,54.6508738153499L81.51405697027843,54.66680799959008L81.5355646370252,54.75260432239544L81.92270263846716,55.65008758339199L82.24531763966878,56.55050126907642L83.27768564351399,59.325928876126596L83.47125464423497,59.595365146037125L83.66482364495594,59.88246536476052L83.7938696454366,60.13368823122923L84.2455306471189,61.27810047251997L84.28854598061244,61.58442142817164L84.31005364735921,61.65038650890541L85.32091398445765,64.26048932314943L85.49297531843185,64.82925626482087L85.98765165360768,66.33396829151687L86.18122065432865,67.25037721195581L86.26725132131577,67.45010396958699L86.35328198830287,67.7200795190408L86.61137398926418,68.61459165500662L86.6758969895045,68.88968527257843L86.84795832347871,69.23023521659792L86.91248132371902,69.33070401301396L87.42866532564163,72.74753341115988L87.51469599262873,73.80180965558493L87.55771132612229,74.45214517194434L88.159925995032,88.82790819544405L88.65460233020784,90.92067912633983L88.97721733140945,90.43763219433085L89.14927866538365,89.86159515391127L89.25681699911753,89.36951783332427L89.36435533285142,88.95164741290561L89.49340133333206,88.47659301073101L89.83752400128047,87.3136112379982L90.22466200272243,86.3988354188176L90.2461696694692,86.31901695887375L90.39672333669662,85.74313763228285L90.46124633693695,85.46259016876422L90.97743033885955,83.71256700040381L91.04195333909989,83.45905982719059L91.1925070063273,83.04749287237652L91.25703000656765,82.92883102269009L91.27853767331442,82.83697034879461L91.32155300680796,82.73200416448958L91.34306067355473,82.71032105681665L91.88075234222411,82.04793823896274L92.0743213429451,81.95950148141262L92.59050534486771,81.58122231953708L92.7625666788419,81.60716370058455L93.06367401329676,81.71268442706142L93.08518168004355,81.72360229404079L93.45081201473872,81.82714396634478L94.0745343503952,82.07272474778081L94.11754968388874,82.10927874323599L94.33262635135651,82.20630836067811L94.69825668605169,82.39779329887472L94.80579501978556,82.4575057894325L95.27896368821462,82.66088031529493L95.45102502218883,82.72432197476971L95.68760935640336,82.80441007448518L95.7306246898969,82.81181753689057L95.88117835712433,82.82959849918925L96.01022435760498,82.8999948297548L96.16077802483241,83.07308830050945L96.28982402531305,83.18623016619186L96.3543470255534,83.24675157606453L96.71997736024858,83.72295067538279L96.97806936120986,84.030350190121L97.04259236145019,84.10359554468863L97.19314602867762,84.3211795777614L97.53726869662603,84.93386218940768L97.58028403011957,84.9860705542457L97.70933003060023,85.2230788259612L97.79536069758734,85.38434884710725L98.13948336553572,86.05104081376426L98.50511370023091,86.60905268982788L98.93526703516643,87.41670520653042L99.32240503660839,88.18173937668769L99.36542037010193,88.27496351206987L99.40843570359547,88.38215804014794L99.47295870383581,88.51987273784826L99.53748170407613,88.65923579943548L99.90311203877131,89.53534120533077L100.13969637298584,90.09365833396602L100.4408037074407,90.75122324873068L101.08603370984395,91.96016588366841L101.1290490433375,92.01823509788213L101.64523304526011,92.84949381345903L101.73126371224721,92.99841128053895L101.77427904574076,93.05226800926388L101.90332504622141,93.29813878064297L101.96784804646174,93.41117380792531L102.0108633799553,93.48549263403658L102.20443238067628,93.79404702100419L102.3549860479037,93.9881062558884L102.63458571561178,94.35193679603911L102.80664704958598,94.61709952994654L103.08624671729405,94.97543043626469L103.12926205078762,95.02834596956038L103.19378505102793,95.1275174425469L103.53790771897634,95.54219797359181L103.64544605271021,95.65065421229937L103.68846138620377,95.70231821005129L103.90353805367153,95.94787864131587L103.98956872065861,96.03137030720525L104.6132910563151,96.61382782671522L104.72082939004898,96.70353646998058L104.8713830572764,96.85428036494751L105.81772039413451,97.38347639824725L105.98978172810872,97.4466128051504L106.14033539533615,97.46588441750728L106.22636606232327,97.48249524494794L106.46295039653778,97.4675327813942L106.59199639701843,97.45069810206765L106.72104239749908,97.4362291301714L107.19421106592814,97.45466129795625L107.43079540014267,97.5061777569652L107.53833373387656,97.6363832414029L107.73190273459753,97.96909328187381L107.7534104013443,98.15264165320751L108.0115024023056,99.25081321743598L108.24808673652014,100.88996356422992L108.31260973676046,101.28690383331904L108.5276864042282,102.58866360021008L109.53854674132666,105.58937778022434L109.64608507506053,105.72732141735338L109.6675927418073,105.75015430971287L109.88266940927505,105.95020667008717L111.45272908178966,107.93743143679177L111.68931341600418,108.45112572699452L111.71082108275095,108.48728798164942L111.75383641624451,108.57380164799815L111.79685174973805,108.64450831867822L111.86137474997838,108.72748614273867L111.88288241672515,108.77325367831486L112.42057408539453,109.44627963583366L112.52811241912842,109.61876260144501L112.59263541936875,109.67715741840182L112.76469675334295,109.88311641603757L113.00128108755747,110.19592398883684L113.19485008827846,110.55819774087213L113.25937308851879,110.63061891349632L113.28088075526556,110.65252587305513L113.60349575646718,111.06689097644266L113.9476184244156,111.49374854132502L114.07666442489624,111.660047598589L114.16269509188335,111.756733806888L114.35626409260432,111.9987355019214L114.39927942609786,112.04279871063922L114.59284842681885,112.27919138966855L114.67887909380596,112.38543963477451L114.91546342802047,112.61385759036946L115.47466276343664,113.06133242269539L115.66823176415761,113.20768576817342L115.99084676535925,113.41165808032198L116.14140043258668,113.50804666736363L116.27044643306732,113.59520390788425L116.35647710005442,113.65629766632875L116.3779847668012,113.66826102336604L116.78663043498993,113.90302823245133L116.85115343523024,113.94679636368322L117.62542943811417,113.96593315615429L117.75447543859481,113.82667947673858L118.07709043979645,113.16811740357318L118.12010577328999,113.01106749923021L118.48573610798518,111.26515760927279L118.50724377473196,111.18853412624556L118.91588944292069,109.54388414561905L118.93739710966746,109.46294642624581L119.00192010990779,109.19911154102505L119.19548911062876,108.53352865871169L119.4320734448433,107.82589214711054L119.96976511351266,106.41415496619652L120.03428811375301,106.24312195030052L120.27087244796753,105.58382727096316L120.33539544820785,105.45343863498246L120.3784107817014,105.35183531650846L120.42142611519496,105.25966430249846L120.67951811615626,104.70630752815255L121.04514845085143,104.00964484650225L121.49680945253372,103.14780999833164L121.64736311976115,102.90628907609857L121.81942445373535,102.63991550699026L121.90545512072245,102.5004405194601L122.05600878794988,102.27566270078209L122.07751645469665,102.2526619195082L122.09902412144343,102.21673877936774L122.31410078891118,101.95752338306465L122.87330012432734,101.39864662471471L122.98083845806121,101.27871288931307L123.32496112600963,100.96868820245868L123.56154546022415,100.80527632576822L123.64757612721127,100.7312627522286L123.66908379395804,100.71663606650367L123.84114512793224,100.53791068580206L123.97019112841288,100.38554895220535L124.0347141286532,100.30825900106335L124.22828312937419,100.12243649807085L124.31431379636129,100.02877992154549L124.46486746358872,99.86475753971173L124.48637513033549,99.84147694358049L124.61542113081615,99.72272351812256L124.7444671312968,99.59777855300298L124.78748246479034,99.55443268782855L124.85200546503067,99.50712362676552L125.60477380116781,99.09757642646721L125.86286580212912,99.01375915783474L126.27151147031785,98.81220088477363L126.31452680381139,98.78380730806724L126.76618780549367,98.6672008256966L127.19634114042918,98.91280195730405L127.7125251423518,99.39432771399764L127.77704814259211,99.46438826673439L128.05664781030018,99.68186037386423L128.2287091442744,99.8227496983097L128.42227814499537,100.21383929310886L128.4868011452357,100.4159368457132L128.52981647872926,100.49763769651557L128.55132414547603,100.51662949401512L129.49766148233414,103.43455917659765L129.6267074828148,103.77199554438629L129.6912304830551,104.02242475416871L129.84178415028254,104.47586218672755L130.12138381799062,105.49209378563918L130.16439915148416,105.7351155330162L130.18590681823093,105.85884457539204L130.3364604854584,106.55235806801149L130.72359848690033,108.45580626642649L131.21827482207615,110.65446931442798L131.32581315581004,111.05768506763596L131.75596649074552,112.40603400827521L131.79898182423912,112.50985549543657L131.92802782471975,112.7618669310487L132.4872271601359,112.99974262882196L132.5947654938698,112.90193207355071L132.96039582856497,112.05645621944916L133.34753383000694,110.22806708463168L133.5195951639811,109.0881318810585L134.01427149915696,104.83038252344292L134.10030216614405,103.97334014064724L134.18633283313116,103.15960801022595L134.20784049987793,102.94558016961291L134.7670398352941,96.89879636497993L135.26171617046992,91.99536150517976L135.8854385061264,86.97418564095096L136.12202284034092,84.35911738487476L136.46614550828934,79.74332202334124L136.7672528427442,75.3895758194843L136.78876050949097,75.09387765332608L137.21891384442645,67.8936868316244L137.73509784634908,58.11421861787255L138.0792205142975,51.067758078797155L138.48786618248621,43.11002703757228L138.55238918272656,41.97886275789119L138.6599275164604,39.911804268614134L139.4557111860911,26.818453086505684L139.60626485331855,24.543965299706088L139.69229552030563,23.35729592741319L139.82134152078626,21.63829659541821L139.95038752126695,20.114587683679787L140.0579258550008,18.884887873869815L140.12244885524115,18.092279221406784L140.1654641887347,17.602155517278334L140.6816481906573,13.939602886496289L140.85370952463148,13.364812294077637L141.21933985932668,16.316258709027437L141.32687819306054,17.48332069113465L141.3698935265541,17.47837559947388L141.6279855275154,17.47829419878812L141.67100086100896,17.433656097727038L141.80004686148962,18.575290540615725L142.0581388624509,18.99970354115345L142.1656771961848,19.086262995387926L142.38075386365253,19.291321497937304L142.5958305311203,19.71076905664279L143.19804520003,22.21196792840749L143.24106053352358,22.458764632587275L143.32709120051067,22.89518423427657L143.6497062017123,24.784422925481266L144.53152053833008,31.80187429516411L144.5960435385704,32.441826136544535L144.98318154001234,35.69171799079743L145.37031954145434,38.73018173883918L145.7359498761495,42.51318703439469L145.80047287638982,43.16573563189854L145.9080112101237,44.24984014011676L146.01554954385756,45.28766835847273L146.40268754529953,48.42482026292922L146.4241952120463,48.592363224422684L146.78982554674147,50.803745129576285L146.8543485469818,51.19891493374982L147.00490221420924,51.97443961728615L147.58560921637218,54.167170590311855L147.62862454986572,54.28086699816612L147.77917821709315,54.81160964449556L148.1663162185351,56.30537327895503L148.35988521925609,57.227236045340774L148.55345421997706,58.284692004053866L148.76853088744483,59.252810710130476L149.00511522165934,60.541882145126564L149.09114588864645,61.07480225980045L149.11265355539322,61.22502722539558L149.52129922358196,64.13728938523113L149.62883755731582,64.95004470742313L149.67185289080936,65.28750142538323L149.75788355779648,65.88914406902146L149.95145255851745,67.52971384027356L150.3385905599594,70.63084085373238L150.7687438948949,73.30525020973754L150.8762822286288,74.12228415547551L151.06985122934978,75.17756773338702L151.1988972298304,75.6937650946773L151.22040489657718,75.775745760337L151.30643556356432,76.0370012613273L151.37095856380463,76.23031262741097L151.8441272322337,77.36227056377834L152.23126523367563,78.1011954639737L152.3172959006627,78.23807071710196L152.42483423439663,78.47639157487556L152.76895690234502,79.04217212888767L152.81197223583857,79.10073992230176L153.0270489033063,79.43320576071535L153.156094903787,79.61353371741812L153.19911023728054,79.65992702076622L153.32815623776116,79.84961096879009L153.3711715712547,79.89262614367856L153.41418690474828,79.94246880108628L153.6722789057096,80.24163158393277L153.71529423920313,80.28841154053826L153.75830957269667,80.33209318354152L154.25298590787253,80.62494741324053L154.4465549085935,80.69181298906068L154.5110779088338,80.69604073717804L154.8552005767822,80.72175826633963L155.09178491099675,80.73789086475139L155.1348002444903,80.73955449126689L155.26384624497098,80.74223562635454L155.54344591267903,80.70145897032485L155.65098424641292,80.6789974685942L155.80153791364035,80.65754838789285L155.93058391412097,80.63682173827777L156.21018358182906,80.57260677228814L156.76938291724525,80.4046568073658L157.26405925242105,80.26563461115026L157.35008991940816,80.23249435695467L157.37159758615493,80.2243695510059L157.52215125338236,80.14778676832155L157.88778158807756,79.985219423746L158.12436592229207,79.88487272835863L158.3609502565066,79.82633546020169L158.511503923734,79.83965973495427L158.6405499242147,79.85233280422062L159.1567339261373,80.01969770171398L160.3396555972099,80.62696208021343L160.42568626419705,80.66700104252831L160.7052859319051,80.95374004570861L161.02790093310674,81.52332608178062L161.19996226708096,82.02488658226024L161.22146993382773,82.07392032035311L161.30750060081482,82.24445475704874L161.5225772682826,82.7350159898632L161.73765393575033,83.37756756564552L161.7591616024971,83.40453663035089L161.78066926924387,83.43766670946073L161.95273060321807,83.96522455395927L162.38288393815358,85.30415390899167L162.89906794007618,87.24833806309351L163.04962160730364,87.59012936757104L163.11414460754395,87.67422136351801L163.32922127501172,87.96522372761568L163.5227902757327,88.16199971038758L163.587313275973,88.25020752850898L163.80238994344077,88.5790561239485L163.90992827717463,88.66947193567151L164.68420428005854,89.44096219771916L164.87777328077954,89.58857725382668L164.92078861427308,89.60090945772139L165.00681928126016,89.6926480305882L165.13586528174082,89.75204000594574L165.20038828198116,89.77457782081932L165.3509419492086,89.89255793976238L165.52300328318276,90.01058384659122L165.5875262834231,90.0482571014758L165.7595876173973,90.19642669975515L165.8456182843844,90.28981363650888L165.93164895137153,90.38057031360357L166.42632528654735,91.48197246754867L166.51235595353444,91.56591692475267L166.6629096207619,91.49934642641847L166.74894028774898,91.23528260176899L166.9855246219635,89.69878869482125L167.2436166229248,85.65745832296331L167.5877392908732,77.78912049734639L168.1254309595426,68.03647380955697L168.4480459607442,68.24200545359238L168.74915329519908,69.03959989805905L168.92121462917328,69.57631023216427L169.09327596314748,70.06234355183258L169.22232196362813,70.29292116937197L169.24382963037493,70.31872518676218L169.80302896579107,71.61413061262003L170.10413630024593,72.41087543742894L170.6418279689153,73.95346930826683L171.00745830361046,74.8738872124801L171.26555030457178,75.21364858735615L171.33007330481212,75.32797076298228L171.45911930529277,75.47303187257367L171.84625730673474,75.62286000982566L171.88927264022828,75.62940767748756L172.27641064167022,75.62760668731482L172.3624413086573,75.60357313484018L172.8141023103396,75.29703850238833L172.90013297732673,75.19646795511507L173.05068664455413,75.02142595544471L173.33028631226222,74.72854120048852L173.45933231274287,74.55821026550731L173.76043964719773,74.0498680703942L174.01853164815904,73.70599596088658L174.34114664936067,73.30897937865453L174.51320798333487,73.12622466400713L174.53471565008164,73.10387000067657L175.0078843185107,72.64242477565473L175.0939149854978,72.54144213740975L175.39502231995263,72.38229362163669L175.65311432091394,72.3330563818294L175.67462198766071,72.33281726731495L175.82517565488817,72.44219435128032L176.126282989343,73.03378909776838L176.25532898982365,73.46893681374247L176.40588265705108,74.14651612212174L176.44889799054462,74.34749950283955L176.64246699126562,75.70791863891617L176.68548232475916,75.96030146515714L176.70698999150594,76.19603785115744L177.11563565969468,78.61444713794754L177.180158659935,78.82645522404482L177.373727660656,79.21848601427324L177.65332732836407,79.72398427292714L178.16951133028667,80.534185648603L178.51363399823506,80.78851191621682L178.7502183324496,81.00392865603088L179.13735633389157,81.30465840207849L179.3524330013593,81.52631755698282L179.37394066810606,81.55587618100434L179.50298666858674,81.65887348622222L179.65354033581417,81.78395072745617L179.73957100280126,81.89537300365163L179.76107866954803,81.93429779407997L179.7825863362948,81.9797244642845L180.25575500472388,82.5012840957501L180.27726267147065,82.52999818765673L180.36329333845774,82.69080015485956L180.40630867195128,82.78259469069785L180.59987767267228,83.12900548409304L180.68590833965936,83.34971835602524L181.30963067531587,84.47284940552903L181.33113834206264,84.50851308098356L181.5247073427836,84.78290461764058L181.58923034302393,84.84176240099774L181.73978401025138,84.97670947538174L181.9548606777191,85.09407400163866L181.97636834446587,85.09818982381307L182.01938367795944,85.12253371640226L182.12692201169332,85.16012048305818L182.25596801217398,85.1752966234121L182.34199867916107,85.19066609039473L182.3850140126546,85.19613011142728L182.729136680603,85.24895406895148L182.8581826810837,85.27003684656682L182.87969034783046,85.27390337914107L183.05175168180466,85.29586630167137L183.46039734999337,85.3562452603439L183.82602768468857,85.38941603979663L184.38522702010474,85.2975909787012L184.87990335528056,85.0652988592177L185.15950302298864,84.90139857841261L185.22402602322896,84.87766519096674L185.89076369237898,84.5483892419269L185.91227135912578,84.54162280992198L186.25639402707418,84.2637310437767L186.27790169382095,84.24268896650425L186.49297836128872,83.9824255363718L186.55750136152903,83.90446911711501L186.60051669502258,83.8463592025584L186.83710102923712,83.51336425968728L186.96614702971777,83.32432642960674L187.0306700299581,83.24713822932195L187.11670069694517,83.12682292820573L187.50383869838714,82.51670952570419L187.52534636513394,82.48379821093737L187.61137703212103,82.33477899300024L187.67590003236134,82.22140818788911L187.7189153658549,82.14773547972115L188.02002270030977,81.54793452659854L188.10605336729685,81.36870547915372L188.3426377015114,80.84921139008962L188.4071607017517,80.69614248803525L188.83731403668722,79.67489965940568L189.00937537066142,79.22260692399053L189.22445203812916,78.62782737567159L189.24595970487593,78.55777699802056L189.48254403909047,77.86948841191922L189.9772203742663,76.29741223020271L190.08475870800018,75.93553530651054L190.45038904269535,74.6461993192857L191.39672637955348,71.23526638331549L191.41823404630026,71.18531179996482L191.50426471328734,71.02366021310422L191.59029538027445,71.02652449973488L191.97743338171642,71.44243112860924L192.10647938219705,71.73180547899146L193.03130905230842,77.52169889440874L193.20337038628261,79.87359873337898L193.37543172025678,83.86647025948734L193.39693938700358,84.28386753841994L193.76256972169878,93.47509369642901L194.04216938940684,96.4055794347921L194.12820005639395,96.6942415291738L194.36478439060846,96.95331956181965L194.62287639156978,96.9849539033284L194.6873993918101,97.08089987414114L194.73041472530363,97.09669160718121L194.81644539229075,97.18269651924386L194.98850672626494,97.38350183596155L196.27896673107145,97.89151334078873L196.40801273155213,97.96046480918181L196.4295203982989,97.94845312048734L196.79515073299407,97.76203537498013L196.9457044002215,97.65323318335803L197.44038073539735,98.87480309967637L197.52641140238444,99.17440341120889L197.76299573659895,100.27701131281202L197.8275187368393,100.90064231669483L198.1931490715345,102.13931655211135L198.32219507201512,102.24533585778858L198.6017947397232,102.11596981792292L199.03194807465871,101.59188167765546L199.22551707537968,101.36027128891534L199.56963974332808,100.88370588651107L199.61265507682162,100.83509950201852L199.80622407754262,100.48981814313845L199.99979307826362,100.12132741372719L200.1718544122378,99.79766811200572L200.6020077471733,98.99702114182254L200.64502308066685,98.91717215662153L200.70954608090716,98.78140090029406L200.75256141440076,98.67181522707138L200.8816074148814,98.36611495164871L201.1396994158427,97.72066347643572L201.16120708258947,97.67105993354245L201.3117607498169,97.21299283698022L201.3762837500572,97.0020938352266L201.4838220837911,96.62362643426522L201.63437575101852,96.06563999591593L201.67739108451207,95.89818861019396L202.7742820885976,91.78008721656582L203.01086642281214,90.98594212615879L203.07538942305248,90.77903684555095L203.18292775678634,90.46932249881107L203.52705042473474,89.50966437651206L203.61308109172185,89.27961586343022L203.63458875846862,89.24870904055057L203.6776040919622,89.09995946238507L203.89268075942994,88.2769730914999L203.97871142641702,87.92155734724102L204.06474209340413,87.51595808020272L204.2583110941251,86.5839151405524L204.27981876087188,86.48545083602356L204.3873570946058,85.99222881829286L204.47338776159287,85.5749587279318L204.49489542833965,85.46533744190909L204.81751042954127,83.83291282677718L205.48424809869132,80.54899548587093L205.7423400996526,79.17484507161288L205.89289376688004,78.31922211327536L206.00043210061392,77.74274754416975L206.30153943506878,75.96196509167267L206.49510843578975,74.80065203299819L206.81772343699137,72.949127297021L207.0543077712059,71.54635436662781L207.2048614384333,70.731726828663L207.22636910518008,70.60407529074146L207.41993810590108,69.63727425826582L208.23722944227853,67.67931812563967L208.30175244251888,67.54790689354394L208.34476777601242,67.447946851414L208.40929077625273,67.32184192652214L208.43079844299953,67.27542318545976L208.51682910998662,66.9695651962084L209.20507444588344,64.03451084435628L209.50618178033827,63.08008780366107L210.0868887825012,61.653296583421806L210.21593478298186,61.55537155843621L210.30196544996898,61.61095805173383L210.68910345141094,64.36277945990966L210.7966417851448,65.20518498189469L211.11925678634643,67.34992516311402L211.18377978658677,67.80379503681606L211.24830278682708,68.11933970767447L211.69996378850936,71.50530298328361L211.9365481227239,72.66447418641366L212.216147790432,74.18637702043648L212.23765545717876,74.24293014687767L212.45273212464653,75.0727440002821L212.51725512488684,75.33220359864251L212.60328579187393,75.81423810962218L212.96891612656913,77.58786238931407L213.01193146006267,77.68744086572947L213.07645446030298,77.8715183415207L213.52811546198527,79.61379826964688L213.57113079547884,79.89132373270618L213.6786691292127,80.3523161664134L213.9152534634272,81.87291150192098L214.08731479740143,83.46521066650935L214.17334546438852,84.29223145888318L214.53897579908372,87.16864170417833L214.66802179956437,88.27622013515649L214.8830984670321,89.64987705775705L214.92611380052566,89.87666954340796L215.05515980100634,90.50162839597745L215.1626981347402,90.84613644834268L215.27023646847405,91.33221046835386L215.3347594687144,91.65165219704369L215.65737446991602,92.78268420061039L215.6788821366628,92.84533729094173L216.25958913882573,94.30979667852272L216.43165047279993,94.49820874083137L216.6467271402677,94.9102742748458L216.88331147448224,95.28645736906267L217.3349724761645,95.72753207246966L217.7006028108597,95.7083723860557L217.72211047760646,95.69929620959195L218.41035581350326,95.22870867004917L218.43186348025006,95.19826990111272L218.5609094807307,95.01070745846182L219.679308151563,91.04726736780347L219.72232348505656,90.84995719303117L219.872877152284,89.94217165774138L219.9374001525243,89.5702773621562L220.08795381975173,88.94398557335718L220.66866082191467,87.06358394410181L221.12032182359695,86.4396273374759L221.33539849106472,86.11392284352436L221.67952115901312,85.65883195953575L221.72253649250666,85.62704499174114L221.7655518260002,85.59237338714446L221.8730901597341,85.52209407006471L222.56133549563089,85.3094144283098L222.66887382936477,85.33243555975513L222.9054581635793,85.35122385554025L222.92696583032608,85.34567843382193L222.94847349707285,85.35364552594201L223.01299649731317,85.34946865325325L223.35711916526157,85.40846888781053L223.93782616742453,85.4785243530044L224.00234916766485,85.47227685037129L224.43250250260036,85.46182703733508L224.561548503081,85.46389766727947L224.58305616982778,85.456200214931L225.14225550524392,85.55040115854247L225.29280917247138,85.5370514460756L225.4433628396988,85.5125956275435L226.15311584234237,85.33370235792748L226.2176388425827,85.3031516630481L226.62628451077143,85.09722319066952L226.6477921775182,85.09232388689452L226.8413611782392,85.0115387938071L226.9919148454666,84.95010671376237L227.05643784570694,84.92923761294716L227.20699151293437,84.88944285268961L227.2715145131747,84.8632470944991L227.68016018136342,84.7546127917914L227.74468318160373,84.7366283277783L227.98126751581827,84.73720322012157L228.21785185003282,84.7756752192353L228.43292851750056,84.84560349585767L228.4759438509941,84.8502789477468L228.49745151774087,84.86759185610227L228.56197451798118,84.88424338388582L229.0781585199038,85.00740262146124L229.1856968536377,85.04859645600553L229.20720452038447,85.04424151931664L229.29323518737155,85.05464554446708L229.70188085556032,85.16548275323352L229.7233885223071,85.17574941472672L229.91695752302806,85.20412264126168L230.08901885700226,85.19809899051444L230.34711085796354,85.1628474060316L231.14289452759422,85.06229212138695L231.2074175278346,85.05465063200994L231.40098652855553,85.08759247203393L231.4224941953023,85.08875751934906L231.551540195783,85.10769335387714L231.59455552927653,85.12173497217309L231.7881245299975,85.16441945677562L232.54089286613464,85.25582225181361L232.64843119986853,85.29158767812538L233.14310753504435,85.40980691158292L233.20763053528466,85.42561899479443L233.272153535525,85.4363180974308L233.46572253624598,85.44679334818129L234.0679372051557,85.55808334826234L234.5841212070783,85.7241102219833L234.79919787454602,85.80291626089783L235.9821195456187,86.19013423557988L236.11116554609936,86.23477233664096L236.19719621308644,86.26265207151842L236.26171921332676,86.29840223520158L236.4983035475413,86.40701110019498L236.5628265477816,86.43889981884678" fill="none"></path></g></g></g></g></g></g><g transform="translate(71, 178)" clip-path="url(#clip_1)"><clipPath id="clip_1"><rect width="258" height="21"></rect></clipPath><g><g><line x1="0" y1="0" x2="0" y2="5" style="visibility: inherit;" fill="rgb(0, 0, 0)" stroke="rgb(204, 204, 204)" stroke-width="1px"></line><line x1="21.507666746775307" y1="0" x2="21.507666746775307" y2="5" style="visibility: inherit;" fill="rgb(0, 0, 0)" stroke="rgb(204, 204, 204)" stroke-width="1px"></line><line x1="43.015333493550614" y1="0" x2="43.015333493550614" y2="5" style="visibility: inherit;" fill="rgb(0, 0, 0)" stroke="rgb(204, 204, 204)" stroke-width="1px"></line><line x1="64.52300024032593" y1="0" x2="64.52300024032593" y2="5" style="visibility: inherit;" fill="rgb(0, 0, 0)" stroke="rgb(204, 204, 204)" stroke-width="1px"></line><line x1="86.03066698710123" y1="0" x2="86.03066698710123" y2="5" style="visibility: inherit;" fill="rgb(0, 0, 0)" stroke="rgb(204, 204, 204)" stroke-width="1px"></line><line x1="107.53833373387656" y1="0" x2="107.53833373387656" y2="5" style="visibility: inherit;" fill="rgb(0, 0, 0)" stroke="rgb(204, 204, 204)" stroke-width="1px"></line><line x1="129.04600048065186" y1="0" x2="129.04600048065186" y2="5" style="visibility: inherit;" fill="rgb(0, 0, 0)" stroke="rgb(204, 204, 204)" stroke-width="1px"></line><line x1="150.55366722742718" y1="0" x2="150.55366722742718" y2="5" style="visibility: inherit;" fill="rgb(0, 0, 0)" stroke="rgb(204, 204, 204)" stroke-width="1px"></line><line x1="172.06133397420246" y1="0" x2="172.06133397420246" y2="5" style="visibility: inherit;" fill="rgb(0, 0, 0)" stroke="rgb(204, 204, 204)" stroke-width="1px"></line><line x1="193.56900072097778" y1="0" x2="193.56900072097778" y2="5" style="visibility: inherit;" fill="rgb(0, 0, 0)" stroke="rgb(204, 204, 204)" stroke-width="1px"></line><line x1="215.0766674677531" y1="0" x2="215.0766674677531" y2="5" style="visibility: inherit;" fill="rgb(0, 0, 0)" stroke="rgb(204, 204, 204)" stroke-width="1px"></line><line x1="236.58433421452838" y1="0" x2="236.58433421452838" y2="5" style="visibility: inherit;" fill="rgb(0, 0, 0)" stroke="rgb(204, 204, 204)" stroke-width="1px"></line><line x1="258.0920009613037" y1="0" x2="258.0920009613037" y2="5" style="visibility: inherit;" fill="rgb(0, 0, 0)" stroke="rgb(204, 204, 204)" stroke-width="1px"></line></g><g transform="translate(0, 8)"><text style="text-anchor: middle; visibility: hidden; font-family: &quot;Helvetica Neue&quot;, sans-serif; font-size: 12px; font-weight: 200;" x="0" y="0" dx="0em" dy="0.95em" fill="rgb(50, 49, 63)" stroke="none" stroke-width="1px">-1k</text><text style="text-anchor: middle; visibility: inherit; font-family: &quot;Helvetica Neue&quot;, sans-serif; font-size: 12px; font-weight: 200;" x="21.507666746775307" y="0" dx="0em" dy="0.95em" fill="rgb(50, 49, 63)" stroke="none" stroke-width="1px">0</text><text style="text-anchor: middle; visibility: hidden; font-family: &quot;Helvetica Neue&quot;, sans-serif; font-size: 12px; font-weight: 200;" x="43.015333493550614" y="0" dx="0em" dy="0.95em" fill="rgb(50, 49, 63)" stroke="none" stroke-width="1px">1k</text><text style="text-anchor: middle; visibility: inherit; font-family: &quot;Helvetica Neue&quot;, sans-serif; font-size: 12px; font-weight: 200;" x="64.52300024032593" y="0" dx="0em" dy="0.95em" fill="rgb(50, 49, 63)" stroke="none" stroke-width="1px">2k</text><text style="text-anchor: middle; visibility: hidden; font-family: &quot;Helvetica Neue&quot;, sans-serif; font-size: 12px; font-weight: 200;" x="86.03066698710123" y="0" dx="0em" dy="0.95em" fill="rgb(50, 49, 63)" stroke="none" stroke-width="1px">3k</text><text style="text-anchor: middle; visibility: inherit; font-family: &quot;Helvetica Neue&quot;, sans-serif; font-size: 12px; font-weight: 200;" x="107.53833373387656" y="0" dx="0em" dy="0.95em" fill="rgb(50, 49, 63)" stroke="none" stroke-width="1px">4k</text><text style="text-anchor: middle; visibility: hidden; font-family: &quot;Helvetica Neue&quot;, sans-serif; font-size: 12px; font-weight: 200;" x="129.04600048065186" y="0" dx="0em" dy="0.95em" fill="rgb(50, 49, 63)" stroke="none" stroke-width="1px">5k</text><text style="text-anchor: middle; visibility: inherit; font-family: &quot;Helvetica Neue&quot;, sans-serif; font-size: 12px; font-weight: 200;" x="150.55366722742718" y="0" dx="0em" dy="0.95em" fill="rgb(50, 49, 63)" stroke="none" stroke-width="1px">6k</text><text style="text-anchor: middle; visibility: hidden; font-family: &quot;Helvetica Neue&quot;, sans-serif; font-size: 12px; font-weight: 200;" x="172.06133397420246" y="0" dx="0em" dy="0.95em" fill="rgb(50, 49, 63)" stroke="none" stroke-width="1px">7k</text><text style="text-anchor: middle; visibility: inherit; font-family: &quot;Helvetica Neue&quot;, sans-serif; font-size: 12px; font-weight: 200;" x="193.56900072097778" y="0" dx="0em" dy="0.95em" fill="rgb(50, 49, 63)" stroke="none" stroke-width="1px">8k</text><text style="text-anchor: middle; visibility: hidden; font-family: &quot;Helvetica Neue&quot;, sans-serif; font-size: 12px; font-weight: 200;" x="215.0766674677531" y="0" dx="0em" dy="0.95em" fill="rgb(50, 49, 63)" stroke="none" stroke-width="1px">9k</text><text style="text-anchor: middle; visibility: inherit; font-family: &quot;Helvetica Neue&quot;, sans-serif; font-size: 12px; font-weight: 200;" x="236.58433421452838" y="0" dx="0em" dy="0.95em" fill="rgb(50, 49, 63)" stroke="none" stroke-width="1px">10k</text><text style="text-anchor: middle; visibility: hidden; font-family: &quot;Helvetica Neue&quot;, sans-serif; font-size: 12px; font-weight: 200;" x="258.0920009613037" y="0" dx="0em" dy="0.95em" fill="rgb(50, 49, 63)" stroke="none" stroke-width="1px">11k</text></g><line x1="0" y1="0" x2="258.0920009613037" y2="0" fill="rgb(0, 0, 0)" stroke="rgb(204, 204, 204)" stroke-width="1px"></line></g></g></g></g></svg>