<svg viewBox="0 0 330 200" xmlns="http://www.w3.org/2000/svg"><g><g><g><g><g><line x1="71.90799903869629" y1="178.0640001296997" x2="66.90799903869629" y2="178.0640001296997" style="visibility: inherit;" fill="rgb(0, 0, 0)" stroke="rgb(204, 204, 204)" stroke-width="1px"></line><line x1="71.90799903869629" y1="152.6262858254569" x2="66.90799903869629" y2="152.6262858254569" style="visibility: inherit;" fill="rgb(0, 0, 0)" stroke="rgb(204, 204, 204)" stroke-width="1px"></line><line x1="71.90799903869629" y1="127.18857152121407" x2="66.90799903869629" y2="127.18857152121407" style="visibility: inherit;" fill="rgb(0, 0, 0)" stroke="rgb(204, 204, 204)" stroke-width="1px"></line><line x1="71.90799903869629" y1="101.75085721697127" x2="66.90799903869629" y2="101.75085721697127" style="visibility: inherit;" fill="rgb(0, 0, 0)" stroke="rgb(204, 204, 204)" stroke-width="1px"></line><line x1="71.90799903869629" y1="76.31314291272845" x2="66.90799903869629" y2="76.31314291272845" style="visibility: inherit;" fill="rgb(0, 0, 0)" stroke="rgb(204, 204, 204)" stroke-width="1px"></line><line x1="71.90799903869629" y1="50.875428608485635" x2="66.90799903869629" y2="50.875428608485635" style="visibility: inherit;" fill="rgb(0, 0, 0)" stroke="rgb(204, 204, 204)" stroke-width="1px"></line><line x1="71.90799903869629" y1="25.43771430424283" x2="66.90799903869629" y2="25.43771430424283" style="visibility: inherit;" fill="rgb(0, 0, 0)" stroke="rgb(204, 204, 204)" stroke-width="1px"></line><line x1="71.90799903869629" y1="0" x2="66.90799903869629" y2="0" style="visibility: inherit;" fill="rgb(0, 0, 0)" stroke="rgb(204, 204, 204)" stroke-width="1px"></line></g><g transform="translate(61.90799903869629, 0)"><text style="text-anchor: end; visibility: hidden; font-family: &quot;Helvetica Neue&quot;, sans-serif; font-size: 12px; font-weight: 200;" x="0" y="178.0640001296997" dx="0em" dy="0.3em" fill="rgb(50, 49, 63)" stroke="none" stroke-width="1px">-5e+8</text><text style="text-anchor: end; visibility: inherit; font-family: &quot;Helvetica Neue&quot;, sans-serif; font-size: 12px; font-weight: 200;" x="0" y="152.6262858254569" dx="0em" dy="0.3em" fill="rgb(50, 49, 63)" stroke="none" stroke-width="1px">0</text><text style="text-anchor: end; visibility: inherit; font-family: &quot;Helvetica Neue&quot;, sans-serif; font-size: 12px; font-weight: 200;" x="0" y="127.18857152121407" dx="0em" dy="0.3em" fill="rgb(50, 49, 63)" stroke="none" stroke-width="1px">5e+8</text><text style="text-anchor: end; visibility: inherit; font-family: &quot;Helvetica Neue&quot;, sans-serif; font-size: 12px; font-weight: 200;" x="0" y="101.75085721697127" dx="0em" dy="0.3em" fill="rgb(50, 49, 63)" stroke="none" stroke-width="1px">1e+9</text><text style="text-anchor: end; visibility: inherit; font-family: &quot;Helvetica Neue&quot;, sans-serif; font-size: 12px; font-weight: 200;" x="0" y="76.31314291272845" dx="0em" dy="0.3em" fill="rgb(50, 49, 63)" stroke="none" stroke-width="1px">1.5e+9</text><text style="text-anchor: end; visibility: inherit; font-family: &quot;Helvetica Neue&quot;, sans-serif; font-size: 12px; font-weight: 200;" x="0" y="50.875428608485635" dx="0em" dy="0.3em" fill="rgb(50, 49, 63)" stroke="none" stroke-width="1px">2e+9</text><text style="text-anchor: end; visibility: inherit; font-family: &quot;Helvetica Neue&quot;, sans-serif; font-size: 12px; font-weight: 200;" x="0" y="25.43771430424283" dx="0em" dy="0.3em" fill="rgb(50, 49, 63)" stroke="none" stroke-width="1px">2.5e+9</text><text style="text-anchor: end; visibility: hidden; font-family: &quot;Helvetica Neue&quot;, sans-serif; font-size: 12px; font-weight: 200;" x="0" y="0" dx="0em" dy="0.3em" fill="rgb(50, 49, 63)" stroke="none" stroke-width="1px">3e+9</text></g><line x1="71.90799903869629" y1="0" x2="71.90799903869629" y2="178.0640001296997" fill="rgb(0, 0, 0)" stroke="rgb(204, 204, 204)" stroke-width="1px"></line></g></g><g transform="translate(71, 0)" clip-path="url(#clip_0)"><clipPath id="clip_0"><rect width="258" height="178"></rect></clipPath><g><g><g><line x1="0" y1="0" x2="0" y2="178.0640001296997" fill="rgb(0, 0, 0)" stroke="rgb(60, 60, 60)" stroke-width="1px" opacity="0.25"></line><line x1="21.507666746775307" y1="0" x2="21.507666746775307" y2="178.0640001296997" fill="rgb(0, 0, 0)" stroke="rgb(60, 60, 60)" stroke-width="1px" opacity="0.25"></line><line x1="43.015333493550614" y1="0" x2="43.015333493550614" y2="178.0640001296997" fill="rgb(0, 0, 0)" stroke="rgb(60, 60, 60)" stroke-width="1px" opacity="0.25"></line><line x1="64.52300024032593" y1="0" x2="64.52300024032593" y2="178.0640001296997" fill="rgb(0, 0, 0)" stroke="rgb(60, 60, 60)" stroke-width="1px" opacity="0.25"></line><line x1="86.03066698710123" y1="0" x2="86.03066698710123" y2="178.0640001296997" fill="rgb(0, 0, 0)" stroke="rgb(60, 60, 60)" stroke-width="1px" opacity="0.25"></line><line x1="107.53833373387656" y1="0" x2="107.53833373387656" y2="178.0640001296997" fill="rgb(0, 0, 0)" stroke="rgb(60, 60, 60)" stroke-width="1px" opacity="0.25"></line><line x1="129.04600048065186" y1="0" x2="129.04600048065186" y2="178.0640001296997" fill="rgb(0, 0, 0)" stroke="rgb(60, 60, 60)" stroke-width="1px" opacity="0.25"></line><line x1="150.55366722742718" y1="0" x2="150.55366722742718" y2="178.0640001296997" fill="rgb(0, 0, 0)" stroke="rgb(60, 60, 60)" stroke-width="1px" opacity="0.25"></line><line x1="172.06133397420246" y1="0" x2="172.06133397420246" y2="178.0640001296997" fill="rgb(0, 0, 0)" stroke="rgb(60, 60, 60)" stroke-width="1px" opacity="0.25"></line><line x1="193.56900072097778" y1="0" x2="193.56900072097778" y2="178.0640001296997" fill="rgb(0, 0, 0)" stroke="rgb(60, 60, 60)" stroke-width="1px" opacity="0.25"></line><line x1="215.0766674677531" y1="0" x2="215.0766674677531" y2="178.0640001296997" fill="rgb(0, 0, 0)" stroke="rgb(60, 60, 60)" stroke-width="1px" opacity="0.25"></line><line x1="236.58433421452838" y1="0" x2="236.58433421452838" y2="178.0640001296997" fill="rgb(0, 0, 0)" stroke="rgb(60, 60, 60)" stroke-width="1px" opacity="0.25"></line><line x1="258.0920009613037" y1="0" x2="258.0920009613037" y2="178.0640001296997" fill="rgb(0, 0, 0)" stroke="rgb(60, 60, 60)" stroke-width="1px" opacity="0.25"></line></g><g><line x1="0" y1="178.0640001296997" x2="258.0920009613037" y2="178.0640001296997" fill="rgb(0, 0, 0)" stroke="rgb(60, 60, 60)" stroke-width="1px" opacity="0.25"></line><line x1="0" y1="152.6262858254569" x2="258.0920009613037" y2="152.6262858254569" fill="rgb(0, 0, 0)" stroke="rgb(60, 60, 60)" stroke-width="1px" opacity="0.25"></line><line x1="0" y1="127.18857152121407" x2="258.0920009613037" y2="127.18857152121407" fill="rgb(0, 0, 0)" stroke="rgb(60, 60, 60)" stroke-width="1px" opacity="0.25"></line><line x1="0" y1="101.75085721697127" x2="258.0920009613037" y2="101.75085721697127" fill="rgb(0, 0, 0)" stroke="rgb(60, 60, 60)" stroke-width="1px" opacity="0.25"></line><line x1="0" y1="76.31314291272845" x2="258.0920009613037" y2="76.31314291272845" fill="rgb(0, 0, 0)" stroke="rgb(60, 60, 60)" stroke-width="1px" opacity="0.25"></line><line x1="0" y1="50.875428608485635" x2="258.0920009613037" y2="50.875428608485635" fill="rgb(0, 0, 0)" stroke="rgb(60, 60, 60)" stroke-width="1px" opacity="0.25"></line><line x1="0" y1="25.43771430424283" x2="258.0920009613037" y2="25.43771430424283" fill="rgb(0, 0, 0)" stroke="rgb(60, 60, 60)" stroke-width="1px" opacity="0.25"></line><line x1="0" y1="0" x2="258.0920009613037" y2="0" fill="rgb(0, 0, 0)" stroke="rgb(60, 60, 60)" stroke-width="1px" opacity="0.25"></line></g></g></g><g><g><line x1="0" y1="152.6262858254569" x2="258.0920009613037" y2="152.6262858254569" fill="rgb(0, 0, 0)" stroke="rgb(153, 153, 153)" stroke-width="1.5px"></line></g></g><g><g><line x1="21.507666746775307" y1="0" x2="21.507666746775307" y2="178.0640001296997" fill="rgb(0, 0, 0)" stroke="rgb(153, 153, 153)" stroke-width="1.5px"></line></g></g><g><g><g><g><g><path style="fill: none;" stroke="rgb(255, 112, 67)" stroke-width="2px" d="M21.894804748217265,152.62623531870747L22.023850748697917,152.62621054162616L22.367973416646322,152.6261296096953L22.41098875013987,152.62608248849847L22.475511750380196,152.62601547941676L22.712096084594727,152.62586329634186L23.034711085796356,152.6255238917336L23.09923408603668,152.62526429393483L23.529387420972185,152.62450927889725L23.78747942193349,152.6233170905352L24.217632756868998,152.62089820092322L24.841355092525482,152.6127812252125L24.905878092765807,152.6071767308918L25.099447093486788,152.6005118472307L25.44356976143519,152.58961065336166L25.486585094928742,152.58234185833246L26.432922431786857,152.54232499338184L26.54046076552073,152.5102359826048L26.86307576672236,152.45924707320097L26.992121767203013,152.40703434386626L27.099660100936887,152.3638470588265L27.25021376816432,152.3182852152141L27.379259768644967,152.26650589205332L28.132028104782105,151.99279962980694L28.175043438275654,151.80151997372693L28.34710477224986,151.5807256341181L28.79876577393214,151.09463260877686L28.97082710790634,150.68890944695005L29.40098044284185,150.127564806883L30.562394447167716,147.8977351346338L30.583902113914487,146.50946233729982L30.94953244860967,144.91301563590036L31.014055448849998,143.79891502710802L31.078578449090323,142.96083389562259L31.401193450291952,141.49028767653522L31.46571645053228,140.42861113085797L31.48722411727905,139.72365256876117L31.702300784746807,138.60012489617293L32.110946452935536,136.85066355667416L32.56260745461782,134.32308567067105L32.928237789312995,131.18041827880413L33.03577612304687,128.77678648560675L33.61648312520981,124.2811595860694L33.83155979267756,120.5055187053708L33.960605793158216,117.56370880504224L34.111159460385636,115.0128079951641L34.132667127132414,113.34680374409702L34.842420129776,108.40782998312211L34.88543546326955,105.1497817561587L35.14352746423085,101.58751719788776L35.294081131458285,98.80762442900598L35.315588798205056,96.9821048544933L35.35860413169861,95.55305029811683L35.423127131938934,94.2272705786252L35.46614246543248,93.11458492567677L35.72423446639379,90.64291553212166L35.939311133861544,87.42680082469029L36.86414080397288,77.91446927083122L37.03620213794708,70.82758007997201L37.208263471921285,65.22554708420476L37.40183247264226,60.311910713753676L37.68143214035034,55.24394042177353L37.767462807337445,51.714470206352075L37.96103180805842,48.345871829747836L38.04706247504552,45.80248768101316L38.09007780853908,44.02493037514293L38.13309314203262,42.75851237486816L38.283646809260055,41.112798098799544L38.391185142993926,39.36025518332562L38.434200476487476,38.03463444008253L38.54173881022136,36.546822176562586L38.5847541437149,35.62274671401636L38.67078481070201,34.42443633854029L38.75681547768911,33.10795084592303L38.88586147816976,31.61636740523079L38.90736914491654,30.538918305722063L39.40204548009237,26.511567089617785L39.48807614707947,23.78955864939661L40.197829149723056,18.724974750643867L40.348382816950476,14.87055567725568L40.47742881743113,11.90783444940206L40.77853615188599,8.580853619949949L40.86456681887309,6.237744516388517L41.01512048610052,4.2525145572993495L41.058135819594064,2.907931730724272L41.23019715356827,1.4053663679646888L41.531304488023125,-0.34038522269813143L44.43483949883779,-0.04859249473722116L44.47785483233134,0.858380274749976L44.56388549931844,1.7673848787368058L44.692931499799094,2.9002322957538524L44.80046983353297,4.053533843027651L45.01554650100072,5.865228742207961L45.14459250148138,7.861854714468279L45.252130835215254,9.844678778710687L45.467207502683,12.666575486414814L46.37052950604757,21.61549192494587L46.45656017303467,28.01924784018985L46.478067839781446,32.009684500129424L46.49957550652822,34.58918059422854L46.88671350797018,39.65128317997517L47.166313175678255,45.00028773988552L47.44591284338633,50.53801578079437L48.00511217880249,58.83288781315983L48.2632041797638,65.89810720497651L48.499788513978324,71.99078064433687L48.56431151421865,76.16772679608599L48.62883451445898,79.25221184566593L49.05898784939448,85.86301961780683L49.18803384987513,91.32233685450697L49.33858751710256,95.987107392706L49.46763351758322,99.94615350258611L49.811756185531614,105.03853288352451L49.87627918577194,108.6898291608818L50.11286351998647,112.61068928826194L50.17738652022679,115.3735755259215L50.24190952046712,117.43533468831325L50.263417187213896,118.8064799074094L51.29578519105912,125.41322235640035L51.36030819129944,129.69115798701463L51.42483119153977,132.5752159825012L51.44633885828654,134.39778463439006L51.91950752671559,137.29058248925952L52.1775995276769,139.6418691916728L52.39267619514466,141.30592693576835L52.47870686213176,142.32834873630947L53.01639853080113,142.3690672427367L53.03790619754791,142.34752616969283L53.27449053176244,141.67546728728078L53.446551865736645,140.70938724165492L53.532582532723744,139.8059513808751L53.5755978662173,139.12931108742598L54.2638432021141,136.76291447233677L54.34987386910121,135.1748017496247L54.88756553777059,133.3293651772024L55.231688205718996,131.68333358439475L55.25319587246577,130.64994790714084L55.57581087366739,129.01351107071238L55.6618415406545,127.90407130205608L56.005964208602904,126.89263165421686L56.027471875349676,126.27807126787205L56.50064054377874,125.6222478414515L56.608178877512614,125.15495397026037L56.71571721124649,124.8276635019097L56.78024021148682,124.6311472581033L56.8877785452207,124.48984621075557L56.95230154546102,124.36309799358402L57.210393546422324,124.20226080656836L57.38245488039652,124.06946290538076L57.53300854762396,123.83552791151081L57.68356221485138,123.39910155053707L57.877131215572355,123.04987088904896L57.963161882559454,122.80897564558515L58.00617721605301,122.66414545703805L58.049192549546554,122.57335053028046L58.11371554978688,122.53377185333892L58.264269217014316,122.56794807275949L58.45783821773529,122.59409715115517L58.67291488520304,122.75466939958174L58.75894555219014,122.89384644069723L58.8019608856837,122.9921871263419L58.86648388592402,123.10847287470484L58.9740222196579,123.24904989623589L59.038545219898225,123.37885936896728L59.060052886644996,123.47634894256234L59.49020622158051,123.84961067293449L59.683775222301485,124.23561889398484L59.81282122278214,124.5808904418183L59.96337489000956,124.92592268882132L59.98488255675633,125.14532015090458L60.17845155747732,125.12536450302471L60.329005224704744,125.22529035781051L60.78066622638702,125.70102559588724L60.866696893374126,126.04607092567863L61.081773560841874,126.45507471473877L61.167804227828974,126.79831540283078L61.36137322854996,127.18087195318427L61.64097289625804,127.71330499842016L61.70549589649836,128.08250715662422L61.83454189697902,128.389589037966L61.87755723047256,128.5943563492299L62.60881789986293,128.9743458734153L62.737863900343584,129.18546555136842L63.10349423503876,129.2892982793287L63.31857090250651,129.30746702271682L63.383093902746836,129.33045985221725L63.426109236240386,129.34171194128845L63.81324723768234,129.40333181538097L64.1143545721372,129.59945836066098L64.15736990563074,129.73625498331447L64.5445079070727,130.14962137510076L64.63053857405981,130.50050823359285L64.80259990803401,130.9244364792792L65.1682302427292,131.54680918310075L65.29727624320984,132.0487215086681L65.81346024513245,132.84688325758836L66.09305991284053,133.61650122816712L66.15758291308086,134.1479021571251L66.17909057982763,134.48810160324138L66.22210591332117,134.72420587957077L66.26512124681473,134.91320326974852L66.35115191380183,135.11179110314737L66.43718258078893,135.2768003911131L66.58773624801636,135.4954473894316L66.91035124921798,135.8303183379818L67.64161191860835,136.25474374684865L67.72764258559545,136.53307226520815L67.87819625282287,136.73547151127502L68.07176525354384,136.8934977367457L68.32985725450516,137.02951328952278L68.54493392197291,137.13600778763825L68.58794925546646,137.20126485476817L68.63096458896001,137.24216888418752L68.73850292269388,137.26380953019267L68.80302592293421,137.27880223551517L68.97508725690841,137.27982710355772L69.06111792389552,137.27326704233644L69.49127125883102,137.20128980037924L69.5988095925649,137.1320500261135L69.62031725931168,137.08326410534212L69.66333259280523,137.0395709561822L69.72785559304555,136.99248393085387L69.81388626003266,136.9385117037744L69.83539392677943,136.89987158521538L69.98594759400686,136.8363166811692L70.05047059424717,136.77559016439818L70.15800892798106,136.70222894965224L70.56665459616978,136.46149736994775L70.78173126363754,136.18313410665746L70.9107772641182,135.927039703844L71.03982326459885,135.68422912386382L71.12585393158595,135.47203320595477L71.38394593254725,135.15965152170588L71.40545359929403,134.9536195240326L71.9431452679634,134.3730390164823L72.1367142686844,133.84786172302697L72.88948260482152,132.90336719816892L72.9109902715683,132.31428920189927L72.95400560506185,131.91575163386284L73.90034294191996,130.82563636851162L74.07240427589416,130.03547242594783L74.2229579431216,129.45187646272888L74.26597327661514,129.06771944636358L74.30898861010868,128.8065313171584L74.41652694384257,128.57115932895857L74.95421861251195,128.03431838389133L74.97572627925872,127.69499594379613L75.19080294672648,127.33408881682398L75.23381828022002,127.09153343990585L75.3413566139539,126.8555321427917L75.64246394840876,126.50484230701778L75.7715099488894,126.20393428637072L75.96507894961039,125.91157879441487L76.28769395081201,125.57409217542775L76.37372461779913,125.32422630732623L76.41673995129267,125.15465080007021L76.95443161996207,124.91595046991625L77.21252362092336,124.75065570825308L77.4276002883911,124.6342583733784L77.55664628887176,124.56822561731488L77.92227662356694,124.60493636353488L78.0513226240476,124.68080969050882L78.07283029079437,124.72927062343592L78.37393762524923,124.82214187744114L78.50298362572987,124.92365870204405L78.61052195946375,125.00868423837034L79.10519829463959,125.37218897838503L79.255751961867,125.71155149356605L79.36329029560089,126.00529909799059L79.64288996330896,126.48762661205822L79.79344363053639,126.98351321690885L80.11605863173803,127.79261592963186L80.37415063269933,128.84868659645613L80.43867363293965,129.60073573648793L80.73978096739451,130.49689355447953L81.49254930353165,131.60347679957047L81.51405697027843,132.28200853987175L81.5355646370252,132.70129210253455L81.92270263846716,133.16727946092567L82.24531763966878,133.6133838163678L83.27768564351399,134.25307296063227L83.47125464423497,134.6730941234285L83.66482364495594,134.95469955201514L83.7938696454366,135.14053619451974L84.2455306471189,135.299235600045L84.28854598061244,135.40247223410063L84.31005364735921,135.46627796463548L85.32091398445765,135.45987828731606L85.49297531843185,135.43685657212325L85.98765165360768,135.32811601687487L86.18122065432865,135.21901364543652L86.26725132131577,135.13108888932743L86.35328198830287,135.05326522926566L86.61137398926418,134.91737932501826L86.6758969895045,134.81411770660122L86.84795832347871,134.68675886616208L86.91248132371902,134.5858341410149L87.42866532564163,134.28119707041535L87.51469599262873,134.04159063733078L87.55771132612229,133.86695963743472L88.159925995032,132.935315476231L88.65460233020784,131.65406004343436L88.97721733140945,130.45155704315974L89.14927866538365,129.48392822225708L89.25681699911753,128.78740053687216L89.36435533285142,128.2449421788186L89.49340133333206,127.79991951203745L89.83752400128047,127.28117657043317L90.22466200272243,126.8648724755893L90.2461696694692,126.60222415189233L90.39672333669662,126.35223821606078L90.46124633693695,126.1649540699843L90.97743033885955,125.78811861510943L91.04195333909989,125.52880716479987L91.1925070063273,125.32172556958828L91.25703000656765,125.18862021784916L91.27853767331442,125.08424693471652L91.32155300680796,125.00940504750508L91.34306067355473,124.96341761166016L91.88075234222411,125.02969642098728L92.0743213429451,125.1384993025854L92.59050534486771,125.4016393992349L92.7625666788419,125.66121505474231L93.06367401329676,126.0454658483284L93.08518168004355,126.29475997198904L93.45081201473872,126.67555867575544L94.0745343503952,127.31125361987165L94.11754968388874,127.7282498492848L94.33262635135651,128.12324703401964L94.69825668605169,128.64396906313806L94.80579501978556,129.0414086911597L95.27896368821462,129.60974516543993L95.45102502218883,130.0610775395056L95.68760935640336,130.4753199500042L95.7306246898969,130.73370250637774L95.88117835712433,130.96657388799343L96.01022435760498,131.18671603606873L96.16077802483241,131.44114004357672L96.28982402531305,131.68170783992247L96.3543470255534,131.86874024699347L96.71997736024858,132.26185196805966L96.97806936120986,132.66352959279817L97.04259236145019,132.95631872549205L97.19314602867762,133.2308881774739L97.53726869662603,133.6159665273259L97.58028403011957,133.86742557320167L97.70933003060023,134.0881219505453L97.79536069758734,134.26040983284338L98.13948336553572,134.5120086525775L98.50511370023091,134.76371008433685L98.93526703516643,134.97581206438048L99.32240503660839,135.0912805722573L99.36542037010193,135.15554999956166L99.40843570359547,135.18833611448727L99.47295870383581,135.19985208593363L99.53748170407613,135.19620367425384L99.90311203877131,135.1077051545175L100.13969637298584,134.97218817393272L100.4408037074407,134.7500469847277L101.08603370984395,134.1703752369431L101.1290490433375,133.78576475178198L101.64523304526011,133.060576556146L101.73126371224721,132.53500794070536L101.77427904574076,132.1729258464643L101.90332504622141,131.81195423670687L101.96784804646174,131.52480143472513L102.0108633799553,131.30349351659066L102.20443238067628,130.93815677453716L102.3549860479037,130.5248707486124L102.63458571561178,129.8840900301721L102.80664704958598,129.25206453112233L103.08624671729405,128.52155643216804L103.12926205078762,128.016839032492L103.19378505102793,127.63021342434007L103.53790771897634,126.93390901163185L103.64544605271021,126.3684870097947L103.68846138620377,125.96928839007228L103.90353805367153,125.38616455068433L103.98956872065861,124.89658583168855L104.6132910563151,123.50735728802708L104.72082939004898,122.51696690119388L104.8713830572764,121.68578373847842L105.81772039413451,119.50558052602983L105.98978172810872,117.9072176157774L106.14033539533615,116.69170695995888L106.22636606232327,115.8184789443762L106.46295039653778,114.89151757167932L106.59199639701843,114.11336433398407L106.72104239749908,113.42996219614086L107.19421106592814,112.31330825965946L107.43079540014267,111.32716214628091L107.53833373387656,110.62454292609252L107.73190273459753,110.03460742516931L107.7534104013443,109.681889927094L108.0115024023056,109.3668701380286L108.24808673652014,109.17889758854531L108.31260973676046,109.06669623655999L108.5276864042282,109.01101767705087L109.53854674132666,108.8103002230119L109.64608507506053,108.64384515164663L109.6675927418073,108.53074873022493L109.88266940927505,108.34763401837138L111.45272908178966,107.92969159744217L111.68931341600418,107.76553647454773L111.71082108275095,107.67689874463905L111.75383641624451,107.63782121752467L111.79685174973805,107.62710446610008L111.86137474997838,107.64200790697285L111.88288241672515,107.6649261436411L112.42057408539453,107.86657982385982L112.52811241912842,108.05683945714597L112.59263541936875,108.20713453677918L112.76469675334295,108.39716222416739L113.00128108755747,108.66466145764011L113.19485008827846,109.25381570659641L113.25937308851879,109.66231428097758L113.28088075526556,109.91891371449238L113.60349575646718,110.35450021121325L113.9476184244156,110.9510666453162L114.07666442489624,111.43985061929592L114.16269509188335,111.8181449967825L114.35626409260432,112.28413878251412L114.39927942609786,112.61250513522472L114.59284842681885,113.03568210014956L114.67887909380596,113.387963287081L114.91546342802047,113.8978524085746L115.47466276343664,115.00406011791375L115.66823176415761,115.97315583456665L115.99084676535925,117.03943835384777L116.14140043258668,117.92772481028865L116.27044643306732,118.65919062839832L116.35647710005442,119.22376580220828L116.3779847668012,119.59939388282098L116.78663043498993,120.44627994479603L116.85115343523024,121.05441460367314L117.62542943811417,122.55626371037746L117.75447543859481,123.63673730628295L118.07709043979645,124.76002051353451L118.12010577328999,125.49525715243706L118.48573610798518,126.44177236297914L118.50724377473196,127.03781421751322L118.91588944292069,127.87370938509906L118.93739710966746,128.39768702670463L119.00192010990779,128.78242854998481L119.19548911062876,129.22503702239015L119.4320734448433,129.74143017897603L119.96976511351266,130.56256461884698L120.03428811375301,131.1097811374159L120.27087244796753,131.62833793915522L120.33539544820785,131.99740326025017L120.3784107817014,132.24999286733896L120.42142611519496,132.4404144822409L120.67951811615626,132.763896517867L121.04514845085143,133.25831780224L121.49680945253372,133.8508106204173L121.64736311976115,134.29861794501835L121.81942445373535,134.65675127415636L121.90545512072245,134.90700800967636L122.05600878794988,135.1174513061052L122.07751645469665,135.2552599012052L122.09902412144343,135.3448328586926L122.31410078891118,135.49236845694983L122.87330012432734,135.8141529234679L122.98083845806121,136.03953511719243L123.32496112600963,136.30676248306662L123.56154546022415,136.53593197368676L123.64757612721127,136.70395371558004L123.66908379395804,136.81177112692546L123.84114512793224,136.9464095086207L123.97019112841288,137.0659093086137L124.0347141286532,137.15829147485084L124.22828312937419,137.2944324849623L124.31431379636129,137.4052357443441L124.46486746358872,137.51717835496402L124.48637513033549,137.5896564556923L124.61542113081615,137.66575438446662L124.7444671312968,137.73470871558865L124.78748246479034,137.78344188987225L124.85200546503067,137.82557045342503L125.60477380116781,137.92083264515742L125.86286580212912,137.9669168621097L126.27151147031785,137.95317156193502L126.31452680381139,137.93841232696832L126.76618780549367,137.87121333286422L127.19634114042918,137.79811681066542L127.7125251423518,137.72432688837898L127.77704814259211,137.67667838817766L128.05664781030018,137.6260844034731L128.2287091442744,137.57722270634932L128.42227814499537,137.54686245688617L128.4868011452357,137.53063899599604L128.52981647872926,137.5178716043073L128.55132414547603,137.50417123840964L129.49766148233414,137.50247674904813L129.6267074828148,137.49856414463417L129.6912304830551,137.49491612462987L129.84178415028254,137.48944132974395L130.12138381799062,137.4735035302158L130.16439915148416,137.45989165478576L130.18590681823093,137.44949610435398L130.3364604854584,137.42645571893482L130.72359848690033,137.3410171179562L131.21827482207615,137.13425911137688L131.32581315581004,136.96809540707588L131.75596649074552,136.66502245513115L131.79898182423912,136.45897532965915L131.92802782471975,136.2591781534784L132.4872271601359,135.7604897092211L132.5947654938698,135.3777855872825L132.96039582856497,134.84480555043322L133.34753383000694,134.20312926132257L133.5195951639811,133.66143107497496L134.01427149915696,132.82388739731653L134.10030216614405,132.2176143886893L134.18633283313116,131.75429428878445L134.20784049987793,131.44964903949733L134.7670398352941,130.52868725985047L135.26171617046992,129.2467509306543L135.8854385061264,127.50968027802791L136.12202284034092,126.0627162816078L136.46614550828934,124.57050199286189L136.7672528427442,123.12775966863641L136.78876050949097,122.22219277297583L137.21891384442645,120.88393130823292L137.73509784634908,119.19320422381983L138.0792205142975,117.61569273025124L138.48786618248621,116.04467847044421L138.55238918272656,115.01481489146558L138.6599275164604,114.23875930622333L139.4557111860911,112.72537149289676L139.60626485331855,111.65576560690062L139.69229552030563,110.93641484885646L139.82134152078626,110.38987444018352L139.95038752126695,109.964809872605L140.0579258550008,109.63240401306577L140.12244885524115,109.383605633544L140.1654641887347,109.20630262893829L140.6816481906573,108.90522601473613L140.85370952463148,108.70405665411212L141.21933985932668,108.81139026765833L141.32687819306054,108.95477254438393L141.3698935265541,109.04564166959264L141.6279855275154,109.1299362595464L141.67100086100896,109.18408292199395L141.80004686148962,109.30239329048727L142.0581388624509,109.43685511514403L142.1656771961848,109.54116966667574L142.38075386365253,109.65861725016228L142.5958305311203,109.79577966132769L143.19804520003,110.23175462204179L143.24106053352358,110.52361935116708L143.32709120051067,110.76403846997529L143.6497062017123,111.18057979361123L144.53152053833008,112.39126971871798L144.5960435385704,113.20007679671656L144.98318154001234,114.1854516918123L145.37031954145434,115.28569921161491L145.7359498761495,116.47703994581346L145.80047287638982,117.2859930707038L145.9080112101237,117.92901788661135L146.01554954385756,118.46780875932743L146.40268754529953,119.32140679715545L146.4241952120463,119.86213660935331L146.78982554674147,120.64720469732754L146.8543485469818,121.1981549753223L147.00490221420924,121.71092332027789L147.58560921637218,122.66576536353523L147.62862454986572,123.28317397241577L147.77917821709315,123.80811763934233L148.1663162185351,124.51209055354985L148.35988521925609,125.12878164624881L148.55345421997706,125.69300010437033L148.76853088744483,126.23020225138063L149.00511522165934,126.76814353691324L149.09114588864645,127.16994381568055L149.11265355539322,127.43096910457191L149.52129922358196,127.95858385785422L149.62883755731582,128.36835128539047L149.67185289080936,128.6504037892181L149.75788355779648,128.8889092287245L149.95145255851745,129.19578350894437L150.3385905599594,129.67512231615763L150.7687438948949,130.2173358750921L150.8762822286288,130.60628743765886L151.06985122934978,130.93143602039493L151.1988972298304,131.17683535228304L151.22040489657718,131.33201379749804L151.30643556356432,131.4533323886997L151.37095856380463,131.5461813236008L151.8441272322337,131.71879248860006L152.23126523367563,131.89051044655122L152.3172959006627,132.00516328563393L152.42483423439663,132.09118849107003L152.76895690234502,132.1826990672376L152.81197223583857,132.24164223574698L153.0270489033063,132.29621479146226L153.156094903787,132.3387915277329L153.19911023728054,132.3665184566685L153.32815623776116,132.3922193943976L153.3711715712547,132.4098507996607L153.41418690474828,132.4228879435289L153.6722789057096,132.44307597082707L153.71529423920313,132.45682070815434L153.75830957269667,132.46664802626572L154.25298590787253,132.48125494171578L154.4465549085935,132.49139378576717L154.5110779088338,132.49735271195013L154.8552005767822,132.50003591614384L155.09178491099675,132.50055767429262L155.1348002444903,132.50065778498794L155.26384624497098,132.49959842917434L155.54344591267903,132.49352264505458L155.65098424641292,132.48718509110282L155.80153791364035,132.4793581088271L155.93058391412097,132.47041605969173L156.21018358182906,132.45281728394696L156.76938291724525,132.3998241666091L157.26405925242105,132.32296357415115L157.35008991940816,132.26811780913403L157.37159758615493,132.23390533432942L157.52215125338236,132.1946758790888L157.88778158807756,132.1132408285784L158.12436592229207,132.01211860438903L158.3609502565066,131.8855152728372L158.511503923734,131.76064969550984L158.6405499242147,131.6376805011095L159.1567339261373,131.32178273832082L160.3396555972099,130.23666201406797L160.42568626419705,129.50024323970186L160.7052859319051,128.74523051280153L161.02790093310674,127.83967934573329L161.19996226708096,126.99008279810494L161.22146993382773,126.44307005486854L161.30750060081482,125.97174111837768L161.5225772682826,125.29378054576515L161.73765393575033,124.41912868930277L161.7591616024971,123.85241557104648L161.78066926924387,123.47185015857744L161.95273060321807,122.82356672680662L162.38288393815358,121.29337337971927L162.89906794007618,118.65129634207125L163.04962160730364,116.60063746573634L163.11414460754395,115.19596913254355L163.32922127501172,113.78631329306528L163.5227902757327,112.4470349695336L163.587313275973,111.46835491294557L163.80238994344077,110.24217624147863L163.90992827717463,109.22661869055283L164.68420428005854,106.51821704885833L164.87777328077954,104.41881845153728L164.92078861427308,103.07388830579656L165.00681928126016,102.03647510884485L165.13586528174082,101.13566419595861L165.20038828198116,100.47793982213736L165.3509419492086,99.7627519020902L165.52300328318276,98.95000097403846L165.5875262834231,98.34021292103984L165.7595876173973,97.59775837586555L165.8456182843844,96.94065428503747L165.93164895137153,96.34013681931106L166.42632528654735,93.91265527344974L166.51235595353444,92.07393216893774L166.6629096207619,89.94599521584942L166.74894028774898,87.94718421537632L166.9855246219635,84.93766358047563L167.2436166229248,80.94111621128252L167.5877392908732,75.7052030230933L168.1254309595426,69.72250288002166L168.4480459607442,66.40476629430628L168.74915329519908,65.28696110423513L168.92121462917328,65.24257877376726L169.09327596314748,65.90332281437804L169.22232196362813,66.8172457711114L169.24382963037493,67.45291057191763L169.80302896579107,70.37332057072162L170.10413630024593,73.6050741767612L170.6418279689153,78.23925746196407L171.00745830361046,82.7944274144031L171.26555030457178,86.65971003451017L171.33007330481212,89.25876251489439L171.45911930529277,91.35477169481265L171.84625730673474,94.09584413887686L171.88927264022828,95.90007853381562L172.27641064167022,98.33375464004371L172.3624413086573,100.06048568516785L172.8141023103396,102.35742223728602L172.90013297732673,103.93650059721067L173.05068664455413,105.20043217704216L173.33028631226222,106.43892232508598L173.45933231274287,107.35792785430738L173.76043964719773,108.20570651030341L174.01853164815904,108.83749452035278L174.34114664936067,109.20971664466768L174.51320798333487,109.36318468746538L174.53471565008164,109.4427519485214L175.0078843185107,109.04456111473375L175.0939149854978,108.68798029516175L175.39502231995263,107.99234422216162L175.65311432091394,107.07606884574857L175.67462198766071,106.48167260069931L175.82517565488817,105.79535165699897L176.126282989343,104.63747166284152L176.25532898982365,103.57594045455257L176.40588265705108,102.47744728096868L176.44889799054462,101.67510831084338L176.64246699126562,100.5235780159729L176.68548232475916,99.67765990922801L176.70698999150594,99.07918513037747L177.11563565969468,97.00051012489484L177.180158659935,95.47692830362293L177.373727660656,93.76952757437981L177.65332732836407,91.5781998405984L178.16951133028667,88.10167970213143L178.51363399823506,84.69826691314806L178.7502183324496,81.74499521740015L179.13735633389157,78.57988485995057L179.3524330013593,75.91717862486884L179.37394066810606,74.23842770435041L179.50298666858674,72.79879494296374L179.65354033581417,71.4487783833483L179.73957100280126,70.35114140361732L179.76107866954803,69.61089023334482L179.7825863362948,69.0823380905274L180.25575500472388,67.30056752174042L180.27726267147065,66.16364435916347L180.36329333845774,65.18777594877068L180.40630867195128,64.46398053441966L180.59987767267228,63.40019857124217L180.68590833965936,62.45627958633821L181.30963067531587,60.054091365884005L181.33113834206264,58.560603850058015L181.5247073427836,57.21391361162715L181.58923034302393,56.29273037435682L181.73978401025138,55.47582897106986L181.9548606777191,54.73361690468185L181.97636834446587,54.27556510964892L182.01938367795944,53.946611042261026L182.12692201169332,53.69619921738922L182.25596801217398,53.54836418758697L182.34199867916107,53.49008749002036L182.3850140126546,53.47026330144526L182.729136680603,53.622761706055584L182.8581826810837,53.79886276076547L182.87969034783046,53.92028777600105L183.05175168180466,54.119213562446575L183.46039734999337,54.689466317772826L183.82602768468857,55.588841481390446L184.38522702010474,57.15484457045261L184.87990335528056,59.0028103517525L185.15950302298864,60.74213646387717L185.22402602322896,61.95466264873514L185.89076369237898,64.48294386649759L185.91227135912578,66.06214960788107L186.25639402707418,67.9628060553382L186.27790169382095,69.16622880040973L186.49297836128872,70.44706103657552L186.55750136152903,71.35798683257028L186.60051669502258,72.0111837205854L186.83710102923712,72.87608542212297L186.96614702971777,73.58468873848699L187.0306700299581,74.10175405616022L187.11670069694517,74.56551103290019L187.50383869838714,75.57049491259905L187.52534636513394,76.21885081940817L187.61137703212103,76.7617311957703L187.67590003236134,77.1928609367601L187.7189153658549,77.53954529557947L188.02002270030977,78.32988209037457L188.10605336729685,78.96040734662218L188.3426377015114,79.8029252143235L188.4071607017517,80.42238126609561L188.83731403668722,81.70307524015152L189.00937537066142,82.84742734211787L189.22445203812916,83.9824378625116L189.24595970487593,84.69445197517821L189.48254403909047,85.6016822404014L189.9772203742663,87.03345197824984L190.08475870800018,88.05861550191004L190.45038904269535,89.25578452305905L191.39672637955348,90.6460779010562L191.41823404630026,91.48763599324595L191.50426471328734,92.00655613758117L191.59029538027445,92.31824424621317L191.97743338171642,92.50205578522228L192.10647938219705,92.60905802815542L193.03130905230842,92.75974988176893L193.20337038628261,92.95128157701045L193.37543172025678,93.32353095407764L193.39693938700358,93.57226717499155L193.76256972169878,94.40773882959768L194.04216938940684,95.0896141277912L194.12820005639395,95.4912895159453L194.36478439060846,95.73818425125485L194.62287639156978,95.88569072552994L194.6873993918101,95.97701563226117L194.73041472530363,96.02280310201495L194.81644539229075,96.0378896555199L194.98850672626494,96.00888774383196L196.27896673107145,95.69455512887079L196.40801273155213,95.47384331495917L196.4295203982989,95.33126784031542L196.79515073299407,95.1538973723327L196.9457044002215,95.03485733404267L197.44038073539735,95.02964267526043L197.52641140238444,95.0580843219615L197.76299573659895,95.18108220883143L197.8275187368393,95.3543564862016L198.1931490715345,95.62219300599014L198.32219507201512,95.78324917364776L198.6017947397232,95.82757283994778L199.03194807465871,95.77296171560008L199.22551707537968,95.70934352987778L199.56963974332808,95.6286436905524L199.61265507682162,95.57348250776414L199.80622407754262,95.49168083736816L199.99979307826362,95.36832073255395L200.1718544122378,95.20417001591109L200.6020077471733,94.86773431091595L200.64502308066685,94.64027530266776L200.70954608090716,94.45500116340583L200.75256141440076,94.30683778894536L200.8816074148814,94.11843035633557L201.1396994158427,93.77665908662277L201.16120708258947,93.55209662771664L201.3117607498169,93.25014781727333L201.3762837500572,92.9899820958888L201.4838220837911,92.68644713616303L201.63437575101852,92.27528677154724L201.67739108451207,91.9644181593468L202.7742820885976,89.88091978182743L203.01086642281214,88.22786261492811L203.07538942305248,87.13158537409167L203.18292775678634,86.30264836513415L203.52705042473474,85.23311878584069L203.61308109172185,84.45480938512561L203.63458875846862,83.96490912604852L203.6776040919622,83.59323326930499L203.89268075942994,82.94683478671459L203.97871142641702,82.35850776171647L204.06474209340413,81.7929268181623L204.2583110941251,80.96143361307567L204.27981876087188,80.4143172261824L204.3873570946058,79.80714389877771L204.47338776159287,79.20798394615191L204.49489542833965,78.79138246308158L204.81751042954127,77.63043979932235L205.48424809869132,75.0639715101615L205.7423400996526,72.65191540008091L205.89289376688004,70.64709354853841L206.00043210061392,69.03465730734888L206.30153943506878,66.81139787895931L206.49510843578975,64.64760846605347L206.81772343699137,61.92557300599246L207.0543077712059,59.16439870732853L207.2048614384333,56.69550543611189L207.22636910518008,55.086168523016624L207.41993810590108,52.908477603716634L208.23722944227853,46.09615510038688L208.30175244251888,41.568984299812286L208.34476777601242,38.548980419284675L208.40929077625273,36.267432887206695L208.43079844299953,34.74543461119836L208.51682910998662,33.18826635476722L209.20507444588344,28.25593360042666L209.50618178033827,24.13003737487847L210.0868887825012,19.804799947647723L210.21593478298186,16.974165958571803L210.30196544996898,15.215093213813475L210.68910345141094,15.075916524601439L210.7966417851448,15.326947793439018L211.11925678634643,16.280737353187163L211.18377978658677,17.0437726193382L211.24830278682708,17.642014520426642L211.69996378850936,19.44579187810831L211.9365481227239,21.034055374773658L212.216147790432,22.72245369101097L212.23765545717876,23.754836088515077L212.45273212464653,24.76988067434297L212.51725512488684,25.532946176364703L212.60328579187393,26.256362703777143L212.96891612656913,27.638182294467413L213.01193146006267,28.522819272031512L213.07645446030298,29.18610875089962L213.52811546198527,30.45491088185915L213.57113079547884,31.357910103161174L213.6786691292127,32.18424996589957L213.9152534634272,33.56398979120729L214.08731479740143,35.31619643063914L214.17334546438852,36.853929235330014L214.53897579908372,39.66629430404947L214.66802179956437,42.07165176487243L214.8830984670321,44.56305961604508L214.92611380052566,46.245024315972074L215.05515980100634,47.75617316325804L215.1626981347402,48.95900988817263L215.27023646847405,50.09737403176041L215.3347594687144,50.98067727724526L215.65737446991602,52.716988734659154L215.6788821366628,53.823328306542436L216.25958913882573,56.187116995477524L216.43165047279993,57.9797760573142L216.6467271402677,59.73336757430667L216.88331147448224,61.55141567609634L217.3349724761645,64.05604030072699L217.7006028108597,66.41868242840053L217.72211047760646,67.86156313091017L218.41035581350326,70.08366141137876L218.43186348025006,71.45452358925439L218.5609094807307,72.52338411693908L219.679308151563,75.4098667979263L219.72232348505656,77.19786687603056L219.872877152284,78.49410594449223L219.9374001525243,79.34963197366152L220.08795381975173,80.00709843758582L220.66866082191467,80.71128122588392L221.12032182359695,81.20058634799213L221.33539849106472,81.52407798682673L221.67952115901312,81.74979290371486L221.72253649250666,81.8861752186795L221.7655518260002,81.96906477018982L221.8730901597341,82.01767582283782L222.56133549563089,81.91514786654372L222.66887382936477,81.81775748494411L222.9054581635793,81.63292427111513L222.92696583032608,81.50754674244881L222.94847349707285,81.42279699621896L223.01299649731317,81.32634713551622L223.35711916526157,80.99863329454963L223.93782616742453,80.25464073060873L224.00234916766485,79.7356566191097L224.43250250260036,78.92172827369659L224.561548503081,78.27170038762561L224.58305616982778,77.85257477075037L225.14225550524392,76.84512276617471L225.29280917247138,76.00592063869972L225.4433628396988,75.258525512459L226.15311584234237,73.59870817684069L226.2176388425827,72.49623367113423L226.62628451077143,71.07409407304705L226.6477921775182,70.17746607703404L226.8413611782392,69.24280615510345L226.9919148454666,68.39033526468123L227.05643784570694,67.73271961450523L227.20699151293437,67.02781955236742L227.2715145131747,66.46038222734336L227.68016018136342,65.22324895017636L227.74468318160373,64.34244976249803L227.98126751581827,63.28641305659794L228.21785185003282,62.16683284622255L228.43292851750056,61.12276970496775L228.4759438509941,60.41722337775266L228.49745151774087,59.95929573153144L228.56197451798118,59.57436299000143L229.0781585199038,58.479245850445295L229.1856968536377,57.6629141481874L229.20720452038447,57.131625522896584L229.29323518737155,56.68342395493113L229.70188085556032,55.717249485623896L229.7233885223071,55.107360127343725L229.91695752302806,54.36222434812409L230.08901885700226,53.56486465921536L230.34711085796354,52.52026735278022L231.14289452759422,50.15570461329817L231.2074175278346,48.60671545308341L231.40098652855553,47.34242520916138L231.4224941953023,46.546250458035615L231.551540195783,45.85914136639943L231.59455552927653,45.37814507958339L231.7881245299975,44.80931274821128L232.54089286613464,43.267854662452095L232.64843119986853,42.260208988880066L233.14310753504435,41.14235183981074L233.20763053528466,40.38736114116861L233.272153535525,39.846511287430616L233.46572253624598,39.22333249100228L234.0679372051557,38.13999153720363L234.5841212070783,37.33689636958732L234.79919787454602,36.859925914985894L235.9821195456187,37.22947109930976L236.11116554609936,37.58746165547808L236.19719621308644,37.8739979951815L236.26171921332676,38.10937326157776L236.4983035475413,38.48695475503865L236.5628265477816,38.78107794200602" fill="none"></path></g></g></g></g><g opacity="0.2"><g><g><g><path style="fill: none;" stroke="rgb(255, 112, 67)" stroke-width="2px" d="M21.894804748217265,152.62623531870747L22.023850748697917,152.62619567537737L22.367973416646322,152.6260519150417L22.41098875013987,152.62602707397096L22.475511750380196,152.6259279923597L22.712096084594727,152.62565277236337L23.034711085796356,152.62503853771332L23.09923408603668,152.62488579785207L23.529387420972185,152.62339577837093L23.78747942193349,152.62154682975998L24.217632756868998,152.61729180565598L24.841355092525482,152.6006499338698L24.905878092765807,152.59878828905715L25.099447093486788,152.59052757894L25.44356976143519,152.5732716765023L25.486585094928742,152.5714437923061L26.432922431786857,152.48231662975203L26.54046076552073,152.4621106138356L26.86307576672236,152.38277147674236L26.992121767203013,152.32872002231443L27.099660100936887,152.29906849976027L27.25021376816432,152.24994394902734L27.379259768644967,152.18883792960455L28.132028104782105,151.58224347874898L28.175043438275654,151.51460184914086L28.34710477224986,151.2495350662918L28.79876577393214,150.36549431454387L28.97082710790634,150.08032532709043L29.40098044284185,149.2855483638601L30.562394447167716,144.55299185865297L30.583902113914487,144.42705360166525L30.94953244860967,142.51834590144068L31.014055448849998,142.12776424692075L31.078578449090323,141.70371225842445L31.401193450291952,139.28446841110343L31.46571645053228,138.83609633971855L31.48722411727905,138.66621473652282L31.702300784746807,136.9148333977203L32.110946452935536,134.2264715571701L32.56260745461782,130.53171885011318L32.928237789312995,126.46641719730522L33.03577612304687,125.17133879870246L33.61648312520981,117.53771924000851L33.83155979267756,114.84205738595817L33.960605793158216,113.15099395531385L34.111159460385636,111.1864567807446L34.132667127132414,110.84779736765222L34.842420129776,100.99936934193704L34.88543546326955,100.26270941582331L35.14352746423085,96.24412036055335L35.294081131458285,94.63778527571704L35.315588798205056,94.24382549273751L35.35860413169861,93.40946846355835L35.423127131938934,92.23860099939122L35.46614246543248,91.44555644625586L35.72423446639379,86.9354114417913L35.939311133861544,82.60262876354507L36.86414080397288,63.64597194004584L37.03620213794708,60.197246293684685L37.208263471921285,56.82249759055455L37.40183247264226,52.94145615807737L37.68143214035034,47.64198498380358L37.767462807337445,46.42026488321997L37.96103180805842,43.29297426484152L38.04706247504552,41.98741145791115L38.09007780853908,41.35859441633767L38.13309314203262,40.85888537445598L38.283646809260055,38.64422668469658L38.391185142993926,36.73144081011475L38.434200476487476,36.0462033252179L38.54173881022136,34.315103781282716L38.5847541437149,34.23663352019699L38.67078481070201,32.62697077532624L38.75681547768911,31.133222606997066L38.88586147816976,29.37899224419246L38.90736914491654,28.922744656458974L39.40204548009237,20.470540265461352L39.48807614707947,19.706545989064864L40.197829149723056,11.128098902514722L40.348382816950476,9.088927067173415L40.47742881743113,7.463752607621643L40.77853615188599,3.5903823757717817L40.86456681887309,2.723080861046327L41.01512048610052,1.2746696186655981L41.058135819594064,0.8910574908616127L41.23019715356827,-0.8484816761746288L43.961670830408735,-2.650223991251522L44.24127049811681,0.007384670213383515L44.37031649859746,1.1595625369268987L44.43483949883779,1.8532656931441807L44.47785483233134,2.2188394289807434L44.56388549931844,3.130891784717079L44.692931499799094,4.5995034212793655L44.80046983353297,5.783486163938335L45.01554650100072,8.58277109097844L45.14459250148138,10.8567936728588L45.252130835215254,12.818914875074285L45.467207502683,16.89942054797106L46.37052950604757,35.03886658274246L46.45656017303467,37.6248817130558L46.478067839781446,37.99533949003879L46.49957550652822,38.458424735377235L46.88671350797018,47.24443705859514L47.166313175678255,53.023794579751055L47.44591284338633,58.844607842157714L48.00511217880249,71.275195861708L48.2632041797638,76.4959362927016L48.499788513978324,81.1297908033774L48.56431151421865,82.43314602370961L48.62883451445898,83.87893942003586L49.05898784939448,95.77923127601817L49.18803384987513,99.51131270955715L49.33858751710256,102.98426320000452L49.46763351758322,105.88472266740632L49.811756185531614,112.6771019549321L49.87627918577194,114.16677357691772L50.11286351998647,118.49197947933214L50.17738652022679,119.51790488241085L50.24190952046712,120.52797343190086L50.263417187213896,120.8631977360536L51.29578519105912,135.32333602988678L51.36030819129944,136.10806143293607L51.42483119153977,136.901302975731L51.44633885828654,137.13163761222336L51.91950752671559,141.62977927156373L52.1775995276769,143.16879924529275L52.39267619514466,143.80201355191167L52.47870686213176,143.86198143712107L53.01639853080113,142.43014500237757L53.03790619754791,142.315214560127L53.27449053176244,140.66737896366274L53.446551865736645,139.2602671732161L53.532582532723744,138.45079758970536L53.5755978662173,138.11435064725228L54.2638432021141,133.213319549703L54.34987386910121,132.79263266555657L54.88756553777059,130.56121031856895L55.231688205718996,129.2142861951833L55.25319587246577,129.09986939125997L55.57581087366739,126.55885581606968L55.6618415406545,126.23991164907164L56.005964208602904,125.375472182458L56.027471875349676,125.35623068835486L56.50064054377874,124.63851270182064L56.608178877512614,124.45401316347369L56.71571721124649,124.33672779938368L56.78024021148682,124.33637289239371L56.8877785452207,124.27789463973397L56.95230154546102,124.1729756678267L57.210393546422324,123.96100502604486L57.38245488039652,123.87026605359935L57.53300854762396,123.48462542070588L57.68356221485138,122.74446200907647L57.877131215572355,122.52602489681678L57.963161882559454,122.4476327803894L58.00617721605301,122.44690017421745L58.049192549546554,122.43715814014406L58.11371554978688,122.47440383792662L58.264269217014316,122.61921240189038L58.45783821773529,122.63332076874866L58.67291488520304,122.99552777222162L58.75894555219014,123.10261200237048L58.8019608856837,123.13969815480891L58.86648388592402,123.28290149724924L58.9740222196579,123.45991542853245L59.038545219898225,123.57357357806438L59.060052886644996,123.62258330295494L59.49020622158051,124.4095032684927L59.683775222301485,124.81463122556036L59.81282122278214,125.09879776356848L59.96337489000956,125.44347105932582L59.98488255675633,125.4744163440295L60.17845155747732,125.0954310312049L60.329005224704744,125.37517913998923L60.78066622638702,126.41462845300234L60.866696893374126,126.56363892036575L61.081773560841874,127.06858039832896L61.167804227828974,127.31317643496884L61.36137322854996,127.75470677871445L61.64097289625804,128.511954566274L61.70549589649836,128.6363103939303L61.83454189697902,128.85021185997869L61.87755723047256,128.90150731612576L62.60881789986293,129.5443301596934L62.737863900343584,129.5021450682981L63.10349423503876,129.44504737126908L63.31857090250651,129.33472013779902L63.383093902746836,129.3649490964679L63.426109236240386,129.35859007489526L63.81324723768234,129.49576162651977L64.1143545721372,129.89364817858097L64.15736990563074,129.94144991729468L64.5445079070727,130.76967096278022L64.63053857405981,131.02683852133097L64.80259990803401,131.5603288478087L65.1682302427292,132.48036823883314L65.29727624320984,132.8015899970191L65.81346024513245,134.04412588096872L66.09305991284053,134.77092818403526L66.15758291308086,134.94500355056206L66.17909057982763,134.9984007724158L66.22210591332117,135.0783622940649L66.26512124681473,135.1966993550151L66.35115191380183,135.40967285324567L66.43718258078893,135.52431432306173L66.58773624801636,135.8234178869093L66.91035124921798,136.33262476080708L67.64161191860835,136.89138186014893L67.72764258559545,136.95056504274746L67.87819625282287,137.03907038037534L68.07176525354384,137.1305370749517L68.32985725450516,137.23353661868842L68.54493392197291,137.29574953481145L68.58794925546646,137.29915045546306L68.63096458896001,137.30352492831656L68.73850292269388,137.2962704992004L68.80302592293421,137.30129129349893L68.97508725690841,137.28136440562156L69.06111792389552,137.26342695050448L69.49127125883102,137.09332393744344L69.5988095925649,137.02819036471485L69.62031725931168,137.0100852241851L69.66333259280523,136.97403123244226L69.72785559304555,136.9218533928614L69.81388626003266,136.85755336315515L69.83539392677943,136.84191140737687L69.98594759400686,136.74098432509993L70.05047059424717,136.68450038924166L70.15800892798106,136.59218712753326L70.56665459616978,136.10040000039106L70.78173126363754,135.76558921172204L70.9107772641182,135.54289809962384L71.03982326459885,135.32001325389348L71.12585393158595,135.15373932909125L71.38394593254725,134.69107899533253L71.40545359929403,134.64457152752266L71.9431452679634,133.50216825515682L72.1367142686844,133.06009578284397L72.88948260482152,131.48662541088186L72.9109902715683,131.4306722074948L72.95400560506185,131.31794528180814L73.90034294191996,129.19046347048481L74.07240427589416,128.85022651210213L74.2229579431216,128.57648251790044L74.26597327661514,128.49148392181567L74.30898861010868,128.41474912335065L74.41652694384257,128.21810134665884L74.95421861251195,127.22905696629043L74.97572627925872,127.18601228365335L75.19080294672648,126.79272812636574L75.23381828022002,126.72770037452867L75.3413566139539,126.5015301971205L75.64246394840876,125.97880755335689L75.7715099488894,125.75257225540011L75.96507894961039,125.47304555648108L76.28769395081201,125.0678622469471L76.37372461779913,124.94942750517396L76.41673995129267,124.90028753918618L76.95443161996207,124.55789997468534L77.21252362092336,124.50271356575831L77.4276002883911,124.45966237106637L77.55664628887176,124.4691764832196L77.92227662356694,124.66000248286485L78.0513226240476,124.79461968096979L78.07283029079437,124.80196202282656L78.37393762524923,124.961448758449L78.50298362572987,125.0759339389484L78.61052195946375,125.13622254285974L79.10519829463959,125.91744608840706L79.255751961867,126.2205952663376L79.36329029560089,126.44592050462742L79.64288996330896,127.21111788315963L79.79344363053639,127.7273431241848L80.11605863173803,129.00626999871636L80.37415063269933,130.43279259669256L80.43867363293965,130.7288094465356L80.73978096739451,131.84113028146695L81.49254930353165,133.26335166720688L81.51405697027843,133.29980615032372L81.5355646370252,133.3302174465287L81.92270263846716,133.8662604985123L82.24531763966878,134.28254034953096L83.27768564351399,135.212606677029L83.47125464423497,135.3031258676229L83.66482364495594,135.37710769489507L83.7938696454366,135.41929115827668L84.2455306471189,135.5372847083329L84.28854598061244,135.55732718518408L84.31005364735921,135.56198656043773L85.32091398445765,135.45027877133694L85.49297531843185,135.40232399933402L85.98765165360768,135.1650051840023L86.18122065432865,135.055360088279L86.26725132131577,134.99920175516382L86.35328198830287,134.936529739173L86.61137398926418,134.71355046864718L86.6758969895045,134.6592252789756L86.84795832347871,134.49572060550338L86.91248132371902,134.43444705329418L87.42866532564163,133.82424146451598L87.51469599262873,133.68218098770393L87.55771132612229,133.6050131375906L88.159925995032,131.53784923442547L88.65460233020784,129.7321768942394L88.97721733140945,128.64780254274783L89.14927866538365,128.03248499090307L89.25681699911753,127.74260900879477L89.36435533285142,127.43125464173828L89.49340133333206,127.13238551186572L89.83752400128047,126.50306215802675L90.22466200272243,126.24041633332345L90.2461696694692,126.20825166634688L90.39672333669662,125.97725931231349L90.46124633693695,125.88402785086957L90.97743033885955,125.22286543279714L91.04195333909989,125.13983998933551L91.1925070063273,125.01110317677089L91.25703000656765,124.98896219024049L91.27853767331442,124.92768701001756L91.32155300680796,124.89714221668788L91.34306067355473,124.89443645789277L91.88075234222411,125.129114634978L92.0743213429451,125.30170362498257L92.59050534486771,125.79634954420914L92.7625666788419,126.05057853800346L93.06367401329676,126.62184203870757L93.08518168004355,126.66870115747997L93.45081201473872,127.24675673140503L94.0745343503952,128.264796036046L94.11754968388874,128.3537441934045L94.33262635135651,128.71574281112188L94.69825668605169,129.42505210681566L94.80579501978556,129.6375681331922L95.27896368821462,130.46224987686028L95.45102502218883,130.73807610060408L95.68760935640336,131.09668356575213L95.7306246898969,131.12127634093804L95.88117835712433,131.31588096041693L96.01022435760498,131.51692925818168L96.16077802483241,131.82277605483873L96.28982402531305,132.0425595344411L96.3543470255534,132.14928885759997L96.71997736024858,132.85151954965892L96.97806936120986,133.26604602990597L97.04259236145019,133.39550242453285L97.19314602867762,133.64274235544664L97.53726869662603,134.19358405210386L97.58028403011957,134.24461414201534L97.70933003060023,134.41916651656075L97.79536069758734,134.5188416562905L98.13948336553572,134.88940688217872L98.50511370023091,135.14126223197587L98.93526703516643,135.29396503444596L99.32240503660839,135.26448333407248L99.36542037010193,135.2519541405182L99.40843570359547,135.2375152868757L99.47295870383581,135.21712604310312L99.53748170407613,135.1907310567342L99.90311203877131,134.974957374913L100.13969637298584,134.7689127030555L100.4408037074407,134.41683520092022L101.08603370984395,133.3008676152662L101.1290490433375,133.20884902404032L101.64523304526011,131.972794262692L101.73126371224721,131.7466550175444L101.77427904574076,131.62980270510272L101.90332504622141,131.27049682207073L101.96784804646174,131.0940722317525L102.0108633799553,130.97153163938896L102.20443238067628,130.3901516614569L102.3549860479037,129.90494170972522L102.63458571561178,128.92291895251162L102.80664704958598,128.3040262825477L103.08624671729405,127.42579428373658L103.12926205078762,127.25976293297794L103.19378505102793,127.0502750121122L103.53790771897634,125.88945239256952L103.64544605271021,125.52035400703896L103.68846138620377,125.37049046048867L103.90353805367153,124.5114787916024L103.98956872065861,124.16221775319485L104.6132910563151,121.42351447253488L104.72082939004898,121.03138132094412L104.8713830572764,120.43900899440521L105.81772039413451,116.23527570735698L105.98978172810872,115.50967325039872L106.14033539533615,114.8684409762311L106.22636606232327,114.50863692100216L106.46295039653778,113.50107551263399L106.59199639701843,112.94613447744119L106.72104239749908,112.40485898937608L107.19421106592814,110.63832735493736L107.43079540014267,109.84794297621309L107.53833373387656,109.57061409580994L107.73190273459753,109.14970417378449L107.7534104013443,109.15281367998105L108.0115024023056,108.89434045443049L108.24808673652014,108.89693876432038L108.31260973676046,108.89839420858202L108.5276864042282,108.92749983778721L109.53854674132666,108.5092240419534L109.64608507506053,108.39416254459873L109.6675927418073,108.36110409809237L109.88266940927505,108.07296195059106L111.45272908178966,107.30277796604835L111.68931341600418,107.51930379020608L111.71082108275095,107.54394214977602L111.75383641624451,107.57920492685314L111.79685174973805,107.61102933896316L111.86137474997838,107.66436306828201L111.88288241672515,107.69930349864347L112.42057408539453,108.16906034418793L112.52811241912842,108.3422289070752L112.59263541936875,108.432577156229L112.76469675334295,108.68220375524969L113.00128108755747,109.06591030784917L113.19485008827846,110.13754708003088L113.25937308851879,110.27506214254933L113.28088075526556,110.30381286476457L113.60349575646718,111.00787995629454L113.9476184244156,111.84591629647068L114.07666442489624,112.17302658026551L114.16269509188335,112.38558656301232L114.35626409260432,112.98312946111157L114.39927942609786,113.10505466429066L114.59284842681885,113.67044754753678L114.67887909380596,113.9163850674782L114.91546342802047,114.66268609081494L115.47466276343664,116.6633716819225L115.66823176415761,117.42679940954599L115.99084676535925,118.63886213276942L116.14140043258668,119.26015449494997L116.27044643306732,119.75638935556285L116.35647710005442,120.07062856292316L116.3779847668012,120.16283600374004L116.78663043498993,121.71660903775864L116.85115343523024,121.96661659198875L117.62542943811417,124.809037370434L117.75447543859481,125.25744770014119L118.07709043979645,126.44494532441186L118.12010577328999,126.59811211079085L118.48573610798518,127.86154517879226L118.50724377473196,127.93187699931434L118.91588944292069,129.12755213647785L118.93739710966746,129.183653489113L119.00192010990779,129.3595408349051L119.19548911062876,129.88894973099815L119.4320734448433,130.5160199138549L119.96976511351266,131.79426627865337L120.03428811375301,131.93060591526927L120.27087244796753,132.4061731417642L120.33539544820785,132.55100124189258L120.3784107817014,132.62887727797215L120.42142611519496,132.7260469045938L120.67951811615626,133.2491195713062L121.04514845085143,133.9999497287994L121.49680945253372,134.73954984768326L121.64736311976115,134.97032893191994L121.81942445373535,135.19395126786338L121.90545512072245,135.28239311295638L122.05600878794988,135.43311625074844L122.07751645469665,135.46197279385518L122.09902412144343,135.47919229492373L122.31410078891118,135.71367185433564L122.87330012432734,136.296829623245L122.98083845806121,136.37760840777926L123.32496112600963,136.7076035318779L123.56154546022415,136.87968620961698L123.64757612721127,136.95598632841998L123.66908379395804,136.9734972439436L123.84114512793224,137.14836708116354L123.97019112841288,137.24515900860317L124.0347141286532,137.29686472420656L124.22828312937419,137.49864400012953L124.31431379636129,137.57144063341684L124.46486746358872,137.6850922708939L124.48637513033549,137.6983736067847L124.61542113081615,137.7799012776281L124.7444671312968,137.83814021227167L124.78748246479034,137.85654165129765L124.85200546503067,137.88876329875427L125.60477380116781,138.06372593275597L125.86286580212912,138.0360431875381L126.27151147031785,137.932553611673L126.31452680381139,137.91627347451828L126.76618780549367,137.77041484170806L127.19634114042918,137.68847202736723L127.7125251423518,137.61364200494927L127.77704814259211,137.6052056378757L128.05664781030018,137.55019342641623L128.2287091442744,137.50393016066366L128.42227814499537,137.50132208269147L128.4868011452357,137.50630380466083L128.52981647872926,137.49872051677414L128.55132414547603,137.48362068956317L129.49766148233414,137.4999350150059L129.6267074828148,137.4926952380132L129.6912304830551,137.4894440946234L129.84178415028254,137.48122913741514L130.12138381799062,137.4495968309235L130.16439915148416,137.4394738416407L130.18590681823093,137.43390277870637L130.3364604854584,137.39189514080607L130.72359848690033,137.21285921648823L131.21827482207615,136.82412210150792L131.32581315581004,136.7188498506244L131.75596649074552,136.21041302721406L131.79898182423912,136.14990464145112L131.92802782471975,135.95948238920727L132.4872271601359,135.0124570428352L132.5947654938698,134.80372940437456L132.96039582856497,134.04533549515932L133.34753383000694,133.2406148276566L133.5195951639811,132.84888379545356L134.01427149915696,131.56757188082884L134.10030216614405,131.3082048757485L134.18633283313116,131.0593141389272L134.20784049987793,130.99268116556667L134.7670398352941,129.14724459038018L135.26171617046992,127.32384643686004L135.8854385061264,124.90407429908836L136.12202284034092,123.89227028697766L136.46614550828934,122.33218055974302L136.7672528427442,120.9636461822982L136.78876050949097,120.86384242948493L137.21891384442645,118.87653911111855L137.73509784634908,116.65711359720024L138.0792205142975,115.24942548989831L138.48786618248621,113.68815708073367L138.55238918272656,113.47001952299765L138.6599275164604,113.07467592835997L139.4557111860911,110.4552897729069L139.60626485331855,110.05135677790639L139.69229552030563,109.85738871179025L139.82134152078626,109.57006382717411L139.95038752126695,109.32721302123721L140.0579258550008,109.1337952237569L140.12244885524115,109.01040806426133L140.1654641887347,108.94034812202972L140.6816481906573,108.4536110934329L140.85370952463148,108.40230261317609L141.21933985932668,108.97239068797762L141.32687819306054,109.16984595947231L141.3698935265541,109.1819453574057L141.6279855275154,109.25637814447705L141.67100086100896,109.26530291566526L141.80004686148962,109.47985884322726L142.0581388624509,109.63854785212912L142.1656771961848,109.69764149397332L142.38075386365253,109.83478862539206L142.5958305311203,110.00152327807581L143.19804520003,110.88571706311299L143.24106053352358,110.96141644485498L143.32709120051067,111.12466714818761L143.6497062017123,111.80539177906515L144.53152053833008,114.2073046063781L144.5960435385704,114.41328741371441L144.98318154001234,115.66351403445593L145.37031954145434,116.93607049131884L145.7359498761495,118.26405104711128L145.80047287638982,118.49942275803929L145.9080112101237,118.89355511047266L146.01554954385756,119.27599506840151L146.40268754529953,120.60180385389751L146.4241952120463,120.67323132765009L146.78982554674147,121.82480682928889L146.8543485469818,122.02458039231439L147.00490221420924,122.48007583771133L147.58560921637218,124.09802842842124L147.62862454986572,124.20928688573657L147.77917821709315,124.5955331397322L148.1663162185351,125.56804992486113L148.35988521925609,126.05381828529725L148.55345421997706,126.53932779155261L148.76853088744483,127.03600547189609L149.00511522165934,127.57505546521216L149.09114588864645,127.7726442338315L149.11265355539322,127.82250703790896L149.52129922358196,128.75000598777768L149.62883755731582,128.98300242669484L149.67185289080936,129.0734825449596L149.75788355779648,129.24666738798402L149.95145255851745,129.65609492927425L150.3385905599594,130.39413052697753L150.7687438948949,131.03065621349373L150.8762822286288,131.18971478150902L151.06985122934978,131.41915889449902L151.1988972298304,131.5449343501152L151.22040489657718,131.56478146532052L151.30643556356432,131.63531027550215L151.37095856380463,131.6854547259524L151.8441272322337,131.977709236099L152.23126523367563,132.14808738347796L152.3172959006627,132.17714254425798L152.42483423439663,132.2202262992242L152.76895690234502,132.31996493148887L152.81197223583857,132.33005698851107L153.0270489033063,132.3780736250352L153.156094903787,132.40265663213881L153.19911023728054,132.40810885007193L153.32815623776116,132.4307708009913L153.3711715712547,132.4362979075553L153.41418690474828,132.44244365933122L153.6722789057096,132.4733580117743L153.71529423920313,132.47743781414528L153.75830957269667,132.48138900343275L154.25298590787253,132.50316531489088L154.4465549085935,132.50660205184425L154.5110779088338,132.50629110122458L154.8552005767822,132.5040607224344L155.09178491099675,132.50134031151583L155.1348002444903,132.50080795103088L155.26384624497098,132.49800939545398L155.54344591267903,132.48440896887493L155.65098424641292,132.47767876017517L155.80153791364035,132.46761763541355L155.93058391412097,132.45700298598868L156.21018358182906,132.42641912032983L156.76938291724525,132.32033449060228L157.26405925242105,132.20767268546422L157.35008991940816,132.18584916160833L157.37159758615493,132.18258662212253L157.52215125338236,132.13583169622788L157.88778158807756,131.99108825281274L158.12436592229207,131.860435268105L158.3609502565066,131.69561027550952L158.511503923734,131.57335132951874L158.6405499242147,131.45322670950895L159.1567339261373,130.8479360941378L160.3396555972099,128.6089809276887L160.42568626419705,128.3956150781527L160.7052859319051,127.61271142245101L161.02790093310674,126.48135259513094L161.19996226708096,125.7156879766624L161.22146993382773,125.62255094001398L161.30750060081482,125.26474771364136L161.5225772682826,124.27683968684636L161.73765393575033,123.10715090460921L161.7591616024971,123.00234589366201L161.78066926924387,122.90100203987393L161.95273060321807,121.85114157915035L162.38288393815358,118.99808335908823L162.89906794007618,114.68818078559923L163.04962160730364,113.52464915123402L163.11414460754395,113.08896663275438L163.32922127501172,111.67182953384787L163.5227902757327,110.4381174842361L163.587313275973,110.00033482806352L163.80238994344077,108.40290823427824L163.90992827717463,107.70328236416408L164.68420428005854,102.4556145863166L164.87777328077954,101.26972055555566L164.92078861427308,101.05649308718549L165.00681928126016,100.48035531341728L165.13586528174082,99.78444782662923L165.20038828198116,99.49135326140546L165.3509419492086,98.68997002201947L165.52300328318276,97.73087458196088L165.5875262834231,97.42553084154189L165.7595876173973,96.48407655810414L165.8456182843844,95.95499814879534L165.93164895137153,95.43936062072147L166.42632528654735,90.27143295465778L166.51235595353444,89.31584751216975L166.6629096207619,86.75408978621694L166.74894028774898,84.94896771466667L166.9855246219635,80.42338262812459L167.2436166229248,74.94629515749284L167.5877392908732,67.85133324080954L168.1254309595426,60.74845266541418L168.4480459607442,61.42816141573326L168.74915329519908,63.61025331912839L168.92121462917328,65.17600527806543L169.09327596314748,66.89443887529427L169.22232196362813,68.18813020621144L169.24382963037493,68.40640777312699L169.80302896579107,74.75393556892759L170.10413630024593,78.4527045858206L170.6418279689153,85.19053238976835L171.00745830361046,89.62718234306166L171.26555030457178,92.45763396467075L171.33007330481212,93.1573412354707L171.45911930529277,94.49878546469009L171.84625730673474,98.20745280497314L171.88927264022828,98.60643012622376L172.27641064167022,101.98426879938584L172.3624413086573,102.65058225285404L172.8141023103396,105.80282706546325L172.90013297732673,106.30511813709768L173.05068664455413,107.0963295467894L173.33028631226222,108.29665754715171L173.45933231274287,108.73643614813948L173.76043964719773,109.47737449429745L174.01853164815904,109.7851765354268L174.34114664936067,109.76804983114003L174.51320798333487,109.59338675166195L174.53471565008164,109.56210284010545L175.0078843185107,108.44727486405229L175.0939149854978,108.15310906580373L175.39502231995263,106.94889011266145L175.65311432091394,105.70165578112898L175.67462198766071,105.59007823312542L175.82517565488817,104.7658702414485L176.126282989343,102.90065167160533L176.25532898982365,101.9836436421191L176.40588265705108,100.82970752059288L176.44889799054462,100.47159985565547L176.64246699126562,98.79628257366718L176.68548232475916,98.40878274911066L176.70698999150594,98.18147296210165L177.11563565969468,93.8824976166709L177.180158659935,93.19155557171506L177.373727660656,91.20842648051514L177.65332732836407,88.29120823992626L178.16951133028667,82.88689949443096L178.51363399823506,79.593147729673L178.7502183324496,77.31508767377825L179.13735633389157,73.83221932377623L179.3524330013593,71.92311927224623L179.37394066810606,71.72030132357278L179.50298666858674,70.63934580088373L179.65354033581417,69.42375354392514L179.73957100280126,68.70468593402083L179.76107866954803,68.50051347793611L179.7825863362948,68.28950987630128L180.25575500472388,64.62791166855992L180.27726267147065,64.45825961529806L180.36329333845774,63.72397333318149L180.40630867195128,63.37828741289313L180.59987767267228,61.80452562647598L180.68590833965936,61.04040110898225L181.30963067531587,56.45080903520268L181.33113834206264,56.32037257631909L181.5247073427836,55.193878253980856L181.58923034302393,54.910955518451345L181.73978401025138,54.25047686613941L181.9548606777191,53.62029880509982L181.97636834446587,53.5884874170995L182.01938367795944,53.45317994117923L182.12692201169332,53.320581480081515L182.25596801217398,53.326611642883606L182.34199867916107,53.402672443670454L182.3850140126546,53.440527018582586L182.729136680603,53.85150931297109L182.8581826810837,54.063014342830286L182.87969034783046,54.10242529885443L183.05175168180466,54.41760224211484L183.46039734999337,55.544845450762196L183.82602768468857,56.9379042268169L184.38522702010474,59.503849204045906L184.87990335528056,61.77475902370229L185.15950302298864,63.35112563206421L185.22402602322896,63.77345192602212L185.89076369237898,68.27536569314125L185.91227135912578,68.4309582199563L186.25639402707418,70.81379072652392L186.27790169382095,70.971362918017L186.49297836128872,72.36830939082422L186.55750136152903,72.72437552656243L186.60051669502258,72.99097905260804L186.83710102923712,74.17343797442935L186.96614702971777,74.64759371303299L187.0306700299581,74.87735203267005L187.11670069694517,75.26114649801018L187.50383869838714,77.07797073214725L187.52534636513394,77.19138467962186L187.61137703212103,77.57605176031348L187.67590003236134,77.83955554824485L187.7189153658549,78.05957183380853L188.02002270030977,79.5153872825672L188.10605336729685,79.90619523099357L188.3426377015114,81.06670201587545L188.4071607017517,81.3515653437538L188.83731403668722,83.62411620123538L189.00937537066142,84.56395549506738L189.22445203812916,85.68495364310219L189.24595970487593,85.76247314417807L189.48254403909047,86.9625276382362L189.9772203742663,89.18110658502246L190.08475870800018,89.59636078740036L190.45038904269535,91.05153805478257L191.39672637955348,92.73151796805197L191.41823404630026,92.74997313153055L191.50426471328734,92.78493635408401L191.59029538027445,92.7857764091612L191.97743338171642,92.77777309373595L192.10647938219705,92.7695613925551L193.03130905230842,92.98578766218918L193.20337038628261,93.23857911987272L193.37543172025678,93.88190501967847L193.39693938700358,93.9453715063624L193.76256972169878,95.66094631150686L194.04216938940684,96.11242707508144L194.12820005639395,96.09380259817644L194.36478439060846,96.10852635421917L194.62287639156978,96.1069504369426L194.6873993918101,96.11400299235802L194.73041472530363,96.09148430664561L194.81644539229075,96.06051948577735L194.98850672626494,95.96538487630005L196.27896673107145,95.22305620642905L196.40801273155213,95.14277559409172L196.4295203982989,95.11740462834982L196.79515073299407,94.88784167035861L196.9457044002215,94.85629727660763L197.44038073539735,95.02182068708706L197.52641140238444,95.10074679201311L197.76299573659895,95.3655790391363L197.8275187368393,95.61426790225687L198.1931490715345,96.02394778567299L198.32219507201512,96.0248334251342L198.6017947397232,95.89405833939782L199.03194807465871,95.69104502907851L199.22551707537968,95.61391625129433L199.56963974332808,95.50759393156432L199.61265507682162,95.49074073358176L199.80622407754262,95.3689783317742L199.99979307826362,95.18328057533266L200.1718544122378,94.9579439409468L200.6020077471733,94.36308075342323L200.64502308066685,94.29908679029549L200.70954608090716,94.17708995451291L200.75256141440076,94.08459272725467L200.8816074148814,93.8358192074209L201.1396994158427,93.26400218205353L201.16120708258947,93.21525293935746L201.3117607498169,92.7972246016084L201.3762837500572,92.59973351381197L201.4838220837911,92.23114469657436L201.63437575101852,91.65854622462358L201.67739108451207,91.49811524104615L202.7742820885976,86.75567221554837L203.01086642281214,85.74827686457917L203.07538942305248,85.48716951283699L203.18292775678634,85.05924285169785L203.52705042473474,83.62882441690053L203.61308109172185,83.28734528405293L203.63458875846862,83.23005873743293L203.6776040919622,83.03571948418967L203.89268075942994,81.97723706282895L203.97871142641702,81.4760172242193L204.06474209340413,80.94455540283106L204.2583110941251,79.71419380544572L204.27981876087188,79.5936426458425L204.3873570946058,78.89638390767063L204.47338776159287,78.30924401721323L204.49489542833965,78.16648023847611L204.81751042954127,75.88902580368354L205.48424809869132,71.2142690764202L205.7423400996526,69.03383123495999L205.89289376688004,67.63986077122465L206.00043210061392,66.61600294556459L206.30153943506878,63.47650873637497L206.49510843578975,61.40192434669471L206.81772343699137,57.84251981590094L207.0543077712059,55.02263725933268L207.2048614384333,52.992165529286865L207.22636910518008,52.67216315337379L207.41993810590108,49.64194122476658L208.23722944227853,35.877671345392315L208.30175244251888,34.778228098950336L208.34476777601242,34.01897459849329L208.40929077625273,32.8451115890897L208.43079844299953,32.46243719718581L208.51682910998662,30.85251397012061L209.20507444588344,20.857434468915756L209.50618178033827,17.941193036556143L210.0868887825012,13.316943806801618L210.21593478298186,12.728214974957922L210.30196544996898,12.576484096676012L210.68910345141094,14.867151490783328L210.7966417851448,15.703494696695373L211.11925678634643,17.711421692809353L211.18377978658677,18.18832551856474L211.24830278682708,18.539377372059306L211.69996378850936,22.151457914630868L211.9365481227239,23.416450619771695L212.216147790432,25.255051165366893L212.23765545717876,25.30340968477128L212.45273212464653,26.292447553084827L212.51725512488684,26.67754442939733L212.60328579187393,27.3414874948958L212.96891612656913,29.71091168050279L213.01193146006267,29.849774738377647L213.07645446030298,30.181042969201798L213.52811546198527,32.35811407829843L213.57113079547884,32.71240893511418L213.6786691292127,33.42375976000719L213.9152534634272,35.633599529168805L214.08731479740143,37.94450638978691L214.17334546438852,39.16052844236634L214.53897579908372,43.88484190712862L214.66802179956437,45.67968795610682L214.8830984670321,48.30017139280412L214.92611380052566,48.76797136586259L215.05515980100634,50.02289643418695L215.1626981347402,50.7632649755445L215.27023646847405,51.80492024714209L215.3347594687144,52.30563214547253L215.65737446991602,55.32145592078007L215.6788821366628,55.482837664367324L216.25958913882573,59.732800028880106L216.43165047279993,60.668764650069264L216.6467271402677,62.3637548497953L216.88331147448224,64.27848782878083L217.3349724761645,67.81297723767302L217.7006028108597,69.96264561991082L217.72211047760646,70.0258841846746L218.41035581350326,73.41680883208164L218.43186348025006,73.51081685606783L218.5609094807307,74.12667490846614L219.679308151563,79.7395908194071L219.72232348505656,79.87986699318698L219.872877152284,80.43846454718471L219.9374001525243,80.6329210174155L220.08795381975173,80.99329813347228L220.66866082191467,81.76755540833109L221.12032182359695,81.93454403115445L221.33539849106472,82.00931544507863L221.67952115901312,82.08836527904704L221.72253649250666,82.0907486911265L221.7655518260002,82.09339909745528L221.8730901597341,82.09059240180983L222.56133549563089,81.76135593210259L222.66887382936477,81.67167191254468L222.9054581635793,81.35567445037165L222.92696583032608,81.3194804494493L222.94847349707285,81.29567237687424L223.01299649731317,81.18167234446204L223.35711916526157,80.50706253309983L223.93782616742453,79.13865188469737L224.00234916766485,78.95718045186119L224.43250250260036,77.70083575557693L224.561548503081,77.29665855851911L224.58305616982778,77.22388634543752L225.14225550524392,75.33394475931121L225.29280917247138,74.7471174474872L225.4433628396988,74.13743282309797L226.15311584234237,71.10898217341322L226.2176388425827,70.84252191257457L226.62628451077143,68.9408846759163L226.6477921775182,68.83252408301452L226.8413611782392,67.84081627220759L226.9919148454666,67.11162892904788L227.05643784570694,66.74629613924121L227.20699151293437,65.97046945916068L227.2715145131747,65.60922623980727L227.68016018136342,63.36754903442589L227.74468318160373,63.0212509809805L227.98126751581827,61.702357997747825L228.21785185003282,60.4874625306595L228.43292851750056,59.55667499308552L228.4759438509941,59.35890388693002L228.49745151774087,59.2724042621996L228.56197451798118,58.996963877706406L229.0781585199038,56.83657014111108L229.1856968536377,56.4384165948005L229.20720452038447,56.33469258496038L229.29323518737155,56.01112160298298L229.70188085556032,54.267987781663024L229.7233885223071,54.19252608992349L229.91695752302806,53.24452067929468L230.08901885700226,52.368825125852254L230.34711085796354,50.95337139312754L231.14289452759422,46.60886050407507L231.2074175278346,46.28323171276131L231.40098652855553,45.44598984327831L231.4224941953023,45.35198833134697L231.551540195783,44.8284777289451L231.59455552927653,44.65665064935939L231.7881245299975,43.956064251153094L232.54089286613464,40.95566753381334L232.64843119986853,40.74874047852205L233.14310753504435,39.465566116206816L233.20763053528466,39.25487509320536L233.272153535525,39.03523650682368L233.46572253624598,38.288564296359795L234.0679372051557,36.51498010650565L234.5841212070783,36.13225361816288L234.79919787454602,36.14447023308378L235.9821195456187,37.78378887579555L236.11116554609936,38.12444748973056L236.19719621308644,38.30380250473661L236.26171921332676,38.46243616117215L236.4983035475413,39.05332699522998L236.5628265477816,39.22226272245703" fill="none"></path></g></g></g></g></g></g><g transform="translate(71, 178)" clip-path="url(#clip_1)"><clipPath id="clip_1"><rect width="258" height="21"></rect></clipPath><g><g><line x1="0" y1="0" x2="0" y2="5" style="visibility: inherit;" fill="rgb(0, 0, 0)" stroke="rgb(204, 204, 204)" stroke-width="1px"></line><line x1="21.507666746775307" y1="0" x2="21.507666746775307" y2="5" style="visibility: inherit;" fill="rgb(0, 0, 0)" stroke="rgb(204, 204, 204)" stroke-width="1px"></line><line x1="43.015333493550614" y1="0" x2="43.015333493550614" y2="5" style="visibility: inherit;" fill="rgb(0, 0, 0)" stroke="rgb(204, 204, 204)" stroke-width="1px"></line><line x1="64.52300024032593" y1="0" x2="64.52300024032593" y2="5" style="visibility: inherit;" fill="rgb(0, 0, 0)" stroke="rgb(204, 204, 204)" stroke-width="1px"></line><line x1="86.03066698710123" y1="0" x2="86.03066698710123" y2="5" style="visibility: inherit;" fill="rgb(0, 0, 0)" stroke="rgb(204, 204, 204)" stroke-width="1px"></line><line x1="107.53833373387656" y1="0" x2="107.53833373387656" y2="5" style="visibility: inherit;" fill="rgb(0, 0, 0)" stroke="rgb(204, 204, 204)" stroke-width="1px"></line><line x1="129.04600048065186" y1="0" x2="129.04600048065186" y2="5" style="visibility: inherit;" fill="rgb(0, 0, 0)" stroke="rgb(204, 204, 204)" stroke-width="1px"></line><line x1="150.55366722742718" y1="0" x2="150.55366722742718" y2="5" style="visibility: inherit;" fill="rgb(0, 0, 0)" stroke="rgb(204, 204, 204)" stroke-width="1px"></line><line x1="172.06133397420246" y1="0" x2="172.06133397420246" y2="5" style="visibility: inherit;" fill="rgb(0, 0, 0)" stroke="rgb(204, 204, 204)" stroke-width="1px"></line><line x1="193.56900072097778" y1="0" x2="193.56900072097778" y2="5" style="visibility: inherit;" fill="rgb(0, 0, 0)" stroke="rgb(204, 204, 204)" stroke-width="1px"></line><line x1="215.0766674677531" y1="0" x2="215.0766674677531" y2="5" style="visibility: inherit;" fill="rgb(0, 0, 0)" stroke="rgb(204, 204, 204)" stroke-width="1px"></line><line x1="236.58433421452838" y1="0" x2="236.58433421452838" y2="5" style="visibility: inherit;" fill="rgb(0, 0, 0)" stroke="rgb(204, 204, 204)" stroke-width="1px"></line><line x1="258.0920009613037" y1="0" x2="258.0920009613037" y2="5" style="visibility: inherit;" fill="rgb(0, 0, 0)" stroke="rgb(204, 204, 204)" stroke-width="1px"></line></g><g transform="translate(0, 8)"><text style="text-anchor: middle; visibility: hidden; font-family: &quot;Helvetica Neue&quot;, sans-serif; font-size: 12px; font-weight: 200;" x="0" y="0" dx="0em" dy="0.95em" fill="rgb(50, 49, 63)" stroke="none" stroke-width="1px">-1k</text><text style="text-anchor: middle; visibility: inherit; font-family: &quot;Helvetica Neue&quot;, sans-serif; font-size: 12px; font-weight: 200;" x="21.507666746775307" y="0" dx="0em" dy="0.95em" fill="rgb(50, 49, 63)" stroke="none" stroke-width="1px">0</text><text style="text-anchor: middle; visibility: hidden; font-family: &quot;Helvetica Neue&quot;, sans-serif; font-size: 12px; font-weight: 200;" x="43.015333493550614" y="0" dx="0em" dy="0.95em" fill="rgb(50, 49, 63)" stroke="none" stroke-width="1px">1k</text><text style="text-anchor: middle; visibility: inherit; font-family: &quot;Helvetica Neue&quot;, sans-serif; font-size: 12px; font-weight: 200;" x="64.52300024032593" y="0" dx="0em" dy="0.95em" fill="rgb(50, 49, 63)" stroke="none" stroke-width="1px">2k</text><text style="text-anchor: middle; visibility: hidden; font-family: &quot;Helvetica Neue&quot;, sans-serif; font-size: 12px; font-weight: 200;" x="86.03066698710123" y="0" dx="0em" dy="0.95em" fill="rgb(50, 49, 63)" stroke="none" stroke-width="1px">3k</text><text style="text-anchor: middle; visibility: inherit; font-family: &quot;Helvetica Neue&quot;, sans-serif; font-size: 12px; font-weight: 200;" x="107.53833373387656" y="0" dx="0em" dy="0.95em" fill="rgb(50, 49, 63)" stroke="none" stroke-width="1px">4k</text><text style="text-anchor: middle; visibility: hidden; font-family: &quot;Helvetica Neue&quot;, sans-serif; font-size: 12px; font-weight: 200;" x="129.04600048065186" y="0" dx="0em" dy="0.95em" fill="rgb(50, 49, 63)" stroke="none" stroke-width="1px">5k</text><text style="text-anchor: middle; visibility: inherit; font-family: &quot;Helvetica Neue&quot;, sans-serif; font-size: 12px; font-weight: 200;" x="150.55366722742718" y="0" dx="0em" dy="0.95em" fill="rgb(50, 49, 63)" stroke="none" stroke-width="1px">6k</text><text style="text-anchor: middle; visibility: hidden; font-family: &quot;Helvetica Neue&quot;, sans-serif; font-size: 12px; font-weight: 200;" x="172.06133397420246" y="0" dx="0em" dy="0.95em" fill="rgb(50, 49, 63)" stroke="none" stroke-width="1px">7k</text><text style="text-anchor: middle; visibility: inherit; font-family: &quot;Helvetica Neue&quot;, sans-serif; font-size: 12px; font-weight: 200;" x="193.56900072097778" y="0" dx="0em" dy="0.95em" fill="rgb(50, 49, 63)" stroke="none" stroke-width="1px">8k</text><text style="text-anchor: middle; visibility: hidden; font-family: &quot;Helvetica Neue&quot;, sans-serif; font-size: 12px; font-weight: 200;" x="215.0766674677531" y="0" dx="0em" dy="0.95em" fill="rgb(50, 49, 63)" stroke="none" stroke-width="1px">9k</text><text style="text-anchor: middle; visibility: inherit; font-family: &quot;Helvetica Neue&quot;, sans-serif; font-size: 12px; font-weight: 200;" x="236.58433421452838" y="0" dx="0em" dy="0.95em" fill="rgb(50, 49, 63)" stroke="none" stroke-width="1px">10k</text><text style="text-anchor: middle; visibility: hidden; font-family: &quot;Helvetica Neue&quot;, sans-serif; font-size: 12px; font-weight: 200;" x="258.0920009613037" y="0" dx="0em" dy="0.95em" fill="rgb(50, 49, 63)" stroke="none" stroke-width="1px">11k</text></g><line x1="0" y1="0" x2="258.0920009613037" y2="0" fill="rgb(0, 0, 0)" stroke="rgb(204, 204, 204)" stroke-width="1px"></line></g></g></g></g></svg>