<svg viewBox="0 0 330 200" xmlns="http://www.w3.org/2000/svg"><g><g><g><g><g><line x1="30.63599967956543" y1="178.0640001296997" x2="25.63599967956543" y2="178.0640001296997" style="visibility: inherit;" fill="rgb(0, 0, 0)" stroke="rgb(204, 204, 204)" stroke-width="1px"></line><line x1="30.63599967956543" y1="158.27911122639975" x2="25.63599967956543" y2="158.27911122639975" style="visibility: inherit;" fill="rgb(0, 0, 0)" stroke="rgb(204, 204, 204)" stroke-width="1px"></line><line x1="30.63599967956543" y1="138.4942223230998" x2="25.63599967956543" y2="138.4942223230998" style="visibility: inherit;" fill="rgb(0, 0, 0)" stroke="rgb(204, 204, 204)" stroke-width="1px"></line><line x1="30.63599967956543" y1="118.7093334197998" x2="25.63599967956543" y2="118.7093334197998" style="visibility: inherit;" fill="rgb(0, 0, 0)" stroke="rgb(204, 204, 204)" stroke-width="1px"></line><line x1="30.63599967956543" y1="98.92444451649985" x2="25.63599967956543" y2="98.92444451649985" style="visibility: inherit;" fill="rgb(0, 0, 0)" stroke="rgb(204, 204, 204)" stroke-width="1px"></line><line x1="30.63599967956543" y1="79.13955561319986" x2="25.63599967956543" y2="79.13955561319986" style="visibility: inherit;" fill="rgb(0, 0, 0)" stroke="rgb(204, 204, 204)" stroke-width="1px"></line><line x1="30.63599967956543" y1="59.3546667098999" x2="25.63599967956543" y2="59.3546667098999" style="visibility: inherit;" fill="rgb(0, 0, 0)" stroke="rgb(204, 204, 204)" stroke-width="1px"></line><line x1="30.63599967956543" y1="39.569777806599944" x2="25.63599967956543" y2="39.569777806599944" style="visibility: inherit;" fill="rgb(0, 0, 0)" stroke="rgb(204, 204, 204)" stroke-width="1px"></line><line x1="30.63599967956543" y1="19.784888903299986" x2="25.63599967956543" y2="19.784888903299986" style="visibility: inherit;" fill="rgb(0, 0, 0)" stroke="rgb(204, 204, 204)" stroke-width="1px"></line><line x1="30.63599967956543" y1="0" x2="25.63599967956543" y2="0" style="visibility: inherit;" fill="rgb(0, 0, 0)" stroke="rgb(204, 204, 204)" stroke-width="1px"></line></g><g transform="translate(20.63599967956543, 0)"><text style="text-anchor: end; visibility: hidden; font-family: &quot;Helvetica Neue&quot;, sans-serif; font-size: 12px; font-weight: 200;" x="0" y="178.0640001296997" dx="0em" dy="0.3em" fill="rgb(50, 49, 63)" stroke="none" stroke-width="1px">-1</text><text style="text-anchor: end; visibility: inherit; font-family: &quot;Helvetica Neue&quot;, sans-serif; font-size: 12px; font-weight: 200;" x="0" y="158.27911122639975" dx="0em" dy="0.3em" fill="rgb(50, 49, 63)" stroke="none" stroke-width="1px">0</text><text style="text-anchor: end; visibility: hidden; font-family: &quot;Helvetica Neue&quot;, sans-serif; font-size: 12px; font-weight: 200;" x="0" y="138.4942223230998" dx="0em" dy="0.3em" fill="rgb(50, 49, 63)" stroke="none" stroke-width="1px">1</text><text style="text-anchor: end; visibility: inherit; font-family: &quot;Helvetica Neue&quot;, sans-serif; font-size: 12px; font-weight: 200;" x="0" y="118.7093334197998" dx="0em" dy="0.3em" fill="rgb(50, 49, 63)" stroke="none" stroke-width="1px">2</text><text style="text-anchor: end; visibility: hidden; font-family: &quot;Helvetica Neue&quot;, sans-serif; font-size: 12px; font-weight: 200;" x="0" y="98.92444451649985" dx="0em" dy="0.3em" fill="rgb(50, 49, 63)" stroke="none" stroke-width="1px">3</text><text style="text-anchor: end; visibility: inherit; font-family: &quot;Helvetica Neue&quot;, sans-serif; font-size: 12px; font-weight: 200;" x="0" y="79.13955561319986" dx="0em" dy="0.3em" fill="rgb(50, 49, 63)" stroke="none" stroke-width="1px">4</text><text style="text-anchor: end; visibility: hidden; font-family: &quot;Helvetica Neue&quot;, sans-serif; font-size: 12px; font-weight: 200;" x="0" y="59.3546667098999" dx="0em" dy="0.3em" fill="rgb(50, 49, 63)" stroke="none" stroke-width="1px">5</text><text style="text-anchor: end; visibility: inherit; font-family: &quot;Helvetica Neue&quot;, sans-serif; font-size: 12px; font-weight: 200;" x="0" y="39.569777806599944" dx="0em" dy="0.3em" fill="rgb(50, 49, 63)" stroke="none" stroke-width="1px">6</text><text style="text-anchor: end; visibility: hidden; font-family: &quot;Helvetica Neue&quot;, sans-serif; font-size: 12px; font-weight: 200;" x="0" y="19.784888903299986" dx="0em" dy="0.3em" fill="rgb(50, 49, 63)" stroke="none" stroke-width="1px">7</text><text style="text-anchor: end; visibility: hidden; font-family: &quot;Helvetica Neue&quot;, sans-serif; font-size: 12px; font-weight: 200;" x="0" y="0" dx="0em" dy="0.3em" fill="rgb(50, 49, 63)" stroke="none" stroke-width="1px">8</text></g><line x1="30.63599967956543" y1="0" x2="30.63599967956543" y2="178.0640001296997" fill="rgb(0, 0, 0)" stroke="rgb(204, 204, 204)" stroke-width="1px"></line></g></g><g transform="translate(30, 0)" clip-path="url(#clip_0)"><clipPath id="clip_0"><rect width="299" height="178"></rect></clipPath><g><g><g><line x1="0" y1="0" x2="0" y2="178.0640001296997" fill="rgb(0, 0, 0)" stroke="rgb(60, 60, 60)" stroke-width="1px" opacity="0.25"></line><line x1="24.94700002670288" y1="0" x2="24.94700002670288" y2="178.0640001296997" fill="rgb(0, 0, 0)" stroke="rgb(60, 60, 60)" stroke-width="1px" opacity="0.25"></line><line x1="49.89400005340576" y1="0" x2="49.89400005340576" y2="178.0640001296997" fill="rgb(0, 0, 0)" stroke="rgb(60, 60, 60)" stroke-width="1px" opacity="0.25"></line><line x1="74.84100008010864" y1="0" x2="74.84100008010864" y2="178.0640001296997" fill="rgb(0, 0, 0)" stroke="rgb(60, 60, 60)" stroke-width="1px" opacity="0.25"></line><line x1="99.78800010681152" y1="0" x2="99.78800010681152" y2="178.0640001296997" fill="rgb(0, 0, 0)" stroke="rgb(60, 60, 60)" stroke-width="1px" opacity="0.25"></line><line x1="124.7350001335144" y1="0" x2="124.7350001335144" y2="178.0640001296997" fill="rgb(0, 0, 0)" stroke="rgb(60, 60, 60)" stroke-width="1px" opacity="0.25"></line><line x1="149.68200016021729" y1="0" x2="149.68200016021729" y2="178.0640001296997" fill="rgb(0, 0, 0)" stroke="rgb(60, 60, 60)" stroke-width="1px" opacity="0.25"></line><line x1="174.62900018692017" y1="0" x2="174.62900018692017" y2="178.0640001296997" fill="rgb(0, 0, 0)" stroke="rgb(60, 60, 60)" stroke-width="1px" opacity="0.25"></line><line x1="199.57600021362305" y1="0" x2="199.57600021362305" y2="178.0640001296997" fill="rgb(0, 0, 0)" stroke="rgb(60, 60, 60)" stroke-width="1px" opacity="0.25"></line><line x1="224.52300024032593" y1="0" x2="224.52300024032593" y2="178.0640001296997" fill="rgb(0, 0, 0)" stroke="rgb(60, 60, 60)" stroke-width="1px" opacity="0.25"></line><line x1="249.4700002670288" y1="0" x2="249.4700002670288" y2="178.0640001296997" fill="rgb(0, 0, 0)" stroke="rgb(60, 60, 60)" stroke-width="1px" opacity="0.25"></line><line x1="274.4170002937317" y1="0" x2="274.4170002937317" y2="178.0640001296997" fill="rgb(0, 0, 0)" stroke="rgb(60, 60, 60)" stroke-width="1px" opacity="0.25"></line><line x1="299.36400032043457" y1="0" x2="299.36400032043457" y2="178.0640001296997" fill="rgb(0, 0, 0)" stroke="rgb(60, 60, 60)" stroke-width="1px" opacity="0.25"></line></g><g><line x1="0" y1="178.0640001296997" x2="299.36400032043457" y2="178.0640001296997" fill="rgb(0, 0, 0)" stroke="rgb(60, 60, 60)" stroke-width="1px" opacity="0.25"></line><line x1="0" y1="158.27911122639975" x2="299.36400032043457" y2="158.27911122639975" fill="rgb(0, 0, 0)" stroke="rgb(60, 60, 60)" stroke-width="1px" opacity="0.25"></line><line x1="0" y1="138.4942223230998" x2="299.36400032043457" y2="138.4942223230998" fill="rgb(0, 0, 0)" stroke="rgb(60, 60, 60)" stroke-width="1px" opacity="0.25"></line><line x1="0" y1="118.7093334197998" x2="299.36400032043457" y2="118.7093334197998" fill="rgb(0, 0, 0)" stroke="rgb(60, 60, 60)" stroke-width="1px" opacity="0.25"></line><line x1="0" y1="98.92444451649985" x2="299.36400032043457" y2="98.92444451649985" fill="rgb(0, 0, 0)" stroke="rgb(60, 60, 60)" stroke-width="1px" opacity="0.25"></line><line x1="0" y1="79.13955561319986" x2="299.36400032043457" y2="79.13955561319986" fill="rgb(0, 0, 0)" stroke="rgb(60, 60, 60)" stroke-width="1px" opacity="0.25"></line><line x1="0" y1="59.3546667098999" x2="299.36400032043457" y2="59.3546667098999" fill="rgb(0, 0, 0)" stroke="rgb(60, 60, 60)" stroke-width="1px" opacity="0.25"></line><line x1="0" y1="39.569777806599944" x2="299.36400032043457" y2="39.569777806599944" fill="rgb(0, 0, 0)" stroke="rgb(60, 60, 60)" stroke-width="1px" opacity="0.25"></line><line x1="0" y1="19.784888903299986" x2="299.36400032043457" y2="19.784888903299986" fill="rgb(0, 0, 0)" stroke="rgb(60, 60, 60)" stroke-width="1px" opacity="0.25"></line><line x1="0" y1="0" x2="299.36400032043457" y2="0" fill="rgb(0, 0, 0)" stroke="rgb(60, 60, 60)" stroke-width="1px" opacity="0.25"></line></g></g></g><g><g><line x1="0" y1="158.27911122639975" x2="299.36400032043457" y2="158.27911122639975" fill="rgb(0, 0, 0)" stroke="rgb(153, 153, 153)" stroke-width="1.5px"></line></g></g><g><g><line x1="24.94700002670288" y1="0" x2="24.94700002670288" y2="178.0640001296997" fill="rgb(0, 0, 0)" stroke="rgb(153, 153, 153)" stroke-width="1.5px"></line></g></g><g><g><g><g><g><path style="fill: none;" stroke="rgb(255, 112, 67)" stroke-width="2px" d="M25.39604602718353,125.36536219890945L25.54572802734375,118.48837984699475L25.944880027770996,133.71902124252148L25.994774027824402,144.9416924097847L26.06961502790451,87.07596079495475L26.344032028198242,112.5641233681765L26.718237028598786,131.35752450898553L26.79307802867889,135.9879814651968L27.29201802921295,143.24097106620684L27.591382029533385,128.46713538432022L28.090322030067444,140.3828002612605L28.813785030841828,77.76476691629092L28.888626030921937,109.2832083966192L29.113149031162262,127.66839645090405L29.512301031589505,137.53954621958823L29.562195031642915,138.62923542306712L30.659863032817842,95.6240760305839L30.784598032951354,119.80031336925609L31.158803033351898,114.97774594800137L31.308485033512117,131.32276260207487L31.43322003364563,110.12047915003403L31.60784903383255,107.06597345866916L31.757531033992766,125.82204140249993L32.63067603492737,-2.425960605017309L32.680570034980775,56.07696697952676L32.8801460351944,57.014372310099944L33.40403303575516,92.17276146892914L33.60360903596878,116.89974938108186L34.102549036502836,127.8463604603697L35.44968703794479,102.81642393112506L35.4746340379715,97.87988154666435L35.89873303842545,116.9277226429871L35.973574038505554,82.38117684554365L36.04841503858567,111.4376583313079L36.42262003898621,28.393541912182172L36.497461039066316,73.37717825746934L36.522408039093015,-0.27297932324017893L36.77187803936005,52.84478000665948L37.2458710398674,86.42790624513229L37.769758040428165,112.9790423768716L38.19385704088211,14.510507689524928L38.31859204101563,-128.89971706974336L39.24163104200363,-20.75605962210878L39.39131304216385,43.30695408575809L39.56594204235076,88.27925904387286L39.590889042377476,49.534347679046334L40.41414004325867,87.17256309801482L40.46403404331207,-5.769108142858954L40.763398043632506,59.448539679827064L40.93802704381943,68.48155267773323L40.96297404384613,55.38206173175887L41.01286804389954,91.13460105063193L41.08770904397965,117.5925527348208L41.13760304403305,49.75756380479157L41.43696704435348,55.446947640914445L41.68643704462052,96.27567435517332L42.75915804576874,10.58694589817253L42.95873404598236,67.45859833064029L43.158310046195986,66.5976517379518L43.38283304643631,88.21222062503823L43.70714404678345,116.1498826701618L43.80693204689026,93.88188922529525L44.031455047130585,116.08264724349766L44.1312430472374,91.04533539537432L44.181137047290804,117.5979532496477L44.2310310473442,126.05504088199103L44.40566004753113,137.80905106539376L44.53039504766464,88.07266258523107L44.58028904771805,115.86757013516612L44.705024047851566,52.59321050003085L44.754918047904965,86.93037226413664L44.854706048011785,55.04728326184501L44.95449404811859,95.06267072805942L45.10417604827881,46.767821366529745L45.12912304830551,-32.52477082894819L45.70290404891968,2.446078141253622L45.80269204902649,57.352280508865775L46.62594304990768,96.89759242141979L46.8005720500946,96.05969880916106L46.95025405025482,80.86608978785023L47.299512050628664,95.50399132792636L47.39930005073547,120.5651238887254L47.573929050922395,87.66053655752998L47.623823050975794,61.282660557449276L47.823399051189426,35.712471147881416L48.17265705156327,27.96426449992734L48.19760405158997,79.99634179096557L48.447074051856994,111.22265199315534L48.5219150519371,116.09360365419616L48.74643805217743,123.23755071183818L48.94601405239106,136.30028449465027L49.17053705263138,106.8081902567819L49.19548405265808,127.29374287613743L49.3451660528183,131.97869341323496L49.370113052845,130.39840421314176L49.49484805297852,98.82505852256175L49.94389405345917,90.26567244553038L50.018735053539274,61.180618597283186L50.243258053779606,32.755801022027356L50.99166805458069,68.36993926449139L51.31597905492782,104.21573760048021L51.46566105508804,109.16948186088887L51.54050205516815,90.29385442152468L51.59039605522156,113.43790655670647L51.690184055328366,103.41582502802551L51.839866055488585,124.55942513890352L51.964601055622104,129.9225412531308L52.21407105588913,117.21374479220746L52.36375305604935,128.3159145876636L52.48848805618287,132.4210341814541L52.73795805644989,142.58900810008825L53.78573205757141,148.7140821965378L53.88552005767822,58.00718004672768L53.91046705770493,77.23285261748735L53.93541405773163,105.4362395719625L54.384460058212284,126.44490975339482L54.708771058559414,41.85998499352641L55.03308205890655,87.88807153062075L55.68170405960083,110.36328766292208L55.98106805992126,126.65435135690805L56.255485060215,126.17832449036152L56.33032606029511,101.47329467738093L56.40516706037522,122.36949508087858L56.90410706090927,136.29667035793793L57.05378906106949,74.24804002259182L57.22841806125641,64.29679134836029L57.37810006141663,76.41781071066946L57.777252061843875,24.99163045146426L57.85209306192398,39.30344234871097L58.12651006221771,69.13759401398258L58.20135106229782,3.324553114536684L58.27619206237792,60.324845336357825L58.30113906240464,-91.93132811286512L59.49859506368637,-29.809924952892942L59.57343606376648,34.33811683890019L59.64827706384659,63.45718068075152L59.67322406387329,100.89483443879526L60.222058064460754,115.52864762639769L60.521422064781184,-241.8282957084133L61.5193020658493,-17.677112589533237L61.793719066143034,4.808623144899599L61.99329506635666,27.867283001070092L62.09308306646347,-15.441274914081845L62.14297706651688,19.173737328192345L62.941281067371364,71.88654331321248L63.04106906747818,93.67724664674321L63.66474406814575,117.6325829983032L64.063896068573,129.56007477196414L64.0888430685997,131.66516746190126L64.46304806900024,136.46226700645693L64.56283606910706,140.6851917479281L64.9619880695343,147.72236571856507L64.986935069561,140.5265028144777L65.53576907014848,139.73199055177614L65.66050407028197,146.29422082558582L65.7852390704155,137.75793789488262L65.86008007049561,133.9273588593793L65.98481507062912,110.18484634050094L66.05965607070924,109.54012350586255L66.35902007102966,53.796022521478605L66.55859607124329,95.57345814533069L66.73322507143021,86.7050993836823L66.90785407161712,114.36338094324336L67.13237707185745,63.99253793757687L67.23216507196426,97.53975936271769L67.28205907201767,121.6585712675145L67.33195307207107,130.24326398403468L67.40679407215119,132.03866131850347L67.58142307233811,118.92277368498188L67.80594607257844,130.78456373319025L68.05541607284546,104.16020634096927L68.15520407295227,117.11561256286484L68.20509807300567,40.34617970735658L68.27993907308579,75.17461136012365L68.4046740732193,108.299854352317L68.47951507329941,117.90149602209614L68.50446207332611,134.04690238082594L69.00340207386017,142.50959017258532L69.2279250741005,91.39424992794933L69.37760707426071,74.0075309894781L69.55223607444763,29.41446744751437L69.57718307447433,-133.08973625370066L69.80170607471466,-16.91933812128474L69.97633507490158,51.43716437547366L70.50022207546233,90.98088877637706L70.60001007556916,88.38190073734033L70.84948007583618,115.45503870057755L70.949268075943,95.79853238985457L71.17379107618332,93.97193508244193L71.49810207653046,97.22255929223834L71.57294307661057,120.22869342099519L71.72262507677078,116.68325448293888L71.77251907682418,100.6113554684685L72.6207170777321,84.30117100013408L72.7703990778923,113.82765859233596L73.19449807834626,99.20539338856784L73.44396807861328,122.79390867062216L73.51880907869338,125.50535641879857L73.5687030787468,59.51100162867603L74.01774907922744,52.438403720377025L74.3670070796013,68.7185577100734L74.41690107965469,88.12180586584645L74.86594708013534,95.58463623345266L74.96573508024215,112.80162750130349L75.16531108045578,91.5189924737525L75.58941008090973,58.149893278155005L75.73909208106994,88.94114238850611L76.33782008171082,113.83107947645833L76.66213108205795,121.07337691641348L76.73697208213807,116.04679787233943L76.76191908216477,132.0336949307725L76.81181308221817,73.98928657067441L76.86170708227156,91.72438118505042L76.96149508237839,89.63006669094108L77.0612830824852,74.51078754519618L77.23591208267212,107.87810361328575L77.61011708307265,79.28956049875562L78.45831508398057,110.72206392368321L78.55810308408738,125.0543964442247L78.73273208427429,136.80739742173006L78.95725508451461,145.24385638676472L79.25661908483505,135.78475755628182L79.50608908510208,142.41919363349996L79.55598308515549,115.48587249843119L79.6058770852089,130.88316427761902L79.7306120853424,141.691630318985L79.80545308542251,104.78895364660359L80.00502908563614,113.43047518194068L80.10481708574295,126.14291958136181L80.603757086277,109.88145639001715L80.72849208641053,117.75514065032439L80.75343908643723,81.7726955121178L80.80333308649064,109.9223032517366L80.87817408657074,119.24295083090155L80.97796208667755,-174.43525864655754L81.00290908670425,-44.9693180748595L81.17753808689118,4.44643392671469L81.25237908697127,55.473485550555296L81.37711408710479,82.17965958968945L81.85110708761215,94.82830471878722L82.10057708787917,15.308617137324262L82.2502590880394,43.51551940068924L82.39994108819961,89.25799908999117L82.49972908830644,102.62923958034324L82.79909308862686,108.37726770044617L82.82404008865356,121.6917326788303L83.44771508932114,90.01520298231111L83.67223808956147,117.21025702673174L84.54538309049606,108.75096716415254L84.57033009052276,124.74396327334435L84.62022409057617,124.07330069646395L85.7178920917511,128.0253208229308L85.91746809196472,138.91492218322617L86.09209709215165,143.70432886862767L86.14199109220505,128.928140468704L86.19188509225845,127.39148519284332L86.31662009239197,138.90756746858128L86.94029509305953,143.8315363936777L86.96524209308623,137.59042780940524L87.21471209335327,135.02976611361584L87.26460609340667,127.69801117362667L87.3893410935402,139.75790405440927L87.73859909391402,142.77866379955321L87.88828109407424,148.67184449439617L88.11280409431457,137.73616224897333L88.4870090947151,143.67922709418582L88.58679709482193,49.66257983612087L88.63669109487533,93.0736373890877L89.26036609554292,101.39058253512307L89.55973009586334,91.29539826287936L89.80920009613037,95.11275439644997L89.95888209629058,110.95809513877272L90.38298109674454,125.89229938780534L90.53266309690476,126.30720245358L90.55761009693146,133.60587042877123L90.90686809730529,35.01592339828727L91.0565500974655,77.61204876827739L91.18128509759903,109.10653137477402L91.75506609821319,128.4167939692119L91.92969509840012,139.9595045187432L92.05443009853363,146.38543262956694L92.37874109888077,125.47207222705805L92.55337009906768,135.1644254244954L92.92757509946823,140.87697800039257L93.22693909978867,145.44048411192523L93.30178009986876,123.77036112481534L93.65103810024262,134.41202779713348L94.52418310117721,139.00066273565457L94.54913010120393,145.0834328871827L94.57407710123063,122.82877096222106L95.02312310171128,134.01007068837362L95.39732810211181,8.42137657418732L96.59478410339355,60.104399697956296L96.81930710363389,86.37466193929632L97.0438301038742,89.20820225265638L97.19351210403443,107.83701559883302L97.71739910459519,127.53580386754123L97.76729310464859,136.08515693899534L97.79224010467529,139.43934002750586L98.96474910593032,146.9324838741996L99.16432510614395,145.06288932747975L99.73810610675812,85.87419097004356L99.96262910699843,111.99585213056561L100.06241710710525,99.17347454202064L100.16220510721207,116.87844363676773L100.46156910753251,133.3891133825268L100.53641010761261,131.65350294184083L100.73598610782624,103.80724493503503L100.81082710790633,75.54380902037522L101.40955510854721,89.90759820494478L101.50934310865402,112.30600940204756L101.55923710870742,124.70312749507927L102.25775310945511,-213.35558457440266L102.83153411006928,-65.05211332871951L103.20573911046982,14.837581574917266L103.40531511068343,72.15019680092203L103.53005011081696,105.71078556305918L103.65478511095047,89.25399153826146L103.80446711111068,112.096781509552L104.20361911153795,102.87802380635084L104.6526651120186,124.93987120933085L104.6776121120453,135.10575253985357L104.8522411122322,144.26205987036226L104.9270821123123,22.78941533947406L105.52581011295318,74.82916103002786L105.6006511130333,104.28912310480071L105.77528011322022,75.95897266243874L105.85012111330033,90.74910567372255L105.87506811332703,114.94116460914972L105.92496211338043,103.97956863148906L105.94990911340713,20.20718884782238L106.5735841140747,73.9026514804998L106.79810711431503,107.61469293884974L107.3968351149559,106.88064268588005L107.59641111516953,122.18961720941877L107.94566911554335,134.22213448770214L107.97061611557008,142.37515127887846L108.39471511602402,97.31002441788388L109.1181781167984,114.06442722015038L109.1680721168518,131.74679246619237L109.41754211711883,141.9465924684231L109.84164111757279,127.76148672579647L109.9663761177063,138.10521998550956L110.51521011829375,116.55946336181057L110.71478611850739,127.7708451983933L110.98920311880113,122.58168147465364L111.03909711885453,90.90656126899012L111.21372611904144,104.97252560207396L111.36340811920167,-44.267271164358476L111.53803711938858,30.066042935061887L111.68771911954879,80.48428197981917L111.76256011962892,96.60303874627849L112.18665912008287,117.04091784612459L112.48602312040329,133.5305464211114L112.5608641204834,38.26945075648368L112.73549312067031,81.61855150107583L113.13464512109756,86.49328244402166L113.18453912115096,70.93339661210202L113.33422112131119,104.27889369595646L113.434009121418,122.97432305532479L113.83316112184524,136.18407953987708L114.25726012229919,142.48379452330536L114.75620012283326,146.8454802058248L115.20524612331391,62.1302551937391L115.25514012336731,90.10124379006125L115.30503412342071,117.18267972886642L115.37987512350082,133.40575827988766L115.45471612358094,101.12932348915066L115.87881512403489,119.74383888032696L116.15323212432861,129.65411801984223L116.50249012470245,3.3049573556855307L117.25090012550353,64.77373431009443L117.30079412555693,102.05224182224441L117.89952212619781,42.037322043341646L117.99931012630462,82.70263088629808L118.04920412635802,68.82355647409648L118.19888612651825,102.47768948928362L118.27372712659836,103.60023247390615L118.32362112665176,114.71064490490437L118.5481441268921,124.76281982195647L118.72277312707901,59.197014645167414L119.04708412742615,23.70014453492135L119.24666012763977,73.83444571126023L119.5709711279869,107.30831863100153L119.62086512804032,102.44894145606176L119.69570612812042,116.92842921223868L120.09485812854767,87.09697806512692L120.21959312868118,94.39744014667961L120.26948712873458,69.3489253677466L120.51895712900162,91.188229106587L120.61874512910842,57.874237329943014L121.3422081298828,49.35784605852689L121.46694313001633,83.55565124909954L121.64157213020324,113.44421752755937L122.73924013137817,120.91986147951253L122.9388161315918,71.15762955284319L123.11344513177872,86.86718906352264L123.21323313188553,-32.99301912442448L123.48765013217925,33.21522296421969L123.63733213233947,82.26667973558362L123.78701413249969,79.83219267765979L124.33584813308715,100.78863226838372L124.61026513338089,121.49515781967435L124.7350001335144,117.9235399370715L124.95952313375473,118.8403743836548L124.98447013378143,133.2338793446713L125.28383413410187,132.4736788756888L125.5582511343956,102.59706391912557L125.63309213447572,95.69385676267153L125.88256213474273,120.61260977937829L127.05507113599778,70.87290650917065L127.17980613613129,75.94127856509047L127.20475313615799,41.70216124973905L127.45422313642503,13.428475198023705L129.27535413837433,-11.528576751869934L129.54977113866806,50.8329598214106L129.57471813869478,-1.5911955660751858L129.62461213874818,58.977765879329084L129.67450613880158,97.41700808879882L129.7493471388817,121.21737124645412L129.77429413890837,135.30437645089756L130.39796913957596,77.79565310602725L130.52270413970948,108.41200878875627L130.5975451397896,99.44502757681893L130.7971211400032,96.19466315099899L131.07153814029695,119.86630733290883L131.29606114053726,131.92478360381617L131.37090214061737,141.37200161390456L131.3958491406441,106.80652700601583L131.77005414104462,70.7645502420178L132.16920614147188,100.00513247136752L132.31888814163207,119.96992242137168L132.4186761417389,111.32578665680069L132.6431991419792,121.27063115614175L132.6930931420326,135.78984200913186L132.91761614227295,144.22674174271933L133.01740414237977,124.03666781261131L133.29182114267348,103.86237410276895L133.94044314336776,124.12505856218982L134.1649661436081,132.48850907881814L134.53917114400863,110.06638307779576L134.71380014419557,125.18415371292338L134.86348214435577,133.82766658497943L134.96327014446257,139.82810169053363L134.98821714448928,146.74975866028075L135.46221014499665,100.37886655904416L135.53705114507676,123.51672313388559L136.43514314603806,48.580882520319136L136.58482514619826,86.85139566428151L136.95903014659882,-11.755702341147327L137.00892414665222,30.43330482958669L137.43302314710618,-36.82301985029622L137.45797014713287,40.580059089435736L137.93196314764023,87.08903257900916L137.95691014766692,113.30426350075635L138.03175114774703,131.22200533346088L138.25627414798737,58.50069688379861L138.5306911482811,95.4215778404897L139.15436614894867,120.31496199001722L139.22920714902878,129.0143556094162L139.50362414932252,140.60020978721002L139.5784651494026,125.85118376116307L139.62835914945603,87.42132371853907L139.67825314950943,87.03156957962702L139.97761714982988,46.714933643045555L140.40171615028382,82.67777506217736L140.92560315084458,111.48910798007151L141.1002321510315,119.24104781152043L141.29980815124512,93.02428324594699L141.39959615135191,73.05221780219203L141.57422515153885,70.0200890323678L141.59917215156554,29.480531932699563L141.62411915159225,78.43539344597163L141.87358915185928,109.8235407969995L142.52221115255355,104.04547102155944L142.64694615268706,101.41117580810624L143.04609815311431,108.25515983508967L143.32051515340805,126.98261708552862L143.42030315351488,104.64723144080082L143.44525015354156,121.45551023281178L143.6448261537552,135.33940864483986L143.79450815391542,105.34900378298232L143.8693491539955,119.4778787880374L144.09387215423584,100.71588407734639L144.19366015434267,101.24004126002859L144.36828915452958,124.02871911506212L144.39323615455626,130.71546477522165L144.5429181547165,141.6740291926184L144.69260015487671,147.2784830050717L144.7424941549301,133.01596634906707L144.81733515501023,136.482105327557L145.69048015594484,106.68907395305565L145.98984415626526,123.78682148965562L146.46383715677263,136.41416007301342L146.51373115682603,122.4714970642014L147.03761815738676,122.87409534641995L147.53655815792084,124.7082337569644L148.1352861585617,107.89204643535525L148.21012715864182,126.89411074125195L148.53443815898893,128.92139212644182L148.7340141592026,140.388482114843L148.9585371594429,78.50743854316411L149.033378159523,109.2208287952426L149.0832721595764,122.40801877887303L149.10821915960312,72.28634045077905L150.20588716077805,102.19854896722984L150.35556916093824,101.8382224501483L150.43041016101836,113.98847835063086L150.6050391612053,131.04816773735033L150.92935016155243,137.7046659221041L150.97924416160583,144.77848389582206L151.00419116163252,145.89041106504527L151.17882016181946,143.81993815934763L151.6278661623001,134.9403058946224L152.20164716291427,141.75705930432088L152.3263821630478,129.78937252042337L152.82532216358183,91.30360253747138L152.87521616363526,101.78465975533406L153.02489816379546,120.22560344108112L153.67352016448973,61.45138318588134L153.79825516462327,83.78680359580765L154.2223541650772,113.53472850883335L154.67140016555788,122.73165208750137L154.87097616577148,126.23092588807788L155.44475716638564,50.81838363291348L155.54454516649244,78.58796762916258L155.6443331665993,73.94810701472599L155.66928016662598,107.35707975475233L156.31790216732026,114.55445203544022L156.89168316793442,113.2399993644412L157.6151461687088,109.7441850756116L157.8895631690025,103.47562154996875L158.2887151694298,119.23321033940661L158.63797316980364,120.16168842811926L158.66292016983033,120.83627032385189L159.16186017036438,3.734389908436185L159.76058817100522,59.62675585173095L160.1597401714325,91.43540622640353L160.63373317193984,103.58340062591789L160.70857417201998,104.87490281681369L160.83330917215346,122.72266863705096L161.75634817314148,46.106466162587026L161.93097717332842,62.593608064330354L162.0307651734352,100.48960565129724L162.1804471735954,123.60461955041029L162.33012917375564,135.5021748738368L162.45486417388915,44.09204706977957L162.5297051739693,88.8841709657282L162.5795991740227,109.07223588411392L163.17832717466356,80.59586418215738L163.37790317487716,26.14150432414013L163.80200217533113,47.342847528059025L163.9267371754646,78.59826762694922L163.97663117551804,109.83833252249948L164.27599517583846,72.59891313396392L164.3258891758919,106.15848161952154L164.47557117605209,121.79103454227166L164.77493517637254,136.05891537118106L164.89967017650602,141.42307476998806L165.14914017677307,132.6878934982818L165.3986101770401,136.96966726791393L166.09712617778777,140.8682226250813L166.1470201778412,143.08772725928597L166.246808177948,140.0121970521829L166.62101317834853,134.20790582026376L167.64384017944337,80.53007945882338L167.7186811795235,111.01845658293516L168.1677271800041,116.61733367068416L168.61677318048478,116.93499193939809L169.04087218093872,132.07366624906894L169.1157131810188,141.2409811792897L169.24044818115235,87.94867819592379L169.36518318128586,74.66010827661188L169.8142291817665,101.30198398176864L169.83917618179322,124.04263840179254L170.26327518224716,39.8193863334686L170.33811618232727,85.8072165110504L170.51274518251418,114.10791212095609L171.18631418323517,104.99860910880905L171.23620818328857,96.94874770063943L171.4108371834755,44.78629704677934L171.85988318395613,60.25571780757342L172.08440618419647,99.40565781671157L172.3089291844368,122.45530151506763L172.55839918470383,105.30652404814015L172.83281618499757,123.64486802213865L172.93260418510437,58.42641494988827L172.95755118513108,86.98007454910189L173.43154418563844,56.15763033517642L173.55627918577193,93.30977423816424L173.60617318582533,119.14849398608845L173.70596118593218,99.75001362211755L173.93048418617246,121.94110713005786L174.37953018665314,136.1082408683788L174.8784701871872,143.81346997938488L175.0032051873207,148.34796091668386L175.22772818756104,94.32099929557889L175.37741018772124,111.24605795226978L175.40235718774795,115.13514938002189L175.50214518785478,130.41065363964788L175.5769861879349,126.75965201679367L176.12582018852234,138.83945224746518L176.574866189003,140.33825390319583L176.6746541891098,145.21526266294066L176.79938918924333,140.86786656567222L177.19854118967055,147.8320667322005L177.24843518972395,152.0105613762111L177.497905189991,153.18017187717885L177.64758719015123,125.8444341261984L177.69748119020463,127.16693684103195L177.84716319036482,134.49127486707056L177.89705719041822,141.62680672680696L177.94695119047165,148.028062543986L178.2463151907921,151.3900438072826L178.2962091908455,147.9900468930264L178.3461031908989,148.98791994661119L178.91988419151306,150.27923310053015L179.1444071917534,151.48463803115905L179.2192481918335,124.90156262930289L179.61840019226074,117.10539521429155L179.89281719255447,127.37682944359125L179.94271119260787,119.67376785688978L180.0923931927681,-18.57498413929497L180.41670419311524,50.372509038215426L180.54143919324875,93.5331684076894L180.71606819343566,87.49872473181694L180.8657501935959,63.379716162119536L181.19006119394302,76.64206002782707L181.83868319463733,101.60749876362834L182.41246419525146,123.01700149162342L182.5122521953583,130.10046515759046L182.53719919538497,135.00707009164074L182.71182819557188,121.69101429226183L183.13592719602585,126.35717013264718L183.41034419631958,137.38258114040946L183.68476119661332,78.12743122098834L183.85939019680023,95.4238985642326L184.00907219696046,97.2869158248033L184.60780019760134,68.09037123861427L185.97988519906997,87.04711256563326L186.0796731991768,57.15274211605988L186.40398419952393,85.8919221993108L186.77818919992447,98.81974644925643L186.9777652001381,118.97696478734115L187.0027122001648,98.6992714385503L187.1025002002716,64.29978426880808L187.35197020053863,100.46205406436945L187.60144020080568,119.63458222652646L187.62638720083237,127.15650759310883L187.65133420085908,131.06030975983936L187.85091020107268,117.60617308419936L188.34985020160676,120.27956660484799L188.9485782022476,77.9934683661322L189.12320720243454,110.00953173336019L189.19804820251466,118.44156910330199L189.44751820278168,107.82177802405988L189.67204120302202,116.40307823820928L189.74688220310213,101.96374361176277L189.99635220336916,122.53082884641768L190.12108720350267,117.85756891234448L191.01917920446397,124.49992398554505L191.2437022047043,137.713630816816L191.2935962047577,141.95046665615456L191.3933842048645,146.58312567582075L191.54306620502473,142.01896618355372L191.61790720510484,63.98070799734819L191.79253620529175,83.68997044670819L191.99211220550535,14.524856031498786L192.06695320558546,57.27544241827435L192.2665292057991,77.26402417785636L192.3663172059059,109.44176575798016L192.46610520601274,128.92534186105033L193.0398862066269,131.60195075372792L193.1396742067337,117.19231120714821L193.31430320692064,107.79728455025567L193.41409120702744,-48.175120415144534L193.68850820732118,2.164295560883801L193.9878722076416,38.774048605756775L194.38702420806885,62.97365532661445L195.0106992087364,76.93550517550868L195.38490420913695,89.72964828847489L195.73416220951083,97.03926191918453L195.93373820972442,36.74411014422037L196.13331420993805,-103.21433248696536L196.28299621009825,1.2221805005714543L196.307943210125,44.673740929869155L196.95656521081926,90.03142958080221L197.3058232111931,112.53885983536048L197.92949821186065,86.811424043792L198.35359721231458,45.550891501050074L198.65296121263503,40.9256722830369L198.72780221271518,57.30300250883489L198.87748421287537,35.014902251747344L199.32653021335602,84.30929283769062L199.37642421340942,93.49157798538569L199.82547021389007,112.84115270690177L199.92525821399687,65.47901992723453L200.44914521455763,102.53426566155403L200.5489332146645,124.7945905879494L200.72356221485137,136.49424511145935L201.0478732151985,143.27812496078263L201.19755521535873,115.87581343616179L201.54681321573258,50.994838123476256L201.846177216053,62.67255512743654L202.22038221645354,43.419797120140714L202.4199582166672,86.80027570080684L202.44490521669388,99.56745169690134L202.99373921728136,49.91859415958692L203.09352721738816,78.83013193656063L203.44278521776198,95.9099081486081L203.74214921808243,108.37278967750217L203.76709621810912,45.08641173346689L203.94172521829606,76.80530118898747L204.29098321866988,-129.19592784662467L204.61529421901702,-22.977413073805764L204.66518821907042,36.79585193146528L204.88971121931075,25.123072624856206L204.93960521936415,34.401945051801306L204.96455221939087,27.73042894386441L205.43854521989823,71.67901956071337L205.51338621997834,47.73995000722269L205.73790922021865,29.043076914143086L206.0622202205658,80.72844288287556L206.66094822120667,29.320674579462207L207.06010022163392,51.448492469515145L207.33451722192765,93.9237442135589L207.7835632224083,119.50821910304526L208.0330332226753,115.16374970264275L208.057980222702,120.21078298217085L208.20766222286224,125.7145377011246L208.38229122304918,123.84116513725428L208.48207922315598,120.19553319068939L208.5070262231827,134.7919773110768L208.53197322320938,116.84067154450932L209.08080722379685,108.28170853278768L209.10575422382354,124.42926042996493L209.20554222393034,113.60944874783108L209.25543622398376,130.8985278691962L209.47995922422407,127.81371314624677L209.57974722433087,129.4505785435671L210.3032102251053,109.80530446020236L210.328157225132,127.8900528896545L210.5526802253723,134.96290664930365L210.62752122545243,112.52578650082911L210.80215022563937,129.54708865002794L211.05162022590636,140.02430973025366L211.07656722593305,119.7948612534828L211.1264612259865,84.94624631890089L211.25119622612,108.73653332086913L211.40087822628024,114.30882693396529L211.50066622638704,119.98161576449996L211.55056022644044,117.34657294632775L211.94971222686766,111.60272342833629L212.0993942270279,124.72554306395398L212.1243412270546,74.49338622630692L212.32391722726823,106.94530988650129L212.79791022777556,127.47852648112448L213.22200922822952,134.5278319400485L213.8706312289238,142.28738099007305L214.444412229538,110.70798700788369L214.76872322988513,58.68945944830922L214.8435642299652,92.8661732580862L215.616921230793,114.99271414800242L215.6418682308197,127.64854293912649L216.04102023124696,133.7274606049673L216.06596723127365,141.14940713511658L216.3154372315407,143.2920944115781L216.39027823162078,89.7225203713967L216.44017223167418,105.73284668735121L216.71458923196792,95.18142460369373L216.86427123212815,119.79530304375895L216.93911223220826,134.41270590867921L217.03890023231506,139.57540726139507L217.48794623279574,124.77837705833561L217.51289323282242,138.1678339374772L217.61268123292922,145.25679148064526L217.68752223300933,145.45232255933837L217.73741623306276,150.55244240229993L218.08667423343658,142.8148297594612L218.1864622335434,126.09401105479861L218.46087923383712,109.95122666620058L218.53572023391723,127.14357910428396L219.0346602344513,105.98750021484956L219.2342362346649,126.86654987133798L219.48370623493193,38.460714981092735L219.50865323495864,67.8774070003124L219.78307023525238,44.4173255498539L220.35685123586654,-10.81113223575855L220.90568523645402,-10.662106634021711L222.00335323762894,56.8903819232704L222.02830023765566,83.3718181592477L222.12808823776246,110.6808155710617L222.22787623786925,129.46722472116323L222.67692223834993,136.93730882334265L222.82660423851013,134.31035731414016L223.89932523965837,110.74391304801028L224.098901239872,129.2196640627166L224.2984772400856,132.46476863357034L224.3234242401123,140.18661148655787L224.74752324056627,102.79722401139337L225.0718342409134,124.59638855964732L225.1716222410202,137.77781344432324L225.44603924131394,145.0109102910785L225.74540324163436,126.61003038453765L225.82024424171448,128.17561991110577L225.87013824176788,97.34459602669601L225.9699262418747,121.65653230247463L226.1695022420883,124.14138255723553L227.66632224369047,110.02481097417542L227.8160042438507,125.7071513013446L227.8409512438774,108.36038086674769L228.26505024433135,87.65891626033684L228.4396792445183,114.58350917997751L229.01346024513245,130.62429260840958L229.11324824523925,131.22823106347755L229.387665245533,110.6208225137816L229.4625062456131,88.49935855870122L229.88660524606706,116.20142593249963L230.03628724622726,106.99864133952111L230.3605982465744,122.15614334863373L230.85953824710845,129.8203554823367L231.08406124734879,141.1969737106503L231.48321324777604,141.3393298384721L231.53310724782943,135.21959212654613L231.75763024806977,119.37480572729963L231.9821532483101,-136.6022569822175L232.1817292485237,-60.58706799042568L232.68066924905776,25.380266060792167L232.73056324911116,56.37988929155824L232.80540424919127,90.50074258986622L232.8552982492447,116.65791311751084L233.0049802494049,92.51079508369783L233.30434424972535,118.48839136644996L233.32929124975203,134.13698649991136L233.50392024993897,143.60055996074456L233.57876125001908,142.16632840747081L233.70349625015257,76.69275450891634L233.8781252503395,89.95593816182098L233.9280192503929,100.69295489007969L235.20031625175474,123.33059665009195L235.47473325204848,134.73047534297194L235.54957425212862,137.4651927373148L235.6743092522621,134.11351785251122L236.07346125268936,142.60283162031914L236.17324925279618,139.40117619883972L236.1981962528229,145.94572354195947L236.2480902528763,150.62545259521204L236.49756025314332,145.26275490144823L236.59734825325012,135.53074364671016L236.69713625335692,137.32250319903363L236.92165925359726,137.20892046783436L236.94660625362397,122.83563383554419L237.07134125375748,133.00077834023517L237.17112925386428,132.2655856370555L237.196076253891,140.37882695552338L237.57028125429153,146.0813222161654L238.34363825511934,150.2872933846174L238.64300225543977,153.24460905349252L238.81763125562668,137.4948033057127L238.9423662557602,142.4865164620565L239.29162425613404,77.7543506566457L239.51614725637438,109.93029291843052L239.89035225677492,97.7207399716493L240.16476925706863,121.88555127532888L240.33939825725554,134.66185109284555L240.36434525728225,140.16242925132582L240.58886825752256,140.7058137300458L241.5368542585373,70.0995046026483L241.6116952586174,88.162281159563L241.6615892586708,116.18776082371767L241.73643025875091,128.04114917142607L241.76137725877763,139.77415059789843L241.86116525888443,87.60529356343594L242.65946925973893,92.86254172341151L243.00872726011275,76.19394616034404L243.68229626083374,51.93825954813691L243.83197826099396,82.32429751241415L243.93176626110076,101.86598312796718L244.38081226158144,117.89752149170778L244.50554726171492,129.87263417790777L244.87975226211546,111.36749499304601L244.9545932621956,125.43396057662724L245.0294342622757,130.74670354962197L245.55332126283648,141.63032292339693L245.82773826313021,120.78728489882766L246.15204926347732,126.47309228591837L246.17699626350404,84.88046875768846L246.42646626377106,76.66946370303658L246.50130726385117,103.7829800649549L246.60109526395797,118.43734346492332L247.02519426441194,127.45671225737021L247.07508826446534,133.20702401668694L247.14992926454545,130.13663433523104L247.6738162651062,140.08461475432478L247.7237102651596,140.8579322438871L247.84844526529312,135.60619109843108L248.12286226558683,32.98864089064139L248.32243826580049,22.64861350781888L248.42222626590728,59.67705938649796L248.84632526636125,89.63332390624034L248.99600726652145,116.99612306456346L249.2454772667885,108.33332192288498L249.2953712668419,92.23807274578226L249.44505326700212,114.15906547079067L249.5697882671356,129.93122851274748L249.69452326726912,139.41655488948436L249.76936426734926,120.71558007576041L250.1435692677498,134.18354759560745L250.16851626777648,102.95219678151537L250.84208526849747,122.74494192404742L251.0416612687111,136.95843828545654L251.29113126897812,134.9503922150371L251.56554826927186,141.92608615092067L252.0894352698326,148.40537796792358L252.51353427028656,151.41532910086804L252.53848127031327,149.1315853479488L253.33678527116774,134.31778099810253L253.36173227119448,100.94304170803274L253.51141427135468,123.85991357308318L254.8086582727432,131.5152796127695L254.85855227279666,124.56675899930954L255.03318127298354,51.88077420617746L255.10802227306365,89.64988692490925L255.2826512732506,112.40112021389294L255.95622027397155,127.7084844363163L256.4801072745323,134.28787621349358L256.72957727479934,111.09567394741799L257.1287292752266,96.67145457884348L257.17862327528,91.40046923159345L257.2285172753334,73.54910144190627L257.3532522754669,66.33374271623732L258.1515562763214,52.03328129233931L258.2762912764549,43.23880349044322L258.55070827674865,-6.148836559751942L258.57565527677536,53.0595540382284L258.6006022768021,87.64840691385005L258.67544327688216,103.81931480957441L259.0745952773094,91.31109264731994L259.7481642780304,106.92927183010397L259.8230052781105,118.8984535887305L260.3219452786446,111.7756181206326L260.47162727880476,117.17957070822908L260.4965742788315,99.8961417442459L261.14519627952575,121.96908457430918L261.3198252797127,136.3950302199487L261.4944542798996,143.04950597825584L262.3177052807808,147.4486732697492L262.39254628086087,143.04146715094555L262.86653928136826,91.70491932479821L262.891486281395,118.22113249971453L263.1160092816353,129.89978059203332L263.29063828182217,114.35505399084133L263.3654792819023,111.07356825510378L263.54010828208925,91.52779129331721L263.61494928216933,92.12949497318034L264.08894228267667,98.25785750495376L264.1637832827568,67.97626806145045L264.43820028305055,103.55620990852977L264.7126172833443,115.20459377823478L264.9620872836113,132.2143730305737L265.0119812836647,123.08927890053906L265.0369282836914,133.63659089717518L265.1117692837715,123.30852772035277L265.7104972844124,134.3696058042866L265.8352322845459,143.79093136586434L265.8601792845726,144.74275551928693L265.9599672846794,147.78411507095788L266.4339602851868,150.86393240177316L266.45890728521346,149.71094522009352L266.6834302854538,137.1638953863101L266.8830062856674,145.58950379089745L267.1823702859878,150.55960293973538L268.1054092869758,140.31976722067947L268.18025028705597,127.02381192644506L268.4047732872963,116.89850084618615L268.429720287323,114.5675891773613L268.5794022874832,130.79754581524276L268.6292962875366,122.10745891333981L268.85381928777696,61.22965160130926L269.72696428871154,92.45270008933286L269.85169928884505,114.06618840661426L270.42548028945924,125.35248866869036L270.50032128953933,136.7668143113385L270.57516228961947,141.1651205492915L270.7996852898598,135.96824762191008L271.4982012906075,136.4166053034733L272.09692929124833,145.07654379895448L272.34639929151535,147.7837395125477L273.718484292984,81.73335119081136L273.86816629314427,87.42023400056699L273.96795429325107,111.18821328731026L274.04279529333115,121.14093326495377L274.3172122936249,98.68788403424145L274.392053293705,99.88099470272385" fill="none"></path></g></g></g></g><g opacity="0.2"><g><g><g><path style="fill: none;" stroke="rgb(255, 112, 67)" stroke-width="2px" d="M25.39604602718353,125.36536219890945L25.54572802734375,114.3621904358459L25.944880027770996,148.34043698222715L25.994774027824402,158.13955370248624L26.06961502790451,11.526461598632807L26.344032028198242,147.82342794546852L26.718237028598786,158.23238883476074L26.79307802867889,142.73923215973957L27.29201802921295,153.9377219069966L27.591382029533385,106.5297111986243L28.090322030067444,158.14822337323L28.813785030841828,-15.821518528912435L28.888626030921937,156.4579574371027L29.113149031162262,155.21016003499076L29.512301031589505,152.3346677066102L29.562195031642915,140.26300069503344L30.659863032817842,31.13453528404412L30.784598032951354,156.05853103322303L31.158803033351898,107.74462948572682L31.308485033512117,155.8387935839203L31.43322003364563,78.31821675558665L31.60784903383255,102.48431543143276L31.757531033992766,153.95577301240303L32.63067603492737,-194.7964443964447L32.680570034980775,143.83094254257247L32.8801460351944,58.42047630835411L33.40403303575516,144.91025524649126L33.60360903596878,153.99019328755998L34.102549036502836,144.26626699592555L35.44968703794479,65.27153297092354L35.4746340379715,90.4750696069844L35.89873303842545,145.49948049758842L35.973574038505554,30.561362273542272L36.04841503858567,155.02237847869804L36.42262003898621,-96.17262914753854L36.497461039066316,140.8526316154492L36.522408039093015,-110.74821455481589L36.77187803936005,132.5214185084177L37.2458710398674,136.80259541579053L37.769758040428165,152.80574648575003L38.19385704088211,-133.19229414405345L38.31859204101563,-344.0150540361126L38.9921610417366,62.786846131175636L39.24163104200363,26.447488581953934L39.39131304216385,139.40147463091068L39.56594204235076,155.737716474033L39.590889042377476,-8.583019364568827L40.41414004325867,143.6298862243549L40.46403404331207,-145.18161500103935L40.763398043632506,157.2750114125382L40.93802704381943,82.031072174483L40.96297404384613,35.7328253128926L41.01286804389954,144.7634100287855L41.08770904397965,157.27948026103482L41.13760304403305,-51.994919590145685L41.43696704435348,63.981023395093416L41.68643704462052,157.51876442653852L42.75915804576874,-117.94614678729948L42.95873404598236,152.76607697933025L43.158310046195986,65.3062318489192L43.38283304643631,120.63407395566628L43.70714404678345,158.0563757378459L43.80693204689026,60.47989905799598L44.031455047130585,149.38378427080093L44.1312430472374,53.48936762318954L44.181137047290804,157.42688003105766L44.2310310473442,138.74067233050602L44.40566004753113,155.44006634049782L44.53039504766464,13.468079864987118L44.58028904771805,157.55993146006864L44.705024047851566,-42.31832895267206L44.754918047904965,138.43611491029534L44.854706048011785,7.222649758407613L44.95449404811859,155.08575192738098L45.10417604827881,-25.67445267576477L45.12912304830551,-151.46365912216515L45.70290404891968,54.90235159655626L45.80269204902649,139.7115840602841L46.62594304990768,156.2155602902508L46.8005720500946,94.80285839077298L46.95025405025482,58.07567625588399L47.299512050628664,117.46084363804054L47.39930005073547,158.156822729924L47.573929050922395,38.30365556073684L47.623823050975794,21.715846557328263L47.823399051189426,-2.642812966470359L48.17265705156327,16.341954527996222L48.19760405158997,158.04445772752294L48.447074051856994,158.06211729643996L48.5219150519371,123.40003114575742L48.74643805217743,133.9534712983012L48.94601405239106,155.89438516886844L49.17053705263138,62.57004889997931L49.19548405265808,158.0220718051707L49.3451660528183,139.00611921888128L49.370113052845,128.02797041300198L49.49484805297852,51.46503998669172L49.94389405345917,77.4265933299833L50.018735053539274,17.553037824912423L50.243258053779606,-9.881425340856367L50.99166805458069,121.79114662818742L51.31597905492782,157.98443510446344L51.46566105508804,116.60009825150185L51.54050205516815,61.980413262478436L51.59039605522156,148.15398475947916L51.690184055328366,88.38270273500409L51.839866055488585,156.27482530522056L51.964601055622104,137.96721542447168L52.21407105588913,98.15055010082249L52.36375305604935,144.96916928084778L52.48848805618287,138.57871357213983L52.73795805644989,157.8409689780395L53.78573205757141,157.90169334121208L53.88552005767822,-78.05317317798745L53.91046705770493,106.07136147362682L53.93541405773163,147.74132000367524L54.384460058212284,157.95791502554334L54.708771058559414,-85.01740214627625L55.03308205890655,156.93020133626226L55.68170405960083,144.07611186137405L55.98106805992126,151.09094689788702L56.255485060215,125.46428419054169L56.33032606029511,64.41574995791007L56.40516706037522,153.71379568612505L56.90410706090927,157.18743327352692L57.05378906106949,-18.824905480427333L57.22841806125641,49.36991833701296L57.37810006141663,94.59933975413318L57.777252061843875,-52.14763993734354L57.85209306192398,60.77116019458103L58.12651006221771,113.88882151189L58.20135106229782,-95.39500823463214L58.27619206237792,145.82528366908954L58.30113906240464,-320.3155882866995L59.49859506368637,63.372179787065306L59.57343606376648,130.5601795265899L59.64827706384659,107.1357764435285L59.67322406387329,157.05131507586083L60.222058064460754,137.4793674078013L60.521422064781184,-777.8637107106297L60.77089206504822,88.81435375833553L60.87068006515503,153.14266310974676L61.4943550658226,-199.87534879196272L61.5193020658493,79.76953647956111L61.793719066143034,38.53722674654881L61.99329506635666,62.45527278532593L62.09308306646347,-80.40411178680978L62.14297706651688,71.09625569160366L62.941281067371364,150.95575229074262L63.04106906747818,126.3633016470393L63.66474406814575,153.5655875256432L64.063896068573,147.45131243245552L64.0888430685997,134.82280649680698L64.46304806900024,143.6579163232904L64.56283606910706,147.01957886013483L64.9619880695343,158.2781266745205L64.986935069561,129.73270845834668L65.53576907014848,138.54022215772378L65.66050407028197,156.1375662363004L65.7852390704155,124.95351349882783L65.86008007049561,128.18149030612426L65.98481507062912,74.57107756218345L66.05965607070924,108.57303925390497L66.35902007102966,-29.820128955097346L66.55859607124329,158.23961158110885L66.73322507143021,73.4025612412097L66.90785407161712,155.85080328258493L67.13237707185745,-11.563726570922881L67.23216507196426,147.8605915004289L67.28205907201767,157.8367891247097L67.33195307207107,143.12030305881495L67.40679407215119,134.73175732020667L67.58142307233811,99.24894223469953L67.80594607257844,148.5772488055028L68.05541607284546,64.22367025263779L68.15520407295227,136.54872189570816L68.20509807300567,-74.80796957590579L68.27993907308579,127.41725883927427L68.4046740732193,157.98771884060702L68.47951507329941,132.3039585267648L68.50446207332611,158.2650119189207L69.00340207386017,155.20362186022433L69.2279250741005,14.7212395609954L69.37760707426071,47.927452581771234L69.55223607444763,-37.475127865431205L69.57718307447433,-376.8460418055232L69.80170607471466,157.33625907733907L69.97633507490158,153.97191812061126L70.50022207546233,150.29647537773215L70.60001007556916,84.48341867878526L70.84948007583618,156.0647456454334L70.949268075943,66.3137729237701L71.17379107618332,91.23203912132294L71.49810207653046,102.09849560693299L71.57294307661057,154.73789461413043L71.72262507677078,111.36509607585444L71.77251907682418,76.50350694676294L72.6207170777321,59.83589429763242L72.7703990778923,158.1173899806388L73.19449807834626,77.27199558291568L73.44396807861328,158.17668159370362L73.51880907869338,129.57252804106318L73.5687030787468,-39.4805305565078L74.01774907922744,41.82950685792852L74.3670070796013,93.13878869461799L74.41690107965469,117.22667809950599L74.86594708013534,106.77888178486198L74.96573508024215,138.62711440307973L75.16531108045578,59.59503993242606L75.58941008090973,8.0962444847587L75.73909208106994,135.12801605403274L76.33782008171082,151.16598510838665L76.66213108205795,131.93682307634617L76.73697208213807,108.50692930622836L76.76191908216477,156.01404051842212L76.81181308221817,-13.077325969472753L76.86170708227156,118.32702310661443L76.96149508237839,86.48859494977705L77.0612830824852,51.831868826578855L77.23591208267212,157.92907771542008L77.61011708307265,36.40674582696039L78.45831508398057,157.87081906107463L78.55810308408738,146.5528952250369L78.73273208427429,154.4368988879881L78.95725508451461,157.89854483431674L79.25661908483505,121.59610931055741L79.50608908510208,152.37084774932723L79.55598308515549,75.08589079582802L79.6058770852089,153.97910194640076L79.7306120853424,157.904329381034L79.80545308542251,49.4349386380315L80.00502908563614,126.39275748494629L80.10481708574295,145.21158618049355L80.603757086277,85.48926160300016L80.72849208641053,129.56566704078523L80.75343908643723,27.799027804807935L80.80333308649064,152.14671486116475L80.87817408657074,133.223922199649L80.97796208667755,-614.9525728627463L81.00290908670425,149.22959278268752L81.17753808689118,78.57006192907602L81.25237908697127,132.01406298631622L81.37711408710479,122.23892064839069L81.85110708761215,113.80127241243386L82.10057708787917,-103.97091423487018L82.2502590880394,85.82587279573666L82.39994108819961,157.87171862394408L82.49972908830644,122.68610031587134L82.79909308862686,116.99930988060055L82.82404008865356,141.66343014640648L83.44771508932114,42.500408437532315L83.67223808956147,158.00283809336267L84.54538309049606,96.06203237028376L84.57033009052276,148.73345743713207L84.62022409057617,123.06730683114333L85.7178920917511,133.95335101263112L85.91746809196472,155.2493242236692L86.09209709215165,150.8884388967299L86.14199109220505,106.76385786881845L86.19188509225845,125.08650227905233L86.31662009239197,156.1816908821882L86.94029509305953,151.21748978132237L86.96524209308623,128.22876493299654L87.21471209335327,131.18877356993175L87.26460609340667,116.7003787636429L87.3893410935402,157.8477433755832L87.73859909391402,147.30980341726914L87.88828109407424,157.51161553666054L88.11280409431457,121.33263888083908L88.4870090947151,152.59382436200457L88.58679709482193,-91.3623910509765L88.63669109487533,158.19022371853788L89.26036609554292,113.86600025417617L89.55973009586334,76.15262185451381L89.80920009613037,100.8387885968059L89.95888209629058,134.72610625225684L90.38298109674454,148.29360576135426L90.53266309690476,126.92955705224199L90.55761009693146,144.5538723915581L90.90686809730529,-112.86899714743868L91.0565500974655,141.50623682326255L91.18128509759903,156.34825528451893L91.75506609821319,157.38218786086873L91.92969509840012,157.27357034304015L92.05443009853363,156.0243247958025L92.37874109888077,94.10203162329474L92.55337009906768,149.70295522065143L92.92757509946823,149.44580686423836L93.22693909978867,152.2857432792242L93.30178009986876,91.26517664415049L93.65103810024262,150.3745278056107L94.52418310117721,145.88361514343623L94.54913010120393,154.2075881144749L94.57407710123063,89.44677807477856L95.02312310171128,150.78202027760247L95.39732810211181,-179.96166459709218L96.59478410339355,137.62893438360976L96.81930710363389,125.78005530130636L97.0438301038742,93.45851272269647L97.19351210403443,135.78023561809798L97.71739910459519,157.0839862706036L97.76729310464859,148.90918654617647L97.79224010467529,144.47061466027168L98.96474910593032,158.17219964424018L99.16432510614395,142.25849750740002L99.73810610675812,-2.908856566110728L99.96262910699843,151.1783438713487L100.06241710710525,79.93990815920317L100.16220510721207,143.43589727888835L100.46156910753251,158.15511800116542L100.53641010761261,129.0500872808119L100.73598610782624,62.03785792482631L100.81082710790633,33.14865514838556L101.40955510854721,111.45328198179905L101.50934310865402,145.90362619770175L101.55923710870742,143.29880463462683L102.25775310945511,-720.4436526786254L102.83153411006928,157.40309353980524L103.20573911046982,134.67212393037235L103.40531511068343,158.11911963992915L103.53005011081696,156.05166870626488L103.65478511095047,64.5688005010649L103.80446711111068,146.36096646648784L104.20361911153795,89.04988725154908L104.6526651120186,158.03264231380086L104.6776121120453,150.35457453563768L104.8522411122322,157.99652086612528L104.9270821123123,-159.41955145685824L105.52581011295318,152.88877956585856L105.6006511130333,148.47906621695998L105.77528011322022,33.46374699889583L105.85012111330033,112.93430519064827L105.87506811332703,151.2292530122905L105.92496211338043,87.53717466499802L105.94990911340713,-105.45138082767761L106.5735841140747,154.44584542951588L106.79810711431503,158.18275512637464L107.3968351149559,105.77956730642548L107.59641111516953,145.15307899472685L107.94566911554335,152.2709104051272L107.97061611557008,154.60467646564294L108.39471511602402,29.712334126391994L109.1181781167984,139.1960314235501L109.1680721168518,158.2703403352554L109.41754211711883,157.24629247176918L109.84164111757279,106.48382811185654L109.9663761177063,153.62081987507918L110.51521011829375,84.2408284262621L110.71478611850739,144.58791795326738L110.98920311880113,114.79793588904415L111.03909711885453,43.39388096049484L111.21372611904144,126.0714721016997L111.36340811920167,-268.12696631400706L111.53803711938858,141.5660140841924L111.68771911954879,156.1116405469551L111.76256011962892,120.78117389596746L112.18665912008287,147.69773649589374L112.48602312040329,158.26498928359166L112.5608641204834,-104.62219274045799L112.73549312067031,146.64220261796407L113.13464512109756,93.80537885844038L113.18453912115096,47.59356786422251L113.33422112131119,154.29713932173814L113.434009121418,151.0174670943773L113.83316112184524,155.9987142667055L114.25726012229919,151.9333669984478L114.75620012283326,153.38800872960397L115.20524612331391,-64.94258232438946L115.25514012336731,132.05772668454443L115.30503412342071,157.8048336370742L115.37987512350082,157.7403761064195L115.45471612358094,52.71467130304518L115.87881512403489,147.6656119670914L116.15323212432861,144.51953672911515L116.50249012470245,-186.21878364054947L117.25090012550353,156.97689974170777L117.30079412555693,157.9700030904694L117.89952212619781,-47.98505762501253L117.99931012630462,143.7005941507327L118.04920412635802,48.00494485579412L118.19888612651825,152.9588890120643L118.27372712659836,105.28404695083994L118.32362112665176,131.37626355140173L118.5481441268921,139.84108219753458L118.72277312707901,-39.15169312001612L119.04708412742615,-29.545160630447754L119.24666012763977,149.03589747576848L119.5709711279869,157.51912801061349L119.62086512804032,95.15987569365211L119.69570612812042,138.6476608465041L120.09485812854767,42.34980134445928L120.21959312868118,105.34813326900863L120.26948712873458,31.77615319934708L120.51895712900162,123.94718471484764L120.61874512910842,7.903249664977011L121.3422081298828,36.58325915140267L121.46694313001633,134.85235903495854L121.64157213020324,158.27706694524912L122.73924013137817,132.13332740744227L122.9388161315918,-3.4857183371607903L123.11344513177872,110.43152832954183L123.21323313188553,-212.7833314063452L123.48765013217925,132.52758609718595L123.63733213233947,155.84386489262954L123.78701413249969,76.18046209077404L124.33584813308715,132.22329165446962L124.61026513338089,152.55494614661032L124.7350001335144,112.56611311316723L124.95952313375473,120.21562605352976L124.98447013378143,154.82413678619605L125.28383413410187,131.33337817221502L125.5582511343956,57.78214148428076L125.63309213447572,85.33904602799043L125.88256213474273,157.99073930443845L127.05507113599778,-3.7366483961407937L127.17980613613129,83.54383664897014L127.20475313615799,-9.65651472328804L129.27535413837433,-48.964154676710365L129.54977113866806,144.3752646813314L129.57471813869478,-80.2274286473039L129.62461213874818,149.83120804743552L129.67450613880158,155.0758714030034L129.7493471388817,156.9179159829371L129.77429413890837,156.43488425756274L130.39796913957596,-8.467431911278254L130.52270413970948,154.3365423128498L130.5975451397896,85.99455575891292L130.7971211400032,91.31911651226906L131.07153814029695,155.3737736057736L131.29606114053726,150.01249801017718L131.37090214061737,155.5428286290371L131.3958491406441,54.95831509418272L131.77005414104462,16.70158509602075L132.16920614147188,143.8660058153921L132.31888814163207,149.91710734637792L132.4186761417389,98.35958300994419L132.6431991419792,136.18789790515333L132.6930931420326,157.56865828861703L132.91761614227295,156.88209134310054L133.01740414237977,93.7515569174493L133.29182114267348,73.60093353800539L133.94044314336776,154.51908525132114L134.1649661436081,145.0336848537606L134.53917114400863,76.43319407626223L134.71380014419557,147.8608096656148L134.86348214435577,146.79293589306351L134.96327014446257,148.82875434886498L134.98821714448928,157.1322441149014L135.46221014499665,30.82252840718928L135.53705114507676,158.22350799614776L136.43514314603806,-63.82287840003056L136.58482514619826,144.25716538022508L136.95903014659882,-159.6663493492906L137.00892414665222,93.71681558568775L137.43302314710618,-137.7075068701206L137.45797014713287,156.6846774990336L137.93196314764023,156.85249281336928L137.95691014766692,152.62710988337713L138.03175114774703,158.0986180825177L138.25627414798737,-50.5812657906948L138.5306911482811,150.80289927552636L139.15436614894867,157.65503821430843L139.22920714902878,142.06344603851474L139.50362414932252,157.97899105390073L139.5784651494026,103.72764472209262L139.62835914945603,29.7765336546031L139.67825314950943,86.4469383712589L139.97761714982988,-13.760020261826583L140.40171615028382,136.622037190875L140.92560315084458,154.70610735691275L141.1002321510315,130.8689575586938L141.29980815124512,53.69913639758684L141.39959615135191,43.09411963655961L141.57422515153885,65.47189587763145L141.59917215156554,-31.32880371680281L141.62411915159225,151.86768571587967L141.87358915185928,156.9057618235413L142.52221115255355,95.37836635839935L142.64694615268706,97.45973298792644L143.04609815311431,118.52113587556482L143.32051515340805,155.07380296118703L143.42030315351488,71.14415297370911L143.44525015354156,146.66792842082825L143.6448261537552,156.16525626288197L143.79450815391542,60.36339649019601L143.8693491539955,140.67119129562L144.09387215423584,72.57289201130985L144.19366015434267,102.02627703405187L144.36828915452958,158.2117358976124L144.39323615455626,140.74558326546094L144.5429181547165,158.11187581871354L144.69260015487671,155.68516372375163L144.7424941549301,111.62219136506012L144.81733515501023,141.68131379529189L145.69048015594484,61.999526891303645L145.98984415626526,149.43344279455562L146.46383715677263,155.35516794805008L146.51373115682603,101.55750255098337L147.03761815738676,123.47799276974777L147.53655815792084,127.45944137278107L148.1352861585617,82.66776545294154L148.21012715864182,155.39720720009697L148.53443815898893,131.9623142042266L148.7340141592026,157.58911709744476L148.9585371594429,-14.31412681435421L149.033378159523,155.29091417336033L149.0832721595764,142.1888037543187L149.10821915960312,-2.8961770413619377L150.20588716077805,147.06686174190602L150.35556916093824,101.29773267452599L150.43041016101836,132.2138622013547L150.6050391612053,156.63770181742956L150.92935016155243,147.68941319923476L150.97924416160583,155.38921085639902L151.00419116163252,147.55830181888007L151.17882016181946,140.71422880080118L151.6278661623001,121.62085749753462L152.20164716291427,151.98218941886853L152.3263821630478,111.83784234457714L152.82532216358183,33.57494756304337L152.87521616363526,117.50624558212812L153.02489816379546,147.8870189697017L153.67352016448973,-26.709947196918336L153.79825516462327,117.28993421069708L154.2223541650772,158.15661587837192L154.67140016555788,136.52703745550343L154.87097616577148,131.4798365889426L155.44475716638564,-62.300429749833114L155.54454516649244,120.24234362353619L155.6443331665993,66.9883160930711L155.66928016662598,157.47053886479188L156.31790216732026,125.35051045647208L156.89168316793442,111.26832035794268L157.6151461687088,104.50046364236717L157.8895631690025,94.07277626150449L158.2887151694298,142.8695935235634L158.63797316980364,121.55440556118826L158.66292016983033,121.8481431674508L159.16186017036438,-171.9184307146873L159.76058817100522,143.46530476667309L160.1597401714325,139.1483817884124L160.63373317193984,121.80539222518944L160.70857417201998,106.81215610315742L160.83330917215346,149.49431736740684L161.75634817314148,-68.81783754910884L161.93097717332842,87.3243209169453L162.0307651734352,157.33360203174757L162.1804471735954,158.27714039907988L162.33012917375564,153.34850785897652L162.45486417388915,-93.02314463630626L162.5297051739693,156.07235680965115L162.5795991740227,139.35433326169252L163.17832717466356,37.88130662922262L163.37790317487716,-55.54003546288581L163.80200217533113,79.14486233393737L163.9267371754646,125.48139777528453L163.97663117551804,156.69842986582486L164.27599517583846,16.739784051160598L164.3258891758919,156.49783434785797L164.47557117605209,145.2398639263968L164.77493517637254,157.46073661454514L164.89967017650602,149.4693138681986L165.14914017677307,119.58512159072242L165.3986101770401,143.39232792236214L166.09712617778777,146.71605566083232L166.1470201778412,146.41698421059297L166.246808177948,135.39890174152828L166.62101317834853,125.50146897238506L167.64384017944337,0.013339916662800988L167.7186811795235,156.75102226910283L168.1677271800041,125.01564930230768L168.61677318048478,117.41147934246897L169.04087218093872,154.78167771357525L169.1157131810188,154.99195357462082L169.24044818115235,8.010223720874961L169.36518318128586,54.72725339764399L169.8142291817665,141.26479753950383L169.83917618179322,158.15362003182832L170.26327518224716,-86.51549176901733L170.33811618232727,154.7889617774231L170.51274518251418,156.5589555358146L171.18631418323517,91.33465459058849L171.23620818328857,84.87395558838503L171.4108371834755,-33.45737893401082L171.85988318395613,83.45984894876453L172.08440618419647,158.13056783041878L172.3089291844368,157.02976706260174L172.55839918470383,79.58335784774894L172.83281618499757,151.15238398313642L172.93260418510437,-39.401264658487264L172.95755118513108,129.81056394792228L173.43154418563844,9.92396401428823L173.55627918577193,149.03799009264597L173.60617318582533,157.90657360797476L173.70596118593218,70.65229307616119L173.93048418617246,155.2277473919683L174.37953018665314,157.35894147586026L174.8784701871872,155.37131364589393L175.0032051873207,155.14969732263233L175.22772818756104,13.280556863921447L175.37741018772124,136.63364593730614L175.40235718774795,120.96878652165003L175.50214518785478,153.32391002908687L175.5769861879349,121.28314958251235L176.12582018852234,156.95915259347245L176.574866189003,142.58645638679184L176.6746541891098,152.53077580255788L176.79938918924333,134.34677241976956L177.19854118967055,158.2783669819929L177.24843518972395,158.278303342227L177.497905189991,154.93458762863054L177.64758719015123,84.8408274997277L177.69748119020463,129.15069091328232L177.84716319036482,145.47778190612843L177.89705719041822,152.33010451641155L177.94695119047165,157.62994626975458L178.2463151907921,156.4330157022275L178.2962091908455,142.8900515216421L178.3461031908989,150.48472952698833L178.91988419151306,152.2162028314086L179.1444071917534,153.2927454271024L179.2192481918335,85.02694952651868L179.61840019226074,105.41114409177453L179.89281719255447,142.7839807875408L179.94271119260787,108.11917547683757L180.0923931927681,-225.94811213357207L180.41670419311524,153.79374880448108L180.54143919324875,158.27415746190033L180.71606819343566,78.44705921800823L180.8657501935959,27.20120330757345L181.19006119394302,96.53557582638837L181.83868319463733,139.05565686733024L182.41246419525146,155.13125558361602L182.5122521953583,140.72566065654104L182.53719919538497,142.36697749271616L182.71182819557188,101.71693059319341L183.13592719602585,133.35640389322526L183.41034419631958,153.92069765205284L183.68476119661332,-10.755293658143273L183.85939019680023,121.36859957909897L184.00907219696046,100.08144171565937L184.60780019760134,24.29555435933071L185.97988519906997,115.48222455616178L186.0796731991768,12.311186441699789L186.40398419952393,129.00069232418718L186.77818919992447,118.21148282417485L186.9777652001381,149.21279229446822L187.0027122001648,68.28273141536404L187.1025002002716,12.70055351419478L187.35197020053863,154.7054587577115L187.60144020080568,148.39337446976197L187.62638720083237,138.4393956429824L187.65133420085908,136.9160130099351L187.85091020107268,97.4249680707394L188.34985020160676,124.2896568858209L188.9485782022476,14.564321008058556L189.12320720243454,158.03362678420214L189.19804820251466,131.08962515821472L189.44751820278168,91.89209140519672L189.67204120302202,129.2750285594334L189.74688220310213,80.304741672093L189.99635220336916,153.38145669840006L190.12108720350267,110.84767901123465L191.01917920446397,134.4634565953459L191.2437022047043,157.53419106372246L191.2935962047577,148.30572041516237L191.3933842048645,153.53211420532008L191.54306620502473,135.17272694515316L191.61790720510484,-53.07667928196011L191.79253620529175,113.25386412074826L191.99211220550535,-89.22281559131534L192.06695320558546,121.40132199843772L192.2665292057991,107.24689681722937L192.3663172059059,157.70837812816586L192.46610520601274,158.15070601565557L193.0398862066269,135.61686409274432L193.1396742067337,95.57785188727864L193.31430320692064,93.70474456491684L193.41409120702744,-282.1337278632448L193.68850820732118,77.67341952492627L193.9878722076416,93.68867817306621L194.38702420806885,99.27306540790096L195.0106992087364,97.87827994885008L195.38490420913695,108.92086295792419L195.73416220951083,108.003682365249L195.93373820972442,-53.69861751822586L196.13331420993805,-313.151996433744L196.28299621009825,157.87694998187666L196.307943210125,109.85108157381576L196.95656521081926,158.06796255720175L197.3058232111931,146.30000521719788L197.92949821186065,48.220270356439244L198.35359721231458,-16.33990731306281L198.65296121263503,33.9878434560172L198.72780221271518,81.86899784753184L198.87748421287537,1.5827518661159843L199.32653021335602,158.25087871660554L199.37642421340942,107.26500570692829L199.82547021389007,141.86551478917588L199.92525821399687,-5.564179242266306L200.44914521455763,158.11713426303325L200.5489332146645,158.18507797754248L200.72356221485137,154.0437268967243L201.0478732151985,153.4539447347675L201.19755521535873,74.77234614923054L201.54681321573258,-46.32662484555203L201.846177216053,80.18913063337695L202.22038221645354,14.54066010919695L202.4199582166672,151.87099357180605L202.44490521669388,118.71821569104313L202.99373921728136,-24.554692146384696L203.09352721738816,122.19743860202121L203.44278521776198,121.52957246667927L203.74214921808243,127.0671119708433L203.76709621810912,-49.84315518258609L203.94172521829606,124.38363537226833L204.29098321866988,-438.1977714000428L204.4406652188301,89.46028308941989L204.61529421901702,5.156632523795906L204.66518821907042,126.45574943937177L204.88971121931075,7.6139036649425975L204.93960521936415,48.32025369221901L204.96455221939087,17.723154781959096L205.43854521989823,137.60190548598675L205.51338621997834,11.8313456769867L205.73790922021865,0.9977672745236816L206.0622202205658,158.25649183597423L206.66094822120667,-47.7909778756578L207.06010022163392,84.6402193045946L207.33451722192765,157.63662182962454L207.7835632224083,157.8849314372748L208.0330332226753,108.64704560203896L208.057980222702,127.78133290146302L208.20766222286224,133.97016977955522L208.38229122304918,121.03110629144876L208.48207922315598,114.72708527084205L208.5070262231827,156.68664349165795L208.53197322320938,89.91371289465808L209.08080722379685,95.44326401520523L209.10575422382354,148.6505882757308L209.20554222393034,97.37973122463032L209.25543622398376,156.83214655124385L209.47995922422407,123.18649106182264L209.57974722433087,131.90587663954759L210.3032102251053,80.33739333515526L210.328157225132,155.01717553383273L210.5526802253723,145.5721872887774L210.62752122545243,78.87010627811726L210.80215022563937,155.07904187382624L211.05162022590636,155.7401413505922L211.07656722593305,89.45068853832647L211.1264612259865,32.67332391702803L211.25119622612,144.42196382382147L211.40087822628024,122.66726735360957L211.50066622638704,128.49079901030194L211.55056022644044,113.39400871906946L211.94971222686766,102.98694915134911L212.0993942270279,144.40977251738053L212.1243412270546,-0.8548490301636775L212.32391722726823,155.62319537679284L212.79791022777556,158.27835137305925L213.22200922822952,145.10179012843452L213.8706312289238,153.92670456510987L214.444412229538,63.33889603459966L214.76872322988513,-19.33833189105249L214.8435642299652,144.1312439727517L215.616921230793,148.18252548287674L215.6418682308197,146.63228612581258L216.04102023124696,142.84583710372848L216.06596723127365,152.2823269303405L216.3154372315407,146.50612532627034L216.39027823162078,9.3681593111246L216.44017223167418,129.748336161283L216.71458923196792,79.35429147820749L216.86427123212815,156.7161207038568L216.93911223220826,156.3388102060596L217.03890023231506,147.31945929046887L217.48794623279574,102.5828317537464L217.51289323282242,158.2520192561896L217.61268123292922,155.89022779539732L217.68752223300933,145.74561917737807L217.73741623306276,158.20262216674223L218.08667423343658,131.2084107952031L218.1864622335434,101.01278299780476L218.46087923383712,85.73705008330353L218.53572023391723,152.93210776140901L219.0346602344513,74.25338188069796L219.2342362346649,158.1851243560706L219.48370623493193,-94.14803735427506L219.50865323495864,112.00244502914188L219.78307023525238,9.22720337416618L220.35685123586654,-93.65381891417718L220.48158623600008,-233.58828052835145L220.90568523645402,123.22772074413926L222.00335323762894,158.2191147592086L222.02830023765566,123.09397251321366L222.12808823776246,151.64431168878266L222.22787623786925,157.64683844631554L222.67692223834993,148.14243497661178L222.82660423851013,130.36993005033645L223.89932523965837,75.39424664881547L224.098901239872,156.93329058477602L224.2984772400856,137.33242548985098L224.3234242401123,151.76937576603916L224.74752324056627,46.71314279864663L225.0718342409134,157.2951353820283L225.1716222410202,157.5499507713371L225.44603924131394,155.86055556121138L225.74540324163436,99.00871052472637L225.82024424171448,130.52400420095796L225.87013824176788,51.09806020008136L225.9699262418747,158.12443671614255L226.1695022420883,127.8686579393769L227.66632224369047,88.84995359958529L227.8160042438507,149.23066179209832L227.8409512438774,82.34022521485235L228.26505024433135,56.606719350720596L228.4396792445183,154.9703985594385L229.01346024513245,154.68546775105767L229.11324824523925,132.1341387460795L229.387665245533,79.70970968923771L229.4625062456131,55.31716262608067L229.88660524606706,157.75452699319723L230.03628724622726,93.19446445005337L230.3605982465744,144.89239636230263L230.85953824710845,141.31667368289115L231.08406124734879,158.26190105312068L231.48321324777604,141.55286403020486L231.53310724782943,126.03998555865716L231.75763024806977,95.60762612842987L231.9821532483101,-520.5678510464932L232.1817292485237,53.43571549726205L232.68066924905776,154.33126713761888L232.73056324911116,102.87932413770734L232.80540424919127,141.68202253732818L232.8552982492447,155.8936689089778L233.0049802494049,56.29011803297833L233.30434424972535,157.45478579057811L233.32929124975203,157.60987920010353L233.50392024993897,157.79592015199435L233.57876125001908,140.01498107756018L233.70349625015257,-21.517606338915357L233.8781252503395,109.85071364117796L233.9280192503929,116.79847998246775L235.20031625175474,157.28705929011034L235.47473325204848,151.83029338229193L235.54957425212862,141.56726882882901L235.6743092522621,129.0860055253059L236.07346125268936,155.336802272031L236.17324925279618,134.59869306662054L236.1981962528229,155.76254455663906L236.2480902528763,157.6450461750909L236.49756025314332,137.21870836080257L236.59734825325012,120.93272676460302L236.69713625335692,140.01014252751884L236.92165925359726,137.03854637103547L236.94660625362397,101.27570388710896L237.07134125375748,148.24849509727161L237.17112925386428,131.16279658228603L237.196076253891,152.54868893322515L237.57028125429153,154.63506510712847L238.34363825511934,156.5962501372954L238.64300225543977,157.68058255680515L238.81763125562668,113.87009468404297L238.9423662557602,149.9740861965722L239.29162425613404,-19.34389805147049L239.51614725637438,158.19420631110776L239.89035225677492,79.40641055147748L240.16476925706863,158.1327682308482L240.33939825725554,153.82630081912058L240.36434525728225,148.41329648904622L240.58886825752256,141.52089044812575L241.5368542585373,-35.809959088447926L241.6116952586174,115.25644599493504L241.6615892586708,158.22598031994968L241.73643025875091,145.82123169298865L241.76137725877763,157.373652737607L241.86116525888443,9.352008011742186L242.65946925973893,100.74841396337486L243.00872726011275,51.19105281574289L243.68229626083374,15.554729629826227L243.83197826099396,127.90335445883L243.93176626110076,131.17851155129668L244.38081226158144,141.94482903731867L244.50554726171492,147.83530320720777L244.87975226211546,83.60978621575335L244.9545932621956,146.5336589519991L245.0294342622757,138.7158180091141L245.55332126283648,157.9557519840594L245.82773826313021,89.52272786197378L246.15204926347732,135.0018033665544L246.17699626350404,22.491533465343622L246.42646626377106,64.35295612105877L246.50130726385117,144.45325460783238L246.60109526395797,140.4188885648759L247.02519426441194,140.98576544604055L247.07508826446534,141.832491655662L247.14992926454545,125.5310498130472L247.6738162651062,155.0065853829654L247.7237102651596,142.01790847823054L247.84844526529312,127.72857938024708L248.12286226558683,-120.93768442104317L248.32243826580049,7.138572433585068L248.42222626590728,115.2197282045166L248.84632526636125,134.56772068585389L248.99600726652145,158.04032180204814L249.2454772667885,95.33912021036728L249.2953712668419,68.09519898012817L249.44505326700212,147.04055455830328L249.5697882671356,153.58947307568272L249.69452326726912,153.64454445458966L249.76936426734926,92.66411785517448L250.1435692677498,154.38549887537803L250.16851626777648,56.105170560377246L250.84208526849747,152.4340596378455L251.0416612687111,158.2786828275702L251.29113126897812,131.93832310940797L251.56554826927186,152.389627054746L252.0894352698326,158.12431569342795L252.51353427028656,155.93025580028473L252.53848127031327,145.70596971856997L253.33678527116774,112.09707447333312L253.36173227119448,50.880932772928034L253.51141427135468,158.23522137065885L254.8086582727432,142.99832867229895L254.85855227279666,114.14397807911958L255.03318127298354,-57.148202983520605L255.10802227306365,146.30355600300692L255.2826512732506,146.52797014736848L255.95622027397155,150.6695307699513L256.4801072745323,144.15696387925945L256.72957727479934,76.30737054830465L257.1287292752266,75.03512552598173L257.17862327528,83.49399121071838L257.2285172753334,46.7720497573755L257.3532522754669,55.51070462773396L258.1515562763214,30.582589156492304L258.2762912764549,30.047086787599085L258.55070827674865,-80.23029663504474L258.57565527677536,141.87213993519885L258.6006022768021,139.5316862272826L258.67544327688216,128.0756766531609L259.0745952773094,72.54875940393822L259.7481642780304,130.35654060428004L259.8230052781105,136.85222622667027L260.3219452786446,101.09136491848578L260.47162727880476,125.28549958962378L260.4965742788315,73.97099829827114L261.14519627952575,155.0784988194041L261.3198252797127,158.03394868840797L261.4944542798996,153.03121961571654L262.3177052807808,154.04742420698926L262.39254628086087,136.43065797274008L262.86653928136826,14.700097585577169L262.891486281395,157.995452262089L263.1160092816353,147.41775273051152L263.29063828182217,91.03796408905335L263.3654792819023,106.15133965149744L263.54010828208925,62.20912585063736L263.61494928216933,93.03205049297503L264.08894228267667,107.45040130261387L264.1637832827568,22.553883896195515L264.43820028305055,156.92612267914873L264.7126172833443,132.67716958279226L264.9620872836113,157.72904190908207L265.0119812836647,109.40163770548709L265.0369282836914,149.45755889212938L265.1117692837715,107.81643295511913L265.7104972844124,150.96122293018738L265.8352322845459,157.92291970823092L265.8601792845726,146.17049174942082L265.9599672846794,152.34615439846434L266.4339602851868,155.48365839799607L266.45890728521346,147.98146444757404L266.6834302854538,118.34332063563497L266.8830062856674,158.22791639777847L267.1823702859878,158.01475166299227L268.1054092869758,124.96001364209565L268.18025028705597,107.07987898509343L268.4047732872963,101.7105342257978L268.429720287323,111.07122167412399L268.5794022874832,155.14248077206494L268.6292962875366,109.0723285604854L268.85381928777696,-30.087059366736582L269.72696428871154,139.28727282136825L269.85169928884505,146.48642088253635L270.42548028945924,142.2819390618045L270.50032128953933,153.8883027753107L270.57516228961947,147.76257990622096L270.7996852898598,128.17293823083796L271.4982012906075,137.08914182581813L272.09692929124833,158.06645154217622L272.34639929151535,151.84453308293757L273.718484292984,-17.342231291793127L273.86816629314427,95.9505582152004L273.96795429325107,146.8401822174252L274.04279529333115,136.07001323141904L274.3172122936249,65.00831018817294L274.392053293705,101.67066070544743" fill="none"></path></g></g></g></g></g></g><g transform="translate(30, 178)" clip-path="url(#clip_1)"><clipPath id="clip_1"><rect width="299" height="21"></rect></clipPath><g><g><line x1="0" y1="0" x2="0" y2="5" style="visibility: inherit;" fill="rgb(0, 0, 0)" stroke="rgb(204, 204, 204)" stroke-width="1px"></line><line x1="24.94700002670288" y1="0" x2="24.94700002670288" y2="5" style="visibility: inherit;" fill="rgb(0, 0, 0)" stroke="rgb(204, 204, 204)" stroke-width="1px"></line><line x1="49.89400005340576" y1="0" x2="49.89400005340576" y2="5" style="visibility: inherit;" fill="rgb(0, 0, 0)" stroke="rgb(204, 204, 204)" stroke-width="1px"></line><line x1="74.84100008010864" y1="0" x2="74.84100008010864" y2="5" style="visibility: inherit;" fill="rgb(0, 0, 0)" stroke="rgb(204, 204, 204)" stroke-width="1px"></line><line x1="99.78800010681152" y1="0" x2="99.78800010681152" y2="5" style="visibility: inherit;" fill="rgb(0, 0, 0)" stroke="rgb(204, 204, 204)" stroke-width="1px"></line><line x1="124.7350001335144" y1="0" x2="124.7350001335144" y2="5" style="visibility: inherit;" fill="rgb(0, 0, 0)" stroke="rgb(204, 204, 204)" stroke-width="1px"></line><line x1="149.68200016021729" y1="0" x2="149.68200016021729" y2="5" style="visibility: inherit;" fill="rgb(0, 0, 0)" stroke="rgb(204, 204, 204)" stroke-width="1px"></line><line x1="174.62900018692017" y1="0" x2="174.62900018692017" y2="5" style="visibility: inherit;" fill="rgb(0, 0, 0)" stroke="rgb(204, 204, 204)" stroke-width="1px"></line><line x1="199.57600021362305" y1="0" x2="199.57600021362305" y2="5" style="visibility: inherit;" fill="rgb(0, 0, 0)" stroke="rgb(204, 204, 204)" stroke-width="1px"></line><line x1="224.52300024032593" y1="0" x2="224.52300024032593" y2="5" style="visibility: inherit;" fill="rgb(0, 0, 0)" stroke="rgb(204, 204, 204)" stroke-width="1px"></line><line x1="249.4700002670288" y1="0" x2="249.4700002670288" y2="5" style="visibility: inherit;" fill="rgb(0, 0, 0)" stroke="rgb(204, 204, 204)" stroke-width="1px"></line><line x1="274.4170002937317" y1="0" x2="274.4170002937317" y2="5" style="visibility: inherit;" fill="rgb(0, 0, 0)" stroke="rgb(204, 204, 204)" stroke-width="1px"></line><line x1="299.36400032043457" y1="0" x2="299.36400032043457" y2="5" style="visibility: inherit;" fill="rgb(0, 0, 0)" stroke="rgb(204, 204, 204)" stroke-width="1px"></line></g><g transform="translate(0, 8)"><text style="text-anchor: middle; visibility: hidden; font-family: &quot;Helvetica Neue&quot;, sans-serif; font-size: 12px; font-weight: 200;" x="0" y="0" dx="0em" dy="0.95em" fill="rgb(50, 49, 63)" stroke="none" stroke-width="1px">-1k</text><text style="text-anchor: middle; visibility: inherit; font-family: &quot;Helvetica Neue&quot;, sans-serif; font-size: 12px; font-weight: 200;" x="24.94700002670288" y="0" dx="0em" dy="0.95em" fill="rgb(50, 49, 63)" stroke="none" stroke-width="1px">0</text><text style="text-anchor: middle; visibility: hidden; font-family: &quot;Helvetica Neue&quot;, sans-serif; font-size: 12px; font-weight: 200;" x="49.89400005340576" y="0" dx="0em" dy="0.95em" fill="rgb(50, 49, 63)" stroke="none" stroke-width="1px">1k</text><text style="text-anchor: middle; visibility: inherit; font-family: &quot;Helvetica Neue&quot;, sans-serif; font-size: 12px; font-weight: 200;" x="74.84100008010864" y="0" dx="0em" dy="0.95em" fill="rgb(50, 49, 63)" stroke="none" stroke-width="1px">2k</text><text style="text-anchor: middle; visibility: hidden; font-family: &quot;Helvetica Neue&quot;, sans-serif; font-size: 12px; font-weight: 200;" x="99.78800010681152" y="0" dx="0em" dy="0.95em" fill="rgb(50, 49, 63)" stroke="none" stroke-width="1px">3k</text><text style="text-anchor: middle; visibility: inherit; font-family: &quot;Helvetica Neue&quot;, sans-serif; font-size: 12px; font-weight: 200;" x="124.7350001335144" y="0" dx="0em" dy="0.95em" fill="rgb(50, 49, 63)" stroke="none" stroke-width="1px">4k</text><text style="text-anchor: middle; visibility: hidden; font-family: &quot;Helvetica Neue&quot;, sans-serif; font-size: 12px; font-weight: 200;" x="149.68200016021729" y="0" dx="0em" dy="0.95em" fill="rgb(50, 49, 63)" stroke="none" stroke-width="1px">5k</text><text style="text-anchor: middle; visibility: inherit; font-family: &quot;Helvetica Neue&quot;, sans-serif; font-size: 12px; font-weight: 200;" x="174.62900018692017" y="0" dx="0em" dy="0.95em" fill="rgb(50, 49, 63)" stroke="none" stroke-width="1px">6k</text><text style="text-anchor: middle; visibility: hidden; font-family: &quot;Helvetica Neue&quot;, sans-serif; font-size: 12px; font-weight: 200;" x="199.57600021362305" y="0" dx="0em" dy="0.95em" fill="rgb(50, 49, 63)" stroke="none" stroke-width="1px">7k</text><text style="text-anchor: middle; visibility: inherit; font-family: &quot;Helvetica Neue&quot;, sans-serif; font-size: 12px; font-weight: 200;" x="224.52300024032593" y="0" dx="0em" dy="0.95em" fill="rgb(50, 49, 63)" stroke="none" stroke-width="1px">8k</text><text style="text-anchor: middle; visibility: hidden; font-family: &quot;Helvetica Neue&quot;, sans-serif; font-size: 12px; font-weight: 200;" x="249.4700002670288" y="0" dx="0em" dy="0.95em" fill="rgb(50, 49, 63)" stroke="none" stroke-width="1px">9k</text><text style="text-anchor: middle; visibility: inherit; font-family: &quot;Helvetica Neue&quot;, sans-serif; font-size: 12px; font-weight: 200;" x="274.4170002937317" y="0" dx="0em" dy="0.95em" fill="rgb(50, 49, 63)" stroke="none" stroke-width="1px">10k</text><text style="text-anchor: middle; visibility: hidden; font-family: &quot;Helvetica Neue&quot;, sans-serif; font-size: 12px; font-weight: 200;" x="299.36400032043457" y="0" dx="0em" dy="0.95em" fill="rgb(50, 49, 63)" stroke="none" stroke-width="1px">11k</text></g><line x1="0" y1="0" x2="299.36400032043457" y2="0" fill="rgb(0, 0, 0)" stroke="rgb(204, 204, 204)" stroke-width="1px"></line></g></g></g></g></svg>