<svg viewBox="0 0 330 200" xmlns="http://www.w3.org/2000/svg"><g><g><g><g><g><line x1="61.589999198913574" y1="178.0640001296997" x2="56.589999198913574" y2="178.0640001296997" style="visibility: inherit;" fill="rgb(0, 0, 0)" stroke="rgb(204, 204, 204)" stroke-width="1px"></line><line x1="61.589999198913574" y1="164.36676935049204" x2="56.589999198913574" y2="164.36676935049204" style="visibility: inherit;" fill="rgb(0, 0, 0)" stroke="rgb(204, 204, 204)" stroke-width="1px"></line><line x1="61.589999198913574" y1="150.66953857128436" x2="56.589999198913574" y2="150.66953857128436" style="visibility: inherit;" fill="rgb(0, 0, 0)" stroke="rgb(204, 204, 204)" stroke-width="1px"></line><line x1="61.589999198913574" y1="136.9723077920767" x2="56.589999198913574" y2="136.9723077920767" style="visibility: inherit;" fill="rgb(0, 0, 0)" stroke="rgb(204, 204, 204)" stroke-width="1px"></line><line x1="61.589999198913574" y1="123.27507701286902" x2="56.589999198913574" y2="123.27507701286902" style="visibility: inherit;" fill="rgb(0, 0, 0)" stroke="rgb(204, 204, 204)" stroke-width="1px"></line><line x1="61.589999198913574" y1="109.57784623366136" x2="56.589999198913574" y2="109.57784623366136" style="visibility: inherit;" fill="rgb(0, 0, 0)" stroke="rgb(204, 204, 204)" stroke-width="1px"></line><line x1="61.589999198913574" y1="95.88061545445369" x2="56.589999198913574" y2="95.88061545445369" style="visibility: inherit;" fill="rgb(0, 0, 0)" stroke="rgb(204, 204, 204)" stroke-width="1px"></line><line x1="61.589999198913574" y1="82.18338467524602" x2="56.589999198913574" y2="82.18338467524602" style="visibility: inherit;" fill="rgb(0, 0, 0)" stroke="rgb(204, 204, 204)" stroke-width="1px"></line><line x1="61.589999198913574" y1="68.48615389603836" x2="56.589999198913574" y2="68.48615389603836" style="visibility: inherit;" fill="rgb(0, 0, 0)" stroke="rgb(204, 204, 204)" stroke-width="1px"></line><line x1="61.589999198913574" y1="54.78892311683069" x2="56.589999198913574" y2="54.78892311683069" style="visibility: inherit;" fill="rgb(0, 0, 0)" stroke="rgb(204, 204, 204)" stroke-width="1px"></line><line x1="61.589999198913574" y1="41.091692337623016" x2="56.589999198913574" y2="41.091692337623016" style="visibility: inherit;" fill="rgb(0, 0, 0)" stroke="rgb(204, 204, 204)" stroke-width="1px"></line><line x1="61.589999198913574" y1="27.394461558415344" x2="56.589999198913574" y2="27.394461558415344" style="visibility: inherit;" fill="rgb(0, 0, 0)" stroke="rgb(204, 204, 204)" stroke-width="1px"></line><line x1="61.589999198913574" y1="13.697230779207672" x2="56.589999198913574" y2="13.697230779207672" style="visibility: inherit;" fill="rgb(0, 0, 0)" stroke="rgb(204, 204, 204)" stroke-width="1px"></line><line x1="61.589999198913574" y1="0" x2="56.589999198913574" y2="0" style="visibility: inherit;" fill="rgb(0, 0, 0)" stroke="rgb(204, 204, 204)" stroke-width="1px"></line></g><g transform="translate(51.589999198913574, 0)"><text style="text-anchor: end; visibility: hidden; font-family: &quot;Helvetica Neue&quot;, sans-serif; font-size: 12px; font-weight: 200;" x="0" y="178.0640001296997" dx="0em" dy="0.3em" fill="rgb(50, 49, 63)" stroke="none" stroke-width="1px">-0.05</text><text style="text-anchor: end; visibility: inherit; font-family: &quot;Helvetica Neue&quot;, sans-serif; font-size: 12px; font-weight: 200;" x="0" y="164.36676935049204" dx="0em" dy="0.3em" fill="rgb(50, 49, 63)" stroke="none" stroke-width="1px">0</text><text style="text-anchor: end; visibility: hidden; font-family: &quot;Helvetica Neue&quot;, sans-serif; font-size: 12px; font-weight: 200;" x="0" y="150.66953857128436" dx="0em" dy="0.3em" fill="rgb(50, 49, 63)" stroke="none" stroke-width="1px">0.05</text><text style="text-anchor: end; visibility: inherit; font-family: &quot;Helvetica Neue&quot;, sans-serif; font-size: 12px; font-weight: 200;" x="0" y="136.9723077920767" dx="0em" dy="0.3em" fill="rgb(50, 49, 63)" stroke="none" stroke-width="1px">0.1</text><text style="text-anchor: end; visibility: hidden; font-family: &quot;Helvetica Neue&quot;, sans-serif; font-size: 12px; font-weight: 200;" x="0" y="123.27507701286902" dx="0em" dy="0.3em" fill="rgb(50, 49, 63)" stroke="none" stroke-width="1px">0.15</text><text style="text-anchor: end; visibility: inherit; font-family: &quot;Helvetica Neue&quot;, sans-serif; font-size: 12px; font-weight: 200;" x="0" y="109.57784623366136" dx="0em" dy="0.3em" fill="rgb(50, 49, 63)" stroke="none" stroke-width="1px">0.2</text><text style="text-anchor: end; visibility: hidden; font-family: &quot;Helvetica Neue&quot;, sans-serif; font-size: 12px; font-weight: 200;" x="0" y="95.88061545445369" dx="0em" dy="0.3em" fill="rgb(50, 49, 63)" stroke="none" stroke-width="1px">0.25</text><text style="text-anchor: end; visibility: inherit; font-family: &quot;Helvetica Neue&quot;, sans-serif; font-size: 12px; font-weight: 200;" x="0" y="82.18338467524602" dx="0em" dy="0.3em" fill="rgb(50, 49, 63)" stroke="none" stroke-width="1px">0.3</text><text style="text-anchor: end; visibility: hidden; font-family: &quot;Helvetica Neue&quot;, sans-serif; font-size: 12px; font-weight: 200;" x="0" y="68.48615389603836" dx="0em" dy="0.3em" fill="rgb(50, 49, 63)" stroke="none" stroke-width="1px">0.35</text><text style="text-anchor: end; visibility: inherit; font-family: &quot;Helvetica Neue&quot;, sans-serif; font-size: 12px; font-weight: 200;" x="0" y="54.78892311683069" dx="0em" dy="0.3em" fill="rgb(50, 49, 63)" stroke="none" stroke-width="1px">0.4</text><text style="text-anchor: end; visibility: hidden; font-family: &quot;Helvetica Neue&quot;, sans-serif; font-size: 12px; font-weight: 200;" x="0" y="41.091692337623016" dx="0em" dy="0.3em" fill="rgb(50, 49, 63)" stroke="none" stroke-width="1px">0.45</text><text style="text-anchor: end; visibility: inherit; font-family: &quot;Helvetica Neue&quot;, sans-serif; font-size: 12px; font-weight: 200;" x="0" y="27.394461558415344" dx="0em" dy="0.3em" fill="rgb(50, 49, 63)" stroke="none" stroke-width="1px">0.5</text><text style="text-anchor: end; visibility: hidden; font-family: &quot;Helvetica Neue&quot;, sans-serif; font-size: 12px; font-weight: 200;" x="0" y="13.697230779207672" dx="0em" dy="0.3em" fill="rgb(50, 49, 63)" stroke="none" stroke-width="1px">0.55</text><text style="text-anchor: end; visibility: hidden; font-family: &quot;Helvetica Neue&quot;, sans-serif; font-size: 12px; font-weight: 200;" x="0" y="0" dx="0em" dy="0.3em" fill="rgb(50, 49, 63)" stroke="none" stroke-width="1px">0.6</text></g><line x1="61.589999198913574" y1="0" x2="61.589999198913574" y2="178.0640001296997" fill="rgb(0, 0, 0)" stroke="rgb(204, 204, 204)" stroke-width="1px"></line></g></g><g transform="translate(61, 0)" clip-path="url(#clip_0)"><clipPath id="clip_0"><rect width="268" height="178"></rect></clipPath><g><g><g><line x1="0" y1="0" x2="0" y2="178.0640001296997" fill="rgb(0, 0, 0)" stroke="rgb(60, 60, 60)" stroke-width="1px" opacity="0.25"></line><line x1="22.367500066757202" y1="0" x2="22.367500066757202" y2="178.0640001296997" fill="rgb(0, 0, 0)" stroke="rgb(60, 60, 60)" stroke-width="1px" opacity="0.25"></line><line x1="44.735000133514404" y1="0" x2="44.735000133514404" y2="178.0640001296997" fill="rgb(0, 0, 0)" stroke="rgb(60, 60, 60)" stroke-width="1px" opacity="0.25"></line><line x1="67.1025002002716" y1="0" x2="67.1025002002716" y2="178.0640001296997" fill="rgb(0, 0, 0)" stroke="rgb(60, 60, 60)" stroke-width="1px" opacity="0.25"></line><line x1="89.47000026702881" y1="0" x2="89.47000026702881" y2="178.0640001296997" fill="rgb(0, 0, 0)" stroke="rgb(60, 60, 60)" stroke-width="1px" opacity="0.25"></line><line x1="111.83750033378601" y1="0" x2="111.83750033378601" y2="178.0640001296997" fill="rgb(0, 0, 0)" stroke="rgb(60, 60, 60)" stroke-width="1px" opacity="0.25"></line><line x1="134.2050004005432" y1="0" x2="134.2050004005432" y2="178.0640001296997" fill="rgb(0, 0, 0)" stroke="rgb(60, 60, 60)" stroke-width="1px" opacity="0.25"></line><line x1="156.57250046730042" y1="0" x2="156.57250046730042" y2="178.0640001296997" fill="rgb(0, 0, 0)" stroke="rgb(60, 60, 60)" stroke-width="1px" opacity="0.25"></line><line x1="178.94000053405762" y1="0" x2="178.94000053405762" y2="178.0640001296997" fill="rgb(0, 0, 0)" stroke="rgb(60, 60, 60)" stroke-width="1px" opacity="0.25"></line><line x1="201.30750060081482" y1="0" x2="201.30750060081482" y2="178.0640001296997" fill="rgb(0, 0, 0)" stroke="rgb(60, 60, 60)" stroke-width="1px" opacity="0.25"></line><line x1="223.67500066757202" y1="0" x2="223.67500066757202" y2="178.0640001296997" fill="rgb(0, 0, 0)" stroke="rgb(60, 60, 60)" stroke-width="1px" opacity="0.25"></line><line x1="246.04250073432922" y1="0" x2="246.04250073432922" y2="178.0640001296997" fill="rgb(0, 0, 0)" stroke="rgb(60, 60, 60)" stroke-width="1px" opacity="0.25"></line><line x1="268.4100008010864" y1="0" x2="268.4100008010864" y2="178.0640001296997" fill="rgb(0, 0, 0)" stroke="rgb(60, 60, 60)" stroke-width="1px" opacity="0.25"></line></g><g><line x1="0" y1="178.0640001296997" x2="268.4100008010864" y2="178.0640001296997" fill="rgb(0, 0, 0)" stroke="rgb(60, 60, 60)" stroke-width="1px" opacity="0.25"></line><line x1="0" y1="164.36676935049204" x2="268.4100008010864" y2="164.36676935049204" fill="rgb(0, 0, 0)" stroke="rgb(60, 60, 60)" stroke-width="1px" opacity="0.25"></line><line x1="0" y1="150.66953857128436" x2="268.4100008010864" y2="150.66953857128436" fill="rgb(0, 0, 0)" stroke="rgb(60, 60, 60)" stroke-width="1px" opacity="0.25"></line><line x1="0" y1="136.9723077920767" x2="268.4100008010864" y2="136.9723077920767" fill="rgb(0, 0, 0)" stroke="rgb(60, 60, 60)" stroke-width="1px" opacity="0.25"></line><line x1="0" y1="123.27507701286902" x2="268.4100008010864" y2="123.27507701286902" fill="rgb(0, 0, 0)" stroke="rgb(60, 60, 60)" stroke-width="1px" opacity="0.25"></line><line x1="0" y1="109.57784623366136" x2="268.4100008010864" y2="109.57784623366136" fill="rgb(0, 0, 0)" stroke="rgb(60, 60, 60)" stroke-width="1px" opacity="0.25"></line><line x1="0" y1="95.88061545445369" x2="268.4100008010864" y2="95.88061545445369" fill="rgb(0, 0, 0)" stroke="rgb(60, 60, 60)" stroke-width="1px" opacity="0.25"></line><line x1="0" y1="82.18338467524602" x2="268.4100008010864" y2="82.18338467524602" fill="rgb(0, 0, 0)" stroke="rgb(60, 60, 60)" stroke-width="1px" opacity="0.25"></line><line x1="0" y1="68.48615389603836" x2="268.4100008010864" y2="68.48615389603836" fill="rgb(0, 0, 0)" stroke="rgb(60, 60, 60)" stroke-width="1px" opacity="0.25"></line><line x1="0" y1="54.78892311683069" x2="268.4100008010864" y2="54.78892311683069" fill="rgb(0, 0, 0)" stroke="rgb(60, 60, 60)" stroke-width="1px" opacity="0.25"></line><line x1="0" y1="41.091692337623016" x2="268.4100008010864" y2="41.091692337623016" fill="rgb(0, 0, 0)" stroke="rgb(60, 60, 60)" stroke-width="1px" opacity="0.25"></line><line x1="0" y1="27.394461558415344" x2="268.4100008010864" y2="27.394461558415344" fill="rgb(0, 0, 0)" stroke="rgb(60, 60, 60)" stroke-width="1px" opacity="0.25"></line><line x1="0" y1="13.697230779207672" x2="268.4100008010864" y2="13.697230779207672" fill="rgb(0, 0, 0)" stroke="rgb(60, 60, 60)" stroke-width="1px" opacity="0.25"></line><line x1="0" y1="0" x2="268.4100008010864" y2="0" fill="rgb(0, 0, 0)" stroke="rgb(60, 60, 60)" stroke-width="1px" opacity="0.25"></line></g></g></g><g><g><line x1="0" y1="164.36676935049204" x2="268.4100008010864" y2="164.36676935049204" fill="rgb(0, 0, 0)" stroke="rgb(153, 153, 153)" stroke-width="1.5px"></line></g></g><g><g><line x1="22.367500066757202" y1="0" x2="22.367500066757202" y2="178.0640001296997" fill="rgb(0, 0, 0)" stroke="rgb(153, 153, 153)" stroke-width="1.5px"></line></g></g><g><g><g><g><g><path style="fill: none;" stroke="rgb(255, 112, 67)" stroke-width="2px" d="M22.77011506795883,146.4638060426522L22.904320068359375,142.1340844842701L23.26220006942749,148.11687256622588L23.306935069561003,148.45505756922535L23.374037569761278,119.27657759085122L23.620080070495604,134.81805016223052L23.95559257149696,141.38319913388952L24.022695071697235,138.8449309107751L24.470045073032377,142.8599405829125L24.738455073833464,139.9112745653436L25.18580507516861,147.10822103310045L25.83446257710457,121.93444696904824L25.90156507730484,135.76104623289007L26.102872577905657,141.4039688946029L26.460752578973768,148.50980901158186L26.505487579107285,143.0348290679348L27.489657582044604,120.9152073203326L27.60149508237839,137.6337928424185L27.937007583379746,136.51542609890973L28.071212583780287,143.85571349940605L28.183050084114075,118.78330849055229L28.339622584581374,117.32856667007616L28.47382758498192,126.39208355484915L29.25669008731842,-46.011469768321774L29.301425087451932,23.682209532476833L29.480365087985994,43.50726246847793L29.950082589387897,83.5225223001493L30.129022589921952,97.43497032861995L30.576372591257094,117.72574213741404L31.784217594861985,113.07468998664542L31.80658509492874,109.79820369730851L32.18683259606362,117.19497014120549L32.25393509626389,100.68108116673795L32.32103759646416,80.83306738582304L32.65655009746552,27.08154624282409L32.72365259766579,70.27908560030885L32.74602009773254,-2.218839150247561L32.969695098400116,47.11930913655689L33.394677599668505,84.08828071712382L33.86439510107041,100.56354926788785L34.244642602205275,49.817783275421306L34.35648010253907,-100.5399201301334L35.18407760500908,-53.54943703689443L35.31828260540962,28.869248211239466L35.47485510587692,52.927536104459406L35.49722260594368,-10.755689359583158L36.23535010814667,52.61195024779566L36.28008510828018,-17.46618750563897L36.548495109081266,51.332367151054456L36.70506760954857,77.99834386167653L36.72743510961533,67.48687731422892L36.77217010974884,101.06340084591223L36.83927260994911,124.6236974590739L36.88400761008263,86.21375210584876L37.15241761088371,92.47937687854487L37.376092611551286,108.01345475198266L38.33789511442185,18.198995045762302L38.516835114955896,64.35064283259406L38.69577511548996,57.03682949484508L38.89708261609078,85.4750620005915L39.18786011695862,101.24680287093135L39.27733011722565,77.22944091965013L39.478637617826465,101.89512394733318L39.56810761809349,84.49935300527092L39.612842618227006,106.97111251723874L39.65757761836052,114.99512990621065L39.814150118827826,121.88142453951181L39.9259876191616,88.07024601653976L39.970722619295124,115.86670151119067L40.08256011962891,68.43252915822754L40.12729511976242,92.86033621770038L40.21676512002945,52.152264252907855L40.30623512029648,87.69376137088085L40.44044012069702,59.125363568015814L40.462807620763776,-21.425566907584994L40.9772601222992,22.36805695904721L41.06673012256622,71.09459747271795L41.80485762476921,107.52493125796597L41.96143012523651,112.85266050936029L42.09563512563705,77.61038806697672L42.408780126571656,96.40946759636924L42.498250126838684,120.16068385092693L42.65482262730599,108.91603308957943L42.699557627439496,71.4246335772325L42.87849762797356,58.35450377424404L43.19164262890816,56.53155347850493L43.21401012897491,97.60852076141532L43.43768512964249,123.83334936569302L43.50478762984276,131.84291326541134L43.70609513044357,135.70357770909953L43.885035130977634,143.7998061662082L44.08634263157845,127.35691218003865L44.1087101316452,137.0767259366747L44.242915132045745,129.1055069849682L44.2652826321125,131.96617122063753L44.37712013244629,113.69909883308287L44.77973513364792,77.23940585629018L44.84683763384819,64.1749932783961L45.04814513444901,42.41737566748168L45.71917013645172,78.75356043566988L46.00994763731956,107.18256581573597L46.144152637720104,109.91815478676266L46.211255137920375,69.14155855220054L46.255990138053896,89.53635971257684L46.345460138320924,103.5559458837809L46.479665138721465,120.79193407826533L46.59150263905526,124.75701625978809L46.815177639722826,113.8546792235081L46.94938264012337,127.90022821296577L47.06122014045715,134.167736962009L47.28489514112473,140.69178479823393L48.224330143928526,148.3590294558287L48.313800144195554,74.73283175752003L48.33616764426232,91.47700012349748L48.358535144329075,105.87462026692445L48.7611501455307,127.9915419245444L49.051927646398546,58.18169589276998L49.342705147266386,87.06793540663004L49.92426014900207,108.49398806108994L50.19267014980316,128.5577133266517L50.4387126505375,101.45540163395933L50.50581515073777,93.69951231782112L50.57291765093804,119.79184833395644L51.020267652273176,136.6984375352214L51.15447265267372,79.55087633534691L51.31104515314102,61.64173727638419L51.445250153541565,83.409370852504L51.80313015460968,34.749893800691694L51.87023265480995,33.37691332735079L52.11627515554428,71.59364572029907L52.18337765574455,24.019806635540107L52.25048015594482,73.68068057470997L52.272847656011585,-16.33248015611477L53.34648765921593,15.060892502935076L53.4135901594162,65.54684681321082L53.48069265961647,79.16412318493808L53.50306015968323,109.62350313301405L53.99514516115188,121.91845519785105L54.26355516195297,-131.20681975475065L54.48723016262055,-38.77900323421866L54.576700162887576,35.47168064630168L55.135887664556506,-17.17143249927514L55.158255164623256,-23.514265057049045L55.40429766535759,21.295482108947823L55.58323766589165,54.24369225665774L55.67270766615868,37.68801039546426L55.71744266629219,67.87803424911696L56.43320266842842,95.26588104739375L56.522672668695456,85.118785944498L57.08186017036438,93.49414157534477L57.4397401714325,111.94927722890787L57.46210767149925,83.86508192368203L57.79762017250061,82.89719455834037L57.88709017276764,99.4022251511884L58.24497017383575,119.85163987211541L58.26733767390251,123.28502473446268L58.75942267537117,130.6729567364702L58.871260175704954,139.6276510542885L58.983097676038746,136.22036919063768L59.05020017623902,135.5821610543563L59.1620376765728,123.7487027714142L59.22914017677307,119.64170810364669L59.49755017757416,31.66849944609862L59.67649017810821,68.74649318897707L59.833062678575516,24.614429445018715L59.989635179042814,65.83278598713422L60.19094267964363,-10.106707399165032L60.28041267991066,-10.16951521772981L60.325147680044175,58.20778300405094L60.36988268017768,71.40465592290475L60.43698518037796,64.56297358829667L60.593557680845265,79.33245131229802L60.79486518144608,96.71066546112432L61.01854018211365,76.43739316685027L61.108010182380674,98.3064879583974L61.15274518251419,22.025966730005337L61.21984768271446,63.87870314813138L61.33168518304825,97.5563368656361L61.39878768324852,110.94630939676799L61.42115518331528,127.12666890245495L61.868505184650424,136.0738588065519L62.069812685251236,103.70886720476908L62.204017685651785,42.05915189832626L62.36059018611908,14.701794817846547L62.38295768618583,-153.44752545996482L62.58426518678665,-27.78568839247285L62.74083768725396,39.3752166119684L63.21055518865585,76.74541336695604L63.30002518892288,84.06650972195511L63.52370018959046,105.2448746773931L63.61317018985748,88.10910300231953L63.8144776904583,61.05669125341713L64.10525519132614,81.2077999115115L64.17235769152641,110.32106589536619L64.30656269192696,97.35656509168795L64.35129769206047,64.52128295406767L65.11179269433022,37.15436125854441L65.24599769473076,84.56161894362361L65.62624519586564,54.49734699065014L65.8499201965332,87.99555579296819L65.91702269673347,89.63340872192764L65.96175769686698,-37.945328854510336L66.36437269806862,-16.973188331388172L66.67751769900322,33.12538021194632L66.72225269913673,63.79984948657686L67.12486770033836,84.51274720185307L67.2143377006054,106.452970529274L67.39327770113945,94.70206699149834L67.77352520227433,71.82188714790527L67.90773020267487,97.38582052045145L68.44455020427704,108.66283776347531L68.73532770514488,120.77588847199166L68.80243020534516,114.97380863897186L68.82479770541191,126.03732380526212L68.86953270554542,80.78624568884916L68.91426770567894,104.30791169989348L69.00373770594597,100.04731248947003L69.09320770621301,93.8286037373381L69.2497802066803,121.06280651872905L69.58529270768165,88.03815716581619L70.3457877099514,104.52445938325354L70.43525771021844,113.7417663050016L70.59183021068573,118.48859762920443L70.79313771128655,134.1161716928338L71.06154771208763,132.1103044916316L71.2852227127552,125.96136294242058L71.32995771288871,103.46884791037418L71.37469271302224,124.84560453004778L71.486530213356,136.48934255252277L71.5536327135563,109.16544820444727L71.73257271409034,118.2237640271428L71.82204271435738,126.29677991583844L72.26939271569252,106.02992986007153L72.38123021602631,121.13891378148669L72.40359771609306,77.90224588058477L72.44833271622659,104.29315176965106L72.51543521642685,120.1202438507568L72.60490521669388,-197.06731953312004L72.78384521722793,-9.90820198919539L72.8509477174282,43.360790104233814L72.96278521776199,60.19171381146032L73.38776771903038,83.69560631472085L73.61144271969795,18.838476529836186L73.74564772009849,54.218148560021504L73.87985272049903,89.06489862943923L73.96932272076607,107.3075208193788L74.23773272156716,99.44629137411825L74.2601002216339,118.41319281944581L74.81928772330284,95.0365212682108L75.02059522390367,104.04723145321562L75.80345772624015,110.92062295233795L75.8258252263069,123.17941579428762L75.87056022644043,129.5674183658418L76.85473022937775,104.20240320036318L77.03367022991179,121.5424109812786L77.19024273037911,132.5722164077285L77.23497773051263,128.53184293195432L77.27971273064612,126.62489675709914L77.39155023097992,139.22387643667963L77.95073773264885,140.24720368461254L77.9731052327156,135.4818784576638L78.19678023338318,137.8644726568955L78.2415152335167,135.0365908184011L78.35335273385047,133.3535734652716L78.66649773478507,138.02009362459495L78.80070273518561,146.89537189157264L79.00201023578644,142.5504139319035L79.33752273678779,145.94750953437725L79.42699273705482,68.50228171381882L79.47172773718833,102.49281758605377L80.03091523885728,115.04137946335311L80.29932523965836,111.8344645567046L80.52300024032593,95.38597444084839L80.65720524072647,114.2979235613934L81.03745274186134,130.14978008330934L81.17165774226189,132.93859039847712L81.19402524232864,139.94183790445098L81.50717024326323,55.6230313287348L81.64137524366379,90.93994791885805L81.75321274399757,107.31266086951517L82.26766524553298,129.04353761358914L82.42423774600029,137.42784424171236L82.53607524633408,141.37788394724714L82.82685274720191,124.43384292381248L82.98342524766922,131.81765327898296L83.31893774867058,120.98682627571975L83.58734774947166,134.35295454254586L83.65445024967192,109.41170931096524L83.96759525060654,127.7044827006425L84.75045775294303,138.17692142856174L84.7728252530098,146.7708000433476L84.79519275307656,121.55684627742338L85.19780775427819,136.6854499335702L85.53332025527953,9.001749602444335L86.60696025848388,59.06689507696328L86.8082677590847,87.01884746277561L87.00957525968552,92.35728341802478L87.14378026008606,107.88363148186099L87.61349776148796,125.38497500770191L87.65823276162148,137.04917595974607L87.68060026168823,142.96414702285878L88.73187276482582,149.6144544112814L88.91081276535988,141.61409231628502L89.4252652668953,93.97328840555105L89.6265727674961,120.49304074510059L89.71604276776314,112.28957814411079L89.80551276803017,129.31229059403447L90.07392276883125,141.59461210832484L90.14102526903152,144.42802464333036L90.31996526956559,129.58080741449137L90.38706776976585,107.56853930927086L90.92388777136803,107.81604720717135L91.01335777163506,121.57664333044389L91.05809277176857,114.89273702234308L91.68438277363778,-366.62148869185216L92.53434777617454,-40.930937929971975L92.7132877767086,40.19496249896338L92.82512527704239,83.27898695136307L92.93696277737618,90.88162842011344L93.07116777777672,113.78393616702627L93.42904777884483,110.2061727153875L93.83166278004647,128.9291085375628L93.85403028011322,136.72022700360407L94.01060278058053,123.94619129514754L94.07770528078079,36.462351304138L94.61452528238296,84.4424224660319L94.68162778258323,107.85102704370813L94.83820028305054,94.83509071369876L94.90530278325082,106.2409573358913L94.92767028331757,125.21396276676904L94.97240528345108,112.97304988241606L94.99477278351783,47.56844126186476L95.55396028518676,91.44546225460986L95.75526778578758,118.10247255310378L96.29208778738976,111.49029984733745L96.47102778792382,119.57258328580666L96.78417278885841,135.84281646620875L96.80654028892518,142.14657953251327L97.18678779006004,118.2636759069675L97.835445291996,126.56857212905783L97.88018029212951,136.53488271646998L98.10385529279709,146.45183887036097L98.48410279393197,140.46185926708293L98.59594029426574,147.90862238019474L99.0880252957344,134.06589504333522L99.26696529626847,139.71572016644436L99.5130077970028,136.34710225389887L99.55774279713631,114.23872316760135L99.7143152976036,117.17417361323615L99.84852029800415,14.550441055948113L100.00509279847145,70.45938473037045L100.139297798872,105.82666368743867L100.20640029907227,117.65238291381932L100.58664780020715,132.53356447296173L100.85505780100821,141.82750601395043L100.92216030120849,69.948886289762L101.0787328016758,105.02965174826694L101.43661280274391,102.96729485924553L101.48134780287742,97.8546650520576L101.61555280327796,123.21001641201269L101.705022803545,137.72662961077836L102.0629028046131,142.8786131316487L102.44315030574798,149.9534903308671L102.89050030708313,152.78915919693875L103.29311530828477,68.15631419281546L103.33785030841828,95.12178373951448L103.38258530855178,121.23422187873247L103.44968780875206,137.97211003562688L103.51679030895232,114.25705508180033L103.8970378100872,128.26112719757893L104.14308031082153,134.5340409925937L104.45622531175613,50.35394862035018L105.12725031375885,81.64579627054913L105.17198531389236,111.30216469323706L105.70880531549453,75.43673733836472L105.79827531576157,106.45941887668991L105.84301031589507,101.53255380746688L105.97721531629561,121.64100081778363L106.04431781649589,108.82177128193139L106.0890528166294,119.17552352664912L106.29036031723022,129.82997773564028L106.44693281769753,84.52587902385983L106.73771031856536,63.65924042434959L106.91665031909942,101.38976075330794L107.20742781996726,124.58508166714006L107.25216282010079,122.88938297168659L107.31926532030106,133.72174543280914L107.67714532136917,112.36563385934689L107.78898282170296,93.07722877925033L107.83371782183647,84.38538239883482L108.05739282250404,103.46232431711326L108.14686282277107,92.52306120784452L108.79552032470703,83.89894776651201L108.90735782504082,105.91480559247165L109.06393032550811,123.52120008122607L110.04810032844543,132.28572167180133L110.2270403289795,99.87939473747281L110.38361282944679,107.94821386430236L110.47308282971383,35.133996043319456L110.71912533044815,79.71081245123618L110.85333033084869,108.84673581142695L110.98753533124923,110.45570359105726L111.4796203327179,123.47590701308592L111.72566283345223,129.26032454115273L111.83750033378601,121.27916886026115L112.03880783438683,124.51379470797053L112.06117533445358,133.76570305730968L112.32958533525466,136.17030311611677L112.575627835989,106.76453135903208L112.64273033618927,96.22076179726668L112.86640533685684,117.63489163975727L113.91767783999443,65.8132830218574L114.02951534032822,79.34390225768175L114.05188284039497,46.63842553629118L114.27555784106255,25.42343025558864L115.90838534593583,12.603719186461575L116.15442784667016,55.37027355173986L116.17679534673691,31.48699119863707L116.22153034687042,74.39479078648512L116.26626534700394,103.64805222498177L116.33336784720422,125.72705478086831L116.35573534727097,129.90306236585846L116.9149228489399,104.41792670441791L117.02676034927369,122.29350742938593L117.09386284947396,118.54594375600396L117.27280285000802,113.73548243078382L117.51884535074234,130.19985338233448L117.72015285134316,133.35100973242405L117.78725535154344,143.40322919666795L117.80962285161019,120.06725015980759L118.14513535261153,88.87866055666389L118.50301535367966,109.29057741219472L118.6372203540802,128.33455891363724L118.72669035434724,123.42862668551714L118.92799785494805,125.97181981180083L118.97273285508155,131.4212670126147L119.17404035568238,139.2837335409804L119.2635103559494,130.72470807125683L119.50955285668373,122.16953744459497L120.09110785841942,134.69457608088703L120.29241535902023,140.33996153781789L120.6279278600216,127.35461224611569L120.78450036048889,137.12523690722998L120.91870536088943,141.56230611461496L121.00817536115646,147.76415690456744L121.03054286122322,149.1200533734366L121.45552536249161,104.98028232756381L121.52262786269188,121.715793548671L122.32785786509514,-6.9012882145310925L122.46206286549568,55.275060650024955L122.79757536649704,-145.3453840290348L123.24492536783218,-11.486910439802358L123.66990786910057,43.166105386725576L123.69227536916732,85.90374231422958L123.7593778693676,115.02726814260492L123.96068536996842,53.36607138465213L124.20672787070274,91.77457831391739L124.76591537237167,115.19397487390657L124.83301787257194,128.5773942085167L125.07906037330628,136.7148771049393L125.14616287350654,127.28377922755087L125.19089787364005,101.72728534933057L125.23563287377358,107.70004423139349L125.50404287457467,70.97432725980595L125.88429037570953,102.75678255401913L126.35400787711144,125.21405788108171L126.51058037757873,129.83061810711357L126.68952037811279,112.20893689050608L126.77899037837982,97.18997385502894L126.93556287884712,95.57254964037861L126.95793037891387,70.74610595582884L126.98029787898064,106.18610918459348L127.2039728796482,125.59876668391325L127.7855278813839,123.54118420230697L127.89736538171768,123.26743691333338L128.2552453827858,118.75654012422544L128.50128788352012,133.88920204736968L128.59075788378718,118.89450604578529L128.6131253838539,131.52312449167115L128.79206538438797,140.87590227467132L128.92627038478852,120.51211348961493L128.9933728849888,133.33558550744024L129.1946803855896,118.35901360707219L129.28415038585663,116.68184875639457L129.44072288632393,133.28135720299173L129.4630903863907,140.27244799259867L129.59729538679122,143.16894549774068L129.73150038719177,149.21821823559816L129.77623538732527,128.7910688681219L129.84333788752556,135.39412344067318L130.62620038986208,115.84449403425779L130.89461039066316,129.19111089180004L131.31959289193153,141.90136186358131L131.36432789206503,132.00284393125193L131.83404539346694,135.9520243207869L132.2813953948021,132.64875177127092L132.81821539640427,120.96681791606856L132.88531789660453,131.2841179557006L133.17609539747238,135.65469281161637L133.35503539800644,146.5814377015306L133.55634289860726,107.17198399006504L133.62344539880752,128.85216738579206L133.66818039894105,136.7323382704252L133.69054789900778,101.62705849081416L134.67471790194512,123.8770617812371L134.80892290234564,123.80691503130176L134.8760254025459,133.67911942904982L135.03259790301323,143.39517966724816L135.32337540388107,146.13046388655664L135.36811040401457,148.10626438977962L135.39047790408134,143.2572288401485L135.54705040454866,147.11870393372647L135.94966540575027,133.46807205074364L136.46411790728567,140.16152441827703L136.5759554076195,135.34551764662217L137.0233054089546,101.88737009230127L137.06804040908816,114.25484447182225L137.20224540948868,125.7477368009857L137.78380041122435,83.81358581133131L137.89563791155817,97.0737549899332L138.27588541269301,117.81341569601878L138.67850041389465,126.53212398376843L138.8574404144287,126.93841478122718L139.3718929159641,67.83056724680823L139.46136291623114,93.49711648018732L139.5508329164982,83.7667515645017L139.57320041656496,114.33186444037047L140.15475541830062,123.44735606008024L140.66920791983605,122.38331935117768L141.31786542177198,123.89254190383993L141.56390792250633,119.89003801349685L141.92178792357447,130.37059782033577L142.23493292450905,125.119506199564L142.25730042457582,128.02352486149192L142.70465042591093,40.70140416284073L143.24147042751312,77.81983487061338L143.59935042858123,99.39538386197765L144.0243329298496,108.655854554387L144.0914354300499,112.7520360290918L144.2032729303837,127.90802143670376L145.0308704328537,45.88719253479272L145.18744293332102,74.5710463375149L145.27691293358802,106.22771957082405L145.41111793398855,97.43652320598007L145.5453229343891,116.42466082177795L145.6571604347229,31.329555787186564L145.7242629349232,74.42560733711157L145.7689979350567,103.44287285687601L146.30581793665885,41.03484392304071L146.4847579371929,-50.5198191774509L146.86500543832778,-68.8167478733701L146.97684293866158,8.484615036046762L147.02157793879508,69.4898842197539L147.28998793959616,40.68571629267237L147.33472293972972,76.80467284029405L147.46892794013024,81.99638147703484L147.73733794093133,112.56604969633231L147.8491754412651,128.12465970347654L148.07285044193267,127.32838673777718L148.29652544260026,133.11567459682917L148.92281544446945,141.08986873265104L148.96755044460298,142.47475662823666L149.05702044487,144.2366139114075L149.39253294587135,138.60099087381255L150.30960044860842,104.18042131413661L150.37670294880868,121.9115216853563L150.7793179500103,130.0520712873471L151.18193295121193,133.47614253901577L151.5621804523468,143.44808649370898L151.62928295254707,148.21428994981449L151.74112045288086,117.18606899139837L151.85295795321463,97.38289002389483L152.2555729544163,116.39500527876072L152.27794045448303,127.75133399469303L152.6581879556179,72.7114605956207L152.72529045581817,106.96871051913979L152.8818629562855,127.78981564971464L153.48578545808792,121.81983701502236L153.53052045822142,120.30446650147908L153.68709295868874,71.54989411058467L154.08970795989035,93.01601982617956L154.29101546049117,119.09146031499083L154.492322961092,130.20397949741692L154.71599796175957,122.74915842342895L154.96204046249392,136.15935603002796L155.05151046276092,94.61925579380265L155.07387796282768,113.25644722823584L155.49886046409608,89.76157823975835L155.61069796442985,116.36584719926746L155.65543296456337,133.5715001517577L155.7449029648304,122.0434940745751L155.9462104654312,135.08383022534088L156.34882546663286,145.46451085177623L156.79617546796797,149.19785048045455L156.90801296830176,151.98189130758976L157.1093204689026,122.07310714397987L157.24352546930314,132.61731063734533L157.26589296936987,134.2655632566611L157.35536296963693,144.49568424409168L157.4224654698372,142.06417905543492L157.91455047130586,150.0399044138759L158.31716547250747,151.67365501705746L158.4066354727745,153.36977547510764L158.5184729731083,151.98154997440594L158.8763529741764,154.00502569010888L158.9210879743099,157.14297322302787L159.14476297497748,158.59241360292924L159.27896797537804,144.11157718987877L159.32370297551157,139.61848711526477L159.4579079759121,145.92540601728606L159.5026429760456,150.82073998201602L159.54737797617912,155.78199784217753L159.81578797698023,158.26630510015286L159.86052297711373,155.88887377657593L159.90525797724723,156.94133323530966L160.41971047878266,156.39030130696023L160.62101797938348,157.5654951831243L160.68812047958374,143.95724636764243L161.04600048065186,136.6380740653116L161.29204298138617,143.35428584335045L161.3367779815197,139.7044891486996L161.47098298192026,50.44965487566846L161.76176048278808,94.59469087860016L161.87359798312187,120.61493485507282L162.0301704835892,115.89933864109611L162.16437548398972,97.57390569613352L162.45515298485753,105.96961250716514L163.03670798659326,123.34178600947314L163.55116048812866,139.00862530635536L163.6406304883957,143.50276970705306L163.66299798846245,145.84598019199933L163.81957048892974,128.26956230025746L164.19981799006462,135.58775334211686L164.44586049079896,145.40882057983913L164.69190299153328,107.88791416205618L164.84847549200057,118.76787952824921L164.98268049240113,120.62943713762192L165.5195004940033,101.12085777704827L166.74971299767495,112.49388917587422L166.83918299794198,93.19420933906191L167.12996049880982,112.74584104320859L167.46547299981117,121.78691680152558L167.64441300034525,136.5470020964798L167.666780500412,113.43525447673193L167.75625050067902,90.95385348396393L167.9799255013466,117.89187516983827L168.20360050201418,129.2554213897513L168.22596800208092,136.53698422728706L168.24833550214768,137.394600343283L168.4272755026817,123.12195838823456L168.87462550401688,125.75497104848469L169.41144550561904,99.25871371050816L169.56801800608636,121.73138933549913L169.63512050628663,129.96119871531954L169.8587955069542,116.55011360889522L170.06010300755503,127.89600317806241L170.1272055077553,104.35695477905749L170.35088050842288,125.41870237094776L170.46271800875664,120.87581892991395L171.2679480111599,129.40615462757592L171.4692555117607,140.27440799006894L171.51399051189424,143.08194869833198L171.60346051216123,150.50290312326172L171.73766551256182,148.66166824469929L171.80476801276208,80.93505788977158L171.96134051322937,90.36797081129644L172.14028051376343,25.102146786998077L172.2073830139637,70.32350030353409L172.38632301449775,91.27304468931627L172.47579301476478,120.12086661687277L172.56526301503183,136.55944190446175L173.07971551656723,137.70151211381477L173.16918551683426,118.11000289860975L173.32575801730158,107.96695256211167L173.41522801756858,-59.40827800176126L173.66127051830293,0.33571404731819143L173.929680519104,40.381492109930946L174.28756052017212,56.40157781467542L174.84674802184105,70.30522818157071L175.1822605228424,93.2937765952832L175.495405523777,95.01458458994223L175.67434552431106,26.498598172256294L175.85328552484512,-84.18367660209685L175.98749052524565,14.745485553605306L176.00985802531244,58.34702123858892L176.59141302704813,97.43948894097791L176.90455802798272,119.43700702602305L177.46374552965165,106.68314910665754L177.8439930307865,86.87332002316836L178.1124030315876,65.03743875452227L178.1795055317879,71.22274074926524L178.31371053218842,60.74272527228463L178.71632553339006,101.84540274303808L178.76106053352356,113.24574986883445L179.16367553472517,127.54841253506514L179.2531455349922,82.73029261891631L179.7228630363941,112.95416110461404L179.81233303666116,123.67226975336791L179.96890553712845,135.8641158737703L180.2596830379963,145.7631842537977L180.39388803839685,124.25974520338977L180.70703303933144,85.05481103759793L180.97544304013252,95.63379810559297L181.31095554113386,83.62098814173717L181.48989554166795,113.0279897560803L181.5122630417347,120.39989750721107L182.00434804320335,27.269053554765975L182.09381804347038,67.39647145915526L182.406963044405,86.098027247594L182.67537304520607,98.36167746195161L182.6977405452728,65.24026875117885L182.85431304574013,90.926004772951L183.16745804667474,-57.5618825093608L183.30166304707527,11.351768819851117L183.45823554754256,17.909847934528074L183.50297054767609,67.11689416024979L183.7042780482769,55.403830285812646L183.7490130484104,65.01276394504434L183.77138054847717,54.26162694115855L184.19636304974557,86.43288026460958L184.26346554994583,71.04794600099399L184.46477305054665,55.70473062275741L184.7555505514145,97.18942756586804L185.29237055301667,70.3602986163661L185.65025055408478,65.18461748611014L185.8962930548191,104.64671469962332L186.29890805602076,127.58159410110362L186.5225830566883,125.7769724683046L186.54495055675505,130.25618982197875L186.6791555571556,137.20769320649097L186.83572805762293,135.34590938786926L186.92519805788993,132.63730211314737L186.9475655579567,144.06186613926985L186.96993305802346,124.5978308019738L187.46201805949212,106.65176093363752L187.48438555955886,121.03294780283846L187.5738555598259,121.50724180617814L187.6185905599594,137.16743117017404L187.81989806056023,135.60155105801067L187.90936806082723,129.82279169343613L188.55802556276322,114.95682892465923L188.58039306282998,130.94488061547176L188.7817005634308,140.67417599477074L188.84880306363107,130.99385350442662L189.00537556409836,143.23109458458933L189.2290505647659,150.46485729710125L189.25141806483268,133.85822823569873L189.2961530649662,102.69174610747504L189.4079905653,120.35708160446652L189.54219556570055,128.71828364812507L189.63166556596755,128.47143512417537L189.67640056610108,132.37041575482704L190.0342805671692,129.01643245710102L190.16848556756975,136.91433406694784L190.19085306763648,99.31776289563012L190.36979306817057,117.02240354513145L190.79477556943894,135.6564018467081L191.17502307057381,143.65733124651268L191.7565780723095,150.75484938015674L192.2710305738449,124.32962102655344L192.56180807471276,86.24060100288452L192.62891057491302,107.66679257346078L193.32230307698248,127.97344713897755L193.34467057704927,138.78064220684706L193.70255057811738,145.06371615092382L193.72491807818412,151.13354002496922L193.9485930788517,152.1696268928574L194.01569557905196,117.31073357172167L194.0604305791855,128.41927167737532L194.3064730799198,120.83395608588327L194.44067808032037,132.47530822343379L194.50778058052063,140.6133270715248L194.59725058078766,143.85786020878388L194.9998655819893,132.0205097255738L195.02223308205606,143.53841157777276L195.11170308232306,147.94530693196637L195.17880558252332,146.24704151355803L195.22354058265688,150.1113358698768L195.53668558359146,146.90687572567887L195.6261555838585,120.69488489485865L195.8721980845928,113.0325784207756L195.93930058479307,131.21233185645212L196.38665058612824,115.67885063303714L196.56559058666227,134.6773517778215L196.78926558732985,79.33965696770068L196.81163308739661,91.54240405589354L197.05767558813093,79.59476148954393L197.57212808966636,38.169716268433575L197.68396559000016,-35.43495065322969L198.06421309113503,30.731037232719842L199.04838309407236,82.94590483475966L199.0707505941391,107.97105898458074L199.16022059440613,126.81310538060586L199.24969059467315,139.12805154534158L199.6523055958748,143.26178163103168L199.78651059627532,131.68056090079136L200.7483130991459,106.28890836081234L200.92725309967997,125.98898486229442L201.106193100214,117.26963307648678L201.12856060028076,112.1983029324836L201.50880810141564,65.21352708090298L201.79958560228349,99.86221314436341L201.8890556025505,118.38105208214881L202.13509810328483,132.6875168971299L202.40350810408592,115.57848238960565L202.47061060428618,120.07705763113837L202.5153456044197,87.95154842329956L202.60481560468673,118.00084587724722L202.7837556052208,125.77306995922605L204.1258056092262,117.17515421095352L204.26001060962676,122.07155962137423L204.28237810969352,108.237252355626L204.6626256108284,93.77917379003186L204.8191981112957,120.21578435852959L205.33365061283112,132.2585380744239L205.42312061309815,138.05052458846893L205.66916311383247,94.40517466082781L205.73626561403273,34.35729821675454L206.11651311516763,85.58457172670322L206.25071811556816,90.99871897400209L206.54149561643598,110.37725768784082L206.98884561777115,125.53551861432203L207.19015311837197,140.56439059828384L207.54803311944008,139.6649852499762L207.59276811957358,136.58479112525703L207.7940756201744,122.67966960932404L207.99538312077524,-82.22055123534153L208.17432312130927,-14.804620233736756L208.6216731226444,54.596040730039036L208.66640812277794,68.91335849157582L208.7335106229782,102.9768467422032L208.77824562311173,125.39339233846053L208.91245062351226,101.92221857839566L209.18086062431334,121.7699176516848L209.2032281243801,137.0656630475082L209.35980062484742,145.67307438555312L209.4269031250477,144.84313088104398L209.53874062538145,92.38780661113874L209.69531312584877,107.09148014697706L209.74004812598227,112.18924640997334L210.8807906293869,125.22599437934952L211.1268331301212,139.24152468969717L211.1939356303215,144.3670922522318L211.3057731306553,141.20171491511817L211.6636531317234,134.46018013396434L211.75312313199044,132.0547681878694L211.7754906320572,140.77435699933716L211.8202256321907,144.77079836203424L212.04390063285828,140.12751016466896L212.1333706331253,134.82335619947023L212.22284063339234,130.23549558087822L212.42414813399316,134.93806054687593L212.4465156340599,111.16972663790867L212.5583531343937,128.10588187911995L212.6478231346607,135.29295557866692L212.67019063472748,139.54820725051144L213.00570313572882,148.0445196220531L213.6990956377983,152.34112416726657L213.9675056385994,153.4404761117214L214.12407813906668,129.4648131218896L214.2359156394005,133.3545107947109L214.54906064033509,90.1128727782226L214.7503681409359,114.45815487853844L215.08588064193725,105.3953469746781L215.3319231426716,128.15768573362044L215.48849564313886,139.4399502935288L215.51086314320563,144.9475302438212L215.71217064380645,145.36067753879462L216.56213564634322,102.43909320328896L216.6292381465435,115.98365633439585L216.673973146677,134.93414955227215L216.74107564687728,141.13889826366824L216.76344314694404,149.990008159149L216.85291314721107,112.61850892585198L217.5686731493473,110.72038868977592L217.8818181502819,101.20300459380877L218.48574065208433,75.26426254230367L218.6199456524849,103.83247358155847L218.70941565275191,115.29062645851639L219.11203065395355,128.70939717699002L219.22386815428735,137.82273608303757L219.5593806552887,120.06342278114475L219.62648315548898,132.5602752487613L219.69358565568925,137.85537672566372L220.16330315709115,147.61334006390481L220.40934565782547,132.02268506895834L220.70012315869332,137.7160571534995L220.72249065876008,113.54856242923296L220.94616565942766,99.99438289630557L221.01326815962793,121.88263527721286L221.10273815989493,128.129205425711L221.48298566102983,133.2479551231657L221.52772066116333,139.58798204043765L221.5948231613636,141.533325375628L222.06454066276552,149.38719238489054L222.10927566289902,147.34468063128713L222.2211131632328,140.39893030203044L222.46715566396713,39.958222831910234L222.6460956645012,36.284521339279195L222.73556566476822,72.4981011182455L223.1158131659031,101.61294463112947L223.25001816630362,123.51582001969147L223.4736931669712,110.40726330337169L223.51842816710473,95.2379621161482L223.6526331675053,119.53064551240388L223.76447066783905,133.39228975034226L223.8763081681728,138.5887448873641L223.9434106683731,125.38436634319103L224.27892316937448,135.6641534279774L224.30129066944122,105.09555129452252L224.90521317124367,122.17589369781129L225.08415317177773,137.75286797527662L225.3078281724453,137.31096136300403L225.55387067317963,144.7277818404446L226.0235881745815,147.96390909920592L226.4038356757164,152.4545487471941L226.42620317578317,132.30864483087507L227.14196317791937,129.6705645638602L227.16433067798616,105.54573171747325L227.29853567838668,128.74888183446436L228.46164568185804,134.11537929423224L228.5063806819916,121.48507691451675L228.66295318245886,54.41635332190819L228.73005568265913,94.98810954513688L228.88662818312645,119.10019989293876L229.49055068492888,134.75896700619643L229.9602681863308,139.71090938832174L230.18394318699836,127.49788619220516L230.54182318806647,118.95021882786L230.5865581882,114.65113723670859L230.6312931883335,90.65446060689878L230.7431306886673,89.52455621115413L231.4588906908035,81.86744632261221L231.5707281911373,81.41648832924675L231.81677069187165,46.8323568024656L231.83913819193842,88.58883890276816L231.86150569200515,106.0051181064882L231.92860819220542,120.43639491886762L232.28648819327353,115.50804549880948L232.89041069507599,119.70281684434505L232.95751319527625,130.60850460542736L233.40486319661142,128.60244072680135L233.53906819701194,134.8542249771921L233.5614356970787,124.66427318111921L234.14299069881437,139.11374658288042L234.2995631992817,148.00541432421835L234.456135699749,149.5297993334639L235.19426320195197,150.3107115898675L235.26136570215223,147.81306983673534L235.68634820342064,112.58617770958378L235.7087157034874,132.07317949623473L235.91002320408822,141.1679848763691L236.0665957045555,130.53477693793445L236.1336982047558,125.62636011594444L236.29027070522307,108.28632220990652L236.35737320542336,112.65703621510374L236.78235570669173,119.16111856887962L236.849458206892,104.55773466392074L237.09550070762634,123.21331420342705L237.34154320836066,133.33232651905453L237.56521820902825,145.3557020350607L237.60995320916174,137.7438044678923L237.6323207092285,143.76038895005848L237.69942320942877,137.7432893717288L238.23624321103094,144.8243655959877L238.34808071136476,151.44751270924996L238.3704482114315,151.42171882189433L238.45991821169852,154.5734493615735L238.88490071296692,156.7696161677066L238.9072682130337,155.74640886420374L239.1085757136345,145.25123739263452L239.28751571416853,151.29739896701463L239.55592571496962,153.64857219831626L240.38352321743963,148.5840016140743L240.45062571763992,137.43601031942876L240.6519332182407,132.15557840544727L240.67430071830748,132.6936162948286L240.80850571870803,141.22631156192662L240.85324071884156,136.57920474832628L241.05454821944238,102.5457216956455L241.83741072177887,121.54752370067445L241.94924822211266,134.8779191524852L242.46370072364806,142.4740645604535L242.53080322384832,146.65596209113792L242.59790572404862,147.4436706142984L242.7992132246494,143.04855427786063L243.42550322651863,142.81496524433845L243.96232322812082,150.98617564693006L244.18599822878835,153.85052774205644L245.41621073246003,112.54629996122426L245.55041573286059,117.6272411713333L245.63988573312758,132.29474522371177L245.70698823332788,139.30296069176438L245.9530307340622,124.4810591417345L246.02013323426246,125.12035781278198" fill="none"></path></g></g></g></g><g opacity="0.2"><g><g><g><path style="fill: none;" stroke="rgb(255, 112, 67)" stroke-width="2px" d="M22.77011506795883,146.4638060426522L22.904320068359375,139.5362515492408L23.26220006942749,153.86034912490342L23.306935069561003,148.85276313275273L23.374037569761278,81.18115413108598L23.620080070495604,156.3175016585738L23.95559257149696,150.7714672057454L24.022695071697235,135.14411147409936L24.470045073032377,148.78129997383644L24.738455073833464,135.5328491785862L25.18580507516861,157.83836495996837L25.83446257710457,84.31078043975265L25.90156507730484,156.45579888308612L26.102872577905657,149.85729781423606L26.460752578973768,159.16021653873582L26.505487579107285,134.8262205325047L27.489657582044604,87.74513498153854L27.60149508237839,162.70742627849438L27.937007583379746,134.8380463555636L28.071212583780287,154.86547366880723L28.183050084114075,81.17607600754945L28.339622584581374,115.14650180826123L28.47382758498192,139.98717993867837L29.25669008731842,-304.6147574686288L29.301425087451932,128.22223313083066L29.480365087985994,73.24475732768485L29.950082589387897,143.54530965957375L30.129022589921952,118.30362101244108L30.576372591257094,148.16188115993657L31.784217594861985,106.09811433105834L31.80658509492874,104.88347534982165L32.18683259606362,128.29011833534202L32.25393509626389,75.91024967646335L32.32103759646416,51.06104813612322L32.65655009746552,-53.545733161607615L32.72365259766579,135.07539352264152L32.74602009773254,-110.9657251544204L32.969695098400116,121.12653110875843L33.394677599668505,139.5417378820648L33.86439510107041,125.27645203897563L34.244642602205275,-26.300865611526888L34.35648010253907,-326.0764750575739L34.96040260434151,47.756773565892274L35.18407760500908,-72.0417286350033L35.31828260540962,152.49727606202254L35.47485510587692,89.01496794053818L35.49722260594368,-106.2805275496894L36.23535010814667,147.66340965530705L36.28008510828018,-122.58339413343083L36.548495109081266,154.53019913470433L36.70506760954857,117.99730892728637L36.72743510961533,51.71967749313396L36.77217010974884,151.42818614329065L36.83927260994911,159.9641423787547L36.88400761008263,28.59883407607137L37.15241761088371,101.87781403758315L37.376092611551286,131.3145715621306L38.33789511442185,-116.52269451353777L38.516835114955896,133.5781145128323L38.69577511548996,46.06610948822251L38.89708261609078,128.13241075920902L39.18786011695862,124.90441417644044L39.27733011722565,41.20339799272898L39.478637617826465,138.89364848885734L39.56810761809349,58.40569659217769L39.612842618227006,140.6787517851904L39.65757761836052,127.03115598966849L39.814150118827826,132.21086648946348L39.9259876191616,37.35347823208173L39.970722619295124,157.56138475316703L40.08256011962891,-2.718729371217165L40.12729511976242,129.50204680690968L40.21676512002945,-8.909843694280909L40.30623512029648,141.0060070478403L40.44044012069702,16.272766863718203L40.462807620763776,-142.2519626209862L40.9772601222992,88.0584927589955L41.06673012256622,144.184408243224L41.80485762476921,162.170431935838L41.96143012523651,120.84425438645175L42.09563512563705,24.746979403401383L42.408780126571656,124.608086890458L42.498250126838684,155.78750823276346L42.65482262730599,92.04905694755821L42.699557627439496,15.187534308712088L42.87849762797356,38.749309069761296L43.19164262890816,53.7971280348963L43.21401012897491,159.2239716857809L43.43768512964249,163.1705922721096L43.50478762984276,143.85725911498884L43.70609513044357,141.49457437463187L43.885035130977634,155.94414885187126L44.08634263157845,102.69257120078426L44.1087101316452,151.6564465716288L44.242915132045745,117.14867855740849L44.2652826321125,136.25716757414153L44.37712013244629,86.29849025175088L44.77973513364792,22.54986639110109L44.84683763384819,44.57837441155502L45.04814513444901,9.780949251110002L45.71917013645172,133.25783758795217L46.00994763731956,149.82607388583514L46.144152637720104,114.02153824330269L46.211255137920375,7.976664200357305L46.255990138053896,120.12856145314132L46.345460138320924,124.58532514058697L46.479665138721465,146.645916369992L46.59150263905526,130.70463953207224L46.815177639722826,97.50117366908812L46.94938264012337,148.96855169715226L47.06122014045715,143.56900008557383L47.28489514112473,150.47785655257127L48.224330143928526,159.85989644222084L48.313800144195554,-35.70646478994297L48.33616764426232,116.59325267246365L48.358535144329075,127.47105048206491L48.7611501455307,161.16692441097433L49.051927646398546,-46.53307315489164L49.342705147266386,130.39729467742015L49.92426014900207,140.63306704277977L50.19267014980316,158.65330122499435L50.4387126505375,60.80193409492078L50.50581515073777,82.0656783436138L50.57291765093804,158.9303523581594L51.020267652273176,162.05832133711883L51.15447265267372,-6.170465464464854L51.31104515314102,34.77802868794012L51.445250153541565,116.06082121668373L51.80313015460968,-38.23932177702676L51.87023265480995,31.317442617339452L52.11627515554428,128.91874430972143L52.18337765574455,-47.34095199159833L52.25048015594482,148.17199148346475L52.272847656011585,-151.3522212523518L53.34648765921593,62.1509514915098L53.4135901594162,141.27577827862441L53.48069265961647,99.59003774252899L53.50306015968323,155.312573055128L53.99514516115188,140.36088329510653L54.26355516195297,-510.894732183653L54.48723016262055,99.8627215465794L54.576700162887576,146.84770646708216L55.135887664556506,-96.13610221764026L55.158255164623256,-33.02851389370994L55.40429766535759,88.51010285794318L55.58323766589165,103.66600747822258L55.67270766615868,12.854487603674102L55.71744266629219,113.16307002959603L56.43320266842842,136.34765124480893L56.522672668695456,69.89814329015437L57.08186017036438,106.0571750216149L57.4397401714325,139.6319807092526L57.46210767149925,41.73878896584327L57.79762017250061,81.44536351032787L57.88709017276764,124.15977104046046L58.24497017383575,150.5257619535059L58.26733767390251,128.4351020279836L58.75942267537117,141.75485473948157L58.871260175704954,153.05969253101583L58.983097676038746,131.1094463951615L59.05020017623902,134.6248488499342L59.1620376765728,105.99851534700106L59.22914017677307,113.48121610199537L59.49755017757416,-100.29131354022348L59.67649017810821,124.36348380329477L59.833062678575516,-41.58366617091875L59.989635179042814,127.66032080030743L60.19094267964363,-124.01594747861395L60.28041267991066,-10.263726945576963L60.325147680044175,160.77373033672202L60.36988268017768,91.19996530118546L60.43698518037796,54.30045008638456L60.593557680845265,101.48666789830007L60.79486518144608,122.77798668436377L61.01854018211365,46.027484725439194L61.108010182380674,131.1101301457181L61.15274518251419,-92.3948151125827L61.21984768271446,126.65780777532044L61.33168518304825,148.07278744189313L61.39878768324852,131.03126819346585L61.42115518331528,151.39720816098543L61.868505184650424,149.4946436626973L62.069812685251236,55.16137980209484L62.204017685651785,-50.41542106133795L62.38295768618583,-405.67150587668186L62.58426518678665,160.70706720876512L62.74083768725396,140.1165741186303L63.21055518865585,132.8007084994375L63.30002518892288,95.0481542544537L63.52370018959046,137.0124221105501L63.61317018985748,62.405445489709166L63.8144776904583,20.478073630063506L64.10525519132614,111.43446289865307L64.17235769152641,153.9909648711482L64.30656269192696,77.90981388617058L64.35129769206047,15.26835974763722L65.11179269433022,-3.8960212847404136L65.24599769473076,155.67250547124235L65.62624519586564,9.400939061189945L65.8499201965332,138.24286899644525L65.91702269673347,92.09018811536679L65.96175769686698,-229.31343521916733L66.36437269806862,14.485022453295045L66.67751769900322,108.27323302694809L66.72225269913673,109.81155339852263L67.12486770033836,115.58209377476739L67.2143377006054,139.36330552040542L67.39327770113945,77.07571168483484L67.77352520227433,37.50161738251569L67.90773020267487,135.73172057927076L68.44455020427704,125.57836362801108L68.73532770514488,138.94546453476624L68.80243020534516,106.2706888894421L68.82479770541191,142.63259655469756L68.86953270554542,12.909628514229695L68.91426770567894,139.59041071645996L69.00373770594597,93.65641367383488L69.09320770621301,84.50054060914019L69.2497802066803,161.91411069081545L69.58529270768165,38.50118313644694L70.3457877099514,129.25391270940958L70.43525771021844,127.56772668762368L70.59183021068573,125.60884461550874L70.79313771128655,157.55753278827785L71.06154771208763,129.10150368982835L71.2852227127552,116.73795061860399L71.32995771288871,69.7300753623046L71.37469271302224,156.9107394595582L71.486530213356,153.95494958623527L71.5536327135563,68.17960668233404L71.73257271409034,131.81123776118613L71.82204271435738,138.40630374888187L72.26939271569252,75.62965477642119L72.38123021602631,143.80238966360943L72.40359771609306,13.047244029231905L72.44833271622659,143.87951060325048L72.51543521642685,143.8608819724154L72.60490521669388,-672.8486646089351L72.62727271676064,117.08278541422013L72.78384521722793,82.34041135828747L72.8509477174282,123.2642782443775L72.96278521776199,85.43809937230009L73.38776771903038,118.95144506961168L73.61144271969795,-78.44721814749084L73.74564772009849,107.28765660529949L73.87985272049903,141.3350237335658L73.96932272076607,134.67145410428816L74.23773272156716,87.6544472062274L74.2601002216339,146.8635449874372L74.81928772330284,59.97151394135828L75.02059522390367,117.56329673072285L75.80345772624015,121.23071020102145L75.8258252263069,141.56760505721215L75.87056022644043,139.14942222317305L76.85473022937775,66.15488045214526L77.03367022991179,147.55242265265173L77.19024273037911,149.11692454740336L77.23497773051263,122.47128271829305L77.27971273064612,123.76447749481636L77.39155023097992,158.12234595605037L77.95073773264885,141.7821945565119L77.9731052327156,128.33389061724068L78.19678023338318,141.43836395574303L78.2415152335167,130.7947680606595L78.35335273385047,130.82904743557737L78.66649773478507,145.01987386358002L78.80070273518561,160.20828929203918L79.00201023578644,136.03297699239977L79.33752273678779,151.04315293808787L79.42699273705482,-47.665560017018834L79.47172773718833,153.47862139440622L80.03091523885728,133.86422227930214L80.29932523965836,107.02409219673184L80.52300024032593,70.71323926706407L80.65720524072647,142.66584724221093L81.03745274186134,153.92756486618327L81.17165774226189,137.12180587122876L81.19402524232864,150.44670916341175L81.50717024326323,-70.8551785348395L81.64137524366379,143.91532280404292L81.75321274399757,131.87173029550087L82.26766524553298,161.63985272970012L82.42423774600029,150.00430418389723L82.53607524633408,147.30294350554928L82.82685274720191,99.01778138866051L82.98342524766922,142.8933688117387L83.31893774867058,104.74058577082494L83.58734774947166,154.40214694278507L83.65445024967192,71.99984146359427L83.96759525060654,155.14364278515842L84.75045775294303,153.88557952044061L84.7728252530098,159.6616179655264L84.79519275307656,83.73591562853704L85.19780775427819,159.3783554177904L85.53332025527953,-182.5238008942444L86.60696025848388,134.16461328874166L86.8082677590847,128.9467760414941L87.00957525968552,100.36493735089853L87.14378026008606,131.17315357761532L87.61349776148796,151.6369902964633L87.65823276162148,154.54547738781227L87.68060026168823,151.83660361752789L88.73187276482582,159.5899154939153L88.91081276535988,129.6135491737905L89.4252652668953,22.512082539450034L89.6265727674961,160.2726692544249L89.71604276776314,99.98438424262608L89.80551276803017,154.84635926892L90.07392276883125,160.01809437976044L90.14102526903152,148.6781434458386L90.31996526956559,107.3099815712329L90.38706776976585,74.55013715144007L90.92388777136803,108.1873090540221L91.01335777163506,142.2175375153527L91.05809277176857,104.86687756019187L91.68438277363778,-1088.892827263145L92.1988352751732,155.51142914796426L92.53434777617454,134.3251375089584L92.7132877767086,161.88381314236636L92.82512527704239,147.90502362996256L92.93696277737618,102.28559062323902L93.07116777777672,148.1373977873955L93.42904777884483,104.83952753792933L93.83166278004647,157.01351227082577L93.85403028011322,148.40690470266594L94.01060278058053,104.78513773246276L94.07770528078079,-94.76340868237622L94.61452528238296,156.41252920887266L94.68162778258323,142.9639339102225L94.83820028305054,75.31118621868471L94.90530278325082,123.34975726918012L94.92767028331757,153.67347091308565L94.97240528345108,94.61168055588655L94.99477278351783,-50.53847166896216L95.55396028518676,157.2609937437275L95.75526778578758,158.08798800084466L96.29208778738976,101.57204078868794L96.47102778792382,131.69600844351046L96.78417278885841,160.24816623681187L96.80654028892518,151.60222413197008L97.18678779006004,82.43932046864886L97.835445291996,139.0259164621933L97.88018029212951,151.4843485975882L98.10385529279709,161.32727310119745L98.48410279393197,131.47688986216588L98.59594029426574,159.07876704986245L99.0880252957344,113.30180403804597L99.26696529626847,148.19045785110805L99.5130077970028,131.29417538508062L99.55774279713631,81.07615453815508L99.7143152976036,121.57734928168836L99.84852029800415,-139.3851577799839L100.00509279847145,154.3228002420039L100.139297798872,158.87758212304098L100.20640029907227,135.3909617533903L100.58664780020715,154.85533681167536L100.85505780100821,155.76841832543352L100.92216030120849,-37.86904329652069L101.0787328016758,157.65079993602438L101.43661280274391,99.87375952571341L101.48134780287742,90.18572034127568L101.61555280327796,161.24304345194537L101.705022803545,159.50154940892682L102.0629028046131,150.60658841295424L102.44315030574798,160.56580612969472L102.89050030708313,157.0426624960462L103.29311530828477,-58.79295331336948L103.33785030841828,135.569988059563L103.38258530855178,160.40287908755943L103.44968780875206,163.07894227096855L103.51679030895232,78.68447265106049L103.8970378100872,149.2672353712468L104.14308031082153,143.94341168511582L104.45622531175613,-75.91618993801504L105.12725031375885,128.58356774584757L105.17198531389236,155.78671732726895L105.70880531549453,21.63859630605623L105.79827531576157,152.9934411841777L105.84301031589507,94.14225620363236L105.97721531629561,151.80367133325876L106.04431781649589,89.59292697815305L106.0890528166294,134.70615189372572L106.29036031723022,145.811659049127L106.44693281769753,16.569730956189147L106.73771031856536,32.35928252508424L106.91665031909942,157.98554124674547L107.20742781996726,159.37806303788824L107.25216282010079,120.34583492850638L107.31926532030106,149.97028912449304L107.67714532136917,80.33146649915345L107.78898282170296,64.14462115910553L107.83371782183647,71.34761282821152L108.05739282250404,132.07773719453093L108.14686282277107,76.1141665439414L108.79552032470703,70.9627776045132L108.90735782504082,138.93859233141117L109.06393032550811,149.9307918143577L110.04810032844543,145.43250405766423L110.2270403289795,51.269904335980016L110.38361282944679,120.0514425545467L110.47308282971383,-74.08733068815482L110.71912533044815,146.5760370631112L110.85333033084869,152.55062085171312L110.98753533124923,112.86915526050271L111.4796203327179,143.00621214612892L111.72566283345223,137.93695083325298L111.83750033378601,109.30743533892375L112.03880783438683,129.3657334795346L112.06117533445358,147.64356558131843L112.32958533525466,139.77720320432735L112.575627835989,62.65587372340505L112.64273033618927,80.40510745461857L112.86640533685684,149.75608640349316L113.91767783999443,-11.919129904992445L114.02951534032822,99.6398311114183L114.05188284039497,-2.419789545794714L115.90838534593583,-6.625847417229011L116.15442784667016,119.52010509965727L116.17679534673691,-4.3379323310171L116.22153034687042,138.75649016825713L116.26626534700394,147.52794438272676L116.33336784720422,158.84555861469818L116.35573534727097,136.1670737433437L116.9149228489399,66.19022321225707L117.02676034927369,149.10687851683795L117.09386284947396,112.92459824593104L117.27280285000802,106.51979044295359L117.51884535074234,154.89640980966044L117.72015285134316,138.07774425755838L117.78725535154344,158.48155839303388L117.80962285161019,85.06328160451703L118.14513535261153,42.095776151948314L118.50301535367966,139.90845269549098L118.6372203540802,156.90053116580103L118.72669035434724,116.06972834333699L118.92799785494805,129.78660950122637L118.97273285508155,139.59543781383553L119.17404035568238,151.07743333352897L119.2635103559494,117.88616986667145L119.50955285668373,109.33678150460217L120.09110785841942,153.48213403532515L120.29241535902023,148.80803972321416L120.6279278600216,107.87658830856238L120.78450036048889,151.7811738989014L120.91870536088943,148.21790992569248L121.00817536115646,157.06693308949616L121.03054286122322,151.15389807674035L121.45552536249161,38.77062575875459L121.52262786269188,146.81906038033182L122.32785786509514,-199.82691085933425L122.46206286549568,148.53958394685904L122.79757536649704,-446.2760510476245L122.84231036663056,10.360916678419386L123.22255786776543,-191.8815579441653L123.24492536783218,161.16823603844122L123.66990786910057,125.14562912651743L123.69227536916732,150.01019770548552L123.7593778693676,158.71255688516794L123.96068536996842,-39.125723752277054L124.20672787070274,149.38733870781525L124.76591537237167,150.32306971389036L124.83301787257194,148.65252321043184L125.07906037330628,148.9211014495732L125.14616287350654,113.13713241146823L125.19089787364005,63.392544532000144L125.23563287377358,116.65918255448787L125.50404287457467,15.885751802424636L125.88429037570953,150.4304654953389L126.35400787711144,158.89997087167558L126.51058037757873,136.75545844616136L126.68952037811279,85.77641506559485L126.77899037837982,74.66152930181323L126.93556287884712,93.1464133184031L126.95793037891387,33.506440429004215L126.98029787898064,159.34611402774038L127.2039728796482,154.71775293289292L127.7855278813839,120.45481047989755L127.89736538171768,122.856815979873L128.2552453827858,111.99019494056351L128.50128788352012,156.58819493208603L128.59075788378718,96.40246204340873L128.6131253838539,150.4660521605L128.79206538438797,154.90506894917155L128.92627038478852,89.96643031203035L128.9933728849888,152.5707935341782L129.1946803855896,95.89415575652009L129.28415038585663,114.16610148037815L129.44072288632393,158.18061987288752L129.4630903863907,150.75908417700907L129.59729538679122,147.51369175545366L129.73150038719177,158.2921273423844L129.77623538732527,98.15034481690746L129.84333788752556,145.29870529950017L130.62620038986208,86.52004992463469L130.89461039066316,149.21103617811337L131.31959289193153,160.96673832125322L131.36432789206503,117.15506703275787L131.83404539346694,141.87579490508938L132.2813953948021,127.693842946997L132.81821539640427,103.443917133265L132.88531789660453,146.76006801514865L133.17609539747238,142.21055509548998L133.35503539800644,162.97155503640198L133.55634289860726,48.057803422866726L133.62344539880752,161.3724424793826L133.66818039894105,148.5525945973749L133.69054789900778,48.96913882139759L134.67471790194512,157.25206671687147L134.80892290234564,123.70169490639877L134.8760254025459,148.48742602567188L135.03259790301323,157.96927002454566L135.32337540388107,150.23339021551936L135.36811040401457,151.06996514461414L135.39047790408134,135.98367551570186L135.54705040454866,152.91091657409336L135.94966540575027,112.99212422626938L136.46411790728567,150.20170296957713L136.5759554076195,128.12150748913987L137.0233054089546,51.70014876081993L137.06804040908816,132.80605604110377L137.20224540948868,142.98707529473091L137.78380041122435,20.91235932684964L137.89563791155817,116.96400875783608L138.27588541269301,148.92290675514718L138.67850041389465,139.61018641539292L138.8574404144287,127.54785097741527L139.3718929159641,-20.831204054820233L139.46136291623114,131.99694033025594L139.5508329164982,69.17120419097328L139.57320041656496,160.1795337541736L140.15475541830062,137.12059348964488L140.66920791983605,120.78726428782379L141.31786542177198,126.15637573283331L141.56390792250633,113.88628217798222L141.92178792357447,146.09143753059416L142.23493292450905,117.24286876840637L142.25730042457582,132.3795528543838L142.70465042591093,-90.28177688513603L143.24147042751312,133.49748093227228L143.59935042858123,131.75870734902412L144.0243329298496,122.54656059300105L144.0914354300499,118.89630824114897L144.2032729303837,150.6419995481217L145.0308704328537,-77.14405081807388L145.18744293332102,117.59682704159815L145.27691293358802,153.7127294207878L145.41111793398855,84.24972865871405L145.5453229343891,144.90686724547476L145.6571604347229,-96.31310176470055L145.7242629349232,139.0696846619991L145.7689979350567,146.96877113652266L146.30581793665885,-52.577199477712156L146.86500543832778,-96.26214091724898L146.97684293866158,124.43665940017212L147.02157793879508,160.99778799531455L147.28998793959616,-2.5205355979498734L147.33472293972972,130.98310766172654L147.46892794013024,89.78394443214609L147.73733794093133,158.42055202527854L147.8491754412651,151.4625747141929L148.07285044193267,126.13397728922816L148.29652544260026,141.79660638540713L148.92281544446945,153.05115993638384L148.96755044460298,144.55208847161512L149.05702044487,146.8793998361637L149.39253294587135,130.14755631742014L150.30960044860842,52.54956697462268L150.37670294880868,148.50817224218588L150.7793179500103,142.26289569033332L151.18193295121193,138.6122494165188L151.5621804523468,158.4060024257488L151.62928295254707,155.3635951339727L151.74112045288086,70.64373755377423L151.85295795321463,67.67812157263954L152.2555729544163,144.91317816105953L152.27794045448303,144.78582706859152L152.6581879556179,-9.848349502987816L152.72529045581817,158.35458540441843L152.8818629562855,159.0214733455769L153.48578545808792,112.86486906298394L153.53052045822142,118.03141073116417L153.68709295868874,-1.581964475756962L154.08970795989035,125.2152083995719L154.29101546049117,158.2046210482077L154.492322961092,146.87275827105609L154.71599796175957,111.56692681244701L154.96204046249392,156.27465243992646L155.05151046276092,32.30910543946467L155.07387796282768,141.21223437988561L155.49886046409608,54.519274757042126L155.61069796442985,156.27225063853112L155.65543296456337,159.37997958049306L155.7449029648304,104.7514849588012L155.9462104654312,154.6443344514895L156.34882546663286,161.03553179142926L156.79617546796797,154.79785992347206L156.90801296830176,156.15795254829257L157.1093204689026,77.20993089856505L157.24352546930314,148.43361587739355L157.26589296936987,136.7379421856347L157.35536296963693,159.84086572523756L157.4224654698372,138.41692127244977L157.91455047130586,162.0034924515374L158.31716547250747,154.12428092182984L158.4066354727745,155.91395616218287L158.5184729731083,149.8992117233534L158.8763529741764,157.04023926366327L158.9210879743099,161.84989452240632L159.14476297497748,160.76657417278133L159.27896797537804,122.39032257030306L159.32370297551157,132.87885200334375L159.4579079759121,155.38578437031802L159.5026429760456,158.163740929111L159.54737797617912,163.22388463241978L159.81578797698023,161.9927659871159L159.86052297711373,152.3227267912105L159.90525797724723,158.52002242341024L160.41971047878266,155.5637534144361L160.62101797938348,159.32828599737041L160.68812047958374,123.54487314441967L161.04600048065186,125.65931561181532L161.29204298138617,153.42860351040875L161.3367779815197,134.22979410672332L161.47098298192026,-83.43259653387827L161.76176048278808,160.8122448829977L161.87359798312187,159.64530081978177L162.0301704835892,108.82594432013104L162.16437548398972,70.08575627868964L162.45515298485753,118.5631727237126L163.03670798659326,149.40004626293515L163.55116048812866,162.50888425167867L163.6406304883957,150.24398630809964L163.66299798846245,149.36079591941873L163.81957048892974,101.9049354626447L164.19981799006462,146.56503990490594L164.44586049079896,160.14042143642254L164.69190299153328,51.60655453538179L164.84847549200057,135.08782757753877L164.98268049240113,123.42177355168099L165.5195004940033,71.85798873618779L166.74971299767495,129.55343627411315L166.83918299794198,64.24468958384341L167.12996049880982,142.0732885994286L167.46547299981117,135.34853043900105L167.64441300034525,158.68713003891114L167.666780500412,78.76763304711011L167.75625050067902,57.23175199481193L167.9799255013466,158.29890769864977L168.20360050201418,146.3007407196208L168.22596800208092,147.45932848359078L168.24833550214768,138.6810245172769L168.4272755026817,101.71299545566191L168.87462550401688,129.7044900388599L169.41144550561904,59.514327703543344L169.56801800608636,155.4404027729856L169.63512050628663,142.30591278505014L169.8587955069542,96.43348594925878L170.06010300755503,144.91483753181322L170.1272055077553,69.04838218055009L170.35088050842288,157.01132375878316L170.46271800875664,114.06149376836323L171.2679480111599,142.2016581740689L171.4692555117607,156.57678803380844L171.51399051189424,147.29325976072656L171.60346051216123,161.63433476065632L171.73766551256182,145.89981592685564L171.80476801276208,-20.65485764261996L171.96134051322937,104.51734019358373L172.14028051376343,-72.7965892494494L172.2073830139637,138.15553057833807L172.38632301449775,122.69736126798952L172.47579301476478,163.39259950820752L172.56526301503183,161.21730483584525L173.07971551656723,139.41461742784426L173.16918551683426,88.72273907580225L173.32575801730158,92.75237705736451L173.41522801756858,-310.4711238475706L173.66127051830293,89.95170212093733L173.929680519104,100.45015920385002L174.28756052017212,80.43170637179212L174.84674802184105,91.16070373191364L175.1822605228424,127.77659921585199L175.495405523777,97.59579658193076L175.67434552431106,-76.2753814542726L175.85328552484512,-250.20708876362647L175.98749052524565,163.1392287871585L176.00985802531244,123.74932476606435L176.59141302704813,156.0781904945614L176.90455802798272,152.43328415359073L177.46374552965165,87.55236222760925L177.8439930307865,57.15857639793458L178.1124030315876,32.28361685155315L178.1795055317879,80.50069374137972L178.31371053218842,45.0227020568137L178.71632553339006,163.49941894916827L178.76106053352356,130.346270557529L179.16367553472517,149.00240653441114L179.2531455349922,15.503112744693055L179.7228630363941,158.28996383316064L179.81233303666116,139.7494327264987L179.96890553712845,154.15188505437385L180.2596830379963,160.6117868238388L180.39388803839685,92.0045866277779L180.70703303933144,26.24740978891012L180.97544304013252,111.50227870758555L181.31095554113386,65.60177319595344L181.48989554166795,157.13849217759503L181.5122630417347,131.4577591339072L182.00434804320335,-112.42721237390163L182.09381804347038,127.5875983157392L182.406963044405,114.15036093025212L182.67537304520607,116.75715278348802L182.6977405452728,15.558155685019642L182.85431304574013,129.45460880560924L183.16745804667474,-280.2937134328285L183.30166304707527,114.72224581366898L183.45823554754256,27.746966606543623L183.50297054767609,140.9274634988323L183.7042780482769,37.83423447415694L183.7490130484104,79.42616443389186L183.77138054847717,38.134921435329886L184.19636304974557,134.68976024978613L184.26346554994583,47.97054460557061L184.46477305054665,32.6899075554025L184.7555505514145,159.416472980534L185.29237055301667,30.116605192113155L185.65025055408478,57.42109579072621L185.8962930548191,163.83986051989308L186.29890805602076,161.98391320332402L186.5225830566883,123.07004001910607L186.54495055675505,136.97501585248997L186.6791555571556,147.6349482832593L186.83572805762293,132.5532336599367L186.92519805788993,128.57439120106454L186.9475655579567,161.1987121784536L186.96993305802346,95.40177779602972L187.46201805949212,79.73265613113306L187.48438555955886,142.6047281066399L187.5738555598259,122.21868281118768L187.6185905599594,160.6577152161679L187.81989806056023,133.25273088976553L187.90936806082723,121.15465264657433L188.55802556276322,92.65788477149387L188.58039306282998,154.92695815169054L188.7817005634308,155.26811906371918L188.84880306363107,116.47336976891047L189.00537556409836,161.58695620483337L189.2290505647659,161.31550136586915L189.25141806483268,108.94828464359497L189.2961530649662,55.94202291513952L189.4079905653,146.85508484995376L189.54219556570055,141.26008671361288L189.63166556596755,128.10116233825084L189.67640056610108,138.2188867008046L190.0342805671692,123.98545751051195L190.16848556756975,148.76118648171806L190.19085306763648,42.92290613865356L190.36979306817057,143.5793645193835L190.79477556943894,163.60739929907305L191.17502307057381,155.65872534621957L191.7565780723095,161.40112658062287L192.2710305738449,84.69177849614846L192.56180807471276,29.107070967381134L192.62891057491302,139.80607992932514L193.32230307698248,158.43342898725274L193.34467057704927,154.99143480865126L193.70255057811738,154.48832706703897L193.72491807818412,160.23827583603736L193.9485930788517,153.72375719468963L194.01569557905196,65.02239359001808L194.0604305791855,145.08207883585578L194.3064730799198,109.45598269864523L194.44067808032037,149.93733642975954L194.50778058052063,152.82035534366133L194.59725058078766,148.72465991467251L194.9998655819893,114.26448400075867L195.02223308205606,160.81526435607117L195.11170308232306,154.55564996325677L195.17880558252332,143.69964338594554L195.22354058265688,155.90777740435493L195.53668558359146,142.10018550938202L195.6261555838585,81.37689864862827L195.8721980845928,101.53911870965102L195.93930058479307,158.4819620099669L196.38665058612824,92.37862879791471L196.56559058666227,163.17510349499807L196.78926558732985,-3.666885247480593L196.81163308739661,109.84652468818281L197.05767558813093,61.673297640019584L197.57212808966636,-23.967851563231932L197.68396559000016,-145.84195103572455L198.06421309113503,129.98001906164416L199.04838309407236,161.26820623781933L199.0707505941391,145.50879020931234L199.16022059440613,155.07617497464352L199.24969059467315,157.6004707924452L199.6523055958748,149.46237675956684L199.78651059627532,114.30872980543086L200.7483130991459,68.20142955084383L200.92725309967997,155.5390996145175L201.106193100214,104.19060539777537L201.12856060028076,104.59130771647884L201.50880810141564,-5.263636696467984L201.79958560228349,151.83524223955405L201.8890556025505,146.1593104888269L202.13509810328483,154.1472141196016L202.40350810408592,89.91493062831928L202.47061060428618,126.82492049343745L202.5153456044197,39.76328461154131L202.60481560468673,163.0747920581687L202.7837556052208,137.4314060821943L204.1258056092262,104.27828058854475L204.26001060962676,129.4161677370053L204.28237810969352,87.48579145700364L204.6626256108284,72.09205594164064L204.8191981112957,159.87070021127616L205.33365061283112,150.3226686482654L205.42312061309815,146.73850435953645L205.66916311383247,28.93714976936613L205.73626561403273,-55.714516449355386L206.11651311516763,162.4254819916262L206.25071811556816,99.11993984495041L206.54149561643598,139.44506575859893L206.98884561777115,148.27291000404387L207.19015311837197,163.10769857422653L207.54803311944008,138.31587722751473L207.59276811957358,131.96449993817825L207.7940756201744,101.82198733542457L207.99538312077524,-389.5708825023397L208.17432312130927,86.31927626867041L208.6216731226444,158.6970321757027L208.66640812277794,90.38933513388099L208.7335106229782,154.07207911814425L208.77824562311173,159.01821073284657L208.91245062351226,66.71545793829836L209.18086062431334,151.5414662616185L209.2032281243801,160.00928114124332L209.35980062484742,158.5841913926205L209.4269031250477,143.59821562428024L209.53874062538145,13.704820206280885L209.69531312584877,129.14699045073453L209.74004812598227,119.83589580446775L210.8807906293869,144.78111633341376L211.1268331301212,160.26482015521867L211.1939356303215,152.05544359603374L211.3057731306553,136.45364890944776L211.6636531317234,124.34787796223361L211.75312313199044,128.44665026872698L211.7754906320572,153.8537402165388L211.8202256321907,150.76546040607982L212.04390063285828,133.16257786862104L212.1333706331253,126.86712525167212L212.22284063339234,123.35370465299025L212.42414813399316,141.99190799587248L212.4465156340599,75.51722577445776L212.5583531343937,153.51011474093687L212.6478231346607,146.0735661279874L212.67019063472748,145.9310847582782L213.00570313572882,160.78898817936556L213.6990956377983,158.7860309850868L213.9675056385994,155.08950402840364L214.12407813906668,93.50131863714189L214.2359156394005,139.18905730394292L214.54906064033509,25.25041575349013L214.7503681409359,150.97607802901223L215.08588064193725,91.8011351188876L215.3319231426716,162.30119387203388L215.48849564313886,156.36334713339136L215.51086314320563,153.20890016925983L215.71217064380645,145.98039848125467L216.56213564634322,38.056716700030506L216.6292381465435,136.30050103105617L216.673973146677,163.3598893790866L216.74107564687728,150.44602133076233L216.76344314694404,163.2666730023702L216.85291314721107,56.56126007590643L217.5686731493473,107.87320833566186L217.8818181502819,86.92692844985805L218.48574065208433,36.356149465045974L218.6199456524849,146.68479014044067L218.70941565275191,132.47785577395325L219.11203065395355,148.83755325470045L219.22386815428735,151.49274444210886L219.5593806552887,93.42445282830552L219.62648315548898,151.30555395018615L219.69358565568925,145.79802894101735L220.16330315709115,162.25028507126646L220.40934565782547,108.63670257653864L220.70012315869332,146.25611528031123L220.72249065876008,77.29732034283317L220.94616565942766,79.66311359691446L221.01326815962793,154.7150138485738L221.10273815989493,137.4990606484582L221.48298566102983,140.9260796693477L221.52772066116333,149.09802241634563L221.5948231613636,144.45134037841353L222.06454066276552,161.16799289878438L222.10927566289902,144.28091300088204L222.2211131632328,129.9803048081454L222.46715566396713,-110.70283837327003L222.6460956645012,30.773969100332636L222.73556566476822,126.81847078669493L223.1158131659031,145.2852099004554L223.25001816630362,156.37013310253445L223.4736931669712,90.74442822889202L223.51842816710473,72.48401033531297L223.6526331675053,155.9696706067874L223.76447066783905,154.18475610724983L223.8763081681728,146.3834275928969L223.9434106683731,105.57779852693143L224.27892316937448,151.08383405515696L224.30129066944122,59.2426480943402L224.90521317124367,147.7964073027444L225.08415317177773,161.11832939147462L225.3078281724453,136.6481014445951L225.55387067317963,155.85301255660548L226.0235881745815,152.8180999873479L226.4038356757164,159.19050821917642L226.42620317578317,102.08978895639648L227.14196317791937,125.7134441633379L227.16433067798616,69.35848244789281L227.29853567838668,163.55360700995104L228.46164568185804,142.16512548388405L228.5063806819916,102.53962334494352L228.66295318245886,-46.18673206700464L228.73005568265913,155.84574387997992L228.88662818312645,155.26833541464157L229.49055068492888,158.24711767608298L229.9602681863308,147.13882296150967L230.18394318699836,109.17835139803032L230.54182318806647,106.12871778134226L230.5865581882,108.20251484998148L230.6312931883335,54.6594456621841L230.7431306886673,87.82969961753717L231.4588906908035,70.38178148979932L231.5707281911373,80.74005133919857L231.81677069187165,-5.04384048770612L231.83913819193842,151.223562053222L231.86150569200515,132.12953691206832L231.92860819220542,142.08331013743674L232.28648819327353,108.11552136872223L232.89041069507599,125.99497386264845L232.95751319527625,146.96703624705077L233.40486319661142,125.59334490886235L233.53906819701194,144.23190135277827L233.5614356970787,109.37934548700987L234.14299069881437,160.7879566855222L234.2995631992817,161.34291593622527L234.456135699749,151.8163768473322L235.19426320195197,151.4820799744729L235.26136570215223,144.06660720703707L235.68634820342064,59.74583951885646L235.7087157034874,161.30368217621117L235.91002320408822,154.81019294657065L236.0665957045555,114.58496503028252L236.1336982047558,118.2637348829594L236.29027070522307,82.2762653508496L236.35737320542336,119.21310722289957L236.78235570669173,128.91724209954344L236.849458206892,82.65265880648244L237.09550070762634,151.19668351268652L237.34154320836066,148.51084499249578L237.56521820902825,163.39076530906993L237.60995320916174,126.32595811713969L237.6323207092285,152.78526567330778L237.69942320942877,128.71764000423428L238.23624321103094,155.44597993237608L238.34808071136476,161.38223337914332L238.3704482114315,151.38302799086088L238.45991821169852,159.30104517109228L238.88490071296692,160.06386637690628L238.9072682130337,154.21159790894941L239.1085757136345,129.5084801852807L239.28751571416853,160.3666413285848L239.55592571496962,157.17533204526873L240.38352321743963,140.98714573771136L240.45062571763992,120.71402337746044L240.6519332182407,124.23493053447507L240.67430071830748,133.50067312890053L240.80850571870803,154.02535446257372L240.85324071884156,129.60854452792574L241.05454821944238,51.495497116624364L241.83741072177887,150.05022670821782L241.94924822211266,154.87351233020132L242.46370072364806,153.868282672406L242.53080322384832,152.9288083871645L242.59790572404862,148.6252333990392L242.7992132246494,136.45587977320395L243.42550322651863,142.4645816940552L243.96232322812082,163.24299125081745L244.18599822878835,158.14705588474598L245.41621073246003,50.58995828997601L245.55041573286059,125.24865298649684L245.63988573312758,154.29600130227948L245.70698823332788,149.8152838938433L245.9530307340622,102.24820681668972L246.02013323426246,126.07930581935321" fill="none"></path></g></g></g></g></g></g><g transform="translate(61, 178)" clip-path="url(#clip_1)"><clipPath id="clip_1"><rect width="268" height="21"></rect></clipPath><g><g><line x1="0" y1="0" x2="0" y2="5" style="visibility: inherit;" fill="rgb(0, 0, 0)" stroke="rgb(204, 204, 204)" stroke-width="1px"></line><line x1="22.367500066757202" y1="0" x2="22.367500066757202" y2="5" style="visibility: inherit;" fill="rgb(0, 0, 0)" stroke="rgb(204, 204, 204)" stroke-width="1px"></line><line x1="44.735000133514404" y1="0" x2="44.735000133514404" y2="5" style="visibility: inherit;" fill="rgb(0, 0, 0)" stroke="rgb(204, 204, 204)" stroke-width="1px"></line><line x1="67.1025002002716" y1="0" x2="67.1025002002716" y2="5" style="visibility: inherit;" fill="rgb(0, 0, 0)" stroke="rgb(204, 204, 204)" stroke-width="1px"></line><line x1="89.47000026702881" y1="0" x2="89.47000026702881" y2="5" style="visibility: inherit;" fill="rgb(0, 0, 0)" stroke="rgb(204, 204, 204)" stroke-width="1px"></line><line x1="111.83750033378601" y1="0" x2="111.83750033378601" y2="5" style="visibility: inherit;" fill="rgb(0, 0, 0)" stroke="rgb(204, 204, 204)" stroke-width="1px"></line><line x1="134.2050004005432" y1="0" x2="134.2050004005432" y2="5" style="visibility: inherit;" fill="rgb(0, 0, 0)" stroke="rgb(204, 204, 204)" stroke-width="1px"></line><line x1="156.57250046730042" y1="0" x2="156.57250046730042" y2="5" style="visibility: inherit;" fill="rgb(0, 0, 0)" stroke="rgb(204, 204, 204)" stroke-width="1px"></line><line x1="178.94000053405762" y1="0" x2="178.94000053405762" y2="5" style="visibility: inherit;" fill="rgb(0, 0, 0)" stroke="rgb(204, 204, 204)" stroke-width="1px"></line><line x1="201.30750060081482" y1="0" x2="201.30750060081482" y2="5" style="visibility: inherit;" fill="rgb(0, 0, 0)" stroke="rgb(204, 204, 204)" stroke-width="1px"></line><line x1="223.67500066757202" y1="0" x2="223.67500066757202" y2="5" style="visibility: inherit;" fill="rgb(0, 0, 0)" stroke="rgb(204, 204, 204)" stroke-width="1px"></line><line x1="246.04250073432922" y1="0" x2="246.04250073432922" y2="5" style="visibility: inherit;" fill="rgb(0, 0, 0)" stroke="rgb(204, 204, 204)" stroke-width="1px"></line><line x1="268.4100008010864" y1="0" x2="268.4100008010864" y2="5" style="visibility: inherit;" fill="rgb(0, 0, 0)" stroke="rgb(204, 204, 204)" stroke-width="1px"></line></g><g transform="translate(0, 8)"><text style="text-anchor: middle; visibility: hidden; font-family: &quot;Helvetica Neue&quot;, sans-serif; font-size: 12px; font-weight: 200;" x="0" y="0" dx="0em" dy="0.95em" fill="rgb(50, 49, 63)" stroke="none" stroke-width="1px">-1k</text><text style="text-anchor: middle; visibility: inherit; font-family: &quot;Helvetica Neue&quot;, sans-serif; font-size: 12px; font-weight: 200;" x="22.367500066757202" y="0" dx="0em" dy="0.95em" fill="rgb(50, 49, 63)" stroke="none" stroke-width="1px">0</text><text style="text-anchor: middle; visibility: hidden; font-family: &quot;Helvetica Neue&quot;, sans-serif; font-size: 12px; font-weight: 200;" x="44.735000133514404" y="0" dx="0em" dy="0.95em" fill="rgb(50, 49, 63)" stroke="none" stroke-width="1px">1k</text><text style="text-anchor: middle; visibility: inherit; font-family: &quot;Helvetica Neue&quot;, sans-serif; font-size: 12px; font-weight: 200;" x="67.1025002002716" y="0" dx="0em" dy="0.95em" fill="rgb(50, 49, 63)" stroke="none" stroke-width="1px">2k</text><text style="text-anchor: middle; visibility: hidden; font-family: &quot;Helvetica Neue&quot;, sans-serif; font-size: 12px; font-weight: 200;" x="89.47000026702881" y="0" dx="0em" dy="0.95em" fill="rgb(50, 49, 63)" stroke="none" stroke-width="1px">3k</text><text style="text-anchor: middle; visibility: inherit; font-family: &quot;Helvetica Neue&quot;, sans-serif; font-size: 12px; font-weight: 200;" x="111.83750033378601" y="0" dx="0em" dy="0.95em" fill="rgb(50, 49, 63)" stroke="none" stroke-width="1px">4k</text><text style="text-anchor: middle; visibility: hidden; font-family: &quot;Helvetica Neue&quot;, sans-serif; font-size: 12px; font-weight: 200;" x="134.2050004005432" y="0" dx="0em" dy="0.95em" fill="rgb(50, 49, 63)" stroke="none" stroke-width="1px">5k</text><text style="text-anchor: middle; visibility: inherit; font-family: &quot;Helvetica Neue&quot;, sans-serif; font-size: 12px; font-weight: 200;" x="156.57250046730042" y="0" dx="0em" dy="0.95em" fill="rgb(50, 49, 63)" stroke="none" stroke-width="1px">6k</text><text style="text-anchor: middle; visibility: hidden; font-family: &quot;Helvetica Neue&quot;, sans-serif; font-size: 12px; font-weight: 200;" x="178.94000053405762" y="0" dx="0em" dy="0.95em" fill="rgb(50, 49, 63)" stroke="none" stroke-width="1px">7k</text><text style="text-anchor: middle; visibility: inherit; font-family: &quot;Helvetica Neue&quot;, sans-serif; font-size: 12px; font-weight: 200;" x="201.30750060081482" y="0" dx="0em" dy="0.95em" fill="rgb(50, 49, 63)" stroke="none" stroke-width="1px">8k</text><text style="text-anchor: middle; visibility: hidden; font-family: &quot;Helvetica Neue&quot;, sans-serif; font-size: 12px; font-weight: 200;" x="223.67500066757202" y="0" dx="0em" dy="0.95em" fill="rgb(50, 49, 63)" stroke="none" stroke-width="1px">9k</text><text style="text-anchor: middle; visibility: inherit; font-family: &quot;Helvetica Neue&quot;, sans-serif; font-size: 12px; font-weight: 200;" x="246.04250073432922" y="0" dx="0em" dy="0.95em" fill="rgb(50, 49, 63)" stroke="none" stroke-width="1px">10k</text><text style="text-anchor: middle; visibility: hidden; font-family: &quot;Helvetica Neue&quot;, sans-serif; font-size: 12px; font-weight: 200;" x="268.4100008010864" y="0" dx="0em" dy="0.95em" fill="rgb(50, 49, 63)" stroke="none" stroke-width="1px">11k</text></g><line x1="0" y1="0" x2="268.4100008010864" y2="0" fill="rgb(0, 0, 0)" stroke="rgb(204, 204, 204)" stroke-width="1px"></line></g></g></g></g></svg>