<svg viewBox="0 0 330 200" xmlns="http://www.w3.org/2000/svg"><g><g><g><g><g><line x1="61.589999198913574" y1="178.0640001296997" x2="56.589999198913574" y2="178.0640001296997" style="visibility: inherit;" fill="rgb(0, 0, 0)" stroke="rgb(204, 204, 204)" stroke-width="1px"></line><line x1="61.589999198913574" y1="158.27911122639975" x2="56.589999198913574" y2="158.27911122639975" style="visibility: inherit;" fill="rgb(0, 0, 0)" stroke="rgb(204, 204, 204)" stroke-width="1px"></line><line x1="61.589999198913574" y1="138.49422232309976" x2="56.589999198913574" y2="138.49422232309976" style="visibility: inherit;" fill="rgb(0, 0, 0)" stroke="rgb(204, 204, 204)" stroke-width="1px"></line><line x1="61.589999198913574" y1="118.7093334197998" x2="56.589999198913574" y2="118.7093334197998" style="visibility: inherit;" fill="rgb(0, 0, 0)" stroke="rgb(204, 204, 204)" stroke-width="1px"></line><line x1="61.589999198913574" y1="98.92444451649983" x2="56.589999198913574" y2="98.92444451649983" style="visibility: inherit;" fill="rgb(0, 0, 0)" stroke="rgb(204, 204, 204)" stroke-width="1px"></line><line x1="61.589999198913574" y1="79.13955561319986" x2="56.589999198913574" y2="79.13955561319986" style="visibility: inherit;" fill="rgb(0, 0, 0)" stroke="rgb(204, 204, 204)" stroke-width="1px"></line><line x1="61.589999198913574" y1="59.3546667098999" x2="56.589999198913574" y2="59.3546667098999" style="visibility: inherit;" fill="rgb(0, 0, 0)" stroke="rgb(204, 204, 204)" stroke-width="1px"></line><line x1="61.589999198913574" y1="39.569777806599944" x2="56.589999198913574" y2="39.569777806599944" style="visibility: inherit;" fill="rgb(0, 0, 0)" stroke="rgb(204, 204, 204)" stroke-width="1px"></line><line x1="61.589999198913574" y1="19.784888903299986" x2="56.589999198913574" y2="19.784888903299986" style="visibility: inherit;" fill="rgb(0, 0, 0)" stroke="rgb(204, 204, 204)" stroke-width="1px"></line><line x1="61.589999198913574" y1="0" x2="56.589999198913574" y2="0" style="visibility: inherit;" fill="rgb(0, 0, 0)" stroke="rgb(204, 204, 204)" stroke-width="1px"></line></g><g transform="translate(51.589999198913574, 0)"><text style="text-anchor: end; visibility: hidden; font-family: &quot;Helvetica Neue&quot;, sans-serif; font-size: 12px; font-weight: 200;" x="0" y="178.0640001296997" dx="0em" dy="0.3em" fill="rgb(50, 49, 63)" stroke="none" stroke-width="1px">-0.05</text><text style="text-anchor: end; visibility: inherit; font-family: &quot;Helvetica Neue&quot;, sans-serif; font-size: 12px; font-weight: 200;" x="0" y="158.27911122639975" dx="0em" dy="0.3em" fill="rgb(50, 49, 63)" stroke="none" stroke-width="1px">0</text><text style="text-anchor: end; visibility: hidden; font-family: &quot;Helvetica Neue&quot;, sans-serif; font-size: 12px; font-weight: 200;" x="0" y="138.49422232309976" dx="0em" dy="0.3em" fill="rgb(50, 49, 63)" stroke="none" stroke-width="1px">0.05</text><text style="text-anchor: end; visibility: inherit; font-family: &quot;Helvetica Neue&quot;, sans-serif; font-size: 12px; font-weight: 200;" x="0" y="118.7093334197998" dx="0em" dy="0.3em" fill="rgb(50, 49, 63)" stroke="none" stroke-width="1px">0.1</text><text style="text-anchor: end; visibility: hidden; font-family: &quot;Helvetica Neue&quot;, sans-serif; font-size: 12px; font-weight: 200;" x="0" y="98.92444451649983" dx="0em" dy="0.3em" fill="rgb(50, 49, 63)" stroke="none" stroke-width="1px">0.15</text><text style="text-anchor: end; visibility: inherit; font-family: &quot;Helvetica Neue&quot;, sans-serif; font-size: 12px; font-weight: 200;" x="0" y="79.13955561319986" dx="0em" dy="0.3em" fill="rgb(50, 49, 63)" stroke="none" stroke-width="1px">0.2</text><text style="text-anchor: end; visibility: hidden; font-family: &quot;Helvetica Neue&quot;, sans-serif; font-size: 12px; font-weight: 200;" x="0" y="59.3546667098999" dx="0em" dy="0.3em" fill="rgb(50, 49, 63)" stroke="none" stroke-width="1px">0.25</text><text style="text-anchor: end; visibility: inherit; font-family: &quot;Helvetica Neue&quot;, sans-serif; font-size: 12px; font-weight: 200;" x="0" y="39.569777806599944" dx="0em" dy="0.3em" fill="rgb(50, 49, 63)" stroke="none" stroke-width="1px">0.3</text><text style="text-anchor: end; visibility: hidden; font-family: &quot;Helvetica Neue&quot;, sans-serif; font-size: 12px; font-weight: 200;" x="0" y="19.784888903299986" dx="0em" dy="0.3em" fill="rgb(50, 49, 63)" stroke="none" stroke-width="1px">0.35</text><text style="text-anchor: end; visibility: hidden; font-family: &quot;Helvetica Neue&quot;, sans-serif; font-size: 12px; font-weight: 200;" x="0" y="0" dx="0em" dy="0.3em" fill="rgb(50, 49, 63)" stroke="none" stroke-width="1px">0.4</text></g><line x1="61.589999198913574" y1="0" x2="61.589999198913574" y2="178.0640001296997" fill="rgb(0, 0, 0)" stroke="rgb(204, 204, 204)" stroke-width="1px"></line></g></g><g transform="translate(61, 0)" clip-path="url(#clip_0)"><clipPath id="clip_0"><rect width="268" height="178"></rect></clipPath><g><g><g><line x1="0" y1="0" x2="0" y2="178.0640001296997" fill="rgb(0, 0, 0)" stroke="rgb(60, 60, 60)" stroke-width="1px" opacity="0.25"></line><line x1="22.367500066757202" y1="0" x2="22.367500066757202" y2="178.0640001296997" fill="rgb(0, 0, 0)" stroke="rgb(60, 60, 60)" stroke-width="1px" opacity="0.25"></line><line x1="44.735000133514404" y1="0" x2="44.735000133514404" y2="178.0640001296997" fill="rgb(0, 0, 0)" stroke="rgb(60, 60, 60)" stroke-width="1px" opacity="0.25"></line><line x1="67.1025002002716" y1="0" x2="67.1025002002716" y2="178.0640001296997" fill="rgb(0, 0, 0)" stroke="rgb(60, 60, 60)" stroke-width="1px" opacity="0.25"></line><line x1="89.47000026702881" y1="0" x2="89.47000026702881" y2="178.0640001296997" fill="rgb(0, 0, 0)" stroke="rgb(60, 60, 60)" stroke-width="1px" opacity="0.25"></line><line x1="111.83750033378601" y1="0" x2="111.83750033378601" y2="178.0640001296997" fill="rgb(0, 0, 0)" stroke="rgb(60, 60, 60)" stroke-width="1px" opacity="0.25"></line><line x1="134.2050004005432" y1="0" x2="134.2050004005432" y2="178.0640001296997" fill="rgb(0, 0, 0)" stroke="rgb(60, 60, 60)" stroke-width="1px" opacity="0.25"></line><line x1="156.57250046730042" y1="0" x2="156.57250046730042" y2="178.0640001296997" fill="rgb(0, 0, 0)" stroke="rgb(60, 60, 60)" stroke-width="1px" opacity="0.25"></line><line x1="178.94000053405762" y1="0" x2="178.94000053405762" y2="178.0640001296997" fill="rgb(0, 0, 0)" stroke="rgb(60, 60, 60)" stroke-width="1px" opacity="0.25"></line><line x1="201.30750060081482" y1="0" x2="201.30750060081482" y2="178.0640001296997" fill="rgb(0, 0, 0)" stroke="rgb(60, 60, 60)" stroke-width="1px" opacity="0.25"></line><line x1="223.67500066757202" y1="0" x2="223.67500066757202" y2="178.0640001296997" fill="rgb(0, 0, 0)" stroke="rgb(60, 60, 60)" stroke-width="1px" opacity="0.25"></line><line x1="246.04250073432922" y1="0" x2="246.04250073432922" y2="178.0640001296997" fill="rgb(0, 0, 0)" stroke="rgb(60, 60, 60)" stroke-width="1px" opacity="0.25"></line><line x1="268.4100008010864" y1="0" x2="268.4100008010864" y2="178.0640001296997" fill="rgb(0, 0, 0)" stroke="rgb(60, 60, 60)" stroke-width="1px" opacity="0.25"></line></g><g><line x1="0" y1="178.0640001296997" x2="268.4100008010864" y2="178.0640001296997" fill="rgb(0, 0, 0)" stroke="rgb(60, 60, 60)" stroke-width="1px" opacity="0.25"></line><line x1="0" y1="158.27911122639975" x2="268.4100008010864" y2="158.27911122639975" fill="rgb(0, 0, 0)" stroke="rgb(60, 60, 60)" stroke-width="1px" opacity="0.25"></line><line x1="0" y1="138.49422232309976" x2="268.4100008010864" y2="138.49422232309976" fill="rgb(0, 0, 0)" stroke="rgb(60, 60, 60)" stroke-width="1px" opacity="0.25"></line><line x1="0" y1="118.7093334197998" x2="268.4100008010864" y2="118.7093334197998" fill="rgb(0, 0, 0)" stroke="rgb(60, 60, 60)" stroke-width="1px" opacity="0.25"></line><line x1="0" y1="98.92444451649983" x2="268.4100008010864" y2="98.92444451649983" fill="rgb(0, 0, 0)" stroke="rgb(60, 60, 60)" stroke-width="1px" opacity="0.25"></line><line x1="0" y1="79.13955561319986" x2="268.4100008010864" y2="79.13955561319986" fill="rgb(0, 0, 0)" stroke="rgb(60, 60, 60)" stroke-width="1px" opacity="0.25"></line><line x1="0" y1="59.3546667098999" x2="268.4100008010864" y2="59.3546667098999" fill="rgb(0, 0, 0)" stroke="rgb(60, 60, 60)" stroke-width="1px" opacity="0.25"></line><line x1="0" y1="39.569777806599944" x2="268.4100008010864" y2="39.569777806599944" fill="rgb(0, 0, 0)" stroke="rgb(60, 60, 60)" stroke-width="1px" opacity="0.25"></line><line x1="0" y1="19.784888903299986" x2="268.4100008010864" y2="19.784888903299986" fill="rgb(0, 0, 0)" stroke="rgb(60, 60, 60)" stroke-width="1px" opacity="0.25"></line><line x1="0" y1="0" x2="268.4100008010864" y2="0" fill="rgb(0, 0, 0)" stroke="rgb(60, 60, 60)" stroke-width="1px" opacity="0.25"></line></g></g></g><g><g><line x1="0" y1="158.27911122639975" x2="268.4100008010864" y2="158.27911122639975" fill="rgb(0, 0, 0)" stroke="rgb(153, 153, 153)" stroke-width="1.5px"></line></g></g><g><g><line x1="22.367500066757202" y1="0" x2="22.367500066757202" y2="178.0640001296997" fill="rgb(0, 0, 0)" stroke="rgb(153, 153, 153)" stroke-width="1.5px"></line></g></g><g><g><g><g><g><path style="fill: none;" stroke="rgb(255, 112, 67)" stroke-width="2px" d="M22.77011506795883,158.1650414100193L22.904320068359375,158.01061938502426L23.26220006942749,157.9531079169857L23.306935069561003,157.3003369423693L23.374037569761278,156.84008535076904L23.620080070495604,157.41720706402816L23.95559257149696,157.24654185814L24.022695071697235,156.6285276935974L24.470045073032377,156.85655430345994L24.738455073833464,157.2745262696414L25.18580507516861,157.2977846065438L25.83446257710457,157.1751140077867L25.90156507730484,157.27418050727266L26.102872577905657,156.7378911845699L26.460752578973768,156.73104554287357L26.505487579107285,156.65338740839235L27.489657582044604,157.03036384704927L27.60149508237839,157.38379673907312L27.937007583379746,157.6333367503628L28.071212583780287,157.29273837018224L28.183050084114075,156.18376085459983L28.339622584581374,155.40475148077957L28.47382758498192,151.90786269523693L29.25669008731842,113.88855668616164L29.301425087451932,127.30175216210864L29.480365087985994,137.75347379295093L29.950082589387897,144.04536700989948L30.129022589921952,141.06713164208034L30.576372591257094,145.14440790974243L31.784217594861985,138.21701214543577L31.80658509492874,143.30042824601313L32.18683259606362,147.01606236284832L32.25393509626389,149.57386219160827L32.32103759646416,116.40844085357634L32.65655009746552,93.23111635149252L32.72365259766579,114.18785388075273L32.74602009773254,118.1329053098845L32.969695098400116,131.95930005814358L33.394677599668505,138.3883270037379L33.86439510107041,130.89089676931772L34.244642602205275,139.53348417989446L34.35648010253907,117.52252090446109L34.96040260434151,128.43340966068013L35.18407760500908,62.90105823913798L35.31828260540962,95.10777105768074L35.47485510587692,90.00343013773382L35.49722260594368,88.02428342846034L36.23535010814667,110.63568374517952L36.28008510828018,123.28686990886408L36.548495109081266,136.31570014038326L36.70506760954857,139.55535213107015L36.72743510961533,143.47605098991886L36.77217010974884,148.20548245452866L36.83927260994911,149.76348768658872L36.88400761008263,149.72534219973525L37.15241761088371,151.96374111296683L37.376092611551286,143.72133813252128L38.33789511442185,139.65591338197004L38.516835114955896,135.2678927020874L38.69577511548996,127.57413737942935L38.89708261609078,137.38420863819996L39.18786011695862,128.16978118621577L39.27733011722565,127.91405579269073L39.478637617826465,132.62196768056066L39.56810761809349,133.76556573125174L39.612842618227006,137.9172301891737L39.65757761836052,128.28901422417766L39.814150118827826,125.58498256272864L39.9259876191616,132.41683068225902L39.970722619295124,140.02410266649733L40.08256011962891,142.82870153991496L40.12729511976242,141.84925183319956L40.21676512002945,131.2196619752357L40.30623512029648,134.32732113518415L40.44044012069702,128.32790014222422L40.462807620763776,106.31691368143532L40.9772601222992,123.927393429144L41.06673012256622,135.93416040313932L41.80485762476921,144.53219625574374L41.96143012523651,148.9214960158123L42.09563512563705,137.07524331206562L42.408780126571656,135.0489067538801L42.498250126838684,142.11286455136505L42.65482262730599,147.50594392565696L42.699557627439496,142.38303066621654L42.87849762797356,141.33062679072435L43.19164262890816,143.53110832173687L43.21401012897491,148.2603960209852L43.43768512964249,151.68868360606956L43.50478762984276,152.5567811916726L43.70609513044357,150.49105443095615L43.885035130977634,152.24905722913897L44.08634263157845,151.82229220255059L44.1087101316452,145.97408280895948L44.242915132045745,141.56347515286134L44.2652826321125,144.6500995363071L44.37712013244629,141.8916175957819L44.77973513364792,130.8988238010191L44.84683763384819,132.10163544615233L45.04814513444901,123.84073647891101L45.71917013645172,124.66522074287985L46.00994763731956,130.67606825866685L46.144152637720104,123.82488872604031L46.211255137920375,68.86721360479896L46.255990138053896,83.76114707946881L46.345460138320924,103.20007473328222L46.479665138721465,111.05153598791416L46.59150263905526,118.57713987363344L46.815177639722826,102.72052135240432L46.94938264012337,122.54957949872093L47.06122014045715,134.35528432815818L47.28489514112473,136.61633147966057L48.224330143928526,142.38885397503068L48.313800144195554,121.95244889669712L48.33616764426232,128.53087841410886L48.358535144329075,124.5834460866096L48.7611501455307,136.1254234452898L49.051927646398546,121.43476388579185L49.342705147266386,112.29956626806923L49.92426014900207,124.86027931458102L50.19267014980316,134.99831872915243L50.4387126505375,108.31025263120125L50.50581515073777,105.39174639223135L50.57291765093804,121.76991398804017L51.020267652273176,134.5571238966358L51.15447265267372,130.41849582887602L51.31104515314102,119.02887032522678L51.445250153541565,124.63409560260683L51.80313015460968,95.1443439320474L51.87023265480995,103.4489716151662L52.11627515554428,111.98636666571156L52.18337765574455,94.93501780011671L52.25048015594482,114.6828580288211L52.272847656011585,105.30048749626503L53.34648765921593,116.94228664870026L53.4135901594162,132.20041095450892L53.48069265961647,132.17615117731282L53.50306015968323,141.2116139131369L53.99514516115188,143.80754080900147L54.26355516195297,128.336502284484L54.48723016262055,136.89103410588703L54.576700162887576,140.79388764821567L55.135887664556506,128.81246332671768L55.158255164623256,78.87827626591017L55.40429766535759,108.81580533361503L55.58323766589165,121.44137908285865L55.67270766615868,118.97663293785332L55.71744266629219,125.09605413722875L56.43320266842842,129.07765708460525L56.522672668695456,96.8255911890458L57.08186017036438,84.97859723933281L57.4397401714325,96.5410093170399L57.46210767149925,29.691138021373433L57.79762017250061,40.513252916875075L57.88709017276764,50.08871007082911L58.24497017383575,76.51258636080412L58.26733767390251,96.793931879284L58.75942267537117,113.70351585029375L58.871260175704954,122.28265446308896L58.983097676038746,123.08048220936081L59.05020017623902,128.3417600941089L59.1620376765728,132.6833636707419L59.22914017677307,134.93374252975417L59.49755017757416,10.751937699142246L59.67649017810821,42.17528868403653L59.833062678575516,5.394540026194022L59.989635179042814,50.14498809610781L60.19094267964363,-28.197184220141764L60.28041267991066,-85.02420408755194L60.325147680044175,10.741206848318L60.36988268017768,30.5431458214901L60.43698518037796,7.71576118528651L60.593557680845265,54.12304310410603L60.79486518144608,63.57872039886482L61.01854018211365,77.12414697879255L61.108010182380674,91.31948714336626L61.15274518251419,56.70921473826621L61.21984768271446,84.74430025871652L61.33168518304825,99.2924205777345L61.39878768324852,106.66782897557044L61.42115518331528,119.12301338195812L61.868505184650424,118.01788129952129L62.069812685251236,125.10133069003793L62.204017685651785,20.681594197065778L62.36059018611908,46.316172253767775L62.38295768618583,-40.02958011252986L62.58426518678665,37.86083255544912L62.74083768725396,78.52339724591477L63.21055518865585,92.95474587936197L63.30002518892288,110.25415293363669L63.52370018959046,108.76404793050878L63.61317018985748,102.60347498305912L63.8144776904583,38.35108661036648L64.10525519132614,69.9023979938623L64.17235769152641,98.70445722877406L64.30656269192696,86.68821979188272L64.35129769206047,40.81507563240157L65.11179269433022,27.249713773717957L65.24599769473076,73.17045350883564L65.62624519586564,46.396915768278404L65.8499201965332,66.98243581395913L65.91702269673347,71.38932509909515L65.96175769686698,-57.902130888415826L66.36437269806862,-8.509675369742013L66.67751769900322,49.1748371529269L66.72225269913673,73.00783188217594L67.12486770033836,98.8839446011445L67.2143377006054,101.65271372644695L67.39327770113945,118.082840812336L67.77352520227433,127.54817668589234L67.90773020267487,135.43950302816108L68.44455020427704,107.70774126622545L68.73532770514488,125.92188311785175L68.80243020534516,117.90310716244457L68.82479770541191,121.72819467645232L68.86953270554542,85.2314346383757L68.91426770567894,110.30450056720262L69.00373770594597,125.35055361668196L69.09320770621301,134.62720832888004L69.2497802066803,142.61540076962703L69.58529270768165,125.73455875300522L70.3457877099514,103.87895308821307L70.43525771021844,96.17995666737039L70.59183021068573,84.16992186333322L70.79313771128655,105.08741412157015L71.06154771208763,123.82493204574791L71.2852227127552,108.08411575709407L71.32995771288871,106.48589090232814L71.37469271302224,115.2260848595501L71.486530213356,121.8943021975594L71.5536327135563,128.73586478540307L71.73257271409034,134.8068798699784L71.82204271435738,131.6054052892032L72.26939271569252,121.06592963743012L72.38123021602631,132.12133661003776L72.40359771609306,111.95248592889102L72.44833271622659,111.5834246734087L72.51543521642685,127.96408910174532L72.60490521669388,-123.94038184649037L72.62727271676064,-32.48302158214409L72.78384521722793,24.10141221930658L72.8509477174282,49.7007032885131L72.96278521776199,54.50358770585933L73.38776771903038,91.82992807077723L73.61144271969795,74.30746419602063L73.74564772009849,103.64428430639674L73.87985272049903,109.50810320692615L73.96932272076607,126.91370785644551L74.23773272156716,122.41453832445617L74.2601002216339,125.63878745198969L74.81928772330284,123.06124101642246L75.02059522390367,95.02651259090132L75.80345772624015,115.3008079973473L75.8258252263069,120.5851392560466L75.87056022644043,121.8343666534324L76.85473022937775,48.72173738102006L77.03367022991179,77.02004993374119L77.19024273037911,101.69358087937235L77.23497773051263,116.65431964405528L77.27971273064612,119.41297019788647L77.39155023097992,129.17573132590462L77.95073773264885,121.09788568917668L77.9731052327156,132.57660446376352L78.19678023338318,141.19388653696043L78.2415152335167,134.60928089093227L78.35335273385047,112.67297368339713L78.66649773478507,121.13914541771405L78.80070273518561,132.83277312544683L79.00201023578644,138.4212991798726L79.33752273678779,136.44220530568222L79.42699273705482,102.56212275191074L79.47172773718833,120.0428207614087L80.03091523885728,121.46399579167854L80.29932523965836,112.63037175017782L80.52300024032593,87.07917550656491L80.65720524072647,114.5109322629682L81.03745274186134,129.83119780318123L81.17165774226189,125.79023438669981L81.19402524232864,128.99324381626286L81.50717024326323,94.27328903318772L81.64137524366379,105.65023125956222L81.75321274399757,104.6429503557198L82.26766524553298,120.08192598623974L82.42423774600029,124.09104343408457L82.53607524633408,120.15665246959489L82.82685274720191,102.85572986984539L82.98342524766922,101.41001946674854L83.31893774867058,76.0890448172201L83.58734774947166,102.1008446167233L83.65445024967192,53.41163000158771L83.96759525060654,87.92203936219995L84.75045775294303,115.33727011355217L84.7728252530098,131.9537120749658L84.79519275307656,129.90157082771668L85.19780775427819,140.18448428860236L85.53332025527953,-8.771296234944089L86.60696025848388,48.972428490851115L86.8082677590847,86.88420523045421L87.00957525968552,112.09882742978769L87.14378026008606,122.39159439619571L87.61349776148796,130.03680760283345L87.65823276162148,136.63122741047522L87.68060026168823,142.13830409253245L88.73187276482582,146.13338018664683L88.91081276535988,117.59019820259994L89.4252652668953,93.02828313614832L89.6265727674961,115.0984942955181L89.71604276776314,121.15234993857683L89.80551276803017,134.19782716520456L90.07392276883125,139.98033051996504L90.14102526903152,141.33896259971837L90.31996526956559,142.27609264866086L90.38706776976585,118.89810598915692L90.92388777136803,83.25229504197414L91.01335777163506,110.44112618235917L91.05809277176857,82.61893145193551L91.68438277363778,-628.0535538253749L92.7132877767086,-35.79674534943351L92.82512527704239,18.815122956119495L92.93696277737618,60.66139805993993L93.07116777777672,92.75807659684935L93.42904777884483,79.37218851663462L93.83166278004647,97.66079592474355L93.85403028011322,87.4313527187731L94.01060278058053,61.06964198616531L94.07770528078079,-38.609011125556975L94.61452528238296,31.0316029598861L94.68162778258323,55.01225117422727L94.83820028305054,85.88449752262042L94.90530278325082,105.24507722824276L94.92767028331757,121.63213751285392L94.97240528345108,94.72119945097133L94.99477278351783,48.26949225167658L95.55396028518676,84.50954961829925L95.75526778578758,110.85771057547915L96.29208778738976,102.72376074127884L96.47102778792382,115.98240974149073L96.78417278885841,131.74813538340769L96.80654028892518,137.35613770804696L97.18678779006004,131.89642208057484L97.835445291996,140.9105112831645L97.88018029212951,140.1504529618686L98.10385529279709,144.60445661438516L98.48410279393197,145.64485850761034L98.59594029426574,149.62787473467304L99.0880252957344,151.4483619285306L99.26696529626847,152.47593804840668L99.5130077970028,154.3080863532966L99.55774279713631,142.19570140268445L99.7143152976036,142.763015049658L99.84852029800415,145.9656308281037L100.00509279847145,146.95152578072572L100.139297798872,149.0643365534887L100.20640029907227,152.4691122044377L100.58664780020715,149.0499156535971L100.85505780100821,149.0699189115627L100.92216030120849,144.60484253031245L101.0787328016758,147.85683279140855L101.43661280274391,145.85617540067508L101.48134780287742,146.92722814140544L101.61555280327796,151.1860194193094L101.705022803545,149.22412147427332L102.0629028046131,141.70217010360702L102.44315030574798,147.7543624559769L102.89050030708313,150.01708195964102L103.29311530828477,110.21988234641259L103.33785030841828,121.89008842833267L103.38258530855178,131.95927083331514L103.44968780875206,141.9931548277008L103.51679030895232,146.6303546507011L103.8970378100872,147.14381130010324L104.14308031082153,147.46666008473122L104.45622531175613,140.40546269509747L105.12725031375885,120.07718440314211L105.17198531389236,131.85254001681363L105.70880531549453,139.2883514707164L105.79827531576157,143.6117271032328L105.84301031589507,128.39050840691866L105.97721531629561,133.805535921767L106.04431781649589,122.91848437576994L106.0890528166294,135.78771453134434L106.29036031723022,140.76031158205157L106.44693281769753,146.0246181950101L106.73771031856536,141.01715572680573L106.91665031909942,142.71775659540373L107.20742781996726,145.84484751267235L107.25216282010079,147.3831223259824L107.31926532030106,151.42241736090529L107.67714532136917,130.5791835473025L107.78898282170296,117.41462025205237L107.83371782183647,132.6923983348044L108.05739282250404,140.38072548109713L108.14686282277107,144.41993730621482L108.79552032470703,148.4745762660734L108.90735782504082,149.17368920777406L109.06393032550811,141.34861234439444L110.04810032844543,146.79811057410143L110.2270403289795,138.77818803907905L110.38361282944679,134.59458445225354L110.47308282971383,127.55289435600143L110.71912533044815,135.01217703841834L110.85333033084869,127.42121388860528L110.98753533124923,139.00791467089115L111.4796203327179,136.38928360073425L111.72566283345223,124.55446836338548L111.83750033378601,121.06794897861207L112.03880783438683,127.41687669177497L112.06117533445358,121.68592988417973L112.32958533525466,129.74713236185266L112.575627835989,128.9022952501972L112.64273033618927,81.42792382430528L112.86640533685684,97.5100320721744L113.91767783999443,21.034668819621515L114.02951534032822,45.96077810985517L114.05188284039497,2.841189607227818L114.27555784106255,45.95670703446743L115.90838534593583,36.54640971432724L116.15442784667016,59.533100618721875L116.17679534673691,33.60792608684096L116.22153034687042,68.17787073514617L116.26626534700394,74.77765199948422L116.33336784720422,98.06009404709167L116.35573534727097,89.84974376570504L116.9149228489399,102.4501675379382L117.02676034927369,105.25187706105581L117.09386284947396,101.60724647855574L117.27280285000802,106.92858762281679L117.51884535074234,123.27664540915174L117.72015285134316,128.19252760234428L117.78725535154344,137.51908013750986L117.80962285161019,124.58022342163017L118.14513535261153,77.99403484023753L118.50301535367966,99.88202160915228L118.6372203540802,118.34483887212784L118.72669035434724,98.06107178632335L118.92799785494805,79.67514859378473L118.97273285508155,96.95633663588578L119.17404035568238,97.17678097472519L119.2635103559494,116.89627322138719L119.50955285668373,101.09522597443282L120.09110785841942,101.3297221319158L120.29241535902023,119.59663950635445L120.6279278600216,109.69033296748545L120.78450036048889,116.48270829596493L120.91870536088943,128.98428471853163L121.00817536115646,139.59551898059664L121.03054286122322,120.27726395575898L121.45552536249161,34.005181424747235L121.52262786269188,48.587021557889244L122.32785786509514,-311.2753808991132L124.20672787070274,-11.836664955794703L124.76591537237167,33.35066291516168L124.83301787257194,77.76412021077573L125.07906037330628,81.80943461468497L125.14616287350654,88.98375147203949L125.19089787364005,60.60970623160158L125.23563287377358,86.60334280228844L125.50404287457467,86.37692836184279L125.88429037570953,111.90923948699893L126.35400787711144,127.18802414691211L126.51058037757873,135.56167190838752L126.68952037811279,132.2022659971126L126.77899037837982,81.14519130625767L126.93556287884712,35.82069346277126L126.95793037891387,35.30919608108067L126.98029787898064,75.31069904977959L127.2039728796482,86.43657766948147L127.7855278813839,77.88821269205047L127.89736538171768,96.12151994873716L128.2552453827858,97.04966099304782L128.50128788352012,118.83692599344977L128.59075788378718,123.2935529387714L128.6131253838539,133.9907097751556L128.79206538438797,131.86728111837877L128.92627038478852,128.00834855558313L128.9933728849888,130.4700471378743L129.1946803855896,128.16716457928374L129.28415038585663,137.690910668051L129.44072288632393,141.016605086266L129.4630903863907,144.76671017593492L129.59729538679122,142.49358568167196L129.73150038719177,147.21602172373989L129.77623538732527,139.5489414732018L129.84333788752556,141.72784332981954L130.62620038986208,145.69379345417133L130.89461039066316,145.10522823867336L131.31959289193153,147.8521232382322L131.36432789206503,148.15934919747946L131.83404539346694,151.221095480955L132.2813953948021,136.87557313221697L132.81821539640427,144.2379607632182L132.88531789660453,132.08721802586786L133.17609539747238,122.83075971150868L133.35503539800644,136.4707145714111L133.55634289860726,140.35311217195257L133.62344539880752,146.0803700212313L133.66818039894105,149.9619894091375L133.69054789900778,152.14702869792916L134.67471790194512,152.55881348022913L134.80892290234564,148.0465120557696L134.8760254025459,148.47351632292106L135.03259790301323,144.92495400932015L135.32337540388107,142.6807775290119L135.36811040401457,142.5008380367475L135.39047790408134,131.92732350806403L135.54705040454866,140.98528053109465L135.94966540575027,131.97172700687256L136.46411790728567,120.32024855810269L136.5759554076195,123.40103512667935L137.0233054089546,90.13876268302275L137.06804040908816,110.47107850378012L137.20224540948868,115.20291307579095L137.78380041122435,81.86178241853939L137.89563791155817,104.16870169642279L138.27588541269301,81.44508100691597L138.67850041389465,104.25402845301409L138.8574404144287,114.53327408785401L139.3718929159641,104.82478287025965L139.46136291623114,120.56880622718174L139.5508329164982,118.83011758159182L139.57320041656496,130.737312177192L140.15475541830062,122.97358838132915L140.66920791983605,133.07781391295327L141.31786542177198,136.48045098322515L141.56390792250633,137.6802204495341L141.92178792357447,127.41671917549778L142.23493292450905,129.7272508205122L142.25730042457582,114.13768267512086L142.70465042591093,82.50648379563604L143.24147042751312,81.20804330488775L143.59935042858123,66.41330924598967L144.0243329298496,94.07635967127966L144.0914354300499,115.66387242621192L144.2032729303837,113.49328260433609L145.0308704328537,12.336150010234178L145.18744293332102,49.27320156346758L145.27691293358802,82.73507305700659L145.41111793398855,5.07243320824162L145.5453229343891,54.937090961863774L145.6571604347229,48.069610195557715L145.7242629349232,56.43015390212727L145.7689979350567,94.3928233271469L146.30581793665885,-130.1144183362581L147.73733794093133,-0.9525368942992429L147.8491754412651,56.382654990283626L148.07285044193267,76.546854324503L148.29652544260026,85.4638533303456L148.92281544446945,108.17925623008134L148.96755044460298,76.43866072208813L149.05702044487,102.55079162313861L149.39253294587135,100.38531155096862L150.30960044860842,51.10099890224981L150.37670294880868,73.79465759403422L150.7793179500103,86.54143034452474L151.18193295121193,107.06868293211545L151.5621804523468,124.05538388477731L151.62928295254707,119.46289404329701L151.74112045288086,82.20637791873423L151.85295795321463,-23.0792275544606L152.2555729544163,37.668342074534934L152.27794045448303,69.88162894727925L152.6581879556179,74.97133677769251L152.72529045581817,96.59695052844398L152.8818629562855,116.38599372131802L153.48578545808792,129.92998711792268L153.53052045822142,127.30895523714646L153.68709295868874,112.97293097334219L154.08970795989035,116.03260881564849L154.29101546049117,129.93579057480366L154.492322961092,126.47914418074713L154.71599796175957,110.30297759767252L154.96204046249392,127.86365072905383L155.05151046276092,99.80654743455219L155.07387796282768,106.49395837348857L155.49886046409608,79.02779249362773L155.61069796442985,105.93083541419587L155.65543296456337,123.07812524985457L155.7449029648304,112.95853814235316L155.9462104654312,113.62261712341262L156.34882546663286,126.26129891821634L156.79617546796797,132.53632468066996L156.90801296830176,127.54692194865078L157.1093204689026,96.65231275780631L157.24352546930314,119.79273971816674L157.26589296936987,115.73863560263104L157.35536296963693,128.90860959293042L157.4224654698372,130.3472823093968L157.91455047130586,136.64089690300568L158.31716547250747,142.47587931519936L158.4066354727745,141.65860259427262L158.5184729731083,147.35322989990573L158.8763529741764,145.7308748752418L158.9210879743099,146.00919935529402L159.14476297497748,149.9979104995686L159.27896797537804,148.2537386541067L159.32370297551157,135.5908598201986L159.4579079759121,132.57261670967978L159.5026429760456,137.839927089051L159.54737797617912,145.48733198824593L159.81578797698023,148.38343548263796L159.86052297711373,145.59465023058692L159.90525797724723,148.06609100960375L160.41971047878266,150.06115736182883L160.62101797938348,152.82528404188946L160.68812047958374,147.9760626651463L161.04600048065186,142.95107696300497L161.29204298138617,148.4193318493185L161.3367779815197,145.79238591997142L161.47098298192026,142.2694508079866L161.76176048278808,148.43852652361852L161.87359798312187,147.15974805646613L162.0301704835892,148.23882739031072L162.16437548398972,149.03192059461873L162.45515298485753,151.74631907562326L163.03670798659326,152.15700340099923L163.55116048812866,153.20830850554378L163.6406304883957,154.6093661370648L163.66299798846245,154.05788195780158L163.81957048892974,142.02244146297187L164.19981799006462,147.19558979355367L164.44586049079896,149.9548985261165L164.69190299153328,141.77946799694575L164.84847549200057,144.74396715575685L164.98268049240113,145.66663923405827L165.5195004940033,148.44006499242164L166.74971299767495,146.0216979207556L166.83918299794198,148.8081746719206L167.12996049880982,152.22833761084627L167.46547299981117,154.27299966343827L167.64441300034525,154.42946828502215L167.666780500412,146.63353537804048L167.75625050067902,150.70262677420345L167.9799255013466,152.31654782116703L168.20360050201418,135.7270535561733L168.22596800208092,143.83103588282927L168.24833550214768,147.69197742494543L168.4272755026817,148.45502211305498L168.87462550401688,144.06042298913118L169.41144550561904,146.9228566548917L169.56801800608636,142.22360054325264L169.63512050628663,147.43552305554002L169.8587955069542,144.93136708220325L170.06010300755503,149.79837374061356L170.1272055077553,145.62440527095296L170.35088050842288,147.9865842818127L170.46271800875664,145.0095908253586L171.2679480111599,146.4176426314106L171.4692555117607,141.37148302433422L171.51399051189424,139.51634907117105L171.60346051216123,145.2597874515706L171.73766551256182,141.6722004649225L171.80476801276208,135.22906549787137L171.96134051322937,129.87460571773258L172.14028051376343,133.1278907602818L172.2073830139637,138.14773954554224L172.38632301449775,141.2601548644709L172.47579301476478,147.444172884184L172.56526301503183,150.32406163186687L173.07971551656723,146.6066133627292L173.16918551683426,131.91514923312695L173.32575801730158,115.12167626935747L173.41522801756858,-4.001082202073263L173.66127051830293,36.65478837534695L173.929680519104,53.35645014995123L174.28756052017212,69.72822634137434L174.84674802184105,74.2481539448537L175.1822605228424,89.97782549273404L175.495405523777,104.1378020770209L175.67434552431106,55.4453884033927L175.85328552484512,56.165472641284836L175.98749052524565,96.7761487260976L176.00985802531244,119.51172214689839L176.59141302704813,131.95137137590075L176.90455802798272,134.4476793745671L177.46374552965165,131.157186466888L177.8439930307865,128.04179953407822L178.1124030315876,134.0806131356448L178.1795055317879,134.20029577272473L178.31371053218842,141.9836889440771L178.71632553339006,147.2464407409597L178.76106053352356,148.76808730519025L179.16367553472517,146.85435610119293L179.2531455349922,126.42593358540552L179.7228630363941,131.26044369660488L179.81233303666116,121.7727416903594L179.96890553712845,122.87773021645592L180.2596830379963,135.6020466605197L180.39388803839685,136.85403859757315L180.70703303933144,130.01571860410095L180.97544304013252,138.4010979691508L181.31095554113386,139.72761539598082L181.48989554166795,145.60523794509368L181.5122630417347,148.91062248972807L182.00434804320335,35.83534878953617L182.09381804347038,79.50028502052092L182.406963044405,97.54136294408002L182.67537304520607,99.10043755384584L182.6977405452728,120.56427051120511L182.85431304574013,132.17602055392038L183.16745804667474,138.31459359290875L183.30166304707527,143.44489077486165L183.45823554754256,138.4331973812448L183.50297054767609,125.05809787226443L183.7042780482769,131.0853761923502L183.7490130484104,138.3330923846728L183.77138054847717,119.88572644066753L184.19636304974557,126.50345612361392L184.26346554994583,137.106544362619L184.46477305054665,141.14127408059838L184.7555505514145,145.7306841776104L185.29237055301667,136.35541107792866L185.65025055408478,111.90990905534035L185.8962930548191,130.15854097180954L186.29890805602076,139.8152303098507L186.5225830566883,145.59829821151865L186.54495055675505,149.81143105749712L186.6791555571556,142.35245274959075L186.83572805762293,146.91716094661842L186.92519805788993,147.86778401054863L186.9475655579567,150.59226944853035L186.96993305802346,142.65251221310328L187.46201805949212,123.39779720932216L187.48438555955886,114.46867697886879L187.5738555598259,129.61720928402576L187.6185905599594,138.66776620160957L187.81989806056023,144.85521432722956L187.90936806082723,134.8811707519775L188.55802556276322,138.66501533103238L188.58039306282998,135.48266887921847L188.7817005634308,139.17864516801626L188.84880306363107,142.11852015116042L189.00537556409836,147.6925655280252L189.2290505647659,148.99966468370172L189.25141806483268,150.5432429472349L189.2961530649662,151.28688278724843L189.4079905653,151.67338023421487L189.54219556570055,154.09092913837148L189.63166556596755,147.69067728512587L189.67640056610108,147.27523078347764L190.0342805671692,150.8746917265571L190.16848556756975,149.60493229834142L190.19085306763648,145.49673342806548L190.36979306817057,124.41899171974708L190.79477556943894,136.8194660418764L191.17502307057381,144.91713150106767L191.7565780723095,147.79119853371296L192.2710305738449,148.77228274656022L192.56180807471276,149.44269834293866L192.62891057491302,151.7508091353818L193.32230307698248,153.44493625972086L193.34467057704927,154.95411597935615L193.70255057811738,155.9971482160944L193.72491807818412,156.81369878513274L193.9485930788517,156.2524551435126L194.01569557905196,151.4483499552461L194.0604305791855,153.94805219665693L194.3064730799198,155.12506781961778L194.44067808032037,138.8346827575976L194.50778058052063,134.9792661375554L194.59725058078766,137.0804813880313L194.9998655819893,142.52548643020498L195.02223308205606,141.61813359358635L195.11170308232306,137.96085375347167L195.17880558252332,135.50329726551928L195.22354058265688,132.36964779521912L195.53668558359146,141.2575509919655L195.6261555838585,125.3680993322067L195.8721980845928,132.99301878811613L195.93930058479307,140.85742680797352L196.38665058612824,144.28528167231218L196.56559058666227,147.2471522181241L196.78926558732985,136.5189193195755L196.81163308739661,137.36685594622196L197.05767558813093,137.85049944405228L197.57212808966636,119.97234642030804L197.68396559000016,124.73712388372829L198.06421309113503,130.50865597410944L199.04838309407236,139.2635730587955L199.0707505941391,130.85780687257048L199.16022059440613,139.91662349217415L199.24969059467315,136.34149346452904L199.6523055958748,120.1540988697629L199.78651059627532,123.14262011714536L200.7483130991459,98.788035089338L200.92725309967997,115.29693169056887L201.106193100214,82.5729768872232L201.12856060028076,14.371863748181056L201.50880810141564,-35.486519996823034L201.79958560228349,28.14834420997093L201.8890556025505,72.7110496196127L202.13509810328483,88.85393463280344L202.40350810408592,104.46064873776255L202.47061060428618,114.01995391043685L202.5153456044197,105.18623004703214L202.60481560468673,124.35832565321206L202.7837556052208,134.67787311224808L204.1258056092262,135.26380291393036L204.26001060962676,118.68415271333572L204.28237810969352,113.79699064227695L204.6626256108284,128.4493236071936L204.8191981112957,138.521516945939L205.33365061283112,119.24194138292896L205.42312061309815,117.78776329500596L205.66916311383247,65.28595811820801L205.73626561403273,-45.53067504615194L206.11651311516763,34.01762840719471L206.25071811556816,18.067562195045525L206.54149561643598,56.94464098446842L206.98884561777115,85.92073684143223L207.19015311837197,111.79659711075563L207.54803311944008,115.25895676674679L207.59276811957358,127.99870190533383L207.7940756201744,128.66678910567026L207.99538312077524,104.84303084717425L208.17432312130927,123.77845316822899L208.6216731226444,129.17193735007058L208.66640812277794,130.21857688984502L208.7335106229782,133.9293343385508L208.77824562311173,142.49721277541022L208.91245062351226,136.82725168014628L209.18086062431334,132.76076391442336L209.2032281243801,138.51395071604162L209.35980062484742,132.601103030156L209.4269031250477,138.49903568514847L209.53874062538145,137.4280023424613L209.69531312584877,126.59254447186038L209.74004812598227,129.85346722663968L210.8807906293869,101.95765182702262L211.1268331301212,120.12338795243255L211.1939356303215,130.13272068121012L211.3057731306553,103.95662162401281L211.6636531317234,92.22112280808342L211.75312313199044,84.76342754840778L211.7754906320572,105.47917162034327L211.8202256321907,102.03364375733194L212.04390063285828,117.05092175659738L212.1333706331253,119.34429616921447L212.22284063339234,101.01238054344991L212.42414813399316,116.12086556120234L212.4465156340599,110.44630622771307L212.5583531343937,124.86745674224692L212.6478231346607,134.0366316068263L212.67019063472748,132.5794059096048L213.00570313572882,140.87205599927813L213.6990956377983,138.75011535545423L213.9675056385994,127.35844139336334L214.12407813906668,96.9787765655078L214.2359156394005,115.96522950131236L214.54906064033509,129.83147006852238L214.7503681409359,131.48999506722183L215.08588064193725,137.7591163446918L215.3319231426716,142.8033034090583L215.48849564313886,136.04820913425874L215.51086314320563,143.79929982849686L215.71217064380645,145.89713589183202L216.56213564634322,138.48726203426293L216.6292381465435,145.48789617161856L216.673973146677,149.04313743470183L216.74107564687728,147.36169266225903L216.76344314694404,151.26450484728323L216.85291314721107,153.56730229759964L217.5686731493473,149.15404743452606L217.8818181502819,146.0415176497168L218.48574065208433,137.6214196241429L218.6199456524849,138.68419487657061L218.70941565275191,136.9636317538185L219.11203065395355,144.27606116271136L219.22386815428735,146.8613515073909L219.5593806552887,138.4392457544611L219.62648315548898,141.68862314083054L219.69358565568925,134.21514418019365L220.16330315709115,142.56382800222582L220.40934565782547,144.1237156602358L220.70012315869332,147.5476557752912L220.72249065876008,142.98579043888373L220.94616565942766,145.34787266010693L221.01326815962793,149.71313545088904L221.10273815989493,143.743616427961L221.48298566102983,146.09888669500117L221.52772066116333,149.03938764858236L221.5948231613636,146.7837685457112L222.06454066276552,149.3964957024708L222.10927566289902,139.04632509783488L222.2211131632328,140.0110825250415L222.46715566396713,119.88075058324569L222.6460956645012,110.25691683489327L222.73556566476822,126.87831775033368L223.1158131659031,137.13654754968692L223.25001816630362,127.20355684219732L223.4736931669712,110.27379893374408L223.51842816710473,110.25370183021923L223.6526331675053,121.07209159496784L223.76447066783905,131.33388545085847L223.8763081681728,119.08248468404362L223.9434106683731,130.54501878985508L224.27892316937448,130.38708701712812L224.30129066944122,124.49421666840352L224.90521317124367,125.59611082649602L225.08415317177773,131.81227777706636L225.3078281724453,136.6525743597106L225.55387067317963,142.06176271019842L226.0235881745815,145.36419236412564L226.4038356757164,147.57146674920733L226.42620317578317,104.34044899396709L227.14196317791937,111.28216446183711L227.16433067798616,120.8499838144851L227.29853567838668,133.6839940615253L228.46164568185804,132.67759200239914L228.5063806819916,117.13304410456509L228.66295318245886,89.03116334052964L228.73005568265913,112.428042480427L228.88662818312645,127.57698336258207L229.49055068492888,137.31025152972683L229.9602681863308,137.10786374524872L230.18394318699836,141.03233451803732L230.54182318806647,128.8388991609704L230.5865581882,139.29653482144687L230.6312931883335,126.49152853194619L230.7431306886673,136.5129571346251L231.4588906908035,143.98584551822876L231.5707281911373,148.97272193461143L231.81677069187165,143.27659600023853L231.83913819193842,148.72864224654177L231.86150569200515,139.60062699799727L231.92860819220542,141.36462602637062L232.28648819327353,146.36193832117425L232.89041069507599,125.82903051845068L232.95751319527625,137.43747301892307L233.40486319661142,143.85479044998476L233.53906819701194,146.20730311248354L233.5614356970787,148.1998338345445L234.14299069881437,151.79361348507567L234.2995631992817,151.77217533203174L234.456135699749,143.324155414817L235.19426320195197,128.11014226265323L235.26136570215223,123.0999713666608L235.68634820342064,135.42366572998685L235.7087157034874,141.42851269226207L235.91002320408822,147.23230973846282L236.0665957045555,147.58375761020565L236.1336982047558,148.45194565594534L236.29027070522307,143.63662029105012L236.35737320542336,148.72256105028936L236.78235570669173,138.11130638403054L236.849458206892,138.54369282896272L237.09550070762634,130.67631349971532L237.34154320836066,128.9838052340156L237.56521820902825,140.26942288893918L237.60995320916174,143.1650894707493L237.6323207092285,143.51532205322104L237.69942320942877,139.59049487545542L238.23624321103094,142.72528236016703L238.34808071136476,145.6649455813674L238.3704482114315,146.98320775076428L238.45991821169852,143.19424335293337L238.88490071296692,147.1998332958754L238.9072682130337,149.13440629258014L239.1085757136345,149.40781508499117L239.28751571416853,146.78737151189563L239.55592571496962,143.5058796058566L240.38352321743963,149.0767892430989L240.45062571763992,148.09624088374926L240.6519332182407,151.5571519122786L240.67430071830748,150.92740406351234L240.80850571870803,150.28227322495562L240.85324071884156,137.21528199275315L241.05454821944238,113.98924342144099L241.83741072177887,123.98364771358484L241.94924822211266,130.34089493496884L242.46370072364806,137.74515434955595L242.53080322384832,136.56753364918404L242.59790572404862,138.61554965432538L242.7992132246494,145.30434885066774L243.42550322651863,143.61354848963066L243.96232322812082,146.43413570158265L244.18599822878835,150.48368812581967L245.41621073246003,145.82065638168098L245.55041573286059,148.4738939485472L245.63988573312758,150.90842021311713L245.70698823332788,126.1125662500161L245.9530307340622,138.58622776113128L246.02013323426246,67.56557142832905" fill="none"></path></g></g></g></g><g opacity="0.2"><g><g><g><path style="fill: none;" stroke="rgb(255, 112, 67)" stroke-width="2px" d="M22.77011506795883,158.1650414100193L22.904320068359375,157.91796617002723L23.26220006942749,157.89789690766864L23.306935069561003,156.53267827622045L23.374037569761278,156.23918087277573L23.620080070495604,158.21557415728228L23.95559257149696,157.0024878830767L24.022695071697235,155.7274571087583L24.470045073032377,157.1928492611185L24.738455073833464,157.89516592729603L25.18580507516861,157.33246116049347L25.83446257710457,156.9917756776324L25.90156507730484,157.42245678719237L26.102872577905657,155.93450784712786L26.460752578973768,156.72078512712392L26.505487579107285,156.5369549772037L27.489657582044604,157.59566898123975L27.60149508237839,157.91385634053592L27.937007583379746,158.0076087523882L28.071212583780287,156.78187193195242L28.183050084114075,154.52035540018878L28.339622584581374,154.23626305368447L28.47382758498192,146.66259855689196L29.25669008731842,56.860048047473924L29.301425087451932,147.42145004077648L29.480365087985994,153.43101166739592L29.950082589387897,153.483190736092L30.129022589921952,136.59978316264446L30.576372591257094,151.26031855548788L31.784217594861985,127.8259223276421L31.80658509492874,150.9255507111631L32.18683259606362,152.58951279881424L32.25393509626389,153.41056162939827L32.32103759646416,66.66031122209957L32.65655009746552,58.46513059445333L32.72365259766579,145.62295963425132L32.74602009773254,124.05048239254577L32.969695098400116,152.69889205218203L33.394677599668505,148.0318673863211L33.86439510107041,119.64475144274289L34.244642602205275,152.49736527843015L34.35648010253907,84.50607601779187L34.96040260434151,144.79974278713266L35.18407760500908,-35.3974688647927L35.31828260540962,143.41784027712555L35.47485510587692,82.34691875860928L35.49722260594368,85.05556336473532L36.23535010814667,144.55278421898907L36.28008510828018,142.26364915396488L36.548495109081266,155.85894548739873L36.70506760954857,144.41483011706117L36.72743510961533,149.35709927816345L36.77217010974884,155.2996296514227L36.83927260994911,152.1004955346747L36.88400761008263,149.66812396945517L37.15241761088371,155.32133948281205L37.376092611551286,131.35773366185765L38.33789511442185,133.55777625614454L38.516835114955896,128.68586168226432L38.69577511548996,116.03350439544323L38.89708261609078,152.09931552635516L39.18786011695862,114.34814000823991L39.27733011722565,127.53046770240317L39.478637617826465,139.68383551236548L39.56810761809349,135.4809628072884L39.612842618227006,144.14472687605658L39.65757761836052,113.84669027668366L39.814150118827826,121.52893507055514L39.9259876191616,142.66460286155456L39.970722619295124,151.43501064285482L40.08256011962891,147.03559985004136L40.12729511976242,140.38007727312652L40.21676512002945,115.27527718828992L40.30623512029648,138.9888098751068L40.44044012069702,119.32876865278435L40.462807620763776,73.300433990252L40.9772601222992,150.34311305070702L41.06673012256622,153.9443108641323L41.80485762476921,157.42925003465035L41.96143012523651,155.5054456559151L42.09563512563705,119.30586425644563L42.408780126571656,132.0094019166018L42.498250126838684,152.7088012475925L42.65482262730599,155.5955629870948L42.699557627439496,134.69866077705592L42.87849762797356,139.7520209774861L43.19164262890816,146.83183061825562L43.21401012897491,155.35432756985773L43.43768512964249,156.83111498369604L43.50478762984276,153.85892757007716L43.70609513044357,147.39246428988147L43.885035130977634,154.88606142641322L44.08634263157845,151.182144662668L44.1087101316452,137.2017687185728L44.242915132045745,134.94756366871417L44.2652826321125,149.28003611147574L44.37712013244629,137.75389468499407L44.77973513364792,114.40963310887487L44.84683763384819,133.90585291385224L45.04814513444901,111.44938802804901L45.71917013645172,125.90194713883311L46.00994763731956,139.69233953234735L46.144152637720104,113.54811942710052L46.211255137920375,-13.569299077063079L46.255990138053896,106.10204729147364L46.345460138320924,132.3584662140023L46.479665138721465,122.82872786986209L46.59150263905526,129.86554570221233L46.815177639722826,78.93559357056067L46.94938264012337,152.29316671819586L47.06122014045715,152.063841572314L47.28489514112473,140.00790220691414L48.224330143928526,151.04763771808587L48.313800144195554,91.29784127919677L48.33616764426232,138.39852269022646L48.358535144329075,118.66229759536073L48.7611501455307,153.43838948331015L49.051927646398546,99.39877454654489L49.342705147266386,98.59676984148531L49.92426014900207,143.7013488843487L50.19267014980316,150.20537785100956L50.4387126505375,68.2781534842745L50.50581515073777,101.01398703377654L50.57291765093804,146.33716538175338L51.020267652273176,153.73793875952924L51.15447265267372,124.21055372723633L51.31104515314102,101.94443206975293L51.445250153541565,133.0419335186769L51.80313015460968,50.90971642620829L51.87023265480995,115.90591313984442L52.11627515554428,124.79245924152957L52.18337765574455,69.35799450172448L52.25048015594482,144.3046183718777L52.272847656011585,91.22693169743091L53.34648765921593,134.4049853773531L53.4135901594162,155.0875974132219L53.48069265961647,132.13976151151869L53.50306015968323,154.764808016873L53.99514516115188,147.7014311527983L54.26355516195297,105.12994449770781L54.48723016262055,149.72283183799158L54.576700162887576,146.64816796170868L55.135887664556506,110.84032684447067L55.158255164623256,3.9769956746989124L55.40429766535759,153.72209893517234L55.58323766589165,140.37973970672405L55.67270766615868,115.27951372034536L55.71744266629219,134.27518593629188L56.43320266842842,135.05006150567002L56.522672668695456,48.44749234570659L57.08186017036438,67.2081063147634L57.4397401714325,113.88462743360046L57.46210767149925,-70.5836689221263L57.79762017250061,56.74642526012752L57.88709017276764,64.45189580176014L58.24497017383575,116.14840079576666L58.26733767390251,127.21595015700382L58.75942267537117,139.0678918068084L58.871260175704954,135.15136238228177L58.983097676038746,124.27722382876857L59.05020017623902,136.23367692123108L59.1620376765728,139.1957690356914L59.22914017677307,138.3093108182726L59.49755017757416,-175.52076954677563L59.67649017810821,89.31031516137793L59.833062678575516,-49.776582960569726L59.989635179042814,117.27066020097845L60.19094267964363,-145.71044269451608L60.28041267991066,-170.26473388866725L60.325147680044175,154.38932325212286L60.36988268017768,60.246054281248234L60.43698518037796,-26.52531576901896L60.593557680845265,123.7339659823353L60.79486518144608,77.76223634100303L61.01854018211365,97.44228684868408L61.108010182380674,112.61249739022686L61.15274518251419,4.793806130616133L61.21984768271446,126.79692853939201L61.33168518304825,121.11460105626145L61.39878768324852,117.7309415723244L61.42115518331528,137.8057899915396L61.868505184650424,116.36018317586604L62.069812685251236,135.72650477581288L62.204017685651785,-135.94801054239247L62.36059018611908,84.76803933882076L62.38295768618583,-169.54820866197616L62.58426518678665,154.6964515574175L62.74083768725396,139.51724428161327L63.21055518865585,114.60176882953272L63.30002518892288,136.20326351504877L63.52370018959046,106.52889042581691L63.61317018985748,93.36261556188461L63.8144776904583,-58.02749594867254L64.10525519132614,117.22936506910608L64.17235769152641,141.90754608114167L64.30656269192696,68.66386363654568L64.35129769206047,-27.994640606820155L65.11179269433022,6.901670985692533L65.24599769473076,142.05156311151217L65.62624519586564,6.23660915744253L65.8499201965332,97.8607158824802L65.91702269673347,77.99965902679914L65.96175769686698,-251.83931486968214L66.36437269806862,65.5790079082686L66.67751769900322,135.70160593693032L66.72225269913673,108.75732397604949L67.12486770033836,137.69811367959738L67.2143377006054,105.80586741440058L67.39327770113945,142.72803144116963L67.77352520227433,141.74618049622683L67.90773020267487,147.27649254156418L68.44455020427704,66.110098623322L68.73532770514488,153.2430958952912L68.80243020534516,105.87494322933381L68.82479770541191,127.46582594746394L68.86953270554542,30.48629458126078L68.91426770567894,147.91409946044303L69.00373770594597,147.91963319090098L69.09320770621301,148.54219039717717L69.2497802066803,154.59768943074747L69.58529270768165,100.41329572807251L70.3457877099514,71.09554459102483L70.43525771021844,84.63146203610644L70.59183021068573,66.15486965727746L70.79313771128655,136.46365250892555L71.06154771208763,151.93120893201456L71.2852227127552,84.47289132411332L71.32995771288871,104.08855362017925L71.37469271302224,128.336375795383L71.486530213356,131.89662820457337L71.5536327135563,138.99820866716854L71.73257271409034,143.91340249684134L71.82204271435738,126.80319341804045L72.26939271569252,105.2567161597705L72.38123021602631,148.7044470689492L72.40359771609306,81.69920990717094L72.44833271622659,111.02983279018527L72.51543521642685,152.53508574425018L72.60490521669388,-501.7970882688437L72.62727271676064,104.7030188143753L72.78384521722793,108.9780629214825L72.8509477174282,88.09963989232287L72.96278521776199,61.70791433187868L73.38776771903038,147.8194386181541L73.61144271969795,48.02376838388574L73.74564772009849,147.6495144719609L73.87985272049903,118.30383155772026L73.96932272076607,153.02211483072452L74.23773272156716,115.66578402647218L74.2601002216339,130.47516114328994L74.81928772330284,119.19492136307164L75.02059522390367,52.97441995261963L75.80345772624015,145.71225110701627L75.8258252263069,128.51163614409558L75.87056022644043,123.70820774951108L76.85473022937775,-60.94720652759838L77.03367022991179,119.46751876282286L77.19024273037911,138.70387729781905L77.23497773051263,139.0954277910797L77.27971273064612,123.55094602863323L77.39155023097992,143.81987301793185L77.95073773264885,108.98111723408476L77.9731052327156,149.7946826256438L78.19678023338318,154.11980964675578L78.2415152335167,124.73237242189005L78.35335273385047,79.76851287209442L78.66649773478507,133.83840301918943L78.80070273518561,150.373214687046L79.00201023578644,146.80408826151123L79.33752273678779,133.47356449439667L79.42699273705482,51.74199892125354L79.47172773718833,146.26386777565563L80.03091523885728,123.59575833708328L80.29932523965836,99.37993568792673L80.52300024032593,48.75238114114558L80.65720524072647,155.65856739757317L81.03745274186134,152.81159611350077L81.17165774226189,119.7287892619777L81.19402524232864,133.79775796060738L81.50717024326323,42.193356858575015L81.64137524366379,122.71564459912398L81.75321274399757,103.1320289999562L82.26766524553298,143.24038943201964L82.42423774600029,130.1047196058518L82.53607524633408,114.25506602286039L82.82685274720191,76.90434597022114L82.98342524766922,99.24145386210327L83.31893774867058,38.1075828429274L83.58734774947166,141.1185443159781L83.65445024967192,-19.622191921115615L83.96759525060654,139.6876534031183L84.75045775294303,156.46011624058048L84.7728252530098,156.87837501708628L84.79519275307656,126.82335895684298L85.19780775427819,155.60885447993093L85.53332025527953,-232.20496702026378L86.60696025848388,135.58801557954396L86.8082677590847,143.75187033985887L87.00957525968552,149.92076072878788L87.14378026008606,137.83074484580774L87.61349776148796,141.50462741279L87.65823276162148,146.52285712193788L87.68060026168823,150.3989191156183L88.73187276482582,152.12599432781843L88.91081276535988,74.77542522652959L89.4252652668953,56.185410536470926L89.6265727674961,148.2038110345727L89.71604276776314,130.23313340316497L89.80551276803017,153.76604300514617L90.07392276883125,148.65408555210573L90.14102526903152,143.37691071934842L90.31996526956559,143.6817877220746L90.38706776976585,83.83112599990099L90.92388777136803,29.78357862119998L91.01335777163506,151.22437289293674L91.05809277176857,40.88563935630006L91.68438277363778,-1694.0622817413405L92.1988352751732,143.0309567499357L92.53434777617454,80.52425476503566L92.7132877767086,149.85135840312037L92.82512527704239,100.732925414449L92.93696277737618,123.4308107156706L93.07116777777672,140.90309440221347L93.42904777884483,59.293356396312575L93.83166278004647,125.09370703690696L93.85403028011322,72.08718790981743L94.01060278058053,21.52707588725363L94.07770528078079,-188.12699079314046L94.61452528238296,135.4925240880507L94.68162778258323,90.98322349573905L94.83820028305054,132.1928670452102L94.90530278325082,134.28594678667625L94.92767028331757,146.21272793977064L94.97240528345108,54.35479235814745L94.99477278351783,-21.40806854726557L95.55396028518676,138.8696356682333L95.75526778578758,150.37995201124897L96.29208778738976,90.52283598997836L96.47102778792382,135.87038324180855L96.78417278885841,155.39672384628312L96.80654028892518,145.76814119500588L97.18678779006004,123.70684863936664L97.835445291996,154.43164508704905L97.88018029212951,139.01036547992473L98.10385529279709,151.28546209316L98.48410279393197,147.20546134744808L98.59594029426574,155.6023990752671L99.0880252957344,154.17909271931694L99.26696529626847,154.01730222822079L99.5130077970028,157.05630881063152L99.55774279713631,124.02712397676618L99.7143152976036,143.61398552011838L99.84852029800415,150.76955449577224L100.00509279847145,148.43036820965878L100.139297798872,152.23355271263316L100.20640029907227,157.57627568086122L100.58664780020715,143.9211208273362L100.85505780100821,149.09992379851107L100.92216030120849,137.9072279584371L101.0787328016758,152.73481818305268L101.43661280274391,142.8551893145749L101.48134780287742,148.533807252501L101.61555280327796,157.57420633616528L101.705022803545,146.2812745567192L102.0629028046131,130.41924304760755L102.44315030574798,156.83265098453174L102.89050030708313,153.41116121513716L103.29311530828477,50.524082926569974L103.33785030841828,139.3953975512128L103.38258530855178,147.06304444078884L103.44968780875206,157.04398081927934L103.51679030895232,153.5861543852015L103.8970378100872,147.91399627420645L104.14308031082153,147.95093326167316L104.45622531175613,129.81366661064683L105.12725031375885,89.58476696520908L105.17198531389236,149.51557343732094L105.70880531549453,150.4420686515706L105.79827531576157,150.09679055200738L105.84301031589507,105.55868036244746L105.97721531629561,141.92807719403947L106.04431781649589,106.58790705677437L106.0890528166294,155.09155976470592L106.29036031723022,148.2192071581124L106.44693281769753,153.92107811444794L106.73771031856536,133.50596202449915L106.91665031909942,145.26865789830072L107.20742781996726,150.53548388857533L107.25216282010079,149.69053454594746L107.31926532030106,157.48135991328962L107.67714532136917,99.31433282689838L107.78898282170296,97.66777530917717L107.83371782183647,155.60906545893246L108.05739282250404,151.91321620053623L108.14686282277107,150.47875504389137L108.79552032470703,154.55653470586128L108.90735782504082,150.22235862032502L109.06393032550811,129.61099704932502L110.04810032844543,154.9723579186619L110.2270403289795,126.7483042365455L110.38361282944679,128.3191790720153L110.47308282971383,116.99035921162329L110.71912533044815,146.20110106204368L110.85333033084869,116.03476916388567L110.98753533124923,156.38796584431998L111.4796203327179,132.4613369954989L111.72566283345223,106.80224550736231L111.83750033378601,115.83816990145195L112.03880783438683,136.94026826151935L112.06117533445358,113.0895096727869L112.32958533525466,141.83893607836208L112.575627835989,127.63503958271394L112.64273033618927,10.216366685467477L112.86640533685684,121.63319444397804L113.91767783999443,-93.67837605920784L114.02951534032822,83.34994204520565L114.05188284039497,-61.83819314671322L114.27555784106255,110.62998317532679L115.90838534593583,22.430963734116972L116.15442784667016,94.01313697531383L116.17679534673691,-5.2798357109804215L116.22153034687042,120.03278770760403L116.26626534700394,84.67732389599125L116.33336784720422,132.98375711850287L116.35573534727097,77.53421834362507L116.9149228489399,121.35080319628793L117.02676034927369,109.45444134573222L117.09386284947396,96.14030060480563L117.27280285000802,114.91059933920837L117.51884535074234,147.79873208865416L117.72015285134316,135.56635089213307L117.78725535154344,151.50890894025824L117.80962285161019,105.17193834781062L118.14513535261153,8.114751968148596L118.50301535367966,132.71400176252442L118.6372203540802,146.03906476659114L118.72669035434724,67.63542115761665L118.92799785494805,52.096263804976815L118.97273285508155,122.87811869903734L119.17404035568238,97.5074474829843L119.2635103559494,146.4755115913802L119.50955285668373,77.39365510400125L120.09110785841942,101.68146636814029L120.29241535902023,146.99701556801242L120.6279278600216,94.83087315918192L120.78450036048889,126.67127128868421L120.91870536088943,147.73664935238168L121.00817536115646,155.51237037369413L121.03054286122322,91.29988141850252L121.45552536249161,-95.4029423717704L121.52262786269188,70.45978175760226L122.32785786509514,-851.0689845846166L122.46206286549568,130.56123615365232L122.79757536649704,-1467.2450183755814L123.22255786776543,-985.1794876458971L123.24492536783218,118.55217724370107L123.66990786910057,-27.099573709093818L123.69227536916732,120.74856999339184L123.7593778693676,132.27809887661095L123.96068536996842,-264.3784119950739L124.20672787070274,133.95766714549765L124.76591537237167,101.13165472159622L124.83301787257194,144.38430615419685L125.07906037330628,87.87740622054878L125.14616287350654,99.74522675807127L125.19089787364005,18.048638370944673L125.23563287377358,125.59379765831878L125.50404287457467,86.03730670117429L125.88429037570953,150.20770617473312L126.35400787711144,150.1062011367819L126.51058037757873,148.12214355060064L126.68952037811279,127.16315713020018L126.77899037837982,4.5595792699752735L126.93556287884712,-32.16605330245838L126.95793037891387,34.54195000854483L126.98029787898064,135.31295350282798L127.2039728796482,103.12539559903432L127.7855278813839,65.06566522590396L127.89736538171768,123.47148083376723L128.2552453827858,98.44187255951383L128.50128788352012,151.51782349405272L128.59075788378718,129.97849335675383L128.6131253838539,150.0364450297319L128.79206538438797,128.68213813321353L128.92627038478852,122.21994971138973L128.9933728849888,134.16259501131105L129.1946803855896,124.71284074139783L129.28415038585663,151.976529801202L129.44072288632393,146.00514671358846L129.4630903863907,150.39186781043833L129.59729538679122,139.08389894027746L129.73150038719177,154.29967578684176L129.77623538732527,128.0483210973947L129.84333788752556,144.9961961147461L130.62620038986208,151.64271864069906L130.89461039066316,144.22238041542636L131.31959289193153,151.9724657375705L131.36432789206503,148.62018813635035L131.83404539346694,155.81371490616831L132.2813953948021,115.35728960910993L132.81821539640427,155.28154220972007L132.88531789660453,113.86110391984236L133.17609539747238,108.9460722399699L133.35503539800644,156.93064686126473L133.55634289860726,146.17670857276482L133.62344539880752,154.67125679514936L133.66818039894105,155.7844184909968L133.69054789900778,155.42458763111665L134.67471790194512,153.17649065367908L134.80892290234564,141.2780599190803L134.8760254025459,149.11402272364825L135.03259790301323,139.60211053891877L135.32337540388107,139.31451280854952L135.36811040401457,142.23092879835085L135.39047790408134,116.06705171503884L135.54705040454866,154.57221606564062L135.94966540575027,118.4513967205394L136.46411790728567,102.8430308849479L136.5759554076195,128.02221497954434L137.0233054089546,40.24535401753786L137.06804040908816,140.9695522349162L137.20224540948868,122.30066493380723L137.78380041122435,31.85008643266204L137.89563791155817,137.62908061324788L138.27588541269301,47.359649972655745L138.67850041389465,138.4674496221612L138.8574404144287,129.95214254011393L139.3718929159641,90.2620460438681L139.46136291623114,144.18484126256487L139.5508329164982,116.22208461320696L139.57320041656496,148.59810407059229L140.15475541830062,111.32800268753489L140.66920791983605,148.23415221038942L141.31786542177198,141.584406588633L141.56390792250633,139.47987464899757L141.92178792357447,112.0214672644433L142.23493292450905,133.19304828803382L142.25730042457582,90.75333045703384L142.70465042591093,35.059685476408845L143.24147042751312,79.26038256876528L143.59935042858123,44.221208157642536L144.0243329298496,135.57093530921463L144.0914354300499,148.0451415586103L144.2032729303837,110.23739787152232L145.0308704328537,-139.39954888091864L145.18744293332102,104.67877889331764L145.27691293358802,132.92788029731508L145.41111793398855,-111.42152656490583L145.5453229343891,129.73407759229696L145.6571604347229,37.76838904609866L145.7242629349232,68.97096946198165L145.7689979350567,151.33682746467633L146.30581793665885,-466.87528083136556L146.86500543832778,-609.7964026132901L146.97684293866158,112.65555258447719L147.02157793879508,135.60486589197464L147.28998793959616,-234.6765309292635L147.33472293972972,40.76346685220986L147.46892794013024,-112.67212016661966L147.73733794093133,137.52270592197544L147.8491754412651,142.38544281715795L148.07285044193267,106.79315332583205L148.29652544260026,98.83935183910954L148.92281544446945,142.2523605796849L148.96755044460298,28.8277674600983L149.05702044487,141.71898797471437L149.39253294587135,97.13709144271363L150.30960044860842,-22.82547007082843L150.37670294880868,107.83514563171086L150.7793179500103,105.66158947026048L151.18193295121193,137.8595618135015L151.5621804523468,149.53543531377014L151.62928295254707,112.57415928107656L151.74112045288086,26.321603731890036L151.85295795321463,-181.00763576425277L152.2555729544163,128.78969651802822L152.27794045448303,118.20155925639574L152.6581879556179,82.6058985233124L152.72529045581817,129.03537115457115L152.8818629562855,146.06955851062907L153.48578545808792,150.24597721282967L153.53052045822142,123.37740741598215L153.68709295868874,91.46889457763578L154.08970795989035,120.62212557910797L154.29101546049117,150.7905632135364L154.492322961092,121.29417458966235L154.71599796175957,86.03872772306067L154.96204046249392,154.2046604261258L155.05151046276092,57.72089249279972L155.07387796282768,116.52507478189315L155.49886046409608,37.82854367383649L155.61069796442985,146.28539979504808L155.65543296456337,148.79906000334262L155.7449029648304,97.77915748110108L155.9462104654312,114.61873559500181L156.34882546663286,145.2193216104219L156.79617546796797,141.94886332435047L156.90801296830176,120.06281785062194L157.1093204689026,50.31039897153964L157.24352546930314,154.5033801587074L157.26589296936987,109.65747942932745L157.35536296963693,148.66357057837945L157.4224654698372,132.5052913840964L157.91455047130586,146.081318793419L158.31716547250747,151.22835293348987L158.4066354727745,140.43268751288252L158.5184729731083,155.8951708583554L158.8763529741764,143.29734233824584L158.9210879743099,146.4266860753724L159.14476297497748,155.98097721598046L159.27896797537804,145.63748088591387L159.32370297551157,116.59654156933647L159.4579079759121,128.04525204390148L159.5026429760456,145.74089265810787L159.54737797617912,156.95843933703833L159.81578797698023,152.72759072422602L159.86052297711373,141.41147235251034L159.90525797724723,151.77325217812898L160.41971047878266,153.05375689016648L160.62101797938348,156.9714740619804L160.68812047958374,140.7022306000315L161.04600048065186,135.413598409793L161.29204298138617,156.62171417878875L161.3367779815197,141.85196702595084L161.47098298192026,136.98504814000935L161.76176048278808,157.69214009706639L161.87359798312187,145.24158035573757L162.0301704835892,149.8574463910776L162.16437548398972,150.22156040108075L162.45515298485753,155.81791679713004L163.03670798659326,152.7730298890632L163.55116048812866,154.7852661623606L163.6406304883957,156.71095258434633L163.66299798846245,153.23065568890675L163.81957048892974,123.96928072072734L164.19981799006462,154.95531228942633L164.44586049079896,154.09386162496074L164.69190299153328,129.5163222031897L164.84847549200057,149.19071589397345L164.98268049240113,147.0506473515104L165.5195004940033,152.6002036299667L166.74971299767495,142.39414731325655L166.83918299794198,152.98788979866805L167.12996049880982,157.35858201923475L167.46547299981117,157.33999274232627L167.64441300034525,154.66417121739798L167.666780500412,134.93963601756795L167.75625050067902,156.8062638684479L167.9799255013466,154.73742939161244L168.20360050201418,110.84281215868273L168.22596800208092,155.98700937281322L168.24833550214768,153.48338973811966L168.4272755026817,149.59958914521934L168.87462550401688,137.4685243032455L169.41144550561904,151.21650715353246L169.56801800608636,135.17471637579408L169.63512050628663,155.25340682397103L169.8587955069542,141.17513312219813L170.06010300755503,157.09888372822897L170.1272055077553,139.36345256646212L170.35088050842288,151.52985279810227L170.46271800875664,140.5441006406774L171.2679480111599,148.52972034048858L171.4692555117607,133.8022436137197L171.51399051189424,136.73364814142627L171.60346051216123,153.87494502216987L171.73766551256182,136.2908199849504L171.80476801276208,125.56436304729473L171.96134051322937,121.84291604752435L172.14028051376343,138.00781832410564L172.2073830139637,145.6775127234329L172.38632301449775,145.9287778428639L172.47579301476478,156.7201999137537L172.56526301503183,154.64389475339112L173.07971551656723,141.0304409590227L173.16918551683426,109.8779530387236L173.32575801730158,89.93146682370323L173.41522801756858,-182.6852199092193L173.66127051830293,97.63859424147725L173.929680519104,78.40894281185763L174.28756052017212,94.28589062850898L174.84674802184105,81.02804535007279L175.1822605228424,113.5723328145545L175.495405523777,125.3777669534512L175.67434552431106,-17.593232107049573L175.85328552484512,57.245598998123015L175.98749052524565,157.69216285331677L176.00985802531244,153.61508227809958L176.59141302704813,150.61084521940433L176.90455802798272,138.1921413725666L177.46374552965165,126.22144710536935L177.8439930307865,123.36871913486357L178.1124030315876,143.13883353799469L178.1795055317879,134.3798197283446L178.31371053218842,153.65877870110566L178.71632553339006,155.14056843628362L178.76106053352356,151.05055715153603L179.16367553472517,143.98375929519705L179.2531455349922,95.78329981172435L179.7228630363941,138.5122088634039L179.81233303666116,107.54118868099117L179.96890553712845,124.5352130056007L180.2596830379963,154.6885213266154L180.39388803839685,138.73202650315335L180.70703303933144,119.75823861389267L180.97544304013252,150.97916701672563L181.31095554113386,141.71739153622582L181.48989554166795,154.421671768763L181.5122630417347,153.86869930667962L182.00434804320335,-133.77756176075172L182.09381804347038,144.9976893669981L182.406963044405,124.60297982941867L182.67537304520607,101.43904946849456L182.6977405452728,152.76001994724402L182.85431304574013,149.59364561799333L183.16745804667474,147.5224531513913L183.30166304707527,151.140336547791L183.45823554754256,130.91565729081952L183.50297054767609,104.99544860879386L183.7042780482769,140.12629367247888L183.7490130484104,149.20466667315674L183.77138054847717,92.21467752465963L184.19636304974557,136.43005064803344L184.26346554994583,153.01117672112662L184.46477305054665,147.19336865756748L184.7555505514145,152.61479932312847L185.29237055301667,122.29250142840603L185.65025055408478,75.2416560214579L185.8962930548191,157.5314888465133L186.29890805602076,154.30026431691246L186.5225830566883,154.27290006402058L186.54495055675505,156.13113032646484L186.6791555571556,131.16398528773124L186.83572805762293,153.76422324215994L186.92519805788993,149.29371860644395L186.9475655579567,154.67899760550293L186.96993305802346,130.74287635996265L187.46201805949212,94.51572470365045L187.48438555955886,101.07499663318876L187.5738555598259,152.3400077417612L187.6185905599594,152.24360157798526L187.81989806056023,154.13638651565958L187.90936806082723,119.92010538909942L188.55802556276322,144.34078219961472L188.58039306282998,130.7091492014976L188.7817005634308,144.72260960121298L188.84880306363107,146.52833262587663L189.00537556409836,156.05363359332242L189.2290505647659,150.96031341721653L189.25141806483268,152.85861034253463L189.2961530649662,152.40234254726872L189.4079905653,152.25312640466456L189.54219556570055,157.7172524946064L189.63166556596755,138.09029950525743L189.67640056610108,146.65206103100527L190.0342805671692,156.2738831411763L190.16848556756975,147.70029315601792L190.19085306763648,139.3344351226516L190.36979306817057,92.80237915726951L190.79477556943894,155.42017752507041L191.17502307057381,157.0636296898545L191.7565780723095,152.10229908268093L192.2710305738449,150.24390906583113L192.56180807471276,150.44832173750632L192.62891057491302,155.21297532404645L193.32230307698248,155.9861269462295L193.34467057704927,157.21788555880906L193.70255057811738,157.56169657120174L193.72491807818412,158.03852463869032L193.9485930788517,155.41058968108237L194.01569557905196,144.2421921728464L194.0604305791855,157.69760555877318L194.3064730799198,156.89059125405905L194.44067808032037,114.39910516456729L194.50778058052063,129.19614120749213L194.59725058078766,140.23230426374514L194.9998655819893,150.69299399346548L195.02223308205606,140.25710433865845L195.11170308232306,132.4749339932997L195.17880558252332,131.81696253359064L195.22354058265688,127.66917358976889L195.53668558359146,154.58940578708513L195.6261555838585,101.53392184256845L195.8721980845928,144.43039797198028L195.93930058479307,152.65403883775963L196.38665058612824,149.42706396882022L196.56559058666227,151.68995803684197L196.78926558732985,120.42656997175261L196.81163308739661,138.63876088619162L197.05767558813093,138.5759646907978L197.57212808966636,93.15511688469167L197.68396559000016,131.88429007885867L198.06421309113503,139.16595410968117L199.04838309407236,152.39594868582455L199.0707505941391,118.24915759323298L199.16022059440613,153.50484842157968L199.24969059467315,130.9787984230613L199.6523055958748,95.87300697761373L199.78651059627532,127.625401988219L200.7483130991459,62.256157547626984L200.92725309967997,140.06027659241516L201.106193100214,33.487044682204754L201.12856060028076,-87.92980596038223L201.50880810141564,-110.2740956143291L201.79958560228349,123.60064052016179L201.8890556025505,139.5551077340754L202.13509810328483,113.06826215258955L202.40350810408592,127.87071989520123L202.47061060428618,128.35891166944828L202.5153456044197,91.9356442519251L202.60481560468673,153.11646906248197L202.7837556052208,150.15719430080208L204.1258056092262,136.1426976164538L204.26001060962676,93.81467741244379L204.28237810969352,106.46624753568881L204.6626256108284,150.4278230545686L204.8191981112957,153.62980695405707L205.33365061283112,90.32257803841394L205.42312061309815,115.60649616312148L205.66916311383247,-13.466749646988944L205.73626561403273,-211.75562479269172L206.11651311516763,153.34008358721462L206.25071811556816,-5.857537123178304L206.54149561643598,115.26025916860277L206.98884561777115,129.384880626878L207.19015311837197,150.6103875147407L207.54803311944008,120.45249625073353L207.59276811957358,147.10831961321435L207.7940756201744,129.66891990617492L207.99538312077524,69.10739345943024L208.17432312130927,152.1815866498111L208.6216731226444,137.26216362283293L208.66640812277794,131.78853619950672L208.7335106229782,139.49547051160945L208.77824562311173,155.34903043069932L208.91245062351226,128.32231003725042L209.18086062431334,126.661032265839L209.2032281243801,147.14373091846903L209.35980062484742,123.73183150132755L209.4269031250477,147.3459346676372L209.53874062538145,135.82145232843055L209.69531312584877,110.33935766595897L209.74004812598227,134.74485135880863L210.8807906293869,60.11392872759704L211.1268331301212,147.37199214054746L211.1939356303215,145.14671977437644L211.3057731306553,64.69247303821687L211.6636531317234,74.61787458418934L211.75312313199044,73.57688465889429L211.7754906320572,136.55278772824656L211.8202256321907,96.86535196281497L212.04390063285828,139.5768387554955L212.1333706331253,122.78435778814014L212.22284063339234,73.51450710480307L212.42414813399316,138.78359308783098L212.4465156340599,101.93446722747916L212.5583531343937,146.49918251404767L212.6478231346607,147.79039390369536L212.67019063472748,130.39356736377258L213.00570313572882,153.31103113378813L213.6990956377983,135.56720438971837L213.9675056385994,110.270930450227L214.12407813906668,51.40927932372453L214.2359156394005,144.4449089050192L214.54906064033509,150.6308309193374L214.7503681409359,133.97778256527099L215.08588064193725,147.1627982608967L215.3319231426716,150.3695840056081L215.48849564313886,125.9155677220594L215.51086314320563,155.42593586985402L215.71217064380645,149.0438899868348L216.56213564634322,127.37245124790931L216.6292381465435,155.988847377652L216.673973146677,154.3759993293267L216.74107564687728,144.83952550359484L216.76344314694404,157.1187231248195L216.85291314721107,157.02149847307427L217.5686731493473,142.53416513991573L217.8818181502819,141.37272297250288L218.48574065208433,124.99127258578213L218.6199456524849,140.27835775521214L218.70941565275191,134.38278706969032L219.11203065395355,155.2447052760506L219.22386815428735,150.73928702441023L219.5593806552887,125.8060871250664L219.62648315548898,146.5626892203847L219.69358565568925,123.00492573923827L220.16330315709115,155.0868537352741L220.40934565782547,146.46354714725078L220.70012315869332,152.68356594787429L220.72249065876008,136.14299243427254L220.94616565942766,148.89099599194174L221.01326815962793,156.2610296370622L221.10273815989493,134.78933789356898L221.48298566102983,149.63179209556145L221.52772066116333,153.45013907895415L221.5948231613636,143.4003398914045L222.06454066276552,153.3155864376101L222.10927566289902,123.52106919088106L222.2211131632328,141.4582186658514L222.46715566396713,89.68525267055199L222.6460956645012,95.82116621236466L222.73556566476822,151.8104191234943L223.1158131659031,152.52389224871678L223.25001816630362,112.3040707809629L223.4736931669712,84.87916207106417L223.51842816710473,110.223556174932L223.6526331675053,137.29967624209073L223.76447066783905,146.72657623469445L223.8763081681728,100.70538353382133L223.9434106683731,147.73881994857223L224.27892316937448,130.15018935803772L224.30129066944122,115.65491114531667L224.90521317124367,127.24895206363475L225.08415317177773,141.13652820292185L225.3078281724453,143.91301923367695L225.55387067317963,150.1755452359302L226.0235881745815,150.31783684501644L226.4038356757164,150.88237832682984L226.42620317578317,39.49392236110674L227.14196317791937,121.6947376636422L227.16433067798616,135.20171284345707L227.29853567838668,152.93500943208562L228.46164568185804,131.16798891370985L228.5063806819916,93.81622225781403L228.66295318245886,46.87834219447652L228.73005568265913,147.52336119027305L228.88662818312645,150.30039468581464L229.49055068492888,151.91015378044395L229.9602681863308,136.80428206853162L230.18394318699836,146.9190406772202L230.54182318806647,110.5487461253701L230.5865581882,154.98298831216152L230.6312931883335,107.28401909769516L230.7431306886673,151.5451000386435L231.4588906908035,155.19517809363418L231.5707281911373,156.45303655918548L231.81677069187165,134.73240709867918L231.83913819193842,156.9067116159966L231.86150569200515,125.90860412518049L231.92860819220542,144.01062456893067L232.28648819327353,153.85790676337973L232.89041069507599,95.02966881436535L232.95751319527625,154.85013676963166L233.40486319661142,153.48076659657733L233.53906819701194,149.73607210623166L233.5614356970787,151.18862991763598L234.14299069881437,157.18428296087242L234.2995631992817,151.7400181024658L234.456135699749,130.65212553899488L235.19426320195197,105.28912253440755L235.26136570215223,115.58471502267219L235.68634820342064,153.90920727497593L235.7087157034874,150.43578313567485L235.91002320408822,155.93800530776394L236.0665957045555,148.11092941781993L236.1336982047558,149.75422772455485L236.29027070522307,136.41363224370724L236.35737320542336,156.3514721891482L236.78235570669173,122.19442438464232L236.849458206892,139.19227249636103L237.09550070762634,118.87524450584417L237.34154320836066,126.44504283546604L237.56521820902825,157.1978493713245L237.60995320916174,147.50858934346456L237.6323207092285,144.0406709269286L237.69942320942877,133.70325410880696L238.23624321103094,147.42746358723446L238.34808071136476,150.0744404131679L238.3704482114315,148.96060100485963L238.45991821169852,137.510796756187L238.88490071296692,153.20821821028846L238.9072682130337,152.0362657876372L239.1085757136345,149.81792827360772L239.28751571416853,142.85670615225234L239.55592571496962,138.58364174679807L240.38352321743963,157.43315369896231L240.45062571763992,146.62541834472478L240.6519332182407,156.74851845507266L240.67430071830748,149.98278229036296L240.80850571870803,149.31457696712053L240.85324071884156,117.61479514444949L241.05454821944238,79.15018556447274L241.83741072177887,138.97525415180064L241.94924822211266,139.87676576704484L242.46370072364806,148.85154347143657L242.53080322384832,134.80110259862622L242.59790572404862,141.6875736620374L242.7992132246494,155.33754764518127L243.42550322651863,141.077347948075L243.96232322812082,150.6650165195106L244.18599822878835,156.5580167621752L245.41621073246003,138.82610876547298L245.55041573286059,152.4537502988465L245.63988573312758,154.560209609972L245.70698823332788,88.9187853053646L245.9530307340622,157.29672002780407L246.02013323426246,-38.96541307087432" fill="none"></path></g></g></g></g></g></g><g transform="translate(61, 178)" clip-path="url(#clip_1)"><clipPath id="clip_1"><rect width="268" height="21"></rect></clipPath><g><g><line x1="0" y1="0" x2="0" y2="5" style="visibility: inherit;" fill="rgb(0, 0, 0)" stroke="rgb(204, 204, 204)" stroke-width="1px"></line><line x1="22.367500066757202" y1="0" x2="22.367500066757202" y2="5" style="visibility: inherit;" fill="rgb(0, 0, 0)" stroke="rgb(204, 204, 204)" stroke-width="1px"></line><line x1="44.735000133514404" y1="0" x2="44.735000133514404" y2="5" style="visibility: inherit;" fill="rgb(0, 0, 0)" stroke="rgb(204, 204, 204)" stroke-width="1px"></line><line x1="67.1025002002716" y1="0" x2="67.1025002002716" y2="5" style="visibility: inherit;" fill="rgb(0, 0, 0)" stroke="rgb(204, 204, 204)" stroke-width="1px"></line><line x1="89.47000026702881" y1="0" x2="89.47000026702881" y2="5" style="visibility: inherit;" fill="rgb(0, 0, 0)" stroke="rgb(204, 204, 204)" stroke-width="1px"></line><line x1="111.83750033378601" y1="0" x2="111.83750033378601" y2="5" style="visibility: inherit;" fill="rgb(0, 0, 0)" stroke="rgb(204, 204, 204)" stroke-width="1px"></line><line x1="134.2050004005432" y1="0" x2="134.2050004005432" y2="5" style="visibility: inherit;" fill="rgb(0, 0, 0)" stroke="rgb(204, 204, 204)" stroke-width="1px"></line><line x1="156.57250046730042" y1="0" x2="156.57250046730042" y2="5" style="visibility: inherit;" fill="rgb(0, 0, 0)" stroke="rgb(204, 204, 204)" stroke-width="1px"></line><line x1="178.94000053405762" y1="0" x2="178.94000053405762" y2="5" style="visibility: inherit;" fill="rgb(0, 0, 0)" stroke="rgb(204, 204, 204)" stroke-width="1px"></line><line x1="201.30750060081482" y1="0" x2="201.30750060081482" y2="5" style="visibility: inherit;" fill="rgb(0, 0, 0)" stroke="rgb(204, 204, 204)" stroke-width="1px"></line><line x1="223.67500066757202" y1="0" x2="223.67500066757202" y2="5" style="visibility: inherit;" fill="rgb(0, 0, 0)" stroke="rgb(204, 204, 204)" stroke-width="1px"></line><line x1="246.04250073432922" y1="0" x2="246.04250073432922" y2="5" style="visibility: inherit;" fill="rgb(0, 0, 0)" stroke="rgb(204, 204, 204)" stroke-width="1px"></line><line x1="268.4100008010864" y1="0" x2="268.4100008010864" y2="5" style="visibility: inherit;" fill="rgb(0, 0, 0)" stroke="rgb(204, 204, 204)" stroke-width="1px"></line></g><g transform="translate(0, 8)"><text style="text-anchor: middle; visibility: hidden; font-family: &quot;Helvetica Neue&quot;, sans-serif; font-size: 12px; font-weight: 200;" x="0" y="0" dx="0em" dy="0.95em" fill="rgb(50, 49, 63)" stroke="none" stroke-width="1px">-1k</text><text style="text-anchor: middle; visibility: inherit; font-family: &quot;Helvetica Neue&quot;, sans-serif; font-size: 12px; font-weight: 200;" x="22.367500066757202" y="0" dx="0em" dy="0.95em" fill="rgb(50, 49, 63)" stroke="none" stroke-width="1px">0</text><text style="text-anchor: middle; visibility: hidden; font-family: &quot;Helvetica Neue&quot;, sans-serif; font-size: 12px; font-weight: 200;" x="44.735000133514404" y="0" dx="0em" dy="0.95em" fill="rgb(50, 49, 63)" stroke="none" stroke-width="1px">1k</text><text style="text-anchor: middle; visibility: inherit; font-family: &quot;Helvetica Neue&quot;, sans-serif; font-size: 12px; font-weight: 200;" x="67.1025002002716" y="0" dx="0em" dy="0.95em" fill="rgb(50, 49, 63)" stroke="none" stroke-width="1px">2k</text><text style="text-anchor: middle; visibility: hidden; font-family: &quot;Helvetica Neue&quot;, sans-serif; font-size: 12px; font-weight: 200;" x="89.47000026702881" y="0" dx="0em" dy="0.95em" fill="rgb(50, 49, 63)" stroke="none" stroke-width="1px">3k</text><text style="text-anchor: middle; visibility: inherit; font-family: &quot;Helvetica Neue&quot;, sans-serif; font-size: 12px; font-weight: 200;" x="111.83750033378601" y="0" dx="0em" dy="0.95em" fill="rgb(50, 49, 63)" stroke="none" stroke-width="1px">4k</text><text style="text-anchor: middle; visibility: hidden; font-family: &quot;Helvetica Neue&quot;, sans-serif; font-size: 12px; font-weight: 200;" x="134.2050004005432" y="0" dx="0em" dy="0.95em" fill="rgb(50, 49, 63)" stroke="none" stroke-width="1px">5k</text><text style="text-anchor: middle; visibility: inherit; font-family: &quot;Helvetica Neue&quot;, sans-serif; font-size: 12px; font-weight: 200;" x="156.57250046730042" y="0" dx="0em" dy="0.95em" fill="rgb(50, 49, 63)" stroke="none" stroke-width="1px">6k</text><text style="text-anchor: middle; visibility: hidden; font-family: &quot;Helvetica Neue&quot;, sans-serif; font-size: 12px; font-weight: 200;" x="178.94000053405762" y="0" dx="0em" dy="0.95em" fill="rgb(50, 49, 63)" stroke="none" stroke-width="1px">7k</text><text style="text-anchor: middle; visibility: inherit; font-family: &quot;Helvetica Neue&quot;, sans-serif; font-size: 12px; font-weight: 200;" x="201.30750060081482" y="0" dx="0em" dy="0.95em" fill="rgb(50, 49, 63)" stroke="none" stroke-width="1px">8k</text><text style="text-anchor: middle; visibility: hidden; font-family: &quot;Helvetica Neue&quot;, sans-serif; font-size: 12px; font-weight: 200;" x="223.67500066757202" y="0" dx="0em" dy="0.95em" fill="rgb(50, 49, 63)" stroke="none" stroke-width="1px">9k</text><text style="text-anchor: middle; visibility: inherit; font-family: &quot;Helvetica Neue&quot;, sans-serif; font-size: 12px; font-weight: 200;" x="246.04250073432922" y="0" dx="0em" dy="0.95em" fill="rgb(50, 49, 63)" stroke="none" stroke-width="1px">10k</text><text style="text-anchor: middle; visibility: hidden; font-family: &quot;Helvetica Neue&quot;, sans-serif; font-size: 12px; font-weight: 200;" x="268.4100008010864" y="0" dx="0em" dy="0.95em" fill="rgb(50, 49, 63)" stroke="none" stroke-width="1px">11k</text></g><line x1="0" y1="0" x2="268.4100008010864" y2="0" fill="rgb(0, 0, 0)" stroke="rgb(204, 204, 204)" stroke-width="1px"></line></g></g></g></g></svg>