<svg viewBox="0 0 330 200" xmlns="http://www.w3.org/2000/svg"><g><g><g><g><g><line x1="71.90799903869629" y1="178.0640001296997" x2="66.90799903869629" y2="178.0640001296997" style="visibility: inherit;" fill="rgb(0, 0, 0)" stroke="rgb(204, 204, 204)" stroke-width="1px"></line><line x1="71.90799903869629" y1="155.80600011348724" x2="66.90799903869629" y2="155.80600011348724" style="visibility: inherit;" fill="rgb(0, 0, 0)" stroke="rgb(204, 204, 204)" stroke-width="1px"></line><line x1="71.90799903869629" y1="133.54800009727478" x2="66.90799903869629" y2="133.54800009727478" style="visibility: inherit;" fill="rgb(0, 0, 0)" stroke="rgb(204, 204, 204)" stroke-width="1px"></line><line x1="71.90799903869629" y1="111.29000008106232" x2="66.90799903869629" y2="111.29000008106232" style="visibility: inherit;" fill="rgb(0, 0, 0)" stroke="rgb(204, 204, 204)" stroke-width="1px"></line><line x1="71.90799903869629" y1="89.03200006484985" x2="66.90799903869629" y2="89.03200006484985" style="visibility: inherit;" fill="rgb(0, 0, 0)" stroke="rgb(204, 204, 204)" stroke-width="1px"></line><line x1="71.90799903869629" y1="66.77400004863739" x2="66.90799903869629" y2="66.77400004863739" style="visibility: inherit;" fill="rgb(0, 0, 0)" stroke="rgb(204, 204, 204)" stroke-width="1px"></line><line x1="71.90799903869629" y1="44.51600003242493" x2="66.90799903869629" y2="44.51600003242493" style="visibility: inherit;" fill="rgb(0, 0, 0)" stroke="rgb(204, 204, 204)" stroke-width="1px"></line><line x1="71.90799903869629" y1="22.258000016212463" x2="66.90799903869629" y2="22.258000016212463" style="visibility: inherit;" fill="rgb(0, 0, 0)" stroke="rgb(204, 204, 204)" stroke-width="1px"></line><line x1="71.90799903869629" y1="0" x2="66.90799903869629" y2="0" style="visibility: inherit;" fill="rgb(0, 0, 0)" stroke="rgb(204, 204, 204)" stroke-width="1px"></line></g><g transform="translate(61.90799903869629, 0)"><text style="text-anchor: end; visibility: hidden; font-family: &quot;Helvetica Neue&quot;, sans-serif; font-size: 12px; font-weight: 200;" x="0" y="178.0640001296997" dx="0em" dy="0.3em" fill="rgb(50, 49, 63)" stroke="none" stroke-width="1px">2.5e+3</text><text style="text-anchor: end; visibility: inherit; font-family: &quot;Helvetica Neue&quot;, sans-serif; font-size: 12px; font-weight: 200;" x="0" y="155.80600011348724" dx="0em" dy="0.3em" fill="rgb(50, 49, 63)" stroke="none" stroke-width="1px">3e+3</text><text style="text-anchor: end; visibility: hidden; font-family: &quot;Helvetica Neue&quot;, sans-serif; font-size: 12px; font-weight: 200;" x="0" y="133.54800009727478" dx="0em" dy="0.3em" fill="rgb(50, 49, 63)" stroke="none" stroke-width="1px">3.5e+3</text><text style="text-anchor: end; visibility: inherit; font-family: &quot;Helvetica Neue&quot;, sans-serif; font-size: 12px; font-weight: 200;" x="0" y="111.29000008106232" dx="0em" dy="0.3em" fill="rgb(50, 49, 63)" stroke="none" stroke-width="1px">4e+3</text><text style="text-anchor: end; visibility: hidden; font-family: &quot;Helvetica Neue&quot;, sans-serif; font-size: 12px; font-weight: 200;" x="0" y="89.03200006484985" dx="0em" dy="0.3em" fill="rgb(50, 49, 63)" stroke="none" stroke-width="1px">4.5e+3</text><text style="text-anchor: end; visibility: inherit; font-family: &quot;Helvetica Neue&quot;, sans-serif; font-size: 12px; font-weight: 200;" x="0" y="66.77400004863739" dx="0em" dy="0.3em" fill="rgb(50, 49, 63)" stroke="none" stroke-width="1px">5e+3</text><text style="text-anchor: end; visibility: hidden; font-family: &quot;Helvetica Neue&quot;, sans-serif; font-size: 12px; font-weight: 200;" x="0" y="44.51600003242493" dx="0em" dy="0.3em" fill="rgb(50, 49, 63)" stroke="none" stroke-width="1px">5.5e+3</text><text style="text-anchor: end; visibility: inherit; font-family: &quot;Helvetica Neue&quot;, sans-serif; font-size: 12px; font-weight: 200;" x="0" y="22.258000016212463" dx="0em" dy="0.3em" fill="rgb(50, 49, 63)" stroke="none" stroke-width="1px">6e+3</text><text style="text-anchor: end; visibility: hidden; font-family: &quot;Helvetica Neue&quot;, sans-serif; font-size: 12px; font-weight: 200;" x="0" y="0" dx="0em" dy="0.3em" fill="rgb(50, 49, 63)" stroke="none" stroke-width="1px">6.5e+3</text></g><line x1="71.90799903869629" y1="0" x2="71.90799903869629" y2="178.0640001296997" fill="rgb(0, 0, 0)" stroke="rgb(204, 204, 204)" stroke-width="1px"></line></g></g><g transform="translate(71, 0)" clip-path="url(#clip_0)"><clipPath id="clip_0"><rect width="258" height="178"></rect></clipPath><g><g><g><line x1="0" y1="0" x2="0" y2="178.0640001296997" fill="rgb(0, 0, 0)" stroke="rgb(60, 60, 60)" stroke-width="1px" opacity="0.25"></line><line x1="21.507666746775307" y1="0" x2="21.507666746775307" y2="178.0640001296997" fill="rgb(0, 0, 0)" stroke="rgb(60, 60, 60)" stroke-width="1px" opacity="0.25"></line><line x1="43.015333493550614" y1="0" x2="43.015333493550614" y2="178.0640001296997" fill="rgb(0, 0, 0)" stroke="rgb(60, 60, 60)" stroke-width="1px" opacity="0.25"></line><line x1="64.52300024032593" y1="0" x2="64.52300024032593" y2="178.0640001296997" fill="rgb(0, 0, 0)" stroke="rgb(60, 60, 60)" stroke-width="1px" opacity="0.25"></line><line x1="86.03066698710123" y1="0" x2="86.03066698710123" y2="178.0640001296997" fill="rgb(0, 0, 0)" stroke="rgb(60, 60, 60)" stroke-width="1px" opacity="0.25"></line><line x1="107.53833373387656" y1="0" x2="107.53833373387656" y2="178.0640001296997" fill="rgb(0, 0, 0)" stroke="rgb(60, 60, 60)" stroke-width="1px" opacity="0.25"></line><line x1="129.04600048065186" y1="0" x2="129.04600048065186" y2="178.0640001296997" fill="rgb(0, 0, 0)" stroke="rgb(60, 60, 60)" stroke-width="1px" opacity="0.25"></line><line x1="150.55366722742718" y1="0" x2="150.55366722742718" y2="178.0640001296997" fill="rgb(0, 0, 0)" stroke="rgb(60, 60, 60)" stroke-width="1px" opacity="0.25"></line><line x1="172.06133397420246" y1="0" x2="172.06133397420246" y2="178.0640001296997" fill="rgb(0, 0, 0)" stroke="rgb(60, 60, 60)" stroke-width="1px" opacity="0.25"></line><line x1="193.56900072097778" y1="0" x2="193.56900072097778" y2="178.0640001296997" fill="rgb(0, 0, 0)" stroke="rgb(60, 60, 60)" stroke-width="1px" opacity="0.25"></line><line x1="215.0766674677531" y1="0" x2="215.0766674677531" y2="178.0640001296997" fill="rgb(0, 0, 0)" stroke="rgb(60, 60, 60)" stroke-width="1px" opacity="0.25"></line><line x1="236.58433421452838" y1="0" x2="236.58433421452838" y2="178.0640001296997" fill="rgb(0, 0, 0)" stroke="rgb(60, 60, 60)" stroke-width="1px" opacity="0.25"></line><line x1="258.0920009613037" y1="0" x2="258.0920009613037" y2="178.0640001296997" fill="rgb(0, 0, 0)" stroke="rgb(60, 60, 60)" stroke-width="1px" opacity="0.25"></line></g><g><line x1="0" y1="178.0640001296997" x2="258.0920009613037" y2="178.0640001296997" fill="rgb(0, 0, 0)" stroke="rgb(60, 60, 60)" stroke-width="1px" opacity="0.25"></line><line x1="0" y1="155.80600011348724" x2="258.0920009613037" y2="155.80600011348724" fill="rgb(0, 0, 0)" stroke="rgb(60, 60, 60)" stroke-width="1px" opacity="0.25"></line><line x1="0" y1="133.54800009727478" x2="258.0920009613037" y2="133.54800009727478" fill="rgb(0, 0, 0)" stroke="rgb(60, 60, 60)" stroke-width="1px" opacity="0.25"></line><line x1="0" y1="111.29000008106232" x2="258.0920009613037" y2="111.29000008106232" fill="rgb(0, 0, 0)" stroke="rgb(60, 60, 60)" stroke-width="1px" opacity="0.25"></line><line x1="0" y1="89.03200006484985" x2="258.0920009613037" y2="89.03200006484985" fill="rgb(0, 0, 0)" stroke="rgb(60, 60, 60)" stroke-width="1px" opacity="0.25"></line><line x1="0" y1="66.77400004863739" x2="258.0920009613037" y2="66.77400004863739" fill="rgb(0, 0, 0)" stroke="rgb(60, 60, 60)" stroke-width="1px" opacity="0.25"></line><line x1="0" y1="44.51600003242493" x2="258.0920009613037" y2="44.51600003242493" fill="rgb(0, 0, 0)" stroke="rgb(60, 60, 60)" stroke-width="1px" opacity="0.25"></line><line x1="0" y1="22.258000016212463" x2="258.0920009613037" y2="22.258000016212463" fill="rgb(0, 0, 0)" stroke="rgb(60, 60, 60)" stroke-width="1px" opacity="0.25"></line><line x1="0" y1="0" x2="258.0920009613037" y2="0" fill="rgb(0, 0, 0)" stroke="rgb(60, 60, 60)" stroke-width="1px" opacity="0.25"></line></g></g></g><g><g><line x1="0" y1="289.354000210762" x2="258.0920009613037" y2="289.354000210762" fill="rgb(0, 0, 0)" stroke="rgb(153, 153, 153)" stroke-width="1.5px"></line></g></g><g><g><line x1="21.507666746775307" y1="0" x2="21.507666746775307" y2="178.0640001296997" fill="rgb(0, 0, 0)" stroke="rgb(153, 153, 153)" stroke-width="1.5px"></line></g></g><g><g><g><g><g><path style="fill: none;" stroke="rgb(255, 112, 67)" stroke-width="2px" d="M26.992121767203013,249.72915630458562L27.099660100936887,141.47770087998578L27.25021376816432,160.49275831717523L27.379259768644967,128.18555806834024L28.132028104782105,-2.3015060297875323L31.702300784746807,-99.55690884971881L32.110946452935536,13.644247016913056L32.56260745461782,-13.303037864182954L34.132667127132414,-11.261270950726441L34.842420129776,14.156158682867556L34.88543546326955,11.651366376830538L35.14352746423085,5.8966043729110424L35.294081131458285,38.15721247958814L35.315588798205056,34.01121601380697L35.35860413169861,26.590201986993918L35.423127131938934,34.1695032609409L35.46614246543248,17.47410967153627L35.72423446639379,32.8039013769972L35.939311133861544,28.495700241210642L36.86414080397288,32.34117662614278L37.03620213794708,32.642894932203234L37.208263471921285,38.73234679826845L37.40183247264226,36.614179426984265L37.68143214035034,42.03306871611795L37.767462807337445,65.27599884322244L37.96103180805842,94.6475508018148L38.04706247504552,112.89618391883208L38.09007780853908,94.75201021863236L38.13309314203262,95.59156816252245L38.283646809260055,87.43611494208048L38.391185142993926,83.17190973527353L38.434200476487476,78.70892779027085L38.54173881022136,79.34592866474625L38.5847541437149,76.63383246061512L38.67078481070201,79.3843929491377L38.75681547768911,80.36946718317296L38.88586147816976,89.83028995192976L38.90736914491654,85.47843301134805L39.40204548009237,89.01810848272916L39.48807614707947,95.965152812821L40.197829149723056,105.9487383780026L40.348382816950476,110.5000491285635L40.47742881743113,116.74624323458565L40.77853615188599,119.0115768971192L40.86456681887309,122.88088392107704L41.01512048610052,126.17712508928665L41.058135819594064,128.60075578389657L41.23019715356827,127.71889188997662L41.531304488023125,128.5423556975786L41.552812154769896,131.1052933473186L41.76788882223765,131.63907667666567L41.83241182247797,133.84183876197324L42.02598082319896,134.93764686924325L42.198042157173155,133.37704378120839L42.39161115789414,134.92582240832263L42.41311882464091,134.3923216460257L42.54216482512156,135.09531102884586L42.56367249186833,135.52156495307247L42.671210825602216,136.6628813996597L43.05834882704417,124.56297167236235L43.1228718272845,125.18033201594042L43.316440828005476,128.36076855694654L43.961670830408735,125.24752569078325L44.24127049811681,122.44073144422956L44.37031649859746,118.88625255430995L44.43483949883779,116.06352809446493L44.47785483233134,120.07817923326266L44.56388549931844,122.63734183461958L44.692931499799094,123.13339948920785L44.80046983353297,122.16257152791187L45.01554650100072,123.52139838457958L45.14459250148138,121.98074605858291L45.252130835215254,121.66991034468181L45.467207502683,118.44924791295922L46.37052950604757,107.85756248004024L46.45656017303467,97.10808298193172L46.478067839781446,101.95903403270411L46.49957550652822,96.83031067137432L46.88671350797018,96.82625436697117L47.166313175678255,91.18961652319415L47.44591284338633,71.6206424176375L48.00511217880249,56.64724854491813L48.2632041797638,64.2975459482465L48.499788513978324,68.17357298191082L48.56431151421865,73.66244225831973L48.62883451445898,65.58639480494625L49.05898784939448,61.44369310140294L49.18803384987513,34.341967379315605L49.33858751710256,46.23897131657324L49.46763351758322,37.97214233723818L49.811756185531614,53.462347583282934L49.87627918577194,35.05911109901663L50.11286351998647,43.53468775079813L50.17738652022679,46.367793670695306L50.24190952046712,49.630690495647116L50.263417187213896,56.34818017064764L51.29578519105912,36.924462960126675L51.36030819129944,22.658821476443222L51.42483119153977,14.816100714098894L51.44633885828654,22.491246013366577L51.91950752671559,1.1262204458858207L52.1775995276769,-22.903506107455826L52.39267619514466,-44.51517981188823L52.47870686213176,3.1882898502689727L53.01639853080113,19.08048237735349L53.03790619754791,5.1095501085137585L53.27449053176244,15.75160761809849L53.446551865736645,32.91397445201176L53.532582532723744,40.973178760104446L53.5755978662173,52.023995708080946L54.2638432021141,68.33507261751186L54.34987386910121,80.19672950921304L54.88756553777059,85.84466955956995L55.231688205718996,95.96350506499871L55.25319587246577,97.26455179446884L55.57581087366739,96.61359917720195L55.6618415406545,104.87000847173393L56.005964208602904,107.49578897019488L56.027471875349676,111.55495880428366L56.50064054377874,114.0509094332966L56.608178877512614,111.2579720825792L56.71571721124649,114.31015230957692L56.78024021148682,115.7105160040554L56.8877785452207,112.6729776276836L56.95230154546102,114.05979302099503L57.210393546422324,108.8909211311265L57.38245488039652,112.75826045189065L57.53300854762396,115.33790888281919L57.68356221485138,119.95380239478298L57.877131215572355,117.35420026797232L57.963161882559454,113.67356894073173L58.00617721605301,116.35964174990556L58.049192549546554,113.81787307613456L58.11371554978688,115.67115458956708L58.264269217014316,111.19025323808405L58.45783821773529,106.81032178924352L58.67291488520304,110.83223169157974L58.75894555219014,111.5453663672901L58.8019608856837,108.82488784854809L58.86648388592402,111.14966014995076L58.9740222196579,108.4671578891506L59.038545219898225,110.11298032761977L59.060052886644996,110.7547531443557L59.49020622158051,110.98236322061068L59.683775222301485,109.27480179783294L59.81282122278214,109.11153651588735L59.96337489000956,105.68044184429222L59.98488255675633,100.00862477073457L60.17845155747732,110.13158202395222L60.329005224704744,107.9186247190656L60.78066622638702,109.2389263318125L60.866696893374126,102.88800211691388L61.081773560841874,105.84187550344876L61.167804227828974,107.6192206271702L61.36137322854996,104.71117487897686L61.64097289625804,97.55675788940182L61.70549589649836,97.99999278738763L61.83454189697902,110.4841498319537L61.87755723047256,107.8262654528639L62.60881789986293,118.43094900734278L62.737863900343584,143.14398034675557L63.10349423503876,146.62456206049742L63.31857090250651,159.30636709684933L63.383093902746836,138.82663225874776L63.426109236240386,144.36810580598288L63.81324723768234,118.98933394935403L64.1143545721372,118.04414695085777L64.15736990563074,124.36146893489952L64.5445079070727,107.62759946154684L64.63053857405981,99.2386648771756L64.80259990803401,94.9524686700658L65.1682302427292,90.50311475380728L65.29727624320984,85.64938398527379L65.81346024513245,85.21454787127068L66.09305991284053,88.65522116181499L66.15758291308086,80.20210281676201L66.17909057982763,78.88006141714907L66.22210591332117,75.76523153584647L66.26512124681473,76.10446632117332L66.35115191380183,73.12726073927136L66.43718258078893,81.99854599711182L66.58773624801636,80.9265241909082L66.91035124921798,82.59224821668032L67.64161191860835,85.3450913615458L67.72764258559545,90.94811392321816L67.87819625282287,89.88795841950062L68.07176525354384,85.77310491083003L68.32985725450516,89.75657834157747L68.54493392197291,91.69805067079294L68.58794925546646,94.97741798626863L68.63096458896001,93.30873326274916L68.73850292269388,89.4949893742451L68.80302592293421,89.82986573211579L68.97508725690841,88.77773570217553L69.06111792389552,87.75123907142348L69.49127125883102,94.24683295987091L69.5988095925649,90.65168567732569L69.62031725931168,90.73681258443176L69.66333259280523,88.61527317476916L69.72785559304555,89.25359008426993L69.81388626003266,93.67445965791156L69.83539392677943,93.98503985195322L69.98594759400686,117.69859392106201L70.05047059424717,109.42866599106183L70.15800892798106,108.5491829118166L70.56665459616978,102.16269187172075L70.78173126363754,103.39669196775941L70.9107772641182,98.839922773868L71.03982326459885,99.70424082499787L71.12585393158595,96.89505198450189L71.38394593254725,98.39980564502807L71.40545359929403,98.33755617735953L71.9431452679634,101.67917087343838L72.1367142686844,104.76990840711093L72.88948260482152,111.33213964129042L72.9109902715683,111.25917800700206L72.95400560506185,111.65742664823537L73.90034294191996,117.98171303740787L74.07240427589416,121.45306567145718L74.2229579431216,123.23059052314878L74.26597327661514,122.7418928920153L74.30898861010868,123.25466170806294L74.41652694384257,122.31907458428594L74.95421861251195,122.78130773849966L74.97572627925872,121.05279753386375L75.19080294672648,123.25540852242635L75.23381828022002,124.8903347165734L75.3413566139539,122.81313687067788L75.64246394840876,124.37165655737105L75.7715099488894,126.29987511854785L75.96507894961039,125.65752517894335L76.28769395081201,126.46381810003302L76.37372461779913,126.67795470209981L76.41673995129267,127.65920063622667L76.95443161996207,128.80424169554547L77.21252362092336,129.64126873163661L77.4276002883911,129.59108660445145L77.55664628887176,130.14518461958153L77.92227662356694,131.47530611219875L78.0513226240476,131.20425597183407L78.07283029079437,131.01675083369093L78.37393762524923,129.98894836185707L78.50298362572987,127.66198737165166L78.61052195946375,129.33041133483874L79.10519829463959,120.15991618112344L79.255751961867,123.85732434754829L79.36329029560089,124.24291858591195L79.64288996330896,118.90904478425148L79.79344363053639,116.35128114122324L80.11605863173803,100.80464245340328L80.37415063269933,69.7569985162972L80.43867363293965,64.14531659554615L80.73978096739451,83.04351087845389L81.49254930353165,100.10479840353851L81.51405697027843,109.06872632078712L81.5355646370252,116.04461624417493L81.92270263846716,120.28241737285504L82.24531763966878,120.29371135837556L83.27768564351399,122.36165680197044L83.47125464423497,123.98738313403275L83.66482364495594,121.66088810352132L83.7938696454366,121.18930670307522L84.2455306471189,120.73899683065439L84.28854598061244,121.81318106638425L84.31005364735921,123.2053126142261L85.32091398445765,124.28704237865759L85.49297531843185,122.75363551580494L85.98765165360768,123.43584135433855L86.18122065432865,124.6392363970996L86.26725132131577,123.50302603546521L86.35328198830287,121.98687261201741L86.61137398926418,119.95647286806991L86.6758969895045,119.24979750449589L86.84795832347871,123.34707026308226L86.91248132371902,123.31553752970171L87.42866532564163,113.78774814134097L87.51469599262873,109.00328476056605L87.55771132612229,112.78786611312059L88.159925995032,6.914309293929136L88.65460233020784,47.688298430336886L88.97721733140945,69.33785045974061L89.14927866538365,75.80688320935204L89.25681699911753,86.63675487589883L89.36435533285142,102.376495096621L89.49340133333206,111.18578190710772L89.83752400128047,117.91384193780985L90.22466200272243,126.25783571171212L90.2461696694692,126.16640658991845L90.39672333669662,129.25734355428983L90.46124633693695,123.95845405817093L90.97743033885955,127.3008621722812L91.04195333909989,120.72080520636877L91.1925070063273,125.40310621162318L91.25703000656765,128.94687909187326L91.27853767331442,118.3938296381316L91.32155300680796,123.59321333717642L91.34306067355473,129.1186725224182L91.88075234222411,131.93515581718432L92.0743213429451,133.95706385912956L92.59050534486771,135.0205062451252L92.7625666788419,136.33806233620186L93.06367401329676,135.78070889377233L93.08518168004355,135.9240874044439L93.45081201473872,137.59171495535824L94.0745343503952,136.55750164145596L94.11754968388874,136.79280679553486L94.33262635135651,135.5587802264336L94.69825668605169,137.36169291534102L94.80579501978556,134.16001884353423L95.27896368821462,135.77254580653957L95.45102502218883,136.70939202533603L95.68760935640336,133.34274104320542L95.7306246898969,136.12049713554663L95.88117835712433,135.0505948979425L96.01022435760498,129.85301913838984L96.16077802483241,133.1210807423883L96.28982402531305,133.64156426780076L96.3543470255534,135.28698686058175L96.71997736024858,128.4258913726431L96.97806936120986,124.87171808497709L97.04259236145019,121.02610018808281L97.19314602867762,121.08525043995124L97.53726869662603,118.38305875626571L97.58028403011957,122.01169734558152L97.70933003060023,118.34217339959982L97.79536069758734,119.24393718583386L98.13948336553572,117.5564175532166L98.50511370023091,117.94957237818579L98.93526703516643,117.88633427255874L99.32240503660839,115.44106263672595L99.36542037010193,113.88144200984642L99.40843570359547,111.52108807643104L99.47295870383581,110.76372121139296L99.53748170407613,110.03066310193277L99.90311203877131,108.00182874564616L100.13969637298584,107.52737149335277L100.4408037074407,109.5865297526683L101.08603370984395,109.23244703131854L101.1290490433375,108.41081941329935L101.64523304526011,106.81428076824652L101.73126371224721,108.36051300100758L101.77427904574076,108.21303009105291L101.90332504622141,108.2492807850147L101.96784804646174,108.26538845060641L102.0108633799553,110.68286436890276L102.20443238067628,111.34991179196616L102.3549860479037,113.34432602430914L102.63458571561178,110.39832168686938L102.80664704958598,110.77380366291963L103.08624671729405,118.6022604579941L103.12926205078762,118.3734608935602L103.19378505102793,114.47610069512982L103.53790771897634,114.78096553776254L103.64544605271021,118.08492120303737L103.68846138620377,119.06073306592224L103.90353805367153,119.83708253379216L103.98956872065861,119.2913965317461L104.6132910563151,117.64237270689958L104.72082939004898,124.5137145517017L104.8713830572764,122.60876198739558L105.81772039413451,122.58164659024968L105.98978172810872,121.85518195535107L106.14033539533615,122.02059521977179L106.22636606232327,123.04487174784799L106.46295039653778,123.47882181964027L106.59199639701843,124.0600287606056L106.72104239749908,124.64163159762003L107.19421106592814,125.84349203794993L107.43079540014267,127.1471288545253L107.53833373387656,128.370188888151L107.73190273459753,128.5779883782558L107.7534104013443,118.89794950892703L108.0115024023056,119.54805880844005L108.24808673652014,106.79920089498387L108.31260973676046,103.63450797986422L108.5276864042282,105.204088555975L109.53854674132666,116.73377188240048L109.64608507506053,124.12126915125413L109.6675927418073,128.2452333764041L109.88266940927505,130.92911533664665L111.45272908178966,130.5155271796774L111.68931341600418,132.46335639217347L111.71082108275095,132.8931752644454L111.75383641624451,132.11528273197604L111.79685174973805,133.73426962104486L111.86137474997838,134.6358577102947L111.88288241672515,133.29933956794582L112.42057408539453,134.54878595629629L112.52811241912842,133.427960154741L112.59263541936875,133.7583136452414L112.76469675334295,133.89617699809145L113.00128108755747,133.50523868328457L113.19485008827846,134.50477311365876L113.25937308851879,134.1360881860216L113.28088075526556,135.0307420654084L113.60349575646718,134.00327084385418L113.9476184244156,132.78067929524576L114.07666442489624,133.47604449446533L114.16269509188335,133.80531843033924L114.35626409260432,131.85347294186047L114.39927942609786,131.68683180302048L114.59284842681885,131.24852117220445L114.67887909380596,131.31787890372252L114.91546342802047,131.83691894844986L115.47466276343664,131.50009176661095L115.66823176415761,130.17977875083375L115.99084676535925,128.6970191018019L116.14140043258668,127.00601010281474L116.27044643306732,127.56850138074306L116.35647710005442,128.04151345892686L116.3779847668012,126.97817264391838L116.78663043498993,126.90927304556224L116.85115343523024,126.10475341646142L117.62542943811417,118.4838749502078L117.75447543859481,115.14879268424761L118.07709043979645,107.58754711359026L118.12010577328999,108.90188021998893L118.48573610798518,110.06054976495707L118.50724377473196,112.44047777168072L118.91588944292069,116.10893702969062L118.93739710966746,119.73733726639557L119.00192010990779,121.7163638063212L119.19548911062876,122.60837868357703L119.4320734448433,124.94711161749419L119.96976511351266,126.4935198767769L120.03428811375301,124.90347205316877L120.27087244796753,126.7555468075322L120.33539544820785,126.78521370819058L120.3784107817014,128.84617217937068L120.42142611519496,128.3450060780005L120.67951811615626,127.8020680818457L121.04514845085143,123.6753779165405L121.49680945253372,125.64381256864158L121.64736311976115,126.36904516972643L121.81942445373535,125.76111920461759L121.90545512072245,128.78062731903296L122.05600878794988,130.02357507828353L122.07751645469665,128.29406285234344L122.09902412144343,130.71147963999914L122.31410078891118,131.11784257941022L122.87330012432734,131.53911137873297L122.98083845806121,130.82308451308973L123.32496112600963,131.1667078364545L123.56154546022415,132.0928151020915L123.64757612721127,131.02366719661833L123.66908379395804,130.2091225032084L123.84114512793224,128.1546105950063L123.97019112841288,128.2917094604578L124.0347141286532,130.2776059674434L124.22828312937419,127.16288165287314L124.31431379636129,127.15967176119301L124.46486746358872,125.74729722945443L124.48637513033549,126.37050030523247L124.61542113081615,128.33761240537538L124.7444671312968,130.44655559074695L124.78748246479034,130.6575835164363L124.85200546503067,131.41422339574632L125.60477380116781,126.82827882083319L125.86286580212912,125.22226004156343L126.27151147031785,126.28520924461834L126.31452680381139,124.96050133845934L126.76618780549367,128.12590516405479L127.19634114042918,131.3897671818904L127.7125251423518,134.0553801630288L127.77704814259211,135.66267736421764L128.05664781030018,136.67502341387214L128.2287091442744,133.5014098053639L128.42227814499537,134.4592204939061L128.4868011452357,134.22911501035145L128.52981647872926,133.60140180345576L128.55132414547603,130.20158102711628L129.49766148233414,126.99875588038742L129.6267074828148,126.2379285221019L129.6912304830551,125.07798801404007L129.84178415028254,124.58352816559974L130.12138381799062,126.4678449913273L130.16439915148416,123.9638645329446L130.18590681823093,118.60726445549822L130.3364604854584,115.3518793148596L130.72359848690033,111.30335314301276L131.21827482207615,106.6017478054369L131.32581315581004,106.35532225320414L131.75596649074552,103.96300845616712L131.79898182423912,96.82381639410285L131.92802782471975,93.76069164759694L132.4872271601359,91.71918218313881L132.5947654938698,93.25842449241483L132.96039582856497,87.03345669699227L133.34753383000694,90.38158024208549L133.5195951639811,90.93420732901821L134.01427149915696,91.35776302733859L134.10030216614405,89.25381784617574L134.18633283313116,88.58923453947594L134.20784049987793,87.52247502450074L134.7670398352941,87.71152112158829L135.26171617046992,92.15233001502403L135.8854385061264,101.30070117377704L136.12202284034092,98.85681616168813L136.46614550828934,99.53020929661832L136.7672528427442,101.87876839852406L136.78876050949097,104.07340693875528L137.21891384442645,103.53198180099363L137.73509784634908,107.75278850797578L138.0792205142975,111.45064402910766L138.48786618248621,115.99973951262483L138.55238918272656,119.36692328132466L138.6599275164604,120.91138184688545L139.4557111860911,124.73997851646064L139.60626485331855,128.09508708147632L139.69229552030563,131.28577431196854L139.82134152078626,132.11501785689532L139.95038752126695,132.84331684339446L140.0579258550008,134.08266235775335L140.12244885524115,134.85617015935927L140.1654641887347,135.94512037085602L140.6816481906573,137.0527319359756L140.85370952463148,137.85265968491157L141.21933985932668,145.4984533687895L141.32687819306054,142.75691358198102L141.3698935265541,141.07354249268045L141.6279855275154,139.8037315924265L141.67100086100896,139.26265136805995L141.80004686148962,138.61983120938015L142.0581388624509,138.62944901953833L142.1656771961848,138.0430351817644L142.38075386365253,138.01575373089895L142.5958305311203,137.42627613808722L143.19804520003,135.8721182627758L143.24106053352358,135.71512790573195L143.32709120051067,135.39590183352922L143.6497062017123,135.09840593778665L144.53152053833008,133.46857811764337L144.5960435385704,131.6615796194847L144.98318154001234,131.104343018239L145.37031954145434,130.32776241966945L145.7359498761495,128.83282932813756L145.80047287638982,127.67615513006055L145.9080112101237,127.15631946134118L146.01554954385756,126.28238182337205L146.40268754529953,125.9790690032516L146.4241952120463,126.35069689439507L146.78982554674147,126.91985073831768L146.8543485469818,127.0776102101624L147.00490221420924,126.53961702093343L147.58560921637218,126.4706144747684L147.62862454986572,125.34527008260798L147.77917821709315,126.10153542062002L148.1663162185351,125.98478556598045L148.35988521925609,126.4151102742643L148.55345421997706,126.1122730808572L148.76853088744483,125.50140000746907L149.00511522165934,125.28257016588755L149.09114588864645,124.81327235834871L149.11265355539322,124.03498814494796L149.52129922358196,123.87999044018163L149.62883755731582,123.53212032807369L149.67185289080936,121.37607540079676L149.75788355779648,121.08957947250792L149.95145255851745,121.03893584843544L150.3385905599594,120.4751966958691L150.7687438948949,122.39111476690869L150.8762822286288,120.38934145020583L151.06985122934978,122.75086164246655L151.1988972298304,124.88648110053398L151.22040489657718,125.46760392252062L151.30643556356432,127.33108232384723L151.37095856380463,128.77878773910203L151.8441272322337,130.90073201612097L152.23126523367563,131.4670158021299L152.3172959006627,132.9016144913296L152.42483423439663,133.25845171502925L152.76895690234502,134.76811310995836L152.81197223583857,135.15951974146301L153.0270489033063,135.77236281400053L153.156094903787,135.74087229668535L153.19911023728054,135.27470956214236L153.32815623776116,134.88615639008728L153.3711715712547,135.40895746513922L153.41418690474828,135.8330890879852L153.6722789057096,136.84667454388637L153.71529423920313,137.10067147576282L153.75830957269667,137.30383265562878L154.25298590787253,137.8338289243925L154.4465549085935,138.41800541279775L154.5110779088338,139.01956589586752L154.8552005767822,139.45390576584094L155.09178491099675,139.70206346633157L155.1348002444903,139.95742262185976L155.26384624497098,139.54596308820285L155.54344591267903,139.57303465883325L155.65098424641292,138.79784919907254L155.80153791364035,138.89127895838857L155.93058391412097,138.7699596818177L156.21018358182906,139.00962783289967L156.76938291724525,138.24488933265272L157.26405925242105,138.3668626567557L157.35008991940816,137.44030597470805L157.37159758615493,138.05201273507998L157.52215125338236,137.0857347704101L157.88778158807756,134.4598926455866L158.12436592229207,133.4586655074389L158.3609502565066,129.80290569341878L158.511503923734,130.150543940842L158.6405499242147,127.30850713824574L159.1567339261373,122.39788091294699L160.3396555972099,115.8391317622459L160.42568626419705,116.48309625758256L160.7052859319051,114.40489704127064L161.02790093310674,113.23742813810387L161.19996226708096,109.41992690994903L161.22146993382773,107.10290785272429L161.30750060081482,109.7089768615347L161.5225772682826,108.73656695911431L161.73765393575033,105.29881074058304L161.7591616024971,104.65750420112458L161.78066926924387,105.92244237435429L161.95273060321807,100.1330277700067L162.38288393815358,105.39422680516672L162.89906794007618,105.31059876140255L163.04962160730364,108.11887080910108L163.11414460754395,106.6156102877417L163.32922127501172,107.24038757994437L163.5227902757327,110.91531980806032L163.587313275973,111.41590757181345L163.80238994344077,113.40598151801483L163.90992827717463,114.38080632190413L164.68420428005854,119.05539134393534L164.87777328077954,122.33819811648664L164.92078861427308,125.62045643839537L165.00681928126016,125.13887523756787L165.13586528174082,123.94055245117461L165.20038828198116,126.95635988948095L165.3509419492086,127.28755667560671L165.52300328318276,125.83865672694144L165.5875262834231,127.47048125878283L165.7595876173973,130.76505137488675L165.8456182843844,129.59124744576988L165.93164895137153,130.8765259811552L166.42632528654735,102.37898822559866L166.51235595353444,100.18224875030651L166.6629096207619,87.22516646446601L166.74894028774898,30.160193497683935L166.9855246219635,41.081057178633586L167.2436166229248,28.47195009277752L167.5877392908732,22.37700930170999L168.1254309595426,65.76143232461507L168.4480459607442,91.47815704555138L168.74915329519908,104.46709354625698L168.92121462917328,111.3925890730013L169.09327596314748,114.16935106929378L169.22232196362813,114.52783771142938L169.24382963037493,114.81708100653034L169.80302896579107,109.63263079140695L170.10413630024593,104.78141983919014L170.6418279689153,97.35994436848075L171.00745830361046,89.77987094549604L171.26555030457178,83.98095337438784L171.33007330481212,80.39367761523808L171.45911930529277,77.95241027516276L171.84625730673474,69.27660562133391L171.88927264022828,62.80440787577017L172.27641064167022,52.98361991707593L172.3624413086573,53.46560359415871L172.8141023103396,48.62956759901891L172.90013297732673,46.42719498369439L173.05068664455413,44.5856471656833L173.33028631226222,44.296135088751896L173.45933231274287,44.031874299558325L173.76043964719773,41.03271882475431L174.01853164815904,44.46935048743589L174.34114664936067,45.27963868178935L174.51320798333487,48.89180858817838L174.53471565008164,50.73339600208706L175.0078843185107,52.673832042447046L175.0939149854978,53.960921309721286L175.39502231995263,56.123421723442206L175.65311432091394,58.29372249184175L175.67462198766071,60.94050351714213L175.82517565488817,63.58131467137039L176.126282989343,65.42450714143958L176.25532898982365,63.29036207815227L176.40588265705108,58.097675061549054L176.44889799054462,57.935229949050665L176.64246699126562,53.853059206774205L176.68548232475916,55.386730224465765L176.70698999150594,45.60206945072093L177.11563565969468,55.44533405260742L177.180158659935,64.32364004715436L177.373727660656,72.16931631993586L177.65332732836407,78.01482753052748L178.16951133028667,84.9785756015876L178.51363399823506,93.0671898767594L178.7502183324496,100.00089890978417L179.13735633389157,107.17984819273536L179.3524330013593,111.46286003319146L179.37394066810606,113.17231718605717L179.50298666858674,116.27654089804062L179.65354033581417,119.37214224253506L179.73957100280126,118.62110454694118L179.76107866954803,118.39633976803064L179.7825863362948,117.8519815203079L180.25575500472388,120.56598761177963L180.27726267147065,122.23341667020672L180.36329333845774,122.62677846028953L180.40630867195128,122.46408606725191L180.59987767267228,123.82408706022544L180.68590833965936,120.63053501090154L181.30963067531587,121.51185617123546L181.33113834206264,124.95243434338487L181.5247073427836,128.87069441013423L181.58923034302393,132.45457845498817L181.73978401025138,134.16618718197157L181.9548606777191,135.72616196229987L181.97636834446587,137.07378941282792L182.01938367795944,137.3987717074019L182.12692201169332,137.9420987844L182.25596801217398,138.444563584243L182.34199867916107,138.683467922697L182.3850140126546,138.60297851310634L182.729136680603,138.04259436541645L182.8581826810837,137.53862463253972L182.87969034783046,137.04114185868718L183.05175168180466,136.73638778460548L183.46039734999337,136.23924542430254L183.82602768468857,135.15718279348738L184.38522702010474,135.7489026194178L184.87990335528056,134.35963330706488L185.15950302298864,134.8487533706166L185.22402602322896,130.77318867431526L185.89076369237898,126.21794360929451L185.91227135912578,123.41174511866635L186.25639402707418,121.80698106262821L186.27790169382095,121.09921582880051L186.49297836128872,123.12652753169613L186.55750136152903,125.7217150563909L186.60051669502258,126.99034302412267L186.83710102923712,126.78285773022805L186.96614702971777,129.2021255635566L187.0306700299581,130.50406207516352L187.11670069694517,129.23441011657135L187.50383869838714,127.1203454533217L187.52534636513394,124.62997288534126L187.61137703212103,125.32096762153529L187.67590003236134,121.98647389098967L187.7189153658549,123.3557692730857L188.02002270030977,124.92133754194772L188.10605336729685,125.24443621140983L188.3426377015114,121.32886434017198L188.4071607017517,121.65201145687584L188.83731403668722,117.99548743464047L189.00937537066142,114.37996064643565L189.22445203812916,109.88686589916388L189.24595970487593,111.3233676026389L189.48254403909047,111.13248261301956L189.9772203742663,109.99240992123536L190.08475870800018,111.51233868706706L190.45038904269535,105.90914893674241L191.39672637955348,110.28238133319742L191.41823404630026,114.9861656764916L191.50426471328734,116.4895671834606L191.59029538027445,118.36701277116497L191.97743338171642,119.407695531147L192.10647938219705,118.31266164408689L193.03130905230842,109.25290721901165L193.20337038628261,101.37302182781127L193.37543172025678,81.17478940526014L193.39693938700358,75.92349499501306L193.76256972169878,72.51427340727032L194.04216938940684,81.62354583149967L194.12820005639395,95.0407667500323L194.36478439060846,101.20629881540404L194.62287639156978,108.72705582147307L194.6873993918101,109.85582451796235L194.73041472530363,106.56285410835467L194.81644539229075,113.24945508960276L194.98850672626494,112.85705741069042L196.27896673107145,107.00762083284756L196.40801273155213,107.91185505459129L196.4295203982989,99.04796915383284L196.79515073299407,104.00016568882745L196.9457044002215,110.25365177002745L197.44038073539735,102.2868629375553L197.52641140238444,103.34197648372852L197.76299573659895,92.04752146368206L197.8275187368393,83.947766852253L198.1931490715345,92.60761457493065L198.32219507201512,98.64408875407138L198.6017947397232,100.79931452025313L199.03194807465871,99.81266563377041L199.22551707537968,104.31846256262517L199.56963974332808,102.92935530133204L199.61265507682162,102.52022754252145L199.80622407754262,102.89911387128367L199.99979307826362,100.74510050274394L200.1718544122378,100.6378701207646L200.6020077471733,99.94599540361992L200.64502308066685,101.49999931773617L200.70954608090716,100.86002177209188L200.75256141440076,100.16917045854426L200.8816074148814,101.56427854439002L201.1396994158427,99.06141746455847L201.16120708258947,97.29835190162542L201.3117607498169,95.36032169213073L201.3762837500572,99.22698558962855L201.4838220837911,91.77773035773028L201.63437575101852,86.58607031415904L201.67739108451207,86.75962423416163L202.7742820885976,93.15401519777622L203.01086642281214,95.18527383322369L203.07538942305248,99.14382362039403L203.18292775678634,104.99418371944631L203.52705042473474,105.93728291099221L203.61308109172185,107.5110168364195L203.63458875846862,110.08796843817763L203.6776040919622,108.94970722110531L203.89268075942994,103.75065010749435L203.97871142641702,99.67468698316223L204.06474209340413,100.56200985864692L204.2583110941251,101.1769755472791L204.27981876087188,103.49426899703377L204.3873570946058,102.96303193579944L204.47338776159287,101.5439706849761L204.49489542833965,103.28463453793266L204.81751042954127,103.01894088000236L205.48424809869132,103.41533129033651L205.7423400996526,102.22182832846318L205.89289376688004,98.30189611775556L206.00043210061392,102.11002088097415L206.30153943506878,95.96097436244963L206.49510843578975,100.77094199541642L206.81772343699137,100.9979566791191L207.0543077712059,98.81749894155949L207.2048614384333,89.34366832432607L207.22636910518008,87.19460983546732L207.41993810590108,80.53206745464456L208.23722944227853,68.83818643070128L208.30175244251888,62.28186807604533L208.34476777601242,59.53753241177439L208.40929077625273,56.91397000859398L208.43079844299953,57.510039735454015L208.51682910998662,65.0882202494856L209.20507444588344,84.5723593398784L209.50618178033827,98.20546191271661L210.0868887825012,109.9702656258276L210.21593478298186,115.46054573341105L210.30196544996898,120.39913657806511L210.68910345141094,119.24785630920442L210.7966417851448,119.38495098325663L211.11925678634643,122.10032484234026L211.18377978658677,118.88749949215416L211.24830278682708,118.17969918449357L211.69996378850936,119.44243188979819L211.9365481227239,120.97621492917128L212.216147790432,119.60268916948374L212.23765545717876,119.77406276439635L212.45273212464653,118.75293182404084L212.51725512488684,120.87369651064668L212.60328579187393,115.00088954904626L212.96891612656913,113.48868517823865L213.01193146006267,120.6132314178544L213.07645446030298,120.91870566888895L213.52811546198527,120.17837885868067L213.57113079547884,112.14344834280796L213.6786691292127,113.29652419583888L213.9152534634272,96.5083841343783L214.08731479740143,87.40619234508402L214.17334546438852,86.55150076705037L214.53897579908372,87.32864125554475L214.66802179956437,80.60308751840296L214.8830984670321,71.50232136617825L214.92611380052566,78.36017791897221L215.05515980100634,90.54469060535465L215.1626981347402,104.87329345510837L215.27023646847405,103.52018580107232L215.3347594687144,106.15038179865783L215.65737446991602,99.99473992829472L215.6788821366628,100.65076798346364L216.25958913882573,103.77700208691479L216.43165047279993,111.15751981783885L216.6467271402677,94.60263565478127L216.88331147448224,94.51239273833474L217.3349724761645,91.07843054772377L217.7006028108597,97.11764379941306L217.72211047760646,109.37915812273407L218.41035581350326,108.72440829253172L218.43186348025006,109.29407343534578L218.5609094807307,103.68842623506154L219.679308151563,78.87224713285879L219.72232348505656,76.28024118205714L219.872877152284,74.6561334513697L219.9374001525243,84.5550843802523L220.08795381975173,89.09700031781398L220.66866082191467,105.19038728813511L221.12032182359695,116.05641999620916L221.33539849106472,123.71248875977199L221.67952115901312,125.07186003039763L221.72253649250666,129.10212052870827L221.7655518260002,131.35996271312473L221.8730901597341,132.68420673351807L222.56133549563089,132.52715408881096L222.66887382936477,131.00106362203746L222.9054581635793,124.53482493519601L222.92696583032608,125.35738418784439L222.94847349707285,126.90150168746425L223.01299649731317,125.28733451429184L223.35711916526157,121.07013999552208L223.93782616742453,120.91665164106962L224.00234916766485,120.43913440507052L224.43250250260036,122.37276827251007L224.561548503081,121.37512243671456L224.58305616982778,119.86625663808985L225.14225550524392,120.74836324185759L225.29280917247138,120.3449213635951L225.4433628396988,122.3779890086073L226.15311584234237,117.96883355870202L226.2176388425827,116.53244962518642L226.62628451077143,116.16758997715782L226.6477921775182,117.80563913227135L226.8413611782392,118.67916532565047L226.9919148454666,117.73164033396543L227.05643784570694,117.43053434227417L227.20699151293437,118.98034765047302L227.2715145131747,118.40560352882761L227.68016018136342,121.05672298341321L227.74468318160373,120.3529556775402L227.98126751581827,120.07257700232284L228.21785185003282,124.4321269360373L228.43292851750056,127.86304745232852L228.4759438509941,127.46097786031093L228.49745151774087,128.09483198151906L228.56197451798118,128.77850969157427L229.0781585199038,129.52515120457122L229.1856968536377,131.0601655354268L229.20720452038447,129.6879393478947L229.29323518737155,131.09955028387844L229.70188085556032,130.14098005391912L229.7233885223071,132.1114010408446L229.91695752302806,131.33234996672752L230.08901885700226,130.36889631408349L230.34711085796354,130.0479605371375L231.14289452759422,131.48768428544008L231.2074175278346,132.33266009612663L231.40098652855553,132.78915209226741L231.4224941953023,133.43031298475066L231.551540195783,134.12286113569922L231.59455552927653,134.1282037779227L231.7881245299975,134.71913359259116L232.54089286613464,135.4729747875424L232.64843119986853,136.1631575324208L233.14310753504435,136.62096589344216L233.20763053528466,135.6778644314336L233.272153535525,135.1613058937175L233.46572253624598,134.3466880097827L234.0679372051557,134.6752379956422L234.5841212070783,135.9985575789938L234.79919787454602,135.12195166255353L235.9821195456187,135.83155490772995L236.11116554609936,136.31529633651868L236.19719621308644,135.46614895624327L236.26171921332676,134.6286984618235L236.4983035475413,135.51024538688284L236.5628265477816,133.6377092307943" fill="none"></path></g></g></g></g><g opacity="0.2"><g><g><g><path style="fill: none;" stroke="rgb(255, 112, 67)" stroke-width="2px" d="M27.25021376816432,189.01471877439482L27.379259768644967,79.72539554439916L28.132028104782105,-198.03055643330566L28.97082710790634,-26.115850479959988L29.40098044284185,82.42189573191013L30.562394447167716,-140.26304742247845L30.583902113914487,-135.31825013372043L30.94953244860967,60.03645562380798L31.014055448849998,-132.27272972525213L32.928237789312995,-84.63474088195943L33.03577612304687,29.930467387035378L33.61648312520981,-50.05848113607135L33.83155979267756,-5.625622558785125L33.960605793158216,22.572372530113313L34.111159460385636,-15.149612096972305L34.132667127132414,-16.93442547327234L34.842420129776,52.28230313183181L34.88543546326955,7.894177917859395L35.14352746423085,-2.7355386328519273L35.294081131458285,86.5481246392125L35.315588798205056,27.792221315165392L35.35860413169861,15.458680946806794L35.423127131938934,45.53845517184155L35.46614246543248,-7.56898071254443L35.72423446639379,55.79858893517428L35.939311133861544,22.03339853753326L36.86414080397288,38.10939120353967L37.03620213794708,33.09547239129384L37.208263471921285,47.86652459736541L37.40183247264226,33.43692837005818L37.68143214035034,50.161402649818214L37.767462807337445,100.14039403387858L37.96103180805842,138.70487873970285L38.04706247504552,140.26913359435787L38.09007780853908,67.53574966833287L38.13309314203262,96.85090507835756L38.283646809260055,75.20293511141755L38.391185142993926,76.77560192506306L38.434200476487476,72.01445487276696L38.54173881022136,80.30142997645935L38.5847541437149,72.5656881544185L38.67078481070201,83.51023368192162L38.75681547768911,81.84707853422582L38.88586147816976,104.02152410506491L38.90736914491654,78.95064760047548L39.40204548009237,94.32762168980088L39.48807614707947,106.38571930795884L40.197829149723056,120.92411672577501L40.348382816950476,117.32701525440493L40.47742881743113,126.11553439361887L40.77853615188599,122.4095773909195L40.86456681887309,128.68484445701375L41.01512048610052,131.1214868416011L41.058135819594064,132.23620182581146L41.23019715356827,126.39609604909666L41.531304488023125,129.77755140898154L41.552812154769896,134.94969982192856L41.76788882223765,132.4397516706863L41.83241182247797,137.14598188993457L42.02598082319896,136.5813590301483L42.198042157173155,131.0361391491561L42.39161115789414,137.24899034899397L42.41311882464091,133.59207050258033L42.54216482512156,136.14979510307614L42.56367249186833,136.1609458394124L42.671210825602216,138.3748560695406L43.05834882704417,106.4131070814163L43.1228718272845,126.10637253130751L43.316440828005476,133.13142336845573L43.961670830408735,120.57766139153827L44.24127049811681,118.23054007439897L44.37031649859746,113.55453421943052L44.43483949883779,111.82944140469743L44.47785483233134,126.10015594145924L44.56388549931844,126.47608573665494L44.692931499799094,123.87748597109027L44.80046983353297,120.70632958596792L45.01554650100072,125.55963866958115L45.14459250148138,119.66976756958792L45.252130835215254,121.20365677383018L45.467207502683,113.61825426537537L46.37052950604757,91.97003433066176L46.45656017303467,80.98386373476895L46.478067839781446,109.23546060886268L46.49957550652822,89.13722562937963L46.88671350797018,96.82016991036642L47.166313175678255,82.73465975752856L47.44591284338633,42.26718125930253L48.00511217880249,34.18715773583901L48.2632041797638,75.77299205323902L48.499788513978324,73.98761353240732L48.56431151421865,81.89574617293313L48.62883451445898,53.4723236248861L49.05898784939448,55.22964054608798L49.18803384987513,-6.310621203815316L49.33858751710256,64.08447722245961L49.46763351758322,25.57189886823565L49.811756185531614,76.69765545235003L49.87627918577194,7.454256372617095L50.11286351998647,56.24805272847041L50.17738652022679,50.61745255054103L50.24190952046712,54.52503573307477L50.263417187213896,66.42441468314838L51.29578519105912,7.78888714434521L51.36030819129944,1.260359250918043L51.42483119153977,3.052019570582445L51.44633885828654,34.003963962268074L51.91950752671559,-30.92131790533523L52.39267619514466,-76.93269036853687L52.47870686213176,74.74349434350478L53.01639853080113,42.91877116798028L53.03790619754791,-15.846848294745797L53.27449053176244,31.714693882475615L53.446551865736645,58.6575247028817L53.532582532723744,53.06198522224348L53.5755978662173,68.60022113004571L54.2638432021141,92.80168798165815L54.34987386910121,97.98921484676481L54.88756553777059,94.31657963510533L55.231688205718996,111.14175832314183L55.25319587246577,99.2161218886741L55.57581087366739,95.63717025130161L55.6618415406545,117.25462241353188L56.005964208602904,111.4344597178863L56.027471875349676,117.64371355541685L56.50064054377874,117.794835376816L56.608178877512614,107.0685660565031L56.71571721124649,118.8884226500735L56.78024021148682,117.81106154577313L56.8877785452207,108.1166700631259L56.95230154546102,116.1400161109622L57.210393546422324,101.13761329632368L57.38245488039652,118.55926943303686L57.53300854762396,119.20738152921206L57.68356221485138,126.87764266272868L57.877131215572355,113.45479707775631L57.963161882559454,108.15262194987083L58.00617721605301,120.3887509636663L58.049192549546554,110.00522006547806L58.11371554978688,118.45107685971587L58.264269217014316,104.46890121085953L58.45783821773529,100.24042461598269L58.67291488520304,116.8650965450841L58.75894555219014,112.6150683808556L58.8019608856837,104.74417007043503L58.86648388592402,114.63681860205479L58.9740222196579,104.44340449795034L59.038545219898225,112.5817139853235L59.060052886644996,111.71741236945958L59.49020622158051,111.32377833499318L59.683775222301485,106.71345966366633L59.81282122278214,108.86663859296904L59.96337489000956,100.5337998368995L59.98488255675633,91.50089916039816L60.17845155747732,125.31601790377871L60.329005224704744,104.59918876173569L60.78066622638702,111.21937875093276L60.866696893374126,93.36161579456599L61.081773560841874,110.272685583251L61.167804227828974,110.28523831275234L61.36137322854996,100.34910625668685L61.64097289625804,86.82513240503926L61.70549589649836,98.6648451343663L61.83454189697902,129.21038539880283L61.87755723047256,103.83943888422917L62.60881789986293,134.33797433906113L62.737863900343584,180.21352735587476L63.10349423503876,151.84543463111024L63.31857090250651,178.32907465137717L63.383093902746836,108.10703000159545L63.426109236240386,152.68031612683552L63.81324723768234,80.92117616441078L64.1143545721372,116.62636645311332L64.15736990563074,133.83745191096216L64.5445079070727,82.52679525151778L64.63053857405981,86.65526300061866L64.80259990803401,88.52317435940111L65.1682302427292,83.82908387941949L65.29727624320984,78.36878783247353L65.81346024513245,84.56229370026605L66.09305991284053,93.8162310976315L66.15758291308086,67.52242529918253L66.17909057982763,76.89699931772961L66.22210591332117,71.09298671389266L66.26512124681473,76.61331849916361L66.35115191380183,68.66145236641843L66.43718258078893,95.30547388387251L66.58773624801636,79.31849148160278L66.91035124921798,85.09083425533854L67.64161191860835,89.47435607884394L67.72764258559545,99.35264776572667L67.87819625282287,88.2977251639244L68.07176525354384,79.60082464782404L68.32985725450516,95.73178848769865L68.54493392197291,94.61025916461611L68.58794925546646,99.89646895948215L68.63096458896001,90.80570617746993L68.73850292269388,83.77437354148901L68.80302592293421,90.33218026892189L68.97508725690841,87.1995406572651L69.06111792389552,86.21149412529543L69.49127125883102,103.99022379254212L69.5988095925649,85.25896475350787L69.62031725931168,90.86450294509088L69.66333259280523,85.43296406027522L69.72785559304555,90.21106544852117L69.81388626003266,100.30576401837402L69.83539392677943,94.45091014301568L69.98594759400686,153.2689250247252L70.05047059424717,97.02377409606159L70.15800892798106,107.22995829294878L70.56665459616978,92.58295531157695L70.78173126363754,105.24769211181743L70.9107772641182,92.0047689830308L71.03982326459885,101.00071790169272L71.12585393158595,92.68126872375794L71.38394593254725,100.65693613581732L71.40545359929403,98.24418197585678L71.9431452679634,106.69159291755663L72.1367142686844,109.40601470761973L72.88948260482152,121.17548649255966L72.9109902715683,111.14973555556952L72.95400560506185,112.25479961008539L73.90034294191996,127.4681426211666L74.07240427589416,126.66009462253115L74.2229579431216,125.89687780068617L74.26597327661514,122.00884644531511L74.30898861010868,124.02381493213436L74.41652694384257,120.91569389862043L74.95421861251195,123.47465746982029L74.97572627925872,118.46003222690987L75.19080294672648,126.55932500527024L75.23381828022002,127.342724007794L75.3413566139539,119.69734010183456L75.64246394840876,126.70943608741084L75.7715099488894,129.192202960313L75.96507894961039,124.69400026953657L76.28769395081201,127.67325748166756L76.37372461779913,126.99915960519999L76.41673995129267,129.13106953741692L76.95443161996207,130.52180328452366L77.21252362092336,130.89680928577337L77.4276002883911,129.51581341367373L77.55664628887176,130.97633164227662L77.92227662356694,133.47048835112457L78.0513226240476,130.7976807612871L78.07283029079437,130.73549312647617L78.37393762524923,128.44724465410633L78.50298362572987,124.17154588634352L78.61052195946375,131.8330472796194L79.10519829463959,106.40417345055042L79.255751961867,129.40343659718562L79.36329029560089,124.82130994345744L79.64288996330896,110.9082340817608L79.79344363053639,112.51463567668088L80.11605863173803,77.48468442167331L80.37415063269933,23.185532610638063L80.43867363293965,55.72779371441959L80.73978096739451,111.39080230281543L81.49254930353165,125.69672969116539L81.51405697027843,122.51461819666007L81.5355646370252,126.50845112925663L81.92270263846716,126.63911906587525L82.24531763966878,120.31065233665629L83.27768564351399,125.46357496736275L83.47125464423497,126.42597263212625L83.66482364495594,118.17114555775416L83.7938696454366,120.48193460240606L84.2455306471189,120.06353202202317L84.28854598061244,123.42445741997903L84.31005364735921,125.29350993598887L85.32091398445765,125.90963702530485L85.49297531843185,120.45352522152598L85.98765165360768,124.45915011213894L86.18122065432865,126.44432896124117L86.26725132131577,121.79871049301362L86.35328198830287,119.7126424768457L86.61137398926418,116.91087325214869L86.6758969895045,118.18978445913491L86.84795832347871,129.4929794009618L86.91248132371902,123.26823842963088L87.42866532564163,99.49606405879987L87.51469599262873,101.82658968940366L87.55771132612229,118.46473814195238L88.159925995032,-151.89602593485802L88.65460233020784,108.8492821349486L88.97721733140945,101.81217850384628L89.14927866538365,85.51043233376916L89.25681699911753,102.88156237571896L89.36435533285142,125.98610542770429L89.49340133333206,124.39971212283783L89.83752400128047,128.005931983863L90.22466200272243,138.7738263725656L90.2461696694692,126.02926290722792L90.39672333669662,133.89374900084692L90.46124633693695,116.01011981399259L90.97743033885955,132.31447434344662L91.04195333909989,110.85071975750016L91.1925070063273,132.4265577195048L91.25703000656765,134.26253841224838L91.27853767331442,102.56425545751908L91.32155300680796,131.39228888574365L91.34306067355473,137.40686130028084L91.88075234222411,136.1598807593335L92.0743213429451,136.98992592204746L92.59050534486771,136.6156698241186L92.7625666788419,138.3143964728169L93.06367401329676,134.94467873012803L93.08518168004355,136.1391551704512L93.45081201473872,140.0931562817297L94.0745343503952,135.00618167060253L94.11754968388874,137.14576452665315L94.33262635135651,133.70774037278176L94.69825668605169,140.06606194870216L94.80579501978556,129.35750773582404L95.27896368821462,138.19133625104757L95.45102502218883,138.11466135353078L95.68760935640336,128.29276457000944L95.7306246898969,140.28713127405848L95.88117835712433,133.44574154153622L96.01022435760498,122.05665549906087L96.16077802483241,138.023173148386L96.28982402531305,134.4222895559194L96.3543470255534,137.75512074975325L96.71997736024858,118.13424814073508L96.97806936120986,119.54045815347811L97.04259236145019,115.25767334274138L97.19314602867762,121.17397581775387L97.53726869662603,114.32977123073738L97.58028403011957,127.45465522955521L97.70933003060023,112.83788748062727L97.79536069758734,120.59658286518487L98.13948336553572,115.02513810429076L98.50511370023091,118.53930461563951L98.93526703516643,117.79147711411822L99.32240503660839,111.77315518297674L99.36542037010193,111.54201106952713L99.40843570359547,107.98055717630801L99.47295870383581,109.62767091383587L99.53748170407613,108.93107593774255L99.90311203877131,104.95857721121621L100.13969637298584,106.81568561491265L100.4408037074407,112.67526714164164L101.08603370984395,108.70132294929394L101.1290490433375,107.17837798627059L101.64523304526011,104.41947280066728L101.73126371224721,110.67986135014914L101.77427904574076,107.99180572612089L101.90332504622141,108.3036568259574L101.96784804646174,108.28954994899401L102.0108633799553,114.30907824634733L102.20443238067628,112.35048292656133L102.3549860479037,116.33594737282367L102.63458571561178,105.9793151807097L102.80664704958598,111.33702662699501L103.08624671729405,130.34494565060578L103.12926205078762,118.03026154690934L103.19378505102793,108.63006039748423L103.53790771897634,115.23826280171163L103.64544605271021,123.04085470094962L103.68846138620377,120.52445086024952L103.90353805367153,121.00160673559708L103.98956872065861,118.47286752867704L104.6132910563151,115.16883696962981L104.72082939004898,134.82072731890494L104.8713830572764,119.7513331409364L105.81772039413451,122.54097349453083L105.98978172810872,120.7654850030032L106.14033539533615,122.26871511640283L106.22636606232327,124.58128653996229L106.46295039653778,124.1297469273287L106.59199639701843,124.93183917205357L106.72104239749908,125.51403585314168L107.19421106592814,127.6462826984448L107.43079540014267,129.10258407938835L107.53833373387656,130.2047789385896L107.73190273459753,128.88968761341297L107.7534104013443,104.37789120493387L108.0115024023056,120.52322275770956L108.24808673652014,87.6759140247996L108.31260973676046,98.8874686071847L108.5276864042282,107.55845942014119L109.53854674132666,134.02829687203868L109.64608507506053,135.20251505453462L109.6675927418073,134.43117971412903L109.88266940927505,134.9549382770105L111.45272908178966,129.89514494422346L111.68931341600418,135.38510021091759L111.71082108275095,133.53790357285337L111.75383641624451,130.94844393327193L111.79685174973805,136.1627499546481L111.86137474997838,135.9882398441694L111.88288241672515,131.29456235442245L112.42057408539453,136.42295553882198L112.52811241912842,131.74672145240805L112.59263541936875,134.25384388099204L112.76469675334295,134.10297202736652L113.00128108755747,132.91883121107432L113.19485008827846,136.00407475922L113.25937308851879,133.58306079456594L113.28088075526556,136.37272288448852L113.60349575646718,132.46206401152287L113.9476184244156,130.94679197233322L114.07666442489624,134.51909229329462L114.16269509188335,134.29922933415008L114.35626409260432,128.92570470914234L114.39927942609786,131.4368700947605L114.59284842681885,130.59105522598037L114.67887909380596,131.4219155009996L114.91546342802047,132.61547901554087L115.47466276343664,130.9948509938526L115.66823176415761,128.19930922716793L115.99084676535925,126.47287962825416L116.14140043258668,124.46949660433398L116.27044643306732,128.4122382976355L116.35647710005442,128.7510315762026L116.3779847668012,125.38316142140573L116.78663043498993,126.805923648028L116.85115343523024,124.89797397281015L117.62542943811417,107.05255725082738L117.75447543859481,110.1461692853073L118.07709043979645,96.24567875760421L118.12010577328999,110.87337987958698L118.48573610798518,111.7985540824093L118.50724377473196,116.0103697817662L118.91588944292069,121.61162591670546L118.93739710966746,125.179937621453L119.00192010990779,124.68490361620962L119.19548911062876,123.94640099946076L119.4320734448433,128.45521101836994L119.96976511351266,128.81313226570097L120.03428811375301,122.51840031775657L120.27087244796753,129.53365893907733L120.33539544820785,126.82971405917813L120.3784107817014,131.93760988614085L120.42142611519496,127.59325692594523L120.67951811615626,126.9876610876135L121.04514845085143,117.48534266858275L121.49680945253372,128.59646454679313L121.64736311976115,127.45689407135372L121.81942445373535,124.84923025695431L121.90545512072245,133.30988949065602L122.05600878794988,131.8879967171594L122.07751645469665,125.69979451343325L122.09902412144343,134.33760482148273L122.31410078891118,131.7273869885268L122.87330012432734,132.17101457771713L122.98083845806121,129.74904421462486L123.32496112600963,131.68214282150166L123.56154546022415,133.481976000547L123.64757612721127,129.41994533840858L123.66908379395804,128.98730546309343L123.84114512793224,125.07284273270315L123.97019112841288,128.49735775863502L124.0347141286532,133.2564507279218L124.22828312937419,122.49079518101772L124.31431379636129,127.15485692367278L124.46486746358872,123.6287354318466L124.48637513033549,127.30530491889955L124.61542113081615,131.28828055558978L124.7444671312968,133.60997036880428L124.78748246479034,130.97412540497032L124.85200546503067,132.54918321471132L125.60477380116781,119.94936195846344L125.86286580212912,122.81323187265883L126.27151147031785,127.87963304920069L126.31452680381139,122.97343947922084L126.76618780549367,132.8740109024479L127.19634114042918,136.2855602086438L127.7125251423518,138.05379963473644L127.77704814259211,138.07362316600089L128.05664781030018,138.19354248835384L128.2287091442744,128.74098939260153L128.42227814499537,135.89593652671937L128.4868011452357,133.88395678501948L128.52981647872926,132.65983199311222L128.55132414547603,125.10184986260708L129.49766148233414,122.19451816029411L129.6267074828148,125.09668748467362L129.6912304830551,123.33807725194737L129.84178415028254,123.84183839293931L130.12138381799062,129.29432022991864L130.16439915148416,120.2078938453705L130.18590681823093,110.57236433932866L130.3364604854584,110.46880160390167L130.72359848690033,105.23056388524245L131.21827482207615,99.54933979907307L131.32581315581004,105.98568392485497L131.75596649074552,100.37453776061163L131.79898182423912,86.1150283010064L131.92802782471975,89.16600452783808L132.4872271601359,88.65691798645165L132.5947654938698,95.56728795632883L132.96039582856497,77.69600500385847L133.34753383000694,95.40376555972534L133.5195951639811,91.76314795941731L134.01427149915696,91.99309657481918L134.10030216614405,86.09790007443144L134.18633283313116,87.59235957942624L134.20784049987793,85.92233575203794L134.7670398352941,87.99509026721958L135.26171617046992,98.81354335517774L135.8854385061264,115.02325791190657L136.12202284034092,95.19098864355473L136.46614550828934,100.54029899901361L136.7672528427442,105.40160705138265L136.78876050949097,107.3653647491021L137.21891384442645,102.71984409435117L137.73509784634908,114.083998568449L138.0792205142975,116.99742731080548L138.48786618248621,122.8233827379006L138.55238918272656,124.41769893437439L138.6599275164604,123.22806969522662L139.4557111860911,130.48287352082343L139.60626485331855,133.12774992899992L139.69229552030563,136.07180515770685L139.82134152078626,133.35888317428547L139.95038752126695,133.93576532314316L140.0579258550008,135.94168062929174L140.12244885524115,136.01643186176807L140.1654641887347,137.5785456881012L140.6816481906573,138.71414928365493L140.85370952463148,139.0525513083155L141.21933985932668,156.96714389460644L141.32687819306054,138.64460390176833L141.3698935265541,138.54848585872958L141.6279855275154,137.89901524204558L141.67100086100896,138.45103103151015L141.80004686148962,137.65560097136046L142.0581388624509,138.64387573477563L142.1656771961848,137.16341442510353L142.38075386365253,137.9748315546008L142.5958305311203,136.5420597488697L143.19804520003,133.54088144980867L143.24106053352358,135.47964237016615L143.32709120051067,134.91706272522512L143.6497062017123,134.65216209417278L144.53152053833008,131.0238363874284L144.5960435385704,128.95108187224676L144.98318154001234,130.2684881163704L145.37031954145434,129.16289152181508L145.7359498761495,126.59042969083978L145.80047287638982,125.94114383294497L145.9080112101237,126.37656595826213L146.01554954385756,124.97147536641836L146.40268754529953,125.5240997730709L146.4241952120463,126.90813873111026L146.78982554674147,127.77358150420159L146.8543485469818,127.3142494179295L147.00490221420924,125.73262723708997L147.58560921637218,126.36711065552086L147.62862454986572,123.65725349436735L147.77917821709315,127.23593342763809L148.1663162185351,125.80966078402108L148.35988521925609,127.06059733669005L148.55345421997706,125.65801729074656L148.76853088744483,124.58509039738692L149.00511522165934,124.95432540351524L149.09114588864645,124.10932564704038L149.11265355539322,122.86756182484683L149.52129922358196,123.64749388303213L149.62883755731582,123.01031515991176L149.67185289080936,118.14200800988137L149.75788355779648,120.6598355800747L149.95145255851745,120.96297041232674L150.3385905599594,119.62958796701959L150.7687438948949,125.26499187346809L150.8762822286288,117.3866814751515L151.06985122934978,126.29314193085762L151.1988972298304,128.08991028763512L151.22040489657718,126.3392881555006L151.30643556356432,130.12629992583715L151.37095856380463,130.95034586198423L151.8441272322337,134.08364843164932L152.23126523367563,132.31644148114336L152.3172959006627,135.05351252512918L152.42483423439663,133.79370755057874L152.76895690234502,137.032605202352L152.81197223583857,135.74662968872L153.0270489033063,136.69162742280676L153.156094903787,135.69363652071263L153.19911023728054,134.57546546032785L153.32815623776116,134.30332663200463L153.3711715712547,136.1931590777171L153.41418690474828,136.46928652225418L153.6722789057096,138.36705272773804L153.71529423920313,137.48166687357752L153.75830957269667,137.60857442542778L154.25298590787253,138.6288233275381L154.4465549085935,139.29427014540562L154.5110779088338,139.92190662047216L154.8552005767822,140.10541557080114L155.09178491099675,140.07430001706751L155.1348002444903,140.340461355152L155.26384624497098,138.92877378771752L155.54344591267903,139.61364201477886L155.65098424641292,137.63507100943144L155.80153791364035,139.0314235973626L155.93058391412097,138.58798076696146L156.21018358182906,139.36913005952263L156.76938291724525,137.09778158228227L157.26405925242105,138.54982264291024L157.35008991940816,136.0504709516366L157.37159758615493,138.96957287563785L157.52215125338236,135.63631782340525L157.88778158807756,130.5211294583513L158.12436592229207,131.95682480021736L158.3609502565066,124.31926597238862L158.511503923734,130.6720013119768L158.6405499242147,123.0454519343514L159.1567339261373,115.03194157499884L160.3396555972099,106.00100803619425L160.42568626419705,117.44904300058755L160.7052859319051,111.28759821680276L161.02790093310674,111.48622478335369L161.19996226708096,103.69367506771674L161.22146993382773,103.6273792668872L161.30750060081482,113.61808037475025L161.5225772682826,107.27795210548373L161.73765393575033,100.14217641278613L161.7591616024971,103.69554439193686L161.78066926924387,107.81984963419876L161.95273060321807,91.4489058634853L162.38288393815358,113.28602535790682L162.89906794007618,105.18515669575625L163.04962160730364,112.3312788806489L163.11414460754395,104.3607195057026L163.32922127501172,108.17755351824837L163.5227902757327,116.42771815023426L163.587313275973,112.16678921744315L163.80238994344077,116.39109243731696L163.90992827717463,115.84304352773808L164.68420428005854,126.06726887698215L164.87777328077954,127.26240827531362L164.92078861427308,130.54384392125846L165.00681928126016,124.41650343632662L165.13586528174082,122.14306827158475L165.20038828198116,131.4800710469404L165.3509419492086,127.78435185479536L165.52300328318276,123.66530680394354L165.5875262834231,129.91821805654496L165.7595876173973,135.70690654904263L165.8456182843844,127.83054155209463L165.93164895137153,132.80444378423317L166.42632528654735,59.632681592263864L166.51235595353444,96.88713953736831L166.6629096207619,67.78954303570521L166.74894028774898,-55.43726595248921L166.9855246219635,57.462352700058034L167.2436166229248,9.55828946399339L167.5877392908732,13.234598115108668L168.1254309595426,130.83806685897278L168.4480459607442,130.0532441269558L168.74915329519908,123.95049829731533L168.92121462917328,121.78083236311778L169.09327596314748,118.3344940637325L169.22232196362813,115.06556767463272L169.24382963037493,115.2509459491818L169.80302896579107,101.85595546872192L170.10413630024593,97.50460341086495L170.6418279689153,86.22773116241663L171.00745830361046,78.409760811019L171.26555030457178,75.28257701772556L171.33007330481212,75.01276397651341L171.45911930529277,74.29050926504983L171.84625730673474,56.26289864059059L171.88927264022828,53.09611125742458L172.27641064167022,38.25243797903448L172.3624413086573,54.18857910978282L172.8141023103396,41.37551360630931L172.90013297732673,43.12363606070761L173.05068664455413,41.82332543866673L173.33028631226222,43.86186697335472L173.45933231274287,43.635483115767954L173.76043964719773,36.533985612548406L174.01853164815904,49.624297981458255L174.34114664936067,46.49507097331957L174.51320798333487,54.310063447761934L174.53471565008164,53.49577712295006L175.0078843185107,55.584486102987086L175.0939149854978,55.89155521063262L175.39502231995263,59.3671723440236L175.65311432091394,61.54917364444107L175.67462198766071,64.91067505509267L175.82517565488817,67.5425314027128L176.126282989343,68.18929584654327L176.25532898982365,60.08914448322135L176.40588265705108,50.30864453664422L176.44889799054462,57.69156228030312L176.64246699126562,47.72980309335958L176.68548232475916,57.68723675100307L176.70698999150594,30.925078290103585L177.11563565969468,70.21023095543718L177.180158659935,77.64109903897473L177.373727660656,83.93783072910807L177.65332732836407,86.78309434641491L178.16951133028667,95.42419770817773L178.51363399823506,105.20011128951714L178.7502183324496,110.40146245932137L179.13735633389157,117.94827211716213L179.3524330013593,117.88737779387559L179.37394066810606,115.73650291535579L179.50298666858674,120.93287646601576L179.65354033581417,124.01554425927677L179.73957100280126,117.49454800355039L179.76107866954803,118.05919259966478L179.7825863362948,117.0354441487238L180.25575500472388,124.63699674898723L180.27726267147065,124.73456025784736L180.36329333845774,123.21682114541373L180.40630867195128,122.22004747769552L180.59987767267228,125.86408854968572L180.68590833965936,115.84020693691569L181.30963067531587,122.83383791173634L181.33113834206264,130.11330160160892L181.5247073427836,134.74808451025828L181.58923034302393,137.83040452226902L181.73978401025138,136.7336002724467L181.9548606777191,138.06612413279228L181.97636834446587,139.09523058862L182.01938367795944,137.88624514926283L182.12692201169332,138.75708939989715L182.25596801217398,139.19826078400754L182.34199867916107,139.04182443037797L182.3850140126546,138.48224439872038L182.729136680603,137.20201814388165L182.8581826810837,136.78267003322463L182.87969034783046,136.2949176979084L183.05175168180466,136.27925667348296L183.46039734999337,135.49353188384814L183.82602768468857,133.53408884726466L184.38522702010474,136.63648235831346L184.87990335528056,132.27572933853557L185.15950302298864,135.58243346594412L185.22402602322896,124.65984162986325L185.89076369237898,119.38507601176336L185.91227135912578,119.20244738272407L186.25639402707418,119.399834978571L186.27790169382095,120.03756797805895L186.49297836128872,126.16749508603954L186.55750136152903,129.6144963434331L186.60051669502258,128.8932849757203L186.83710102923712,126.47162978938607L186.96614702971777,132.8310273135494L187.0306700299581,132.45696684257382L187.11670069694517,127.32993217868311L187.50383869838714,123.94924845844723L187.52534636513394,120.89441403337057L187.61137703212103,126.35745972582635L187.67590003236134,116.98473329517122L187.7189153658549,125.40971234622975L188.02002270030977,127.2696899452408L188.10605336729685,125.72908421560301L188.3426377015114,115.45550653331517L188.4071607017517,122.1367321319317L188.83731403668722,112.5107014012874L189.00937537066142,108.95667046412836L189.22445203812916,103.14722377825622L189.24595970487593,113.47812015785142L189.48254403909047,110.8461551285906L189.9772203742663,108.28230088355905L190.08475870800018,113.79223183581459L190.45038904269535,97.5043643112554L191.39672637955348,116.84222992787994L191.41823404630026,122.04184219143289L191.50426471328734,118.74466944391409L191.59029538027445,121.18318115272152L191.97743338171642,120.96871967112L192.10647938219705,116.67011081349675L193.03130905230842,95.66327558139875L193.20337038628261,89.55319374101073L193.37543172025678,50.87744077143351L193.39693938700358,68.04655337964243L193.76256972169878,67.40044102565618L194.04216938940684,95.28745446784376L194.12820005639395,115.16659812783129L194.36478439060846,110.45459691346163L194.62287639156978,120.00819133057661L194.6873993918101,111.54897756269627L194.73041472530363,101.62339849394316L194.81644539229075,123.27935656147491L194.98850672626494,112.26846089232188L196.27896673107145,98.23346596608334L196.40801273155213,109.26820638720685L196.4295203982989,85.75214030269521L196.79515073299407,111.42846049131941L196.9457044002215,119.6338808918274L197.44038073539735,90.33667968884704L197.52641140238444,104.92464680298836L197.76299573659895,75.10583893361246L197.8275187368393,71.79813493510942L198.1931490715345,105.59738615894715L198.32219507201512,107.69880002278246L198.6017947397232,104.03215316952578L199.03194807465871,98.33269230404625L199.22551707537968,111.07715795590728L199.56963974332808,100.84569440939231L199.61265507682162,101.90653590430563L199.80622407754262,103.46744336442696L199.99979307826362,97.51408044993435L200.1718544122378,100.47702454779565L200.6020077471733,98.90818332790292L200.64502308066685,103.83100518891052L200.70954608090716,99.90005545362538L200.75256141440076,99.13289348822285L200.8816074148814,103.65694067315873L201.1396994158427,95.30712584481121L201.16120708258947,94.65375355722593L201.3117607498169,92.45327637788874L201.3762837500572,105.02698143587541L201.4838220837911,80.60384750988277L201.63437575101852,78.79858024880221L201.67739108451207,87.01995511416555L202.7742820885976,102.74560164319806L203.01086642281214,98.2321617863949L203.07538942305248,105.0816483011496L203.18292775678634,113.76972386802477L203.52705042473474,107.35193169831106L203.61308109172185,109.87161772456044L203.63458875846862,113.9533958408148L203.6776040919622,107.24231539549685L203.89268075942994,95.95206443707785L203.97871142641702,93.56074229666416L204.06474209340413,101.8929941718739L204.2583110941251,102.0994240802274L204.27981876087188,106.97020917166583L204.3873570946058,102.16617634394788L204.47338776159287,99.41537880874111L204.49489542833965,105.8956303173675L204.81751042954127,102.62040039310686L205.48424809869132,104.00991690583771L205.7423400996526,100.43157388565317L205.89289376688004,92.42199780169409L206.00043210061392,107.82220802580204L206.30153943506878,86.73740458466288L206.49510843578975,107.98589344486659L206.81772343699137,101.33847870467312L207.0543077712059,95.54681233522017L207.2048614384333,75.13292239847594L207.22636910518008,83.97102210217912L207.41993810590108,70.53825388341048L208.23722944227853,51.29736489478627L208.30175244251888,52.44739054406142L208.34476777601242,55.42102891536801L208.40929077625273,52.978626403823384L208.43079844299953,58.404144325744014L208.51682910998662,76.45549102053302L209.20507444588344,113.79856797546765L209.50618178033827,118.65511577197385L210.0868887825012,127.61747119549412L210.21593478298186,123.69596589478618L210.30196544996898,127.80702284504625L210.68910345141094,117.52093590591335L210.7966417851448,119.59059299433493L211.11925678634643,126.1733856309657L211.18377978658677,114.06826146687503L211.24830278682708,117.11799872300267L211.69996378850936,121.33653094775508L211.9365481227239,123.27688948823092L212.216147790432,117.54240052995243L212.23765545717876,120.03112315676519L212.45273212464653,117.22123541350756L212.51725512488684,124.0548435405554L212.60328579187393,106.19167910664564L212.96891612656913,111.22037862202723L213.01193146006267,131.30005077727805L213.07645446030298,121.37691704544076L213.52811546198527,119.06788864336826L213.57113079547884,100.09105256899889L213.6786691292127,115.02613797538524L213.9152534634272,71.3261740421875L214.08731479740143,73.75290466114261L214.17334546438852,85.26946339999989L214.53897579908372,88.49435198828637L214.66802179956437,70.51475691269023L214.8830984670321,57.851172137841246L214.92611380052566,88.64696274816315L215.05515980100634,108.82145963492832L215.1626981347402,126.36619772973896L215.27023646847405,101.49052432001825L215.3347594687144,110.09567579503614L215.65737446991602,90.76127712275006L215.6788821366628,101.6348100662171L216.25958913882573,108.46635324209154L216.43165047279993,122.22829641422496L216.6467271402677,69.77030941019487L216.88331147448224,94.37702836366498L217.3349724761645,85.92748726180731L217.7006028108597,106.17646367694705L217.72211047760646,127.77142960771563L218.41035581350326,107.7422835472282L218.43186348025006,110.14857114956685L218.5609094807307,95.27995543463517L219.679308151563,41.64797847955464L219.72232348505656,72.39223225585464L219.872877152284,72.21997185533854L219.9374001525243,99.40351077357622L220.08795381975173,95.90987422415648L220.66866082191467,129.33046774361685L221.12032182359695,132.3554690583202L221.33539849106472,135.19659190511624L221.67952115901312,127.11091693633608L221.72253649250666,135.1475112761742L221.7655518260002,134.74672598974948L221.8730901597341,134.67057276410807L222.56133549563089,132.29157512175024L222.66887382936477,128.71192792187725L222.9054581635793,114.83546690493387L222.92696583032608,126.59122306681692L222.94847349707285,129.21767793689406L223.01299649731317,122.86608375453326L223.35711916526157,114.74434821736749L223.93782616742453,120.68641910939093L224.00234916766485,119.7228585510719L224.43250250260036,125.27321907366941L224.561548503081,119.87865368302131L224.58305616982778,117.60295794015279L225.14225550524392,122.0715231475092L225.29280917247138,119.73975854620139L225.4433628396988,125.4275904761256L226.15311584234237,111.3551003838441L226.2176388425827,114.37787372491306L226.62628451077143,115.6203005051149L226.6477921775182,120.26271286494168L226.8413611782392,119.98945461571921L226.9919148454666,116.31035284643784L227.05643784570694,116.97887535473728L227.20699151293437,121.30506761277124L227.2715145131747,117.54348734635948L227.68016018136342,125.03340216529159L227.74468318160373,119.29730471873069L227.98126751581827,119.65200898949686L228.21785185003282,130.971451836609L228.43292851750056,133.0094282267653L228.4759438509941,126.85787347228458L228.49745151774087,129.04561316333124L228.56197451798118,129.8040262566571L229.0781585199038,130.6451134740666L229.1856968536377,133.3626870317101L229.20720452038447,127.62960006659671L229.29323518737155,133.21696668785398L229.70188085556032,128.7031247089802L229.7233885223071,135.0670325212328L229.91695752302806,130.16377335555194L230.08901885700226,128.92371583511743L230.34711085796354,129.5665568717185L231.14289452759422,133.64726990789396L231.2074175278346,133.60012381215648L231.40098652855553,133.4738900864786L231.4224941953023,134.39205432347552L231.551540195783,135.16168336212203L231.59455552927653,134.13621774125792L231.7881245299975,135.60552831459376L232.54089286613464,136.60373657996928L232.64843119986853,137.19843164973838L233.14310753504435,137.3076784349742L233.20763053528466,134.26321223842075L233.272153535525,134.38646808714333L233.46572253624598,133.12476118388057L234.0679372051557,135.1680629744314L234.5841212070783,137.9835369540212L234.79919787454602,133.80704278789315L235.9821195456187,136.89595977549465L236.11116554609936,137.04090847970178L236.19719621308644,134.1924278858301L236.26171921332676,133.37252272019384L236.4983035475413,136.8325657744719L236.5628265477816,130.8289049966614" fill="none"></path></g></g></g></g></g></g><g transform="translate(71, 178)" clip-path="url(#clip_1)"><clipPath id="clip_1"><rect width="258" height="21"></rect></clipPath><g><g><line x1="0" y1="0" x2="0" y2="5" style="visibility: inherit;" fill="rgb(0, 0, 0)" stroke="rgb(204, 204, 204)" stroke-width="1px"></line><line x1="21.507666746775307" y1="0" x2="21.507666746775307" y2="5" style="visibility: inherit;" fill="rgb(0, 0, 0)" stroke="rgb(204, 204, 204)" stroke-width="1px"></line><line x1="43.015333493550614" y1="0" x2="43.015333493550614" y2="5" style="visibility: inherit;" fill="rgb(0, 0, 0)" stroke="rgb(204, 204, 204)" stroke-width="1px"></line><line x1="64.52300024032593" y1="0" x2="64.52300024032593" y2="5" style="visibility: inherit;" fill="rgb(0, 0, 0)" stroke="rgb(204, 204, 204)" stroke-width="1px"></line><line x1="86.03066698710123" y1="0" x2="86.03066698710123" y2="5" style="visibility: inherit;" fill="rgb(0, 0, 0)" stroke="rgb(204, 204, 204)" stroke-width="1px"></line><line x1="107.53833373387656" y1="0" x2="107.53833373387656" y2="5" style="visibility: inherit;" fill="rgb(0, 0, 0)" stroke="rgb(204, 204, 204)" stroke-width="1px"></line><line x1="129.04600048065186" y1="0" x2="129.04600048065186" y2="5" style="visibility: inherit;" fill="rgb(0, 0, 0)" stroke="rgb(204, 204, 204)" stroke-width="1px"></line><line x1="150.55366722742718" y1="0" x2="150.55366722742718" y2="5" style="visibility: inherit;" fill="rgb(0, 0, 0)" stroke="rgb(204, 204, 204)" stroke-width="1px"></line><line x1="172.06133397420246" y1="0" x2="172.06133397420246" y2="5" style="visibility: inherit;" fill="rgb(0, 0, 0)" stroke="rgb(204, 204, 204)" stroke-width="1px"></line><line x1="193.56900072097778" y1="0" x2="193.56900072097778" y2="5" style="visibility: inherit;" fill="rgb(0, 0, 0)" stroke="rgb(204, 204, 204)" stroke-width="1px"></line><line x1="215.0766674677531" y1="0" x2="215.0766674677531" y2="5" style="visibility: inherit;" fill="rgb(0, 0, 0)" stroke="rgb(204, 204, 204)" stroke-width="1px"></line><line x1="236.58433421452838" y1="0" x2="236.58433421452838" y2="5" style="visibility: inherit;" fill="rgb(0, 0, 0)" stroke="rgb(204, 204, 204)" stroke-width="1px"></line><line x1="258.0920009613037" y1="0" x2="258.0920009613037" y2="5" style="visibility: inherit;" fill="rgb(0, 0, 0)" stroke="rgb(204, 204, 204)" stroke-width="1px"></line></g><g transform="translate(0, 8)"><text style="text-anchor: middle; visibility: hidden; font-family: &quot;Helvetica Neue&quot;, sans-serif; font-size: 12px; font-weight: 200;" x="0" y="0" dx="0em" dy="0.95em" fill="rgb(50, 49, 63)" stroke="none" stroke-width="1px">-1k</text><text style="text-anchor: middle; visibility: inherit; font-family: &quot;Helvetica Neue&quot;, sans-serif; font-size: 12px; font-weight: 200;" x="21.507666746775307" y="0" dx="0em" dy="0.95em" fill="rgb(50, 49, 63)" stroke="none" stroke-width="1px">0</text><text style="text-anchor: middle; visibility: hidden; font-family: &quot;Helvetica Neue&quot;, sans-serif; font-size: 12px; font-weight: 200;" x="43.015333493550614" y="0" dx="0em" dy="0.95em" fill="rgb(50, 49, 63)" stroke="none" stroke-width="1px">1k</text><text style="text-anchor: middle; visibility: inherit; font-family: &quot;Helvetica Neue&quot;, sans-serif; font-size: 12px; font-weight: 200;" x="64.52300024032593" y="0" dx="0em" dy="0.95em" fill="rgb(50, 49, 63)" stroke="none" stroke-width="1px">2k</text><text style="text-anchor: middle; visibility: hidden; font-family: &quot;Helvetica Neue&quot;, sans-serif; font-size: 12px; font-weight: 200;" x="86.03066698710123" y="0" dx="0em" dy="0.95em" fill="rgb(50, 49, 63)" stroke="none" stroke-width="1px">3k</text><text style="text-anchor: middle; visibility: inherit; font-family: &quot;Helvetica Neue&quot;, sans-serif; font-size: 12px; font-weight: 200;" x="107.53833373387656" y="0" dx="0em" dy="0.95em" fill="rgb(50, 49, 63)" stroke="none" stroke-width="1px">4k</text><text style="text-anchor: middle; visibility: hidden; font-family: &quot;Helvetica Neue&quot;, sans-serif; font-size: 12px; font-weight: 200;" x="129.04600048065186" y="0" dx="0em" dy="0.95em" fill="rgb(50, 49, 63)" stroke="none" stroke-width="1px">5k</text><text style="text-anchor: middle; visibility: inherit; font-family: &quot;Helvetica Neue&quot;, sans-serif; font-size: 12px; font-weight: 200;" x="150.55366722742718" y="0" dx="0em" dy="0.95em" fill="rgb(50, 49, 63)" stroke="none" stroke-width="1px">6k</text><text style="text-anchor: middle; visibility: hidden; font-family: &quot;Helvetica Neue&quot;, sans-serif; font-size: 12px; font-weight: 200;" x="172.06133397420246" y="0" dx="0em" dy="0.95em" fill="rgb(50, 49, 63)" stroke="none" stroke-width="1px">7k</text><text style="text-anchor: middle; visibility: inherit; font-family: &quot;Helvetica Neue&quot;, sans-serif; font-size: 12px; font-weight: 200;" x="193.56900072097778" y="0" dx="0em" dy="0.95em" fill="rgb(50, 49, 63)" stroke="none" stroke-width="1px">8k</text><text style="text-anchor: middle; visibility: hidden; font-family: &quot;Helvetica Neue&quot;, sans-serif; font-size: 12px; font-weight: 200;" x="215.0766674677531" y="0" dx="0em" dy="0.95em" fill="rgb(50, 49, 63)" stroke="none" stroke-width="1px">9k</text><text style="text-anchor: middle; visibility: inherit; font-family: &quot;Helvetica Neue&quot;, sans-serif; font-size: 12px; font-weight: 200;" x="236.58433421452838" y="0" dx="0em" dy="0.95em" fill="rgb(50, 49, 63)" stroke="none" stroke-width="1px">10k</text><text style="text-anchor: middle; visibility: hidden; font-family: &quot;Helvetica Neue&quot;, sans-serif; font-size: 12px; font-weight: 200;" x="258.0920009613037" y="0" dx="0em" dy="0.95em" fill="rgb(50, 49, 63)" stroke="none" stroke-width="1px">11k</text></g><line x1="0" y1="0" x2="258.0920009613037" y2="0" fill="rgb(0, 0, 0)" stroke="rgb(204, 204, 204)" stroke-width="1px"></line></g></g></g></g></svg>