<svg viewBox="0 0 330 200" xmlns="http://www.w3.org/2000/svg"><g><g><g><g><g><line x1="40.953999519348145" y1="178.0640001296997" x2="35.953999519348145" y2="178.0640001296997" style="visibility: inherit;" fill="rgb(0, 0, 0)" stroke="rgb(204, 204, 204)" stroke-width="1px"></line><line x1="40.953999519348145" y1="163.22533345222473" x2="35.953999519348145" y2="163.22533345222473" style="visibility: inherit;" fill="rgb(0, 0, 0)" stroke="rgb(204, 204, 204)" stroke-width="1px"></line><line x1="40.953999519348145" y1="148.38666677474976" x2="35.953999519348145" y2="148.38666677474976" style="visibility: inherit;" fill="rgb(0, 0, 0)" stroke="rgb(204, 204, 204)" stroke-width="1px"></line><line x1="40.953999519348145" y1="133.54800009727478" x2="35.953999519348145" y2="133.54800009727478" style="visibility: inherit;" fill="rgb(0, 0, 0)" stroke="rgb(204, 204, 204)" stroke-width="1px"></line><line x1="40.953999519348145" y1="118.7093334197998" x2="35.953999519348145" y2="118.7093334197998" style="visibility: inherit;" fill="rgb(0, 0, 0)" stroke="rgb(204, 204, 204)" stroke-width="1px"></line><line x1="40.953999519348145" y1="103.87066674232483" x2="35.953999519348145" y2="103.87066674232483" style="visibility: inherit;" fill="rgb(0, 0, 0)" stroke="rgb(204, 204, 204)" stroke-width="1px"></line><line x1="40.953999519348145" y1="89.03200006484985" x2="35.953999519348145" y2="89.03200006484985" style="visibility: inherit;" fill="rgb(0, 0, 0)" stroke="rgb(204, 204, 204)" stroke-width="1px"></line><line x1="40.953999519348145" y1="74.19333338737488" x2="35.953999519348145" y2="74.19333338737488" style="visibility: inherit;" fill="rgb(0, 0, 0)" stroke="rgb(204, 204, 204)" stroke-width="1px"></line><line x1="40.953999519348145" y1="59.3546667098999" x2="35.953999519348145" y2="59.3546667098999" style="visibility: inherit;" fill="rgb(0, 0, 0)" stroke="rgb(204, 204, 204)" stroke-width="1px"></line><line x1="40.953999519348145" y1="44.51600003242493" x2="35.953999519348145" y2="44.51600003242493" style="visibility: inherit;" fill="rgb(0, 0, 0)" stroke="rgb(204, 204, 204)" stroke-width="1px"></line><line x1="40.953999519348145" y1="29.67733335494995" x2="35.953999519348145" y2="29.67733335494995" style="visibility: inherit;" fill="rgb(0, 0, 0)" stroke="rgb(204, 204, 204)" stroke-width="1px"></line><line x1="40.953999519348145" y1="14.838666677474976" x2="35.953999519348145" y2="14.838666677474976" style="visibility: inherit;" fill="rgb(0, 0, 0)" stroke="rgb(204, 204, 204)" stroke-width="1px"></line><line x1="40.953999519348145" y1="0" x2="35.953999519348145" y2="0" style="visibility: inherit;" fill="rgb(0, 0, 0)" stroke="rgb(204, 204, 204)" stroke-width="1px"></line></g><g transform="translate(30.953999519348145, 0)"><text style="text-anchor: end; visibility: hidden; font-family: &quot;Helvetica Neue&quot;, sans-serif; font-size: 12px; font-weight: 200;" x="0" y="178.0640001296997" dx="0em" dy="0.3em" fill="rgb(50, 49, 63)" stroke="none" stroke-width="1px">-30</text><text style="text-anchor: end; visibility: inherit; font-family: &quot;Helvetica Neue&quot;, sans-serif; font-size: 12px; font-weight: 200;" x="0" y="163.22533345222473" dx="0em" dy="0.3em" fill="rgb(50, 49, 63)" stroke="none" stroke-width="1px">-25</text><text style="text-anchor: end; visibility: hidden; font-family: &quot;Helvetica Neue&quot;, sans-serif; font-size: 12px; font-weight: 200;" x="0" y="148.38666677474976" dx="0em" dy="0.3em" fill="rgb(50, 49, 63)" stroke="none" stroke-width="1px">-20</text><text style="text-anchor: end; visibility: inherit; font-family: &quot;Helvetica Neue&quot;, sans-serif; font-size: 12px; font-weight: 200;" x="0" y="133.54800009727478" dx="0em" dy="0.3em" fill="rgb(50, 49, 63)" stroke="none" stroke-width="1px">-15</text><text style="text-anchor: end; visibility: hidden; font-family: &quot;Helvetica Neue&quot;, sans-serif; font-size: 12px; font-weight: 200;" x="0" y="118.7093334197998" dx="0em" dy="0.3em" fill="rgb(50, 49, 63)" stroke="none" stroke-width="1px">-10</text><text style="text-anchor: end; visibility: inherit; font-family: &quot;Helvetica Neue&quot;, sans-serif; font-size: 12px; font-weight: 200;" x="0" y="103.87066674232483" dx="0em" dy="0.3em" fill="rgb(50, 49, 63)" stroke="none" stroke-width="1px">-5</text><text style="text-anchor: end; visibility: hidden; font-family: &quot;Helvetica Neue&quot;, sans-serif; font-size: 12px; font-weight: 200;" x="0" y="89.03200006484985" dx="0em" dy="0.3em" fill="rgb(50, 49, 63)" stroke="none" stroke-width="1px">0</text><text style="text-anchor: end; visibility: inherit; font-family: &quot;Helvetica Neue&quot;, sans-serif; font-size: 12px; font-weight: 200;" x="0" y="74.19333338737488" dx="0em" dy="0.3em" fill="rgb(50, 49, 63)" stroke="none" stroke-width="1px">5</text><text style="text-anchor: end; visibility: hidden; font-family: &quot;Helvetica Neue&quot;, sans-serif; font-size: 12px; font-weight: 200;" x="0" y="59.3546667098999" dx="0em" dy="0.3em" fill="rgb(50, 49, 63)" stroke="none" stroke-width="1px">10</text><text style="text-anchor: end; visibility: inherit; font-family: &quot;Helvetica Neue&quot;, sans-serif; font-size: 12px; font-weight: 200;" x="0" y="44.51600003242493" dx="0em" dy="0.3em" fill="rgb(50, 49, 63)" stroke="none" stroke-width="1px">15</text><text style="text-anchor: end; visibility: hidden; font-family: &quot;Helvetica Neue&quot;, sans-serif; font-size: 12px; font-weight: 200;" x="0" y="29.67733335494995" dx="0em" dy="0.3em" fill="rgb(50, 49, 63)" stroke="none" stroke-width="1px">20</text><text style="text-anchor: end; visibility: inherit; font-family: &quot;Helvetica Neue&quot;, sans-serif; font-size: 12px; font-weight: 200;" x="0" y="14.838666677474976" dx="0em" dy="0.3em" fill="rgb(50, 49, 63)" stroke="none" stroke-width="1px">25</text><text style="text-anchor: end; visibility: hidden; font-family: &quot;Helvetica Neue&quot;, sans-serif; font-size: 12px; font-weight: 200;" x="0" y="0" dx="0em" dy="0.3em" fill="rgb(50, 49, 63)" stroke="none" stroke-width="1px">30</text></g><line x1="40.953999519348145" y1="0" x2="40.953999519348145" y2="178.0640001296997" fill="rgb(0, 0, 0)" stroke="rgb(204, 204, 204)" stroke-width="1px"></line></g></g><g transform="translate(40, 0)" clip-path="url(#clip_0)"><clipPath id="clip_0"><rect width="289" height="178"></rect></clipPath><g><g><g><line x1="0" y1="0" x2="0" y2="178.0640001296997" fill="rgb(0, 0, 0)" stroke="rgb(60, 60, 60)" stroke-width="1px" opacity="0.25"></line><line x1="24.087166706720986" y1="0" x2="24.087166706720986" y2="178.0640001296997" fill="rgb(0, 0, 0)" stroke="rgb(60, 60, 60)" stroke-width="1px" opacity="0.25"></line><line x1="48.17433341344197" y1="0" x2="48.17433341344197" y2="178.0640001296997" fill="rgb(0, 0, 0)" stroke="rgb(60, 60, 60)" stroke-width="1px" opacity="0.25"></line><line x1="72.26150012016296" y1="0" x2="72.26150012016296" y2="178.0640001296997" fill="rgb(0, 0, 0)" stroke="rgb(60, 60, 60)" stroke-width="1px" opacity="0.25"></line><line x1="96.34866682688394" y1="0" x2="96.34866682688394" y2="178.0640001296997" fill="rgb(0, 0, 0)" stroke="rgb(60, 60, 60)" stroke-width="1px" opacity="0.25"></line><line x1="120.43583353360495" y1="0" x2="120.43583353360495" y2="178.0640001296997" fill="rgb(0, 0, 0)" stroke="rgb(60, 60, 60)" stroke-width="1px" opacity="0.25"></line><line x1="144.52300024032593" y1="0" x2="144.52300024032593" y2="178.0640001296997" fill="rgb(0, 0, 0)" stroke="rgb(60, 60, 60)" stroke-width="1px" opacity="0.25"></line><line x1="168.61016694704693" y1="0" x2="168.61016694704693" y2="178.0640001296997" fill="rgb(0, 0, 0)" stroke="rgb(60, 60, 60)" stroke-width="1px" opacity="0.25"></line><line x1="192.69733365376788" y1="0" x2="192.69733365376788" y2="178.0640001296997" fill="rgb(0, 0, 0)" stroke="rgb(60, 60, 60)" stroke-width="1px" opacity="0.25"></line><line x1="216.7845003604889" y1="0" x2="216.7845003604889" y2="178.0640001296997" fill="rgb(0, 0, 0)" stroke="rgb(60, 60, 60)" stroke-width="1px" opacity="0.25"></line><line x1="240.8716670672099" y1="0" x2="240.8716670672099" y2="178.0640001296997" fill="rgb(0, 0, 0)" stroke="rgb(60, 60, 60)" stroke-width="1px" opacity="0.25"></line><line x1="264.95883377393085" y1="0" x2="264.95883377393085" y2="178.0640001296997" fill="rgb(0, 0, 0)" stroke="rgb(60, 60, 60)" stroke-width="1px" opacity="0.25"></line><line x1="289.04600048065186" y1="0" x2="289.04600048065186" y2="178.0640001296997" fill="rgb(0, 0, 0)" stroke="rgb(60, 60, 60)" stroke-width="1px" opacity="0.25"></line></g><g><line x1="0" y1="178.0640001296997" x2="289.04600048065186" y2="178.0640001296997" fill="rgb(0, 0, 0)" stroke="rgb(60, 60, 60)" stroke-width="1px" opacity="0.25"></line><line x1="0" y1="163.22533345222473" x2="289.04600048065186" y2="163.22533345222473" fill="rgb(0, 0, 0)" stroke="rgb(60, 60, 60)" stroke-width="1px" opacity="0.25"></line><line x1="0" y1="148.38666677474976" x2="289.04600048065186" y2="148.38666677474976" fill="rgb(0, 0, 0)" stroke="rgb(60, 60, 60)" stroke-width="1px" opacity="0.25"></line><line x1="0" y1="133.54800009727478" x2="289.04600048065186" y2="133.54800009727478" fill="rgb(0, 0, 0)" stroke="rgb(60, 60, 60)" stroke-width="1px" opacity="0.25"></line><line x1="0" y1="118.7093334197998" x2="289.04600048065186" y2="118.7093334197998" fill="rgb(0, 0, 0)" stroke="rgb(60, 60, 60)" stroke-width="1px" opacity="0.25"></line><line x1="0" y1="103.87066674232483" x2="289.04600048065186" y2="103.87066674232483" fill="rgb(0, 0, 0)" stroke="rgb(60, 60, 60)" stroke-width="1px" opacity="0.25"></line><line x1="0" y1="89.03200006484985" x2="289.04600048065186" y2="89.03200006484985" fill="rgb(0, 0, 0)" stroke="rgb(60, 60, 60)" stroke-width="1px" opacity="0.25"></line><line x1="0" y1="74.19333338737488" x2="289.04600048065186" y2="74.19333338737488" fill="rgb(0, 0, 0)" stroke="rgb(60, 60, 60)" stroke-width="1px" opacity="0.25"></line><line x1="0" y1="59.3546667098999" x2="289.04600048065186" y2="59.3546667098999" fill="rgb(0, 0, 0)" stroke="rgb(60, 60, 60)" stroke-width="1px" opacity="0.25"></line><line x1="0" y1="44.51600003242493" x2="289.04600048065186" y2="44.51600003242493" fill="rgb(0, 0, 0)" stroke="rgb(60, 60, 60)" stroke-width="1px" opacity="0.25"></line><line x1="0" y1="29.67733335494995" x2="289.04600048065186" y2="29.67733335494995" fill="rgb(0, 0, 0)" stroke="rgb(60, 60, 60)" stroke-width="1px" opacity="0.25"></line><line x1="0" y1="14.838666677474976" x2="289.04600048065186" y2="14.838666677474976" fill="rgb(0, 0, 0)" stroke="rgb(60, 60, 60)" stroke-width="1px" opacity="0.25"></line><line x1="0" y1="0" x2="289.04600048065186" y2="0" fill="rgb(0, 0, 0)" stroke="rgb(60, 60, 60)" stroke-width="1px" opacity="0.25"></line></g></g></g><g><g><line x1="0" y1="89.03200006484985" x2="289.04600048065186" y2="89.03200006484985" fill="rgb(0, 0, 0)" stroke="rgb(153, 153, 153)" stroke-width="1.5px"></line></g></g><g><g><line x1="24.087166706720986" y1="0" x2="24.087166706720986" y2="178.0640001296997" fill="rgb(0, 0, 0)" stroke="rgb(153, 153, 153)" stroke-width="1.5px"></line></g></g><g><g><g><g><g><path style="fill: none;" stroke="rgb(255, 112, 67)" stroke-width="2px" d="M24.520735707441965,72.91311460439893L24.66525870768229,74.58608573495545L25.050653374989828,73.01586325911826L25.09882770840327,66.20675821249495L25.171089208523433,45.07035225015534L25.43604804229736,56.69495238305605L25.797355542898178,57.249687274236805L25.86961704301834,44.645595693631435L26.35136037715276,51.32741834082853L26.64040637763341,60.06400321525368L27.122149711767833,56.777161516616786L27.820677546262743,41.927234125370376L27.892939046382903,52.386325547433955L28.109723546743393,36.63134054375064L28.495118214050926,34.866552962743924L28.54329254746437,44.91948955665873L29.603127882560095,52.06335112034343L29.7235637160937,40.40311754760924L30.084871216694513,48.28678050632442L30.22939421693484,47.36959837883933L30.349830050468444,14.353631871859818L30.518440217415492,16.639593687803597L30.66296321765582,3.4477962800194177L31.506014052391052,-23.290181436242165L35.504483725706734,-31.246591843240196L35.962139893134434,1.9648988526624578L36.46797039397558,-6.380914871325075L38.22633356356621,-5.64008584497347L39.021210064888,6.73561983997962L39.06938439830144,6.618845317118456L39.35843039878209,4.013337550591501L39.527040565729145,18.857872267140237L39.551127732435866,16.591271357284967L39.59930206584931,12.301192644563827L39.67156356596947,13.462995304914898L39.719737899382906,4.666448032102494L40.00878389986356,10.699325947820398L40.24965556693078,6.035451252818945L41.285403735319775,5.481771381098184L41.47810106897354,5.795277312702865L41.670798402627305,11.739737934574606L41.887582902987795,10.924698863628493L42.20071607017517,13.405362761887687L42.29706473700206,22.724137461527278L42.51384923736255,34.29631599172214L42.61019790418943,41.375949510796886L42.658372237602876,37.342456908384975L42.70654657101631,38.496291439669676L42.87515673796336,35.06859569039227L42.995592571496964,33.27930790654793L43.043766904910406,29.984026645552404L43.16420273844401,30.202231559580895L43.21237707185745,27.597080618065576L43.30872573868434,32.06365880042756L43.40507440551122,32.47627573626946L43.54959740575155,37.59859560489787L43.57368457245827,34.61378079131552L44.127689406712854,36.02514663409559L44.22403807353973,40.668592839001235L45.018914574861526,47.18702244851332L45.18752474180857,49.372515766450846L45.3320477420489,54.34384601189345L45.669268075942995,58.81374976621956L45.76561674276987,61.80866967178366L45.93422690971693,64.36525930147664L45.98240124313036,66.01460411315942L46.17509857678414,64.80220831551058L46.51231891067823,66.53100818169743L46.53640607738495,71.87277250362834L46.77727774445216,71.0749693802838L46.84953924457232,77.21355536031348L47.06632374493281,78.71223123016833L47.25902107858658,80.06266141437686L47.47580557894707,82.34206209453491L47.49989274565379,83.5123396148746L47.644415745894115,85.0934753350945L47.66850291260083,89.42616279182036L47.78893874613444,88.93712709550006L48.22250774685542,96.24833074191703L48.294769246975584,91.33093455845265L48.51155374733607,95.23293854147055L49.2341687485377,101.12575562650534L49.54730191572507,106.31666047284807L49.6918249159654,110.71762833815404L49.76408641608556,114.60175344707805L49.812260749499,115.50934016982296L49.90860941632589,114.92687943877368L50.053132416566214,113.45377068731393L50.17356825009982,112.23164175444937L50.41443991716703,115.56122375437943L50.55896291740736,116.71506227847047L50.67939875094096,116.21399569397644L50.920270418008165,118.52106642663696L51.93193141969045,126.94094280456514L52.028280086517334,134.740062011619L52.052367253224055,129.88640002253945L52.076454419930776,135.92070228049351L52.510023420651756,136.19732163006333L52.82315658783912,139.4038342177686L53.136289755026496,148.27918026809022L53.762556089401244,152.51254496535898L54.0516020898819,149.53807318379697L54.31656092365583,145.2070902190028L54.38882242377599,146.13262037840286L54.461083923896155,150.59278378491123L54.94282725803057,153.42624831615416L55.087350258270895,166.48966730237282L55.25596042521795,160.37148580572395L55.400483425458276,161.8255208085623L55.785878092765806,156.56068955970125L55.85813959288597,165.26176994866196L56.1230984266599,160.6885676015811L56.195359926780064,158.84969934889904L56.26762142690023,157.11460069887227L56.29170859360695,155.52892875048425L57.44789259552956,165.02316260322007L57.52015409564972,169.4971974794008L57.592415595769886,173.49453111622995L57.61650276247661,169.13151585679765L58.14642043002446,175.44432844409346L58.435466430505116,186.04983268112443L58.676338097572334,188.82213984881986L58.77268676439921,170.97709718861282L59.37486593206724,166.94756669378793L59.39895309877395,172.12064966584978L59.66391193254789,167.1466595209212L59.85660926620166,159.84825865205386L59.952957933028536,158.49201909505277L60.001132266441985,153.00679881326L60.77192160105705,140.88404934750898L60.86827026788394,138.30377896255362L61.47044943555196,128.66025528515243L61.85584410285949,122.12790010272465L61.879931269566214,122.39473963863084L62.24123877016703,125.44043148890398L62.33758743699392,117.96550024794196L62.72298210430145,114.18200394523107L62.74706927100817,103.09640382117091L63.276986938556036,103.21509477954258L63.39742277208964,99.8038684009614L63.517858605623246,94.6606701510365L63.59012010574341,91.80383808994317L63.710555939277015,91.0559333564527L63.78281743939718,86.83102815967901L64.07186343987783,93.6251840578603L64.2645607735316,93.75135637791878L64.43317094047865,102.89040217401644L64.6017811074257,111.95109378015553L64.81856560778618,99.82379681573714L64.91491427461307,97.02527997386416L64.96308860802651,91.24554533709752L65.01126294143994,86.14170255298632L65.0835244415601,86.07987197740225L65.25213460850716,84.67895744049142L65.46891910886765,85.32360673619102L65.70979077593485,80.98477310088934L65.80613944276173,82.88930137924736L65.85431377617518,77.50112020247977L65.92657527629534,76.91123692040247L66.04701110982896,75.21296373596384L66.11927260994912,71.70887524005545L66.14335977665583,72.27722251829616L66.62510311079025,72.26830317258334L66.84188761115074,73.46530617911941L66.98641061139107,72.85737913157054L67.15502077833811,66.39510737735965L67.17910794504483,68.27979075842259L67.39589244540532,72.213570491047L67.56450261235237,67.92973396527803L68.07033311319351,65.65853864233999L68.1666817800204,62.842556587390874L68.40755344708761,68.66418620894746L68.50390211391449,68.31363464510252L68.72068661427498,64.01323091715464L69.03381978146236,60.99298313329213L69.10608128158252,60.521316083620604L69.25060428182285,63.330263813884386L69.29877861523627,67.50818927657139L70.1177422832648,70.79930335144682L70.26226528350513,77.33071796145084L70.67174711751937,82.40748533843079L70.91261878458658,88.67898067626737L70.98488028470675,83.26980685203498L71.03305461812019,84.4318257873676L71.46662361884117,73.56129232870185L71.80384395273526,71.93808079939876L71.8520182861487,68.11366482858298L72.28558728686968,66.12541030114662L72.38193595369657,56.98394994105746L72.57463328735034,55.79856018687592L72.9841151213646,52.60537615871067L73.12863812160492,53.46545409639296L73.70673012256623,54.62401539784108L74.0198632897536,55.84304749932265L74.09212478987376,47.566137644152974L74.11621195658049,47.22066300791539L74.16438628999393,44.879598743315654L74.21256062340736,45.431483307725756L74.30890929023424,47.640370150441385L74.40525795706114,53.97152202188326L74.57386812400819,50.663688209965954L74.93517562460899,49.5739212326919L75.7541392926375,51.037219030759374L75.8504879594644,53.87775266382884L76.01909812641144,50.31475825772125L76.23588262677193,48.57748742306424L76.52492862725258,48.592699175359684L76.76580029431979,46.109511671698954L76.81397462773323,48.83367884328729L76.86214896114667,49.71288815946377L76.98258479468026,49.29568839844492L77.05484629480044,48.20411264146091L77.24754362845421,45.042855342590144L77.3438922952811,46.64371390221663L77.82563562941552,49.157029300557525L77.94607146294912,45.05981273266352L77.97015862965584,47.61337174811271L78.01833296306928,45.80378784311955L78.09059446318945,45.95379417104735L78.18694313001633,50.96173390980175L78.21103029672305,53.370265743749655L78.3796404636701,59.7050912959934L78.45190196379025,56.63545538459309L78.57233779732385,62.024400944002366L79.02999396475155,54.6067450329067L79.27086563181876,55.87701720086554L79.41538863205909,54.631878146052756L79.55991163229942,56.45205658047287L79.65626029912632,52.978150172731574L79.94530629960697,49.57137378450068L79.96939346631368,49.34752618368222L80.5715726339817,51.96212726773085L80.7883571343422,58.521282249645324L81.63140796907743,62.024963268518974L81.65549513578414,60.279231596787255L81.70366946919759,59.15702641754628L82.76350480429332,64.80176841373498L82.95620213794707,69.84865576600312L83.12481230489414,69.41781297681088L83.17298663830758,71.31145737973289L83.221160971721,75.17073470073093L83.34159680525461,73.00403107447553L83.94377597292264,72.89275679768997L83.96786313962936,71.90227413636165L84.20873480669657,73.45351918717441L84.25690914011001,75.67668989228409L84.37734497364362,72.4127082388451L84.71456530753771,71.14746584498353L84.85908830777804,73.98259632719345L85.07587280813853,78.19047581160805L85.43718030873934,78.31007171784604L85.53352897556623,79.2066648943867L85.58170330897967,81.98122570989158L86.1838824766477,80.3531191980498L86.47292847712835,78.78234323843388L86.71380014419556,82.95019360989039L86.85832314443589,89.42901621987116L87.26780497845014,91.08302306262189L87.41232797869047,92.95155869581936L87.43641514539718,93.50401188150651L87.77363547929127,94.85155298026369L87.9181584795316,97.22018787452075L88.0385943130652,93.79851376919709L88.59259914731979,104.67855351049661L88.76120931426684,102.41142076788147L88.88164514780044,104.10381906589637L89.19477831498781,108.08862273691132L89.36338848193486,112.00693709578421L89.72469598253568,126.78514037053007L90.01374198301633,134.8795917246668L90.0860034831365,137.44811323677612L90.42322381703059,131.5089461789781L91.26627465176581,123.37787753597357L91.29036181847255,119.30776945383796L91.31444898517927,116.80496741680892L91.74801798590025,113.95822579378061L92.10932548650105,114.93758288241712L93.26550948842366,111.65209252431842L93.48229398878416,112.48005698825597L93.69907848914464,116.89381596193171L93.84360148938497,115.41026933486751L94.34943199022612,117.15837799781869L94.39760632363955,114.5045683784393L94.42169349034627,112.27034826944022L95.55379032556216,113.34942217539749L95.74648765921593,115.92232820280842L96.30049249347051,116.82616677189353L96.51727699383099,114.21502739034656L96.61362566065787,112.76569502716957L96.70997432748477,114.27965550311988L96.99902032796543,116.32035184017403L97.07128182808557,117.05569093823352L97.26397916173936,113.0754365676158L97.3362406618595,112.98728180865547L97.91433266282081,119.65031659977262L98.01068132964771,120.28956005276646L98.05885566306114,116.86902058168161L98.73329633084933,151.25650024705538L99.28730116510393,137.42102117781013L99.64860866570473,133.06069418275737L99.8413059993585,130.9591825372888L99.9617418328921,125.94063386097096L100.08217766642571,120.2652348006904L100.22670066666603,114.47442938871423L100.61209533397357,113.44948371599544L101.04566433469455,106.32687363397905L101.06975150140127,105.89462734454554L101.23836166834832,107.93913280228968L101.31062316846847,108.54303480278055L101.88871516942977,103.26607699190775L101.96097666954995,107.25791290324922L102.12958683649698,104.09806824147915L102.20184833661716,102.56597295364918L102.22593550332388,107.88561395110936L102.27410983673731,104.85679002782727L102.29819700344403,100.31490114071248L102.90037617111206,96.81768303170855L103.11716067147255,91.92795061823342L103.69525267243385,85.23948794386716L103.88795000608762,80.17970708047922L104.2251703399817,76.93221616228826L104.24925750668844,77.00026190642158L104.65873934070268,82.25689715501959L105.35726717519759,81.30997686784747L105.40544150861103,77.19332469161162L105.64631317567824,87.21128862934121L106.05579500969252,86.76529885471648L106.17623084322612,77.65458307648873L106.70614851077397,77.25009668783429L106.89884584442775,76.45868370383096L107.16380467820169,71.90442581163148L107.21197901161511,79.76784742581775L107.38058917856216,77.0443730050985L107.52511217880249,68.81048873741665L107.69372234574953,72.09217505632132L107.83824534598986,71.18788936718786L107.91050684611002,76.42326289808923L108.3199886801243,66.97316095705634L108.60903468060492,60.415345131348886L108.6812961807251,52.75156551958109L108.84990634767215,54.4374785245131L109.23530101497968,51.59971393870251L109.28347534839313,56.887364352972696L109.42799834863345,53.95004031200958L109.52434701546034,54.225400612324975L109.90974168276786,51.27499944283272L110.31922351678212,52.800940447945024L110.80096685091655,53.17726637335318L111.23453585163753,53.69795597544373L111.28271018505097,51.462007153868555L111.3308845184644,50.3827059056498L111.40314601858458,49.98213928033189L111.47540751870473,49.319014137596895L111.88488935271899,49.42918157033128L112.14984818649292,46.940686102207906L112.48706852038701,47.17929491390379L113.20968352158864,45.29549099676751L113.25785785500207,46.82313817255098L113.83594985596338,46.149272555353804L113.93229852279028,45.88295056621919L113.9804728562037,45.1727924121121L114.12499585644403,45.46650734703573L114.19725735656421,47.642862278990265L114.24543168997765,50.74682770091886L114.46221619033814,50.25455467849618L114.63082635728519,49.944522239848766L114.94395952447256,48.34352441971333L115.13665685812632,48.64310520100278L115.44979002531369,56.37336008834171L115.49796435872715,54.87201355083941L115.5702258588473,51.409469543199776L115.95562052615483,49.1032101726494L116.07605635968845,55.23750364972835L116.12423069310188,56.04888894978754L116.3651023601691,56.43379373234892L116.46145102699597,55.18351112442741L117.15997886149088,54.40893347453306L117.28041469502449,61.61270628161074L117.44902486197154,61.37060087332982L118.50886019706725,61.858212332089664L118.70155753072103,60.7475939405154L118.87016769766808,62.330233230084986L118.96651636449496,62.35993992530837L119.23147519826888,61.95171379727533L119.37599819850921,63.05466594207532L119.52052119874953,64.26450289362042L120.0504388662974,66.34821631243392L120.31539770007134,69.82020106867893L120.43583353360495,68.91334262337301L120.65261803396542,75.9005545661778L120.67670520067215,86.04055577096642L120.9657512011528,86.75877846410062L121.23071003492673,95.28182736995586L121.30297153504691,100.96168824581285L121.5438432021141,102.91724955283141L122.67594003733,98.24641464995746L122.7963758708636,91.68554365408613L122.82046303757032,88.67460994777099L123.06133470463753,83.0919647039127L124.81969787422817,89.12341903944706L125.0846567080021,93.1753956206516L125.10874387470882,94.428848441482L125.15691820812225,95.82986188995115L125.20509254153569,93.43020888334065L125.27735404165585,94.00573318470441L125.30144120836258,98.44462935891525L125.9036203760306,98.8215091211025L126.02405620956421,99.24659966558164L126.09631770968439,96.8332856512193L126.28901504333814,96.76115473729708L126.55397387711207,96.69060304065424L126.77075837747256,100.42800778358L126.84301987759272,100.87765583183617L126.86710704429944,102.73255167315457L127.22841454490026,103.67479277416527L127.6138092122078,104.6080632799697L127.75833221244812,103.32511949278505L127.85468087927501,103.02250879993645L128.0714653796355,103.55749289449449L128.11963971304894,107.62091753527037L128.33642421340943,108.32876059972561L128.4327728802363,106.38118000056446L128.69773171401025,104.15906502347907L129.323998048385,106.41888749568606L129.54078254874548,106.50569640370436L129.9020900493463,111.1828523676272L130.07070021629335,113.4467385192349L130.21522321653367,110.18885488060421L130.31157188336053,109.81614447193425L130.33565905006728,108.5949600134202L130.79331521749498,110.86653027179482L130.8655767176151,112.0416331923688L131.73271471905707,116.5771125774064L131.8772377192974,119.0880219866367L132.23854521989824,121.89600763759876L132.28671955331166,124.26382578068767L132.6962013873259,123.82039557997813L132.72028855403263,122.24825018188801L133.17794472146034,118.80609579074178L133.20203188816706,119.5550508444646L133.27429338828722,118.08267095385074L133.4910778886477,114.35174440951855L133.75603672242164,111.55438824203367L134.35821589008967,111.34433086743121L134.43047739020983,113.67354206747447L134.69543622398376,112.54151152481403L134.76769772410393,114.34403167209476L134.81587205751737,112.25275364121899L134.8640463909308,113.10682330295882L135.15309239141146,109.19241111387826L135.56257422542572,112.87640827366559L136.06840472626686,110.32694014924154L136.2370148932139,107.36637886903436L136.42971222686768,112.12493726675196L136.52606089369456,109.23480586427755L136.6946710606416,109.11938609542375L136.71875822734833,111.69854449376149L136.74284539405505,108.96112093914826L136.98371706112226,108.3060434745291L137.609983395497,109.4578544417478L137.73041922903062,106.6805379722199L138.11581389633815,106.76411666106287L138.38077273011208,102.44892652713385L138.47712139693897,104.64808949326341L138.5012085636457,104.05350206626538L138.69390589729946,108.33878475403206L138.83842889753979,108.56842766342812L138.91069039765992,109.33012300953646L139.12747489802044,110.76466817771167L139.22382356484732,109.98161546362758L139.39243373179437,110.79105957849988L139.4165208985011,111.96632973734816L139.56104389874142,114.27552643201071L139.70556689898174,111.0026210191049L139.75374123239516,112.91361826775469L139.82600273251535,112.90583985289977L140.6690535672506,116.05023013599248L140.95809956773124,113.37721777023931L141.41575573515894,110.92097043032601L141.46393006857235,115.30105633209453L141.9697605694135,111.25847103622489L142.45150390354792,105.18189768944829L143.02959590450922,99.52176957034185L143.10185740462938,100.0246219359556L143.41499057181676,94.84416358569933L143.60768790547053,100.44535513747849L143.82447240583102,93.35031065386126L143.89673390595118,90.96092114190189L143.94490823936462,91.12426543986825L143.96899540607134,96.66395568366568L145.02883074116707,85.7969413935518L145.1733537414074,81.89442862858012L145.24561524152753,76.14286920584212L145.4142254084746,75.4877891371215L145.72735857566198,78.9132916274003L145.77553290907542,76.39434291502681L145.79962007578212,70.25484696339629L145.9682302427292,65.62852069167847L146.40179924345014,66.24193585569734L146.95580407770473,63.893790747621736L147.07623991123836,64.61590725539388L147.55798324537275,62.32222120693966L147.60615757878622,56.17287154430011L147.75068057902655,56.661117603234416L148.37694691340127,55.42722177455154L148.4973827469349,55.449913170516425L148.90686458094913,49.85293906368068L149.34043358167014,50.443868433327324L149.53313091532388,47.627430881093375L150.08713574957847,50.624747130225984L150.18348441640535,53.85492013534645L150.27983308323226,53.59191165074367L150.30392024993898,54.26300671632714L150.9301865843137,54.48059363886354L151.4841914185683,55.28504894758002L152.1827192530632,56.79627385942986L152.44767808683713,54.83307875877472L152.8330727541447,56.24704674991145L153.17029308803876,60.04089133264792L153.19438025474548,56.63121351383751L153.6761235888799,55.924401995340546L154.25421558984118,60.76815949319007L154.63961025714875,65.76929620233884L155.09726642457645,67.78542501813676L155.1695279246966,67.55889027511594L155.28996375823021,68.4071977261731L156.1811889263789,72.07785876921427L156.34979909332594,76.08149792590218L156.44614776015283,75.23594596957669L156.59067076039312,79.47311606609823L156.73519376063348,76.49488352294921L156.85562959416706,75.28924643202302L156.92789109428725,74.12122720753895L156.9760654277007,76.2086338252853L157.554157428662,85.74894414568429L157.74685476231573,90.06227792097195L158.15633659633002,97.27001774435979L158.2767724298636,96.70858102115045L158.32494676327704,95.77445464384598L158.6139927637577,95.5971754237681L158.66216709717116,91.9675831618551L158.80669009741146,92.27833071913028L159.09573609789211,94.98603383318472L159.21617193142572,96.71349938346007L159.45704359849293,93.57007649714551L159.69791526556014,95.6293772650672L160.37235593334833,96.36305656921988L160.4205302667618,97.97470563149746L160.51687893358866,99.00441513050434L160.87818643418947,102.80970070644688L161.86576026916507,107.10784382192288L161.9380217692852,106.56049720190134L162.37159077000618,105.63340339291466L162.80515977072716,109.10703857072409L163.21464160474142,109.98188509828181L163.28690310486155,112.12732231734773L163.40733893839518,114.07023042044405L163.5277747719288,114.16848949000004L163.96134377264977,113.38635035567137L163.9854309393565,109.83403420584652L164.39491277337075,111.00472616411892L164.46717427349088,114.08979894890095L164.63578444043796,116.05656026460949L165.2861379415194,113.58333860863478L165.33431227493284,115.0260963478234L165.50292244187992,115.63246942752872L165.93649144260087,116.29781124177842L166.15327594296136,113.38450237675373L166.37006044332188,117.64269755146313L166.6109321103891,112.51420304424693L166.87589094416302,114.87591489439555L166.97223961098987,117.38911635363114L166.9963267776966,116.56123895405396L167.45398294512432,120.1791077312329L167.5744187786579,119.60210805844576L167.62259311207134,117.67906217920273L167.71894177889826,118.40897051016604L167.93572627925872,117.17302804902869L168.36929527997972,119.379767932465L168.85103861411412,119.56548375409264L168.97147444764772,118.41215782378472L169.18825894800824,118.03265707773758L169.33278194824854,114.51209650594568L169.35686911495526,112.20747347190405L169.45321778178217,109.5821186791995L169.5254792819023,108.37059815923921L170.0553969494502,107.39183708878899L170.48896595017115,105.37211057197082L170.58531461699803,106.1128773212815L170.70575045053164,105.88899735715681L171.09114511783918,100.93620657253965L171.13931945125262,101.37063962764712L171.38019111831983,101.30022971086717L171.52471411856015,103.01796632565944L171.5728884519736,104.22532464231979L171.71741145221392,103.38112392682773L171.76558578562734,102.56610783014267L171.8137601190408,102.32242150376173L172.10280611952146,100.3869855551712L172.1509804529349,98.80679899789332L172.19915478634834,100.69337850441886L172.75315962060293,102.00601170020572L172.96994412096342,98.31952012858166L173.04220562108358,94.76665371925903L173.42760028839112,96.79973781515145L173.69255912216505,94.48045965455168L173.74073345557846,93.69713536240735L173.88525645581882,89.77376014383792L174.1983896230062,87.27589203097325L174.31882545653977,87.7869009013532L174.48743562348685,85.73530946539728L174.63195862372714,86.96949572385486L174.94509179091452,83.08545866966769L175.5713581252893,83.97197380302143L176.12536295954385,82.48505277336564L176.22171162637076,80.72142566463181L176.24579879307748,81.79811357596738L176.4144089600245,81.41537548798672L176.8238907940388,76.23778725818626L177.08884962781272,75.44450096673584L177.35380846158665,74.10703756246407L177.52241862853367,72.3639397313639L177.66694162877403,66.23586146977753L178.24503362973533,63.75690921716911L179.56982779860496,58.309626058011844L179.66617646543187,61.90084112626434L179.97930963261922,59.58525258161312L180.34061713322004,56.810105514705725L180.5333144668738,55.986507519721755L180.55740163358053,56.040258157538005L180.6537503004074,55.46764879359171L180.89462196747462,53.53010842023802L181.13549363454183,48.91614397306972L181.15958080124855,51.64206715783082L181.18366796795527,54.75382002026319L181.376365301609,48.630758271412816L181.85810863574346,53.41108038800985L182.43620063670477,53.44264547627543L182.60481080365182,51.55218395411352L182.67707230377198,51.456541253812475L182.9179439708392,53.816030412715705L183.13472847119968,55.513134638853415L183.20698997131984,50.7779847048302L183.44786163838705,54.68880167448482L183.56829747192066,54.88852265315549L184.43543547336262,59.30454389369473L184.6522199737231,60.955423304466066L184.70039430713655,64.47746957759986L184.7967429739634,65.41553351550009L184.94126597420376,63.71926661424524L185.01352747432392,68.16500047771603L185.18213764127097,68.07320809354253L185.3748349749247,65.17386336953402L185.44709647504487,69.72716127298895L185.63979380869864,73.82391537870656L185.73614247552553,71.15273667700373L185.83249114235244,70.28320033257403L186.38649597660702,58.47124703962449L186.48284464343388,57.599597341433025L186.65145481038095,54.054370344210014L186.7478034772078,35.7860870626877L187.01276231098174,37.900000745265686L187.3018083114624,37.56087503437078L187.68720297876993,35.50092246333381L188.28938214643796,56.17511209106172L188.65068964703877,77.08340485367712L188.9879099809329,94.8267037652566L189.18060731458664,106.62753875472839L189.3733046482404,112.30679376960761L189.51782764848073,116.03339305582645L189.54191481518748,119.36060233985977L190.1681811495622,122.11092943467338L190.5054014834563,128.3712491887753L191.10758065112432,133.3971799705874L191.51706248513855,136.92381838348768L191.8061084856192,143.62524061079668L191.8783699857394,140.55075190038795L192.02289298597972,141.60911737661533L192.4564619867007,145.24650321401782L192.50463632011414,146.61255219450234L192.9382053208351,148.58233674435675L193.03455398766198,152.55936568533042L193.54038448850312,152.180122097176L193.63673315533003,156.4831331594974L193.80534332227705,158.32318759908435L194.11847648946443,156.34842334734526L194.26299948970478,159.76812968043373L194.60021982359888,160.41683500738165L194.88926582407953,154.8460657089748L195.25057332468032,154.19397965414785L195.44327065833411,152.30366856581406L195.46735782504084,151.59970950854546L195.9972754925887,150.7549383491859L196.09362415941555,148.57727429961062L196.43084449330965,145.7103516678826L196.7198904937903,145.988441376841L196.74397766049702,148.5944214151336L196.91258782744407,146.11513844354656L197.24980816133817,146.62493343866052L197.3943311615785,147.77844798619168L197.56294132852554,152.17203829801358L197.61111566193898,149.54118583047278L197.82790016229947,150.98429792982662L197.8760744957129,150.24830422289943L197.90016166241963,151.89508912249735L198.35781782984733,153.14408656798L198.4300793299675,148.5325797072681L198.646863830328,146.44045499176377L198.95999699751536,141.58133544812557L199.53808899847667,140.83129560055443L199.9234836657842,132.8420647677784L200.18844249955814,130.2326332753189L200.62201150027911,125.40063484021223L200.8628831673463,124.26349121988486L200.88697033405302,121.70450519331443L201.03149333429337,122.77616198198109L201.20010350124042,118.91607265305669L201.2964521680673,121.09214485782255L201.32053933477403,121.20767666675366L201.34462650148075,121.78674887422842L201.8745441690286,119.50665277642995L201.89863133573533,120.9840955704664L201.9949800025622,118.79346021783215L202.04315433597563,118.30896975046775L202.25993883633612,116.14582891696811L202.356287503163,120.23969268882134L203.05481533765794,117.67108585936529L203.07890250436466,113.9462319334918L203.29568700472515,110.54168153415718L203.36794850484532,104.5626183085451L203.53655867179236,102.92701178916559L203.77743033885955,100.5544232516873L203.80151750556627,97.173256510297L203.84969183897974,100.06210975751719L203.9701276725133,98.57453882849309L204.11465067275367,93.63383454669699L204.21099933958055,92.42689557230614L204.25917367299397,91.25485383733866L204.6445683403015,87.64621550189432L204.78909134054186,84.29581477380717L204.81317850724855,83.62380024750605L205.00587584090235,80.58796954458849L205.46353200833002,79.37148058975508L205.8730138423443,77.90978872900203L206.49928017671903,77.26604856541789L207.05328501097364,76.03164275430831L207.36641817816098,74.39336816245583L207.43867967828115,73.45513722349837L208.18538184618947,68.10281951387414L208.20946901289622,63.871799244921206L208.59486368020376,60.69149784591977L208.61895084691048,59.85867655726962L208.8598225139777,61.79335517521632L208.93208401409785,64.93269293534662L208.9802583475113,65.93118042247565L209.24521718128523,65.49944113787919L209.38974018152555,67.72687388027272L209.46200168164572,68.8456277839223L209.5583503484726,72.60165028646543L209.99191934919358,70.10917135052857L210.0160065159003,68.81947946824232L210.11235518272719,66.40907562577462L210.18461668284732,68.49864502569943L210.2327910162608,65.79177918235159L210.57001135015489,66.17290047705885L210.66636001698177,61.92969959624766L210.9313188507557,60.199681579138115L211.00358035087584,62.72875731454113L211.4853236850103,59.328204548261894L211.67802101866403,55.42816586148466L211.91889268573124,55.30858215553191L211.94297985243796,51.658784389986394L212.2079386862119,52.94174038762793L212.76194352046647,53.916867946323364L212.8823793540001,51.171875612741346L213.29186118801434,47.741808459584405L214.3516965231101,56.58458937298742L214.3757836898168,59.206712924720335L214.47213235664367,64.81456258446582L214.56848102347055,65.60787495015646L215.00205002419153,71.52603156415783L215.14657302443186,75.31074983715703L216.18232119282087,80.92895054341442L216.37501852647466,86.13466600936941L216.5677158601284,99.47103444603451L216.59180302683512,102.72737185757384L217.00128486084938,106.46181656999529L217.31441802803676,101.15665623296036L217.41076669486364,100.01976531924768L217.67572552863757,95.1529836917054L217.96477152911822,89.56144530342188L218.0370330292384,82.1722569372622L218.0852073626518,82.16905222510958L218.1815560294787,86.05133772081349L218.37425336313245,82.35334883599803L219.81948336553572,79.38070455007153L219.96400636577607,82.03655625144076L219.9880935324828,80.94917436270916L220.39757536649702,78.68255568931329L220.5661855334441,78.24362771025595L221.12019036769868,86.50228932024388L221.21653903452554,87.93880778864806L221.48149786829947,94.37991155607148L221.55375936841963,102.66625863211398L221.96324120243392,98.11820101534676L222.10776420267422,91.79658320116862L222.4208973698616,82.68451763449436L222.902640703996,71.4168281842671L223.11942520435653,66.90579315305773L223.50481987166404,61.816597733894696L223.55299420507748,57.86688488054779L223.76977870543797,58.82233272414372L223.9865632057985,54.745058551649365L224.17926053945223,55.218120658555634L224.66100387358665,54.87915325224246L224.7091782070001,59.701203383861866L224.78143970712026,57.863869763861686L224.82961404053373,59.884812394836445L224.97413704077402,61.192722339030325L225.26318304125468,55.598174116431466L225.2872702079614,55.11904294680896L225.45588037490845,53.24151448221957L225.5281418750286,53.14960360315345L225.64857770856221,49.72808061421634L225.81718787550926,46.11285465052666L225.8653622089227,48.64804464580777L227.09380771096545,52.994195248427715L227.3587665447394,53.968340548893664L227.43102804485957,58.21778322439647L227.55146387839318,65.3421500367453L227.9368585457007,62.91686622706253L228.0332072125276,65.01986663003238L228.05729437923432,67.04540559195472L228.10546871264776,63.73601169393126L228.34634037971497,61.336797560321344L228.44268904654186,55.52093564150219L228.5390377133687,57.69877434618607L228.75582221372923,56.016979247524375L228.77990938043592,53.105996118012996L228.90034521396956,55.652020852604394L228.99669388079644,55.68021396578597L229.02078104750316,53.91035045179855L229.38208854810395,54.43615337564982L230.12879071601233,53.2618124818824L230.41783671649299,52.35801827232014L230.58644688344,49.92241812958275L230.70688271697364,48.419443164454464L231.0441030508677,47.55409257332312L231.26088755122822,53.86242364594001L231.622195051829,51.538962749029736L231.88715388560297,50.323376560032955L232.05576405255,45.01594431982207L232.0798512192567,45.562278903177L232.2966357196172,40.04548441903373L233.2119480544726,35.5982513440525L233.2842095545928,32.60210050028982L233.3323838880062,31.58376603952175L233.40464538812637,33.45614990995443L233.4287325548331,32.383536358137235L233.52508122165997,35.48869462524456L234.29587055627505,48.98725962450169L234.63309089016914,56.44141893654394L235.28344439125058,64.78091852889004L235.42796739149094,72.70339337090654L235.52431605831782,75.37999900964496L235.9578850590388,86.78251020260551L236.0783208925724,94.5896821645991L236.4396283931732,97.22801892647648L236.5118898932934,101.43090061441744L236.58415139341355,103.67012019292473L237.0899818942547,103.06984117252033L237.35494072802862,102.28283680531591L237.668073895216,104.10772651266537L237.69216106192272,97.24924680701658L237.93303272898993,99.46404088083003L238.0052942291101,96.78470303781033L238.10164289593695,102.89981196118424L238.51112472995123,104.81603037932082L238.55929906336468,103.68968201850056L238.63156056348484,105.30010678846371L239.13739106432598,104.40251566428174L239.18556539773942,106.3309798929367L239.306001231273,103.16896455496423L239.57096006504693,110.68756646830224L239.76365739870073,115.94548596218587L239.86000606552759,118.94970792563868L240.26948789954187,123.63582881099057L240.41401089978217,125.51985599057389L240.65488256684938,127.83170852670314L240.70305690026282,126.33236925912816L240.84757990050318,118.27671589865236L240.96801573403675,108.92917561372342L241.08845156757036,109.7863738575759L241.16071306769055,110.82419698380362L241.52202056829134,120.2710181798104L241.54610773499806,120.41262003299681L242.19646123607953,114.70850524764589L242.3891585697333,111.46086721096412L242.6300302368005,118.67380423993771L242.89498907057447,120.51548864351965L243.40081957141558,117.10999722946592L243.81030140542984,118.10407121360905L243.83438857213656,106.46805875271501L244.6051779067516,106.48092513149467L244.62926507345836,109.34029950938287L244.77378807369868,114.80678227941183L246.02632074244815,126.44362104022872L246.07449507586162,126.21671597105367L246.24310524280867,127.73009985234032L246.3153667429288,124.6761477618446L246.48397690987588,122.47564235587114L247.13433041095732,112.55148259033918L247.6401609117985,105.08870023258912L247.8810325788657,95.39479674463333L248.2664272461732,97.80068889465504L248.31460157958665,93.97386283345271L248.3627759130001,93.39091717276399L248.48321174653373,88.93175896658721L249.25400108114877,84.4336245309792L249.3744369146824,76.57498250327167L249.63939574845634,69.56407197023701L249.66348291516306,71.40955055081035L249.68757008186975,67.81794111324274L249.7598315819899,64.41316262091404L250.14522624929745,60.229568342357624L250.79557975037895,60.65634858288463L250.86784125049908,61.35889336031822L251.34958458463353,61.38070500167436L251.49410758487383,60.73454726758341L251.51819475158055,62.704956676901475L252.1444610859553,62.002790600030025L252.31307125290235,62.533231930959474L252.48168141984942,66.67295152315347L253.2765579211712,65.23843200954322L253.34881942129132,59.590200064023506L253.80647558871905,56.819865474595545L253.83056275542577,60.203563105961805L254.04734725578626,61.64446228066576L254.21595742273328,58.98927892525843L254.28821892285347,56.13967555762386L254.45682908980052,57.454420576701395L254.52909058992068,58.493034979992416L254.98674675734839,62.47119851185178L255.05900825746852,61.70839909617196L255.32396709124245,57.698555116784135L255.5889259250164,61.81919578646675L255.82979759208362,66.56680656230907L255.87797192549704,66.65518143649935L255.90205909220376,66.13249027559255L255.97432059232392,64.50081067889812L256.5524125932852,67.58157108032253L256.67284842681886,68.45154896236103L256.69693559352555,69.89171441946648L256.79328426035244,70.7438881478633L257.25094042778017,69.74405907844182L257.27502759448686,72.0386146778885L257.4918120948474,72.29954306705788L257.68450942850114,71.85571215059831L257.9735554289818,68.101763711555L258.86478059713045,69.56679582759452L258.93704209725064,69.40116999702087L259.1538265976111,72.94347089590629L259.1779137643178,73.80366270051574L259.3224367645582,77.06194237349489L259.3706110979716,73.70686672503003L259.5873955983321,76.66728086021885L260.43044643306735,75.81219823170372L260.5508822666009,79.59531325079745L261.1048871008555,78.99972514326384L261.17714860097567,79.44222528543487L261.24941010109586,76.0237619093953L261.4661946014563,75.12885106463688L262.1406352692445,78.61081790165919L262.7187272702058,82.36302798371523L262.95959893727303,85.8717203075222L264.28439310614266,87.87191152379076L264.42891610638304,90.76684872657671L264.52526477320987,95.01082168191539L264.59752627333006,95.21309473263683L264.86248510710396,93.23068243018713L264.93474660722416,96.43339765701144" fill="none"></path></g></g></g></g><g opacity="0.2"><g><g><g><path style="fill: none;" stroke="rgb(255, 112, 67)" stroke-width="2px" d="M24.520735707441965,72.91311460439893L24.66525870768229,75.58986841328935L25.050653374989828,71.50844968231459L25.09882770840327,58.1992506776659L25.171089208523433,17.474660625724766L25.43604804229736,72.77595922290558L25.797355542898178,58.04296704438353L25.86961704301834,26.268709169829606L26.35136037715276,61.181808868213196L26.64040637763341,73.03681355722746L27.122149711767833,51.87671038095654L27.820677546262743,19.733155687591164L27.892939046382903,68.0408119323421L28.109723546743393,13.02972869397962L28.495118214050926,32.22144603278775L28.54329254746437,59.99180433777488L29.603127882560095,62.77612042307523L29.7235637160937,22.915727720548972L30.084871216694513,60.11107394769451L30.22939421693484,45.99390902169111L30.349830050468444,-35.16850721454048L30.518440217415492,20.06846119117199L30.66296321765582,-16.339639382629144L35.504483725706734,-29.492019836545097L35.962139893134434,51.78213471153545L36.46797039397558,-18.899635429415667L36.87745222798983,-30.692397237118342L36.99788806152344,4.702167790086776L37.64824156260491,-12.934394517274455L37.88911322967211,-16.602965941251938L38.03363622991244,8.30170373020863L38.202246396859486,-13.793624776079014L38.22633356356621,-2.037209052488919L39.021210064888,25.299178366714585L39.06938439830144,6.443683532830704L39.35843039878209,0.10507590085373408L39.527040565729145,41.12467434178333L39.551127732435866,13.191369992518588L39.59930206584931,5.866074575500818L39.67156356596947,15.20569929543845L39.719737899382906,-8.52837287710227L40.00878389986356,19.748642821391513L40.24965556693078,-0.9603607896806352L41.285403735319775,4.6512515735173L41.47810106897354,6.2655362101097865L41.670798402627305,20.656428867381493L41.887582902987795,9.70214025720935L42.20071607017517,17.126358609276394L42.29706473700206,36.70229951098645L42.51384923736255,51.65458378701423L42.61019790418943,51.99539978940888L42.658372237602876,31.292218004767165L42.70654657101631,40.22704323659664L42.87515673796336,29.92705206647625L42.995592571496964,30.595376230781397L43.043766904910406,25.04110475405915L43.16420273844401,30.529538930623573L43.21237707185745,23.689354205792654L43.30872573868434,38.76352607397058L43.40507440551122,33.09520114003226L43.54959740575155,45.282075407840495L43.57368457245827,30.136558570941986L44.127689406712854,38.14219539826573L44.22403807353973,47.633762146359686L45.018914574861526,56.96466686278144L45.18752474180857,52.65075574335711L45.3320477420489,61.80084138005732L45.669268075942995,65.51860539770874L45.76561674276987,66.30104953012986L45.93422690971693,68.2001437460161L45.98240124313036,68.48862133068363L46.17509857678414,62.983614619037326L46.51231891067823,69.12420798097772L46.53640607738495,79.8854189865247L46.77727774445216,69.87826469526699L46.84953924457232,86.421434330358L47.06632374493281,80.9602450349506L47.25902107858658,82.08830669068966L47.47580557894707,85.761163114772L47.49989274565379,85.26775589538414L47.644415745894115,87.46517891542432L47.66850291260083,95.92519397690914L47.78893874613444,88.20357355101962L48.22250774685542,107.21513621154251L48.294769246975584,83.9548402832561L48.51155374733607,101.08594451599735L49.2341687485377,109.96498125405756L49.54730191572507,114.10301774236218L49.6918249159654,117.319080136113L49.76408641608556,120.42794111046405L49.812260749499,116.87072025394032L49.90860941632589,114.05318834219975L50.053132416566214,111.24410756012435L50.17356825009982,110.3984483551525L50.41443991716703,120.55559675427449L50.55896291740736,118.44582006460706L50.67939875094096,115.46239581723539L50.920270418008165,121.98167252562776L51.93193141969045,139.57075737145743L52.028280086517334,146.43874082219972L52.052367253224055,122.60590703892018L52.076454419930776,144.9721556674246L52.510023420651756,136.61225065441803L52.82315658783912,144.21360309932652L53.136289755026496,161.59219934357262L53.762556089401244,158.86259201126214L54.0516020898819,145.07636551145396L54.31656092365583,138.71061577181155L54.38882242377599,147.52091561750294L54.461083923896155,157.28302889467378L54.94282725803057,157.6764451130186L55.087350258270895,186.08479578170082L55.25596042521795,151.19421356075063L55.400483425458276,164.00657331281982L55.785878092765806,148.6634426864097L55.85813959288597,178.31339053210303L56.1230984266599,153.82876408095981L56.195359926780064,156.09139696987594L56.26762142690023,154.5119527238321L56.29170859360695,153.15042082790222L57.44789259552956,179.26451338232383L57.52015409564972,176.20824979367188L57.592415595769886,179.49053157147364L57.61650276247661,162.58699296764925L58.14642043002446,184.91354732503714L58.676338097572334,192.98060060036295L58.77268676439921,144.20953319830224L59.37486593206724,160.9032709515506L59.39895309877395,179.88027412394257L59.66391193254789,159.68567430352832L59.85660926620166,148.90065734875287L59.952957933028536,156.4576597595511L60.001132266441985,144.77896839057084L60.77192160105705,122.69992514888244L60.86827026788394,134.4333733851206L61.47044943555196,114.19496976905066L61.85584410285949,112.32936732908297L61.879931269566214,122.79499894249011L62.24123877016703,130.0089692643137L62.33758743699392,106.75310338649895L62.72298210430145,108.50675949116476L62.74706927100817,86.46800363508068L63.276986938556036,103.39313121710008L63.39742277208964,94.68702883308966L63.517858605623246,86.94587277614913L63.59012010574341,87.5185899983032L63.710555939277015,89.93407625621698L63.78281743939718,80.4936703645185L64.07186343987783,103.8164179051322L64.2645607735316,93.94061485800653L64.43317094047865,116.59897086816295L64.6017811074257,125.54213118936414L64.81856560778618,81.63285136910955L64.91491427461307,92.8275047110547L64.96308860802651,82.57594338194757L65.01126294143994,78.48593837681952L65.0835244415601,85.98712611402615L65.25213460850716,82.57758563512513L65.46891910886765,86.29058067974044L65.70979077593485,74.47652264793679L65.80613944276173,85.7460937967844L65.85431377617518,69.41884843732839L65.92657527629534,76.02641199728653L66.04701110982896,72.66555395930588L66.11927260994912,66.4527424961929L66.14335977665583,73.12974343565718L66.62510311079025,72.2549241540141L66.84188761115074,75.2608106889235L66.98641061139107,71.94548856024726L67.15502077833811,56.701699746043275L67.17910794504483,71.10681583001704L67.39589244540532,78.11424008998362L67.56450261235237,61.50397917662454L68.07033311319351,62.25174565793296L68.1666817800204,58.61858350496718L68.40755344708761,77.39663064128233L68.50390211391449,67.78780729933514L68.72068661427498,57.56262532523279L69.03381978146236,56.462611457498355L69.10608128158252,59.813815509113326L69.25060428182285,67.54368540928002L69.29877861523627,73.77507747060193L70.1177422832648,75.73597446375996L70.26226528350513,87.12783987645689L70.67174711751937,90.02263640390073L70.91261878458658,98.0862236830222L70.98488028470675,75.15604611568638L71.03305461812019,86.17485419036656L71.46662361884117,57.255492140703254L71.80384395273526,69.50326350544408L71.8520182861487,62.377040872359345L72.28558728686968,63.143028509992064L72.38193595369657,43.27175940092374L72.57463328735034,54.02047555560357L72.9841151213646,47.81560011646283L73.12863812160492,54.755571002916355L73.70673012256623,56.36185735001327L74.0198632897536,57.67159565154506L74.09212478987376,35.15077286139848L74.11621195658049,46.70245105355892L74.16438628999393,41.36800234641615L74.21256062340736,46.25931015434088L74.30890929023424,50.953700414514785L74.40525795706114,63.46824982904609L74.57386812400819,45.701937492090025L74.93517562460899,47.939270766780794L75.7541392926375,53.23216572786059L75.8504879594644,58.13855311343305L76.01909812641144,44.97026664855986L76.23588262677193,45.97158117107875L76.52492862725258,48.615516803802905L76.76580029431979,42.384730416207816L76.81397462773323,52.91992960066986L76.86214896114667,51.0317021337285L76.98258479468026,48.669888756916635L77.05484629480044,46.56674900598492L77.24754362845421,40.30096939428395L77.3438922952811,49.04500174165642L77.82563562941552,52.92700239806882L77.94607146294912,38.9139878808225L77.97015862965584,51.443710271286506L78.01833296306928,43.089411985629795L78.09059446318945,46.17880366293906L78.18694313001633,58.4736435179333L78.21103029672305,56.983063494671484L78.3796404636701,69.20732962435898L78.45190196379025,52.03100151749268L78.57233779732385,70.10781928311629L79.02999396475155,43.480261166263205L79.27086563181876,57.78242545280378L79.41538863205909,52.76416956383359L79.55991163229942,59.182324232103056L79.65626029912632,47.76729056111964L79.94530629960697,44.46120920215429L79.96939346631368,49.011754782454545L80.5715726339817,55.884028893803816L80.7883571343422,68.36001472251704L81.63140796907743,67.28048479682938L81.65549513578414,57.66063408918967L81.70366946919759,57.473718648684866L82.76350480429332,73.26888140801805L82.95620213794707,77.41898679440528L83.12481230489414,68.77154879302248L83.17298663830758,74.15192398411595L83.221160971721,80.959650682228L83.34159680525461,69.75397563509243L83.94377597292264,72.72584538251162L83.96786313962936,70.4165501443692L84.20873480669657,75.78038676339354L84.25690914011001,79.01144594994857L84.37734497364362,67.51673575868665L84.71456530753771,69.2496022541912L84.85908830777804,78.2352920505083L85.07587280813853,84.50229503822996L85.43718030873934,78.48946557720305L85.53352897556623,80.55155465919769L85.58170330897967,86.14306693314889L86.1838824766477,77.91095943028712L86.47292847712835,76.42617929901L86.71380014419556,89.20196916707518L86.85832314443589,99.1472501348423L87.26780497845014,93.56403332674799L87.41232797869047,95.75436214561559L87.43641514539718,94.33269166003721L87.77363547929127,96.87286462839948L87.9181584795316,100.77314021590634L88.0385943130652,88.66600261121158L88.59259914731979,120.99861312244589L88.76120931426684,99.01072165395875L88.88164514780044,106.64241651291877L89.19477831498781,114.06582824343373L89.36338848193486,117.88440863409355L89.72469598253568,148.95244528264885L90.01374198301633,147.02126875587192L90.0860034831365,141.30089550494012L90.42322381703059,122.60019559228108L91.26627465176581,111.18127457146672L91.29036181847255,113.20260733063456L91.31444898517927,113.05076436126532L91.74801798590025,109.68811335923817L92.10932548650105,116.40661851537189L93.26550948842366,106.7238569871704L93.48229398878416,113.72200368416229L93.69907848914464,123.51445442244531L93.84360148938497,113.18494939427119L94.34943199022612,119.7805409922455L94.39760632363955,110.52385394937023L94.42169349034627,108.91901810594156L95.55379032556216,114.96803303433339L95.74648765921593,119.78168724392481L96.30049249347051,118.18192462552119L96.51727699383099,110.29831831802615L96.61362566065787,110.59169648240406L96.70997432748477,116.55059621704535L96.99902032796543,119.38139634575523L97.07128182808557,118.15869958532281L97.26397916173936,107.10505501168917L97.3362406618595,112.85504967021498L97.91433266282081,129.6448687864484L98.01068132964771,121.24842523225716L98.05885566306114,111.73821137505436L98.73329633084933,202.837719745116L99.28730116510393,116.66780257394225L99.64860866570473,126.52020369017828L99.8413059993585,127.80691506908587L99.9617418328921,118.41281084649422L100.08217766642571,111.75213621026958L100.22670066666603,105.78822127074996L100.61209533397357,111.91206520691723L101.04566433469455,95.64295851095446L101.06975150140127,105.24625791039527L101.23836166834832,111.00589098890592L101.31062316846847,109.44888780351685L101.88871516942977,95.35064027559852L101.96097666954995,113.24566677026147L102.12958683649698,99.35830124882405L102.20184833661716,100.26783002190425L102.22593550332388,115.86507544729962L102.27410983673731,100.31355414290414L102.29819700344403,93.50206781004026L102.90037617111206,91.57185586820272L103.11716067147255,84.59335199802071L103.69525267243385,75.20679393231778L103.88795000608762,72.59003578539732L104.2251703399817,72.06097978500179L104.24925750668844,77.10233052262161L104.65873934070268,90.14185002791659L105.35726717519759,79.88959643708925L105.40544150861103,71.0183464272579L105.64631317567824,102.23823453593559L106.05579500969252,86.09631419277936L106.17623084322612,63.98850940914713L106.70614851077397,76.6433671048526L106.89884584442775,75.27156422782598L107.16380467820169,65.07303897333226L107.21197901161511,91.56297984709717L107.38058917856216,72.95916137401967L107.52511217880249,56.45966233589384L107.69372234574953,77.01470453467834L107.83824534598986,69.8314608334877L107.91050684611002,84.27632319444125L108.3199886801243,52.798008045507004L108.60903468060492,50.578621392787724L108.6812961807251,41.25589610192938L108.84990634767215,56.966348031911096L109.23530101497968,47.34306705998665L109.28347534839313,64.818839974378L109.42799834863345,49.54405425056484L109.52434701546034,54.63844106279808L109.90974168276786,46.849397688594365L110.31922351678212,55.089851955613454L110.80096685091655,53.741755261465414L111.23453585163753,54.47899037857955L111.28271018505097,48.108083921505795L111.3308845184644,48.763754033321675L111.40314601858458,49.381289342355075L111.47540751870473,48.32432642349437L111.88488935271899,49.594432719432916L112.14984818649292,43.20794290002277L112.48706852038701,47.53720813144764L113.20968352158864,42.46978512106307L113.25785785500207,49.11460893622615L113.83594985596338,45.138474129558006L113.93229852279028,45.48346758251722L113.9804728562037,44.10755518095149L114.12499585644403,45.90707974942123L114.19725735656421,50.90739467692205L114.24543168997765,55.40277583381176L114.46221619033814,49.51614514486215L114.63082635728519,49.47947358187767L114.94395952447256,45.942027689510184L115.13665685812632,49.09247637293694L115.44979002531369,67.96874241935016L115.49796435872715,52.61999374458591L115.5702258588473,46.215653531740315L115.95562052615483,45.64382111682389L116.07605635968845,64.4389438653468L116.12423069310188,57.26596689987632L116.3651023601691,57.01115090619096L116.46145102699597,53.3080872125452L117.15997886149088,53.24706699969151L117.28041469502449,72.41836549222724L117.44902486197154,61.00744276090845L118.50886019706725,62.58962952022944L118.70155753072103,59.081666353154006L118.87016769766808,64.70419216443933L118.96651636449496,62.4044999681435L119.23147519826888,61.33937460522576L119.37599819850921,64.70909415927527L119.52052119874953,66.07925832093815L120.0504388662974,69.47378644065414L120.31539770007134,75.02817820304645L120.43583353360495,67.55305495541415L120.65261803396542,86.38137248038501L120.67670520067215,101.25055757814933L120.9657512011528,87.83611250380194L121.23071003492673,108.0664007287387L121.30297153504691,109.48147955959833L121.5438432021141,105.85059151335928L122.67594003733,91.24016229564653L122.7963758708636,81.84423716027915L122.82046303757032,84.15820938829823L123.06133470463753,74.71799683812529L124.81969787422817,98.17060054274857L125.0846567080021,99.25336049245844L125.10874387470882,96.30902767272757L125.15691820812225,97.93138206265489L125.20509254153569,89.83072937342489L125.27735404165585,94.86901963675004L125.30144120836258,105.1029736202315L125.9036203760306,99.38682876438335L126.02405620956421,99.8842354823004L126.09631770968439,93.21331462967576L126.28901504333814,96.65295836641374L126.55397387711207,96.58477549568995L126.77075837747256,106.03411489796865L126.84301987759272,101.55212790422043L126.86710704429944,105.51489543513216L127.22841454490026,105.08815442568132L127.6138092122078,106.00796903867634L127.75833221244812,101.40070381200808L127.85468087927501,102.56859276066352L128.0714653796355,104.35996903633153L128.11963971304894,113.71605449643417L128.33642421340943,109.3905251964085L128.4327728802363,103.45980910182273L128.69773171401025,100.82589255785099L129.323998048385,109.80862120399657L129.54078254874548,106.63590976573182L129.9020900493463,118.19858631351144L130.07070021629335,116.84256774664645L130.21522321653367,105.3020294226582L130.31157188336053,109.25707885892929L130.33565905006728,106.76318332564915L130.79331521749498,114.27388565935675L130.8655767176151,113.8042875732298L131.73271471905707,123.38033165496276L131.8772377192974,122.85438610048217L132.23854521989824,126.10798611404184L132.28671955331166,127.81555299532101L132.6962013873259,123.1552502789138L132.72028855403263,119.89003208475283L133.17794472146034,113.64286420402246L133.20203188816706,120.67848342504881L133.27429338828722,115.87410111792997L133.4910778886477,108.75535459302023L133.75603672242164,107.35835399080638L134.35821589008967,111.02924480552754L134.43047739020983,117.16735886753935L134.69543622398376,110.84346571082332L134.76769772410393,117.04781189301585L134.81587205751737,109.11583659490532L134.8640463909308,114.38792779556857L135.15309239141146,103.32079283025745L135.56257422542572,118.40240401334658L136.06840472626686,106.50273796260544L136.2370148932139,102.9255369487236L136.42971222686768,119.26277486332833L136.52606089369456,104.89960876056595L136.6946710606416,108.94625644214305L136.71875822734833,115.56728209126808L136.74284539405505,104.8549856072284L136.98371706112226,107.3234272776004L137.609983395497,111.18557089257581L137.73041922903062,102.51456326792804L138.11581389633815,106.88948469432736L138.38077273011208,95.97614132624028L138.47712139693897,107.94683394245776L138.5012085636457,103.16162092576833L138.69390589729946,114.76670878568211L138.83842889753979,108.91289202752219L138.91069039765992,110.472666028699L139.12747489802044,112.91648592997448L139.22382356484732,108.80703639250143L139.39243373179437,112.00522575080834L139.4165208985011,113.7292349756206L139.56104389874142,117.73932147400456L139.70556689898174,106.09326289974615L139.75374123239516,115.78011414072935L139.82600273251535,112.89417223061741L140.6690535672506,120.76681556063154L140.95809956773124,109.36769922160957L141.41575573515894,107.23659942045606L141.46393006857235,121.8711851847473L141.9697605694135,105.19459309242042L142.45150390354792,96.06703766928338L143.02959590450922,91.03157739168219L143.10185740462938,100.77890048437621L143.41499057181676,87.07347606031495L143.60768790547053,108.84714246514723L143.82447240583102,82.70774392843538L143.89673390595118,87.37683687396289L143.94490823936462,91.36928188681776L143.96899540607134,104.97349104936184L145.02883074116707,69.496419958381L145.1733537414074,76.04065948112259L145.24561524152753,67.51553007173509L145.4142254084746,74.50516903404062L145.72735857566198,84.05154536281847L145.77553290907542,72.6159198464666L145.79962007578212,61.04560303595049L145.9682302427292,58.689031284101745L146.40179924345014,67.16205860172563L146.95580407770473,60.37157308550836L147.07623991123836,65.69908201705202L147.55798324537275,58.88169213425836L147.60615757878622,46.94884705034079L147.75068057902655,57.39348669163587L148.37694691340127,53.57637803152724L148.4973827469349,55.48395026446374L148.90686458094913,41.457477903427105L149.34043358167014,51.3302624877973L149.53313091532388,43.402774552742386L150.08713574957847,55.12072150392491L150.18348441640535,58.7001796430271L150.27983308323226,53.1973989238395L150.30392024993898,55.269649314702335L150.9301865843137,54.80697402266814L151.4841914185683,56.491731910654735L152.1827192530632,59.06311122720463L152.44767808683713,51.88828610779197L152.8330727541447,58.36799873661653L153.17029308803876,65.73165820675267L153.19438025474548,51.51669678562189L153.6761235888799,54.864184717595066L154.25421558984118,68.03379573996435L154.63961025714875,73.27100126606199L155.09726642457645,70.80961824183365L155.1695279246966,67.21908816058472L155.28996375823021,69.67965890275885L156.1811889263789,77.58385033377607L156.34979909332594,82.08695666093405L156.44614776015283,73.96761803508848L156.59067076039312,85.82887121088048L156.73519376063348,72.02753470822573L156.85562959416706,73.48079079563375L156.92789109428725,72.36919837081284L156.9760654277007,79.3397437519048L157.554157428662,100.05940962628277L157.74685476231573,96.53227858390346L158.15633659633002,108.08162747944152L158.2767724298636,95.86642593633646L158.32494676327704,94.37326507788929L158.6139927637577,95.3312565936513L158.66216709717116,86.5231947689856L158.80669009741146,92.74445205504303L159.09573609789211,99.04758850426637L159.21617193142572,99.30469770887309L159.45704359849293,88.8549421676737L159.69791526556014,98.71832841694972L160.37235593334833,97.46357552544892L160.4205302667618,100.39217922491382L160.51687893358866,100.54897937901464L160.87818643418947,108.5176290703607L161.86576026916507,113.55505849513689L161.9380217692852,105.73947727186903L162.37159077000618,104.24276267943465L162.80515977072716,114.31749133743824L163.21464160474142,111.2941548896184L163.28690310486155,115.34547814594661L163.40733893839518,116.98459257508853L163.5277747719288,114.31587809433404L163.96134377264977,112.21314165417837L163.9854309393565,104.50555998110922L164.39491277337075,112.76076410152753L164.46717427349088,118.71740812607399L164.63578444043796,119.00670223817232L165.2861379415194,109.87350612467269L165.33431227493284,117.19023295660631L165.50292244187992,116.54202904708673L165.93649144260087,117.29582396315294L166.15327594296136,109.0145390792167L166.37006044332188,124.0299903135272L166.6109321103891,104.82146128342265L166.87589094416302,118.41848266961847L166.97223961098987,121.15891854248453L166.9963267776966,115.31942285468821L167.45398294512432,125.60591089700134L167.5744187786579,118.73660854926507L167.62259311207134,114.79449336033818L167.71894177889826,119.50383300661102L167.93572627925872,115.31911435732268L168.36929527997972,122.68987775761943L168.85103861411412,119.84405748653413L168.97147444764772,116.68216892832284L169.18825894800824,117.46340595866687L169.33278194824854,109.23125564825781L169.35686911495526,108.75053892084163L169.45321778178217,105.64408649014266L169.5254792819023,106.55331737929878L170.0553969494502,105.92369548311365L170.48896595017115,102.34252079674357L170.58531461699803,107.22402744524751L170.70575045053164,105.55317741096978L171.09114511783918,93.50702039561388L171.13931945125262,102.02228921030833L171.38019111831983,101.19461483569728L171.52471411856015,105.59457124784787L171.5728884519736,106.03636211731029L171.71741145221392,102.11482285358963L171.76558578562734,101.34358368511508L171.8137601190408,101.95689201419034L172.10280611952146,97.48383163228536L172.1509804529349,96.4365191619765L172.19915478634834,103.52324776420718L172.75315962060293,103.97496149388598L172.96994412096342,92.78978277114558L173.04220562108358,89.43735410527509L173.42760028839112,99.84936395899008L173.69255912216505,91.00154241365205L173.74073345557846,92.52214892419084L173.88525645581882,83.8886973159838L174.1983896230062,83.52908986167625L174.31882545653977,88.55341420692314L174.48743562348685,82.65792231146335L174.63195862372714,88.82077511154127L174.94509179091452,77.25940308838695L175.5713581252893,85.30174650305202L176.12536295954385,80.25467122888197L176.22171162637076,78.07598500153108L176.24579879307748,83.41314544297073L176.4144089600245,80.84126835601568L176.8238907940388,68.47140491348561L177.08884962781272,74.2545715295602L177.35380846158665,72.10084245605643L177.52241862853367,69.74929298471366L177.66694162877403,57.043744077397974L178.24503362973533,60.03848083825646L179.56982779860496,50.13870131927597L179.66617646543187,67.28766372864308L179.97930963261922,56.11186976463628L180.34061713322004,52.64738491434464L180.5333144668738,54.751110527245785L180.55740163358053,56.120884114262395L180.6537503004074,54.60873474767227L180.89462196747462,50.62379786020752L181.13549363454183,41.99519730231731L181.15958080124855,55.730951934972424L181.18366796795527,59.421449313911765L181.376365301609,39.446165648137224L181.85810863574346,60.58156356290537L182.43620063670477,53.4899931086738L182.60481080365182,48.71649167087065L182.67707230377198,51.31307720336095L182.9179439708392,57.355264151070514L183.13472847119968,58.05879097806L183.20698997131984,43.67525980379537L183.44786163838705,60.55502712896677L183.56829747192066,55.18810412116149L184.43543547336262,65.92857575450353L184.6522199737231,63.431742420623095L184.70039430713655,69.76053898730058L184.7967429739634,66.82262942235039L184.94126597420376,61.17486626236301L185.01352747432392,74.83360127292222L185.18213764127097,67.9355195172823L185.3748349749247,60.824846283521225L185.44709647504487,76.55710812817134L185.63979380869864,79.96904653728292L185.73614247552553,67.14596862444951L185.83249114235244,68.97889581592945L186.38649597660702,40.75331710020018L186.48284464343388,56.292122794145826L186.65145481038095,48.73652984837548L186.7478034772078,8.383662140404255L187.01276231098174,41.07087126913265L187.3018083114624,37.052186468028424L187.68720297876993,32.41099360677836L188.28938214643796,87.18639653265353L188.65068964703877,108.44584399760029L188.9879099809329,121.44165213262576L189.18060731458664,124.32879123893608L189.3733046482404,120.82567629192644L189.51782764848073,121.62329198515472L189.54191481518748,124.35141626590976L190.1681811495622,126.23642007689378L190.5054014834563,137.76172881992815L191.10758065112432,140.93607614330557L191.51706248513855,142.21377600283813L191.8061084856192,153.6773739517602L191.8783699857394,135.93901883477483L192.02289298597972,143.1966655909564L192.4564619867007,150.70258197012154L192.50463632011414,148.66162566522917L192.9382053208351,151.53701356913834L193.03455398766198,158.5249090967909L193.54038448850312,151.61125671494437L193.63673315533003,162.93764975297955L193.80534332227705,161.08326925846478L194.11847648946443,153.38627696973663L194.26299948970478,164.89768918006638L194.60021982359888,161.3898929978035L194.88926582407953,146.4899117613646L195.25057332468032,153.21585057190742L195.44327065833411,149.46820193331342L195.46735782504084,150.54377092264258L195.9972754925887,149.48778161014653L196.09362415941555,145.31077822524776L196.43084449330965,141.40996772029058L196.7198904937903,146.4055759402786L196.74397766049702,152.50339147257256L196.91258782744407,142.396213986166L197.24980816133817,147.38962593133147L197.3943311615785,149.50871980748843L197.56294132852554,158.76242376574646L197.61111566193898,145.59490712916158L197.82790016229947,153.1489660788574L197.8760744957129,149.14431366250864L197.90016166241963,154.36526647189422L198.35781782984733,155.017582736204L198.4300793299675,141.61531941620024L198.646863830328,143.30226791850728L198.95999699751536,134.29265613266824L199.53808899847667,139.7062358291977L199.9234836657842,120.85821851861438L200.18844249955814,126.31848603662965L200.62201150027911,118.15263718755227L200.8628831673463,122.55777578939373L200.88697033405302,117.86602615345882L201.03149333429337,124.38364716498108L201.20010350124042,113.1259386596701L201.2964521680673,124.3562531649713L201.32053933477403,121.38097438015033L201.34462650148075,122.65535718544055L201.8745441690286,116.08650862973222L201.89863133573533,123.20025976152107L201.9949800025622,115.5075071888808L202.04315433597563,117.58223404942115L202.25993883633612,112.90111766671866L202.356287503163,126.38048834660117L203.05481533765794,113.81817561518123L203.07890250436466,108.35895104468158L203.29568700472515,105.43485593515524L203.36794850484532,95.59402347012698L203.53655867179236,100.47360201009631L203.77743033885955,96.99554044546984L203.80151750556627,92.10150639821154L203.84969183897974,104.39538962834749L203.9701276725133,96.34318243495693L204.11465067275367,86.22277812400283L204.21099933958055,90.61648711071986L204.25917367299397,89.49679123488744L204.6445683403015,82.2332579987278L204.78909134054186,79.27021368167645L204.81317850724855,82.61577845805436L205.00587584090235,76.03422349021214L205.46353200833002,77.54674715750495L205.8730138423443,75.71725093787249L206.49928017671903,76.30043832004166L207.05328501097364,74.18003403764392L207.36641817816098,71.93595627467717L207.43867967828115,72.04779081506217L208.18538184618947,60.07434294943778L208.20946901289622,57.52526884149178L208.59486368020376,55.92104574741761L208.61895084691048,58.609444624294426L208.8598225139777,64.69537310213636L208.93208401409785,69.64169957554206L208.9802583475113,67.4289116531692L209.24521718128523,64.85183221098445L209.38974018152555,71.06802299386308L209.46200168164572,70.52375863939663L209.5583503484726,78.23568404028012L209.99191934919358,66.37045294662327L210.0160065159003,66.88494164481297L210.11235518272719,62.79346986207307L210.18461668284732,71.63299912558666L210.2327910162608,61.73148041732979L210.57001135015489,66.74458241911971L210.66636001698177,55.56489827503093L210.9313188507557,57.60465455347385L211.00358035087584,66.52237091764559L211.4853236850103,54.22737539884305L211.67802101866403,49.57810783131882L211.91889268573124,55.12920659660281L211.94297985243796,46.184087741668094L212.2079386862119,54.86617438409026L212.76194352046647,55.379559284366536L212.8823793540001,47.054387112368346L213.29186118801434,42.59670772984896L214.3516965231101,69.84876074309197L214.3757836898168,63.139898252319696L214.47213235664367,73.22633707408406L214.56848102347055,66.7978434986924L215.00205002419153,80.40326648515983L215.14657302443186,80.98782724665588L216.18232119282087,89.35625160280044L216.37501852647466,93.94323920830192L216.5677158601284,119.47558710103218L216.59180302683512,107.61187797488284L217.00128486084938,112.06348363862746L217.31441802803676,93.198915727408L217.41076669486364,98.31442894867862L217.67572552863757,87.852811250392L217.96477152911822,81.1741377209966L218.0370330292384,71.08847438802268L218.0852073626518,82.16424515688064L218.1815560294787,91.87476596436935L218.37425336313245,76.80636550877485L219.81948336553572,74.9217381211818L219.96400636577607,86.02033380349457L219.9880935324828,79.31810152961172L220.39757536649702,75.28262767921953L220.5661855334441,77.58523574166993L221.12019036769868,98.8902817352258L221.21653903452554,90.0935854912543L221.48149786829947,104.0415672072066L221.55375936841963,115.09577924617774L221.96324120243392,91.29611459019591L222.10776420267422,82.31415647990143L222.4208973698616,69.01641928448298L222.902640703996,54.51529400892623L223.11942520435653,60.139240606243675L223.50481987166404,54.18280460515011L223.55299420507748,51.94231560052745L223.76977870543797,60.255504489537586L223.9865632057985,48.629147292907874L224.17926053945223,55.92771381891498L224.66100387358665,54.37070214277273L224.7091782070001,66.93427858129095L224.78143970712026,55.10786933386143L224.82961404053373,62.916226341298625L224.97413704077402,63.15458725532112L225.26318304125468,47.20635178253315L225.2872702079614,54.400346192375224L225.45588037490845,50.425221785335495L225.5281418750286,53.011737284554286L225.64857770856221,44.5957961308107L225.81718787550926,40.690015704992135L225.8653622089227,52.45082963872947L227.09380771096545,59.51342115235765L227.3587665447394,55.429558499592574L227.43102804485957,64.59194723765063L227.55146387839318,76.02870025526853L227.9368585457007,59.278940512538426L228.0332072125276,68.17436723448712L228.05729437923432,70.08371403483822L228.10546871264776,58.771920846896094L228.34634037971497,57.73797635990641L228.44268904654186,46.797142763273484L228.5390377133687,60.96553240321191L228.75582221372923,53.49428659953182L228.77990938043592,48.73952142374591L228.90034521396956,59.47105795449151L228.99669388079644,55.72250363555831L229.02078104750316,51.255555180817424L229.38208854810395,55.224857761426705L230.12879071601233,51.50030114123129L230.41783671649299,51.00232695797672L230.58644688344,46.269017915476695L230.70688271697364,46.16498071676202L231.0441030508677,46.25606668662613L231.26088755122822,63.32492025486535L231.622195051829,48.053771403664314L231.88715388560297,48.499997276537755L232.05576405255,37.05479595950575L232.0798512192567,46.38178077820939L232.2966357196172,31.770292692818828L233.2119480544726,28.92740173158063L233.2842095545928,28.107874234645806L233.3323838880062,30.056264348369666L233.40464538812637,36.26472571560342L233.4287325548331,30.774616030411465L233.52508122165997,40.1464320259056L234.29587055627505,69.2351071233874L234.63309089016914,67.62265790460731L235.28344439125058,77.2901679174092L235.42796739149094,84.58710563393127L235.52431605831782,79.39490746775259L235.9578850590388,103.88627699204629L236.0783208925724,106.30044010758952L236.4396283931732,101.18552406929254L236.5118898932934,107.73522314632889L236.58415139341355,107.02894956068567L237.0899818942547,102.1694226419137L237.35494072802862,101.10233025450925L237.668073895216,106.84506107368955L237.69216106192272,86.96152724854339L237.93303272898993,102.7862319915502L238.0052942291101,92.7656962732808L238.10164289593695,112.0724753462451L238.51112472995123,107.69035800652571L238.55929906336468,102.00015947727015L238.63156056348484,107.71574394340841L239.13739106432598,103.05612897800879L239.18556539773942,109.22367623591913L239.306001231273,98.42594154800557L239.57096006504693,121.96546933830923L239.76365739870073,123.83236520301134L239.86000606552759,123.45604087081787L240.26948789954187,130.66501013901842L240.41401089978217,128.34589675994886L240.65488256684938,131.299487330897L240.70305690026282,124.0833603577657L240.84757990050318,106.19323585793869L240.96801573403675,94.90786518632997L241.08845156757036,111.07217122335463L241.16071306769055,112.38093167314518L241.52202056829134,134.4412499738206L241.54610773499806,120.6250228127764L242.19646123607953,106.1523330696195L242.3891585697333,106.58941015594148L242.6300302368005,129.49320978339807L242.89498907057447,123.27801524889256L243.40081957141558,112.00176010838537L243.81030140542984,119.5951821898237L243.83438857213656,89.01404006137398L244.6051779067516,106.50022469966416L244.62926507345836,113.62936107621518L244.77378807369868,123.00650643445529L246.02632074244815,143.89887918145405L246.07449507586162,125.87635836729109L246.24310524280867,130.00017567427025L246.3153667429288,120.09521962610101L246.48397690987588,119.17488424691096L247.13433041095732,97.66524294204122L247.6401609117985,93.89452669596403L247.8810325788657,80.8539415126996L248.2664272461732,101.40952711968764L248.31460157958665,88.23362374164921L248.3627759130001,92.51649868173092L248.48321174653373,82.24302165732203L249.25400108114877,77.68642287756721L249.3744369146824,64.78701946171036L249.63939574845634,59.04770617068502L249.66348291516306,74.17776842167038L249.68757008186975,62.4305269568913L249.7598315819899,59.305994882421004L250.14522624929745,53.95417692452297L250.79557975037895,61.29651894367517L250.86784125049908,62.41271052646857L251.34958458463353,61.41342246370864L251.49410758487383,59.76531066644698L251.51819475158055,65.66057079087855L252.1444610859553,60.949541484722886L252.31307125290235,63.328893927353604L252.48168141984942,72.88253091144452L253.2765579211712,63.08665273912784L253.34881942129132,51.11785214574397L253.80647558871905,52.664363590453604L253.83056275542577,65.27910955301117L254.04734725578626,63.80581104272174L254.21595742273328,55.00650389214739L254.28821892285347,51.86527050617201L254.45682908980052,59.42653810531765L254.52909058992068,60.05095658492897L254.98674675734839,68.4384438096408L255.05900825746852,60.56419997265225L255.32396709124245,51.68378914770241L255.5889259250164,68.00015679099067L255.82979759208362,73.68822272607251L255.87797192549704,66.78774374778477L255.90205909220376,65.34845353423235L255.97432059232392,62.05329128385651L256.5524125932852,72.20271168245915L256.67284842681886,69.75651578541878L256.69693559352555,72.05196260512461L256.79328426035244,72.02214874045853L257.25094042778017,68.24431547430959L257.27502759448686,75.48044807705854L257.4918120948474,72.69093565081201L257.68450942850114,71.1899657759089L257.9735554289818,62.47084105299L258.86478059713045,71.76434400165381L258.93704209725064,69.15273125116043L259.1538265976111,78.25692224423439L259.1779137643178,75.09395040742989L259.3224367645582,81.94936188296366L259.3706110979716,68.6742532523327L259.5873955983321,81.10790206300209L260.43044643306735,74.52957428893103L260.5508822666009,85.26998577943803L261.1048871008555,78.10634298196345L261.17714860097567,80.10597549869146L261.24941010109586,70.89606684533594L261.4661946014563,73.78648479749927L262.1406352692445,83.83376815719262L262.7187272702058,87.99134310679929L262.95959893727303,91.13475879323262L264.28439310614266,90.87219834819363L264.42891610638304,95.10925453075563L264.52526477320987,101.37678111492339L264.59752627333006,95.516504308719L264.86248510710396,90.2570639765126L264.93474660722416,101.23747049724787" fill="none"></path></g></g></g></g></g></g><g transform="translate(40, 178)" clip-path="url(#clip_1)"><clipPath id="clip_1"><rect width="289" height="21"></rect></clipPath><g><g><line x1="0" y1="0" x2="0" y2="5" style="visibility: inherit;" fill="rgb(0, 0, 0)" stroke="rgb(204, 204, 204)" stroke-width="1px"></line><line x1="24.087166706720986" y1="0" x2="24.087166706720986" y2="5" style="visibility: inherit;" fill="rgb(0, 0, 0)" stroke="rgb(204, 204, 204)" stroke-width="1px"></line><line x1="48.17433341344197" y1="0" x2="48.17433341344197" y2="5" style="visibility: inherit;" fill="rgb(0, 0, 0)" stroke="rgb(204, 204, 204)" stroke-width="1px"></line><line x1="72.26150012016296" y1="0" x2="72.26150012016296" y2="5" style="visibility: inherit;" fill="rgb(0, 0, 0)" stroke="rgb(204, 204, 204)" stroke-width="1px"></line><line x1="96.34866682688394" y1="0" x2="96.34866682688394" y2="5" style="visibility: inherit;" fill="rgb(0, 0, 0)" stroke="rgb(204, 204, 204)" stroke-width="1px"></line><line x1="120.43583353360495" y1="0" x2="120.43583353360495" y2="5" style="visibility: inherit;" fill="rgb(0, 0, 0)" stroke="rgb(204, 204, 204)" stroke-width="1px"></line><line x1="144.52300024032593" y1="0" x2="144.52300024032593" y2="5" style="visibility: inherit;" fill="rgb(0, 0, 0)" stroke="rgb(204, 204, 204)" stroke-width="1px"></line><line x1="168.61016694704693" y1="0" x2="168.61016694704693" y2="5" style="visibility: inherit;" fill="rgb(0, 0, 0)" stroke="rgb(204, 204, 204)" stroke-width="1px"></line><line x1="192.69733365376788" y1="0" x2="192.69733365376788" y2="5" style="visibility: inherit;" fill="rgb(0, 0, 0)" stroke="rgb(204, 204, 204)" stroke-width="1px"></line><line x1="216.7845003604889" y1="0" x2="216.7845003604889" y2="5" style="visibility: inherit;" fill="rgb(0, 0, 0)" stroke="rgb(204, 204, 204)" stroke-width="1px"></line><line x1="240.8716670672099" y1="0" x2="240.8716670672099" y2="5" style="visibility: inherit;" fill="rgb(0, 0, 0)" stroke="rgb(204, 204, 204)" stroke-width="1px"></line><line x1="264.95883377393085" y1="0" x2="264.95883377393085" y2="5" style="visibility: inherit;" fill="rgb(0, 0, 0)" stroke="rgb(204, 204, 204)" stroke-width="1px"></line><line x1="289.04600048065186" y1="0" x2="289.04600048065186" y2="5" style="visibility: inherit;" fill="rgb(0, 0, 0)" stroke="rgb(204, 204, 204)" stroke-width="1px"></line></g><g transform="translate(0, 8)"><text style="text-anchor: middle; visibility: hidden; font-family: &quot;Helvetica Neue&quot;, sans-serif; font-size: 12px; font-weight: 200;" x="0" y="0" dx="0em" dy="0.95em" fill="rgb(50, 49, 63)" stroke="none" stroke-width="1px">-1k</text><text style="text-anchor: middle; visibility: inherit; font-family: &quot;Helvetica Neue&quot;, sans-serif; font-size: 12px; font-weight: 200;" x="24.087166706720986" y="0" dx="0em" dy="0.95em" fill="rgb(50, 49, 63)" stroke="none" stroke-width="1px">0</text><text style="text-anchor: middle; visibility: hidden; font-family: &quot;Helvetica Neue&quot;, sans-serif; font-size: 12px; font-weight: 200;" x="48.17433341344197" y="0" dx="0em" dy="0.95em" fill="rgb(50, 49, 63)" stroke="none" stroke-width="1px">1k</text><text style="text-anchor: middle; visibility: inherit; font-family: &quot;Helvetica Neue&quot;, sans-serif; font-size: 12px; font-weight: 200;" x="72.26150012016296" y="0" dx="0em" dy="0.95em" fill="rgb(50, 49, 63)" stroke="none" stroke-width="1px">2k</text><text style="text-anchor: middle; visibility: hidden; font-family: &quot;Helvetica Neue&quot;, sans-serif; font-size: 12px; font-weight: 200;" x="96.34866682688394" y="0" dx="0em" dy="0.95em" fill="rgb(50, 49, 63)" stroke="none" stroke-width="1px">3k</text><text style="text-anchor: middle; visibility: inherit; font-family: &quot;Helvetica Neue&quot;, sans-serif; font-size: 12px; font-weight: 200;" x="120.43583353360495" y="0" dx="0em" dy="0.95em" fill="rgb(50, 49, 63)" stroke="none" stroke-width="1px">4k</text><text style="text-anchor: middle; visibility: hidden; font-family: &quot;Helvetica Neue&quot;, sans-serif; font-size: 12px; font-weight: 200;" x="144.52300024032593" y="0" dx="0em" dy="0.95em" fill="rgb(50, 49, 63)" stroke="none" stroke-width="1px">5k</text><text style="text-anchor: middle; visibility: inherit; font-family: &quot;Helvetica Neue&quot;, sans-serif; font-size: 12px; font-weight: 200;" x="168.61016694704693" y="0" dx="0em" dy="0.95em" fill="rgb(50, 49, 63)" stroke="none" stroke-width="1px">6k</text><text style="text-anchor: middle; visibility: hidden; font-family: &quot;Helvetica Neue&quot;, sans-serif; font-size: 12px; font-weight: 200;" x="192.69733365376788" y="0" dx="0em" dy="0.95em" fill="rgb(50, 49, 63)" stroke="none" stroke-width="1px">7k</text><text style="text-anchor: middle; visibility: inherit; font-family: &quot;Helvetica Neue&quot;, sans-serif; font-size: 12px; font-weight: 200;" x="216.7845003604889" y="0" dx="0em" dy="0.95em" fill="rgb(50, 49, 63)" stroke="none" stroke-width="1px">8k</text><text style="text-anchor: middle; visibility: hidden; font-family: &quot;Helvetica Neue&quot;, sans-serif; font-size: 12px; font-weight: 200;" x="240.8716670672099" y="0" dx="0em" dy="0.95em" fill="rgb(50, 49, 63)" stroke="none" stroke-width="1px">9k</text><text style="text-anchor: middle; visibility: inherit; font-family: &quot;Helvetica Neue&quot;, sans-serif; font-size: 12px; font-weight: 200;" x="264.95883377393085" y="0" dx="0em" dy="0.95em" fill="rgb(50, 49, 63)" stroke="none" stroke-width="1px">10k</text><text style="text-anchor: middle; visibility: hidden; font-family: &quot;Helvetica Neue&quot;, sans-serif; font-size: 12px; font-weight: 200;" x="289.04600048065186" y="0" dx="0em" dy="0.95em" fill="rgb(50, 49, 63)" stroke="none" stroke-width="1px">11k</text></g><line x1="0" y1="0" x2="289.04600048065186" y2="0" fill="rgb(0, 0, 0)" stroke="rgb(204, 204, 204)" stroke-width="1px"></line></g></g></g></g></svg>