<svg viewBox="0 0 330 200" xmlns="http://www.w3.org/2000/svg"><g><g><g><g><g><line x1="40.953999519348145" y1="178.0640001296997" x2="35.953999519348145" y2="178.0640001296997" style="visibility: inherit;" fill="rgb(0, 0, 0)" stroke="rgb(204, 204, 204)" stroke-width="1px"></line><line x1="40.953999519348145" y1="155.80600011348724" x2="35.953999519348145" y2="155.80600011348724" style="visibility: inherit;" fill="rgb(0, 0, 0)" stroke="rgb(204, 204, 204)" stroke-width="1px"></line><line x1="40.953999519348145" y1="133.54800009727478" x2="35.953999519348145" y2="133.54800009727478" style="visibility: inherit;" fill="rgb(0, 0, 0)" stroke="rgb(204, 204, 204)" stroke-width="1px"></line><line x1="40.953999519348145" y1="111.29000008106232" x2="35.953999519348145" y2="111.29000008106232" style="visibility: inherit;" fill="rgb(0, 0, 0)" stroke="rgb(204, 204, 204)" stroke-width="1px"></line><line x1="40.953999519348145" y1="89.03200006484985" x2="35.953999519348145" y2="89.03200006484985" style="visibility: inherit;" fill="rgb(0, 0, 0)" stroke="rgb(204, 204, 204)" stroke-width="1px"></line><line x1="40.953999519348145" y1="66.77400004863739" x2="35.953999519348145" y2="66.77400004863739" style="visibility: inherit;" fill="rgb(0, 0, 0)" stroke="rgb(204, 204, 204)" stroke-width="1px"></line><line x1="40.953999519348145" y1="44.51600003242493" x2="35.953999519348145" y2="44.51600003242493" style="visibility: inherit;" fill="rgb(0, 0, 0)" stroke="rgb(204, 204, 204)" stroke-width="1px"></line><line x1="40.953999519348145" y1="22.258000016212463" x2="35.953999519348145" y2="22.258000016212463" style="visibility: inherit;" fill="rgb(0, 0, 0)" stroke="rgb(204, 204, 204)" stroke-width="1px"></line><line x1="40.953999519348145" y1="0" x2="35.953999519348145" y2="0" style="visibility: inherit;" fill="rgb(0, 0, 0)" stroke="rgb(204, 204, 204)" stroke-width="1px"></line></g><g transform="translate(30.953999519348145, 0)"><text style="text-anchor: end; visibility: hidden; font-family: &quot;Helvetica Neue&quot;, sans-serif; font-size: 12px; font-weight: 200;" x="0" y="178.0640001296997" dx="0em" dy="0.3em" fill="rgb(50, 49, 63)" stroke="none" stroke-width="1px">50</text><text style="text-anchor: end; visibility: inherit; font-family: &quot;Helvetica Neue&quot;, sans-serif; font-size: 12px; font-weight: 200;" x="0" y="155.80600011348724" dx="0em" dy="0.3em" fill="rgb(50, 49, 63)" stroke="none" stroke-width="1px">60</text><text style="text-anchor: end; visibility: hidden; font-family: &quot;Helvetica Neue&quot;, sans-serif; font-size: 12px; font-weight: 200;" x="0" y="133.54800009727478" dx="0em" dy="0.3em" fill="rgb(50, 49, 63)" stroke="none" stroke-width="1px">70</text><text style="text-anchor: end; visibility: inherit; font-family: &quot;Helvetica Neue&quot;, sans-serif; font-size: 12px; font-weight: 200;" x="0" y="111.29000008106232" dx="0em" dy="0.3em" fill="rgb(50, 49, 63)" stroke="none" stroke-width="1px">80</text><text style="text-anchor: end; visibility: hidden; font-family: &quot;Helvetica Neue&quot;, sans-serif; font-size: 12px; font-weight: 200;" x="0" y="89.03200006484985" dx="0em" dy="0.3em" fill="rgb(50, 49, 63)" stroke="none" stroke-width="1px">90</text><text style="text-anchor: end; visibility: inherit; font-family: &quot;Helvetica Neue&quot;, sans-serif; font-size: 12px; font-weight: 200;" x="0" y="66.77400004863739" dx="0em" dy="0.3em" fill="rgb(50, 49, 63)" stroke="none" stroke-width="1px">100</text><text style="text-anchor: end; visibility: hidden; font-family: &quot;Helvetica Neue&quot;, sans-serif; font-size: 12px; font-weight: 200;" x="0" y="44.51600003242493" dx="0em" dy="0.3em" fill="rgb(50, 49, 63)" stroke="none" stroke-width="1px">110</text><text style="text-anchor: end; visibility: inherit; font-family: &quot;Helvetica Neue&quot;, sans-serif; font-size: 12px; font-weight: 200;" x="0" y="22.258000016212463" dx="0em" dy="0.3em" fill="rgb(50, 49, 63)" stroke="none" stroke-width="1px">120</text><text style="text-anchor: end; visibility: hidden; font-family: &quot;Helvetica Neue&quot;, sans-serif; font-size: 12px; font-weight: 200;" x="0" y="0" dx="0em" dy="0.3em" fill="rgb(50, 49, 63)" stroke="none" stroke-width="1px">130</text></g><line x1="40.953999519348145" y1="0" x2="40.953999519348145" y2="178.0640001296997" fill="rgb(0, 0, 0)" stroke="rgb(204, 204, 204)" stroke-width="1px"></line></g></g><g transform="translate(40, 0)" clip-path="url(#clip_0)"><clipPath id="clip_0"><rect width="289" height="178"></rect></clipPath><g><g><g><line x1="0" y1="0" x2="0" y2="178.0640001296997" fill="rgb(0, 0, 0)" stroke="rgb(60, 60, 60)" stroke-width="1px" opacity="0.25"></line><line x1="24.087166706720986" y1="0" x2="24.087166706720986" y2="178.0640001296997" fill="rgb(0, 0, 0)" stroke="rgb(60, 60, 60)" stroke-width="1px" opacity="0.25"></line><line x1="48.17433341344197" y1="0" x2="48.17433341344197" y2="178.0640001296997" fill="rgb(0, 0, 0)" stroke="rgb(60, 60, 60)" stroke-width="1px" opacity="0.25"></line><line x1="72.26150012016296" y1="0" x2="72.26150012016296" y2="178.0640001296997" fill="rgb(0, 0, 0)" stroke="rgb(60, 60, 60)" stroke-width="1px" opacity="0.25"></line><line x1="96.34866682688394" y1="0" x2="96.34866682688394" y2="178.0640001296997" fill="rgb(0, 0, 0)" stroke="rgb(60, 60, 60)" stroke-width="1px" opacity="0.25"></line><line x1="120.43583353360495" y1="0" x2="120.43583353360495" y2="178.0640001296997" fill="rgb(0, 0, 0)" stroke="rgb(60, 60, 60)" stroke-width="1px" opacity="0.25"></line><line x1="144.52300024032593" y1="0" x2="144.52300024032593" y2="178.0640001296997" fill="rgb(0, 0, 0)" stroke="rgb(60, 60, 60)" stroke-width="1px" opacity="0.25"></line><line x1="168.61016694704693" y1="0" x2="168.61016694704693" y2="178.0640001296997" fill="rgb(0, 0, 0)" stroke="rgb(60, 60, 60)" stroke-width="1px" opacity="0.25"></line><line x1="192.69733365376788" y1="0" x2="192.69733365376788" y2="178.0640001296997" fill="rgb(0, 0, 0)" stroke="rgb(60, 60, 60)" stroke-width="1px" opacity="0.25"></line><line x1="216.7845003604889" y1="0" x2="216.7845003604889" y2="178.0640001296997" fill="rgb(0, 0, 0)" stroke="rgb(60, 60, 60)" stroke-width="1px" opacity="0.25"></line><line x1="240.8716670672099" y1="0" x2="240.8716670672099" y2="178.0640001296997" fill="rgb(0, 0, 0)" stroke="rgb(60, 60, 60)" stroke-width="1px" opacity="0.25"></line><line x1="264.95883377393085" y1="0" x2="264.95883377393085" y2="178.0640001296997" fill="rgb(0, 0, 0)" stroke="rgb(60, 60, 60)" stroke-width="1px" opacity="0.25"></line><line x1="289.04600048065186" y1="0" x2="289.04600048065186" y2="178.0640001296997" fill="rgb(0, 0, 0)" stroke="rgb(60, 60, 60)" stroke-width="1px" opacity="0.25"></line></g><g><line x1="0" y1="178.0640001296997" x2="289.04600048065186" y2="178.0640001296997" fill="rgb(0, 0, 0)" stroke="rgb(60, 60, 60)" stroke-width="1px" opacity="0.25"></line><line x1="0" y1="155.80600011348724" x2="289.04600048065186" y2="155.80600011348724" fill="rgb(0, 0, 0)" stroke="rgb(60, 60, 60)" stroke-width="1px" opacity="0.25"></line><line x1="0" y1="133.54800009727478" x2="289.04600048065186" y2="133.54800009727478" fill="rgb(0, 0, 0)" stroke="rgb(60, 60, 60)" stroke-width="1px" opacity="0.25"></line><line x1="0" y1="111.29000008106232" x2="289.04600048065186" y2="111.29000008106232" fill="rgb(0, 0, 0)" stroke="rgb(60, 60, 60)" stroke-width="1px" opacity="0.25"></line><line x1="0" y1="89.03200006484985" x2="289.04600048065186" y2="89.03200006484985" fill="rgb(0, 0, 0)" stroke="rgb(60, 60, 60)" stroke-width="1px" opacity="0.25"></line><line x1="0" y1="66.77400004863739" x2="289.04600048065186" y2="66.77400004863739" fill="rgb(0, 0, 0)" stroke="rgb(60, 60, 60)" stroke-width="1px" opacity="0.25"></line><line x1="0" y1="44.51600003242493" x2="289.04600048065186" y2="44.51600003242493" fill="rgb(0, 0, 0)" stroke="rgb(60, 60, 60)" stroke-width="1px" opacity="0.25"></line><line x1="0" y1="22.258000016212463" x2="289.04600048065186" y2="22.258000016212463" fill="rgb(0, 0, 0)" stroke="rgb(60, 60, 60)" stroke-width="1px" opacity="0.25"></line><line x1="0" y1="0" x2="289.04600048065186" y2="0" fill="rgb(0, 0, 0)" stroke="rgb(60, 60, 60)" stroke-width="1px" opacity="0.25"></line></g></g></g><g><g><line x1="0" y1="289.354000210762" x2="289.04600048065186" y2="289.354000210762" fill="rgb(0, 0, 0)" stroke="rgb(153, 153, 153)" stroke-width="1.5px"></line></g></g><g><g><line x1="24.087166706720986" y1="0" x2="24.087166706720986" y2="178.0640001296997" fill="rgb(0, 0, 0)" stroke="rgb(153, 153, 153)" stroke-width="1.5px"></line></g></g><g><g><g><g><g><path style="fill: none;" stroke="rgb(255, 112, 67)" stroke-width="2px" d="M30.22939421693484,219.10728790036202L30.349830050468444,86.5890985629449L30.518440217415492,107.28434275648134L30.66296321765582,65.28117552853944L31.506014052391052,-84.85829897450287L42.20071607017517,-13.552515196560648L42.29706473700206,16.539719181894526L42.51384923736255,54.41681820414277L42.61019790418943,77.86898946616488L42.658372237602876,56.76020135729908L42.70654657101631,58.44782672692148L42.87515673796336,47.77301604845832L42.995592571496964,42.193688969374364L43.043766904910406,35.30867513206704L43.16420273844401,36.106053190694325L43.21237707185745,31.47917353899777L43.30872573868434,37.51267086181849L43.40507440551122,38.80101823940828L43.54959740575155,52.02674188743485L43.57368457245827,45.4810470904832L44.127689406712854,50.058077279053606L44.22403807353973,60.41805565775144L45.018914574861526,75.19268792741018L45.18752474180857,81.35033667871305L45.3320477420489,91.25045742083124L45.669268075942995,96.80116430307439L45.76561674276987,102.87173788387908L45.93422690971693,108.04707733010935L45.98240124313036,111.68298024200848L46.17509857678414,109.91000464007614L46.51231891067823,112.00413416463978L46.53640607738495,118.49326607874602L46.77727774445216,118.44066429049758L46.84953924457232,125.15529190837545L47.06632374493281,127.35261981077596L47.25902107858658,126.78458176629633L47.47580557894707,130.0087205327814L47.49989274565379,130.33537439269762L47.644415745894115,132.20049934658186L47.66850291260083,135.81127753972146L47.78893874613444,136.59315393823928L48.22250774685542,129.8669777915182L48.294769246975584,126.87005122533591L48.51155374733607,132.91845841817295L49.2341687485377,134.13643449786605L49.54730191572507,135.14495607850142L49.6918249159654,134.82518826449018L49.76408641608556,134.8573000597671L49.812260749499,139.53902990094946L49.90860941632589,141.67008456053614L50.053132416566214,141.0834075642801L50.17356825009982,139.21431434393702L50.41443991716703,143.02038211221975L50.55896291740736,142.32780321291608L50.67939875094096,141.6486825168186L50.920270418008165,140.1237182990298L51.93193141969045,135.72064326557168L52.028280086517334,130.70352023229208L52.052367253224055,131.98702708805922L52.076454419930776,131.2935155461566L52.510023420651756,131.4927776558871L52.82315658783912,128.21292263775513L53.136289755026496,115.16732773098974L53.762556089401244,103.30545695769783L54.0516020898819,108.76951141450778L54.31656092365583,109.46227200419084L54.38882242377599,115.63139856482815L54.461083923896155,110.83357622719748L54.94282725803057,108.77347294240286L55.087350258270895,91.27336646260925L55.25596042521795,98.67350842883579L55.400483425458276,91.47539294335633L55.785878092765806,103.09594289280471L55.85813959288597,91.08800244825811L56.1230984266599,96.20227498493679L56.195359926780064,97.68380805595893L56.26762142690023,99.67140418965568L56.29170859360695,105.22342701220926L57.44789259552956,92.77797222195981L57.52015409564972,81.80075104264121L57.592415595769886,76.89606294687069L57.61650276247661,81.36439381367865L58.14642043002446,64.63928687346124L58.435466430505116,48.404614367412734L58.676338097572334,28.830594887382944L58.77268676439921,63.417954573444604L59.37486593206724,76.34843722935982L59.39895309877395,66.17972415177005L59.66391193254789,73.16589193059362L59.85660926620166,84.96393534146523L59.952957933028536,92.02630291202405L60.001132266441985,99.04548438900272L60.77192160105705,106.44633753288413L60.86827026788394,116.41149043153783L61.47044943555196,114.97143676066295L61.85584410285949,120.28899212550684L61.879931269566214,121.78617028580669L62.24123877016703,123.37380407335783L62.33758743699392,126.13613744168916L62.72298210430145,125.98104694806209L62.74706927100817,121.89229854619222L63.276986938556036,124.47548579474952L63.39742277208964,119.17529621933875L63.517858605623246,118.44722368864684L63.59012010574341,117.74781891149554L63.710555939277015,114.1605681156514L63.78281743939718,112.44208154043848L64.07186343987783,112.2669186492789L64.2645607735316,116.22699655169946L64.43317094047865,125.52384262497506L64.6017811074257,136.7993441454658L64.81856560778618,125.28617614948794L64.91491427461307,119.54863397763162L64.96308860802651,117.98659993321178L65.01126294143994,111.69350749704347L65.0835244415601,113.50134793418499L65.25213460850716,107.99077475636328L65.46891910886765,104.08465763023919L65.70979077593485,104.91752076386096L65.80613944276173,107.03048174823638L65.85431377617518,100.34969069391188L65.92657527629534,102.24089703790446L66.04701110982896,98.31016655655276L66.11927260994912,97.38048428684885L66.14335977665583,98.43999359075532L66.62510311079025,98.66104475080012L66.84188761115074,97.83328295833448L66.98641061139107,97.2231894203701L67.15502077833811,89.04233237454089L67.17910794504483,84.75575562857549L67.39589244540532,97.77004065985395L67.56450261235237,92.40846177644988L68.07033311319351,92.05943954432162L68.1666817800204,83.63876824191034L68.40755344708761,90.87154114018836L68.50390211391449,92.39122876259914L68.72068661427498,86.3223855906046L69.03381978146236,76.94808238464799L69.10608128158252,77.04463787979205L69.25060428182285,91.59337962127125L69.29877861523627,92.00627155646357L70.1177422832648,105.02992076069827L70.26226528350513,134.5435410070525L70.67174711751937,141.75554596277152L70.91261878458658,159.04689958102185L70.98488028470675,134.5914263317046L71.03305461812019,140.9869818487545L71.46662361884117,107.61836454716727L71.80384395273526,105.48011963944573L71.8520182861487,108.98649410394093L72.28558728686968,90.79125779190032L72.38193595369657,75.68335193912343L72.57463328735034,70.52589681104065L72.9841151213646,63.729550444141026L73.12863812160492,59.50797719115732L73.70673012256623,59.92468013848823L74.0198632897536,64.26134216804213L74.09212478987376,49.72469295849598L74.11621195658049,48.148725087143276L74.16438628999393,43.3132178728508L74.21256062340736,44.05808749346437L74.30890929023424,42.7044125982612L74.40525795706114,56.22909573188487L74.57386812400819,52.72581784297648L74.93517562460899,53.590567818945686L75.7541392926375,57.418936786429995L75.8504879594644,65.10974648383763L76.01909812641144,61.43079064096794L76.23588262677193,56.03904506261418L76.52492862725258,60.03369744071655L76.76580029431979,60.15002200068254L76.81397462773323,65.43165840183535L76.86214896114667,64.40919691672012L76.98258479468026,60.28880801381925L77.05484629480044,59.821377349930586L77.24754362845421,56.44572016516321L77.3438922952811,56.595847011893255L77.82563562941552,64.93873143282731L77.94607146294912,58.33212765065993L77.97015862965584,60.294120144587L78.01833296306928,56.84253739294283L78.09059446318945,57.59111554674442L78.18694313001633,65.69282205031229L78.21103029672305,67.7736744868049L78.3796404636701,96.14332258588682L78.45190196379025,85.61721596811708L78.57233779732385,88.69860137929994L79.02999396475155,76.86012792915034L79.27086563181876,79.02777800399689L79.41538863205909,73.55583085280963L79.55991163229942,75.75798119829489L79.65626029912632,70.39547276912586L79.94530629960697,69.39624830222947L79.96939346631368,69.16947127189927L80.5715726339817,74.43281764552464L80.7883571343422,82.34453326368975L81.63140796907743,91.48197487411485L81.65549513578414,90.12589892535466L81.70366946919759,89.69932981206894L82.76350480429332,100.17250104783531L82.95620213794707,107.35331261441134L83.12481230489414,108.81416396024176L83.17298663830758,109.71729497710997L83.221160971721,113.06663772990082L83.34159680525461,110.53851997067734L83.94377597292264,110.91896585033872L83.96786313962936,108.46245043001296L84.20873480669657,111.80522998259549L84.25690914011001,115.07418593528003L84.37734497364362,110.59795874963818L84.71456530753771,111.22653020494941L84.85908830777804,115.23857130710212L85.07587280813853,117.68901050577875L85.43718030873934,118.58320698843228L85.53352897556623,119.45633908969538L85.58170330897967,122.476886963722L86.1838824766477,122.4252712092412L86.47292847712835,122.1077761960413L86.71380014419556,125.12096262978595L86.85832314443589,130.4369955851173L87.26780497845014,132.98281248919486L87.41232797869047,134.0851400532067L87.43641514539718,134.3036860761545L87.77363547929127,134.26632318381903L87.9181584795316,133.6803096301361L88.0385943130652,132.83380606177485L88.59259914731979,131.66014056761205L88.76120931426684,133.69120684134404L88.88164514780044,135.32071075566276L89.19477831498781,132.91566986692675L89.36338848193486,133.23786612720724L89.72469598253568,128.55320542584298L90.01374198301633,103.45498343459133L90.0860034831365,99.73116497954197L90.42322381703059,114.26406686367167L91.26627465176581,125.34901937038401L91.29036181847255,131.32141667286734L91.31444898517927,136.45774588495624L91.74801798590025,138.60319673672285L92.10932548650105,139.33432291449196L93.26550948842366,138.98743413693867L93.48229398878416,141.22171017455392L93.69907848914464,142.1393276071177L93.84360148938497,140.57733754204594L94.34943199022612,141.41188519496723L94.39760632363955,140.53552230256264L94.42169349034627,140.28549781561176L95.55379032556216,142.16034435660558L95.74648765921593,142.51802782385593L96.30049249347051,143.86455719213998L96.51727699383099,143.1487650030406L96.61362566065787,140.9472966713225L96.70997432748477,140.54389929051365L96.99902032796543,140.01341299499694L97.07128182808557,139.84721438124987L97.26397916173936,141.01900248321488L97.3362406618595,140.92267432879694L97.91433266282081,136.29221967036435L98.01068132964771,131.97759603190056L98.05885566306114,133.24807973981694L98.73329633084933,52.64932387869301L99.28730116510393,83.25423116599518L99.64860866570473,101.69894488780128L99.8413059993585,106.62337207759252L99.9617418328921,113.76460821385265L100.08217766642571,125.3329285441025L100.22670066666603,129.88597452530308L100.61209533397357,135.86069925017458L101.04566433469455,138.9695764248387L101.06975150140127,138.56044731599317L101.23836166834832,143.15409801796793L101.31062316846847,138.29907200325L101.88871516942977,137.76291708401672L101.96097666954995,134.11685652141273L102.12958683649698,136.47667060159137L102.20184833661716,138.8943524506968L102.22593550332388,132.25123599884478L102.27410983673731,135.22443498228978L102.29819700344403,137.41160401498448L102.90037617111206,137.65763665025528L103.11716067147255,136.08559342315837L103.69525267243385,132.23301430607012L103.88795000608762,129.83163466717266L104.2251703399817,126.88737299235825L104.24925750668844,127.08076031812081L104.65873934070268,132.6120184841243L105.35726717519759,130.88181832755853L105.40544150861103,128.09138338493065L105.64631317567824,134.2205593183484L106.05579500969252,135.69567218514445L106.17623084322612,125.79761921865682L106.70614851077397,127.11285222920428L106.89884584442775,127.46801265899596L107.16380467820169,120.75397887947665L107.21197901161511,129.3113477096776L107.38058917856216,126.23968700780233L107.52511217880249,114.9902130725014L107.69372234574953,120.67031210660502L107.83824534598986,120.52614606366437L107.91050684611002,126.01956564972801L108.3199886801243,112.21265251525136L108.60903468060492,103.83848227304959L108.6812961807251,94.35998912839055L108.84990634767215,95.65828343100938L109.23530101497968,90.87033504941935L109.28347534839313,98.38539799458447L109.42799834863345,92.55694376501805L109.52434701546034,93.6610918867576L109.90974168276786,89.80503286588507L110.31922351678212,91.31974900278097L110.80096685091655,91.53311128084746L111.23453585163753,89.47054829025683L111.28271018505097,86.26750302376767L111.3308845184644,83.11386456292811L111.40314601858458,82.06208265097692L111.47540751870473,80.841626173665L111.88488935271899,78.89376172120689L112.14984818649292,76.59026407612714L112.48706852038701,78.82479840980443L113.20968352158864,77.08611981709393L113.25785785500207,77.38731134958071L113.83594985596338,75.29547957674366L113.93229852279028,76.64596850810337L113.9804728562037,75.97652057311674L114.12499585644403,76.22865339219085L114.19725735656421,77.84437743650861L114.24543168997765,82.54326311947788L114.46221619033814,82.84849609786279L114.63082635728519,84.61503229351776L114.94395952447256,80.49229336626658L115.13665685812632,81.0879689806574L115.44979002531369,94.5981623593605L115.49796435872715,93.26587564044974L115.5702258588473,86.82354904566684L115.95562052615483,85.43330952980898L116.07605635968845,93.24597225115305L116.12423069310188,94.81815631235432L116.3651023601691,95.8774028892962L116.46145102699597,94.41275964008396L117.15997886149088,92.19442492066L117.28041469502449,104.36053591463265L117.44902486197154,102.27763495779539L118.50886019706725,102.60891338142663L118.70155753072103,101.06614544715426L118.87016769766808,102.39480003369182L118.96651636449496,103.44090770583963L119.23147519826888,103.57481123760165L119.37599819850921,104.96668943366399L119.52052119874953,106.4375224381902L120.0504388662974,109.1709113377131L120.31539770007134,113.0264538861939L120.43583353360495,113.58297465631233L120.65261803396542,118.9263771537705L120.67670520067215,116.69924003317566L120.9657512011528,117.8772395924841L121.23071003492673,111.3928264889689L121.30297153504691,112.4028307916842L121.5438432021141,115.40975346112177L122.67594003733,123.50637707408154L122.7963758708636,126.07163731257509L122.82046303757032,127.98256617811002L123.06133470463753,126.56319750862349L124.81969787422817,130.5827214063048L125.0846567080021,135.50875833219425L125.10874387470882,136.85986587779456L125.15691820812225,137.11171657906414L125.20509254153569,136.96696161081638L125.27735404165585,138.29155709769273L125.30144120836258,140.217629136126L125.9036203760306,141.74408053206344L126.02405620956421,140.93569676204675L126.09631770968439,139.4922642440896L126.28901504333814,139.57710795605385L126.55397387711207,139.13431424512865L126.77075837747256,142.88084494105163L126.84301987759272,142.84265183899595L126.86710704429944,145.10065115642587L127.22841454490026,144.76572973063838L127.6138092122078,144.2290864574409L127.75833221244812,143.98148628398187L127.85468087927501,144.0883416207663L128.0714653796355,142.5297088676755L128.11963971304894,145.34968707652746L128.33642421340943,145.43164040233822L128.4327728802363,144.0695269524608L128.69773171401025,142.9553134697204L129.323998048385,144.27945646978444L129.54078254874548,143.0229498946717L129.9020900493463,144.97789508854007L130.07070021629335,144.9508470764235L130.21522321653367,143.11879937928114L130.31157188336053,143.31786805564255L130.33565905006728,141.35695925811305L130.79331521749498,142.9576646261495L130.8655767176151,143.01684534143214L131.73271471905707,138.7295347189911L131.8772377192974,137.23997070227222L132.23854521989824,131.7425934662558L132.28671955331166,134.79726790625105L132.6962013873259,135.63002486810376L132.72028855403263,136.85442256625106L133.17794472146034,137.99290178418852L133.20203188816706,142.17178183641815L133.27429338828722,143.0686109749813L133.4910778886477,141.21839544063252L133.75603672242164,141.5010688938649L134.35821589008967,142.89308330482947L134.43047739020983,143.01500755086425L134.69543622398376,144.03503730791508L134.76769772410393,145.38956133883383L134.81587205751737,145.9134271268036L134.8640463909308,146.0400058578716L135.15309239141146,142.6199771747765L135.56257422542572,141.20102372941864L136.06840472626686,141.2955962850853L136.2370148932139,139.84481678027788L136.42971222686768,142.7344349712455L136.52606089369456,143.62969306478072L136.6946710606416,144.78780726766766L136.71875822734833,144.9539735703868L136.74284539405505,145.359381222114L136.98371706112226,145.28427011711761L137.609983395497,146.55211842944135L137.73041922903062,143.7947619516266L138.11581389633815,144.19981081546126L138.38077273011208,141.9542547175207L138.47712139693897,142.50149338252405L138.5012085636457,141.24993157060965L138.69390589729946,142.34510158807717L138.83842889753979,142.6509852914171L138.91069039765992,145.19673135193366L139.12747489802044,143.1363942505229L139.22382356484732,142.5576411973086L139.39243373179437,141.7402122098862L139.4165208985011,143.22723764785263L139.56104389874142,146.89160910527866L139.70556689898174,146.5949626425896L139.75374123239516,148.21057505192712L139.82600273251535,148.96149579601556L140.6690535672506,146.68667609784433L140.95809956773124,143.115995284415L141.41575573515894,142.37360331410076L141.46393006857235,144.268260463939L141.9697605694135,144.4623637875791L142.45150390354792,143.259946901408L143.02959590450922,141.7653627481461L143.10185740462938,143.74225672544515L143.41499057181676,140.94696347147342L143.60768790547053,141.890230935916L143.82447240583102,137.63318548943775L143.89673390595118,135.6468809276529L143.94490823936462,135.13922194840453L143.96899540607134,135.81107676176205L145.02883074116707,124.62099676901776L145.1733537414074,120.9918228039385L145.24561524152753,115.6044808853215L145.4142254084746,114.6285375436562L145.72735857566198,119.030596186455L145.77553290907542,114.67519263290714L145.79962007578212,104.80605850025405L145.9682302427292,98.15032485606488L146.40179924345014,94.55266244938066L146.95580407770473,88.12517242535641L147.07623991123836,88.40950326259083L147.55798324537275,84.33132887365315L147.60615757878622,72.67236459612937L147.75068057902655,69.96809721255029L148.37694691340127,67.01967510663239L148.4973827469349,68.57559399577211L148.90686458094913,58.23684857788123L149.34043358167014,62.0193044380579L149.53313091532388,60.501854487660424L150.08713574957847,63.12843530674145L150.18348441640535,63.39866898156518L150.27983308323226,62.54077085502793L150.30392024993898,61.967269174497375L150.9301865843137,62.31623778155202L151.4841914185683,67.34832599641676L152.1827192530632,77.60744717645866L152.44767808683713,73.72061401657338L152.8330727541447,75.4332711945112L153.17029308803876,80.57030852916955L153.19438025474548,80.2588312247338L153.6761235888799,79.19789991711932L154.25421558984118,86.97887005713888L154.63961025714875,94.35255855608486L155.09726642457645,100.3835074464177L155.1695279246966,103.58418907950734L155.28996375823021,105.7521544590776L156.1811889263789,112.27868660200303L156.34979909332594,118.57647272543079L156.44614776015283,121.14568076091112L156.59067076039312,125.08924644942749L156.73519376063348,123.62854227088269L156.85562959416706,123.98174384668266L156.92789109428725,123.89675334236142L156.9760654277007,126.51994552792263L157.554157428662,134.6396881328456L157.74685476231573,138.6099175971202L158.15633659633002,151.55339748918823L158.2767724298636,148.39920171469262L158.32494676327704,146.02925259498443L158.6139927637577,144.62914171814614L158.66216709717116,141.42031128467812L158.80669009741146,141.00589160846152L159.09573609789211,143.00566596342688L159.21617193142572,143.68893956772902L159.45704359849293,141.3512484530404L159.69791526556014,142.27535148184484L160.37235593334833,141.2604504073594L160.4205302667618,142.28802432318633L160.51687893358866,142.72563114386563L160.87818643418947,145.22502302812464L161.86576026916507,146.75432824659228L161.9380217692852,144.54502849667213L162.37159077000618,143.30638037407832L162.80515977072716,145.08292099942764L163.21464160474142,144.23100159455382L163.28690310486155,144.65122444205397L163.40733893839518,145.55942845986985L163.5277747719288,144.75770383100428L163.96134377264977,143.87951916814177L163.9854309393565,141.6402000616818L164.39491277337075,143.0698108532438L164.46717427349088,145.49509942465966L164.63578444043796,146.40267672452L165.2861379415194,144.51585517572428L165.33431227493284,144.45093444693123L165.50292244187992,145.65288520910659L165.93649144260087,146.02516382564255L166.15327594296136,144.3142083617089L166.37006044332188,147.14114303628983L166.6109321103891,142.76082160913435L166.87589094416302,144.27784841833596L166.97223961098987,145.6557521705184L166.9963267776966,144.26897884190745L167.45398294512432,146.77311516943655L167.5744187786579,146.00114834491256L167.62259311207134,142.4316635586045L167.71894177889826,142.68164804256566L167.93572627925872,141.72259013777418L168.36929527997972,142.78080347714393L168.85103861411412,144.83322536485488L168.97147444764772,141.98375760766814L169.18825894800824,144.0663461980617L169.33278194824854,143.6143524150233L169.35686911495526,142.50157986040756L169.45321778178217,142.4354284533204L169.5254792819023,142.99266472803316L170.0553969494502,144.39521796153443L170.48896595017115,143.47700394576353L170.58531461699803,145.45606186504816L170.70575045053164,145.6483463809087L171.09114511783918,143.51770909623534L171.13931945125262,144.22842490620144L171.38019111831983,144.7895177376161L171.52471411856015,146.02056560233856L171.5728884519736,146.44180657100185L171.71741145221392,145.43277088882962L171.76558578562734,145.35653397331993L171.8137601190408,145.60155596851303L172.10280611952146,145.19259464740165L172.1509804529349,144.2851496773727L172.19915478634834,145.87494898139474L172.75315962060293,147.36973369329132L172.96994412096342,145.2443379075101L173.04220562108358,143.2345416043296L173.42760028839112,145.16319857018783L173.69255912216505,143.7066808019982L173.74073345557846,143.3862993223958L173.88525645581882,140.0911620443127L174.1983896230062,138.28229847946528L174.31882545653977,137.88270715257974L174.48743562348685,136.46821929467964L174.63195862372714,137.25403053010476L174.94509179091452,134.63893150495144L175.5713581252893,134.52577814133494L176.12536295954385,133.55485716315673L176.22171162637076,131.3320404991273L176.24579879307748,132.73511723610153L176.4144089600245,131.4875247727358L176.8238907940388,125.05615573955168L177.08884962781272,123.47186445191318L177.35380846158665,118.83306272779109L177.52241862853367,117.89952963289761L177.66694162877403,110.55334850820124L178.24503362973533,103.82069500502978L179.56982779860496,93.25819385052414L179.66617646543187,96.5416946455415L179.97930963261922,92.76153781672774L180.34061713322004,89.55433245471734L180.5333144668738,85.13148624374786L180.55740163358053,82.85398001646362L180.6537503004074,85.03917871310006L180.89462196747462,82.64267809927972L181.13549363454183,75.81365890687024L181.15958080124855,77.17590357521091L181.18366796795527,80.72797933084397L181.376365301609,70.43811554238833L181.85810863574346,79.21284750298172L182.43620063670477,79.15242213688464L182.60481080365182,80.57121030817882L182.67707230377198,78.99765316219205L182.9179439708392,81.35665960271393L183.13472847119968,86.27896189365373L183.20698997131984,83.29920872410104L183.44786163838705,88.16373287946105L183.56829747192066,89.28535568801848L184.43543547336262,97.20571703529218L184.6522199737231,101.70192065377265L184.70039430713655,107.57288182192329L184.7967429739634,107.78077716297739L184.94126597420376,105.3356962175447L185.01352747432392,111.61911583464133L185.18213764127097,111.88284654948893L185.3748349749247,108.30292560555748L185.44709647504487,113.28142520564431L185.63979380869864,119.58711207199546L185.73614247552553,116.44998977148211L185.83249114235244,117.09616079914373L186.38649597660702,79.91683843049157L186.48284464343388,77.07943188200262L186.65145481038095,61.51660774322859L186.7478034772078,-8.975546326206029L187.01276231098174,3.499043116509341L187.3018083114624,-9.359314236097077L187.68720297876993,-16.968323292359088L188.28938214643796,41.61162908049815L188.65068964703877,82.69594115672982L188.9879099809329,108.72620107559288L189.18060731458664,124.32531056937732L189.3733046482404,131.27632997422086L189.51782764848073,134.3738666450319L189.54191481518748,137.10860720528564L190.1681811495622,133.9456483036859L190.5054014834563,133.69577192510803L191.10758065112432,129.9683589456973L191.51706248513855,124.98036371952324L191.8061084856192,124.10699442960085L191.8783699857394,118.25996345723894L192.02289298597972,116.59659534696732L192.4564619867007,110.5942672011583L192.50463632011414,105.12611369732294L192.9382053208351,96.75311992749431L193.03455398766198,100.15822340684407L193.54038448850312,95.04344471165238L193.63673315533003,96.0037863011831L193.80534332227705,95.51468022751425L194.11847648946443,93.77371298118439L194.26299948970478,96.02293353300242L194.60021982359888,93.5005805249693L194.88926582407953,92.84269701056749L195.25057332468032,93.17370214293358L195.44327065833411,95.39649398786568L195.46735782504084,96.72067303646841L195.9972754925887,98.04020109406426L196.09362415941555,97.72670036128842L196.43084449330965,97.78201283378752L196.7198904937903,100.15671230324544L196.74397766049702,104.71889245534504L196.91258782744407,105.53742617997281L197.24980816133817,107.7553210778725L197.3943311615785,106.4690109010586L197.56294132852554,104.50561211587961L197.61111566193898,102.40948468492385L197.82790016229947,99.38800029415745L197.8760744957129,100.38071942187302L197.90016166241963,91.80644614572937L198.35781782984733,102.56772558640422L198.4300793299675,108.05657455869782L198.646863830328,114.36453604754129L198.95999699751536,116.63859737944426L199.53808899847667,123.05105864820536L199.9234836657842,125.2675907830299L200.18844249955814,130.28336639717577L200.62201150027911,133.91079557470718L200.8628831673463,137.35800637255687L200.88697033405302,137.18660801443025L201.03149333429337,141.0785019519879L201.20010350124042,141.33693933504352L201.2964521680673,142.18531591394145L201.32053933477403,142.04547171066116L201.34462650148075,141.92673272284725L201.8745441690286,142.9648639702492L201.89863133573533,145.7182119399077L201.9949800025622,144.5014567373745L202.04315433597563,143.9826603475758L202.25993883633612,143.7527510995713L202.356287503163,143.568187919509L203.05481533765794,142.56158724714726L203.07890250436466,143.2643945137494L203.29568700472515,144.6803121080775L203.36794850484532,143.8695875804572L203.53655867179236,144.37902990806742L203.77743033885955,144.19515243928677L203.80151750556627,143.057621430903L203.84969183897974,145.5059084348426L203.9701276725133,144.95586783483242L204.11465067275367,141.8269108409517L204.21099933958055,141.17871241578223L204.25917367299397,140.23677362455996L204.6445683403015,137.02404407104265L204.78909134054186,134.05753212064627L204.81317850724855,133.06612383892227L205.00587584090235,130.5300277814377L205.46353200833002,129.13876773798435L205.8730138423443,126.9823614497192L206.49928017671903,127.1009306941463L207.05328501097364,124.80437477203694L207.36641817816098,124.08936526405401L207.43867967828115,119.32419983625721L208.18538184618947,110.83500441275848L208.20946901289622,104.91900487961777L208.59486368020376,100.97671801406163L208.61895084691048,99.65682252268671L208.8598225139777,103.10612512291878L208.93208401409785,108.00873138910106L208.9802583475113,110.01124501751121L209.24521718128523,109.48643363580476L209.38974018152555,113.54285824795318L209.46200168164572,115.66707902087606L209.5583503484726,117.15810531291251L209.99191934919358,113.21206798158111L210.0160065159003,109.77377519198778L210.11235518272719,108.69312532033891L210.18461668284732,106.89446249734182L210.2327910162608,106.2742069944296L210.57001135015489,108.11990634932702L210.66636001698177,105.32424899225941L210.9313188507557,100.13711684352882L211.00358035087584,102.31913462174542L211.4853236850103,96.1632003741802L211.67802101866403,89.68114742187662L211.91889268573124,85.10015700741248L211.94297985243796,83.8540524784563L212.2079386862119,84.6061420619797L212.76194352046647,84.1827871011295L212.8823793540001,83.68515064177593L213.29186118801434,75.56085892342746L214.3516965231101,86.43354040718442L214.3757836898168,93.06458109927468L214.47213235664367,98.6897527490045L214.56848102347055,101.15028614711177L215.00205002419153,106.54081623155183L215.14657302443186,108.22754847420383L216.18232119282087,103.29716778800082L216.37501852647466,99.24348277880142L216.5677158601284,88.84748190603086L216.59180302683512,85.98959511896113L217.00128486084938,85.3251895928945L217.31441802803676,90.53517102743355L217.41076669486364,103.11678188173865L217.67572552863757,105.70522623067433L217.96477152911822,109.11620548787342L218.0370330292384,104.81391725937017L218.0852073626518,101.51858745407239L218.1815560294787,111.05867511822323L218.37425336313245,107.94824847016648L219.81948336553572,99.91391540042368L219.96400636577607,102.77020627217756L219.9880935324828,93.10709154988253L220.39757536649702,96.3933233139426L220.5661855334441,102.32419869118041L221.12019036769868,100.42753047360817L221.21653903452554,102.53848568068524L221.48149786829947,95.9782417679805L221.55375936841963,93.96894619141447L221.96324120243392,99.28597223096318L222.10776420267422,100.67605987669664L222.4208973698616,96.13391698780863L222.902640703996,86.86552100190715L223.11942520435653,88.05570541967835L223.50481987166404,82.92603821269097L223.55299420507748,79.61387272292252L223.76977870543797,80.6950161540748L223.9865632057985,75.54420533110051L224.17926053945223,75.78467527284762L224.66100387358665,74.84366237382413L224.7091782070001,79.94187076768515L224.78143970712026,77.95145356948892L224.82961404053373,78.74599576422683L224.97413704077402,81.10241760526586L225.26318304125468,74.48755714752268L225.2872702079614,72.37233531453464L225.45588037490845,69.05432233898183L225.5281418750286,72.85342707312627L225.64857770856221,62.88935288748296L225.81718787550926,55.04050413218086L225.8653622089227,57.07742432544178L227.09380771096545,66.66623556553455L227.3587665447394,69.41349001675124L227.43102804485957,76.49537452188329L227.55146387839318,87.58214272383945L227.9368585457007,86.74266267703199L228.0332072125276,89.86210129770474L228.05729437923432,93.92782264004147L228.10546871264776,90.3571607145033L228.34634037971497,83.39467845313045L228.44268904654186,75.0440586269585L228.5390377133687,77.53209502040848L228.75582221372923,76.91093667793672L228.77990938043592,77.0886598417999L228.90034521396956,78.42874885087951L228.99669388079644,77.03040956307268L229.02078104750316,77.47022210093922L229.38208854810395,77.59098948805686L230.12879071601233,77.12424633778134L230.41783671649299,75.26645548430862L230.58644688344,69.55635440271564L230.70688271697364,72.25978885221862L231.0441030508677,65.4747132792245L231.26088755122822,74.92130021334056L231.622195051829,73.44057481184045L231.88715388560297,70.36666045802038L232.05576405255,56.991869027271136L232.0798512192567,55.24436422466343L232.2966357196172,44.52697880004541L233.2119480544726,29.564386660153588L233.2842095545928,20.805899600865388L233.3323838880062,17.313086961913L233.40464538812637,16.065727510263002L233.4287325548331,15.873429002153614L233.52508122165997,25.733896941907773L234.29587055627505,55.13947957772805L234.63309089016914,74.25138982923521L235.28344439125058,92.14573047029462L235.42796739149094,103.45902681091673L235.52431605831782,110.364924195454L235.9578850590388,117.59448460657359L236.0783208925724,123.46984870592784L236.4396283931732,128.12439847190498L236.5118898932934,128.0006904662078L236.58415139341355,128.9387196717055L237.0899818942547,129.76024704809788L237.35494072802862,130.71558347732187L237.668073895216,130.68335387750608L237.69216106192272,125.81374468586108L237.93303272898993,126.42048486619322L238.0052942291101,126.57193409997004L238.10164289593695,125.19373352503035L238.51112472995123,125.08994685429933L238.55929906336468,131.38663085685872L238.63156056348484,132.8757651495494L239.13739106432598,131.47570989097372L239.18556539773942,124.8582014716103L239.306001231273,123.68719283987802L239.57096006504693,112.42522888727824L239.76365739870073,107.18761004563378L239.86000606552759,108.54102160891219L240.26948789954187,112.76245916398659L240.41401089978217,107.42166287293676L240.65488256684938,100.02011070499097L240.70305690026282,105.77594905398472L240.84757990050318,112.03955852844048L240.96801573403675,119.49771595225918L241.08845156757036,118.77465282097715L241.16071306769055,122.16764494865745L241.52202056829134,122.95541498204703L241.54610773499806,123.71551956393564L242.19646123607953,122.64923102350781L242.3891585697333,127.64273300406234L242.6300302368005,116.3893669163909L242.89498907057447,117.65276091037344L243.40081957141558,111.715763705695L243.81030140542984,118.48561650491561L243.83438857213656,122.19466606749174L244.6051779067516,121.54937215487513L244.62926507345836,124.22067378438643L244.77378807369868,122.63288783594113L246.02632074244815,106.36978522911066L246.07449507586162,103.61100774115536L246.24310524280867,103.09923513105103L246.3153667429288,110.75353647313113L246.48397690987588,113.67808504205681L247.13433041095732,122.47721171112627L247.6401609117985,127.85810126855004L247.8810325788657,128.38914988812445L248.2664272461732,131.5168530493419L248.31460157958665,132.73439551382964L248.3627759130001,134.56376709866936L248.48321174653373,132.61053337254629L249.25400108114877,129.14734640973967L249.3744369146824,121.84516210422693L249.63939574845634,110.22589878371367L249.66348291516306,112.4048866269283L249.68757008186975,111.30917202702952L249.7598315819899,107.19249494730984L250.14522624929745,99.90035222745978L250.79557975037895,100.06054844760821L250.86784125049908,100.09940454025129L251.34958458463353,102.04906631430568L251.49410758487383,100.57649344090056L251.51819475158055,100.51588030766686L252.1444610859553,100.88189261722873L252.31307125290235,100.86832354283503L252.48168141984942,105.94409188705815L253.2765579211712,100.4805683683512L253.34881942129132,94.89273165107457L253.80647558871905,92.4916732371244L253.83056275542577,96.61674048345769L254.04734725578626,98.549323592093L254.21595742273328,95.65023909640777L254.28821892285347,93.25467733406563L254.45682908980052,95.77082515014546L254.52909058992068,95.9594613266241L254.98674675734839,101.5345339825346L255.05900825746852,100.27011069711304L255.32396709124245,97.04250193097094L255.5889259250164,104.43071955466466L255.82979759208362,111.35113514351012L255.87797192549704,111.01402441603274L255.90205909220376,111.26369699720948L255.97432059232392,110.74809040810176L256.5524125932852,113.75908643020017L256.67284842681886,115.93353743423009L256.69693559352555,115.6198365175249L256.79328426035244,117.65778956226295L257.25094042778017,115.96434767970626L257.27502759448686,119.62126705552912L257.4918120948474,119.03399737650665L257.68450942850114,117.7443243440452L257.9735554289818,114.66424176800564L258.86478059713045,117.18076540183054L258.93704209725064,117.90400790369605L259.1538265976111,120.96408902257295L259.1779137643178,122.23749283997361L259.3224367645582,125.32487690456725L259.3706110979716,122.86423567636346L259.5873955983321,125.63106748183856L260.43044643306735,125.75642556852232L260.5508822666009,129.22719450625783L261.1048871008555,129.24725192147403L261.17714860097567,128.62938116628754L261.24941010109586,125.60025823333399L261.4661946014563,124.1278826458103L262.1406352692445,127.01567626271785L262.7187272702058,131.09686759204368L262.95959893727303,132.79915008868045L264.28439310614266,134.97888926890272L264.42891610638304,137.59040981289778L264.52526477320987,139.86058065848385L264.59752627333006,139.17180626492757L264.86248510710396,138.5962799392225L264.93474660722416,139.07773934764873" fill="none"></path></g></g></g></g><g opacity="0.2"><g><g><g><path style="fill: none;" stroke="rgb(255, 112, 67)" stroke-width="2px" d="M25.09882770840327,252.41538181189287L25.171089208523433,161.94015323914059L25.43604804229736,273.28110526869204L27.122149711767833,236.64604509348223L27.820677546262743,150.7685296500707L27.892939046382903,264.54376469616955L28.109723546743393,123.25072030766987L28.495118214050926,187.54274584049185L29.603127882560095,256.7061329868932L29.7235637160937,152.20879063973672L30.084871216694513,250.46403267068575L30.349830050468444,-112.1809178307347L30.518440217415492,138.32652806096047L30.66296321765582,2.277253965892129L31.506014052391052,-310.065732183856L32.44541355395317,-113.26630779124207L32.92715688808759,10.168509026876848L34.227863890250525,-236.87971911174935L35.504483725706734,-192.87065100718388L35.962139893134434,156.06732851486169L36.46797039397558,-133.05370241014714L38.22633356356621,-83.87030139165654L39.021210064888,5.4386840234316765L39.06938439830144,-52.80823940308892L39.35843039878209,-68.09679146805794L39.527040565729145,51.33624846878921L39.551127732435866,-27.950642467258348L39.719737899382906,-79.27585295691352L40.00878389986356,4.8753225499378345L40.24965556693078,-44.11099110573832L42.20071607017517,-2.689259273199042L42.29706473700206,61.67807074957646L42.51384923736255,111.23246673751456L42.61019790418943,113.04724635919774L42.658372237602876,25.09701919400058L42.70654657101631,60.97926478135504L42.87515673796336,31.76080003076359L42.995592571496964,33.82469835074835L43.043766904910406,24.981154376106133L43.16420273844401,37.30212027863527L43.21237707185745,24.538854061452923L43.30872573868434,46.56291684604966L43.40507440551122,40.733539305792874L43.54959740575155,71.86532735947476L43.57368457245827,35.66250489505575L44.127689406712854,56.92362256190927L44.22403807353973,75.95802322579812L45.018914574861526,97.35463633189829L45.18752474180857,90.58680980566741L45.3320477420489,106.10063853400852L45.669268075942995,105.12722462643914L45.76561674276987,111.97759825508611L45.93422690971693,115.8100864994548L45.98240124313036,117.1368346098572L46.17509857678414,107.25054123717764L46.51231891067823,115.14532845148523L46.53640607738495,128.22696394990535L46.77727774445216,118.36176160812494L46.84953924457232,135.22723333519224L47.06632374493281,130.64861166437677L47.25902107858658,125.93252469957687L47.47580557894707,134.844928682509L47.49989274565379,130.8253551825719L47.644415745894115,134.99818677740822L47.66850291260083,141.2274448294309L47.78893874613444,137.76596853601603L48.22250774685542,119.77771357143655L48.294769246975584,122.37466137606253L48.51155374733607,141.99106920742852L49.2341687485377,135.96339861740572L49.54730191572507,136.65773844945443L49.6918249159654,134.34553654347337L49.76408641608556,134.90546775268248L49.812260749499,146.56162466272298L49.90860941632589,144.86666654991615L50.053132416566214,140.20339206989593L50.17356825009982,136.4106745134224L50.41443991716703,148.72948376464382L50.55896291740736,141.28893486396055L50.67939875094096,140.6300014726725L50.920270418008165,137.83627197234654L51.93193141969045,129.11603071538448L52.028280086517334,123.17783568237263L52.052367253224055,133.91228737171005L52.076454419930776,130.25324823330266L52.510023420651756,131.7916708204828L52.82315658783912,123.2931401105572L53.136289755026496,95.59893537084163L53.762556089401244,85.51265079776003L54.0516020898819,116.96559309972272L54.31656092365583,110.50141288871546L54.38882242377599,124.88508840578416L54.461083923896155,103.63684272075152L54.94282725803057,105.6833180152109L55.087350258270895,65.02320674291877L55.25596042521795,109.77372137817565L55.400483425458276,80.67821971513713L55.785878092765806,120.52676781697727L55.85813959288597,73.07609178143821L56.1230984266599,103.8736837899548L56.195359926780064,99.9061076624921L56.26762142690023,102.65279839020077L56.29170859360695,113.55146124603962L57.44789259552956,74.10979003658566L57.52015409564972,65.3349192736634L57.592415595769886,69.53903080321489L57.61650276247661,88.06689011389052L58.14642043002446,39.55162646313511L58.435466430505116,24.052605608339945L58.676338097572334,-0.5304343326617698L58.77268676439921,115.29899410253711L59.37486593206724,95.74416121323256L59.39895309877395,50.926654535385396L59.66391193254789,83.64514359882897L59.85660926620166,102.66100045777266L59.952957933028536,102.61985426786232L60.001132266441985,109.57425660447079L60.77192160105705,117.54761724870622L60.86827026788394,131.35921977951838L61.47044943555196,112.81135625435063L61.85584410285949,128.26532517277263L61.879931269566214,124.03193752625648L62.24123877016703,125.75525475468459L62.33758743699392,130.27963749418615L62.72298210430145,125.74841120762147L62.74706927100817,115.75917594338745L63.276986938556036,128.3502666675855L63.39742277208964,111.2250118562225L63.517858605623246,117.35511489260898L63.59012010574341,116.69871174576855L63.710555939277015,108.7796919218852L63.78281743939718,109.86435167761911L64.07186343987783,112.00417431253955L64.2645607735316,122.1671134053303L64.43317094047865,139.46911173488843L64.6017811074257,153.71259642620194L64.81856560778618,108.01642415552115L64.91491427461307,110.94232071984716L64.96308860802651,115.64354886658202L65.01126294143994,102.25386884279105L65.0835244415601,116.21310858989727L65.25213460850716,99.72491498963063L65.46891910886765,98.22548194105312L65.70979077593485,106.16681546429353L65.80613944276173,110.19992322479956L65.85431377617518,90.32850411242507L65.92657527629534,105.07770655389331L66.04701110982896,92.41407083452523L66.11927260994912,95.98596088229297L66.14335977665583,100.02925754661501L66.62510311079025,98.99262149086726L66.84188761115074,96.59164026963599L66.98641061139107,96.30804911342356L67.15502077833811,76.77104680579704L67.17910794504483,78.32589050962734L67.39589244540532,117.29146820677161L67.56450261235237,84.36609345134384L68.07033311319351,91.53590619612923L68.1666817800204,71.00776128829348L68.40755344708761,101.72070048760534L68.50390211391449,94.67076019621535L68.72068661427498,77.21912083261269L69.03381978146236,62.88662757571309L69.10608128158252,77.18947112250807L69.25060428182285,113.41649223349013L69.29877861523627,92.62560945925206L70.1177422832648,124.5653945670503L70.26226528350513,178.81397137658388L70.67174711751937,152.57355339635006L70.91261878458658,184.98393000839732L70.98488028470675,97.90821645772876L71.03305461812019,150.58031512432936L71.46662361884117,57.56543859478643L71.80384395273526,102.2727522778634L71.8520182861487,114.24605580068373L72.28558728686968,63.49840332383938L72.38193595369657,53.021493159958126L72.57463328735034,62.789714118916436L72.9841151213646,53.53503089379164L73.12863812160492,53.175617311681705L73.70673012256623,60.54973455948458L74.0198632897536,70.766335212373L74.09212478987376,27.919719144176725L74.11621195658049,45.78477328011422L74.16438628999393,36.05995705141214L74.21256062340736,45.17539192438471L74.30890929023424,40.67390025545646L74.40525795706114,76.51612043232035L74.57386812400819,47.47090100961387L74.93517562460899,54.887692782899464L75.7541392926375,63.16149023765648L75.8504879594644,76.6459610299491L76.01909812641144,55.912356876663395L76.23588262677193,47.95142669508351L76.52492862725258,66.02567600787016L76.76580029431979,60.32450884063155L76.81397462773323,73.35411300356454L76.86214896114667,62.875504689047276L76.98258479468026,54.10822465946795L77.05484629480044,59.12023135409764L77.24754362845421,51.38223438801215L77.3438922952811,56.82103728198835L77.82563562941552,77.45305806422839L77.94607146294912,48.42222197740884L77.97015862965584,63.23710888547767L78.01833296306928,51.66516326547652L78.09059446318945,58.713982777446745L78.18694313001633,77.84538180566405L78.21103029672305,70.89495314154384L78.3796404636701,138.69779473450973L78.45190196379025,69.82805604146252L78.57233779732385,93.32067949607426L79.02999396475155,59.10241775392596L79.27086563181876,82.27925311626667L79.41538863205909,65.34791012602882L79.55991163229942,79.06120671652279L79.65626029912632,62.35171012537229L79.94530629960697,67.89741160188487L79.96939346631368,68.82930572640397L80.5715726339817,82.32783720596272L80.7883571343422,94.21210669093743L81.63140796907743,105.18813728975256L81.65549513578414,88.09178500221434L81.70366946919759,89.05947614214037L82.76350480429332,115.8822579014849L82.95620213794707,118.12452996427538L83.12481230489414,111.00544097898737L83.17298663830758,111.07199150241232L83.221160971721,118.09065185908713L83.34159680525461,106.74634333184213L83.94377597292264,111.48963466983078L83.96786313962936,104.77767729952438L84.20873480669657,116.81939931146925L84.25690914011001,119.97761986430677L84.37734497364362,103.88361797117541L84.71456530753771,112.16938738791623L84.85908830777804,121.25663296033116L85.07587280813853,121.36466930379365L85.43718030873934,119.92450171241262L85.53352897556623,120.76603724159003L85.58170330897967,127.00770877476188L86.1838824766477,122.34784757752004L86.47292847712835,121.63153367624145L86.71380014419556,129.6407422804029L86.85832314443589,138.41104501811432L87.26780497845014,136.80153784531112L87.41232797869047,135.7386313992244L87.43641514539718,134.6315051105762L87.77363547929127,134.21027884531577L87.9181584795316,132.80128929961174L88.0385943130652,131.56405070923302L88.59259914731979,129.89964232636785L88.76120931426684,136.73780625194195L88.88164514780044,137.7649666271408L89.19477831498781,129.30810853382272L89.36338848193486,133.72116051762796L89.72469598253568,121.52621437379656L90.01374198301633,65.80765044771378L90.0860034831365,94.14543729696797L90.42322381703059,136.06341968986627L91.26627465176581,141.97644813045252L91.29036181847255,140.28001262659237L91.31444898517927,144.16223970308957L91.74801798590025,141.8213730143728L92.10932548650105,140.43101218114572L93.26550948842366,138.46710097060878L93.48229398878416,144.57312423097673L93.69907848914464,143.5157537559634L93.84360148938497,138.23435244443826L94.34943199022612,142.66370667434913L94.39760632363955,139.22097796395573L94.42169349034627,139.9104610851855L95.55379032556216,144.97261416809633L95.74648765921593,143.05455302473146L96.30049249347051,145.8843512445661L96.51727699383099,142.07507671939157L96.61362566065787,137.64509417374538L96.70997432748477,139.93880321930038L96.99902032796543,139.2176835517219L97.07128182808557,139.59791646062922L97.26397916173936,142.77668463616237L97.3362406618595,140.77818209717006L97.91433266282081,129.34653768271545L98.01068132964771,125.50566057420491L98.05885566306114,135.1538053016915L98.73329633084933,-68.24880991299287L99.28730116510393,129.16159209694843L99.64860866570473,129.3660154705104L99.8413059993585,114.01001286227938L99.9617418328921,124.47646241824287L100.08217766642571,142.68540903947724L100.22670066666603,136.71554349710397L100.61209533397357,144.82278633748183L101.04566433469455,143.63289218683485L101.06975150140127,137.94675365272488L101.23836166834832,150.04457407093008L101.31062316846847,131.01653298117307L101.88871516942977,136.9586847051668L101.96097666954995,128.64776567750678L102.12958683649698,140.01639172185932L102.20184833661716,142.52087522435494L102.22593550332388,122.2865613210667L102.27410983673731,139.68423345745722L102.29819700344403,140.6923575640265L102.90037617111206,138.02668560316152L103.11716067147255,133.72752858251297L103.69525267243385,126.45414563043778L103.88795000608762,126.22956520882644L104.2251703399817,122.47098048013657L104.24925750668844,127.37084130676467L104.65873934070268,140.90890573312953L105.35726717519759,128.28651809270997L105.40544150861103,123.90573097098877L105.64631317567824,143.41432321847498L106.05579500969252,137.9083414853385L106.17623084322612,110.95053976892541L106.70614851077397,129.08570174502546L106.89884584442775,128.00075330368344L107.16380467820169,110.68292821019777L107.21197901161511,142.1474009549789L107.38058917856216,121.6321959549895L107.52511217880249,98.11600216955003L107.69372234574953,129.19046065776047L107.83824534598986,120.3098969992534L107.91050684611002,134.25969502882344L108.3199886801243,91.50228281353638L108.60903468060492,91.27722690974697L108.6812961807251,80.142249411402L108.84990634767215,97.60572488493763L109.23530101497968,83.6884124770343L109.28347534839313,109.65799241233208L109.42799834863345,83.81426242066846L109.52434701546034,95.31731406936697L109.90974168276786,84.02094433457633L110.31922351678212,93.5918232081248L110.80096685091655,91.85315469794723L111.23453585163753,86.37670380437085L111.28271018505097,81.4629351240339L111.3308845184644,78.38340687166874L111.40314601858458,80.48440978305017L111.47540751870473,79.01094145769711L111.88488935271899,75.9719650425197L112.14984818649292,73.1350176085075L112.48706852038701,82.17659991032032L113.20968352158864,74.47810192802827L113.25785785500207,77.83909864831084L113.83594985596338,72.15773191748804L113.93229852279028,78.67170190514288L113.9804728562037,74.9723486706368L114.12499585644403,76.60685262080197L114.19725735656421,80.26796350298527L114.24543168997765,89.59159164393176L114.46221619033814,83.3063455654401L114.63082635728519,87.26483658700018L114.94395952447256,74.30818497538985L115.13665685812632,81.98148240224363L115.44979002531369,114.86345242741518L115.49796435872715,91.2674455620836L115.5702258588473,77.16005915349251L115.95562052615483,83.34795025602216L116.07605635968845,104.9649663331691L116.12423069310188,97.17643240415619L116.3651023601691,97.4662727547091L116.46145102699597,92.21579476626557L117.15997886149088,88.86692284152404L117.28041469502449,122.60970240559163L117.44902486197154,99.15328352253945L118.50886019706725,103.10583101687352L118.70155753072103,98.7519935457457L118.87016769766808,104.3877819134982L118.96651636449496,105.01006921406133L119.23147519826888,103.77566653524472L119.37599819850921,107.05450672775751L119.52052119874953,108.64377194497956L120.0504388662974,113.27099468699744L120.31539770007134,118.8097677089151L120.43583353360495,114.41775581148994L120.65261803396542,126.94148089995778L120.67670520067215,113.35853435228337L120.9657512011528,119.64423893144675L121.23071003492673,101.66620683369601L121.30297153504691,113.91783724575717L121.5438432021141,119.92013746527809L122.67594003733,135.65131249352117L122.7963758708636,129.91952767031543L122.82046303757032,130.84895947641235L123.06133470463753,124.43414450439369L124.81969787422817,136.61200725282688L125.0846567080021,142.89781372102843L125.10874387470882,138.88652719619503L125.15691820812225,137.48949263096847L125.20509254153569,136.74982915844484L125.27735404165585,140.27845032800724L125.30144120836258,143.1067371937758L125.9036203760306,144.0337576259696L126.02405620956421,139.72312110702168L126.09631770968439,137.3271154671539L126.28901504333814,139.70437352400023L126.55397387711207,138.47012367874086L126.77075837747256,148.50064098493613L126.84301987759272,142.78536218591233L126.86710704429944,148.4876501325707L127.22841454490026,144.26334759195714L127.6138092122078,143.4241215476447L127.75833221244812,143.61008602379334L127.85468087927501,144.24862462594302L128.0714653796355,140.1917597380393L128.11963971304894,149.5796543898053L128.33642421340943,145.5545703910544L128.4327728802363,142.02635677764465L128.69773171401025,141.2839932456098L129.323998048385,146.26567096988046L129.54078254874548,141.1381900320026L129.9020900493463,147.91031287934257L130.07070021629335,144.9102750582487L130.21522321653367,140.37072783356763L130.31157188336053,143.6164710701847L130.33565905006728,138.4155960618188L130.79331521749498,145.35872267820423L130.8655767176151,143.10561641435606L131.73271471905707,132.29856878532956L131.8772377192974,135.0056246771939L132.23854521989824,123.49652761223123L132.28671955331166,139.3792795662439L132.6962013873259,136.8791603108828L132.72028855403263,138.69101911347207L133.17794472146034,139.70062061109465L133.20203188816706,148.44010191476264L133.27429338828722,144.41385468282607L133.4910778886477,138.44307213910935L133.75603672242164,141.92507907371345L134.35821589008967,144.98110492127634L134.43047739020983,143.19789391991645L134.69543622398376,145.56508194349126L134.76769772410393,147.421347385212L134.81587205751737,146.69922580875829L134.8640463909308,146.22987395447353L135.15309239141146,137.48993415013382L135.56257422542572,139.07259356138184L136.06840472626686,141.43745511858532L136.2370148932139,137.66864752306674L136.42971222686768,147.06886225769694L136.52606089369456,144.9725802050836L136.6946710606416,146.52497857199805L136.71875822734833,145.20322302446547L136.74284539405505,145.9674926997048L136.98371706112226,145.1716034596231L137.609983395497,148.45389089792698L137.73041922903062,139.65872723490446L138.11581389633815,144.80738411121328L138.38077273011208,138.58592057060986L138.47712139693897,143.32235138002906L138.5012085636457,139.37258885273803L138.69390589729946,143.98785661427846L138.83842889753979,143.109810846427L138.91069039765992,149.0153504427085L139.12747489802044,140.0458885984067L139.22382356484732,141.6895116174872L139.39243373179437,140.5140687287526L139.4165208985011,145.45777580480225L139.56104389874142,152.38816629141766L139.70556689898174,146.14999294855596L139.75374123239516,150.6339936659334L139.82600273251535,150.08787691214815L140.6690535672506,143.27444655058744L140.95809956773124,137.75997406427095L141.41575573515894,141.26001535862943L141.46393006857235,147.11024618869632L141.9697605694135,144.75351877303927L142.45150390354792,141.45632157215132L143.02959590450922,139.52348651825324L143.10185740462938,146.70759769139377L143.41499057181676,136.75402359051577L143.60768790547053,143.30513213258L143.82447240583102,131.2476173197203L143.89673390595118,132.66742408497566L143.94490823936462,134.37773347953197L143.96899540607134,136.81885898179834L145.02883074116707,107.83587677990135L145.1733537414074,115.5480618563196L145.24561524152753,107.52346800739596L145.4142254084746,113.16462253115824L145.72735857566198,125.63368415065315L145.77553290907542,108.14208730258534L145.79962007578212,90.00235730127443L145.9682302427292,88.16672438978112L146.40179924345014,89.15616883935436L146.95580407770473,78.48393738932009L147.07623991123836,88.83599951844245L147.55798324537275,78.21406729024658L147.60615757878622,55.18391817984376L147.75068057902655,65.91169613718166L148.37694691340127,62.597041947755585L148.4973827469349,70.90947232948166L148.90686458094913,42.72873045104498L149.34043358167014,67.69298822832287L149.53313091532388,58.225679562064215L150.08713574957847,67.06830653536299L150.18348441640535,63.80401949380075L150.27983308323226,61.2539236652221L150.30392024993898,61.10701665370152L150.9301865843137,62.839690692134L151.4841914185683,74.89645831871384L152.1827192530632,92.99612894652145L152.44767808683713,67.89036427674546L152.8330727541447,78.00225696141797L153.17029308803876,88.27586453115701L153.19438025474548,79.7916152680802L153.6761235888799,77.60650295569758L154.25421558984118,98.65032526716823L154.63961025714875,105.41309130450381L155.09726642457645,109.42993078191694L155.1695279246966,108.38521152914181L155.28996375823021,109.00410252843294L156.1811889263789,122.06848481639128L156.34979909332594,128.02315191057232L156.44614776015283,124.99949281413166L156.59067076039312,131.00459498220198L156.73519376063348,121.43748600306543L156.85562959416706,124.51154621038268L156.92789109428725,123.76926758587962L156.9760654277007,130.45473380626436L157.554157428662,146.81930204023L157.74685476231573,144.56526179353204L158.15633659633002,170.9686173272903L158.2767724298636,143.66790805294923L158.32494676327704,142.47432891542212L158.6139927637577,142.52897540288868L158.66216709717116,136.6070656344761L158.80669009741146,140.38426209413655L159.09573609789211,146.00532749587492L159.21617193142572,144.71384997418227L159.45704359849293,137.84471178100748L159.69791526556014,143.6615060250515L160.37235593334833,139.73809879563123L160.4205302667618,143.8293851969267L160.51687893358866,143.38204137488455L160.87818643418947,148.97411085451319L161.86576026916507,149.04828607429377L161.9380217692852,141.23107887179194L162.37159077000618,141.44840819018754L162.80515977072716,147.74773193745168L163.21464160474142,142.95312248724304L163.28690310486155,145.28155871330426L163.40733893839518,146.9217344865937L163.5277747719288,143.55511688770594L163.96134377264977,142.56224217384798L163.9854309393565,138.28122140199193L164.39491277337075,145.21422704058676L164.46717427349088,149.13303228178347L164.63578444043796,147.76404267431047L165.2861379415194,141.68562285253074L165.33431227493284,144.3535533537416L165.50292244187992,147.45581135236966L165.93649144260087,146.5835817504465L166.15327594296136,141.74777516580843L166.37006044332188,151.38154504816126L166.6109321103891,136.19033946840108L166.87589094416302,146.55338863213836L166.97223961098987,147.722607798792L166.9963267776966,142.18881884899102L167.45398294512432,150.5293196607302L167.5744187786579,144.8431981081266L167.62259311207134,137.07743637914245L167.71894177889826,143.0566247685074L167.93572627925872,140.28400328058697L168.36929527997972,144.3681234861985L168.85103861411412,147.91185819642132L168.97147444764772,137.70955597188805L169.18825894800824,147.19022908365204L169.33278194824854,142.93636174046568L169.35686911495526,140.832421028484L169.45321778178217,142.33620134268966L169.5254792819023,143.82851914010234L170.0553969494502,146.49904781178628L170.48896595017115,142.09968292210723L170.58531461699803,148.424648743975L170.70575045053164,145.9367731546995L171.09114511783918,140.3217531692253L171.13931945125262,145.2944986211506L171.38019111831983,145.6311569847381L171.52471411856015,147.8671373994222L171.5728884519736,147.07366802399685L171.71741145221392,143.91921736557123L171.76558578562734,145.24217860005538L171.8137601190408,145.96908896130262L172.10280611952146,144.57915266573454L172.1509804529349,142.92398222232924L172.19915478634834,148.25964793742781L172.75315962060293,149.6119107611362L172.96994412096342,142.0562442288383L173.04220562108358,140.2198471495588L173.42760028839112,148.0561840189752L173.69255912216505,141.52190414971375L173.74073345557846,142.90572710299222L173.88525645581882,135.1484561271881L174.1983896230062,135.56900313219413L174.31882545653977,137.2833201622514L174.48743562348685,134.34648750782952L174.63195862372714,138.43274738324243L174.94509179091452,130.71628296722147L175.5713581252893,134.35604809591024L176.12536295954385,132.09847569588936L176.22171162637076,127.99781550308316L176.24579879307748,134.83973234156284L176.4144089600245,129.61613607768723L176.8238907940388,115.40910218977552L177.08884962781272,121.09542752045544L177.35380846158665,111.87486014160795L177.52241862853367,116.49922999055735L177.66694162877403,99.53407682115667L178.24503362973533,93.72171475027262L179.56982779860496,77.41444211876569L179.66617646543187,101.46694583806747L179.97930963261922,87.09130257350706L180.34061713322004,84.74352441170176L180.5333144668738,78.49721692729362L180.55740163358053,79.43772067553728L180.6537503004074,88.31697675805462L180.89462196747462,79.04792717854924L181.13549363454183,65.5701301182561L181.15958080124855,79.2192705777219L181.18366796795527,86.05609296429357L181.376365301609,55.00331985970489L181.85810863574346,92.37494544387172L182.43620063670477,79.06178408773904L182.60481080365182,82.69939256512008L182.67707230377198,76.63731744321184L182.9179439708392,84.89516926349678L183.13472847119968,93.66241533006341L183.20698997131984,78.82957896977204L183.44786163838705,95.46051911250106L183.56829747192066,90.96778990085458L184.43543547336262,109.08625905620275L184.6522199737231,108.44622608149339L184.70039430713655,116.3793235741492L184.7967429739634,108.09262017455858L184.94126597420376,101.66807479939561L185.01352747432392,121.04424526028635L185.18213764127097,112.27844262176032L185.3748349749247,102.93304418966027L185.44709647504487,120.74917460577453L185.63979380869864,129.04564237152218L185.73614247552553,111.74430632071207L185.83249114235244,118.06541734063612L186.38649597660702,24.14785487751334L186.48284464343388,72.82332205926923L186.65145481038095,38.1723715350675L186.7478034772078,-114.71377743035794L187.01276231098174,22.210927280582467L187.3018083114624,-28.646850265006634L187.68720297876993,-28.38183687675209L188.28938214643796,129.48155763978403L188.65068964703877,144.32240927107733L188.9879099809329,147.7715909538875L189.18060731458664,147.72397481005402L189.3733046482404,141.70285908148617L189.51782764848073,139.02017165124843L189.54191481518748,141.21071804566628L190.1681811495622,129.20120995128636L190.5054014834563,133.32095735724124L191.10758065112432,124.37723947658122L191.51706248513855,117.49837088026214L191.8061084856192,122.79694049471726L191.8783699857394,109.4894169986961L192.02289298597972,114.10154318155992L192.4564619867007,101.59077498244478L192.50463632011414,96.92388344156988L192.9382053208351,84.19362927275142L193.03455398766198,105.26587862586875L193.54038448850312,87.37127666886481L193.63673315533003,97.44429868547923L193.80534332227705,94.78102111701101L194.11847648946443,91.1622621116896L194.26299948970478,99.3967643607295L194.60021982359888,89.71705101291964L194.88926582407953,91.85587173896484L195.25057332468032,93.67020984148266L195.44327065833411,98.73068175526387L195.46735782504084,98.70694160937255L195.9972754925887,100.019493180458L196.09362415941555,97.25644926212462L196.43084449330965,97.86498154253613L196.7198904937903,103.71876150743228L196.74397766049702,111.56216268349445L196.91258782744407,106.76522676691448L197.24980816133817,111.08216342472197L197.3943311615785,104.53954563583775L197.56294132852554,101.56051393811121L197.61111566193898,99.26529353849018L197.82790016229947,94.85577370800783L197.8760744957129,101.86979811344636L197.90016166241963,78.94503623151387L198.35781782984733,118.7096447474164L198.4300793299675,116.28984801713824L198.646863830328,123.82647828080653L198.95999699751536,120.04968937729873L199.53808899847667,132.669750551347L199.9234836657842,128.59238898526672L200.18844249955814,137.8070298183946L200.62201150027911,139.35193934100425L200.8628831673463,142.52882256933145L200.88697033405302,136.92951047724029L201.03149333429337,146.91634285832438L201.20010350124042,141.724595409627L201.2964521680673,143.45788078228844L201.32053933477403,141.83570540574064L201.34462650148075,141.74862424112644L201.8745441690286,144.52206084135213L201.89863133573533,149.8482338943955L201.9949800025622,142.67632393357462L202.04315433597563,143.20446576287776L202.25993883633612,143.40788722756452L202.356287503163,143.29134314941567L203.05481533765794,141.05168623860465L203.07890250436466,144.31860541365268L203.29568700472515,146.8041884995696L203.36794850484532,142.65350078902674L203.53655867179236,145.14319339948278L203.77743033885955,143.91933623611575L203.80151750556627,141.3513249183273L203.84969183897974,149.178338940752L203.9701276725133,144.13080693481714L204.11465067275367,137.13347535013054L204.21099933958055,140.206414778028L204.25917367299397,138.82386543772654L204.6445683403015,132.20494974076672L204.78909134054186,129.60776419505174L204.81317850724855,131.5790114163362L205.00587584090235,126.72588369521091L205.46353200833002,127.05187767280432L205.8730138423443,123.74775201732146L206.49928017671903,127.27878456078696L207.05328501097364,121.35954088887291L207.36641817816098,123.01685100207959L207.43867967828115,112.176451694562L208.18538184618947,98.10121127751044L208.20946901289622,96.04500557990677L208.59486368020376,95.06328771572734L208.61895084691048,97.6769792856243L208.8598225139777,108.2800790232669L208.93208401409785,115.36264078837448L208.9802583475113,113.01501546012642L209.24521718128523,108.69921656324505L209.38974018152555,119.62749516617578L209.46200168164572,118.85341018026037L209.5583503484726,119.3946447509671L209.99191934919358,107.29301198458407L210.0160065159003,104.61633600759778L210.11235518272719,107.07215051286558L210.18461668284732,104.19646826284615L210.2327910162608,105.34382374006127L210.57001135015489,110.88845538167315L210.66636001698177,101.13076295665806L210.9313188507557,92.35641862043295L211.00358035087584,105.59216128907028L211.4853236850103,86.92929900283242L211.67802101866403,79.95806799342118L211.91889268573124,78.2286713857162L211.94297985243796,81.98489568502201L212.2079386862119,85.73427643726473L212.76194352046647,83.54775465985422L212.8823793540001,82.93869595274555L213.29186118801434,63.37442134590482L214.3516965231101,102.74256263281987L214.3757836898168,103.01114213741002L214.47213235664367,107.12751022359926L214.56848102347055,104.84108624427272L215.00205002419153,114.6266113582119L215.14657302443186,110.75764683818188L216.18232119282087,95.90159675869636L216.37501852647466,93.16295526500235L216.5677158601284,73.25348059687504L216.59180302683512,81.70276493835654L217.00128486084938,84.32858130379454L217.31441802803676,98.35014317924205L217.41076669486364,121.9891981631963L217.67572552863757,109.5878927540779L217.96477152911822,114.23267437367204L218.0370330292384,98.36048491661532L218.0852073626518,96.57559274612576L218.1815560294787,125.36880661444948L218.37425336313245,103.28260849808139L219.81948336553572,87.86241579580947L219.96400636577607,107.05464257980839L219.9880935324828,78.61241946644004L220.39757536649702,101.3226709600327L220.5661855334441,111.22051175703709L221.12019036769868,97.58252814724983L221.21653903452554,105.70491849130084L221.48149786829947,86.13787589892344L221.55375936841963,90.95500282656549L221.96324120243392,107.26151129028622L222.10776420267422,102.76119134529681L222.4208973698616,89.32070265447665L222.902640703996,72.962927023055L223.11942520435653,89.8409820463351L223.50481987166404,75.23153740220987L223.55299420507748,74.64562448826992L223.76977870543797,82.31673130080326L223.9865632057985,67.81798909663904L224.17926053945223,76.14538018546828L224.66100387358665,73.43214302528885L224.7091782070001,87.58918335847666L224.78143970712026,74.96582777219454L224.82961404053373,79.93780905633366L224.97413704077402,84.6370503668244L225.26318304125468,64.56526646090798L225.2872702079614,69.19950256505253L225.45588037490845,64.07730287565265L225.5281418750286,78.55208417434288L225.64857770856221,47.943241609017974L225.81718787550926,43.267230999227735L225.8653622089227,60.13280461533323L227.09380771096545,81.04945242567364L227.3587665447394,73.5343716935762L227.43102804485957,87.11820127958136L227.55146387839318,104.2122950267737L227.9368585457007,85.48344260682079L228.0332072125276,94.54125922871381L228.05729437923432,100.02640465354652L228.10546871264776,85.00116782619607L228.34634037971497,72.95095506107118L228.44268904654186,62.51812888770054L228.5390377133687,81.26414961058344L228.75582221372923,75.97919916422906L228.77990938043592,77.35524458759464L228.90034521396956,80.43888236449892L228.99669388079644,74.93290063136247L229.02078104750316,78.129940907739L229.38208854810395,77.77214056873326L230.12879071601233,76.4241316123681L230.41783671649299,72.47976920409955L230.58644688344,60.99120278032615L230.70688271697364,76.31494052647314L231.0441030508677,55.29709991973333L231.26088755122822,89.09118061451454L231.622195051829,71.21948670959027L231.88715388560297,65.75578892729027L232.05576405255,36.92968188114719L232.0798512192567,52.62310702075193L232.2966357196172,28.45090066311832L233.2119480544726,7.120498450315893L233.2842095545928,7.66816901193306L233.3323838880062,12.073868003484392L233.40464538812637,14.194688332787962L233.4287325548331,15.584981239989617L233.52508122165997,40.52459885153911L234.29587055627505,99.24785353145845L234.63309089016914,102.91925520649593L235.28344439125058,118.98724143188375L235.42796739149094,120.4289713218499L235.52431605831782,120.72377027225994L235.9578850590388,128.43882522325302L236.0783208925724,132.28289485495924L236.4396283931732,135.1062231208707L236.5118898932934,127.81512845766201L236.58415139341355,130.34576347995207L237.0899818942547,130.99253811268636L237.35494072802862,132.14858812115781L237.668073895216,130.63500947778238L237.69216106192272,118.50933089839356L237.93303272898993,127.33059513669141L238.0052942291101,126.79910795063535L238.10164289593695,123.12643266262086L238.51112472995123,124.93426684820278L238.55929906336468,140.8316568606978L238.63156056348484,135.10946658858546L239.13739106432598,129.3756270031102L239.18556539773942,114.93193884256516L239.306001231273,121.93067989227967L239.57096006504693,95.53228295837853L239.76365739870073,99.33118178316708L239.86000606552759,110.57113895382972L240.26948789954187,119.09461549659818L240.41401089978217,99.41046843636204L240.65488256684938,88.91778245307232L240.70305690026282,114.4097065774753L240.84757990050318,121.43497274012415L240.96801573403675,130.68495208798723L241.08845156757036,117.69005812405413L241.16071306769055,127.25713314017793L241.52202056829134,124.13707003213139L241.54610773499806,124.85567643676859L242.19646123607953,121.04979821286605L242.3891585697333,135.1329859748941L242.6300302368005,99.50931778488375L242.89498907057447,119.54785190134726L243.40081957141558,102.81026789867728L243.81030140542984,128.64039570374652L243.83438857213656,127.75824041135593L244.6051779067516,120.5814312859502L244.62926507345836,128.22762622865338L244.77378807369868,120.25120891327316L246.02632074244815,81.975131318865L246.07449507586162,99.47284150922242L246.24310524280867,102.33157621589453L246.3153667429288,122.23498848625132L246.48397690987588,118.06490789544532L247.13433041095732,135.6759017147305L247.6401609117985,135.92943560468566L247.8810325788657,129.185722817486L248.2664272461732,136.20840779116816L248.31460157958665,134.56070921056124L248.3627759130001,137.30782447592892L248.48321174653373,129.68068278336168L249.25400108114877,123.95256596552971L249.3744369146824,110.89188564595788L249.63939574845634,92.7970038029438L249.66348291516306,115.67336839175022L249.68757008186975,109.66560012718136L249.7598315819899,101.01747932773033L250.14522624929745,88.96213814768471L250.79557975037895,100.3008427778309L250.86784125049908,100.15768867921588L251.34958458463353,104.97355897538728L251.49410758487383,98.36763413079288L251.51819475158055,100.42496060781632L252.1444610859553,101.43091108157151L252.31307125290235,100.84796993124455L252.48168141984942,113.55774440339283L253.2765579211712,92.28528309029079L253.34881942129132,86.51097657515957L253.80647558871905,88.89008561619913L253.83056275542577,102.80434135295764L254.04734725578626,101.44819825504601L254.21595742273328,91.30161235287997L254.28821892285347,89.6613346905524L254.45682908980052,99.54504687426524L254.52909058992068,96.24241559134207L254.98674675734839,109.89714296640031L255.05900825746852,98.37347576898074L255.32396709124245,92.20108878175779L255.5889259250164,115.51304599020523L255.82979759208362,121.73175852677832L255.87797192549704,110.50835832481671L255.90205909220376,111.63820586897464L255.97432059232392,109.97468052444019L256.5524125932852,118.27558046334781L256.67284842681886,119.19521394027498L256.69693559352555,115.14928514246714L256.79328426035244,120.71471912937005L257.25094042778017,113.42418485587123L257.27502759448686,125.10664611926342L257.4918120948474,118.15309285797292L257.68450942850114,115.80981479535302L257.9735554289818,110.04411790394633L258.86478059713045,120.95555085256791L258.93704209725064,118.9888716564943L259.1538265976111,125.55421070088823L259.1779137643178,124.1475985660746L259.3224367645582,129.9559530014577L259.3706110979716,119.17327383405782L259.5873955983321,129.7813151900512L260.43044643306735,125.94446269854797L260.5508822666009,134.43334791286105L261.1048871008555,129.27733804429835L261.17714860097567,127.70257503350777L261.24941010109586,121.05657383390371L261.4661946014563,121.9193192645248L262.1406352692445,131.3473666880791L262.7187272702058,137.21865458603241L262.95959893727303,135.3525738336356L264.28439310614266,138.24849803923615L264.42891610638304,141.5076906288904L264.52526477320987,143.2658369268629L264.59752627333006,138.13864467459317L264.86248510710396,137.7329904506649L264.93474660722416,139.79992846028807" fill="none"></path></g></g></g></g></g></g><g transform="translate(40, 178)" clip-path="url(#clip_1)"><clipPath id="clip_1"><rect width="289" height="21"></rect></clipPath><g><g><line x1="0" y1="0" x2="0" y2="5" style="visibility: inherit;" fill="rgb(0, 0, 0)" stroke="rgb(204, 204, 204)" stroke-width="1px"></line><line x1="24.087166706720986" y1="0" x2="24.087166706720986" y2="5" style="visibility: inherit;" fill="rgb(0, 0, 0)" stroke="rgb(204, 204, 204)" stroke-width="1px"></line><line x1="48.17433341344197" y1="0" x2="48.17433341344197" y2="5" style="visibility: inherit;" fill="rgb(0, 0, 0)" stroke="rgb(204, 204, 204)" stroke-width="1px"></line><line x1="72.26150012016296" y1="0" x2="72.26150012016296" y2="5" style="visibility: inherit;" fill="rgb(0, 0, 0)" stroke="rgb(204, 204, 204)" stroke-width="1px"></line><line x1="96.34866682688394" y1="0" x2="96.34866682688394" y2="5" style="visibility: inherit;" fill="rgb(0, 0, 0)" stroke="rgb(204, 204, 204)" stroke-width="1px"></line><line x1="120.43583353360495" y1="0" x2="120.43583353360495" y2="5" style="visibility: inherit;" fill="rgb(0, 0, 0)" stroke="rgb(204, 204, 204)" stroke-width="1px"></line><line x1="144.52300024032593" y1="0" x2="144.52300024032593" y2="5" style="visibility: inherit;" fill="rgb(0, 0, 0)" stroke="rgb(204, 204, 204)" stroke-width="1px"></line><line x1="168.61016694704693" y1="0" x2="168.61016694704693" y2="5" style="visibility: inherit;" fill="rgb(0, 0, 0)" stroke="rgb(204, 204, 204)" stroke-width="1px"></line><line x1="192.69733365376788" y1="0" x2="192.69733365376788" y2="5" style="visibility: inherit;" fill="rgb(0, 0, 0)" stroke="rgb(204, 204, 204)" stroke-width="1px"></line><line x1="216.7845003604889" y1="0" x2="216.7845003604889" y2="5" style="visibility: inherit;" fill="rgb(0, 0, 0)" stroke="rgb(204, 204, 204)" stroke-width="1px"></line><line x1="240.8716670672099" y1="0" x2="240.8716670672099" y2="5" style="visibility: inherit;" fill="rgb(0, 0, 0)" stroke="rgb(204, 204, 204)" stroke-width="1px"></line><line x1="264.95883377393085" y1="0" x2="264.95883377393085" y2="5" style="visibility: inherit;" fill="rgb(0, 0, 0)" stroke="rgb(204, 204, 204)" stroke-width="1px"></line><line x1="289.04600048065186" y1="0" x2="289.04600048065186" y2="5" style="visibility: inherit;" fill="rgb(0, 0, 0)" stroke="rgb(204, 204, 204)" stroke-width="1px"></line></g><g transform="translate(0, 8)"><text style="text-anchor: middle; visibility: hidden; font-family: &quot;Helvetica Neue&quot;, sans-serif; font-size: 12px; font-weight: 200;" x="0" y="0" dx="0em" dy="0.95em" fill="rgb(50, 49, 63)" stroke="none" stroke-width="1px">-1k</text><text style="text-anchor: middle; visibility: inherit; font-family: &quot;Helvetica Neue&quot;, sans-serif; font-size: 12px; font-weight: 200;" x="24.087166706720986" y="0" dx="0em" dy="0.95em" fill="rgb(50, 49, 63)" stroke="none" stroke-width="1px">0</text><text style="text-anchor: middle; visibility: hidden; font-family: &quot;Helvetica Neue&quot;, sans-serif; font-size: 12px; font-weight: 200;" x="48.17433341344197" y="0" dx="0em" dy="0.95em" fill="rgb(50, 49, 63)" stroke="none" stroke-width="1px">1k</text><text style="text-anchor: middle; visibility: inherit; font-family: &quot;Helvetica Neue&quot;, sans-serif; font-size: 12px; font-weight: 200;" x="72.26150012016296" y="0" dx="0em" dy="0.95em" fill="rgb(50, 49, 63)" stroke="none" stroke-width="1px">2k</text><text style="text-anchor: middle; visibility: hidden; font-family: &quot;Helvetica Neue&quot;, sans-serif; font-size: 12px; font-weight: 200;" x="96.34866682688394" y="0" dx="0em" dy="0.95em" fill="rgb(50, 49, 63)" stroke="none" stroke-width="1px">3k</text><text style="text-anchor: middle; visibility: inherit; font-family: &quot;Helvetica Neue&quot;, sans-serif; font-size: 12px; font-weight: 200;" x="120.43583353360495" y="0" dx="0em" dy="0.95em" fill="rgb(50, 49, 63)" stroke="none" stroke-width="1px">4k</text><text style="text-anchor: middle; visibility: hidden; font-family: &quot;Helvetica Neue&quot;, sans-serif; font-size: 12px; font-weight: 200;" x="144.52300024032593" y="0" dx="0em" dy="0.95em" fill="rgb(50, 49, 63)" stroke="none" stroke-width="1px">5k</text><text style="text-anchor: middle; visibility: inherit; font-family: &quot;Helvetica Neue&quot;, sans-serif; font-size: 12px; font-weight: 200;" x="168.61016694704693" y="0" dx="0em" dy="0.95em" fill="rgb(50, 49, 63)" stroke="none" stroke-width="1px">6k</text><text style="text-anchor: middle; visibility: hidden; font-family: &quot;Helvetica Neue&quot;, sans-serif; font-size: 12px; font-weight: 200;" x="192.69733365376788" y="0" dx="0em" dy="0.95em" fill="rgb(50, 49, 63)" stroke="none" stroke-width="1px">7k</text><text style="text-anchor: middle; visibility: inherit; font-family: &quot;Helvetica Neue&quot;, sans-serif; font-size: 12px; font-weight: 200;" x="216.7845003604889" y="0" dx="0em" dy="0.95em" fill="rgb(50, 49, 63)" stroke="none" stroke-width="1px">8k</text><text style="text-anchor: middle; visibility: hidden; font-family: &quot;Helvetica Neue&quot;, sans-serif; font-size: 12px; font-weight: 200;" x="240.8716670672099" y="0" dx="0em" dy="0.95em" fill="rgb(50, 49, 63)" stroke="none" stroke-width="1px">9k</text><text style="text-anchor: middle; visibility: inherit; font-family: &quot;Helvetica Neue&quot;, sans-serif; font-size: 12px; font-weight: 200;" x="264.95883377393085" y="0" dx="0em" dy="0.95em" fill="rgb(50, 49, 63)" stroke="none" stroke-width="1px">10k</text><text style="text-anchor: middle; visibility: hidden; font-family: &quot;Helvetica Neue&quot;, sans-serif; font-size: 12px; font-weight: 200;" x="289.04600048065186" y="0" dx="0em" dy="0.95em" fill="rgb(50, 49, 63)" stroke="none" stroke-width="1px">11k</text></g><line x1="0" y1="0" x2="289.04600048065186" y2="0" fill="rgb(0, 0, 0)" stroke="rgb(204, 204, 204)" stroke-width="1px"></line></g></g></g></g></svg>