<svg viewBox="0 0 330 200" xmlns="http://www.w3.org/2000/svg"><g><g><g><g><g><line x1="40.953999519348145" y1="178.0640001296997" x2="35.953999519348145" y2="178.0640001296997" style="visibility: inherit;" fill="rgb(0, 0, 0)" stroke="rgb(204, 204, 204)" stroke-width="1px"></line><line x1="40.953999519348145" y1="163.22533345222473" x2="35.953999519348145" y2="163.22533345222473" style="visibility: inherit;" fill="rgb(0, 0, 0)" stroke="rgb(204, 204, 204)" stroke-width="1px"></line><line x1="40.953999519348145" y1="148.38666677474976" x2="35.953999519348145" y2="148.38666677474976" style="visibility: inherit;" fill="rgb(0, 0, 0)" stroke="rgb(204, 204, 204)" stroke-width="1px"></line><line x1="40.953999519348145" y1="133.54800009727478" x2="35.953999519348145" y2="133.54800009727478" style="visibility: inherit;" fill="rgb(0, 0, 0)" stroke="rgb(204, 204, 204)" stroke-width="1px"></line><line x1="40.953999519348145" y1="118.7093334197998" x2="35.953999519348145" y2="118.7093334197998" style="visibility: inherit;" fill="rgb(0, 0, 0)" stroke="rgb(204, 204, 204)" stroke-width="1px"></line><line x1="40.953999519348145" y1="103.87066674232483" x2="35.953999519348145" y2="103.87066674232483" style="visibility: inherit;" fill="rgb(0, 0, 0)" stroke="rgb(204, 204, 204)" stroke-width="1px"></line><line x1="40.953999519348145" y1="89.03200006484985" x2="35.953999519348145" y2="89.03200006484985" style="visibility: inherit;" fill="rgb(0, 0, 0)" stroke="rgb(204, 204, 204)" stroke-width="1px"></line><line x1="40.953999519348145" y1="74.19333338737488" x2="35.953999519348145" y2="74.19333338737488" style="visibility: inherit;" fill="rgb(0, 0, 0)" stroke="rgb(204, 204, 204)" stroke-width="1px"></line><line x1="40.953999519348145" y1="59.3546667098999" x2="35.953999519348145" y2="59.3546667098999" style="visibility: inherit;" fill="rgb(0, 0, 0)" stroke="rgb(204, 204, 204)" stroke-width="1px"></line><line x1="40.953999519348145" y1="44.51600003242493" x2="35.953999519348145" y2="44.51600003242493" style="visibility: inherit;" fill="rgb(0, 0, 0)" stroke="rgb(204, 204, 204)" stroke-width="1px"></line><line x1="40.953999519348145" y1="29.67733335494995" x2="35.953999519348145" y2="29.67733335494995" style="visibility: inherit;" fill="rgb(0, 0, 0)" stroke="rgb(204, 204, 204)" stroke-width="1px"></line><line x1="40.953999519348145" y1="14.838666677474976" x2="35.953999519348145" y2="14.838666677474976" style="visibility: inherit;" fill="rgb(0, 0, 0)" stroke="rgb(204, 204, 204)" stroke-width="1px"></line><line x1="40.953999519348145" y1="0" x2="35.953999519348145" y2="0" style="visibility: inherit;" fill="rgb(0, 0, 0)" stroke="rgb(204, 204, 204)" stroke-width="1px"></line></g><g transform="translate(30.953999519348145, 0)"><text style="text-anchor: end; visibility: hidden; font-family: &quot;Helvetica Neue&quot;, sans-serif; font-size: 12px; font-weight: 200;" x="0" y="178.0640001296997" dx="0em" dy="0.3em" fill="rgb(50, 49, 63)" stroke="none" stroke-width="1px">190</text><text style="text-anchor: end; visibility: inherit; font-family: &quot;Helvetica Neue&quot;, sans-serif; font-size: 12px; font-weight: 200;" x="0" y="163.22533345222473" dx="0em" dy="0.3em" fill="rgb(50, 49, 63)" stroke="none" stroke-width="1px">191</text><text style="text-anchor: end; visibility: hidden; font-family: &quot;Helvetica Neue&quot;, sans-serif; font-size: 12px; font-weight: 200;" x="0" y="148.38666677474976" dx="0em" dy="0.3em" fill="rgb(50, 49, 63)" stroke="none" stroke-width="1px">192</text><text style="text-anchor: end; visibility: inherit; font-family: &quot;Helvetica Neue&quot;, sans-serif; font-size: 12px; font-weight: 200;" x="0" y="133.54800009727478" dx="0em" dy="0.3em" fill="rgb(50, 49, 63)" stroke="none" stroke-width="1px">193</text><text style="text-anchor: end; visibility: hidden; font-family: &quot;Helvetica Neue&quot;, sans-serif; font-size: 12px; font-weight: 200;" x="0" y="118.7093334197998" dx="0em" dy="0.3em" fill="rgb(50, 49, 63)" stroke="none" stroke-width="1px">194</text><text style="text-anchor: end; visibility: inherit; font-family: &quot;Helvetica Neue&quot;, sans-serif; font-size: 12px; font-weight: 200;" x="0" y="103.87066674232483" dx="0em" dy="0.3em" fill="rgb(50, 49, 63)" stroke="none" stroke-width="1px">195</text><text style="text-anchor: end; visibility: hidden; font-family: &quot;Helvetica Neue&quot;, sans-serif; font-size: 12px; font-weight: 200;" x="0" y="89.03200006484985" dx="0em" dy="0.3em" fill="rgb(50, 49, 63)" stroke="none" stroke-width="1px">196</text><text style="text-anchor: end; visibility: inherit; font-family: &quot;Helvetica Neue&quot;, sans-serif; font-size: 12px; font-weight: 200;" x="0" y="74.19333338737488" dx="0em" dy="0.3em" fill="rgb(50, 49, 63)" stroke="none" stroke-width="1px">197</text><text style="text-anchor: end; visibility: hidden; font-family: &quot;Helvetica Neue&quot;, sans-serif; font-size: 12px; font-weight: 200;" x="0" y="59.3546667098999" dx="0em" dy="0.3em" fill="rgb(50, 49, 63)" stroke="none" stroke-width="1px">198</text><text style="text-anchor: end; visibility: inherit; font-family: &quot;Helvetica Neue&quot;, sans-serif; font-size: 12px; font-weight: 200;" x="0" y="44.51600003242493" dx="0em" dy="0.3em" fill="rgb(50, 49, 63)" stroke="none" stroke-width="1px">199</text><text style="text-anchor: end; visibility: hidden; font-family: &quot;Helvetica Neue&quot;, sans-serif; font-size: 12px; font-weight: 200;" x="0" y="29.67733335494995" dx="0em" dy="0.3em" fill="rgb(50, 49, 63)" stroke="none" stroke-width="1px">200</text><text style="text-anchor: end; visibility: inherit; font-family: &quot;Helvetica Neue&quot;, sans-serif; font-size: 12px; font-weight: 200;" x="0" y="14.838666677474976" dx="0em" dy="0.3em" fill="rgb(50, 49, 63)" stroke="none" stroke-width="1px">201</text><text style="text-anchor: end; visibility: hidden; font-family: &quot;Helvetica Neue&quot;, sans-serif; font-size: 12px; font-weight: 200;" x="0" y="0" dx="0em" dy="0.3em" fill="rgb(50, 49, 63)" stroke="none" stroke-width="1px">202</text></g><line x1="40.953999519348145" y1="0" x2="40.953999519348145" y2="178.0640001296997" fill="rgb(0, 0, 0)" stroke="rgb(204, 204, 204)" stroke-width="1px"></line></g></g><g transform="translate(40, 0)" clip-path="url(#clip_0)"><clipPath id="clip_0"><rect width="289" height="178"></rect></clipPath><g><g><g><line x1="0" y1="0" x2="0" y2="178.0640001296997" fill="rgb(0, 0, 0)" stroke="rgb(60, 60, 60)" stroke-width="1px" opacity="0.25"></line><line x1="24.087166706720986" y1="0" x2="24.087166706720986" y2="178.0640001296997" fill="rgb(0, 0, 0)" stroke="rgb(60, 60, 60)" stroke-width="1px" opacity="0.25"></line><line x1="48.17433341344197" y1="0" x2="48.17433341344197" y2="178.0640001296997" fill="rgb(0, 0, 0)" stroke="rgb(60, 60, 60)" stroke-width="1px" opacity="0.25"></line><line x1="72.26150012016296" y1="0" x2="72.26150012016296" y2="178.0640001296997" fill="rgb(0, 0, 0)" stroke="rgb(60, 60, 60)" stroke-width="1px" opacity="0.25"></line><line x1="96.34866682688394" y1="0" x2="96.34866682688394" y2="178.0640001296997" fill="rgb(0, 0, 0)" stroke="rgb(60, 60, 60)" stroke-width="1px" opacity="0.25"></line><line x1="120.43583353360495" y1="0" x2="120.43583353360495" y2="178.0640001296997" fill="rgb(0, 0, 0)" stroke="rgb(60, 60, 60)" stroke-width="1px" opacity="0.25"></line><line x1="144.52300024032593" y1="0" x2="144.52300024032593" y2="178.0640001296997" fill="rgb(0, 0, 0)" stroke="rgb(60, 60, 60)" stroke-width="1px" opacity="0.25"></line><line x1="168.61016694704693" y1="0" x2="168.61016694704693" y2="178.0640001296997" fill="rgb(0, 0, 0)" stroke="rgb(60, 60, 60)" stroke-width="1px" opacity="0.25"></line><line x1="192.69733365376788" y1="0" x2="192.69733365376788" y2="178.0640001296997" fill="rgb(0, 0, 0)" stroke="rgb(60, 60, 60)" stroke-width="1px" opacity="0.25"></line><line x1="216.7845003604889" y1="0" x2="216.7845003604889" y2="178.0640001296997" fill="rgb(0, 0, 0)" stroke="rgb(60, 60, 60)" stroke-width="1px" opacity="0.25"></line><line x1="240.8716670672099" y1="0" x2="240.8716670672099" y2="178.0640001296997" fill="rgb(0, 0, 0)" stroke="rgb(60, 60, 60)" stroke-width="1px" opacity="0.25"></line><line x1="264.95883377393085" y1="0" x2="264.95883377393085" y2="178.0640001296997" fill="rgb(0, 0, 0)" stroke="rgb(60, 60, 60)" stroke-width="1px" opacity="0.25"></line><line x1="289.04600048065186" y1="0" x2="289.04600048065186" y2="178.0640001296997" fill="rgb(0, 0, 0)" stroke="rgb(60, 60, 60)" stroke-width="1px" opacity="0.25"></line></g><g><line x1="0" y1="178.0640001296997" x2="289.04600048065186" y2="178.0640001296997" fill="rgb(0, 0, 0)" stroke="rgb(60, 60, 60)" stroke-width="1px" opacity="0.25"></line><line x1="0" y1="163.22533345222473" x2="289.04600048065186" y2="163.22533345222473" fill="rgb(0, 0, 0)" stroke="rgb(60, 60, 60)" stroke-width="1px" opacity="0.25"></line><line x1="0" y1="148.38666677474976" x2="289.04600048065186" y2="148.38666677474976" fill="rgb(0, 0, 0)" stroke="rgb(60, 60, 60)" stroke-width="1px" opacity="0.25"></line><line x1="0" y1="133.54800009727478" x2="289.04600048065186" y2="133.54800009727478" fill="rgb(0, 0, 0)" stroke="rgb(60, 60, 60)" stroke-width="1px" opacity="0.25"></line><line x1="0" y1="118.7093334197998" x2="289.04600048065186" y2="118.7093334197998" fill="rgb(0, 0, 0)" stroke="rgb(60, 60, 60)" stroke-width="1px" opacity="0.25"></line><line x1="0" y1="103.87066674232483" x2="289.04600048065186" y2="103.87066674232483" fill="rgb(0, 0, 0)" stroke="rgb(60, 60, 60)" stroke-width="1px" opacity="0.25"></line><line x1="0" y1="89.03200006484985" x2="289.04600048065186" y2="89.03200006484985" fill="rgb(0, 0, 0)" stroke="rgb(60, 60, 60)" stroke-width="1px" opacity="0.25"></line><line x1="0" y1="74.19333338737488" x2="289.04600048065186" y2="74.19333338737488" fill="rgb(0, 0, 0)" stroke="rgb(60, 60, 60)" stroke-width="1px" opacity="0.25"></line><line x1="0" y1="59.3546667098999" x2="289.04600048065186" y2="59.3546667098999" fill="rgb(0, 0, 0)" stroke="rgb(60, 60, 60)" stroke-width="1px" opacity="0.25"></line><line x1="0" y1="44.51600003242493" x2="289.04600048065186" y2="44.51600003242493" fill="rgb(0, 0, 0)" stroke="rgb(60, 60, 60)" stroke-width="1px" opacity="0.25"></line><line x1="0" y1="29.67733335494995" x2="289.04600048065186" y2="29.67733335494995" fill="rgb(0, 0, 0)" stroke="rgb(60, 60, 60)" stroke-width="1px" opacity="0.25"></line><line x1="0" y1="14.838666677474976" x2="289.04600048065186" y2="14.838666677474976" fill="rgb(0, 0, 0)" stroke="rgb(60, 60, 60)" stroke-width="1px" opacity="0.25"></line><line x1="0" y1="0" x2="289.04600048065186" y2="0" fill="rgb(0, 0, 0)" stroke="rgb(60, 60, 60)" stroke-width="1px" opacity="0.25"></line></g></g></g><g><g><line x1="0" y1="2997.410668849945" x2="289.04600048065186" y2="2997.410668849945" fill="rgb(0, 0, 0)" stroke="rgb(153, 153, 153)" stroke-width="1.5px"></line></g></g><g><g><line x1="24.087166706720986" y1="0" x2="24.087166706720986" y2="178.0640001296997" fill="rgb(0, 0, 0)" stroke="rgb(153, 153, 153)" stroke-width="1.5px"></line></g></g><g><g><g><g><g><path style="fill: none;" stroke="rgb(255, 112, 67)" stroke-width="2px" d="M34.73369439109167,230.93342422224248L34.80595589121183,150.43098556883592L35.16726339181265,102.12952385294537L35.23952489193281,73.14864735482605L35.263612058639524,55.760121647263944L35.504483725706734,45.327006291598025L35.962139893134434,430.80793826109715L36.46797039397558,270.3556960841541L36.87745222798983,174.0843509152582L36.99788806152344,116.32154386333791L37.64824156260491,81.66385964997558L37.88911322967211,60.86924912836308L38.03363622991244,48.39248281770105L38.202246396859486,40.90642303213383L38.22633356356621,36.414787161092335L39.021210064888,33.719805638574826L39.06938439830144,32.10281672510328L39.35843039878209,31.13262337703418L39.527040565729145,30.5505073681978L39.551127732435866,30.201237762898245L39.59930206584931,29.99167599971824L39.67156356596947,29.865938941810924L39.719737899382906,29.79049670706698L40.00878389986356,29.745231366219883L40.24965556693078,29.718072161712428L41.285403735319775,29.701776639007534L41.47810106897354,29.6919993253845L41.670798402627305,29.68613293721043L41.887582902987795,29.682613104306398L42.20071607017517,35.615967875553736L42.29706473700206,104.46611411919287L42.51384923736255,199.19540190428583L42.61019790418943,261.96844124633174L42.658372237602876,169.05199808977846L42.70654657101631,148.91493222178724L42.87515673796336,101.21989267505249L42.995592571496964,72.6028689470114L43.043766904910406,55.432654710187066L43.16420273844401,45.13052616809205L43.21237707185745,38.94924904283539L43.30872573868434,35.240482767681215L43.40507440551122,33.015223002588954L43.54959740575155,31.68006714353345L43.57368457245827,30.878973628099885L44.127689406712854,30.398317518839747L44.22403807353973,30.109923853283817L45.018914574861526,29.936887653950606L45.18752474180857,29.833065934350515L45.3320477420489,29.770772902590124L45.669268075942995,29.733397083534385L45.76561674276987,29.710971592100606L45.93422690971693,29.697516297240185L45.98240124313036,29.689443120324086L46.17509857678414,29.684599214174256L46.51231891067823,29.68169287048471L46.53640607738495,29.679949064271142L46.77727774445216,29.678902780543012L46.84953924457232,29.678275010305867L47.06632374493281,29.67789834816358L47.25902107858658,29.67767235087848L47.47580557894707,29.677536752507393L47.49989274565379,29.677455393484763L47.644415745894115,29.67740657807093L47.66850291260083,29.677377288822612L47.78893874613444,29.67735971527364L48.22250774685542,29.67734917114433L48.294769246975584,29.677342844666583L48.51155374733607,29.67733904878017L49.2341687485377,29.67733677124818L49.54730191572507,29.67733540472912L49.6918249159654,29.677334584817544L49.76408641608556,29.67733409287058L49.812260749499,29.677333797702175L49.90860941632589,29.677333620601615L50.053132416566214,29.677333514340773L50.17356825009982,29.677333450584626L50.41443991716703,29.67733341233108L50.55896291740736,29.67733338937873L50.67939875094096,29.67733337560722L50.920270418008165,29.677333367344488L51.93193141969045,29.677333362386918L52.028280086517334,29.67733335941196L52.052367253224055,29.677333357627163L52.076454419930776,29.677333356556346L52.510023420651756,29.677333355914044L52.82315658783912,29.67733335552859L53.136289755026496,29.677333355297463L53.762556089401244,29.677333355158282L54.0516020898819,29.67733335507478L54.31656092365583,29.67733335502504L54.38882242377599,29.677333354995085L54.461083923896155,29.677333354976952L54.94282725803057,29.67733335496598L55.087350258270895,29.677333354959643L55.25596042521795,29.677333354955863L55.400483425458276,29.677333354953333L55.785878092765806,29.677333354952054L55.85813959288597,29.6773333549512L56.1230984266599,29.677333354950804L56.195359926780064,29.677333354950804L56.26762142690023,29.677333354950804L56.29170859360695,29.677333354950804L57.44789259552956,29.677333354950804L57.52015409564972,29.677333354950804L57.592415595769886,29.677333354950804L57.61650276247661,29.677333354950804L58.14642043002446,29.677333354950804L58.435466430505116,29.677333354950804L58.676338097572334,29.677333354950804L58.77268676439921,29.677333354950804L59.37486593206724,29.677333354950804L59.39895309877395,29.677333354950804L59.66391193254789,29.677333354950804L59.85660926620166,29.677333354950804L59.952957933028536,29.677333354950804L60.001132266441985,29.677333354950804L60.77192160105705,29.677333354950804L60.86827026788394,29.677333354950804L61.47044943555196,29.677333354950804L61.85584410285949,29.677333354950804L61.879931269566214,29.677333354950804L62.24123877016703,29.677333354950804L62.33758743699392,29.677333354950804L62.72298210430145,29.677333354950804L62.74706927100817,29.677333354950804L63.276986938556036,29.677333354950804L63.39742277208964,29.677333354950804L63.517858605623246,29.677333354950804L63.59012010574341,29.677333354950804L63.710555939277015,29.677333354950804L63.78281743939718,29.677333354950804L64.07186343987783,29.677333354950804L64.2645607735316,29.677333354950804L64.43317094047865,94.96746673584035L64.6017811074257,169.75434679031412L64.81856560778618,113.72354141616844L64.91491427461307,80.10505819168104L64.96308860802651,59.933968256988535L65.01126294143994,47.831314296173446L65.0835244415601,40.56972191968413L65.25213460850716,36.21276649379044L65.46891910886765,33.59859323825418L65.70979077593485,32.03008928493267L65.80613944276173,31.088986912939646L65.85431377617518,30.52432548974403L65.92657527629534,30.185528635826216L66.04701110982896,29.98225052347607L66.11927260994912,29.860283656065604L66.14335977665583,29.787103535619337L66.62510311079025,29.743195463351412L66.84188761115074,29.716850619990907L66.98641061139107,29.70104371397477L67.15502077833811,29.6915595703652L67.17910794504483,29.68586908419917L67.39589244540532,89.03712150239964L67.56450261235237,65.29320624341985L68.07033311319351,51.04685708803214L68.1666817800204,42.499047594799265L68.40755344708761,37.37036189885973L68.50390211391449,34.293150481295896L68.72068661427498,32.44682363075768L69.03381978146236,31.33902752043457L69.10608128158252,30.674349854240972L69.25060428182285,65.88834328046418L69.29877861523627,51.40393931025882L70.1177422832648,113.93889698001516L70.26226528350513,323.58840504057855L71.8520182861487,234.38809256933797L72.28558728686968,152.50378888358276L72.38193595369657,103.37320667212998L72.57463328735034,73.89485734525779L72.9841151213646,56.207847749135L73.12863812160492,45.59564199146115L73.70673012256623,39.22831853685665L74.0198632897536,35.40792446409415L74.09212478987376,33.115688020436295L74.11621195658049,31.74034615424185L74.16438628999393,30.915141034525078L74.21256062340736,30.420017962694942L74.30890929023424,30.122944119597292L74.40525795706114,29.94469981373868L74.57386812400819,29.83775323022337L74.93517562460899,29.773585280114332L75.7541392926375,29.735084510048665L75.8504879594644,29.711984048009413L76.01909812641144,29.69812377078597L76.23588262677193,29.689807604451573L76.52492862725258,29.684817904651L76.76580029431979,29.681824084770767L76.81397462773323,29.680027792842367L76.86214896114667,29.678950017685395L76.98258479468026,29.6783033525912L77.05484629480044,29.677915353534786L77.24754362845421,29.677682554100784L77.3438922952811,29.677542874440263L77.82563562941552,41.548392408624466L77.94607146294912,36.799968787154484L77.97015862965584,33.950914614272676L78.01833296306928,32.24148211054393L78.09059446318945,31.215822608306325L78.18694313001633,30.600426906963776L78.21103029672305,30.231189486158087L78.3796404636701,160.58991379545478L78.45190196379025,108.22488161925301L78.57233779732385,76.80586231353179L79.02999396475155,57.954450730098884L79.27086563181876,46.643603780039655L79.41538863205909,39.85709561000377L79.55991163229942,35.78519070798234L79.65626029912632,33.34204776676938L79.94530629960697,31.876162002041696L79.96939346631368,30.996630543205328L80.5715726339817,30.468911667903L80.7883571343422,30.15228034272178L81.63140796907743,29.962301547613123L81.65549513578414,29.848314270547945L81.70366946919759,29.77992190430882L82.76350480429332,29.73888648456554L82.95620213794707,29.71426523271947L83.12481230489414,29.699492481611827L83.17298663830758,29.690628830946906L83.221160971721,29.685310640548295L83.34159680525461,29.68211972630914L83.94377597292264,29.680205177765544L83.96786313962936,29.679056448639216L84.20873480669657,29.678367211163845L84.25690914011001,29.67795366867864L84.37734497364362,29.6777055431875L84.71456530753771,29.677556667892816L84.85908830777804,29.677467342716L85.07587280813853,29.67741374760959L85.43718030873934,29.677381590545565L85.53352897556623,29.67736229630765L85.58170330897967,29.677350719764917L86.1838824766477,29.677343773839254L86.47292847712835,29.67733960628371L86.71380014419556,29.677337105750212L86.85832314443589,29.677335605430272L87.26780497845014,29.67733470523831L87.41232797869047,29.677334165123142L87.43641514539718,29.677333841053695L87.77363547929127,29.677333646612027L87.9181584795316,29.677333529947276L88.0385943130652,29.677333459948528L88.59259914731979,29.677333417949086L88.76120931426684,29.677333392749688L88.88164514780044,29.67733337762988L89.19477831498781,29.67733336855784L89.36338848193486,29.677333363114855L89.72469598253568,29.677333359848888L90.01374198301633,29.677333357889495L90.0860034831365,29.67733335671366L90.42322381703059,29.677333356008518L91.26627465176581,29.67733335558509L91.29036181847255,29.6773333553312L91.31444898517927,29.677333355178547L91.74801798590025,29.677333355087427L92.10932548650105,29.67733335503263L93.26550948842366,29.677333354999718L93.48229398878416,29.677333354979908L93.69907848914464,29.677333354968084L93.84360148938497,29.677333354960922L94.34943199022612,29.677333354956716L94.39760632363955,29.677333354954186L94.42169349034627,29.67733335495248L95.55379032556216,29.677333354951656L95.74648765921593,29.677333354950804L96.30049249347051,29.677333354950804L96.51727699383099,29.677333354950804L96.61362566065787,29.677333354950804L96.70997432748477,29.677333354950804L96.99902032796543,29.677333354950804L97.07128182808557,29.677333354950804L97.26397916173936,29.677333354950804L97.3362406618595,29.677333354950804L97.91433266282081,29.677333354950804L98.01068132964771,29.677333354950804L98.05885566306114,29.677333354950804L98.73329633084933,142.4512001037601L99.28730116510393,97.34165340423587L99.64860866570473,70.27592538452133L99.8413059993585,54.03648857269262L99.9617418328921,44.292826485595725L100.08217766642571,38.446629233337575L100.22670066666603,34.93891088198251L100.61209533397357,32.83427987116983L101.04566433469455,31.57150126468207L101.06975150140127,30.813834100789308L101.23836166834832,30.359233802453645L101.31062316846847,30.08647362345249L101.88871516942977,29.92281751605148L101.96097666954995,29.82462385161071L102.12958683649698,29.765707652946475L102.20184833661716,29.730357933747797L102.22593550332388,29.709148102228482L102.27410983673731,29.69642220331741L102.29819700344403,29.688786663970262L102.90037617111206,29.684205340362297L103.11716067147255,29.681456546197353L103.69525267243385,29.679807269698728L103.88795000608762,29.678817703799297L104.2251703399817,29.678223964259644L104.24925750668844,29.677867720535602L104.65873934070268,29.67765397430142L105.35726717519759,29.67752572656093L105.40544150861103,29.67744877791671L105.64631317567824,29.677402608730347L106.05579500969252,29.677374907218166L106.17623084322612,29.67735828631089L106.70614851077397,29.6773483137666L106.89884584442775,29.677342330240037L107.16380467820169,29.67733874012407L107.21197901161511,29.677336586054423L107.38058917856216,29.6773352936128L107.52511217880249,29.677334518147575L107.69372234574953,29.67733405286853L107.83824534598986,29.677333773700923L107.91050684611002,29.677333606200875L108.3199886801243,29.677333505700602L108.60903468060492,29.677333445400592L108.6812961807251,29.677333409220324L108.84990634767215,29.677333387512505L109.23530101497968,29.67733337448749L109.28347534839313,29.677333366672656L109.42799834863345,29.677333361983756L109.52434701546034,29.67733335917032L109.90974168276786,29.677333357482098L110.31922351678212,29.677333356469063L110.80096685091655,29.677333355861748L111.23453585163753,29.67733335549738L111.28271018505097,29.677333355278478L111.3308845184644,29.67733335514731L111.40314601858458,29.67733335506847L111.47540751870473,29.677333355021233L111.88488935271899,29.677333354992953L112.14984818649292,29.6773333549761L112.48706852038701,29.67733335496598L113.20968352158864,29.677333354959643L113.25785785500207,29.677333354955863L113.83594985596338,29.677333354953333L113.93229852279028,29.677333354952054L113.9804728562037,29.6773333549512L114.12499585644403,29.677333354950804L114.19725735656421,29.677333354950804L114.24543168997765,29.677333354950804L114.46221619033814,29.677333354950804L114.63082635728519,29.677333354950804L114.94395952447256,29.677333354950804L115.13665685812632,29.677333354950804L115.44979002531369,29.677333354950804L115.49796435872715,29.677333354950804L115.5702258588473,29.677333354950804L115.95562052615483,29.677333354950804L116.07605635968845,29.677333354950804L116.12423069310188,29.677333354950804L116.3651023601691,29.677333354950804L116.46145102699597,29.677333354950804L117.15997886149088,29.677333354950804L117.28041469502449,29.677333354950804L117.44902486197154,29.677333354950804L118.50886019706725,29.677333354950804L118.70155753072103,29.677333354950804L118.87016769766808,29.677333354950804L118.96651636449496,29.677333354950804L119.23147519826888,29.677333354950804L119.37599819850921,29.677333354950804L119.52052119874953,29.677333354950804L120.0504388662974,29.677333354950804L120.31539770007134,29.677333354950804L120.43583353360495,29.677333354950804L120.65261803396542,29.677333354950804L120.67670520067215,29.677333354950804L120.9657512011528,29.677333354950804L121.23071003492673,35.61280002594046L121.30297153504691,33.23861335754407L121.5438432021141,31.814101356506427L122.67594003733,30.959394155884183L122.7963758708636,30.446569835510672L122.82046303757032,30.13887524328655L123.06133470463753,29.954258487952245L124.81969787422817,29.843488434751663L125.0846567080021,29.777026402830813L125.10874387470882,29.73714918367881L125.15691820812225,29.713222852187442L125.20509254153569,29.69886705329253L125.27735404165585,29.690253573955488L125.30144120836258,29.685085486353188L125.9036203760306,29.6819846337919L126.02405620956421,29.68012412225545L126.09631770968439,29.67900781533325L126.28901504333814,29.678338031180004L126.55397387711207,29.67793616068792L126.77075837747256,29.677695038393068L126.84301987759272,29.677550365015662L126.86710704429944,29.677463560989537L127.22841454490026,29.677411478573532L127.6138092122078,29.677380229124083L127.75833221244812,29.677361479454532L127.85468087927501,29.677350229652944L128.0714653796355,29.677343479771594L128.11963971304894,29.67733942984276L128.33642421340943,29.677336999885824L128.4327728802363,29.67733554191156L128.69773171401025,29.6773346671269L129.323998048385,29.67733414225637L129.54078254874548,29.677333827333626L129.9020900493463,29.677333638380503L130.07070021629335,29.677333525008265L130.21522321653367,29.67733345698494L130.31157188336053,29.677333416171024L130.33565905006728,29.67733339168268L130.79331521749498,29.67733337698968L130.8655767176151,29.677333368174033L131.73271471905707,29.677333362884582L131.8772377192974,29.67733335971056L132.23854521989824,29.67733335780639L132.28671955331166,29.677333356663894L132.6962013873259,29.677333355978163L132.72028855403263,29.677333355566958L133.17794472146034,29.67733335532023L133.20203188816706,29.67733335517221L133.27429338828722,29.67733335508322L133.4910778886477,29.6773333550301L133.75603672242164,29.677333354998012L134.35821589008967,29.67733335497863L134.43047739020983,29.67733335496723L134.69543622398376,29.677333354960496L134.76769772410393,29.67733335495626L134.81587205751737,29.67733335495373L134.8640463909308,29.67733335495248L135.15309239141146,29.677333354951656L135.56257422542572,29.677333354950804L136.06840472626686,29.677333354950804L136.2370148932139,29.677333354950804L136.42971222686768,29.677333354950804L136.52606089369456,29.677333354950804L136.6946710606416,29.677333354950804L136.71875822734833,29.677333354950804L136.74284539405505,29.677333354950804L136.98371706112226,29.677333354950804L137.609983395497,29.677333354950804L137.73041922903062,29.677333354950804L138.11581389633815,29.677333354950804L138.38077273011208,29.677333354950804L138.47712139693897,29.677333354950804L138.5012085636457,29.677333354950804L138.69390589729946,29.677333354950804L138.83842889753979,29.677333354950804L138.91069039765992,29.677333354950804L139.12747489802044,29.677333354950804L139.22382356484732,29.677333354950804L139.39243373179437,29.677333354950804L139.4165208985011,29.677333354950804L139.56104389874142,29.677333354950804L139.70556689898174,29.677333354950804L139.75374123239516,29.677333354950804L139.82600273251535,29.677333354950804L140.6690535672506,29.677333354950804L140.95809956773124,29.677333354950804L141.41575573515894,29.677333354950804L141.46393006857235,29.677333354950804L141.9697605694135,29.677333354950804L142.45150390354792,29.677333354950804L143.02959590450922,29.677333354950804L143.10185740462938,29.677333354950804L143.41499057181676,29.677333354950804L143.60768790547053,29.677333354950804L143.82447240583102,29.677333354950804L143.89673390595118,29.677333354950804L143.94490823936462,29.677333354950804L143.96899540607134,29.677333354950804L145.02883074116707,29.677333354950804L145.1733537414074,29.677333354950804L145.24561524152753,29.677333354950804L145.4142254084746,29.677333354950804L145.72735857566198,29.677333354950804L145.77553290907542,29.677333354950804L145.79962007578212,29.677333354950804L145.9682302427292,29.677333354950804L146.40179924345014,29.677333354950804L146.95580407770473,29.677333354950804L147.07623991123836,29.677333354950804L147.55798324537275,29.677333354950804L147.60615757878622,29.677333354950804L147.75068057902655,29.677333354950804L148.37694691340127,29.677333354950804L148.4973827469349,29.677333354950804L148.90686458094913,29.677333354950804L149.34043358167014,29.677333354950804L149.53313091532388,29.677333354950804L150.08713574957847,29.677333354950804L150.18348441640535,29.677333354950804L150.27983308323226,29.677333354950804L150.30392024993898,29.677333354950804L150.9301865843137,29.677333354950804L151.4841914185683,29.677333354950804L152.1827192530632,29.677333354950804L152.44767808683713,29.677333354950804L152.8330727541447,29.677333354950804L153.17029308803876,29.677333354950804L153.19438025474548,29.677333354950804L153.6761235888799,29.677333354950804L154.25421558984118,29.677333354950804L154.63961025714875,29.677333354950804L155.09726642457645,29.677333354950804L155.1695279246966,29.677333354950804L155.28996375823021,29.677333354950804L156.1811889263789,29.677333354950804L156.34979909332594,29.677333354950804L156.44614776015283,29.677333354950804L156.59067076039312,29.677333354950804L156.73519376063348,29.677333354950804L156.85562959416706,29.677333354950804L156.92789109428725,29.677333354950804L156.9760654277007,29.677333354950804L157.554157428662,29.677333354950804L157.74685476231573,29.677333354950804L158.15633659633002,118.70933341980066L158.2767724298636,83.0965333938602L158.32494676327704,61.72885337829628L158.6139927637577,48.908245368957836L158.66216709717116,41.2158805633546L158.80669009741146,36.60046167999292L159.09573609789211,33.83121034997589L159.21617193142572,32.16965955196551L159.45704359849293,31.172729073159474L159.69791526556014,30.574570785876006L160.37235593334833,30.215675813505413L160.4205302667618,30.000338830083052L160.51687893358866,29.87113664003016L160.87818643418947,29.79361532599816L161.86576026916507,29.74710253757911L161.9380217692852,29.719194864527452L162.37159077000618,29.702450260696537L162.80515977072716,29.692403498397994L163.21464160474142,29.686375441018868L163.28690310486155,29.682758606591534L163.40733893839518,29.680588505934992L163.5277747719288,29.679286445541237L163.96134377264977,29.678505209304546L163.9854309393565,29.67803646756306L164.39491277337075,29.677755222518158L164.46717427349088,29.6775864754907L164.63578444043796,29.67748522727439L165.2861379415194,29.67742447834462L165.33431227493284,29.67738802898694L165.50292244187992,29.677366159372212L165.93649144260087,29.677353037603496L166.15327594296136,29.677345164542146L166.37006044332188,29.67734044070528L166.6109321103891,29.677337606403142L166.87589094416302,29.677335905821963L166.97223961098987,29.677334885473243L166.9963267776966,29.67733427326411L167.45398294512432,29.67733390593844L167.5744187786579,29.677333685542862L167.62259311207134,29.6773335533058L167.71894177889826,29.677333473963387L167.93572627925872,29.67733342635819L168.36929527997972,29.677333397794968L168.85103861411412,29.67733338065713L168.97147444764772,29.677333370374242L169.18825894800824,29.677333364204628L169.33278194824854,29.677333360502587L169.35686911495526,29.677333358281714L169.45321778178217,29.677333356948992L169.5254792819023,29.677333356149376L170.0553969494502,29.677333355669447L170.48896595017115,29.67733335538182L170.58531461699803,29.6773333552089L170.70575045053164,29.677333355105162L171.09114511783918,29.677333355043146L171.13931945125262,29.677333355006056L171.38019111831983,29.677333354983688L171.52471411856015,29.677333354970187L171.5728884519736,29.677333354962173L171.71741145221392,29.67733335495754L171.76558578562734,29.677333354954584L171.8137601190408,29.677333354952907L172.10280611952146,29.677333354951656L172.1509804529349,29.677333354950804L172.19915478634834,29.677333354950804L172.75315962060293,29.677333354950804L172.96994412096342,29.677333354950804L173.04220562108358,29.677333354950804L173.42760028839112,29.677333354950804L173.69255912216505,29.677333354950804L173.74073345557846,29.677333354950804L173.88525645581882,29.677333354950804L174.1983896230062,29.677333354950804L174.31882545653977,29.677333354950804L174.48743562348685,29.677333354950804L174.63195862372714,29.677333354950804L174.94509179091452,29.677333354950804L175.5713581252893,29.677333354950804L176.12536295954385,29.677333354950804L176.22171162637076,29.677333354950804L176.24579879307748,29.677333354950804L176.4144089600245,29.677333354950804L176.8238907940388,29.677333354950804L177.08884962781272,29.677333354950804L177.35380846158665,29.677333354950804L177.52241862853367,29.677333354950804L177.66694162877403,29.677333354950804L178.24503362973533,29.677333354950804L179.56982779860496,29.677333354950804L179.66617646543187,29.677333354950804L179.97930963261922,29.677333354950804L180.34061713322004,29.677333354950804L180.5333144668738,29.677333354950804L180.55740163358053,29.677333354950804L180.6537503004074,29.677333354950804L180.89462196747462,29.677333354950804L181.13549363454183,29.677333354950804L181.15958080124855,29.677333354950804L181.18366796795527,29.677333354950804L181.376365301609,29.677333354950804L181.85810863574346,29.677333354950804L182.43620063670477,29.677333354950804L182.60481080365182,29.677333354950804L182.67707230377198,29.677333354950804L182.9179439708392,29.677333354950804L183.13472847119968,29.677333354950804L183.20698997131984,29.677333354950804L183.44786163838705,29.677333354950804L183.56829747192066,29.677333354950804L184.43543547336262,29.677333354950804L184.6522199737231,29.677333354950804L184.70039430713655,29.677333354950804L184.7967429739634,29.677333354950804L184.94126597420376,29.677333354950804L185.01352747432392,29.677333354950804L185.18213764127097,29.677333354950804L185.3748349749247,29.677333354950804L185.44709647504487,29.677333354950804L185.63979380869864,29.677333354950804L185.73614247552553,29.677333354950804L185.83249114235244,29.677333354950804L186.38649597660702,29.677333354950804L186.48284464343388,29.677333354950804L186.65145481038095,29.677333354950804L186.7478034772078,29.677333354950804L187.01276231098174,29.677333354950804L187.3018083114624,29.677333354950804L187.68720297876993,29.677333354950804L188.28938214643796,29.677333354950804L188.65068964703877,29.677333354950804L188.9879099809329,29.677333354950804L189.18060731458664,29.677333354950804L189.3733046482404,29.677333354950804L189.51782764848073,29.677333354950804L189.54191481518748,29.677333354950804L190.1681811495622,29.677333354950804L190.5054014834563,29.677333354950804L191.10758065112432,29.677333354950804L191.51706248513855,29.677333354950804L191.8061084856192,29.677333354950804L191.8783699857394,29.677333354950804L192.02289298597972,29.677333354950804L192.4564619867007,29.677333354950804L192.50463632011414,29.677333354950804L192.9382053208351,29.677333354950804L193.03455398766198,29.677333354950804L193.54038448850312,29.677333354950804L193.63673315533003,29.677333354950804L193.80534332227705,29.677333354950804L194.11847648946443,29.677333354950804L194.26299948970478,29.677333354950804L194.60021982359888,29.677333354950804L194.88926582407953,29.677333354950804L195.25057332468032,29.677333354950804L195.44327065833411,29.677333354950804L195.46735782504084,29.677333354950804L195.9972754925887,29.677333354950804L196.09362415941555,29.677333354950804L196.43084449330965,29.677333354950804L196.7198904937903,29.677333354950804L196.74397766049702,29.677333354950804L196.91258782744407,29.677333354950804L197.24980816133817,29.677333354950804L197.3943311615785,29.677333354950804L197.56294132852554,29.677333354950804L197.61111566193898,29.677333354950804L197.82790016229947,29.677333354950804L197.8760744957129,29.677333354950804L197.90016166241963,29.677333354950804L198.35781782984733,29.677333354950804L198.4300793299675,29.677333354950804L198.646863830328,29.677333354950804L198.95999699751536,29.677333354950804L199.53808899847667,29.677333354950804L199.9234836657842,29.677333354950804L200.18844249955814,29.677333354950804L200.62201150027911,29.677333354950804L200.8628831673463,29.677333354950804L200.88697033405302,29.677333354950804L201.03149333429337,29.677333354950804L201.20010350124042,29.677333354950804L201.2964521680673,29.677333354950804L201.32053933477403,29.677333354950804L201.34462650148075,29.677333354950804L201.8745441690286,29.677333354950804L201.89863133573533,29.677333354950804L201.9949800025622,29.677333354950804L202.04315433597563,29.677333354950804L202.25993883633612,29.677333354950804L202.356287503163,29.677333354950804L203.05481533765794,29.677333354950804L203.07890250436466,29.677333354950804L203.29568700472515,29.677333354950804L203.36794850484532,29.677333354950804L203.53655867179236,29.677333354950804L203.77743033885955,29.677333354950804L203.80151750556627,29.677333354950804L203.84969183897974,29.677333354950804L203.9701276725133,29.677333354950804L204.11465067275367,29.677333354950804L204.21099933958055,29.677333354950804L204.25917367299397,29.677333354950804L204.6445683403015,29.677333354950804L204.78909134054186,29.677333354950804L204.81317850724855,29.677333354950804L205.00587584090235,29.677333354950804L205.46353200833002,29.677333354950804L205.8730138423443,29.677333354950804L206.49928017671903,29.677333354950804L207.05328501097364,29.677333354950804L207.36641817816098,29.677333354950804L207.43867967828115,29.677333354950804L208.18538184618947,29.677333354950804L208.20946901289622,29.677333354950804L208.59486368020376,29.677333354950804L208.61895084691048,29.677333354950804L208.8598225139777,29.677333354950804L208.93208401409785,29.677333354950804L208.9802583475113,29.677333354950804L209.24521718128523,29.677333354950804L209.38974018152555,29.677333354950804L209.46200168164572,29.677333354950804L209.5583503484726,29.677333354950804L209.99191934919358,29.677333354950804L210.0160065159003,29.677333354950804L210.11235518272719,29.677333354950804L210.18461668284732,29.677333354950804L210.2327910162608,29.677333354950804L210.57001135015489,29.677333354950804L210.66636001698177,29.677333354950804L210.9313188507557,29.677333354950804L211.00358035087584,29.677333354950804L211.4853236850103,29.677333354950804L211.67802101866403,29.677333354950804L211.91889268573124,29.677333354950804L211.94297985243796,29.677333354950804L212.2079386862119,29.677333354950804L212.76194352046647,29.677333354950804L212.8823793540001,29.677333354950804L213.29186118801434,29.677333354950804L214.3516965231101,29.677333354950804L214.3757836898168,29.677333354950804L214.47213235664367,29.677333354950804L214.56848102347055,29.677333354950804L215.00205002419153,29.677333354950804L215.14657302443186,29.677333354950804L216.18232119282087,29.677333354950804L216.37501852647466,29.677333354950804L216.5677158601284,29.677333354950804L216.59180302683512,29.677333354950804L217.00128486084938,29.677333354950804L217.31441802803676,29.677333354950804L217.41076669486364,29.677333354950804L217.67572552863757,29.677333354950804L217.96477152911822,29.677333354950804L218.0370330292384,29.677333354950804L218.0852073626518,29.677333354950804L218.1815560294787,29.677333354950804L218.37425336313245,29.677333354950804L219.81948336553572,29.677333354950804L219.96400636577607,29.677333354950804L219.9880935324828,29.677333354950804L220.39757536649702,29.677333354950804L220.5661855334441,29.677333354950804L221.12019036769868,29.677333354950804L221.21653903452554,29.677333354950804L221.48149786829947,29.677333354950804L221.55375936841963,29.677333354950804L221.96324120243392,29.677333354950804L222.10776420267422,29.677333354950804L222.4208973698616,29.677333354950804L222.902640703996,29.677333354950804L223.11942520435653,29.677333354950804L223.50481987166404,29.677333354950804L223.55299420507748,29.677333354950804L223.76977870543797,29.677333354950804L223.9865632057985,29.677333354950804L224.17926053945223,29.677333354950804L224.66100387358665,29.677333354950804L224.7091782070001,29.677333354950804L224.78143970712026,29.677333354950804L224.82961404053373,29.677333354950804L224.97413704077402,29.677333354950804L225.26318304125468,29.677333354950804L225.2872702079614,29.677333354950804L225.45588037490845,29.677333354950804L225.5281418750286,29.677333354950804L225.64857770856221,29.677333354950804L225.81718787550926,29.677333354950804L225.8653622089227,29.677333354950804L227.09380771096545,29.677333354950804L227.3587665447394,29.677333354950804L227.43102804485957,29.677333354950804L227.55146387839318,29.677333354950804L227.9368585457007,29.677333354950804L228.0332072125276,29.677333354950804L228.05729437923432,29.677333354950804L228.10546871264776,29.677333354950804L228.34634037971497,29.677333354950804L228.44268904654186,29.677333354950804L228.5390377133687,29.677333354950804L228.75582221372923,29.677333354950804L228.77990938043592,29.677333354950804L228.90034521396956,29.677333354950804L228.99669388079644,29.677333354950804L229.02078104750316,29.677333354950804L229.38208854810395,29.677333354950804L230.12879071601233,29.677333354950804L230.41783671649299,29.677333354950804L230.58644688344,29.677333354950804L230.70688271697364,29.677333354950804L231.0441030508677,29.677333354950804L231.26088755122822,29.677333354950804L231.622195051829,29.677333354950804L231.88715388560297,29.677333354950804L232.05576405255,29.677333354950804L232.0798512192567,29.677333354950804L232.2966357196172,29.677333354950804L233.2119480544726,29.677333354950804L233.2842095545928,29.677333354950804L233.3323838880062,29.677333354950804L233.40464538812637,29.677333354950804L233.4287325548331,29.677333354950804L233.52508122165997,29.677333354950804L234.29587055627505,29.677333354950804L234.63309089016914,29.677333354950804L235.28344439125058,29.677333354950804L235.42796739149094,29.677333354950804L235.52431605831782,29.677333354950804L235.9578850590388,29.677333354950804L236.0783208925724,29.677333354950804L236.4396283931732,29.677333354950804L236.5118898932934,29.677333354950804L236.58415139341355,29.677333354950804L237.0899818942547,29.677333354950804L237.35494072802862,29.677333354950804L237.668073895216,29.677333354950804L237.69216106192272,29.677333354950804L237.93303272898993,29.677333354950804L238.0052942291101,29.677333354950804L238.10164289593695,29.677333354950804L238.51112472995123,29.677333354950804L238.55929906336468,29.677333354950804L238.63156056348484,29.677333354950804L239.13739106432598,29.677333354950804L239.18556539773942,29.677333354950804L239.306001231273,29.677333354950804L239.57096006504693,29.677333354950804L239.76365739870073,29.677333354950804L239.86000606552759,29.677333354950804L240.26948789954187,29.677333354950804L240.41401089978217,29.677333354950804L240.65488256684938,29.677333354950804L240.70305690026282,29.677333354950804L240.84757990050318,29.677333354950804L240.96801573403675,29.677333354950804L241.08845156757036,29.677333354950804L241.16071306769055,29.677333354950804L241.52202056829134,29.677333354950804L241.54610773499806,29.677333354950804L242.19646123607953,29.677333354950804L242.3891585697333,29.677333354950804L242.6300302368005,29.677333354950804L242.89498907057447,29.677333354950804L243.40081957141558,29.677333354950804L243.81030140542984,29.677333354950804L243.83438857213656,29.677333354950804L244.6051779067516,29.677333354950804L244.62926507345836,29.677333354950804L244.77378807369868,29.677333354950804L246.02632074244815,29.677333354950804L246.07449507586162,29.677333354950804L246.24310524280867,29.677333354950804L246.3153667429288,29.677333354950804L246.48397690987588,29.677333354950804L247.13433041095732,29.677333354950804L247.6401609117985,29.677333354950804L247.8810325788657,29.677333354950804L248.2664272461732,29.677333354950804L248.31460157958665,29.677333354950804L248.3627759130001,29.677333354950804L248.48321174653373,29.677333354950804L249.25400108114877,29.677333354950804L249.3744369146824,29.677333354950804L249.63939574845634,29.677333354950804L249.66348291516306,29.677333354950804L249.68757008186975,29.677333354950804L249.7598315819899,29.677333354950804L250.14522624929745,29.677333354950804L250.79557975037895,29.677333354950804L250.86784125049908,29.677333354950804L251.34958458463353,29.677333354950804L251.49410758487383,29.677333354950804L251.51819475158055,29.677333354950804L252.1444610859553,29.677333354950804L252.31307125290235,29.677333354950804L252.48168141984942,29.677333354950804L253.2765579211712,29.677333354950804L253.34881942129132,29.677333354950804L253.80647558871905,29.677333354950804L253.83056275542577,29.677333354950804L254.04734725578626,29.677333354950804L254.21595742273328,29.677333354950804L254.28821892285347,29.677333354950804L254.45682908980052,29.677333354950804L254.52909058992068,29.677333354950804L254.98674675734839,29.677333354950804L255.05900825746852,29.677333354950804L255.32396709124245,29.677333354950804L255.5889259250164,29.677333354950804L255.82979759208362,29.677333354950804L255.87797192549704,29.677333354950804L255.90205909220376,29.677333354950804L255.97432059232392,29.677333354950804L256.5524125932852,29.677333354950804L256.67284842681886,29.677333354950804L256.69693559352555,29.677333354950804L256.79328426035244,29.677333354950804L257.25094042778017,29.677333354950804L257.27502759448686,29.677333354950804L257.4918120948474,29.677333354950804L257.68450942850114,29.677333354950804L257.9735554289818,29.677333354950804L258.86478059713045,29.677333354950804L258.93704209725064,29.677333354950804L259.1538265976111,29.677333354950804L259.1779137643178,29.677333354950804L259.3224367645582,29.677333354950804L259.3706110979716,29.677333354950804L259.5873955983321,29.677333354950804L260.43044643306735,29.677333354950804L260.5508822666009,29.677333354950804L261.1048871008555,29.677333354950804L261.17714860097567,29.677333354950804L261.24941010109586,29.677333354950804L261.4661946014563,29.677333354950804L262.1406352692445,29.677333354950804L262.7187272702058,29.677333354950804L262.95959893727303,29.677333354950804L264.28439310614266,29.677333354950804L264.42891610638304,29.677333354950804L264.52526477320987,29.677333354950804L264.59752627333006,29.677333354950804L264.86248510710396,29.677333354950804L264.93474660722416,29.677333354950804" fill="none"></path></g></g></g></g><g opacity="0.2"><g><g><g><path style="fill: none;" stroke="rgb(255, 112, 67)" stroke-width="2px" d="M30.66296321765582,1112.9000008106232L31.506014052391052,29.67733335494995L31.554188385804494,29.67733335494995L31.746885719458263,133.54800009727478L32.252716220299405,29.67733335494995L32.44541355395317,578.708000421524L32.92715688808759,994.1906673908234L34.227863890250525,29.67733335494995L34.251951056957246,29.67733335494995L34.661432890971504,549.0306670665741L34.73369439109167,29.67733335494995L34.80595589121183,29.67733335494995L35.16726339181265,29.67733335494995L35.23952489193281,29.67733335494995L35.263612058639524,29.67733335494995L35.504483725706734,29.67733335494995L35.962139893134434,1009.0293340682983L36.46797039397558,29.67733335494995L36.87745222798983,29.67733335494995L36.99788806152344,29.67733335494995L37.64824156260491,29.67733335494995L37.88911322967211,29.67733335494995L38.03363622991244,29.67733335494995L38.202246396859486,29.67733335494995L38.22633356356621,29.67733335494995L39.021210064888,29.67733335494995L39.06938439830144,29.67733335494995L39.35843039878209,29.67733335494995L39.527040565729145,29.67733335494995L39.551127732435866,29.67733335494995L39.59930206584931,29.67733335494995L39.67156356596947,29.67733335494995L39.719737899382906,29.67733335494995L40.00878389986356,29.67733335494995L40.24965556693078,29.67733335494995L41.285403735319775,29.67733335494995L41.47810106897354,29.67733335494995L41.670798402627305,29.67733335494995L41.887582902987795,29.67733335494995L42.20071607017517,44.51600003242493L42.29706473700206,207.74133348464966L42.61019790418943,356.1280002593994L42.658372237602876,29.67733335494995L42.70654657101631,118.7093334197998L42.87515673796336,29.67733335494995L42.995592571496964,29.67733335494995L43.043766904910406,29.67733335494995L43.16420273844401,29.67733335494995L43.21237707185745,29.67733335494995L43.30872573868434,29.67733335494995L43.40507440551122,29.67733335494995L43.54959740575155,29.67733335494995L43.57368457245827,29.67733335494995L44.127689406712854,29.67733335494995L44.22403807353973,29.67733335494995L45.018914574861526,29.67733335494995L45.18752474180857,29.67733335494995L45.3320477420489,29.67733335494995L45.669268075942995,29.67733335494995L45.76561674276987,29.67733335494995L45.93422690971693,29.67733335494995L45.98240124313036,29.67733335494995L46.17509857678414,29.67733335494995L46.51231891067823,29.67733335494995L46.53640607738495,29.67733335494995L46.77727774445216,29.67733335494995L46.84953924457232,29.67733335494995L47.06632374493281,29.67733335494995L47.25902107858658,29.67733335494995L47.47580557894707,29.67733335494995L47.49989274565379,29.67733335494995L47.644415745894115,29.67733335494995L47.66850291260083,29.67733335494995L47.78893874613444,29.67733335494995L48.22250774685542,29.67733335494995L48.294769246975584,29.67733335494995L48.51155374733607,29.67733335494995L49.2341687485377,29.67733335494995L49.54730191572507,29.67733335494995L49.6918249159654,29.67733335494995L49.76408641608556,29.67733335494995L49.812260749499,29.67733335494995L49.90860941632589,29.67733335494995L50.053132416566214,29.67733335494995L50.17356825009982,29.67733335494995L50.41443991716703,29.67733335494995L50.55896291740736,29.67733335494995L50.67939875094096,29.67733335494995L50.920270418008165,29.67733335494995L51.93193141969045,29.67733335494995L52.028280086517334,29.67733335494995L52.052367253224055,29.67733335494995L52.076454419930776,29.67733335494995L52.510023420651756,29.67733335494995L52.82315658783912,29.67733335494995L53.136289755026496,29.67733335494995L53.762556089401244,29.67733335494995L54.0516020898819,29.67733335494995L54.31656092365583,29.67733335494995L54.38882242377599,29.67733335494995L54.461083923896155,29.67733335494995L54.94282725803057,29.67733335494995L55.087350258270895,29.67733335494995L55.25596042521795,29.67733335494995L55.400483425458276,29.67733335494995L55.785878092765806,29.67733335494995L55.85813959288597,29.67733335494995L56.1230984266599,29.67733335494995L56.195359926780064,29.67733335494995L56.26762142690023,29.67733335494995L56.29170859360695,29.67733335494995L57.44789259552956,29.67733335494995L57.52015409564972,29.67733335494995L57.592415595769886,29.67733335494995L57.61650276247661,29.67733335494995L58.14642043002446,29.67733335494995L58.435466430505116,29.67733335494995L58.676338097572334,29.67733335494995L58.77268676439921,29.67733335494995L59.37486593206724,29.67733335494995L59.39895309877395,29.67733335494995L59.66391193254789,29.67733335494995L59.85660926620166,29.67733335494995L59.952957933028536,29.67733335494995L60.001132266441985,29.67733335494995L60.77192160105705,29.67733335494995L60.86827026788394,29.67733335494995L61.47044943555196,29.67733335494995L61.85584410285949,29.67733335494995L61.879931269566214,29.67733335494995L62.24123877016703,29.67733335494995L62.33758743699392,29.67733335494995L62.72298210430145,29.67733335494995L62.74706927100817,29.67733335494995L63.276986938556036,29.67733335494995L63.39742277208964,29.67733335494995L63.517858605623246,29.67733335494995L63.59012010574341,29.67733335494995L63.710555939277015,29.67733335494995L63.78281743939718,29.67733335494995L64.07186343987783,29.67733335494995L64.2645607735316,29.67733335494995L64.43317094047865,192.90266680717468L64.6017811074257,281.93466687202454L64.81856560778618,29.67733335494995L64.91491427461307,29.67733335494995L64.96308860802651,29.67733335494995L65.01126294143994,29.67733335494995L65.0835244415601,29.67733335494995L65.25213460850716,29.67733335494995L65.46891910886765,29.67733335494995L65.70979077593485,29.67733335494995L65.80613944276173,29.67733335494995L65.85431377617518,29.67733335494995L65.92657527629534,29.67733335494995L66.04701110982896,29.67733335494995L66.11927260994912,29.67733335494995L66.14335977665583,29.67733335494995L66.62510311079025,29.67733335494995L66.84188761115074,29.67733335494995L66.98641061139107,29.67733335494995L67.15502077833811,29.67733335494995L67.17910794504483,29.67733335494995L67.39589244540532,178.0640001296997L67.56450261235237,29.67733335494995L68.07033311319351,29.67733335494995L68.1666817800204,29.67733335494995L68.40755344708761,29.67733335494995L68.50390211391449,29.67733335494995L68.72068661427498,29.67733335494995L69.03381978146236,29.67733335494995L69.10608128158252,29.67733335494995L69.25060428182285,118.7093334197998L69.29877861523627,29.67733335494995L70.1177422832648,207.74133348464966L70.91261878458658,652.9013338088989L70.98488028470675,118.7093334197998L71.03305461812019,400.64400029182434L71.46662361884117,29.67733335494995L71.80384395273526,163.22533345222473L71.8520182861487,281.93466687202454L72.28558728686968,29.67733335494995L72.38193595369657,29.67733335494995L72.57463328735034,29.67733335494995L72.9841151213646,29.67733335494995L73.12863812160492,29.67733335494995L73.70673012256623,29.67733335494995L74.0198632897536,29.67733335494995L74.09212478987376,29.67733335494995L74.11621195658049,29.67733335494995L74.16438628999393,29.67733335494995L74.21256062340736,29.67733335494995L74.30890929023424,29.67733335494995L74.40525795706114,29.67733335494995L74.57386812400819,29.67733335494995L74.93517562460899,29.67733335494995L75.7541392926375,29.67733335494995L75.8504879594644,29.67733335494995L76.01909812641144,29.67733335494995L76.23588262677193,29.67733335494995L76.52492862725258,29.67733335494995L76.76580029431979,29.67733335494995L76.81397462773323,29.67733335494995L76.86214896114667,29.67733335494995L76.98258479468026,29.67733335494995L77.05484629480044,29.67733335494995L77.24754362845421,29.67733335494995L77.3438922952811,29.67733335494995L77.82563562941552,59.3546667098999L77.94607146294912,29.67733335494995L77.97015862965584,29.67733335494995L78.01833296306928,29.67733335494995L78.09059446318945,29.67733335494995L78.18694313001633,29.67733335494995L78.21103029672305,29.67733335494995L78.3796404636701,356.1280002593994L78.45190196379025,29.67733335494995L78.57233779732385,29.67733335494995L79.02999396475155,29.67733335494995L79.27086563181876,29.67733335494995L79.41538863205909,29.67733335494995L79.55991163229942,29.67733335494995L79.65626029912632,29.67733335494995L79.94530629960697,29.67733335494995L79.96939346631368,29.67733335494995L80.5715726339817,29.67733335494995L80.7883571343422,29.67733335494995L81.63140796907743,29.67733335494995L81.65549513578414,29.67733335494995L81.70366946919759,29.67733335494995L82.76350480429332,29.67733335494995L82.95620213794707,29.67733335494995L83.12481230489414,29.67733335494995L83.17298663830758,29.67733335494995L83.221160971721,29.67733335494995L83.34159680525461,29.67733335494995L83.94377597292264,29.67733335494995L83.96786313962936,29.67733335494995L84.20873480669657,29.67733335494995L84.25690914011001,29.67733335494995L84.37734497364362,29.67733335494995L84.71456530753771,29.67733335494995L84.85908830777804,29.67733335494995L85.07587280813853,29.67733335494995L85.43718030873934,29.67733335494995L85.53352897556623,29.67733335494995L85.58170330897967,29.67733335494995L86.1838824766477,29.67733335494995L86.47292847712835,29.67733335494995L86.71380014419556,29.67733335494995L86.85832314443589,29.67733335494995L87.26780497845014,29.67733335494995L87.41232797869047,29.67733335494995L87.43641514539718,29.67733335494995L87.77363547929127,29.67733335494995L87.9181584795316,29.67733335494995L88.0385943130652,29.67733335494995L88.59259914731979,29.67733335494995L88.76120931426684,29.67733335494995L88.88164514780044,29.67733335494995L89.19477831498781,29.67733335494995L89.36338848193486,29.67733335494995L89.72469598253568,29.67733335494995L90.01374198301633,29.67733335494995L90.0860034831365,29.67733335494995L90.42322381703059,29.67733335494995L91.26627465176581,29.67733335494995L91.29036181847255,29.67733335494995L91.31444898517927,29.67733335494995L91.74801798590025,29.67733335494995L92.10932548650105,29.67733335494995L93.26550948842366,29.67733335494995L93.48229398878416,29.67733335494995L93.69907848914464,29.67733335494995L93.84360148938497,29.67733335494995L94.34943199022612,29.67733335494995L94.39760632363955,29.67733335494995L94.42169349034627,29.67733335494995L95.55379032556216,29.67733335494995L95.74648765921593,29.67733335494995L96.30049249347051,29.67733335494995L96.51727699383099,29.67733335494995L96.61362566065787,29.67733335494995L96.70997432748477,29.67733335494995L96.99902032796543,29.67733335494995L97.07128182808557,29.67733335494995L97.26397916173936,29.67733335494995L97.3362406618595,29.67733335494995L97.91433266282081,29.67733335494995L98.01068132964771,29.67733335494995L98.05885566306114,29.67733335494995L98.73329633084933,311.6120002269745L99.28730116510393,29.67733335494995L99.64860866570473,29.67733335494995L99.8413059993585,29.67733335494995L99.9617418328921,29.67733335494995L100.08217766642571,29.67733335494995L100.22670066666603,29.67733335494995L100.61209533397357,29.67733335494995L101.04566433469455,29.67733335494995L101.06975150140127,29.67733335494995L101.23836166834832,29.67733335494995L101.31062316846847,29.67733335494995L101.88871516942977,29.67733335494995L101.96097666954995,29.67733335494995L102.12958683649698,29.67733335494995L102.20184833661716,29.67733335494995L102.22593550332388,29.67733335494995L102.27410983673731,29.67733335494995L102.29819700344403,29.67733335494995L102.90037617111206,29.67733335494995L103.11716067147255,29.67733335494995L103.69525267243385,29.67733335494995L103.88795000608762,29.67733335494995L104.2251703399817,29.67733335494995L104.24925750668844,29.67733335494995L104.65873934070268,29.67733335494995L105.35726717519759,29.67733335494995L105.40544150861103,29.67733335494995L105.64631317567824,29.67733335494995L106.05579500969252,29.67733335494995L106.17623084322612,29.67733335494995L106.70614851077397,29.67733335494995L106.89884584442775,29.67733335494995L107.16380467820169,29.67733335494995L107.21197901161511,29.67733335494995L107.38058917856216,29.67733335494995L107.52511217880249,29.67733335494995L107.69372234574953,29.67733335494995L107.83824534598986,29.67733335494995L107.91050684611002,29.67733335494995L108.3199886801243,29.67733335494995L108.60903468060492,29.67733335494995L108.6812961807251,29.67733335494995L108.84990634767215,29.67733335494995L109.23530101497968,29.67733335494995L109.28347534839313,29.67733335494995L109.42799834863345,29.67733335494995L109.52434701546034,29.67733335494995L109.90974168276786,29.67733335494995L110.31922351678212,29.67733335494995L110.80096685091655,29.67733335494995L111.23453585163753,29.67733335494995L111.28271018505097,29.67733335494995L111.3308845184644,29.67733335494995L111.40314601858458,29.67733335494995L111.47540751870473,29.67733335494995L111.88488935271899,29.67733335494995L112.14984818649292,29.67733335494995L112.48706852038701,29.67733335494995L113.20968352158864,29.67733335494995L113.25785785500207,29.67733335494995L113.83594985596338,29.67733335494995L113.93229852279028,29.67733335494995L113.9804728562037,29.67733335494995L114.12499585644403,29.67733335494995L114.19725735656421,29.67733335494995L114.24543168997765,29.67733335494995L114.46221619033814,29.67733335494995L114.63082635728519,29.67733335494995L114.94395952447256,29.67733335494995L115.13665685812632,29.67733335494995L115.44979002531369,29.67733335494995L115.49796435872715,29.67733335494995L115.5702258588473,29.67733335494995L115.95562052615483,29.67733335494995L116.07605635968845,29.67733335494995L116.12423069310188,29.67733335494995L116.3651023601691,29.67733335494995L116.46145102699597,29.67733335494995L117.15997886149088,29.67733335494995L117.28041469502449,29.67733335494995L117.44902486197154,29.67733335494995L118.50886019706725,29.67733335494995L118.70155753072103,29.67733335494995L118.87016769766808,29.67733335494995L118.96651636449496,29.67733335494995L119.23147519826888,29.67733335494995L119.37599819850921,29.67733335494995L119.52052119874953,29.67733335494995L120.0504388662974,29.67733335494995L120.31539770007134,29.67733335494995L120.43583353360495,29.67733335494995L120.65261803396542,29.67733335494995L120.67670520067215,29.67733335494995L120.9657512011528,29.67733335494995L121.23071003492673,44.51600003242493L121.30297153504691,29.67733335494995L121.5438432021141,29.67733335494995L122.67594003733,29.67733335494995L122.7963758708636,29.67733335494995L122.82046303757032,29.67733335494995L123.06133470463753,29.67733335494995L124.81969787422817,29.67733335494995L125.0846567080021,29.67733335494995L125.10874387470882,29.67733335494995L125.15691820812225,29.67733335494995L125.20509254153569,29.67733335494995L125.27735404165585,29.67733335494995L125.30144120836258,29.67733335494995L125.9036203760306,29.67733335494995L126.02405620956421,29.67733335494995L126.09631770968439,29.67733335494995L126.28901504333814,29.67733335494995L126.55397387711207,29.67733335494995L126.77075837747256,29.67733335494995L126.84301987759272,29.67733335494995L126.86710704429944,29.67733335494995L127.22841454490026,29.67733335494995L127.6138092122078,29.67733335494995L127.75833221244812,29.67733335494995L127.85468087927501,29.67733335494995L128.0714653796355,29.67733335494995L128.11963971304894,29.67733335494995L128.33642421340943,29.67733335494995L128.4327728802363,29.67733335494995L128.69773171401025,29.67733335494995L129.323998048385,29.67733335494995L129.54078254874548,29.67733335494995L129.9020900493463,29.67733335494995L130.07070021629335,29.67733335494995L130.21522321653367,29.67733335494995L130.31157188336053,29.67733335494995L130.33565905006728,29.67733335494995L130.79331521749498,29.67733335494995L130.8655767176151,29.67733335494995L131.73271471905707,29.67733335494995L131.8772377192974,29.67733335494995L132.23854521989824,29.67733335494995L132.28671955331166,29.67733335494995L132.6962013873259,29.67733335494995L132.72028855403263,29.67733335494995L133.17794472146034,29.67733335494995L133.20203188816706,29.67733335494995L133.27429338828722,29.67733335494995L133.4910778886477,29.67733335494995L133.75603672242164,29.67733335494995L134.35821589008967,29.67733335494995L134.43047739020983,29.67733335494995L134.69543622398376,29.67733335494995L134.76769772410393,29.67733335494995L134.81587205751737,29.67733335494995L134.8640463909308,29.67733335494995L135.15309239141146,29.67733335494995L135.56257422542572,29.67733335494995L136.06840472626686,29.67733335494995L136.2370148932139,29.67733335494995L136.42971222686768,29.67733335494995L136.52606089369456,29.67733335494995L136.6946710606416,29.67733335494995L136.71875822734833,29.67733335494995L136.74284539405505,29.67733335494995L136.98371706112226,29.67733335494995L137.609983395497,29.67733335494995L137.73041922903062,29.67733335494995L138.11581389633815,29.67733335494995L138.38077273011208,29.67733335494995L138.47712139693897,29.67733335494995L138.5012085636457,29.67733335494995L138.69390589729946,29.67733335494995L138.83842889753979,29.67733335494995L138.91069039765992,29.67733335494995L139.12747489802044,29.67733335494995L139.22382356484732,29.67733335494995L139.39243373179437,29.67733335494995L139.4165208985011,29.67733335494995L139.56104389874142,29.67733335494995L139.70556689898174,29.67733335494995L139.75374123239516,29.67733335494995L139.82600273251535,29.67733335494995L140.6690535672506,29.67733335494995L140.95809956773124,29.67733335494995L141.41575573515894,29.67733335494995L141.46393006857235,29.67733335494995L141.9697605694135,29.67733335494995L142.45150390354792,29.67733335494995L143.02959590450922,29.67733335494995L143.10185740462938,29.67733335494995L143.41499057181676,29.67733335494995L143.60768790547053,29.67733335494995L143.82447240583102,29.67733335494995L143.89673390595118,29.67733335494995L143.94490823936462,29.67733335494995L143.96899540607134,29.67733335494995L145.02883074116707,29.67733335494995L145.1733537414074,29.67733335494995L145.24561524152753,29.67733335494995L145.4142254084746,29.67733335494995L145.72735857566198,29.67733335494995L145.77553290907542,29.67733335494995L145.79962007578212,29.67733335494995L145.9682302427292,29.67733335494995L146.40179924345014,29.67733335494995L146.95580407770473,29.67733335494995L147.07623991123836,29.67733335494995L147.55798324537275,29.67733335494995L147.60615757878622,29.67733335494995L147.75068057902655,29.67733335494995L148.37694691340127,29.67733335494995L148.4973827469349,29.67733335494995L148.90686458094913,29.67733335494995L149.34043358167014,29.67733335494995L149.53313091532388,29.67733335494995L150.08713574957847,29.67733335494995L150.18348441640535,29.67733335494995L150.27983308323226,29.67733335494995L150.30392024993898,29.67733335494995L150.9301865843137,29.67733335494995L151.4841914185683,29.67733335494995L152.1827192530632,29.67733335494995L152.44767808683713,29.67733335494995L152.8330727541447,29.67733335494995L153.17029308803876,29.67733335494995L153.19438025474548,29.67733335494995L153.6761235888799,29.67733335494995L154.25421558984118,29.67733335494995L154.63961025714875,29.67733335494995L155.09726642457645,29.67733335494995L155.1695279246966,29.67733335494995L155.28996375823021,29.67733335494995L156.1811889263789,29.67733335494995L156.34979909332594,29.67733335494995L156.44614776015283,29.67733335494995L156.59067076039312,29.67733335494995L156.73519376063348,29.67733335494995L156.85562959416706,29.67733335494995L156.92789109428725,29.67733335494995L156.9760654277007,29.67733335494995L157.554157428662,29.67733335494995L157.74685476231573,29.67733335494995L158.15633659633002,252.25733351707458L158.2767724298636,29.67733335494995L158.32494676327704,29.67733335494995L158.6139927637577,29.67733335494995L158.66216709717116,29.67733335494995L158.80669009741146,29.67733335494995L159.09573609789211,29.67733335494995L159.21617193142572,29.67733335494995L159.45704359849293,29.67733335494995L159.69791526556014,29.67733335494995L160.37235593334833,29.67733335494995L160.4205302667618,29.67733335494995L160.51687893358866,29.67733335494995L160.87818643418947,29.67733335494995L161.86576026916507,29.67733335494995L161.9380217692852,29.67733335494995L162.37159077000618,29.67733335494995L162.80515977072716,29.67733335494995L163.21464160474142,29.67733335494995L163.28690310486155,29.67733335494995L163.40733893839518,29.67733335494995L163.5277747719288,29.67733335494995L163.96134377264977,29.67733335494995L163.9854309393565,29.67733335494995L164.39491277337075,29.67733335494995L164.46717427349088,29.67733335494995L164.63578444043796,29.67733335494995L165.2861379415194,29.67733335494995L165.33431227493284,29.67733335494995L165.50292244187992,29.67733335494995L165.93649144260087,29.67733335494995L166.15327594296136,29.67733335494995L166.37006044332188,29.67733335494995L166.6109321103891,29.67733335494995L166.87589094416302,29.67733335494995L166.97223961098987,29.67733335494995L166.9963267776966,29.67733335494995L167.45398294512432,29.67733335494995L167.5744187786579,29.67733335494995L167.62259311207134,29.67733335494995L167.71894177889826,29.67733335494995L167.93572627925872,29.67733335494995L168.36929527997972,29.67733335494995L168.85103861411412,29.67733335494995L168.97147444764772,29.67733335494995L169.18825894800824,29.67733335494995L169.33278194824854,29.67733335494995L169.35686911495526,29.67733335494995L169.45321778178217,29.67733335494995L169.5254792819023,29.67733335494995L170.0553969494502,29.67733335494995L170.48896595017115,29.67733335494995L170.58531461699803,29.67733335494995L170.70575045053164,29.67733335494995L171.09114511783918,29.67733335494995L171.13931945125262,29.67733335494995L171.38019111831983,29.67733335494995L171.52471411856015,29.67733335494995L171.5728884519736,29.67733335494995L171.71741145221392,29.67733335494995L171.76558578562734,29.67733335494995L171.8137601190408,29.67733335494995L172.10280611952146,29.67733335494995L172.1509804529349,29.67733335494995L172.19915478634834,29.67733335494995L172.75315962060293,29.67733335494995L172.96994412096342,29.67733335494995L173.04220562108358,29.67733335494995L173.42760028839112,29.67733335494995L173.69255912216505,29.67733335494995L173.74073345557846,29.67733335494995L173.88525645581882,29.67733335494995L174.1983896230062,29.67733335494995L174.31882545653977,29.67733335494995L174.48743562348685,29.67733335494995L174.63195862372714,29.67733335494995L174.94509179091452,29.67733335494995L175.5713581252893,29.67733335494995L176.12536295954385,29.67733335494995L176.22171162637076,29.67733335494995L176.24579879307748,29.67733335494995L176.4144089600245,29.67733335494995L176.8238907940388,29.67733335494995L177.08884962781272,29.67733335494995L177.35380846158665,29.67733335494995L177.52241862853367,29.67733335494995L177.66694162877403,29.67733335494995L178.24503362973533,29.67733335494995L179.56982779860496,29.67733335494995L179.66617646543187,29.67733335494995L179.97930963261922,29.67733335494995L180.34061713322004,29.67733335494995L180.5333144668738,29.67733335494995L180.55740163358053,29.67733335494995L180.6537503004074,29.67733335494995L180.89462196747462,29.67733335494995L181.13549363454183,29.67733335494995L181.15958080124855,29.67733335494995L181.18366796795527,29.67733335494995L181.376365301609,29.67733335494995L181.85810863574346,29.67733335494995L182.43620063670477,29.67733335494995L182.60481080365182,29.67733335494995L182.67707230377198,29.67733335494995L182.9179439708392,29.67733335494995L183.13472847119968,29.67733335494995L183.20698997131984,29.67733335494995L183.44786163838705,29.67733335494995L183.56829747192066,29.67733335494995L184.43543547336262,29.67733335494995L184.6522199737231,29.67733335494995L184.70039430713655,29.67733335494995L184.7967429739634,29.67733335494995L184.94126597420376,29.67733335494995L185.01352747432392,29.67733335494995L185.18213764127097,29.67733335494995L185.3748349749247,29.67733335494995L185.44709647504487,29.67733335494995L185.63979380869864,29.67733335494995L185.73614247552553,29.67733335494995L185.83249114235244,29.67733335494995L186.38649597660702,29.67733335494995L186.48284464343388,29.67733335494995L186.65145481038095,29.67733335494995L186.7478034772078,29.67733335494995L187.01276231098174,29.67733335494995L187.3018083114624,29.67733335494995L187.68720297876993,29.67733335494995L188.28938214643796,29.67733335494995L188.65068964703877,29.67733335494995L188.9879099809329,29.67733335494995L189.18060731458664,29.67733335494995L189.3733046482404,29.67733335494995L189.51782764848073,29.67733335494995L189.54191481518748,29.67733335494995L190.1681811495622,29.67733335494995L190.5054014834563,29.67733335494995L191.10758065112432,29.67733335494995L191.51706248513855,29.67733335494995L191.8061084856192,29.67733335494995L191.8783699857394,29.67733335494995L192.02289298597972,29.67733335494995L192.4564619867007,29.67733335494995L192.50463632011414,29.67733335494995L192.9382053208351,29.67733335494995L193.03455398766198,29.67733335494995L193.54038448850312,29.67733335494995L193.63673315533003,29.67733335494995L193.80534332227705,29.67733335494995L194.11847648946443,29.67733335494995L194.26299948970478,29.67733335494995L194.60021982359888,29.67733335494995L194.88926582407953,29.67733335494995L195.25057332468032,29.67733335494995L195.44327065833411,29.67733335494995L195.46735782504084,29.67733335494995L195.9972754925887,29.67733335494995L196.09362415941555,29.67733335494995L196.43084449330965,29.67733335494995L196.7198904937903,29.67733335494995L196.74397766049702,29.67733335494995L196.91258782744407,29.67733335494995L197.24980816133817,29.67733335494995L197.3943311615785,29.67733335494995L197.56294132852554,29.67733335494995L197.61111566193898,29.67733335494995L197.82790016229947,29.67733335494995L197.8760744957129,29.67733335494995L197.90016166241963,29.67733335494995L198.35781782984733,29.67733335494995L198.4300793299675,29.67733335494995L198.646863830328,29.67733335494995L198.95999699751536,29.67733335494995L199.53808899847667,29.67733335494995L199.9234836657842,29.67733335494995L200.18844249955814,29.67733335494995L200.62201150027911,29.67733335494995L200.8628831673463,29.67733335494995L200.88697033405302,29.67733335494995L201.03149333429337,29.67733335494995L201.20010350124042,29.67733335494995L201.2964521680673,29.67733335494995L201.32053933477403,29.67733335494995L201.34462650148075,29.67733335494995L201.8745441690286,29.67733335494995L201.89863133573533,29.67733335494995L201.9949800025622,29.67733335494995L202.04315433597563,29.67733335494995L202.25993883633612,29.67733335494995L202.356287503163,29.67733335494995L203.05481533765794,29.67733335494995L203.07890250436466,29.67733335494995L203.29568700472515,29.67733335494995L203.36794850484532,29.67733335494995L203.53655867179236,29.67733335494995L203.77743033885955,29.67733335494995L203.80151750556627,29.67733335494995L203.84969183897974,29.67733335494995L203.9701276725133,29.67733335494995L204.11465067275367,29.67733335494995L204.21099933958055,29.67733335494995L204.25917367299397,29.67733335494995L204.6445683403015,29.67733335494995L204.78909134054186,29.67733335494995L204.81317850724855,29.67733335494995L205.00587584090235,29.67733335494995L205.46353200833002,29.67733335494995L205.8730138423443,29.67733335494995L206.49928017671903,29.67733335494995L207.05328501097364,29.67733335494995L207.36641817816098,29.67733335494995L207.43867967828115,29.67733335494995L208.18538184618947,29.67733335494995L208.20946901289622,29.67733335494995L208.59486368020376,29.67733335494995L208.61895084691048,29.67733335494995L208.8598225139777,29.67733335494995L208.93208401409785,29.67733335494995L208.9802583475113,29.67733335494995L209.24521718128523,29.67733335494995L209.38974018152555,29.67733335494995L209.46200168164572,29.67733335494995L209.5583503484726,29.67733335494995L209.99191934919358,29.67733335494995L210.0160065159003,29.67733335494995L210.11235518272719,29.67733335494995L210.18461668284732,29.67733335494995L210.2327910162608,29.67733335494995L210.57001135015489,29.67733335494995L210.66636001698177,29.67733335494995L210.9313188507557,29.67733335494995L211.00358035087584,29.67733335494995L211.4853236850103,29.67733335494995L211.67802101866403,29.67733335494995L211.91889268573124,29.67733335494995L211.94297985243796,29.67733335494995L212.2079386862119,29.67733335494995L212.76194352046647,29.67733335494995L212.8823793540001,29.67733335494995L213.29186118801434,29.67733335494995L214.3516965231101,29.67733335494995L214.3757836898168,29.67733335494995L214.47213235664367,29.67733335494995L214.56848102347055,29.67733335494995L215.00205002419153,29.67733335494995L215.14657302443186,29.67733335494995L216.18232119282087,29.67733335494995L216.37501852647466,29.67733335494995L216.5677158601284,29.67733335494995L216.59180302683512,29.67733335494995L217.00128486084938,29.67733335494995L217.31441802803676,29.67733335494995L217.41076669486364,29.67733335494995L217.67572552863757,29.67733335494995L217.96477152911822,29.67733335494995L218.0370330292384,29.67733335494995L218.0852073626518,29.67733335494995L218.1815560294787,29.67733335494995L218.37425336313245,29.67733335494995L219.81948336553572,29.67733335494995L219.96400636577607,29.67733335494995L219.9880935324828,29.67733335494995L220.39757536649702,29.67733335494995L220.5661855334441,29.67733335494995L221.12019036769868,29.67733335494995L221.21653903452554,29.67733335494995L221.48149786829947,29.67733335494995L221.55375936841963,29.67733335494995L221.96324120243392,29.67733335494995L222.10776420267422,29.67733335494995L222.4208973698616,29.67733335494995L222.902640703996,29.67733335494995L223.11942520435653,29.67733335494995L223.50481987166404,29.67733335494995L223.55299420507748,29.67733335494995L223.76977870543797,29.67733335494995L223.9865632057985,29.67733335494995L224.17926053945223,29.67733335494995L224.66100387358665,29.67733335494995L224.7091782070001,29.67733335494995L224.78143970712026,29.67733335494995L224.82961404053373,29.67733335494995L224.97413704077402,29.67733335494995L225.26318304125468,29.67733335494995L225.2872702079614,29.67733335494995L225.45588037490845,29.67733335494995L225.5281418750286,29.67733335494995L225.64857770856221,29.67733335494995L225.81718787550926,29.67733335494995L225.8653622089227,29.67733335494995L227.09380771096545,29.67733335494995L227.3587665447394,29.67733335494995L227.43102804485957,29.67733335494995L227.55146387839318,29.67733335494995L227.9368585457007,29.67733335494995L228.0332072125276,29.67733335494995L228.05729437923432,29.67733335494995L228.10546871264776,29.67733335494995L228.34634037971497,29.67733335494995L228.44268904654186,29.67733335494995L228.5390377133687,29.67733335494995L228.75582221372923,29.67733335494995L228.77990938043592,29.67733335494995L228.90034521396956,29.67733335494995L228.99669388079644,29.67733335494995L229.02078104750316,29.67733335494995L229.38208854810395,29.67733335494995L230.12879071601233,29.67733335494995L230.41783671649299,29.67733335494995L230.58644688344,29.67733335494995L230.70688271697364,29.67733335494995L231.0441030508677,29.67733335494995L231.26088755122822,29.67733335494995L231.622195051829,29.67733335494995L231.88715388560297,29.67733335494995L232.05576405255,29.67733335494995L232.0798512192567,29.67733335494995L232.2966357196172,29.67733335494995L233.2119480544726,29.67733335494995L233.2842095545928,29.67733335494995L233.3323838880062,29.67733335494995L233.40464538812637,29.67733335494995L233.4287325548331,29.67733335494995L233.52508122165997,29.67733335494995L234.29587055627505,29.67733335494995L234.63309089016914,29.67733335494995L235.28344439125058,29.67733335494995L235.42796739149094,29.67733335494995L235.52431605831782,29.67733335494995L235.9578850590388,29.67733335494995L236.0783208925724,29.67733335494995L236.4396283931732,29.67733335494995L236.5118898932934,29.67733335494995L236.58415139341355,29.67733335494995L237.0899818942547,29.67733335494995L237.35494072802862,29.67733335494995L237.668073895216,29.67733335494995L237.69216106192272,29.67733335494995L237.93303272898993,29.67733335494995L238.0052942291101,29.67733335494995L238.10164289593695,29.67733335494995L238.51112472995123,29.67733335494995L238.55929906336468,29.67733335494995L238.63156056348484,29.67733335494995L239.13739106432598,29.67733335494995L239.18556539773942,29.67733335494995L239.306001231273,29.67733335494995L239.57096006504693,29.67733335494995L239.76365739870073,29.67733335494995L239.86000606552759,29.67733335494995L240.26948789954187,29.67733335494995L240.41401089978217,29.67733335494995L240.65488256684938,29.67733335494995L240.70305690026282,29.67733335494995L240.84757990050318,29.67733335494995L240.96801573403675,29.67733335494995L241.08845156757036,29.67733335494995L241.16071306769055,29.67733335494995L241.52202056829134,29.67733335494995L241.54610773499806,29.67733335494995L242.19646123607953,29.67733335494995L242.3891585697333,29.67733335494995L242.6300302368005,29.67733335494995L242.89498907057447,29.67733335494995L243.40081957141558,29.67733335494995L243.81030140542984,29.67733335494995L243.83438857213656,29.67733335494995L244.6051779067516,29.67733335494995L244.62926507345836,29.67733335494995L244.77378807369868,29.67733335494995L246.02632074244815,29.67733335494995L246.07449507586162,29.67733335494995L246.24310524280867,29.67733335494995L246.3153667429288,29.67733335494995L246.48397690987588,29.67733335494995L247.13433041095732,29.67733335494995L247.6401609117985,29.67733335494995L247.8810325788657,29.67733335494995L248.2664272461732,29.67733335494995L248.31460157958665,29.67733335494995L248.3627759130001,29.67733335494995L248.48321174653373,29.67733335494995L249.25400108114877,29.67733335494995L249.3744369146824,29.67733335494995L249.63939574845634,29.67733335494995L249.66348291516306,29.67733335494995L249.68757008186975,29.67733335494995L249.7598315819899,29.67733335494995L250.14522624929745,29.67733335494995L250.79557975037895,29.67733335494995L250.86784125049908,29.67733335494995L251.34958458463353,29.67733335494995L251.49410758487383,29.67733335494995L251.51819475158055,29.67733335494995L252.1444610859553,29.67733335494995L252.31307125290235,29.67733335494995L252.48168141984942,29.67733335494995L253.2765579211712,29.67733335494995L253.34881942129132,29.67733335494995L253.80647558871905,29.67733335494995L253.83056275542577,29.67733335494995L254.04734725578626,29.67733335494995L254.21595742273328,29.67733335494995L254.28821892285347,29.67733335494995L254.45682908980052,29.67733335494995L254.52909058992068,29.67733335494995L254.98674675734839,29.67733335494995L255.05900825746852,29.67733335494995L255.32396709124245,29.67733335494995L255.5889259250164,29.67733335494995L255.82979759208362,29.67733335494995L255.87797192549704,29.67733335494995L255.90205909220376,29.67733335494995L255.97432059232392,29.67733335494995L256.5524125932852,29.67733335494995L256.67284842681886,29.67733335494995L256.69693559352555,29.67733335494995L256.79328426035244,29.67733335494995L257.25094042778017,29.67733335494995L257.27502759448686,29.67733335494995L257.4918120948474,29.67733335494995L257.68450942850114,29.67733335494995L257.9735554289818,29.67733335494995L258.86478059713045,29.67733335494995L258.93704209725064,29.67733335494995L259.1538265976111,29.67733335494995L259.1779137643178,29.67733335494995L259.3224367645582,29.67733335494995L259.3706110979716,29.67733335494995L259.5873955983321,29.67733335494995L260.43044643306735,29.67733335494995L260.5508822666009,29.67733335494995L261.1048871008555,29.67733335494995L261.17714860097567,29.67733335494995L261.24941010109586,29.67733335494995L261.4661946014563,29.67733335494995L262.1406352692445,29.67733335494995L262.7187272702058,29.67733335494995L262.95959893727303,29.67733335494995L264.28439310614266,29.67733335494995L264.42891610638304,29.67733335494995L264.52526477320987,29.67733335494995L264.59752627333006,29.67733335494995L264.86248510710396,29.67733335494995L264.93474660722416,29.67733335494995" fill="none"></path></g></g></g></g></g></g><g transform="translate(40, 178)" clip-path="url(#clip_1)"><clipPath id="clip_1"><rect width="289" height="21"></rect></clipPath><g><g><line x1="0" y1="0" x2="0" y2="5" style="visibility: inherit;" fill="rgb(0, 0, 0)" stroke="rgb(204, 204, 204)" stroke-width="1px"></line><line x1="24.087166706720986" y1="0" x2="24.087166706720986" y2="5" style="visibility: inherit;" fill="rgb(0, 0, 0)" stroke="rgb(204, 204, 204)" stroke-width="1px"></line><line x1="48.17433341344197" y1="0" x2="48.17433341344197" y2="5" style="visibility: inherit;" fill="rgb(0, 0, 0)" stroke="rgb(204, 204, 204)" stroke-width="1px"></line><line x1="72.26150012016296" y1="0" x2="72.26150012016296" y2="5" style="visibility: inherit;" fill="rgb(0, 0, 0)" stroke="rgb(204, 204, 204)" stroke-width="1px"></line><line x1="96.34866682688394" y1="0" x2="96.34866682688394" y2="5" style="visibility: inherit;" fill="rgb(0, 0, 0)" stroke="rgb(204, 204, 204)" stroke-width="1px"></line><line x1="120.43583353360495" y1="0" x2="120.43583353360495" y2="5" style="visibility: inherit;" fill="rgb(0, 0, 0)" stroke="rgb(204, 204, 204)" stroke-width="1px"></line><line x1="144.52300024032593" y1="0" x2="144.52300024032593" y2="5" style="visibility: inherit;" fill="rgb(0, 0, 0)" stroke="rgb(204, 204, 204)" stroke-width="1px"></line><line x1="168.61016694704693" y1="0" x2="168.61016694704693" y2="5" style="visibility: inherit;" fill="rgb(0, 0, 0)" stroke="rgb(204, 204, 204)" stroke-width="1px"></line><line x1="192.69733365376788" y1="0" x2="192.69733365376788" y2="5" style="visibility: inherit;" fill="rgb(0, 0, 0)" stroke="rgb(204, 204, 204)" stroke-width="1px"></line><line x1="216.7845003604889" y1="0" x2="216.7845003604889" y2="5" style="visibility: inherit;" fill="rgb(0, 0, 0)" stroke="rgb(204, 204, 204)" stroke-width="1px"></line><line x1="240.8716670672099" y1="0" x2="240.8716670672099" y2="5" style="visibility: inherit;" fill="rgb(0, 0, 0)" stroke="rgb(204, 204, 204)" stroke-width="1px"></line><line x1="264.95883377393085" y1="0" x2="264.95883377393085" y2="5" style="visibility: inherit;" fill="rgb(0, 0, 0)" stroke="rgb(204, 204, 204)" stroke-width="1px"></line><line x1="289.04600048065186" y1="0" x2="289.04600048065186" y2="5" style="visibility: inherit;" fill="rgb(0, 0, 0)" stroke="rgb(204, 204, 204)" stroke-width="1px"></line></g><g transform="translate(0, 8)"><text style="text-anchor: middle; visibility: hidden; font-family: &quot;Helvetica Neue&quot;, sans-serif; font-size: 12px; font-weight: 200;" x="0" y="0" dx="0em" dy="0.95em" fill="rgb(50, 49, 63)" stroke="none" stroke-width="1px">-1k</text><text style="text-anchor: middle; visibility: hidden; font-family: &quot;Helvetica Neue&quot;, sans-serif; font-size: 12px; font-weight: 200;" x="24.087166706720986" y="0" dx="0em" dy="0.95em" fill="rgb(50, 49, 63)" stroke="none" stroke-width="1px">0</text><text style="text-anchor: middle; visibility: hidden; font-family: &quot;Helvetica Neue&quot;, sans-serif; font-size: 12px; font-weight: 200;" x="48.17433341344197" y="0" dx="0em" dy="0.95em" fill="rgb(50, 49, 63)" stroke="none" stroke-width="1px">1k</text><text style="text-anchor: middle; visibility: hidden; font-family: &quot;Helvetica Neue&quot;, sans-serif; font-size: 12px; font-weight: 200;" x="72.26150012016296" y="0" dx="0em" dy="0.95em" fill="rgb(50, 49, 63)" stroke="none" stroke-width="1px">2k</text><text style="text-anchor: middle; visibility: hidden; font-family: &quot;Helvetica Neue&quot;, sans-serif; font-size: 12px; font-weight: 200;" x="96.34866682688394" y="0" dx="0em" dy="0.95em" fill="rgb(50, 49, 63)" stroke="none" stroke-width="1px">3k</text><text style="text-anchor: middle; visibility: hidden; font-family: &quot;Helvetica Neue&quot;, sans-serif; font-size: 12px; font-weight: 200;" x="120.43583353360495" y="0" dx="0em" dy="0.95em" fill="rgb(50, 49, 63)" stroke="none" stroke-width="1px">4k</text><text style="text-anchor: middle; visibility: hidden; font-family: &quot;Helvetica Neue&quot;, sans-serif; font-size: 12px; font-weight: 200;" x="144.52300024032593" y="0" dx="0em" dy="0.95em" fill="rgb(50, 49, 63)" stroke="none" stroke-width="1px">5k</text><text style="text-anchor: middle; visibility: hidden; font-family: &quot;Helvetica Neue&quot;, sans-serif; font-size: 12px; font-weight: 200;" x="168.61016694704693" y="0" dx="0em" dy="0.95em" fill="rgb(50, 49, 63)" stroke="none" stroke-width="1px">6k</text><text style="text-anchor: middle; visibility: hidden; font-family: &quot;Helvetica Neue&quot;, sans-serif; font-size: 12px; font-weight: 200;" x="192.69733365376788" y="0" dx="0em" dy="0.95em" fill="rgb(50, 49, 63)" stroke="none" stroke-width="1px">7k</text><text style="text-anchor: middle; visibility: hidden; font-family: &quot;Helvetica Neue&quot;, sans-serif; font-size: 12px; font-weight: 200;" x="216.7845003604889" y="0" dx="0em" dy="0.95em" fill="rgb(50, 49, 63)" stroke="none" stroke-width="1px">8k</text><text style="text-anchor: middle; visibility: hidden; font-family: &quot;Helvetica Neue&quot;, sans-serif; font-size: 12px; font-weight: 200;" x="240.8716670672099" y="0" dx="0em" dy="0.95em" fill="rgb(50, 49, 63)" stroke="none" stroke-width="1px">9k</text><text style="text-anchor: middle; visibility: hidden; font-family: &quot;Helvetica Neue&quot;, sans-serif; font-size: 12px; font-weight: 200;" x="264.95883377393085" y="0" dx="0em" dy="0.95em" fill="rgb(50, 49, 63)" stroke="none" stroke-width="1px">10k</text><text style="text-anchor: middle; visibility: hidden; font-family: &quot;Helvetica Neue&quot;, sans-serif; font-size: 12px; font-weight: 200;" x="289.04600048065186" y="0" dx="0em" dy="0.95em" fill="rgb(50, 49, 63)" stroke="none" stroke-width="1px">11k</text></g><line x1="0" y1="0" x2="289.04600048065186" y2="0" fill="rgb(0, 0, 0)" stroke="rgb(204, 204, 204)" stroke-width="1px"></line></g></g></g></g></svg>